<?xml version="1.0" standalone="no"?>
<!DOCTYPE svg PUBLIC "-//W3C//DTD SVG 1.1//EN" "http://www.w3.org/Graphics/SVG/1.1/DTD/svg11.dtd" >
<svg xmlns="http://www.w3.org/2000/svg" xmlns:xlink="http://www.w3.org/1999/xlink" version="1.1">
<metadata>
Created by FontForge 20170731 at Mon Jan  4 12:02:43 2021
 By Aleksey,,,
2018 Kris Sowersby, Klim Type Foundry. |DCNT
</metadata>
<defs>
<font id="HeldaneText-Regular" horiz-adv-x="1228" >
  <font-face 
    font-family="Heldane Text"
    font-weight="400"
    font-style="italic"
    font-stretch="normal"
    units-per-em="2048"
    panose-1="2 2 5 3 3 2 2 6 2 3"
    ascent="1567"
    descent="-481"
    x-height="922"
    cap-height="1323"
    bbox="-412 -578 2697 2036"
    underline-thickness="81"
    underline-position="-265"
    slope="-20"
    unicode-range="U+000D-FB04"
  />
<missing-glyph horiz-adv-x="1740" 
d="M997 233q20 -105 71.5 -150.5t150.5 -47.5v-35q-55 0 -349 25q-294 -25 -348 -25v35q99 2 150 47.5t71 150.5q10 50 13 105q6 66 12 225q-159 -6 -225 -12q-61 -3 -105 -12q-105 -20 -150.5 -71.5t-47.5 -150.5h-35q0 67 24 349q-24 282 -24 348h35q2 -99 47.5 -150
t150.5 -71q44 -9 105 -15l225 -10q-6 160 -12 223q-3 57 -13 107q-20 105 -71 150.5t-150 47.5v35q66 0 348 -24q282 24 349 24v-35q-99 -2 -150.5 -47.5t-71.5 -150.5q-7 -36 -14 -107l-10 -223l223 10q63 6 107 15q105 20 150.5 71t47.5 150h35q0 -54 -25 -348
q25 -294 25 -349h-35q-2 99 -47.5 150.5t-150.5 71.5q-44 9 -107 12q-63 6 -223 12l10 -225q7 -71 14 -105z" />
    <glyph glyph-name="ff" unicode="ff" horiz-adv-x="1249" 
d="M1210 1473q-113 0 -172 -117t-59 -344v-107l293 10q-11 -64 -41 -102l-252 4v-667q0 -44 16.5 -60t71.5 -20l100 -7v-63q-58 1 -117.5 2t-93 1.5t-61.5 0.5q-47 0 -227 -4v63l49 3q59 4 71.5 15.5t12.5 55.5v676l-436 4v-667q0 -44 16.5 -60t71.5 -20l100 -7v-63
q-58 1 -117.5 2t-93 1.5t-61.5 0.5q-48 0 -228 -4v63l49 3q59 4 71.5 15.5t12.5 55.5v635l-131 62v16l131 98q0 240 115 400q115 161 293 161q85 0 130.5 -30t45.5 -86q0 -36 -25.5 -60t-62.5 -24q-21 0 -38.5 9.5t-45.5 37.5q-28 30 -47 39.5t-43 9.5q-75 0 -109 -108.5
t-34 -352.5v-39l436 10v64q0 245 133 405q74 86 173.5 134.5t205.5 48.5q93 0 151 -32.5t58 -86.5q0 -36 -25.5 -60t-62.5 -24q-40 0 -99 49q-41 35 -67.5 47.5t-57.5 12.5z" />
    <glyph glyph-name="fi" unicode="fi" horiz-adv-x="1153" 
d="M186 137v635l-131 62v16l131 98v31q0 246 152 410q78 84 183 131t214 47q96 0 172 -43q78 -44 78 -97q0 -36 -25.5 -60t-62.5 -24q-26 0 -51 12.5t-68 47.5q-52 41 -83.5 55.5t-63.5 14.5q-123 0 -194.5 -123t-71.5 -342v-103l503 10q38 0 101 37h20q-10 -156 -10 -561
v-254q0 -44 12.5 -55.5t71.5 -15.5l49 -3v-63q-164 4 -221 4q-47 0 -223 -4v63l49 3q59 4 71.5 15.5t12.5 55.5v586q0 39 -29.5 65.5t-77.5 26.5l-329 2v-667q0 -44 16.5 -60t71.5 -20l100 -7v-63q-58 1 -117.5 2t-93 1.5t-61.5 0.5q-48 0 -228 -4v63l49 3q59 4 71.5 15.5
t12.5 55.5z" />
    <glyph glyph-name="fl" unicode="fl" horiz-adv-x="1155" 
d="M55 834v16l131 98v37q0 242 138 401q73 86 173 133.5t205 47.5q160 0 287 -74l-8 -166q-2 -59 -2 -143v-1047q0 -44 12.5 -55.5t71.5 -15.5l49 -3v-63q-164 4 -221 4q-47 0 -223 -4v63l49 3q59 4 71.5 15.5t12.5 55.5v676l-436 4v-667q0 -44 16.5 -60t71.5 -20l100 -7
v-63q-58 1 -117.5 2t-93 1.5t-61.5 0.5q-48 0 -228 -4v63l49 3q59 4 71.5 15.5t12.5 55.5v635zM365 1018v-121l436 10v475q0 44 -44.5 72.5t-111.5 28.5q-280 0 -280 -465z" />
    <glyph glyph-name="ffi" unicode="ffi" horiz-adv-x="1767" 
d="M1677 66l49 -3v-63q-164 4 -221 4q-47 0 -223 -4v63l49 3q59 4 71.5 15.5t12.5 55.5v586q0 39 -29 65.5t-77 26.5l-330 2v-667q0 -44 16.5 -60t71.5 -20l100 -7v-63q-58 1 -117.5 2t-93 1.5t-61.5 0.5q-47 0 -227 -4v63l49 3q59 4 71.5 15.5t12.5 55.5v676l-436 4v-667
q0 -44 16.5 -60t71.5 -20l100 -7v-63q-58 1 -117.5 2t-93 1.5t-61.5 0.5q-48 0 -228 -4v63l49 3q59 4 71.5 15.5t12.5 55.5v635l-131 62v16l131 98q0 240 115 400q115 161 293 161q85 0 130.5 -30t45.5 -86q0 -36 -25.5 -60t-62.5 -24q-21 0 -38.5 9.5t-45.5 37.5
q-28 30 -47 39.5t-43 9.5q-75 0 -109 -108.5t-34 -352.5v-39l436 10v64q0 247 151 410q78 84 183.5 131t214.5 47q96 0 172 -43q77 -44 77 -97q0 -36 -25.5 -60t-62.5 -24q-26 0 -50.5 12t-67.5 48q-52 41 -84 55.5t-64 14.5q-123 0 -194.5 -123t-71.5 -342v-103l504 10
q37 0 100 37h21q-11 -172 -11 -561v-254q0 -44 12.5 -55.5t71.5 -15.5z" />
    <glyph glyph-name="ffl" unicode="ffl" horiz-adv-x="1769" 
d="M365 944v-47l436 10v78q0 243 137 401q73 86 173.5 133.5t205.5 47.5q160 0 287 -74l-9 -166q-2 -59 -2 -143v-1047q0 -44 12.5 -55.5t71.5 -15.5l49 -3v-63q-164 4 -221 4q-47 0 -223 -4v63l49 3q59 4 71.5 15.5t12.5 55.5v676l-436 4v-667q0 -44 16.5 -60t71.5 -20
l100 -7v-63q-58 1 -117.5 2t-93 1.5t-61.5 0.5q-47 0 -227 -4v63l49 3q59 4 71.5 15.5t12.5 55.5v676l-436 4v-667q0 -44 16.5 -60t71.5 -20l100 -7v-63q-58 1 -117.5 2t-93 1.5t-61.5 0.5q-48 0 -228 -4v63l49 3q59 4 71.5 15.5t12.5 55.5v635l-131 62v16l131 98
q0 240 115 400q115 161 293 161q85 0 130.5 -30t45.5 -86q0 -36 -25.5 -60t-62.5 -24q-21 0 -38.5 9.5t-45.5 37.5q-28 30 -47 39.5t-43 9.5q-75 0 -109 -108.5t-34 -352.5zM979 1018v-121l436 10v475q0 44 -44.5 72.5t-110.5 28.5q-281 0 -281 -465z" />
    <glyph glyph-name="f_b" unicode="fb" horiz-adv-x="1757" 
d="M989 1493l-8 -166q-2 -59 -2 -143v-396q76 67 163.5 110.5t149.5 43.5q176 0 283 -119q111 -117 111 -301q0 -225 -140 -377q-72 -78 -167 -121.5t-195 -43.5q-111 0 -213.5 29t-173.5 83q2 39 2 119q2 41 2 201v401l-436 4v-667q0 -44 16.5 -60t71.5 -20l100 -7v-63
q-58 1 -117.5 2t-93 1.5t-61.5 0.5q-48 0 -228 -4v63l49 3q59 4 71.5 15.5t12.5 55.5v635l-131 62v16l131 98v37q0 242 138 401q73 86 173 133.5t205 47.5q160 0 287 -74zM365 1018v-121l436 10v475q0 44 -44.5 72.5t-111.5 28.5q-280 0 -280 -465zM1176 811
q-115 0 -197 -61v-506q0 -82 59.5 -134.5t153.5 -52.5q150 0 233.5 103t83.5 291q0 152 -96 256q-94 104 -237 104z" />
    <glyph glyph-name="f_f_b" unicode="ffb" horiz-adv-x="2371" 
d="M1604 1493l-9 -166q-2 -59 -2 -143v-396q76 67 164 110.5t150 43.5q175 0 282 -119q111 -117 111 -301q0 -226 -139 -377q-72 -78 -167.5 -121.5t-195.5 -43.5q-111 0 -213.5 29t-173.5 83q2 39 2 119q2 41 2 201v401l-436 4v-667q0 -44 16.5 -60t71.5 -20l100 -7v-63
q-58 1 -117.5 2t-93 1.5t-61.5 0.5q-47 0 -227 -4v63l49 3q59 4 71.5 15.5t12.5 55.5v676l-436 4v-667q0 -44 16.5 -60t71.5 -20l100 -7v-63q-58 1 -117.5 2t-93 1.5t-61.5 0.5q-48 0 -228 -4v63l49 3q59 4 71.5 15.5t12.5 55.5v635l-131 62v16l131 98q0 240 115 400
q115 161 293 161q85 0 130.5 -30t45.5 -86q0 -36 -25.5 -60t-62.5 -24q-21 0 -38.5 9.5t-45.5 37.5q-28 30 -47 39.5t-43 9.5q-75 0 -109 -108.5t-34 -352.5v-47l436 10v78q0 243 137 401q73 86 173.5 133.5t205.5 47.5q160 0 287 -74zM979 1018v-121l436 10v475
q0 44 -44.5 72.5t-110.5 28.5q-281 0 -281 -465zM2124 451q0 152 -96 256q-94 104 -238 104q-115 0 -197 -61v-506q0 -82 59.5 -134.5t153.5 -52.5q150 0 234 103t84 291z" />
    <glyph glyph-name="f_h" unicode="fh" horiz-adv-x="1730" 
d="M702 1567q160 0 287 -74l-8 -166q-2 -59 -2 -143v-398q80 69 174.5 112.5t171.5 43.5q119 0 181.5 -73t62.5 -212v-520q0 -44 12.5 -55.5t71.5 -15.5l49 -3v-63q-164 4 -221 4q-48 0 -224 -4v63l50 3q59 4 71.5 15.5t12.5 55.5v453q0 109 -53.5 165t-157.5 56
q-103 0 -201 -59v-615q0 -44 12.5 -55.5t71.5 -15.5l49 -3v-63q-164 4 -221 4q-47 0 -223 -4v63l49 3q59 4 71.5 15.5t12.5 55.5v676l-436 4v-667q0 -44 16.5 -60t71.5 -20l100 -7v-63q-58 1 -117.5 2t-93 1.5t-61.5 0.5q-48 0 -228 -4v63l49 3q59 4 71.5 15.5t12.5 55.5
v635l-131 62v16l131 98v37q0 242 138 401q73 86 173 133.5t205 47.5zM365 1018v-121l436 10v475q0 44 -44.5 72.5t-111.5 28.5q-280 0 -280 -465z" />
    <glyph glyph-name="f_f_h" unicode="ffh" horiz-adv-x="2344" 
d="M2267 66l49 -3v-63q-164 4 -221 4q-47 0 -223 -4v63l49 3q59 4 71.5 15.5t12.5 55.5v453q0 109 -53.5 165t-157.5 56q-103 0 -201 -59v-615q0 -44 12.5 -55.5t71.5 -15.5l49 -3v-63q-164 4 -221 4q-47 0 -223 -4v63l49 3q59 4 71.5 15.5t12.5 55.5v676l-436 4v-667
q0 -44 16.5 -60t71.5 -20l100 -7v-63q-58 1 -117.5 2t-93 1.5t-61.5 0.5q-47 0 -227 -4v63l49 3q59 4 71.5 15.5t12.5 55.5v676l-436 4v-667q0 -44 16.5 -60t71.5 -20l100 -7v-63q-58 1 -117.5 2t-93 1.5t-61.5 0.5q-48 0 -228 -4v63l49 3q59 4 71.5 15.5t12.5 55.5v635
l-131 62v16l131 98q0 240 115 400q115 161 293 161q85 0 130.5 -30t45.5 -86q0 -36 -25.5 -60t-62.5 -24q-21 0 -38.5 9.5t-45.5 37.5q-28 30 -47 39.5t-43 9.5q-75 0 -109 -108.5t-34 -352.5v-47l436 10v78q0 243 137 401q73 86 173.5 133.5t205.5 47.5q160 0 287 -74
l-9 -166q-2 -59 -2 -143v-398q80 69 174.5 112.5t171.5 43.5q119 0 181.5 -73t62.5 -212v-520q0 -44 12.5 -55.5t71.5 -15.5zM979 1018v-121l436 10v475q0 44 -44.5 72.5t-110.5 28.5q-281 0 -281 -465z" />
    <glyph glyph-name="f_idieresis" unicode="f&#xef;" horiz-adv-x="1153" 
d="M55 834v16l131 98v31q0 257 121 422q123 166 309 166q85 0 134 -31.5t49 -85.5q0 -36 -25.5 -60t-62.5 -24q-24 0 -42 11t-44 42q-29 32 -47.5 43t-42.5 11q-82 0 -126 -104t-44 -300v-164l503 10q38 0 101 37h20q-10 -156 -10 -561v-254q0 -44 12.5 -55.5t71.5 -15.5
l49 -3v-63q-164 4 -221 4q-47 0 -223 -4v63l49 3q59 4 71.5 15.5t12.5 55.5v586q0 39 -29.5 65.5t-77.5 26.5l-329 2v-667q0 -44 16.5 -60t71.5 -20l100 -7v-63q-58 1 -117.5 2t-93 1.5t-61.5 0.5q-48 0 -228 -4v63l49 3q59 4 71.5 15.5t12.5 55.5v635zM1163 1247
q0 -47 -33.5 -79.5t-82.5 -32.5t-82 32.5t-33 79.5q0 48 33 80.5t82 32.5t82.5 -33t33.5 -80z" />
    <glyph glyph-name="f_f_idieresis" unicode="ff&#xef;" horiz-adv-x="1767" 
d="M365 944v-39l436 10v64q0 257 121 422q123 166 309 166q85 0 133.5 -31.5t48.5 -85.5q0 -36 -25.5 -60t-62.5 -24q-24 0 -42 11t-44 42q-29 32 -47.5 43t-42.5 11q-82 0 -126 -104t-44 -300v-164l504 10q37 0 100 37h21q-11 -172 -11 -561v-254q0 -44 12.5 -55.5
t71.5 -15.5l49 -3v-63q-164 4 -221 4q-47 0 -223 -4v63l49 3q59 4 71.5 15.5t12.5 55.5v586q0 39 -29 65.5t-77 26.5l-330 2v-667q0 -44 16.5 -60t71.5 -20l100 -7v-63q-58 1 -117.5 2t-93 1.5t-61.5 0.5q-47 0 -227 -4v63l49 3q59 4 71.5 15.5t12.5 55.5v676l-436 4v-667
q0 -44 16.5 -60t71.5 -20l100 -7v-63q-58 1 -117.5 2t-93 1.5t-61.5 0.5q-48 0 -228 -4v63l49 3q59 4 71.5 15.5t12.5 55.5v635l-131 62v16l131 98q0 240 115 400q115 161 293 161q85 0 130.5 -30t45.5 -86q0 -36 -25.5 -60t-62.5 -24q-21 0 -38.5 9.5t-45.5 37.5
q-28 30 -47 39.5t-43 9.5q-75 0 -109 -108.5t-34 -352.5zM1661 1135q-49 0 -82 32.5t-33 79.5q0 48 33 80.5t82 32.5t83 -33t34 -80t-34 -79.5t-83 -32.5z" />
    <glyph glyph-name="f_j" unicode="fj" horiz-adv-x="1134" 
d="M186 137v635l-131 62v16l131 98v31q0 246 152 410q78 84 183 131t214 47q96 0 172 -43q78 -44 78 -97q0 -36 -25.5 -60t-62.5 -24q-26 0 -51 12.5t-68 47.5q-52 41 -83.5 55.5t-63.5 14.5q-123 0 -194.5 -123t-71.5 -342v-103l503 10q38 0 101 37h20q-10 -156 -10 -561
v-452q0 -147 -92 -261.5t-264 -177.5l-19 33q119 82 158 180q39 91 39 328v682q0 39 -29.5 65.5t-77.5 26.5l-329 2v-667q0 -44 16.5 -60t71.5 -20l100 -7v-63q-58 1 -117.5 2t-93 1.5t-61.5 0.5q-48 0 -228 -4v63l49 3q59 4 71.5 15.5t12.5 55.5z" />
    <glyph glyph-name="f_f_j" unicode="ffj" horiz-adv-x="1748" 
d="M1593 391v-452q0 -147 -92 -261.5t-264 -177.5l-18 33q118 81 157 180q39 91 39 328v682q0 39 -29 65.5t-77 26.5l-330 2v-667q0 -44 16.5 -60t71.5 -20l100 -7v-63q-58 1 -117.5 2t-93 1.5t-61.5 0.5q-47 0 -227 -4v63l49 3q59 4 71.5 15.5t12.5 55.5v676l-436 4v-667
q0 -44 16.5 -60t71.5 -20l100 -7v-63q-58 1 -117.5 2t-93 1.5t-61.5 0.5q-48 0 -228 -4v63l49 3q59 4 71.5 15.5t12.5 55.5v635l-131 62v16l131 98q0 240 115 400q115 161 293 161q85 0 130.5 -30t45.5 -86q0 -36 -25.5 -60t-62.5 -24q-21 0 -38.5 9.5t-45.5 37.5
q-28 30 -47 39.5t-43 9.5q-75 0 -109 -108.5t-34 -352.5v-39l436 10v64q0 247 151 410q78 84 183.5 131t214.5 47q96 0 172 -43q77 -44 77 -97q0 -36 -25.5 -60t-62.5 -24q-26 0 -50.5 12t-67.5 48q-52 41 -84 55.5t-64 14.5q-123 0 -194.5 -123t-71.5 -342v-103l504 10
q37 0 100 37h21q-11 -172 -11 -561z" />
    <glyph glyph-name="f_k" unicode="fk" horiz-adv-x="1740" 
d="M1679 68l56 -5v-63q-250 4 -260 4q-70 0 -222 -4v63l80 5q33 3 33 22q0 15 -14 29l-226 276q-56 71 -147 105v-363q0 -44 12.5 -55.5t71.5 -15.5l49 -3v-63q-164 4 -221 4q-47 0 -223 -4v63l49 3q59 4 71.5 15.5t12.5 55.5v676l-436 4v-667q0 -44 16.5 -60t71.5 -20
l100 -7v-63q-58 1 -117.5 2t-93 1.5t-61.5 0.5q-48 0 -228 -4v63l49 3q59 4 71.5 15.5t12.5 55.5v635l-131 62v16l131 98v37q0 242 138 401q73 86 173 133.5t205 47.5q160 0 287 -74l-8 -166q-2 -59 -2 -143v-654q97 0 160 54l239 213q21 18 21 32q0 16 -23 19l-112 12v62
q56 -1 123.5 -2.5t93.5 -1.5q6 0 202 4v-62l-63 -4q-27 -2 -46.5 -10.5t-51.5 -34.5l-328 -264l358 -404q33 -39 59.5 -55t67.5 -20zM365 1018v-121l436 10v475q0 44 -44.5 72.5t-111.5 28.5q-280 0 -280 -465z" />
    <glyph glyph-name="f_f_k" unicode="ffk" horiz-adv-x="2355" 
d="M2294 68l55 -5v-63q-250 4 -260 4q-69 0 -221 -4v63l80 5q32 3 32 22q0 15 -14 29l-225 276q-56 70 -148 105v-363q0 -44 12.5 -55.5t71.5 -15.5l49 -3v-63q-164 4 -221 4q-47 0 -223 -4v63l49 3q59 4 71.5 15.5t12.5 55.5v676l-436 4v-667q0 -44 16.5 -60t71.5 -20
l100 -7v-63q-58 1 -117.5 2t-93 1.5t-61.5 0.5q-47 0 -227 -4v63l49 3q59 4 71.5 15.5t12.5 55.5v676l-436 4v-667q0 -44 16.5 -60t71.5 -20l100 -7v-63q-58 1 -117.5 2t-93 1.5t-61.5 0.5q-48 0 -228 -4v63l49 3q59 4 71.5 15.5t12.5 55.5v635l-131 62v16l131 98
q0 240 115 400q115 161 293 161q85 0 130.5 -30t45.5 -86q0 -36 -25.5 -60t-62.5 -24q-21 0 -38.5 9.5t-45.5 37.5q-28 30 -47 39.5t-43 9.5q-75 0 -109 -108.5t-34 -352.5v-47l436 10v78q0 243 137 401q73 86 173.5 133.5t205.5 47.5q160 0 287 -74l-9 -166q-2 -59 -2 -143
v-654q97 0 160 54l240 213q20 17 20 32q0 16 -22 19l-113 12v62q56 -1 123.5 -2.5t93.5 -1.5q7 0 203 4v-62l-64 -4q-27 -2 -46.5 -10.5t-51.5 -34.5l-328 -264l359 -404q33 -39 59.5 -55t67.5 -20zM1260 1483q-281 0 -281 -465v-121l436 10v475q0 44 -44.5 72.5
t-110.5 28.5z" />
    <glyph glyph-name=".notdef" horiz-adv-x="1740" 
d="M997 233q20 -105 71.5 -150.5t150.5 -47.5v-35q-55 0 -349 25q-294 -25 -348 -25v35q99 2 150 47.5t71 150.5q10 50 13 105q6 66 12 225q-159 -6 -225 -12q-61 -3 -105 -12q-105 -20 -150.5 -71.5t-47.5 -150.5h-35q0 67 24 349q-24 282 -24 348h35q2 -99 47.5 -150
t150.5 -71q44 -9 105 -15l225 -10q-6 160 -12 223q-3 57 -13 107q-20 105 -71 150.5t-150 47.5v35q66 0 348 -24q282 24 349 24v-35q-99 -2 -150.5 -47.5t-71.5 -150.5q-7 -36 -14 -107l-10 -223l223 10q63 6 107 15q105 20 150.5 71t47.5 150h35q0 -54 -25 -348
q25 -294 25 -349h-35q-2 99 -47.5 150.5t-150.5 71.5q-44 9 -107 12q-63 6 -223 12l10 -225q7 -71 14 -105z" />
    <glyph glyph-name=".null" horiz-adv-x="0" 
 />
    <glyph glyph-name="nonmarkingreturn" horiz-adv-x="682" 
 />
    <glyph glyph-name="NULL" horiz-adv-x="1024" 
 />
    <glyph glyph-name="NULL" horiz-adv-x="1024" 
 />
    <glyph glyph-name="CR" unicode="&#xd;" horiz-adv-x="1024" 
 />
    <glyph glyph-name="space" unicode=" " horiz-adv-x="409" 
 />
    <glyph glyph-name="exclam" unicode="!" horiz-adv-x="626" 
d="M412 991q-36 -218 -50 -342q-15 -133 -24 -241h-49q-6 81 -25 241q-17 145 -49 342q-11 83 -22 154q-1 12 -3 31.5t-2 25.5q0 57 37.5 99t87.5 42t87.5 -42t37.5 -99q0 -16 -6 -57q-1 -11 -3.5 -31t-7.5 -56.5t-9 -66.5zM184 109q0 56 37 93.5t92 37.5t92 -37.5t37 -93.5
q0 -54 -37 -90.5t-92 -36.5t-92 36.5t-37 90.5z" />
    <glyph glyph-name="quotedbl" unicode="&#x22;" horiz-adv-x="724" 
d="M623 1348l-76 -541h-41l-76 541q0 45 27 74.5t69 29.5q44 0 70.5 -29.5t26.5 -74.5zM295 1348l-76 -541h-41l-76 541q0 45 27.5 74.5t69.5 29.5q43 0 69.5 -29.5t26.5 -74.5z" />
    <glyph glyph-name="numbersign" unicode="#" horiz-adv-x="1386" 
d="M864 485h262v-79h-290l-160 -426l-74 32l148 394h-338l-160 -426l-74 32l148 394h-224v79h252l140 369h-234v80h262l154 407l74 -32l-142 -375h338l154 407l74 -32l-142 -375h252v-80h-280zM918 854h-338l-140 -369h338z" />
    <glyph glyph-name="dollar" unicode="$" horiz-adv-x="1071" 
d="M848 618q123 -99 123 -243q0 -164 -117 -269q-117 -102 -309 -114l-17 -250h-77l16 248q-103 6 -197.5 43t-156.5 94l-33 313l47 9q47 -166 136 -261t210 -108l37 508q-115 50 -160 76t-82 55q-112 93 -112 239q0 166 114 271q116 104 291 104l12 191h78l-14 -195
q147 -14 260 -94l41 -277l-45 -12q-35 122 -102.5 197.5t-159.5 95.5l-33 -487q103 -45 164 -78q34 -19 86 -56zM311 1028q0 -73 48 -129.5t163 -112.5l33 461q-109 -2 -176.5 -62t-67.5 -157zM793 301q0 80 -49 140.5t-160 113.5l-33 -475q112 7 177 67t65 154z" />
    <glyph glyph-name="percent" unicode="%" horiz-adv-x="1519" 
d="M1159 1360l78 -17l-877 -1415h-129q104 114 244 338l584 955q-42 -35 -111 -62q-68 -26 -117 -26q-43 0 -94 15t-88 38q13 -44 13 -96q0 -160 -97 -289q-95 -127 -225 -127q-103 0 -166 71t-63 187q0 143 94 270q50 68 112.5 104.5t128.5 36.5q44 0 81.5 -13t95.5 -50
q61 -40 103 -54t95 -14q91 0 184 40.5t154 107.5zM266 932q0 -83 32.5 -133.5t80.5 -50.5q80 0 143 106q64 107 64 240q0 82 -27.5 126t-81.5 44q-83 0 -147 -101q-64 -98 -64 -231zM1194 649q98 0 156.5 -68.5t58.5 -185.5q0 -164 -94 -289q-95 -126 -228 -126
q-103 0 -166 71t-63 187q0 143 94 270q49 67 112.5 104t129.5 37zM1014 238q0 -83 32 -134t80 -51q80 0 144 107q63 105 63 239q0 170 -108 170q-85 0 -148 -100q-63 -97 -63 -231z" />
    <glyph glyph-name="ampersand" unicode="&#x26;" horiz-adv-x="1652" 
d="M1567 246l37 -31q-48 -102 -142.5 -168.5t-197.5 -66.5q-91 0 -152 28t-104 90q-22 90 -70 176q-240 -294 -434 -294q-169 0 -277 102q-108 105 -108 272q0 126 82 239t231 195q-85 71 -120.5 134.5t-35.5 138.5q0 121 89 201q87 81 219 81q109 0 190 -69q82 -67 82 -168
q0 -90 -62.5 -159t-172.5 -105q4 -2 21 -15.5t32 -23.5l61 -43l109 -90q96 -89 160 -189q94 143 194 363q8 21 8 28q0 43 -69 46l-95 6v69q2 0 12.5 -0.5t31 -1.5t42.5 -2q51 -2 129 -2q19 0 42 0.5t65 1.5l84 2q29 0 58.5 1t37.5 1v-65l-121 -10q-57 -3 -94 -56
q-97 -161 -176 -284q-92 -139 -109 -162l19 -29q15 -29 16 -31q77 -132 136 -179.5t135 -47.5q66 0 116 27t101 90zM569 1264q-62 0 -102.5 -44.5t-40.5 -115.5q0 -61 36.5 -116t123.5 -120q62 30 96.5 93t34.5 143q0 70 -40.5 115t-107.5 45zM473 754q-87 -54 -135.5 -138
t-48.5 -182q0 -124 82 -203t202 -79q160 0 324 188q-51 83 -158 190q-53 53 -73 70q-39 33 -193 154z" />
    <glyph glyph-name="quotesingle" unicode="'" horiz-adv-x="397" 
d="M295 1348l-76 -541h-41l-76 541q0 45 27.5 74.5t69.5 29.5q43 0 69.5 -29.5t26.5 -74.5z" />
    <glyph glyph-name="parenleft" unicode="(" horiz-adv-x="804" 
d="M135 584q0 253 121 481t371 444l55 -51q-358 -329 -358 -874q0 -546 358 -875l-55 -51q-250 216 -371 444.5t-121 481.5z" />
    <glyph glyph-name="parenright" unicode=")" horiz-adv-x="804" 
d="M670 584q0 -253 -121 -481.5t-371 -444.5l-55 51q358 329 358 875q0 545 -358 874l55 51q250 -216 371 -444t121 -481z" />
    <glyph glyph-name="asterisk" unicode="*" horiz-adv-x="962" 
d="M778 1016l-252 119l-24 -277h-41l-25 277l-252 -119l-20 37l227 159l-227 158l20 39l252 -119l25 277h41l24 -277l252 119l21 -39l-228 -158l228 -159z" />
    <glyph glyph-name="plus" unicode="+" 
d="M1149 600h-481v-481l-107 -21v502h-502l21 109h481v481l107 20v-501h501z" />
    <glyph glyph-name="comma" unicode="," horiz-adv-x="495" 
d="M150 63q-17 27 -17 66q0 47 31 77t82 30q63 0 101 -44.5t38 -119.5q0 -137 -90 -250q-88 -110 -229 -137l-19 53q92 24 154 98q63 69 63 137q0 29 -19.5 45.5t-94.5 44.5z" />
    <glyph glyph-name="hyphen" unicode="-" horiz-adv-x="677" 
d="M102 442l48 127h268q111 0 157 17l-47 -127h-268q-112 0 -158 -17z" />
    <glyph glyph-name="period" unicode="." horiz-adv-x="495" 
d="M119 109q0 56 37 93.5t92 37.5t92 -37.5t37 -93.5q0 -54 -37 -90.5t-92 -36.5t-92 36.5t-37 90.5z" />
    <glyph glyph-name="slash" unicode="/" horiz-adv-x="894" 
d="M203 -27l475 1543h135q-59 -110 -121 -302l-475 -1542h-135q73 137 121 301z" />
    <glyph glyph-name="zero" unicode="0" horiz-adv-x="1245" 
d="M1012 213q-73 -112 -174.5 -172.5t-214.5 -60.5t-215 60.5t-175 172.5q-131 195 -131 449q0 253 131 448q73 112 175 172.5t215 60.5t214.5 -60.5t174.5 -172.5q131 -195 131 -448q0 -254 -131 -449zM936 662q0 261 -86 425q-83 164 -227 164t-230 -164
q-84 -166 -84 -425q0 -263 84 -429q84 -161 230 -161t227 161q86 164 86 429z" />
    <glyph glyph-name="one" unicode="1" horiz-adv-x="884" 
d="M381 203v827q0 25 -11.5 40t-31.5 15q-16 0 -37 -8l-225 -84l-19 68q136 63 269 141q143 83 209 141h45q-9 -73 -9 -305v-835q0 -78 18 -99.5t81 -23.5l166 -4v-76q-125 2 -250 2q-41 2 -115 2t-115 -2q-123 0 -252 -2v76l179 4q43 1 62.5 10t27.5 33.5t8 79.5z" />
    <glyph glyph-name="two" unicode="2" horiz-adv-x="1015" 
d="M864 1036q0 -157 -116 -334q-105 -164 -463 -530h424q87 0 137 16q47 17 100 76h25l-86 -264h-862v20q354 357 497 570q142 210 142 368q0 104 -63.5 163t-176.5 59q-182 0 -340 -211l-51 37q86 155 222 246t288 91q142 0 232.5 -86t90.5 -221z" />
    <glyph glyph-name="three" unicode="3" horiz-adv-x="995" 
d="M618 778q137 -26 214 -111t77 -212q0 -97 -48.5 -189.5t-135.5 -159.5q-163 -126 -381 -126q-124 0 -213 47q-88 49 -88 118q0 32 22.5 53t57.5 21q24 0 44.5 -10t57.5 -41q59 -48 105 -65t104 -17q142 0 224.5 75t82.5 208q0 139 -116.5 211.5t-339.5 72.5v11
q73 85 149 122q58 3 107 0q55 49 79.5 102.5t24.5 123.5q0 78 -55.5 126t-143.5 48q-86 0 -154 -34t-142 -114l-46 33q69 119 191 195q124 77 252 77q133 0 211 -66t78 -175q0 -170 -218 -324z" />
    <glyph glyph-name="four" unicode="4" horiz-adv-x="1241" 
d="M668 244v215h-617v26l719 848h72v-758h92q164 0 256 25l-51 -141h-297v-215q0 -122 14 -144q15 -24 84 -30l88 -7v-63q-258 4 -272 4q-17 0 -275 -4v63l88 7q68 3 82 26q17 31 17 148zM668 1087l-426 -512h426v512z" />
    <glyph glyph-name="five" unicode="5" horiz-adv-x="1003" 
d="M221 168q59 -48 105 -65t104 -17q123 0 205 81t82 204q0 150 -121 245q-125 99 -406 177l185 530h532q0 -44 -31.5 -101.5t-72.5 -88.5l-410 -7l-65 -188q293 -79 418.5 -188.5t125.5 -280.5q0 -97 -43 -189t-122 -161q-73 -67 -168.5 -103t-198.5 -36q-124 0 -213 47
q-88 49 -88 120q0 32 22.5 52t57.5 20q24 0 44.5 -10t57.5 -41z" />
    <glyph glyph-name="six" unicode="6" horiz-adv-x="1126" 
d="M229 145q-127 152 -127 369q0 159 68 306t197 265q116 111 267 183t308 92l14 -66q-313 -88 -481 -296.5t-168 -508.5q0 -185 78 -307q76 -119 207 -119q106 0 175 89t69 229q0 161 -113 244t-305 63v37q56 24 126.5 41.5t112.5 17.5q162 0 269 -98q106 -97 106 -250
q0 -192 -133 -325q-131 -131 -321 -131q-99 0 -190.5 43t-158.5 122z" />
    <glyph glyph-name="seven" unicode="7" horiz-adv-x="1081" 
d="M1032 1323v-8l-649 -1315h-223v8q63 57 176 225q119 177 231 385l283 521h-541q-92 0 -149 -11q-39 -8 -84 -41h-17l76 236h897z" />
    <glyph glyph-name="eight" unicode="8" horiz-adv-x="1116" 
d="M702 717q169 -95 240.5 -182t71.5 -191q0 -74 -40.5 -145.5t-111.5 -122.5q-125 -96 -299 -96q-198 0 -327 100q-134 104 -134 250q0 199 306 332q-130 81 -187 160t-57 173q0 144 117 246t288 102q174 0 293 -94t119 -231q0 -94 -67 -167t-212 -134zM569 1260
q-99 0 -165 -62.5t-66 -153.5q0 -96 119 -182q30 -24 65 -43l129 -74q168 80 168 267q0 113 -67.5 180.5t-182.5 67.5zM553 578l-96 55q-185 -104 -185 -297q0 -114 84 -195q86 -80 207 -80q115 0 186.5 68.5t71.5 177.5q0 54 -34 101t-109 98q-65 40 -125 72z" />
    <glyph glyph-name="nine" unicode="9" horiz-adv-x="1126" 
d="M897 1178q127 -152 127 -369q0 -159 -67.5 -306t-196.5 -265q-116 -111 -267.5 -182.5t-308.5 -92.5l-14 66q313 88 481 296.5t168 508.5q0 183 -78 305q-77 121 -206 121q-106 0 -175 -89t-69 -229q0 -161 113 -244t305 -63v-37q-56 -24 -127 -41.5t-113 -17.5
q-161 0 -268 98t-107 250q0 194 131 325t324 131q99 0 190 -43t158 -122z" />
    <glyph glyph-name="colon" unicode=":" horiz-adv-x="495" 
d="M119 662q0 56 37 93.5t92 37.5t92 -37.5t37 -93.5q0 -54 -37 -90.5t-92 -36.5t-92 36.5t-37 90.5zM119 109q0 56 37 93.5t92 37.5t92 -37.5t37 -93.5q0 -54 -37 -90.5t-92 -36.5t-92 36.5t-37 90.5z" />
    <glyph glyph-name="semicolon" unicode=";" horiz-adv-x="495" 
d="M147 63q-16 26 -16 66q0 47 31 77t82 30q63 0 101 -44.5t38 -119.5q0 -137 -90 -250q-87 -110 -230 -137l-18 53q92 24 154 98q63 69 63 137q0 28 -20 45t-95 45zM121 662q0 56 37 93.5t92 37.5t92 -37.5t37 -93.5q0 -54 -37 -90.5t-92 -36.5t-92 36.5t-37 90.5z" />
    <glyph glyph-name="less" unicode="&#x3c;" horiz-adv-x="1226" 
d="M1071 272v-133l-915 459v109l915 454v-131l-786 -381z" />
    <glyph glyph-name="equal" unicode="=" 
d="M1171 915l-20 -108h-1094l21 108h1093zM1171 498l-20 -109h-1094l21 109h1093z" />
    <glyph glyph-name="greater" unicode="&#x3e;" horiz-adv-x="1226" 
d="M156 139v133l786 377l-786 381v131l915 -454v-109z" />
    <glyph glyph-name="question" unicode="?" horiz-adv-x="909" 
d="M401 532q-26 -33 -26 -124l-45 -7q-39 115 -39 203q0 68 42 109.5t156 77.5q93 31 119 45q62 36 62 102q0 90 -82 166q-38 35 -85 56.5t-85 21.5q-34 0 -94 -25q-45 -24 -88 -24t-70 26.5t-27 69.5q0 50 37.5 82t97.5 32q95 0 188.5 -40t164.5 -113q151 -148 151 -352
q0 -96 -57 -153.5t-201 -94.5q-86 -22 -119 -58zM229 109q0 56 37 93.5t92 37.5t92 -37.5t37 -93.5q0 -54 -37 -90.5t-92 -36.5t-92 36.5t-37 90.5z" />
    <glyph glyph-name="at" unicode="@" horiz-adv-x="1959" 
d="M1409 942q14 0 24 -10.5t11 -28.5q-87 -176 -178 -424q-95 -256 -95 -329q0 -44 35 -44q101 0 198 48t165 133q135 160 135 387q0 253 -149 393.5t-418 140.5q-168 0 -330 -79.5t-291 -225.5q-123 -136 -190.5 -306t-67.5 -341q0 -295 188 -465q191 -170 512 -170
q296 0 570 166l24 -39q-125 -99 -296 -156t-347 -57q-165 0 -307 47t-246 137q-115 96 -174 231t-59 296q0 193 79.5 381.5t225.5 337.5q148 152 333 234.5t380 82.5q297 0 487 -158q100 -87 154.5 -205.5t54.5 -254.5q0 -257 -186 -443q-92 -94 -211 -150.5t-223 -56.5
q-76 0 -123 44.5t-47 117.5q0 65 40 180l-16 2q-79 -127 -209 -241q-127 -109 -200 -109q-60 0 -93.5 45t-33.5 123q0 109 56.5 229t156.5 224q103 110 220.5 172.5t221.5 62.5q50 0 94 -10q67 60 87.5 74t37.5 14zM696 246q0 -38 13.5 -60t38.5 -22q53 0 129 61.5
t157 167.5q122 162 176 332q-23 20 -82 20q-74 0 -157 -45.5t-150 -121.5q-125 -146 -125 -332z" />
    <glyph glyph-name="A" unicode="A" horiz-adv-x="1404" 
d="M1343 68l41 -2v-66q-164 4 -256 4q-71 0 -110 -2q-100 0 -184 -2v66l71 2q63 2 90 15t27 44q0 21 -21 80l-108 285h-467l-111 -279q-22 -54 -22 -82q0 -32 27 -47t90 -16l69 -2v-66q-39 1 -83 2t-67 1.5t-34 0.5h-68q-22 0 -47.5 -0.5t-69.5 -1.5t-90 -2v66l43 2
q68 3 87 22q22 22 65 123l410 991l-39 101q100 11 180 57q64 -191 117 -336l319 -838q29 -72 57 -95t84 -25zM866 563l-200 533l-211 -533h411z" />
    <glyph glyph-name="B" unicode="B" horiz-adv-x="1226" 
d="M674 0h-613v63l89 7q66 3 81 30q17 31 17 144v835q0 101 -6 119q-6 28 -23 38.5t-69 14.5l-105 9v63q25 -2 115 -2q20 0 46 0.5t72 1.5t93 2q67 0 128 1t76 1q235 0 360.5 -82t125.5 -237q0 -120 -86.5 -198t-241.5 -103q168 -9 293 -107q121 -95 121 -238
q0 -161 -131 -262q-126 -100 -342 -100zM553 1249q-73 0 -117 -8v-518l226 4q37 2 78.5 28t70.5 68q51 73 51 174q0 252 -309 252zM600 653h-164v-460q0 -55 58.5 -89t150.5 -34q137 0 217 78.5t80 213.5q0 136 -91.5 213.5t-250.5 77.5z" />
    <glyph glyph-name="C" unicode="C" horiz-adv-x="1294" 
d="M414 285q72 -88 172.5 -134.5t216.5 -46.5q143 0 246 61.5t182 196.5l29 -18l-74 -184q-155 -180 -455 -180q-136 0 -258 47t-213 135q-92 87 -140 208t-48 261q0 144 50 272t146 227q96 102 223.5 157.5t264.5 55.5q119 0 215 -22.5t194 -75.5l56 -340l-43 -16
q-30 87 -57 137t-64 92q-115 133 -305 133q-103 0 -195.5 -45t-159.5 -129q-123 -154 -123 -381q0 -246 140 -411z" />
    <glyph glyph-name="D" unicode="D" horiz-adv-x="1503" 
d="M150 1251l-105 9v63q23 -2 117 -2q25 0 59.5 0.5t96.5 1.5t128 2q125 2 199 2q360 0 572 -170q215 -170 215 -457q0 -154 -57.5 -285.5t-166.5 -228.5q-102 -91 -239 -138.5t-293 -47.5h-615v63l89 7q66 3 81 30q17 31 17 144v835q0 101 -6 119q-6 28 -23 38.5t-69 14.5z
M639 1239q-113 0 -201 -12v-1020q0 -60 68.5 -95.5t185.5 -35.5q234 0 377 162t143 421q0 281 -148 430.5t-425 149.5z" />
    <glyph glyph-name="E" unicode="E" horiz-adv-x="1261" 
d="M1147 410l53 -11q-17 -81 -37 -198q-24 -159 -28 -201q-203 2 -416 2q-72 2 -195 2q-115 0 -463 -4v63l89 7q66 3 81 30q17 31 17 144v835q0 101 -6 119q-6 28 -23 38.5t-69 14.5l-105 9v63h623q276 0 389 18l20 -254q6 -56 15 -106l-45 -10q-28 94 -57 144.5t-68 80.5
q-75 53 -256 53q-125 0 -224 -12q-8 -175 -8 -463v-59l271 4q46 2 64 30t24 113l4 56h61q0 -9 -1 -38.5t-1 -58.5q-1 -37 -2.5 -79t-1.5 -60t1.5 -60t2.5 -79q0 -29 1 -59.5t1 -39.5h-61l-4 56q-7 86 -25.5 114.5t-62.5 30.5l-271 4v-420q0 -80 71 -118.5t220 -38.5
q186 0 274 73q89 77 148 265z" />
    <glyph glyph-name="F" unicode="F" horiz-adv-x="1169" 
d="M545 74l139 -6v-68q-100 2 -217 2q-43 2 -117 2q-39 0 -289 -4v63l89 7q66 3 81 30q17 31 17 144v835q0 101 -6 119q-6 28 -23 38.5t-69 14.5l-105 9v63h641q276 0 389 18q25 -314 35 -376l-53 -11q-28 100 -54.5 151t-62.5 83q-72 61 -256 61q-144 0 -238 -12
q-8 -175 -8 -463v-82l269 4q45 2 63.5 30t24.5 114l4 55h61q0 -9 -1 -38t-1 -58q-1 -36 -2.5 -79t-1.5 -61q0 -17 1.5 -59.5t2.5 -79.5q0 -29 1 -59t1 -39h-61l-4 55q-7 86 -25.5 115t-62.5 31l-269 4v-383q0 -87 11 -121q8 -26 27.5 -37t68.5 -12z" />
    <glyph glyph-name="G" unicode="G" horiz-adv-x="1474" 
d="M1241 350v-198l117 43l8 -52q-129 -76 -283 -119.5t-299 -43.5q-147 0 -276 45t-225 131q-211 186 -211 483q0 149 55.5 279t159.5 227q103 94 238.5 146t277.5 52q218 -3 405 -100l56 -336l-43 -16q-30 87 -57 137t-64 92q-120 135 -320 135q-106 0 -202.5 -44.5
t-165.5 -125.5q-136 -155 -136 -389q0 -275 160 -446q164 -170 414 -170q117 0 201 20v250q0 117 -17 144q-15 24 -82 30l-110 6v64q250 -4 282 -4q31 0 281 4v-64l-66 -6q-69 -6 -84 -30q-14 -22 -14 -144z" />
    <glyph glyph-name="H" unicode="H" horiz-adv-x="1609" 
d="M1460 70l88 -7v-63q-250 4 -280 4q-33 0 -283 -4v63l88 7q67 3 82 30q16 29 16 144v399q-39 2 -116 2q-39 2 -183 2h-135q-145 0 -184 -2q-76 0 -115 -2v-399q0 -117 15 -144t84 -30l88 -7v-63q-250 4 -281 4q-33 0 -283 -4v63l89 7q66 3 81 30q17 31 17 144v835
q0 111 -17 142q-16 29 -81 32l-89 7v63q250 -4 281 -4q33 0 283 4v-63l-88 -7q-68 -3 -84 -32q-15 -27 -15 -142v-358l115 -4h184h135h183l116 4v358q0 113 -16 142t-82 32l-88 7v63q250 -4 281 -4q32 0 282 4v-63l-88 -7q-68 -3 -84 -32q-14 -25 -14 -142v-835
q0 -119 14 -144q15 -27 84 -30z" />
    <glyph glyph-name="I" unicode="I" horiz-adv-x="686" 
d="M248 244v835q0 111 -17 142q-16 29 -81 32l-89 7v63q250 -4 281 -4q33 0 283 4v-63l-88 -7q-68 -3 -84 -32q-15 -27 -15 -142v-835q0 -117 15 -144t84 -30l88 -7v-63q-250 4 -281 4q-33 0 -283 -4v63l89 7q66 3 81 30q17 31 17 144z" />
    <glyph glyph-name="J" unicode="J" horiz-adv-x="651" 
d="M420 1079l2 -985q0 -153 -99.5 -275.5t-291.5 -207.5l-21 39q118 75 168 205q51 122 51 362v862q0 113 -16 142t-82 32l-88 7v63q250 -4 281 -4q32 0 282 4v-63l-88 -7q-68 -3 -84 -32q-14 -25 -14 -142z" />
    <glyph glyph-name="K" unicode="K" horiz-adv-x="1411" 
d="M1329 70l103 -7v-63l-124 2t-97.5 1.5t-65.5 0.5q-64 0 -101 -2q-106 0 -210 -2v63l110 5q31 3 31 22q0 14 -12 29l-404 461q-43 49 -66.5 66.5t-54.5 23.5v-426q0 -117 15 -144t84 -30l88 -7v-63q-250 4 -281 4q-33 0 -283 -4v63l89 7q66 3 81 30q17 31 17 144v835
q0 111 -17 142q-16 29 -81 32l-89 7v63q250 -4 281 -4q33 0 283 4v-63l-88 -7q-68 -3 -84 -32q-15 -27 -15 -142v-364q35 1 54 8.5t36 24.5l418 391q58 58 58 84q0 27 -50 30l-94 7v63q29 -1 65.5 -1.5t58.5 -1t36 -1.5h90q30 0 107 1.5t141 2.5v-63l-58 -3q-52 -3 -96 -24
q-42 -22 -135 -103l-424 -380l557 -607q36 -41 63.5 -56t63.5 -17z" />
    <glyph glyph-name="L" unicode="L" horiz-adv-x="1200" 
d="M520 4q-115 0 -459 -4v63l89 7q66 3 81 30q17 31 17 144v835q0 111 -17 142q-16 29 -81 32l-89 7v63q250 -4 281 -4q33 0 283 4v-63l-88 -7q-68 -3 -84 -32q-15 -27 -15 -142v-878q0 -57 74.5 -93t192.5 -36q153 0 243 78q88 79 164 278l57 -10q-25 -100 -51 -230
q-30 -152 -35 -188q-158 2 -354 2q-76 2 -209 2z" />
    <glyph glyph-name="M" unicode="M" horiz-adv-x="1880" 
d="M1464 223l-102 951l-455 -1176h-18l-426 1176l-129 -959q-1 -14 -2 -26t-1.5 -18.5t-0.5 -10.5q0 -45 21 -65t71 -21l129 -6v-68q-42 1 -90 2t-73.5 1.5t-37.5 0.5h-74q-52 0 -81 -2q-80 0 -156 -2v66l86 4q51 2 73 29.5t35 115.5l134 930q0 51 -24 77.5t-75 30.5l-73 7
v63q160 -4 249 -4q28 0 160 4l346 -983l375 983q32 -1 64.5 -2t51.5 -1.5t36 -0.5h92q15 1 39.5 1.5t63 1t69.5 1.5v-63l-86 -5q-56 -5 -78.5 -32t-22.5 -93l99 -903q11 -93 29.5 -123t72.5 -34l86 -4v-66q-246 4 -274 4q-5 0 -283 -4v66l86 4q59 4 78.5 23t19.5 69
q0 27 -4 61z" />
    <glyph glyph-name="N" unicode="N" horiz-adv-x="1507" 
d="M1288 887v-910h-18l-928 1065l2 -608q0 -168 4 -254q3 -63 17 -84q19 -22 79 -24l123 -9v-63q-67 1 -144.5 2.5t-107.5 1.5t-108.5 -1.5t-145.5 -2.5v63l86 7q41 5 57 10t23 16q14 21 17 84q4 86 4 256v711q-62 63 -105 91.5t-102 41.5v43q164 -4 168 -4q16 0 160 4
q249 -304 426 -516q214 -255 397 -465l-2 545q-3 236 -6 280q-3 43 -13 60q-19 22 -79 24l-123 9v63q67 -1 145.5 -2.5t108.5 -1.5t107.5 1.5t144.5 2.5v-63l-86 -7q-41 -5 -57 -10t-23 -16q-14 -21 -17 -84q-4 -86 -4 -256z" />
    <glyph glyph-name="O" unicode="O" horiz-adv-x="1519" 
d="M274 1143q98 96 224.5 148t261.5 52t261 -51t224 -145q98 -97 150.5 -221t52.5 -260q0 -137 -52.5 -262.5t-150.5 -223.5q-98 -97 -224 -148.5t-261 -51.5t-261.5 51t-224.5 145q-98 97 -150 220.5t-52 260.5t52 262.5t150 223.5zM287 668q0 -255 133 -426
q134 -168 340 -168t338 164q135 164 135 417q0 255 -135 424q-132 170 -338 170q-205 0 -340 -164q-133 -165 -133 -417z" />
    <glyph glyph-name="P" unicode="P" horiz-adv-x="1181" 
d="M350 4q-39 0 -289 -4v63l89 7q66 3 81 30q17 31 17 144v835q0 101 -6 119q-6 28 -23 38.5t-69 14.5l-105 9v63q25 -2 113 -2q25 0 89.5 1.5t117.5 2.5q66 0 126.5 1t75.5 1q267 0 415 -98t148 -277q0 -167 -143 -274q-141 -105 -348 -105q-66 0 -90 9v43q191 0 283 81.5
t92 251.5q0 135 -97 214t-262 79q-72 0 -119 -6l-6 -198q-2 -59 -2 -234v-569q0 -87 11 -121q8 -26 27.5 -37t68.5 -12l139 -6v-68q-100 2 -217 2q-43 2 -117 2z" />
    <glyph glyph-name="Q" unicode="Q" horiz-adv-x="1519" 
d="M1589 -330v-30q-167 -80 -258 -80q-166 0 -352 131l-547 370q-168 91 -264 249.5t-96 346.5q0 137 52 262.5t150 223.5q98 96 224.5 148t261.5 52t261 -51t224 -145q98 -97 150.5 -221t52.5 -260q0 -137 -52.5 -262.5t-150.5 -223.5q-98 -97 -224 -148.5t-261 -51.5h-2
l329 -160q201 -97 293 -123q99 -27 209 -27zM287 668q0 -255 133 -426q134 -168 340 -168t338 164q135 164 135 417q0 255 -135 424q-132 170 -338 170q-205 0 -340 -164q-133 -165 -133 -417z" />
    <glyph glyph-name="R" unicode="R" horiz-adv-x="1396" 
d="M1407 47v-47q-112 -14 -197 -14q-197 0 -329 209q-90 149 -213 438l-230 4v-393q0 -117 15 -144t84 -30l88 -7v-63q-250 4 -281 4q-33 0 -283 -4v63l89 7q66 3 81 30q17 31 17 144v835q0 101 -6 119q-6 28 -23 38.5t-69 14.5l-105 9v63q25 -2 117 -2q22 0 49.5 0.5
t77.5 1.5t102 2q71 0 135 1t76 1q541 0 541 -338q0 -112 -83 -194t-243 -129q149 -258 295 -449q72 -93 135 -129t160 -41zM446 1247l-6 -198q-2 -61 -2 -236v-117l254 4q95 3 166 80q74 80 74 197q0 133 -88 204.5t-252 71.5q-83 0 -146 -6z" />
    <glyph glyph-name="S" unicode="S" horiz-adv-x="1011" 
d="M924 381q0 -176 -131 -289q-127 -112 -332 -112q-108 0 -208.5 37t-168.5 100l-33 313l47 8q51 -183 147.5 -276.5t231.5 -93.5q115 0 187.5 67t72.5 172q0 113 -94 189q-60 47 -194 106q-160 71 -224 129q-102 84 -102 230q0 167 119 274q120 108 295 108q182 0 313 -98
l39 -276l-43 -13q-41 143 -125.5 222t-196.5 79q-103 0 -168 -62.5t-65 -160.5q0 -100 98 -176q67 -46 186 -100q100 -48 154 -80q40 -22 84 -60q111 -99 111 -237z" />
    <glyph glyph-name="T" unicode="T" horiz-adv-x="1402" 
d="M895 70l109 -7v-63q-212 4 -302 4q-91 0 -303 -4v63l109 7q68 3 82 28q16 29 16 146v647q0 184 -4 360h-190q-81 0 -132 -22.5t-87 -75.5q-43 -60 -95 -233l-47 10q24 208 35 413q109 -20 389 -20h453q283 0 389 20q11 -205 35 -413l-47 -10q-52 173 -95 233
q-36 53 -87 75.5t-132 22.5h-190q-4 -176 -4 -360v-647q0 -121 14 -146t84 -28z" />
    <glyph glyph-name="U" unicode="U" horiz-adv-x="1511" 
d="M766 -20q-245 0 -395 135q-150 138 -150 377v587q0 113 -16 142t-82 32l-88 7v63q250 -4 280 -4q33 0 283 4v-63l-88 -7q-68 -3 -84 -32q-14 -25 -14 -142v-553q0 -204 102 -316t287 -112q191 0 291 108.5t100 317.5v363q0 186 -4 264q-3 63 -14 76q-19 22 -80 24l-123 9
v63q67 -1 145.5 -2.5t108.5 -1.5t107.5 1.5t144.5 2.5v-63l-86 -7q-41 -5 -57 -10t-23 -16q-14 -21 -17 -84q-4 -86 -4 -256v-389q0 -242 -143 -379q-145 -139 -381 -139z" />
    <glyph glyph-name="V" unicode="V" horiz-adv-x="1402" 
d="M379 1202q0 -28 20 -72l369 -866l336 862q20 44 20 76q0 25 -20.5 37.5t-67.5 13.5l-110 7v63q31 -1 71.5 -1.5t63.5 -1t37 -1.5h84q48 0 200 4v-63l-34 -3q-70 -3 -95 -38q-15 -22 -47 -99l-467 -1140h-28l-514 1144q-25 58 -47 97q-24 33 -93 36l-37 3v63
q250 -4 277 -4q21 0 287 4v-63l-113 -7q-51 -5 -71.5 -16t-20.5 -35z" />
    <glyph glyph-name="W" unicode="W" horiz-adv-x="1959" 
d="M1759 1116l-420 -1136h-28l-310 884l-335 -884h-29l-434 1140q-1 1 -17 41q-16 39 -24 53q-25 43 -84 43l-58 3v63q58 -1 117 -2t93 -1.5t61 -0.5t60 0.5t91 1.5t115 2v-63l-100 -7q-44 -5 -63 -17t-19 -38q0 -30 18 -72l309 -833l252 702l-43 125q-9 20 -19 43t-14.5 34
t-7.5 15q-24 37 -84 45l-49 3v63q53 -1 112.5 -2t94.5 -1.5t64 -0.5t63.5 0.5t93.5 1.5t113 2v-63l-121 -7q-42 -2 -61 -15t-19 -42q0 -14 17 -70l276 -815l291 811q16 53 16 74q0 29 -18.5 42t-59.5 15l-114 7v63q218 -4 227 -4q19 0 227 4v-63l-45 -3q-49 -3 -75 -26
q-23 -21 -60 -115z" />
    <glyph glyph-name="X" unicode="X" horiz-adv-x="1464" 
d="M1389 68l55 -5v-63q-55 1 -117.5 2t-99 1.5t-66.5 0.5q-8 0 -270 -4v63l94 7q59 9 59 34q0 26 -45 86l-305 416l-315 -416q-47 -63 -47 -86q0 -29 51 -32l111 -9v-63q-242 4 -246 4q-32 0 -228 -4v63l56 5q52 2 90.5 27t99.5 102l377 477l-330 448q-58 81 -95.5 108
t-78.5 27l-57 3v63q242 -4 254 -4h104q17 1 43.5 1.5t68 1t73.5 1.5v-63l-88 -7q-54 -3 -54 -39q0 -32 43 -86l248 -333l242 333q39 51 39 84q0 38 -49 41l-99 7v63q26 -1 59 -1.5t54 -1t35 -1.5h84q1 0 219 4v-63l-53 -3q-82 -3 -183 -137l-297 -391l394 -530
q72 -93 96 -107q35 -21 74 -24z" />
    <glyph glyph-name="Y" unicode="Y" horiz-adv-x="1394" 
d="M600 244v350l-371 530q-54 75 -90.5 101.5t-85.5 31.5l-33 3v63q58 -1 117 -2t93 -1.5t63 -0.5h102q16 1 42 1.5t68.5 1t76.5 1.5v-63l-109 -7q-72 -3 -72 -43q0 -27 37 -80l310 -450l317 446q39 51 39 84q0 40 -72 43l-106 7v63q44 -1 92.5 -2t76.5 -1.5t50 -0.5
q24 0 53 0.5t79 1.5t97 2v-63l-31 -3q-62 -3 -102 -43l-20 -22q-3 -3 -9 -11t-19.5 -26.5t-25.5 -34.5l-376 -526v-350q0 -121 14 -146t84 -28l108 -7v-63q-212 4 -301 4q-91 0 -303 -4v63l109 7q68 3 82 28q16 29 16 146z" />
    <glyph glyph-name="Z" unicode="Z" horiz-adv-x="1261" 
d="M733 84q107 0 169.5 18.5t107.5 61.5q73 68 147 254l53 -10q-68 -287 -80 -408h-1069v25l834 1216h-424q-135 0 -201 -63q-68 -65 -125 -242l-47 8q25 186 39 395q154 -16 389 -16h617v-25l-815 -1208l194 -4q80 -2 211 -2z" />
    <glyph glyph-name="bracketleft" unicode="[" horiz-adv-x="890" 
d="M748 -272v-66h-482v1854h482v-66l-326 -20v-1682z" />
    <glyph glyph-name="backslash" unicode="\" horiz-adv-x="894" 
d="M82 1516h135l475 -1543q61 -190 121 -301h-135l-475 1542q-48 166 -121 302z" />
    <glyph glyph-name="bracketright" unicode="]" horiz-adv-x="890" 
d="M143 -338v66l326 20v1682l-326 20v66h482v-1854h-482z" />
    <glyph glyph-name="asciicircum" unicode="^" horiz-adv-x="1048" 
d="M864 750l-78 -13l-262 471l-262 -471l-78 13l271 620q22 49 69 49q48 0 70 -49z" />
    <glyph glyph-name="underscore" unicode="_" horiz-adv-x="1087" 
d="M102 -295l48 117h677q115 0 158 16l-47 -117h-678q-115 0 -158 -16z" />
    <glyph glyph-name="grave" unicode="`" horiz-adv-x="1024" 
d="M453 1556q56 0 77 -61l144 -422l-49 -12l-277 440q18 24 47 39.5t58 15.5z" />
    <glyph glyph-name="a" unicode="a" horiz-adv-x="913" 
d="M291 -14q-92 0 -156.5 60.5t-64.5 146.5q0 79 61 140.5t170 92.5l260 76l2 166q0 72 -53 115.5t-141 43.5q-49 0 -76 -25.5t-27 -70.5q0 -32 6 -80q-70 -24 -141 -24q-33 0 -33 26q0 41 43 94t115 103q61 43 125 67.5t111 24.5q245 0 245 -264l-10 -461q0 -47 28 -77.5
t72 -30.5q39 0 76 16l8 -12q-19 -56 -66 -92.5t-102 -36.5q-57 0 -104 32.5t-76 92.5q-56 -53 -132 -88t-140 -35zM557 147l4 291l-194 -59q-63 -19 -91 -50t-28 -85q0 -61 40.5 -101.5t98.5 -40.5q87 0 170 45z" />
    <glyph glyph-name="b" unicode="b" horiz-adv-x="1103" 
d="M326 985v-197q76 67 163.5 110.5t149.5 43.5q176 0 283 -119q110 -116 110 -301q0 -226 -139 -377q-72 -78 -167.5 -121.5t-195.5 -43.5q-111 0 -213.5 29t-173.5 83q2 39 2 119q2 41 2 201v888q0 47 -11.5 67.5t-39.5 31.5l-84 35v24q191 56 301 109h21q-8 -123 -8 -582
zM856 451q0 152 -96 256q-94 104 -238 104q-114 0 -196 -61v-506q0 -82 59.5 -134.5t153.5 -52.5q150 0 233.5 103t83.5 291z" />
    <glyph glyph-name="c" unicode="c" horiz-adv-x="909" 
d="M655 774q-28 55 -51 73.5t-57 18.5q-57 0 -117 -33t-102 -90q-74 -104 -74 -245q0 -148 92 -260q47 -59 110 -91t130 -32q150 0 245 127l29 -21q-41 -108 -137.5 -174.5t-212.5 -66.5q-185 0 -309 124q-125 125 -125 316q0 214 141 364q69 75 161.5 116.5t190.5 41.5
q118 0 199.5 -48.5t81.5 -117.5q0 -44 -23.5 -69t-64.5 -25q-34 0 -58 19t-49 73z" />
    <glyph glyph-name="d" unicode="d" horiz-adv-x="1128" 
d="M1004 117l112 -8v-48q-39 -7 -219 -57l-104 -31h-21l6 146q-76 -62 -158 -100.5t-141 -38.5q-169 0 -289 120q-118 121 -118 301q0 226 137 375q72 79 167 122.5t195 43.5t207 -47v405q0 47 -11.5 66.5t-39.5 32.5l-84 35v24q191 56 301 109h21q-9 -138 -9 -582v-815
q0 -30 8.5 -39t39.5 -14zM248 477q0 -154 100 -260t248 -106q109 0 182 49v526q0 24 -22.5 59t-57.5 64q-60 57 -135 57q-144 0 -229.5 -104t-85.5 -285z" />
    <glyph glyph-name="e" unicode="e" horiz-adv-x="942" 
d="M852 258l29 -18q-48 -118 -148 -189t-221 -71q-194 0 -317 126q-123 129 -123 334q0 203 131 346q68 74 155 115t177 41q145 0 237 -86q94 -82 94 -213q0 -31 -21 -50.5t-57 -19.5h-538q-1 -16 -2 -34t-1.5 -29t-0.5 -21q0 -157 96 -264q98 -104 240 -104q83 0 147 32
t123 105zM678 698q0 76 -46 122t-124 46q-88 0 -154 -61.5t-92 -169.5l371 8q45 0 45 55z" />
    <glyph glyph-name="f" unicode="f" horiz-adv-x="634" 
d="M55 834v16l131 98v31q0 245 133 405q74 86 173.5 134.5t205.5 48.5q93 0 151 -32.5t58 -86.5q0 -36 -25.5 -60t-62.5 -24q-22 0 -42.5 10t-55.5 39q-41 35 -67.5 47.5t-57.5 12.5q-113 0 -172 -117t-59 -344v-107l292 10q-11 -64 -41 -102l-251 4v-667q0 -44 16.5 -60
t71.5 -20l100 -7v-63q-58 1 -117.5 2t-93 1.5t-61.5 0.5q-48 0 -228 -4v63l49 3q59 4 71.5 15.5t12.5 55.5v635z" />
    <glyph glyph-name="g" unicode="g" horiz-adv-x="1019" 
d="M999 -94q0 -91 -51.5 -171.5t-148.5 -140.5q-162 -98 -369 -98q-183 0 -288 64t-105 174q0 75 58 137t163 100q-69 19 -109 60.5t-40 95.5q0 65 52.5 126.5t133.5 94.5q-91 38 -143 111t-52 164q0 140 103 229q104 90 262 90q107 0 211 -55q43 7 186 35q94 18 109 18
q35 0 35 -66q0 -62 -23 -88q-91 29 -231 41q82 -88 82 -188q0 -142 -107 -233q-108 -91 -262 -91q-55 0 -133 19q-41 -20 -65.5 -51t-24.5 -62q0 -84 116 -84h435q86 0 146 -65t60 -166zM289 655q0 -126 50.5 -201t137.5 -75q80 0 122 58.5t42 168.5q0 124 -49.5 198.5
t-134.5 74.5q-79 0 -123.5 -59.5t-44.5 -164.5zM848 -176q0 143 -203 143h-352q-90 -50 -90 -160q0 -104 80 -162.5t221 -58.5q140 0 241 70q103 71 103 168z" />
    <glyph glyph-name="h" unicode="h" horiz-adv-x="1110" 
d="M1032 66l49 -3v-63q-164 4 -221 4q-47 0 -223 -4v63l49 3q59 4 71.5 15.5t12.5 55.5v453q0 109 -53.5 165t-157.5 56q-103 0 -201 -59v-615q0 -44 12.5 -55.5t71.5 -15.5l50 -3v-63q-164 4 -222 4q-47 0 -223 -4v63l49 3q59 4 71.5 15.5t12.5 55.5v1163q0 47 -11.5 67.5
t-39.5 31.5l-84 35v24q191 56 301 109h21q-9 -138 -9 -582v-199q80 69 175 112.5t172 43.5q119 0 181 -73t62 -212v-520q0 -44 12.5 -55.5t71.5 -15.5z" />
    <glyph glyph-name="i" unicode="i" horiz-adv-x="540" 
d="M399 1280q0 -51 -34.5 -85t-85.5 -34t-85 34t-34 85t34 86t85 35t85.5 -35t34.5 -86zM449 66l49 -3v-63q-164 4 -222 4q-47 0 -223 -4v63l49 3q59 4 71.5 15.5t12.5 55.5v525q0 43 -10.5 61.5t-40.5 36.5l-65 41v26q131 40 284 125h21q-10 -156 -10 -561v-254
q0 -44 12.5 -55.5t71.5 -15.5z" />
    <glyph glyph-name="j" unicode="j" horiz-adv-x="512" 
d="M268 1401q51 0 86 -35t35 -86t-35 -85t-86 -34t-84.5 34t-33.5 85t33.5 86t84.5 35zM354 391v-452q0 -147 -92 -261.5t-264 -177.5l-18 33q118 81 157 180q39 91 39 328v621q0 43 -10.5 61.5t-40.5 36.5l-66 41v26q133 41 285 125h21q-11 -172 -11 -561z" />
    <glyph glyph-name="k" unicode="k" horiz-adv-x="1122" 
d="M1059 68l55 -5v-63q-250 4 -260 4q-69 0 -221 -4v63l80 5q32 3 32 22q0 15 -14 29l-225 276q-56 70 -148 105v-363q0 -44 12.5 -55.5t71.5 -15.5l50 -3v-63q-164 4 -222 4q-47 0 -223 -4v63l49 3q59 4 71.5 15.5t12.5 55.5v1163q0 47 -11.5 67.5t-39.5 31.5l-84 35v24
q191 56 301 109h21q-9 -138 -9 -582v-455q97 0 160 54l240 213q20 17 20 32q0 16 -22 19l-113 12v62q56 -1 123.5 -2.5t93.5 -1.5q7 0 203 4v-62l-64 -4q-27 -2 -46.5 -10.5t-51.5 -34.5l-328 -264l359 -404q33 -39 59.5 -55t67.5 -20z" />
    <glyph glyph-name="l" unicode="l" horiz-adv-x="534" 
d="M442 66l50 -3v-63q-164 4 -222 4q-47 0 -223 -4v63l49 3q59 4 71.5 15.5t12.5 55.5v1163q0 47 -11.5 67.5t-39.5 31.5l-84 35v24q191 56 301 109h21q-9 -138 -9 -582v-848q0 -44 12.5 -55.5t71.5 -15.5z" />
    <glyph glyph-name="m" unicode="m" horiz-adv-x="1689" 
d="M1612 66l49 -3v-63q-164 4 -221 4q-47 0 -223 -4v63l49 3q59 4 71.5 15.5t12.5 55.5v455q0 219 -205 219q-44 0 -100.5 -18.5t-106.5 -49.5q8 -33 8 -86v-520q0 -44 12.5 -55.5t71.5 -15.5l49 -3v-63q-164 4 -221 4q-47 0 -223 -4v63l49 3q59 4 71.5 15.5t12.5 55.5v455
q0 219 -205 219q-106 0 -198 -57v-617q0 -44 12.5 -55.5t71.5 -15.5l49 -3v-63q-164 4 -222 4q-47 0 -223 -4v63l49 3q59 4 71.5 15.5t12.5 55.5v525q0 43 -10.5 61.5t-40.5 36.5l-65 41v26q131 40 284 125h21l-10 -161q79 70 167.5 110.5t165.5 40.5q184 0 232 -168
q88 80 179.5 124t170.5 44q118 0 183 -75t65 -210v-520q0 -44 12.5 -55.5t71.5 -15.5z" />
    <glyph glyph-name="n" unicode="n" horiz-adv-x="1116" 
d="M1038 66l49 -3v-63q-164 4 -221 4q-47 0 -223 -4v63l49 3q59 4 71.5 15.5t12.5 55.5v453q0 109 -53.5 165t-157.5 56t-200 -57v-617q0 -44 12.5 -55.5t71.5 -15.5l49 -3v-63q-164 4 -222 4q-47 0 -223 -4v63l49 3q59 4 71.5 15.5t12.5 55.5v525q0 43 -10.5 61.5
t-40.5 36.5l-65 41v26q131 40 284 125h21l-10 -161q78 66 174.5 108.5t171.5 42.5q119 0 181 -73t62 -212v-520q0 -44 12.5 -55.5t71.5 -15.5z" />
    <glyph glyph-name="o" unicode="o" horiz-adv-x="1081" 
d="M877 123q-137 -143 -336 -143q-94 0 -181 36t-153 103q-135 135 -135 338q0 206 133 342q137 143 336 143q94 0 180.5 -36t152.5 -103q136 -136 136 -338q0 -206 -133 -342zM815 453q0 182 -76 295q-77 114 -198 114q-123 0 -199 -108t-76 -285q0 -184 76 -297t199 -113
t198.5 108.5t75.5 285.5z" />
    <glyph glyph-name="p" unicode="p" horiz-adv-x="1118" 
d="M426 -410l156 -6v-67q-38 1 -86.5 1.5t-77 1t-45.5 1.5h-105q-63 0 -239 -4v63l49 2q58 4 71 16t13 56v1008q0 43 -10.5 61.5t-40.5 36.5l-66 41v26q133 41 285 125h20l-10 -157q62 53 158 100q100 47 155 47q176 0 283 -119q111 -117 111 -301q0 -222 -136 -377
q-72 -78 -166.5 -121.5t-193.5 -43.5q-121 0 -211 38v-362q0 -38 17.5 -51t68.5 -15zM340 752v-545q3 -40 76 -98q76 -54 139 -54q148 0 231.5 104t83.5 292q0 152 -96 256q-94 104 -237 104q-120 0 -197 -59z" />
    <glyph glyph-name="q" unicode="q" horiz-adv-x="1112" 
d="M1040 -418l50 -2v-63q-168 4 -246 4h-117q-24 -1 -91 -2t-99 -2v67l155 6q51 2 68.5 15t17.5 51v461q-75 -62 -155.5 -99.5t-137.5 -37.5q-173 0 -292 122q-121 124 -121 299q0 223 139 377q72 78 167 121t195 43q59 0 118 -15t155 -57l80 88h39q-9 -123 -9 -327v-977
q0 -44 13 -56t71 -16zM248 477q0 -152 102 -260q100 -106 252 -106q106 0 176 47v528q0 24 -22.5 59t-57.5 64q-60 57 -135 57q-144 0 -229.5 -104t-85.5 -285z" />
    <glyph glyph-name="r" unicode="r" horiz-adv-x="811" 
d="M453 70l100 -7v-63q-58 1 -117.5 2t-93 1.5t-61.5 0.5q-48 0 -228 -4v63l49 3q59 4 71.5 15.5t12.5 55.5v525q0 43 -10.5 61.5t-40.5 36.5l-65 41v26q131 40 284 125h21q-10 -222 -10 -245q188 235 303 235q51 0 82.5 -31.5t31.5 -81.5q0 -49 -28 -77.5t-72 -28.5
q-29 0 -68 27q-38 22 -55 22q-31 0 -96 -41q-61 -38 -98 -82v-499q0 -44 16.5 -60t71.5 -20z" />
    <glyph glyph-name="s" unicode="s" horiz-adv-x="798" 
d="M723 285q0 -129 -105 -217q-104 -88 -245 -88q-82 0 -162 27.5t-123 70.5l-20 235h47q31 -124 99 -189t165 -65q80 0 134 45t54 113q0 53 -39 92q-33 36 -163 90q-123 53 -172 93q-82 64 -82 172q0 117 90 198q89 80 215 80q150 0 252 -88l18 -211h-43q-53 219 -231 219
q-70 0 -111 -37t-41 -102q0 -49 37 -86q37 -34 162 -86q135 -52 180 -92q84 -69 84 -174z" />
    <glyph glyph-name="t" unicode="t" horiz-adv-x="714" 
d="M395 -20q-100 0 -165.5 52.5t-65.5 133.5l10 592l-125 88v14q170 120 270 250h29l-6 -111q-2 -43 -2 -94l334 10q-11 -64 -41 -102l-293 4v-592q0 -119 168 -119q103 0 180 62l17 -16q-39 -76 -125 -124t-185 -48z" />
    <glyph glyph-name="u" unicode="u" horiz-adv-x="1099" 
d="M954 117l113 -8v-48l-88 -20q-61 -15 -234 -64h-20l4 164q-173 -161 -317 -161q-115 0 -179.5 68.5t-64.5 191.5v516q0 41 -14.5 58.5t-51.5 23.5l-75 10v55q105 5 159 10l148 15h20q-8 -131 -8 -379v-238q0 -106 44 -155.5t140 -49.5t199 70v592q0 40 -13.5 53.5
t-51.5 18.5l-99 10v53q229 10 330 25h20q-8 -131 -8 -379v-379q0 -31 8 -39.5t39 -13.5z" />
    <glyph glyph-name="v" unicode="v" horiz-adv-x="1015" 
d="M319 788l234 -557l235 555q9 21 9 31q0 26 -54 29l-106 10v66q154 -4 158 -4h61q50 0 152 4v-62l-47 -4q-25 -5 -36.5 -13.5t-21.5 -31.5l-377 -834h-32l-381 834q-12 23 -23.5 31.5t-34.5 13.5l-47 4v62q102 -4 207 -4q56 0 256 4v-66l-106 -10q-54 -3 -54 -29
q0 -8 8 -29z" />
    <glyph glyph-name="w" unicode="w" horiz-adv-x="1443" 
d="M1339 811l-350 -831h-33l-225 614l-242 -614h-32l-346 831q-10 23 -21.5 31.5t-36.5 13.5l-45 4v62q148 -4 193 -4q22 0 51 0.5t80.5 1.5t105.5 2v-66l-86 -10q-53 -3 -53 -29q0 -8 8 -29l215 -536l172 442l-43 117q-11 25 -22 34.5t-35 10.5l-43 4v62q126 -4 194 -4
q61 0 205 4v-66l-78 -8q-51 -3 -51 -35q0 -3 2.5 -12t3.5 -13l191 -534l211 532q8 27 8 31q0 26 -53 29l-107 10v66q64 -1 120.5 -2.5t74.5 -1.5q16 0 164 4v-62l-45 -4q-22 -5 -32 -12.5t-20 -32.5z" />
    <glyph glyph-name="x" unicode="x" horiz-adv-x="1060" 
d="M991 59l49 -4v-55q-180 4 -217 4q-27 0 -227 -4v59l92 13q31 3 31 18q0 12 -12 27l-211 278l-222 -278q-16 -22 -16 -31q0 -11 23 -14l96 -13v-59q-39 1 -81.5 2t-66.5 1.5t-43 0.5q-34 0 -166 -4v55l52 4q47 3 86 45l291 351l-273 360q-36 43 -72 45l-47 4v58
q152 -4 211 -4q50 0 226 4v-62l-91 -12q-26 -3 -26 -17q0 -5 14 -28l180 -240l189 236q16 26 16 35q0 11 -20 14l-105 12v62q129 -4 131 -4h58q17 0 37 0.5t54.5 1.5t69.5 2v-58l-45 -4q-49 -3 -77 -45l-263 -311l299 -400q27 -42 76 -45z" />
    <glyph glyph-name="y" unicode="y" horiz-adv-x="1003" 
d="M889 811l-373 -856l-160 -422q-12 -37 -71 -37q-37 0 -68 15t-43 38q197 299 268 478l-329 784q-8 20 -20.5 30.5t-37.5 14.5l-47 4v62q102 -4 207 -4q56 0 256 4v-66l-109 -10q-31 -5 -42 -10t-11 -17t8 -31l220 -589l237 589q8 21 8 29q0 26 -53 29l-104 10v66
q153 -4 157 -4h62q49 0 151 4v-62l-47 -4q-25 -5 -37 -13.5t-22 -31.5z" />
    <glyph glyph-name="z" unicode="z" horiz-adv-x="958" 
d="M858 922v-31l-553 -815l244 2q111 3 143 16q36 15 64 56q28 39 92 215l49 -9l-47 -356h-776v31l561 815h-246q-79 0 -115.5 -11t-56.5 -40q-22 -37 -49 -185h-57v318q222 -6 235 -6h512z" />
    <glyph glyph-name="braceleft" unicode="{" horiz-adv-x="903" 
d="M432 365q0 85 -90 135.5t-229 50.5v70q139 0 229 50.5t90 135.5q0 39 -15.5 89t-58.5 146q-67 150 -67 213q0 112 81.5 186.5t209.5 74.5q109 0 178 -37l-23 -66q-48 19 -127 19q-151 0 -151 -183q0 -31 33 -172q45 -208 45 -268q0 -84 -69 -143.5t-187 -79.5
q118 -20 187 -80t69 -144q0 -60 -45 -268q-33 -141 -33 -172q0 -182 151 -182q82 0 127 18l23 -65q-69 -37 -178 -37q-128 0 -209.5 74.5t-81.5 185.5q0 63 67 213q74 164 74 236z" />
    <glyph glyph-name="bar" unicode="|" horiz-adv-x="671" 
d="M283 -328v1844h106v-1844h-106z" />
    <glyph glyph-name="braceright" unicode="}" horiz-adv-x="903" 
d="M471 365q0 -72 74 -236q67 -150 67 -213q0 -112 -81 -186t-209 -74q-110 0 -179 37l23 65q45 -18 127 -18q151 0 151 182q0 36 -32 172q-45 208 -45 268q0 84 69 144t187 80q-118 20 -187 79.5t-69 143.5q0 60 45 268q32 136 32 172q0 183 -151 183q-79 0 -127 -19
l-23 66q69 37 179 37q127 0 208.5 -74.5t81.5 -186.5q0 -63 -67 -213q-43 -96 -58.5 -146t-15.5 -89q0 -85 90.5 -135.5t229.5 -50.5v-70q-139 0 -229.5 -50.5t-90.5 -135.5z" />
    <glyph glyph-name="asciitilde" unicode="~" horiz-adv-x="929" 
d="M598 612q100 0 199 111l30 -16q-41 -76 -92 -138q-56 -71 -98 -100q-72 16 -170 29q-125 16 -154 16q-48 0 -77.5 -15.5t-55.5 -56.5l-35 -51l-43 21l134 245q87 -15 196 -30q114 -15 166 -15z" />
    <glyph glyph-name="uni00A0" unicode="&#xa0;" horiz-adv-x="409" 
 />
    <glyph glyph-name="exclamdown" unicode="&#xa1;" horiz-adv-x="626" 
d="M442 1217q0 -56 -37 -94t-92 -38t-92 38t-37 94q0 54 37 90t92 36t92 -36t37 -90zM412 334q4 -29 9 -66.5t7.5 -57.5t3.5 -32q6 -37 6 -55q0 -57 -37.5 -99t-87.5 -42t-87.5 42t-37.5 99q0 7 2 26t3 29l22 156q32 197 49 342q18 158 25 242h49q9 -111 24 -242
q14 -124 50 -342z" />
    <glyph glyph-name="cent" unicode="&#xa2;" horiz-adv-x="1026" 
d="M553 -20h-6l-21 -238h-77l20 246q-159 27 -264 147q-103 121 -103 285q0 196 127 344q129 147 320 174l22 268h78l-22 -264q120 -1 200 -49.5t80 -116.5q0 -44 -24.5 -69t-67.5 -25q-32 0 -55 18.5t-53 71.5q-24 48 -42 66t-44 24l-62 -737q34 -10 74 -10q152 0 256 127
l29 -21q-42 -108 -144 -174.5t-221 -66.5zM283 498q0 -108 54 -200.5t146 -143.5l60 706q-114 -24 -187 -123.5t-73 -238.5z" />
    <glyph glyph-name="sterling" unicode="&#xa3;" horiz-adv-x="1216" 
d="M1010 385q52 0 86 -41t34 -106q0 -43 -24.5 -95.5t-65.5 -93.5q-86 -86 -192 -86q-53 0 -112.5 25t-168.5 96q-89 58 -133 78.5t-82 25.5q-57 -90 -114 -139t-105 -49q-29 0 -46 17.5t-17 48.5q0 54 62 106t155 78q39 105 61 260l10 70h-186l21 82h178l39 274
q10 77 57.5 151.5t122.5 135.5q152 120 317 120q73 0 120.5 -29.5t47.5 -74.5q0 -38 -28 -65t-66 -27q-47 0 -113 47q-35 24 -51 31.5t-33 7.5q-56 0 -96.5 -83.5t-95.5 -303.5l-45 -184h295l-23 -82h-295q-49 -169 -127 -318q65 6 142 -12q77 -15 225 -80q90 -37 125.5 -48
t60.5 -11q64 0 64 61q0 19 -35 49q-53 43 -53 84q0 33 24.5 56.5t59.5 23.5z" />
    <glyph glyph-name="yen" unicode="&#xa5;" horiz-adv-x="1374" 
d="M870 70l109 -7v-63q-61 1 -124.5 2t-100 1.5t-68.5 0.5t-69 -0.5t-101 -1.5t-125 -2v63l109 7q67 6 82 30q16 26 16 144v202h-397l20 82h377v25l-84 143h-313l20 82h244l-205 346q-42 68 -81.5 97.5t-94.5 35.5l-23 3v63q70 -1 152.5 -2.5t116.5 -1.5h98q15 1 41 1.5
t69 1t76 1.5v-63l-118 -7q-70 -3 -70 -41q0 -24 35 -82l276 -487l285 483q37 61 37 86q0 38 -70 41l-117 7v63q46 -1 93 -2t74 -1.5t48 -0.5q22 0 50 0.5t77 1.5t99 2v-63l-21 -3q-55 -5 -92.5 -33t-83.5 -104l-207 -342h281l-21 -82h-311l-86 -143v-25h418l-21 -82h-397
v-202q0 -122 14 -144q15 -24 84 -30z" />
    <glyph glyph-name="section" unicode="&#xa7;" horiz-adv-x="1079" 
d="M590 10l-293 477q-80 130 -109 207q-24 74 -24 144q0 87 34.5 181t94.5 165q128 159 330 159q116 0 186 -44.5t70 -116.5q0 -41 -24.5 -65.5t-63.5 -24.5q-33 0 -56.5 17t-48.5 65q-30 52 -56 70t-65 18q-68 0 -111.5 -47.5t-43.5 -124.5q0 -121 84 -261l292 -477
q76 -125 103 -202q26 -71 26 -148q0 -87 -36 -180.5t-97 -165.5q-135 -160 -333 -160q-116 0 -186 45t-70 117q0 41 24.5 65.5t63.5 24.5q33 0 56 -17t48 -65q30 -52 56 -70t65 -18q70 0 117 49t47 123q0 131 -80 260zM252 858q0 -118 100 -287l291 -475q58 -95 82.5 -179
t24.5 -193q77 109 77 258q0 132 -96 286l-291 475q-60 98 -85 182.5t-25 190.5q-78 -110 -78 -258z" />
    <glyph glyph-name="dieresis" unicode="&#xa8;" horiz-adv-x="1024" 
d="M680 1135q-49 0 -82 32.5t-33 79.5q0 48 33 80.5t82 32.5t83 -33t34 -80t-34 -79.5t-83 -32.5zM342 1135q-49 0 -82 32.5t-33 79.5q0 48 33 80.5t82 32.5t83 -33t34 -80t-34 -79.5t-83 -32.5z" />
    <glyph glyph-name="copyright" unicode="&#xa9;" horiz-adv-x="1675" 
d="M1313 180q-93 -96 -217 -148t-258 -52t-258.5 52t-217.5 148q-96 96 -147 221t-51 261t51 260.5t147 220.5q93 96 217.5 148t258.5 52t258 -52t217 -148q96 -96 147 -220.5t51 -260.5t-51 -261t-147 -221zM1260 1090q-85 86 -194.5 133t-227.5 47t-227.5 -47t-194.5 -133
q-174 -177 -174 -428q0 -122 44.5 -232.5t129.5 -196.5t194.5 -133t227.5 -47t227.5 47t194.5 133t129.5 196.5t44.5 232.5q0 251 -174 428zM909 356q85 0 146 38t110 124l25 -14l-53 -131q-104 -113 -289 -113q-178 0 -293 109q-115 112 -115 286q0 181 127 308
q127 124 312 124q126 0 249 -59l33 -217l-31 -12q-34 98 -75 145q-64 76 -174 76q-117 0 -195 -90t-78 -230q0 -153 85 -248.5t216 -95.5z" />
    <glyph glyph-name="ordfeminine" unicode="&#xaa;" horiz-adv-x="727" 
d="M236 627q-68 0 -115 44t-47 107q0 57 40.5 101.5t112.5 64.5l201 62l2 108q0 56 -37.5 88.5t-103.5 32.5q-32 0 -52 -21t-20 -53q0 -17 6 -59q-51 -19 -104 -19q-25 0 -25 21q0 64 105 141q110 78 188 78q92 0 141.5 -49.5t49.5 -143.5l-7 -327q0 -35 20 -56.5t52 -21.5
q31 0 55 12l7 -8q-14 -43 -53.5 -73.5t-82.5 -30.5q-86 0 -139 94q-43 -41 -96.5 -66.5t-97.5 -25.5zM426 748l2 210l-125 -40q-82 -26 -82 -97q0 -44 29 -73t72 -29q48 0 104 29zM84 393l47 94h350q112 0 158 17l-47 -94h-350q-112 0 -158 -17z" />
    <glyph glyph-name="guillemotleft" unicode="&#xab;" horiz-adv-x="1003" 
d="M901 117l-29 -31l-401 371v4l401 370l29 -30l-215 -314q-10 -17 -10 -26q0 -16 12 -31zM532 117l-28 -31l-402 371v4l402 370l28 -30l-215 -314q-10 -17 -10 -26q0 -16 12 -31z" />
    <glyph glyph-name="registered" unicode="&#xae;" horiz-adv-x="1165" 
d="M1001 922q0 -175 -120 -295q-121 -121 -297 -121q-182 0 -301 119t-119 297q0 180 119 299q119 122 301 122q178 0 297 -122q120 -120 120 -299zM940 922q0 154 -102 256q-101 104 -254 104q-157 0 -258 -104q-101 -101 -101 -256q0 -149 103 -252t256 -103
q151 0 254 103q102 102 102 252zM825 748v-27q-28 -4 -73 -4q-79 0 -115 67q-46 81 -66 131h-61v-102q0 -36 6 -46.5t27 -10.5h24v-35h-200v35h26q19 0 25 11t6 46v246q0 36 -5.5 46.5t-25.5 10.5h-31v33h195q184 0 184 -107q0 -81 -108 -108q42 -64 96 -131q24 -28 44 -39
t52 -16zM510 979v-29h76q30 5 47.5 28.5t17.5 59.5q0 38 -23.5 56t-74.5 18h-41q-2 -39 -2 -133z" />
    <glyph glyph-name="overscore" unicode="&#xaf;" horiz-adv-x="1024" 
d="M223 1167l47 119h373q112 0 158 17l-47 -119h-373q-112 0 -158 -17z" />
    <glyph glyph-name="degree" unicode="&#xb0;" horiz-adv-x="716" 
d="M358 762q-128 0 -213 82q-84 84 -84 209q0 123 84 207q86 83 213 83q128 0 211 -83q86 -83 86 -207q0 -126 -86 -209q-82 -82 -211 -82zM358 844q93 0 154 59.5t61 149.5t-61 149.5t-154 59.5t-154 -59.5t-61 -149.5t61 -149.5t154 -59.5z" />
    <glyph glyph-name="twosuperior" unicode="&#xb2;" horiz-adv-x="712" 
d="M596 1253q0 -82 -70 -180q-78 -104 -288 -297h254q57 0 87 10.5t64 44.5h14l-67 -188h-535v19q154 156 232 241q81 91 115 158t34 131q0 63 -37.5 98t-105.5 35q-107 0 -193 -108l-28 22q58 95 143.5 152t175.5 57q92 0 148.5 -53.5t56.5 -141.5z" />
    <glyph glyph-name="threesuperior" unicode="&#xb3;" horiz-adv-x="694" 
d="M434 1118q85 -19 131.5 -69.5t46.5 -122.5q0 -120 -106 -207q-107 -88 -254 -88q-79 0 -134 31t-55 75q0 23 17.5 39.5t42.5 16.5q33 0 74 -39q34 -32 59.5 -43t58.5 -11q72 0 117 42.5t45 111.5q0 84 -72.5 128t-209.5 44v6q19 27 51 54t61 40q40 3 74 0q45 45 45 107
q0 44 -34.5 72t-88.5 28q-88 0 -176 -88l-27 21q51 82 130.5 132t160.5 50q79 0 129.5 -42t50.5 -108q0 -96 -137 -180z" />
    <glyph glyph-name="acute" unicode="&#xb4;" horiz-adv-x="1024" 
d="M569 1556q29 0 58 -15.5t47 -39.5l-277 -440l-49 12l144 422q21 61 77 61z" />
    <glyph glyph-name="paragraph" unicode="&#xb6;" horiz-adv-x="1368" 
d="M586 -420q128 0 199 75.5t71 211.5v571q-282 0 -465 121q-182 120 -182 322q0 201 182 321q186 121 465 121h105q33 0 143 4l143 12q4 -55 -20 -100l-277 4v-1380q0 -153 -104 -260t-260 -107q-136 0 -230 88q-94 85 -94 211q0 118 80 201q80 80 195 80q87 0 139.5 -47.5
t52.5 -122.5q0 -57 -36.5 -97t-86.5 -40q-31 0 -50 18t-19 47q0 18 7 31t29 31q29 21 29 41q0 55 -74 55q-75 0 -126.5 -55t-51.5 -136q0 -94 68 -157.5t168 -63.5z" />
    <glyph glyph-name="middot" unicode="&#xb7;" horiz-adv-x="495" 
d="M119 535q0 56 37 93.5t92 37.5t92 -37.5t37 -93.5q0 -54 -37 -90.5t-92 -36.5t-92 36.5t-37 90.5z" />
    <glyph glyph-name="cedilla" unicode="&#xb8;" horiz-adv-x="1024" 
d="M702 -266q0 -87 -106 -162q-107 -76 -219 -76q-47 0 -76 22.5t-29 57.5q0 31 18.5 48.5t49.5 17.5q35 0 76 -39q31 -29 51 -29q43 0 82 33.5t39 70.5q0 45 -52.5 84t-154.5 68l78 186h59l-33 -88q126 -48 171.5 -90t45.5 -104z" />
    <glyph glyph-name="onesuperior" unicode="&#xb9;" horiz-adv-x="626" 
d="M260 778v461q0 35 -27 35q-17 0 -71 -21l-70 -26l-18 51q105 46 178 88q93 52 131 82h31q-1 -5 -1.5 -15t-1 -27t-1.5 -30v-194v-404q0 -48 10.5 -61t48.5 -15l92 -2v-57h-457v57l97 2q38 2 48.5 15t10.5 61z" />
    <glyph glyph-name="ordmasculine" unicode="&#xba;" horiz-adv-x="849" 
d="M74 971q0 150 102 252t248 102q149 0 250 -98q102 -99 102 -250q0 -150 -102 -252q-100 -100 -250 -100q-149 0 -250 98q-100 97 -100 248zM608 969q0 134 -50 215.5t-134 81.5q-82 0 -133 -79t-51 -206q0 -131 51 -214t133 -83q84 0 134 77.5t50 207.5zM145 395l48 94
h350q111 0 157 17l-47 -94h-350q-112 0 -158 -17z" />
    <glyph glyph-name="guillemotright" unicode="&#xbb;" horiz-adv-x="1003" 
d="M102 801l29 30l401 -370v-4l-401 -371l-29 31l213 313q13 16 13 31q0 7 -11 26zM471 801l29 30l401 -370v-4l-401 -371l-29 31l213 313q12 15 12 31q0 9 -10 26z" />
    <glyph glyph-name="onequarter" unicode="&#xbc;" horiz-adv-x="1583" 
d="M1065 1030l-768 -1102h-131q102 102 270 338l768 1102h131q-102 -102 -270 -338zM260 778v461q0 35 -27 35q-17 0 -71 -21l-70 -26l-18 51q105 46 178 88q93 52 131 82h31q-1 -5 -1.5 -15t-1 -27t-1.5 -30v-194v-404q0 -48 10.5 -61t48.5 -15l92 -2v-57h-457v57l97 2
q38 2 48.5 15t10.5 61zM1190 162v80h-377v28l455 527h61v-478h31q98 0 172 21l-33 -98h-170v-80q0 -77 8 -90q8 -14 52 -17l49 -4v-51h-359v51l51 4q41 4 50.5 21t9.5 86zM1190 623l-258 -304h258v304z" />
    <glyph glyph-name="onehalf" unicode="&#xbd;" horiz-adv-x="1738" 
d="M260 778v461q0 35 -27 35q-17 0 -71 -21l-70 -26l-18 51q105 46 178 88q93 52 131 82h31q-1 -5 -1.5 -15t-1 -27t-1.5 -30v-194v-404q0 -48 10.5 -61t48.5 -15l92 -2v-57h-457v57l97 2q38 2 48.5 15t10.5 61zM1065 1030l-768 -1102h-131q102 102 270 338l768 1102h131
q-102 -102 -270 -338zM1526 610q0 -82 -70 -180q-75 -101 -289 -297h254q57 0 87.5 10.5t64.5 44.5h14l-67 -188h-535v18q140 142 232 242q81 91 115 158t34 131q0 63 -37.5 98t-105.5 35q-107 0 -193 -109l-29 23q58 95 144 152t176 57q92 0 148.5 -53.5t56.5 -141.5z" />
    <glyph glyph-name="threequarters" unicode="&#xbe;" horiz-adv-x="1622" 
d="M1229 162v80h-377v28l455 527h61v-478h31q99 0 172 21l-33 -98h-170v-80q0 -77 8 -90q8 -14 51 -17l50 -4v-51h-359v51l51 4q41 4 50.5 21t9.5 86zM1229 623l-258 -304h258v304zM1104 1030l-768 -1102h-131q102 102 270 338l768 1102h131q-102 -102 -270 -338zM434 1118
q85 -19 131.5 -69.5t46.5 -122.5q0 -120 -106 -207q-107 -88 -254 -88q-79 0 -134 31t-55 75q0 23 17.5 39.5t42.5 16.5q33 0 74 -39q34 -32 59.5 -43t58.5 -11q72 0 117 42.5t45 111.5q0 84 -72.5 128t-209.5 44v6q19 27 51 54t61 40q40 3 74 0q45 45 45 107q0 44 -34.5 72
t-88.5 28q-88 0 -176 -88l-27 21q51 82 130.5 132t160.5 50q79 0 129.5 -42t50.5 -108q0 -96 -137 -180z" />
    <glyph glyph-name="questiondown" unicode="&#xbf;" horiz-adv-x="909" 
d="M680 1217q0 -56 -37 -94t-92 -38t-92 38t-37 94q0 54 37 90t92 36t92 -36t37 -90zM508 793q27 35 27 125l45 6q38 -112 38 -203q0 -68 -42 -109t-156 -77q-89 -29 -119 -46q-61 -35 -61 -102q0 -90 82 -166q38 -35 85 -56.5t85 -21.5q34 0 94 25q47 25 88 25
q43 0 69.5 -27t26.5 -70q0 -50 -37.5 -82t-97.5 -32q-95 0 -188 40t-164 113q-152 149 -152 352q0 96 57 153.5t201 94.5q86 22 119 58z" />
    <glyph glyph-name="Agrave" unicode="&#xc0;" horiz-adv-x="1404" 
d="M1343 68l41 -2v-66q-164 4 -256 4q-71 0 -110 -2q-100 0 -184 -2v66l71 2q63 2 90 15t27 44q0 21 -21 80l-108 285h-467l-111 -279q-22 -54 -22 -82q0 -32 27 -47t90 -16l69 -2v-66q-39 1 -83 2t-67 1.5t-34 0.5h-68q-22 0 -47.5 -0.5t-69.5 -1.5t-90 -2v66l43 2
q68 3 87 22q22 22 65 123l410 991l-39 101q100 11 180 57q64 -191 117 -336l319 -838q29 -72 57 -95t84 -25zM866 563l-200 533l-211 -533h411zM592 1831q30 0 49 -11.5t45 -45.5l236 -322l-43 -22l-396 325q25 35 54.5 55.5t54.5 20.5z" />
    <glyph glyph-name="Aacute" unicode="&#xc1;" horiz-adv-x="1404" 
d="M1343 68l41 -2v-66q-164 4 -256 4q-71 0 -110 -2q-100 0 -184 -2v66l71 2q63 2 90 15t27 44q0 21 -21 80l-108 285h-467l-111 -279q-22 -54 -22 -82q0 -32 27 -47t90 -16l69 -2v-66q-39 1 -83 2t-67 1.5t-34 0.5h-68q-22 0 -47.5 -0.5t-69.5 -1.5t-90 -2v66l43 2
q68 3 87 22q22 22 65 123l410 991l-39 101q100 11 180 57q64 -191 117 -336l319 -838q29 -72 57 -95t84 -25zM866 563l-200 533l-211 -533h411zM825 1831q25 0 54.5 -20.5t54.5 -55.5l-395 -325l-43 22l235 322q26 34 45 45.5t49 11.5z" />
    <glyph glyph-name="Acircumflex" unicode="&#xc2;" horiz-adv-x="1404" 
d="M1343 68l41 -2v-66q-164 4 -256 4q-71 0 -110 -2q-100 0 -184 -2v66l71 2q63 2 90 15t27 44q0 21 -21 80l-108 285h-467l-111 -279q-22 -54 -22 -82q0 -32 27 -47t90 -16l69 -2v-66q-39 1 -83 2t-67 1.5t-34 0.5h-68q-22 0 -47.5 -0.5t-69.5 -1.5t-90 -2v66l43 2
q68 3 87 22q22 22 65 123l410 991l-39 101q100 11 180 57q64 -191 117 -336l319 -838q29 -72 57 -95t84 -25zM866 563l-200 533l-211 -533h411zM1057 1438l-58 -8l-282 245l-283 -245l-57 8l270 354q36 47 70 47q33 0 69 -47z" />
    <glyph glyph-name="Atilde" unicode="&#xc3;" horiz-adv-x="1404" 
d="M1343 68l41 -2v-66q-164 4 -256 4q-71 0 -110 -2q-100 0 -184 -2v66l71 2q63 2 90 15t27 44q0 21 -21 80l-108 285h-467l-111 -279q-22 -54 -22 -82q0 -32 27 -47t90 -16l69 -2v-66q-39 1 -83 2t-67 1.5t-34 0.5h-68q-22 0 -47.5 -0.5t-69.5 -1.5t-90 -2v66l43 2
q68 3 87 22q22 22 65 123l410 991l-39 101q100 11 180 57q64 -191 117 -336l319 -838q29 -72 57 -95t84 -25zM866 563l-200 533l-211 -533h411zM852 1651q123 0 219 110l31 -16q-39 -74 -92 -137q-56 -72 -99 -101q-84 18 -184 31q-122 16 -158 16q-48 0 -77.5 -15.5
t-55.5 -55.5l-35 -51l-43 20l134 246q234 -47 360 -47z" />
    <glyph glyph-name="Adieresis" unicode="&#xc4;" horiz-adv-x="1404" 
d="M1343 68l41 -2v-66q-164 4 -256 4q-71 0 -110 -2q-100 0 -184 -2v66l71 2q63 2 90 15t27 44q0 21 -21 80l-108 285h-467l-111 -279q-22 -54 -22 -82q0 -32 27 -47t90 -16l69 -2v-66q-39 1 -83 2t-67 1.5t-34 0.5h-68q-22 0 -47.5 -0.5t-69.5 -1.5t-90 -2v66l43 2
q68 3 87 22q22 22 65 123l410 991l-39 101q100 11 180 57q64 -191 117 -336l319 -838q29 -72 57 -95t84 -25zM866 563l-200 533l-211 -533h411zM516 1503q-49 0 -82 32.5t-33 80.5t33 80.5t82 32.5t83 -33t34 -80t-34 -80t-83 -33zM915 1503q-49 0 -81.5 32.5t-32.5 80.5
t32.5 80.5t81.5 32.5t83 -33t34 -80t-34 -80t-83 -33z" />
    <glyph glyph-name="Aring" unicode="&#xc5;" horiz-adv-x="1404" 
d="M1343 68l41 -2v-66q-164 4 -256 4q-71 0 -110 -2q-100 0 -184 -2v66l71 2q63 2 90 15t27 44q0 21 -21 80l-108 285h-467l-111 -279q-22 -54 -22 -82q0 -32 27 -47t90 -16l69 -2v-66q-39 1 -83 2t-67 1.5t-34 0.5h-68q-22 0 -47.5 -0.5t-69.5 -1.5t-90 -2v66l43 2
q68 3 87 22q22 22 65 123l410 991l-39 101q100 11 180 57q64 -191 117 -336l319 -838q29 -72 57 -95t84 -25zM866 563l-200 533l-211 -533h411zM717 1438q-92 0 -160 65q-65 68 -65 158q0 93 65 158q67 67 160 67t157 -67q68 -65 68 -158q0 -90 -68 -158q-65 -65 -157 -65z
M717 1522q63 0 102 38t39 101q0 66 -37.5 103.5t-103.5 37.5q-64 0 -103 -38t-39 -103q0 -63 39.5 -101t102.5 -38z" />
    <glyph glyph-name="AE" unicode="&#xc6;" horiz-adv-x="1978" 
d="M1864 410l53 -11q-17 -81 -37 -198q-27 -181 -29 -201q-203 2 -415 2q-72 2 -195 2q-115 0 -463 -4v63l88 7q67 6 82 30q17 27 17 144v248h-445l-168 -281q-37 -61 -37 -90q0 -50 103 -53l69 -2v-66q-94 2 -182 2q-27 2 -74 2q-24 0 -50.5 -0.5t-71.5 -1.5t-89 -2v66
l43 2q64 3 91 24q29 20 90 119l630 1040l-198 11v63h708q277 0 390 18l20 -253q9 -76 14 -107l-45 -10q-28 94 -57 144.5t-68 80.5q-75 53 -256 53q-124 0 -223 -12q-8 -175 -8 -463v-61l270 4q46 2 64 30t24 113l4 56h62q0 -9 -1 -38.5t-1 -58.5q-1 -37 -2.5 -79t-1.5 -60
t1.5 -60t2.5 -79q0 -29 1 -59.5t1 -39.5h-62l-4 56q-7 86 -25.5 114.5t-62.5 30.5l-270 4v-405q0 -57 22.5 -92t73.5 -54q67 -26 195 -26q186 0 274 73q89 77 148 265zM965 563v676l-404 -676h404z" />
    <glyph glyph-name="Ccedilla" unicode="&#xc7;" horiz-adv-x="1294" 
d="M920 -266q0 -86 -107 -162t-219 -76q-47 0 -76 22.5t-29 57.5q0 31 18.5 48.5t49.5 17.5q35 0 76 -39q31 -29 51 -29q43 0 82 33.5t39 70.5q0 45 -52.5 84t-154.5 68l64 154q-259 21 -426 200q-164 182 -164 447q0 144 50 272t146 227q96 102 223.5 157.5t264.5 55.5
q119 0 215 -22.5t194 -75.5l56 -340l-43 -16q-30 87 -57 137t-64 92q-115 133 -305 133q-103 0 -195.5 -45t-159.5 -129q-123 -154 -123 -381q0 -246 140 -411q72 -88 172.5 -134.5t216.5 -46.5q143 0 246 61.5t182 196.5l29 -18l-74 -184q-155 -180 -455 -180h-10l-19 -52
q126 -48 172 -90.5t46 -103.5z" />
    <glyph glyph-name="Egrave" unicode="&#xc8;" horiz-adv-x="1261" 
d="M1147 410l53 -11q-17 -81 -37 -198q-24 -159 -28 -201q-203 2 -416 2q-72 2 -195 2q-115 0 -463 -4v63l89 7q66 3 81 30q17 31 17 144v835q0 101 -6 119q-6 28 -23 38.5t-69 14.5l-105 9v63h623q276 0 389 18l20 -254q6 -56 15 -106l-45 -10q-28 94 -57 144.5t-68 80.5
q-75 53 -256 53q-125 0 -224 -12q-8 -175 -8 -463v-59l271 4q46 2 64 30t24 113l4 56h61q0 -9 -1 -38.5t-1 -58.5q-1 -37 -2.5 -79t-1.5 -60t1.5 -60t2.5 -79q0 -29 1 -59.5t1 -39.5h-61l-4 56q-7 86 -25.5 114.5t-62.5 30.5l-271 4v-420q0 -80 71 -118.5t220 -38.5
q186 0 274 73q89 77 148 265zM543 1831q30 0 49 -11.5t45 -45.5l235 -322l-43 -22l-395 325q25 35 54.5 55.5t54.5 20.5z" />
    <glyph glyph-name="Eacute" unicode="&#xc9;" horiz-adv-x="1261" 
d="M1147 410l53 -11q-17 -81 -37 -198q-24 -159 -28 -201q-203 2 -416 2q-72 2 -195 2q-115 0 -463 -4v63l89 7q66 3 81 30q17 31 17 144v835q0 101 -6 119q-6 28 -23 38.5t-69 14.5l-105 9v63h623q276 0 389 18l20 -254q6 -56 15 -106l-45 -10q-28 94 -57 144.5t-68 80.5
q-75 53 -256 53q-125 0 -224 -12q-8 -175 -8 -463v-59l271 4q46 2 64 30t24 113l4 56h61q0 -9 -1 -38.5t-1 -58.5q-1 -37 -2.5 -79t-1.5 -60t1.5 -60t2.5 -79q0 -29 1 -59.5t1 -39.5h-61l-4 56q-7 86 -25.5 114.5t-62.5 30.5l-271 4v-420q0 -80 71 -118.5t220 -38.5
q186 0 274 73q89 77 148 265zM817 1831q25 0 54.5 -20.5t54.5 -55.5l-396 -325l-43 22l236 322q26 34 45 45.5t49 11.5z" />
    <glyph glyph-name="Ecircumflex" unicode="&#xca;" horiz-adv-x="1261" 
d="M1147 410l53 -11q-17 -81 -37 -198q-24 -159 -28 -201q-203 2 -416 2q-72 2 -195 2q-115 0 -463 -4v63l89 7q66 3 81 30q17 31 17 144v835q0 101 -6 119q-6 28 -23 38.5t-69 14.5l-105 9v63h623q276 0 389 18l20 -254q6 -56 15 -106l-45 -10q-28 94 -57 144.5t-68 80.5
q-75 53 -256 53q-125 0 -224 -12q-8 -175 -8 -463v-59l271 4q46 2 64 30t24 113l4 56h61q0 -9 -1 -38.5t-1 -58.5q-1 -37 -2.5 -79t-1.5 -60t1.5 -60t2.5 -79q0 -29 1 -59.5t1 -39.5h-61l-4 56q-7 86 -25.5 114.5t-62.5 30.5l-271 4v-420q0 -80 71 -118.5t220 -38.5
q186 0 274 73q89 77 148 265zM1008 1438l-58 -8l-282 245l-283 -245l-57 8l270 354q36 47 70 47q33 0 69 -47z" />
    <glyph glyph-name="Edieresis" unicode="&#xcb;" horiz-adv-x="1261" 
d="M1147 410l53 -11q-17 -81 -37 -198q-24 -159 -28 -201q-203 2 -416 2q-72 2 -195 2q-115 0 -463 -4v63l89 7q66 3 81 30q17 31 17 144v835q0 101 -6 119q-6 28 -23 38.5t-69 14.5l-105 9v63h623q276 0 389 18l20 -254q6 -56 15 -106l-45 -10q-28 94 -57 144.5t-68 80.5
q-75 53 -256 53q-125 0 -224 -12q-8 -175 -8 -463v-59l271 4q46 2 64 30t24 113l4 56h61q0 -9 -1 -38.5t-1 -58.5q-1 -37 -2.5 -79t-1.5 -60t1.5 -60t2.5 -79q0 -29 1 -59.5t1 -39.5h-61l-4 56q-7 86 -25.5 114.5t-62.5 30.5l-271 4v-420q0 -80 71 -118.5t220 -38.5
q186 0 274 73q89 77 148 265zM446 1503q-49 0 -81.5 32.5t-32.5 80.5t32.5 80.5t81.5 32.5t83 -33t34 -80t-34 -80t-83 -33zM846 1503q-49 0 -82 32.5t-33 80.5t33 80.5t82 32.5t83 -33t34 -80t-34 -80t-83 -33z" />
    <glyph glyph-name="Igrave" unicode="&#xcc;" horiz-adv-x="686" 
d="M248 244v835q0 111 -17 142q-16 29 -81 32l-89 7v63q250 -4 281 -4q33 0 283 4v-63l-88 -7q-68 -3 -84 -32q-15 -27 -15 -142v-835q0 -117 15 -144t84 -30l88 -7v-63q-250 4 -281 4q-33 0 -283 -4v63l89 7q66 3 81 30q17 31 17 144zM135 1831q30 0 49 -11.5t45 -45.5
l236 -322l-43 -22l-395 325q25 35 54 55.5t54 20.5z" />
    <glyph glyph-name="Iacute" unicode="&#xcd;" horiz-adv-x="686" 
d="M248 244v835q0 111 -17 142q-16 29 -81 32l-89 7v63q250 -4 281 -4q33 0 283 4v-63l-88 -7q-68 -3 -84 -32q-15 -27 -15 -142v-835q0 -117 15 -144t84 -30l88 -7v-63q-250 4 -281 4q-33 0 -283 -4v63l89 7q66 3 81 30q17 31 17 144zM553 1831q25 0 54.5 -20.5t54.5 -55.5
l-396 -325l-43 22l236 322q26 34 45 45.5t49 11.5z" />
    <glyph glyph-name="Icircumflex" unicode="&#xce;" horiz-adv-x="686" 
d="M248 244v835q0 111 -17 142q-16 29 -81 32l-89 7v63q250 -4 281 -4q33 0 283 4v-63l-88 -7q-68 -3 -84 -32q-15 -27 -15 -142v-835q0 -117 15 -144t84 -30l88 -7v-63q-250 4 -281 4q-33 0 -283 -4v63l89 7q66 3 81 30q17 31 17 144zM682 1438l-57 -8l-283 245l-283 -245
l-57 8l270 354q36 47 70 47t70 -47z" />
    <glyph glyph-name="Idieresis" unicode="&#xcf;" horiz-adv-x="686" 
d="M248 244v835q0 111 -17 142q-16 29 -81 32l-89 7v63q250 -4 281 -4q33 0 283 4v-63l-88 -7q-68 -3 -84 -32q-15 -27 -15 -142v-835q0 -117 15 -144t84 -30l88 -7v-63q-250 4 -281 4q-33 0 -283 -4v63l89 7q66 3 81 30q17 31 17 144zM141 1503q-49 0 -81.5 32.5
t-32.5 80.5t32.5 80.5t81.5 32.5t83 -33t34 -80t-34 -80t-83 -33zM541 1503q-49 0 -82 32.5t-33 80.5t33 80.5t82 32.5t82.5 -33t33.5 -80t-33.5 -80t-82.5 -33z" />
    <glyph glyph-name="Eth" unicode="&#xd0;" horiz-adv-x="1529" 
d="M672 1327q359 0 571 -170q215 -170 215 -457q0 -154 -57 -285.5t-166 -228.5q-102 -90 -239.5 -138t-293.5 -48h-614v63l88 7q67 3 82 30q16 29 16 144v403h-49q-83 0 -153 -4l28 80h174v356q0 101 -6 119q-6 28 -23 38.5t-69 14.5l-104 9v63q23 -2 116 -2q25 0 59.5 0.5
t97 1.5t128.5 2q125 2 199 2zM739 647h-274v-440q0 -60 68.5 -95.5t185.5 -35.5q234 0 377 162t143 421q0 281 -148 430.5t-425 149.5q-112 0 -201 -12v-504h149q84 0 154 4z" />
    <glyph glyph-name="Ntilde" unicode="&#xd1;" horiz-adv-x="1507" 
d="M1288 887v-910h-18l-928 1065l2 -608q0 -168 4 -254q3 -63 17 -84q19 -22 79 -24l123 -9v-63q-67 1 -144.5 2.5t-107.5 1.5t-108.5 -1.5t-145.5 -2.5v63l86 7q41 5 57 10t23 16q14 21 17 84q4 86 4 256v711q-62 63 -105 91.5t-102 41.5v43q164 -4 168 -4q16 0 160 4
q249 -304 426 -516q214 -255 397 -465l-2 545q-3 236 -6 280q-3 43 -13 60q-19 22 -79 24l-123 9v63q67 -1 145.5 -2.5t108.5 -1.5t107.5 1.5t144.5 2.5v-63l-86 -7q-41 -5 -57 -10t-23 -16q-14 -21 -17 -84q-4 -86 -4 -256zM918 1651q123 0 219 110l30 -16
q-39 -74 -92 -137q-58 -73 -98 -101q-84 18 -184 31q-122 16 -158 16q-48 0 -77.5 -15.5t-55.5 -55.5l-35 -51l-43 20l133 246q234 -47 361 -47z" />
    <glyph glyph-name="Ograve" unicode="&#xd2;" horiz-adv-x="1519" 
d="M274 1143q98 96 224.5 148t261.5 52t261 -51t224 -145q98 -97 150.5 -221t52.5 -260q0 -137 -52.5 -262.5t-150.5 -223.5q-98 -97 -224 -148.5t-261 -51.5t-261.5 51t-224.5 145q-98 97 -150 220.5t-52 260.5t52 262.5t150 223.5zM287 668q0 -255 133 -426
q134 -168 340 -168t338 164q135 164 135 417q0 255 -135 424q-132 170 -338 170q-205 0 -340 -164q-133 -165 -133 -417zM594 1831q30 0 49 -11.5t45 -45.5l236 -322l-43 -22l-396 325q25 35 54.5 55.5t54.5 20.5z" />
    <glyph glyph-name="Oacute" unicode="&#xd3;" horiz-adv-x="1519" 
d="M274 1143q98 96 224.5 148t261.5 52t261 -51t224 -145q98 -97 150.5 -221t52.5 -260q0 -137 -52.5 -262.5t-150.5 -223.5q-98 -97 -224 -148.5t-261 -51.5t-261.5 51t-224.5 145q-98 97 -150 220.5t-52 260.5t52 262.5t150 223.5zM287 668q0 -255 133 -426
q134 -168 340 -168t338 164q135 164 135 417q0 255 -135 424q-132 170 -338 170q-205 0 -340 -164q-133 -165 -133 -417zM909 1831q25 0 54.5 -20.5t54.5 -55.5l-395 -325l-43 22l235 322q26 34 45 45.5t49 11.5z" />
    <glyph glyph-name="Ocircumflex" unicode="&#xd4;" horiz-adv-x="1519" 
d="M274 1143q98 96 224.5 148t261.5 52t261 -51t224 -145q98 -97 150.5 -221t52.5 -260q0 -137 -52.5 -262.5t-150.5 -223.5q-98 -97 -224 -148.5t-261 -51.5t-261.5 51t-224.5 145q-98 97 -150 220.5t-52 260.5t52 262.5t150 223.5zM287 668q0 -255 133 -426
q134 -168 340 -168t338 164q135 164 135 417q0 255 -135 424q-132 170 -338 170q-205 0 -340 -164q-133 -165 -133 -417zM1100 1438l-58 -8l-282 245l-283 -245l-57 8l270 354q36 47 70 47q33 0 69 -47z" />
    <glyph glyph-name="Otilde" unicode="&#xd5;" horiz-adv-x="1519" 
d="M274 1143q98 96 224.5 148t261.5 52t261 -51t224 -145q98 -97 150.5 -221t52.5 -260q0 -137 -52.5 -262.5t-150.5 -223.5q-98 -97 -224 -148.5t-261 -51.5t-261.5 51t-224.5 145q-98 97 -150 220.5t-52 260.5t52 262.5t150 223.5zM287 668q0 -255 133 -426
q134 -168 340 -168t338 164q135 164 135 417q0 255 -135 424q-132 170 -338 170q-205 0 -340 -164q-133 -165 -133 -417zM895 1651q123 0 219 110l31 -16q-39 -74 -92 -137q-56 -72 -99 -101q-84 18 -184 31q-122 16 -158 16q-48 0 -77.5 -15.5t-55.5 -55.5l-35 -51l-43 20
l134 246q234 -47 360 -47z" />
    <glyph glyph-name="Odieresis" unicode="&#xd6;" horiz-adv-x="1519" 
d="M274 1143q98 96 224.5 148t261.5 52t261 -51t224 -145q98 -97 150.5 -221t52.5 -260q0 -137 -52.5 -262.5t-150.5 -223.5q-98 -97 -224 -148.5t-261 -51.5t-261.5 51t-224.5 145q-98 97 -150 220.5t-52 260.5t52 262.5t150 223.5zM287 668q0 -255 133 -426
q134 -168 340 -168t338 164q135 164 135 417q0 255 -135 424q-132 170 -338 170q-205 0 -340 -164q-133 -165 -133 -417zM559 1503q-49 0 -82 32.5t-33 80.5t33 80.5t82 32.5t83 -33t34 -80t-34 -80t-83 -33zM958 1503q-49 0 -81.5 32.5t-32.5 80.5t32.5 80.5t81.5 32.5
t83 -33t34 -80t-34 -80t-83 -33z" />
    <glyph glyph-name="multiply" unicode="&#xd7;" 
d="M696 621l369 -369l-82 -82l-369 369l-368 -369l-82 82l368 369l-368 368l82 82l368 -369l369 369l82 -82z" />
    <glyph glyph-name="Oslash" unicode="&#xd8;" horiz-adv-x="1519" 
d="M1245 180q-98 -97 -224 -148.5t-261 -51.5q-177 0 -338 88l-127 -187l-82 29l139 203q-133 94 -206.5 236.5t-73.5 307.5q0 137 52 262.5t150 223.5q98 96 224.5 148t261.5 52q199 0 366 -104l97 141l82 -28l-111 -160q122 -99 188 -235t66 -291q0 -137 -52.5 -262.5
t-150.5 -223.5zM760 1249q-205 0 -340 -164q-133 -165 -133 -417q0 -129 38 -243t107 -196l619 901q-125 119 -291 119zM760 74q206 0 338 164q135 164 135 417q0 246 -125 412l-614 -897q116 -96 266 -96z" />
    <glyph glyph-name="Ugrave" unicode="&#xd9;" horiz-adv-x="1511" 
d="M766 -20q-245 0 -395 135q-150 138 -150 377v587q0 113 -16 142t-82 32l-88 7v63q250 -4 280 -4q33 0 283 4v-63l-88 -7q-68 -3 -84 -32q-14 -25 -14 -142v-553q0 -204 102 -316t287 -112q191 0 291 108.5t100 317.5v363q0 186 -4 264q-3 63 -14 76q-19 22 -80 24l-123 9
v63q67 -1 145.5 -2.5t108.5 -1.5t107.5 1.5t144.5 2.5v-63l-86 -7q-41 -5 -57 -10t-23 -16q-14 -21 -17 -84q-4 -86 -4 -256v-389q0 -242 -143 -379q-145 -139 -381 -139zM592 1831q30 0 49 -11.5t45 -45.5l236 -322l-43 -22l-396 325q25 35 54.5 55.5t54.5 20.5z" />
    <glyph glyph-name="Uacute" unicode="&#xda;" horiz-adv-x="1511" 
d="M766 -20q-245 0 -395 135q-150 138 -150 377v587q0 113 -16 142t-82 32l-88 7v63q250 -4 280 -4q33 0 283 4v-63l-88 -7q-68 -3 -84 -32q-14 -25 -14 -142v-553q0 -204 102 -316t287 -112q191 0 291 108.5t100 317.5v363q0 186 -4 264q-3 63 -14 76q-19 22 -80 24l-123 9
v63q67 -1 145.5 -2.5t108.5 -1.5t107.5 1.5t144.5 2.5v-63l-86 -7q-41 -5 -57 -10t-23 -16q-14 -21 -17 -84q-4 -86 -4 -256v-389q0 -242 -143 -379q-145 -139 -381 -139zM969 1831q25 0 54 -20.5t54 -55.5l-395 -325l-43 22l235 322q26 34 45.5 45.5t49.5 11.5z" />
    <glyph glyph-name="Ucircumflex" unicode="&#xdb;" horiz-adv-x="1511" 
d="M766 -20q-245 0 -395 135q-150 138 -150 377v587q0 113 -16 142t-82 32l-88 7v63q250 -4 280 -4q33 0 283 4v-63l-88 -7q-68 -3 -84 -32q-14 -25 -14 -142v-553q0 -204 102 -316t287 -112q191 0 291 108.5t100 317.5v363q0 186 -4 264q-3 63 -14 76q-19 22 -80 24l-123 9
v63q67 -1 145.5 -2.5t108.5 -1.5t107.5 1.5t144.5 2.5v-63l-86 -7q-41 -5 -57 -10t-23 -16q-14 -21 -17 -84q-4 -86 -4 -256v-389q0 -242 -143 -379q-145 -139 -381 -139zM1139 1438l-58 -8l-282 245l-283 -245l-57 8l270 354q36 47 70 47q33 0 69 -47z" />
    <glyph glyph-name="Udieresis" unicode="&#xdc;" horiz-adv-x="1511" 
d="M766 -20q-245 0 -395 135q-150 138 -150 377v587q0 113 -16 142t-82 32l-88 7v63q250 -4 280 -4q33 0 283 4v-63l-88 -7q-68 -3 -84 -32q-14 -25 -14 -142v-553q0 -204 102 -316t287 -112q191 0 291 108.5t100 317.5v363q0 186 -4 264q-3 63 -14 76q-19 22 -80 24l-123 9
v63q67 -1 145.5 -2.5t108.5 -1.5t107.5 1.5t144.5 2.5v-63l-86 -7q-41 -5 -57 -10t-23 -16q-14 -21 -17 -84q-4 -86 -4 -256v-389q0 -242 -143 -379q-145 -139 -381 -139zM588 1503q-49 0 -82 32.5t-33 80.5t33 80.5t82 32.5t83 -33t34 -80t-34 -80t-83 -33zM987 1503
q-49 0 -82 32.5t-33 80.5t33 80.5t82 32.5t83 -33t34 -80t-34 -80t-83 -33z" />
    <glyph glyph-name="Yacute" unicode="&#xdd;" horiz-adv-x="1394" 
d="M600 244v350l-371 530q-54 75 -90.5 101.5t-85.5 31.5l-33 3v63q58 -1 117 -2t93 -1.5t63 -0.5h102q16 1 42 1.5t68.5 1t76.5 1.5v-63l-109 -7q-72 -3 -72 -43q0 -27 37 -80l310 -450l317 446q39 51 39 84q0 40 -72 43l-106 7v63q44 -1 92.5 -2t76.5 -1.5t50 -0.5
q24 0 53 0.5t79 1.5t97 2v-63l-31 -3q-62 -3 -102 -43l-20 -22q-3 -3 -9 -11t-19.5 -26.5t-25.5 -34.5l-376 -526v-350q0 -121 14 -146t84 -28l108 -7v-63q-212 4 -301 4q-91 0 -303 -4v63l109 7q68 3 82 28q16 29 16 146zM944 1831q25 0 54.5 -20.5t54.5 -55.5l-396 -325
l-43 22l236 322q26 34 45 45.5t49 11.5z" />
    <glyph glyph-name="Thorn" unicode="&#xde;" horiz-adv-x="1181" 
d="M543 74l141 -6v-68q-100 2 -217 2q-43 2 -117 2q-39 0 -289 -4v63l89 7q66 6 81 30q17 27 17 144v835q0 117 -17 144q-15 24 -81 30l-89 7v63q250 -4 283 -4q31 0 281 4v-63l-88 -7q-63 -6 -82 -34q-17 -31 -17 -156h121q267 0 415 -98t148 -277q0 -167 -143 -274
q-141 -105 -348 -105q-69 0 -90 8v43q191 0 282.5 82t91.5 252q0 135 -97 214t-261 79q-72 0 -119 -6v-737q0 -88 8 -119q8 -27 28 -38.5t69 -12.5z" />
    <glyph glyph-name="germandbls" unicode="&#xdf;" horiz-adv-x="1177" 
d="M55 834v16l131 98v31q0 238 129 401q69 88 167 137.5t202 49.5q152 0 256 -94t104 -224q0 -14 -18.5 -34.5t-77.5 -69.5q-125 -101 -172 -170t-47 -139q0 -34 31 -76q22 -29 166 -164q113 -111 129 -129q67 -78 67 -162q0 -127 -100 -227q-98 -98 -229 -98
q-101 0 -167.5 42t-66.5 107q0 41 28 70.5t66 29.5q34 0 54.5 -23t33.5 -83q10 -46 19.5 -60t27.5 -14q72 0 120 53.5t48 133.5q0 70 -65 141l-33 33q-9 10 -84 79q-102 92 -145 160t-43 131q0 64 37 131q41 75 149 185q65 67 86 97t21 54q0 102 -66.5 171t-165.5 69
q-129 0 -205.5 -109t-76.5 -293v-948q0 -44 12.5 -55.5t71.5 -15.5l40 -3v-63q-164 4 -217 4q-43 0 -219 -4v63l49 3q59 4 71.5 15.5t12.5 55.5v635z" />
    <glyph glyph-name="agrave" unicode="&#xe0;" horiz-adv-x="913" 
d="M291 -14q-92 0 -156.5 60.5t-64.5 146.5q0 79 61 140.5t170 92.5l260 76l2 166q0 72 -53 115.5t-141 43.5q-49 0 -76 -25.5t-27 -70.5q0 -32 6 -80q-70 -24 -141 -24q-33 0 -33 26q0 41 43 94t115 103q61 43 125 67.5t111 24.5q245 0 245 -264l-10 -461q0 -47 28 -77.5
t72 -30.5q39 0 76 16l8 -12q-19 -56 -66 -92.5t-102 -36.5q-57 0 -104 32.5t-76 92.5q-56 -53 -132 -88t-140 -35zM557 147l4 291l-194 -59q-63 -19 -91 -50t-28 -85q0 -61 40.5 -101.5t98.5 -40.5q87 0 170 45zM367 1556q56 0 77 -61l144 -422l-49 -12l-277 440
q18 24 47 39.5t58 15.5z" />
    <glyph glyph-name="aacute" unicode="&#xe1;" horiz-adv-x="913" 
d="M291 -14q-92 0 -156.5 60.5t-64.5 146.5q0 79 61 140.5t170 92.5l260 76l2 166q0 72 -53 115.5t-141 43.5q-49 0 -76 -25.5t-27 -70.5q0 -32 6 -80q-70 -24 -141 -24q-33 0 -33 26q0 41 43 94t115 103q61 43 125 67.5t111 24.5q245 0 245 -264l-10 -461q0 -47 28 -77.5
t72 -30.5q39 0 76 16l8 -12q-19 -56 -66 -92.5t-102 -36.5q-57 0 -104 32.5t-76 92.5q-56 -53 -132 -88t-140 -35zM557 147l4 291l-194 -59q-63 -19 -91 -50t-28 -85q0 -61 40.5 -101.5t98.5 -40.5q87 0 170 45zM575 1556q29 0 58 -15.5t47 -39.5l-277 -440l-49 12l144 422
q21 61 77 61z" />
    <glyph glyph-name="acircumflex" unicode="&#xe2;" horiz-adv-x="913" 
d="M291 -14q-92 0 -156.5 60.5t-64.5 146.5q0 79 61 140.5t170 92.5l260 76l2 166q0 72 -53 115.5t-141 43.5q-49 0 -76 -25.5t-27 -70.5q0 -32 6 -80q-70 -24 -141 -24q-33 0 -33 26q0 41 43 94t115 103q61 43 125 67.5t111 24.5q245 0 245 -264l-10 -461q0 -47 28 -77.5
t72 -30.5q39 0 76 16l8 -12q-19 -56 -66 -92.5t-102 -36.5q-57 0 -104 32.5t-76 92.5q-56 -53 -132 -88t-140 -35zM557 147l4 291l-194 -59q-63 -19 -91 -50t-28 -85q0 -61 40.5 -101.5t98.5 -40.5q87 0 170 45zM449 1556q47 0 69 -49l205 -438l-53 -8l-221 315l-222 -315
l-53 8l205 438q22 49 70 49z" />
    <glyph glyph-name="atilde" unicode="&#xe3;" horiz-adv-x="913" 
d="M291 -14q-92 0 -156.5 60.5t-64.5 146.5q0 79 61 140.5t170 92.5l260 76l2 166q0 72 -53 115.5t-141 43.5q-49 0 -76 -25.5t-27 -70.5q0 -32 6 -80q-70 -24 -141 -24q-33 0 -33 26q0 41 43 94t115 103q61 43 125 67.5t111 24.5q245 0 245 -264l-10 -461q0 -47 28 -77.5
t72 -30.5q39 0 76 16l8 -12q-19 -56 -66 -92.5t-102 -36.5q-57 0 -104 32.5t-76 92.5q-56 -53 -132 -88t-140 -35zM557 147l4 291l-194 -59q-63 -19 -91 -50t-28 -85q0 -61 40.5 -101.5t98.5 -40.5q87 0 170 45zM592 1300q100 0 199 111l30 -16q-41 -76 -92 -138
q-56 -71 -98 -100q-50 12 -156 29q-98 16 -125 16q-48 0 -77.5 -15.5t-55.5 -56.5l-35 -51l-43 21l133 246q215 -46 320 -46z" />
    <glyph glyph-name="adieresis" unicode="&#xe4;" horiz-adv-x="913" 
d="M291 -14q-92 0 -156.5 60.5t-64.5 146.5q0 79 61 140.5t170 92.5l260 76l2 166q0 72 -53 115.5t-141 43.5q-49 0 -76 -25.5t-27 -70.5q0 -32 6 -80q-70 -24 -141 -24q-33 0 -33 26q0 41 43 94t115 103q61 43 125 67.5t111 24.5q245 0 245 -264l-10 -461q0 -47 28 -77.5
t72 -30.5q39 0 76 16l8 -12q-19 -56 -66 -92.5t-102 -36.5q-57 0 -104 32.5t-76 92.5q-56 -53 -132 -88t-140 -35zM557 147l4 291l-194 -59q-63 -19 -91 -50t-28 -85q0 -61 40.5 -101.5t98.5 -40.5q87 0 170 45zM616 1135q-49 0 -81.5 32t-32.5 80t32.5 80.5t81.5 32.5
t83 -33t34 -80t-34 -79.5t-83 -32.5zM279 1135q-49 0 -82 32.5t-33 79.5q0 48 33 80.5t82 32.5t82.5 -33t33.5 -80t-33.5 -79.5t-82.5 -32.5z" />
    <glyph glyph-name="aring" unicode="&#xe5;" horiz-adv-x="913" 
d="M291 -14q-92 0 -156.5 60.5t-64.5 146.5q0 79 61 140.5t170 92.5l260 76l2 166q0 72 -53 115.5t-141 43.5q-49 0 -76 -25.5t-27 -70.5q0 -32 6 -80q-70 -24 -141 -24q-33 0 -33 26q0 41 43 94t115 103q61 43 125 67.5t111 24.5q245 0 245 -264l-10 -461q0 -47 28 -77.5
t72 -30.5q39 0 76 16l8 -12q-19 -56 -66 -92.5t-102 -36.5q-57 0 -104 32.5t-76 92.5q-56 -53 -132 -88t-140 -35zM557 147l4 291l-194 -59q-63 -19 -91 -50t-28 -85q0 -61 40.5 -101.5t98.5 -40.5q87 0 170 45zM451 1069q-85 0 -145 59t-60 144t60 145t145 60t144.5 -60
t59.5 -145t-59.5 -144t-144.5 -59zM451 1399q-54 0 -90.5 -36.5t-36.5 -90.5t36.5 -89.5t90.5 -35.5t90.5 35.5t36.5 89.5t-36.5 90.5t-90.5 36.5z" />
    <glyph glyph-name="ae" unicode="&#xe6;" horiz-adv-x="1413" 
d="M983 -20q-115 0 -213 48.5t-158 135.5q-69 -84 -154 -131t-167 -47q-93 0 -156 63q-65 65 -65 154q0 106 83 172.5t271 109.5l137 33l2 150q0 72 -53 115.5t-141 43.5q-49 0 -76 -25.5t-27 -70.5q0 -32 6 -80q-70 -24 -141 -24q-33 0 -33 26q0 41 43 94t115 103
q61 43 125 67.5t111 24.5q80 0 135 -38t75 -109q129 147 314 147q141 0 229 -73t88 -191q0 -26 -18.5 -43t-59.5 -27l-538 -123q3 -166 96 -266q94 -98 240 -98q83 0 147 32t123 105l29 -18q-48 -118 -148 -189t-221 -71zM1167 707q0 73 -48 116t-124 43q-109 0 -185 -85.5
t-89 -225.5l401 96q26 6 35.5 18t9.5 38zM240 266q0 -71 41.5 -115.5t105.5 -44.5q109 0 172 80l2 265l-127 -29q-103 -23 -148.5 -59.5t-45.5 -96.5z" />
    <glyph glyph-name="ccedilla" unicode="&#xe7;" horiz-adv-x="909" 
d="M688 -266q0 -87 -106 -162q-107 -76 -220 -76q-47 0 -75.5 22t-28.5 58q0 31 18.5 48.5t49.5 17.5q34 0 75 -39q31 -29 52 -29q43 0 81.5 33.5t38.5 70.5q0 93 -206 152l65 156q-154 27 -256 147q-100 118 -100 287q0 214 141 364q69 75 161.5 116.5t190.5 41.5
q118 0 199.5 -48.5t81.5 -117.5q0 -44 -23.5 -69t-64.5 -25q-34 0 -58 19t-49 73q-28 55 -51 73.5t-57 18.5q-57 0 -117 -33t-102 -90q-74 -104 -74 -245q0 -148 92 -260q47 -59 110 -91t130 -32q150 0 245 127l29 -21q-41 -108 -137.5 -174.5t-212.5 -66.5h-21l-18 -52
q126 -48 171.5 -90t45.5 -104z" />
    <glyph glyph-name="egrave" unicode="&#xe8;" horiz-adv-x="942" 
d="M852 258l29 -18q-48 -118 -148 -189t-221 -71q-194 0 -317 126q-123 129 -123 334q0 203 131 346q68 74 155 115t177 41q145 0 237 -86q94 -82 94 -213q0 -31 -21 -50.5t-57 -19.5h-538q-1 -16 -2 -34t-1.5 -29t-0.5 -21q0 -157 96 -264q98 -104 240 -104q83 0 147 32
t123 105zM678 698q0 76 -46 122t-124 46q-88 0 -154 -61.5t-92 -169.5l371 8q45 0 45 55zM424 1556q57 0 78 -61l143 -422l-49 -12l-277 440q18 24 47 39.5t58 15.5z" />
    <glyph glyph-name="eacute" unicode="&#xe9;" horiz-adv-x="942" 
d="M852 258l29 -18q-48 -118 -148 -189t-221 -71q-194 0 -317 126q-123 129 -123 334q0 203 131 346q68 74 155 115t177 41q145 0 237 -86q94 -82 94 -213q0 -31 -21 -50.5t-57 -19.5h-538q-1 -16 -2 -34t-1.5 -29t-0.5 -21q0 -157 96 -264q98 -104 240 -104q83 0 147 32
t123 105zM678 698q0 76 -46 122t-124 46q-88 0 -154 -61.5t-92 -169.5l371 8q45 0 45 55zM633 1556q29 0 57.5 -15.5t46.5 -39.5l-276 -440l-49 12l143 422q21 61 78 61z" />
    <glyph glyph-name="ecircumflex" unicode="&#xea;" horiz-adv-x="942" 
d="M852 258l29 -18q-48 -118 -148 -189t-221 -71q-194 0 -317 126q-123 129 -123 334q0 203 131 346q68 74 155 115t177 41q145 0 237 -86q94 -82 94 -213q0 -31 -21 -50.5t-57 -19.5h-538q-1 -16 -2 -34t-1.5 -29t-0.5 -21q0 -157 96 -264q98 -104 240 -104q83 0 147 32
t123 105zM678 698q0 76 -46 122t-124 46q-88 0 -154 -61.5t-92 -169.5l371 8q45 0 45 55zM520 1556q48 0 70 -49l205 -438l-54 -8l-221 315l-221 -315l-53 8l205 438q22 49 69 49z" />
    <glyph glyph-name="edieresis" unicode="&#xeb;" horiz-adv-x="942" 
d="M852 258l29 -18q-48 -118 -148 -189t-221 -71q-194 0 -317 126q-123 129 -123 334q0 203 131 346q68 74 155 115t177 41q145 0 237 -86q94 -82 94 -213q0 -31 -21 -50.5t-57 -19.5h-538q-1 -16 -2 -34t-1.5 -29t-0.5 -21q0 -157 96 -264q98 -104 240 -104q83 0 147 32
t123 105zM678 698q0 76 -46 122t-124 46q-88 0 -154 -61.5t-92 -169.5l371 8q45 0 45 55zM690 1135q-49 0 -82 32.5t-33 79.5q0 48 33 80.5t82 32.5t83 -33t34 -80t-34 -79.5t-83 -32.5zM352 1135q-49 0 -81.5 32t-32.5 80t32.5 80.5t81.5 32.5t83 -33t34 -80t-34 -79.5
t-83 -32.5z" />
    <glyph glyph-name="igrave" unicode="&#xec;" horiz-adv-x="540" 
d="M449 66l49 -3v-63q-164 4 -222 4q-47 0 -223 -4v63l49 3q59 4 71.5 15.5t12.5 55.5v525q0 43 -10.5 61.5t-40.5 36.5l-65 41v26q131 40 284 125h21q-10 -156 -10 -561v-254q0 -44 12.5 -55.5t71.5 -15.5zM162 1556q57 0 78 -61l143 -422l-49 -12l-277 440q18 24 47 39.5
t58 15.5z" />
    <glyph glyph-name="iacute" unicode="&#xed;" horiz-adv-x="540" 
d="M449 66l49 -3v-63q-164 4 -222 4q-47 0 -223 -4v63l49 3q59 4 71.5 15.5t12.5 55.5v525q0 43 -10.5 61.5t-40.5 36.5l-65 41v26q131 40 284 125h21q-10 -156 -10 -561v-254q0 -44 12.5 -55.5t71.5 -15.5zM371 1556q29 0 57.5 -15.5t46.5 -39.5l-276 -440l-49 12l143 422
q21 61 78 61z" />
    <glyph glyph-name="icircumflex" unicode="&#xee;" horiz-adv-x="540" 
d="M449 66l49 -3v-63q-164 4 -222 4q-47 0 -223 -4v63l49 3q59 4 71.5 15.5t12.5 55.5v525q0 43 -10.5 61.5t-40.5 36.5l-65 41v26q131 40 284 125h21q-10 -156 -10 -561v-254q0 -44 12.5 -55.5t71.5 -15.5zM274 1556q48 0 70 -49l205 -438l-53 -8l-222 315l-221 -315l-53 8
l205 438q22 49 69 49z" />
    <glyph glyph-name="idieresis" unicode="&#xef;" horiz-adv-x="540" 
d="M449 66l49 -3v-63q-164 4 -222 4q-47 0 -223 -4v63l49 3q59 4 71.5 15.5t12.5 55.5v525q0 43 -10.5 61.5t-40.5 36.5l-65 41v26q131 40 284 125h21q-10 -156 -10 -561v-254q0 -44 12.5 -55.5t71.5 -15.5zM442 1135q-49 0 -81.5 32t-32.5 80t32.5 80.5t81.5 32.5t83 -33
t34 -80t-34 -79.5t-83 -32.5zM104 1135q-49 0 -81.5 32t-32.5 80t32.5 80.5t81.5 32.5t83 -33t34 -80t-34 -79.5t-83 -32.5z" />
    <glyph glyph-name="eth" unicode="&#xf0;" horiz-adv-x="1075" 
d="M1004 563q0 -264 -130 -424q-129 -159 -333 -159q-94 0 -181 36t-153 103q-135 135 -135 338q0 198 123 336q62 71 146 110t173 39q79 0 142.5 -29t125.5 -94q-53 199 -209 385l-317 -121l-10 74l274 105q-179 183 -385 258l70 47q245 -82 440 -256l211 80l10 -74
l-164 -64q143 -148 222.5 -330t79.5 -360zM815 453q0 182 -76 295q-77 114 -198 114q-123 0 -199 -108t-76 -285q0 -184 76 -297t199 -113t198.5 108.5t75.5 285.5z" />
    <glyph glyph-name="ntilde" unicode="&#xf1;" horiz-adv-x="1116" 
d="M1038 66l49 -3v-63q-164 4 -221 4q-47 0 -223 -4v63l49 3q59 4 71.5 15.5t12.5 55.5v453q0 109 -53.5 165t-157.5 56t-200 -57v-617q0 -44 12.5 -55.5t71.5 -15.5l49 -3v-63q-164 4 -222 4q-47 0 -223 -4v63l49 3q59 4 71.5 15.5t12.5 55.5v525q0 43 -10.5 61.5
t-40.5 36.5l-65 41v26q131 40 284 125h21l-10 -161q78 66 174.5 108.5t171.5 42.5q119 0 181 -73t62 -212v-520q0 -44 12.5 -55.5t71.5 -15.5zM692 1300q100 0 199 111l31 -16q-39 -73 -93 -138q-56 -71 -98 -100q-50 12 -156 29q-98 16 -124 16q-48 0 -78 -15.5t-56 -56.5
l-34 -51l-43 21l133 246q215 -46 319 -46z" />
    <glyph glyph-name="ograve" unicode="&#xf2;" horiz-adv-x="1081" 
d="M877 123q-137 -143 -336 -143q-94 0 -181 36t-153 103q-135 135 -135 338q0 206 133 342q137 143 336 143q94 0 180.5 -36t152.5 -103q136 -136 136 -338q0 -206 -133 -342zM815 453q0 182 -76 295q-77 114 -198 114q-123 0 -199 -108t-76 -285q0 -184 76 -297t199 -113
t198.5 108.5t75.5 285.5zM428 1556q57 0 78 -61l143 -422l-49 -12l-276 440q18 24 46.5 39.5t57.5 15.5z" />
    <glyph glyph-name="oacute" unicode="&#xf3;" horiz-adv-x="1081" 
d="M877 123q-137 -143 -336 -143q-94 0 -181 36t-153 103q-135 135 -135 338q0 206 133 342q137 143 336 143q94 0 180.5 -36t152.5 -103q136 -136 136 -338q0 -206 -133 -342zM815 453q0 182 -76 295q-77 114 -198 114q-123 0 -199 -108t-76 -285q0 -184 76 -297t199 -113
t198.5 108.5t75.5 285.5zM678 1556q29 0 57.5 -15.5t46.5 -39.5l-276 -440l-49 12l143 422q21 61 78 61z" />
    <glyph glyph-name="ocircumflex" unicode="&#xf4;" horiz-adv-x="1081" 
d="M877 123q-137 -143 -336 -143q-94 0 -181 36t-153 103q-135 135 -135 338q0 206 133 342q137 143 336 143q94 0 180.5 -36t152.5 -103q136 -136 136 -338q0 -206 -133 -342zM815 453q0 182 -76 295q-77 114 -198 114q-123 0 -199 -108t-76 -285q0 -184 76 -297t199 -113
t198.5 108.5t75.5 285.5zM541 1556q47 0 69 -49l205 -438l-53 -8l-221 315l-222 -315l-53 8l205 438q22 49 70 49z" />
    <glyph glyph-name="otilde" unicode="&#xf5;" horiz-adv-x="1081" 
d="M877 123q-137 -143 -336 -143q-94 0 -181 36t-153 103q-135 135 -135 338q0 206 133 342q137 143 336 143q94 0 180.5 -36t152.5 -103q136 -136 136 -338q0 -206 -133 -342zM815 453q0 182 -76 295q-77 114 -198 114q-123 0 -199 -108t-76 -285q0 -184 76 -297t199 -113
t198.5 108.5t75.5 285.5zM674 1300q99 0 198 111l31 -16q-41 -76 -92 -138q-56 -71 -98 -100q-50 12 -156 29q-98 16 -125 16q-48 0 -77.5 -15.5t-55.5 -56.5l-35 -51l-43 21l133 246q215 -46 320 -46z" />
    <glyph glyph-name="odieresis" unicode="&#xf6;" horiz-adv-x="1081" 
d="M877 123q-137 -143 -336 -143q-94 0 -181 36t-153 103q-135 135 -135 338q0 206 133 342q137 143 336 143q94 0 180.5 -36t152.5 -103q136 -136 136 -338q0 -206 -133 -342zM815 453q0 182 -76 295q-77 114 -198 114q-123 0 -199 -108t-76 -285q0 -184 76 -297t199 -113
t198.5 108.5t75.5 285.5zM709 1135q-49 0 -82 32.5t-33 79.5q0 48 33 80.5t82 32.5t82.5 -33t33.5 -80t-33.5 -79.5t-82.5 -32.5zM371 1135q-49 0 -82 32.5t-33 79.5q0 48 33 80.5t82 32.5t82.5 -33t33.5 -80t-33.5 -79.5t-82.5 -32.5z" />
    <glyph glyph-name="divide" unicode="&#xf7;" 
d="M618 944q-56 0 -94.5 39t-38.5 94t38.5 94t94.5 39q54 0 93 -39t39 -94t-39 -94t-93 -39zM1169 709l-20 -109h-1090l21 109h1089zM618 98q-56 0 -94.5 39t-38.5 94q0 56 39 95t94 39q54 0 93 -39.5t39 -94.5t-39 -94t-93 -39z" />
    <glyph glyph-name="oslash" unicode="&#xf8;" horiz-adv-x="1081" 
d="M877 123q-137 -143 -336 -143q-131 0 -240 65l-111 -156l-73 29l121 170q-80 69 -123 164t-43 205q0 206 133 342q137 143 336 143q137 0 252 -74l100 142l74 -29l-113 -158q75 -68 115.5 -160.5t40.5 -197.5q0 -206 -133 -342zM541 862q-123 0 -199 -108t-76 -285
q0 -147 56 -262l401 563q-76 92 -182 92zM541 59q123 0 198.5 108.5t75.5 285.5q0 149 -49 247l-397 -561q74 -80 172 -80z" />
    <glyph glyph-name="ugrave" unicode="&#xf9;" horiz-adv-x="1099" 
d="M954 117l113 -8v-48l-88 -20q-61 -15 -234 -64h-20l4 164q-173 -161 -317 -161q-115 0 -179.5 68.5t-64.5 191.5v516q0 41 -14.5 58.5t-51.5 23.5l-75 10v55q105 5 159 10l148 15h20q-8 -131 -8 -379v-238q0 -106 44 -155.5t140 -49.5t199 70v592q0 40 -13.5 53.5
t-51.5 18.5l-99 10v53q229 10 330 25h20q-8 -131 -8 -379v-379q0 -31 8 -39.5t39 -13.5zM428 1556q57 0 78 -61l143 -422l-49 -12l-276 440q18 24 46.5 39.5t57.5 15.5z" />
    <glyph glyph-name="uacute" unicode="&#xfa;" horiz-adv-x="1099" 
d="M954 117l113 -8v-48l-88 -20q-61 -15 -234 -64h-20l4 164q-173 -161 -317 -161q-115 0 -179.5 68.5t-64.5 191.5v516q0 41 -14.5 58.5t-51.5 23.5l-75 10v55q105 5 159 10l148 15h20q-8 -131 -8 -379v-238q0 -106 44 -155.5t140 -49.5t199 70v592q0 40 -13.5 53.5
t-51.5 18.5l-99 10v53q229 10 330 25h20q-8 -131 -8 -379v-379q0 -31 8 -39.5t39 -13.5zM678 1556q29 0 57.5 -15.5t46.5 -39.5l-276 -440l-49 12l143 422q21 61 78 61z" />
    <glyph glyph-name="ucircumflex" unicode="&#xfb;" horiz-adv-x="1099" 
d="M954 117l113 -8v-48l-88 -20q-61 -15 -234 -64h-20l4 164q-173 -161 -317 -161q-115 0 -179.5 68.5t-64.5 191.5v516q0 41 -14.5 58.5t-51.5 23.5l-75 10v55q105 5 159 10l148 15h20q-8 -131 -8 -379v-238q0 -106 44 -155.5t140 -49.5t199 70v592q0 40 -13.5 53.5
t-51.5 18.5l-99 10v53q229 10 330 25h20q-8 -131 -8 -379v-379q0 -31 8 -39.5t39 -13.5zM541 1556q47 0 69 -49l205 -438l-53 -8l-221 315l-222 -315l-53 8l205 438q22 49 70 49z" />
    <glyph glyph-name="udieresis" unicode="&#xfc;" horiz-adv-x="1099" 
d="M954 117l113 -8v-48l-88 -20q-61 -15 -234 -64h-20l4 164q-173 -161 -317 -161q-115 0 -179.5 68.5t-64.5 191.5v516q0 41 -14.5 58.5t-51.5 23.5l-75 10v55q105 5 159 10l148 15h20q-8 -131 -8 -379v-238q0 -106 44 -155.5t140 -49.5t199 70v592q0 40 -13.5 53.5
t-51.5 18.5l-99 10v53q229 10 330 25h20q-8 -131 -8 -379v-379q0 -31 8 -39.5t39 -13.5zM709 1135q-49 0 -82 32.5t-33 79.5q0 48 33 80.5t82 32.5t82.5 -33t33.5 -80t-33.5 -79.5t-82.5 -32.5zM371 1135q-49 0 -82 32.5t-33 79.5q0 48 33 80.5t82 32.5t82.5 -33t33.5 -80
t-33.5 -79.5t-82.5 -32.5z" />
    <glyph glyph-name="yacute" unicode="&#xfd;" horiz-adv-x="1003" 
d="M889 811l-373 -856l-160 -422q-12 -37 -71 -37q-37 0 -68 15t-43 38q197 299 268 478l-329 784q-8 20 -20.5 30.5t-37.5 14.5l-47 4v62q102 -4 207 -4q56 0 256 4v-66l-109 -10q-31 -5 -42 -10t-11 -17t8 -31l220 -589l237 589q8 21 8 29q0 26 -53 29l-104 10v66
q153 -4 157 -4h62q49 0 151 4v-62l-47 -4q-25 -5 -37 -13.5t-22 -31.5zM674 1556q29 0 57.5 -15.5t46.5 -39.5l-276 -440l-49 12l143 422q21 61 78 61z" />
    <glyph glyph-name="thorn" unicode="&#xfe;" horiz-adv-x="1118" 
d="M340 985v-192q62 53 158 100q98 49 155 49q176 0 283 -119q111 -117 111 -301q0 -222 -136 -377q-72 -78 -166.5 -121.5t-193.5 -43.5q-121 0 -211 38v-362q0 -38 16.5 -51.5t69.5 -14.5l135 -6v-67q-148 4 -266 4q-114 0 -266 -4v63l49 2q58 4 71 16t13 56v1646
q0 47 -11.5 67.5t-39.5 31.5l-84 35v24q191 56 301 109h20q-8 -123 -8 -582zM870 451q0 152 -96 256q-94 104 -237 104q-115 0 -197 -61v-543q3 -40 76 -98q76 -54 139 -54q148 0 231.5 104t83.5 292z" />
    <glyph glyph-name="ydieresis" unicode="&#xff;" horiz-adv-x="1003" 
d="M889 811l-373 -856l-160 -422q-12 -37 -71 -37q-37 0 -68 15t-43 38q197 299 268 478l-329 784q-8 20 -20.5 30.5t-37.5 14.5l-47 4v62q102 -4 207 -4q56 0 256 4v-66l-109 -10q-31 -5 -42 -10t-11 -17t8 -31l220 -589l237 589q8 21 8 29q0 26 -53 29l-104 10v66
q153 -4 157 -4h62q49 0 151 4v-62l-47 -4q-25 -5 -37 -13.5t-22 -31.5zM705 1135q-49 0 -82 32.5t-33 79.5q0 48 33 80.5t82 32.5t82.5 -33t33.5 -80t-33.5 -79.5t-82.5 -32.5zM367 1135q-49 0 -82 32.5t-33 79.5q0 48 33 80.5t82 32.5t82.5 -33t33.5 -80t-33.5 -79.5
t-82.5 -32.5z" />
    <glyph glyph-name="Amacron" unicode="&#x100;" horiz-adv-x="1404" 
d="M1343 68l41 -2v-66q-164 4 -256 4q-71 0 -110 -2q-100 0 -184 -2v66l71 2q63 2 90 15t27 44q0 21 -21 80l-108 285h-467l-111 -279q-22 -54 -22 -82q0 -32 27 -47t90 -16l69 -2v-66q-39 1 -83 2t-67 1.5t-34 0.5h-68q-22 0 -47.5 -0.5t-69.5 -1.5t-90 -2v66l43 2
q68 3 87 22q22 22 65 123l410 991l-39 101q100 11 180 57q64 -191 117 -336l319 -838q29 -72 57 -95t84 -25zM866 563l-200 533l-211 -533h411zM377 1536l47 121h475q115 0 158 16l-47 -121h-475q-115 0 -158 -16z" />
    <glyph glyph-name="amacron" unicode="&#x101;" horiz-adv-x="913" 
d="M291 -14q-92 0 -156.5 60.5t-64.5 146.5q0 79 61 140.5t170 92.5l260 76l2 166q0 72 -53 115.5t-141 43.5q-49 0 -76 -25.5t-27 -70.5q0 -32 6 -80q-70 -24 -141 -24q-33 0 -33 26q0 41 43 94t115 103q61 43 125 67.5t111 24.5q245 0 245 -264l-10 -461q0 -47 28 -77.5
t72 -30.5q39 0 76 16l8 -12q-19 -56 -66 -92.5t-102 -36.5q-57 0 -104 32.5t-76 92.5q-56 -53 -132 -88t-140 -35zM557 147l4 291l-194 -59q-63 -19 -91 -50t-28 -85q0 -61 40.5 -101.5t98.5 -40.5q87 0 170 45zM168 1167l47 119h373q111 0 157 17l-47 -119h-372
q-112 0 -158 -17z" />
    <glyph glyph-name="Abreve" unicode="&#x102;" horiz-adv-x="1404" 
d="M1343 68l41 -2v-66q-164 4 -256 4q-71 0 -110 -2q-100 0 -184 -2v66l71 2q63 2 90 15t27 44q0 21 -21 80l-108 285h-467l-111 -279q-22 -54 -22 -82q0 -32 27 -47t90 -16l69 -2v-66q-39 1 -83 2t-67 1.5t-34 0.5h-68q-22 0 -47.5 -0.5t-69.5 -1.5t-90 -2v66l43 2
q68 3 87 22q22 22 65 123l410 991l-39 101q100 11 180 57q64 -191 117 -336l319 -838q29 -72 57 -95t84 -25zM866 563l-200 533l-211 -533h411zM717 1458q-131 0 -223 105q-92 106 -107 274l59 10q19 -125 87.5 -189.5t183.5 -64.5t183 64.5t87 189.5l60 -10
q-15 -168 -107 -274q-91 -105 -223 -105z" />
    <glyph glyph-name="abreve" unicode="&#x103;" horiz-adv-x="913" 
d="M291 -14q-92 0 -156.5 60.5t-64.5 146.5q0 79 61 140.5t170 92.5l260 76l2 166q0 72 -53 115.5t-141 43.5q-49 0 -76 -25.5t-27 -70.5q0 -32 6 -80q-70 -24 -141 -24q-33 0 -33 26q0 41 43 94t115 103q61 43 125 67.5t111 24.5q245 0 245 -264l-10 -461q0 -47 28 -77.5
t72 -30.5q39 0 76 16l8 -12q-19 -56 -66 -92.5t-102 -36.5q-57 0 -104 32.5t-76 92.5q-56 -53 -132 -88t-140 -35zM557 147l4 291l-194 -59q-63 -19 -91 -50t-28 -85q0 -61 40.5 -101.5t98.5 -40.5q87 0 170 45zM449 1069q-124 0 -196.5 131t-72.5 352l60 11
q7 -164 64 -261.5t145 -97.5t144 97.5t64 261.5l60 -11q0 -221 -72 -352t-196 -131z" />
    <glyph glyph-name="Aogonek" unicode="&#x104;" horiz-adv-x="1404" 
d="M1165 -356l23 -47q-56 -43 -116 -72t-95 -29q-70 0 -113 42.5t-43 113.5q0 73 71 168t189 184q-26 0 -56.5 -0.5t-84.5 -1.5t-106 -2v66l71 2q63 2 90 15t27 44q0 21 -21 80l-108 285h-467l-111 -279q-22 -54 -22 -82q0 -32 27 -47t90 -16l69 -2v-66q-39 1 -83 2t-67 1.5
t-34 0.5h-68q-22 0 -47.5 -0.5t-69.5 -1.5t-90 -2v66l43 2q68 3 87 22q22 22 65 123l410 991l-39 101q100 11 180 57q64 -191 117 -336l319 -838q29 -72 57 -95t84 -25l41 -2v-66q-160 4 -233 4q-80 -67 -134 -150.5t-54 -144.5q0 -106 86 -106q49 0 116 41zM866 563
l-200 533l-211 -533h411z" />
    <glyph glyph-name="aogonek" unicode="&#x105;" horiz-adv-x="913" 
d="M301 426l260 76l2 166q0 72 -53 115.5t-141 43.5q-49 0 -76 -25.5t-27 -70.5q0 -32 6 -80q-70 -24 -141 -24q-33 0 -33 26q0 41 43 94t115 103q61 43 125 67.5t111 24.5q245 0 245 -264l-10 -461q0 -47 28 -77.5t72 -30.5q39 0 76 16l8 -12q-16 -42 -59 -80l-74 -70
q-67 -61 -105 -128t-38 -126q0 -106 86 -106q50 0 117 41l22 -47q-56 -43 -116 -72t-95 -29q-70 0 -112.5 42.5t-42.5 113.5q0 69 63.5 159.5t169.5 172.5q-109 12 -164 125q-56 -53 -132 -88t-140 -35q-92 0 -156.5 60.5t-64.5 146.5q0 79 61 140.5t170 92.5zM557 147
l4 291l-194 -59q-63 -19 -91 -50t-28 -85q0 -61 40.5 -101.5t98.5 -40.5q87 0 170 45z" />
    <glyph glyph-name="Cacute" unicode="&#x106;" horiz-adv-x="1294" 
d="M414 285q72 -88 172.5 -134.5t216.5 -46.5q143 0 246 61.5t182 196.5l29 -18l-74 -184q-155 -180 -455 -180q-136 0 -258 47t-213 135q-92 87 -140 208t-48 261q0 144 50 272t146 227q96 102 223.5 157.5t264.5 55.5q119 0 215 -22.5t194 -75.5l56 -340l-43 -16
q-30 87 -57 137t-64 92q-115 133 -305 133q-103 0 -195.5 -45t-159.5 -129q-123 -154 -123 -381q0 -246 140 -411zM913 1831q25 0 54.5 -20.5t54.5 -55.5l-395 -325l-43 22l235 322q26 34 45 45.5t49 11.5z" />
    <glyph glyph-name="cacute" unicode="&#x107;" horiz-adv-x="909" 
d="M655 774q-28 55 -51 73.5t-57 18.5q-57 0 -117 -33t-102 -90q-74 -104 -74 -245q0 -148 92 -260q47 -59 110 -91t130 -32q150 0 245 127l29 -21q-41 -108 -137.5 -174.5t-212.5 -66.5q-185 0 -309 124q-125 125 -125 316q0 214 141 364q69 75 161.5 116.5t190.5 41.5
q118 0 199.5 -48.5t81.5 -117.5q0 -44 -23.5 -69t-64.5 -25q-34 0 -58 19t-49 73zM659 1556q29 0 58 -15.5t47 -39.5l-277 -440l-49 12l144 422q21 61 77 61z" />
    <glyph glyph-name="Ccircumflex" unicode="&#x108;" horiz-adv-x="1294" 
d="M414 285q72 -88 172.5 -134.5t216.5 -46.5q143 0 246 61.5t182 196.5l29 -18l-74 -184q-155 -180 -455 -180q-136 0 -258 47t-213 135q-92 87 -140 208t-48 261q0 144 50 272t146 227q96 102 223.5 157.5t264.5 55.5q119 0 215 -22.5t194 -75.5l56 -340l-43 -16
q-30 87 -57 137t-64 92q-115 133 -305 133q-103 0 -195.5 -45t-159.5 -129q-123 -154 -123 -381q0 -246 140 -411zM1104 1438l-57 -8l-283 245l-283 -245l-57 8l270 354q36 47 70 47t70 -47z" />
    <glyph glyph-name="ccircumflex" unicode="&#x109;" horiz-adv-x="909" 
d="M655 774q-28 55 -51 73.5t-57 18.5q-57 0 -117 -33t-102 -90q-74 -104 -74 -245q0 -148 92 -260q47 -59 110 -91t130 -32q150 0 245 127l29 -21q-41 -108 -137.5 -174.5t-212.5 -66.5q-185 0 -309 124q-125 125 -125 316q0 214 141 364q69 75 161.5 116.5t190.5 41.5
q118 0 199.5 -48.5t81.5 -117.5q0 -44 -23.5 -69t-64.5 -25q-34 0 -58 19t-49 73zM543 1556q47 0 69 -49l205 -438l-53 -8l-221 315l-221 -315l-54 8l205 438q22 49 70 49z" />
    <glyph glyph-name="Cdotaccent" unicode="&#x10a;" horiz-adv-x="1294" 
d="M414 285q72 -88 172.5 -134.5t216.5 -46.5q143 0 246 61.5t182 196.5l29 -18l-74 -184q-155 -180 -455 -180q-136 0 -258 47t-213 135q-92 87 -140 208t-48 261q0 144 50 272t146 227q96 102 223.5 157.5t264.5 55.5q119 0 215 -22.5t194 -75.5l56 -340l-43 -16
q-30 87 -57 137t-64 92q-115 133 -305 133q-103 0 -195.5 -45t-159.5 -129q-123 -154 -123 -381q0 -246 140 -411zM764 1729q51 0 86 -35t35 -86t-35 -85t-86 -34t-85 34t-34 85t34 86t85 35z" />
    <glyph glyph-name="cdotaccent" unicode="&#x10b;" horiz-adv-x="909" 
d="M655 774q-28 55 -51 73.5t-57 18.5q-57 0 -117 -33t-102 -90q-74 -104 -74 -245q0 -148 92 -260q47 -59 110 -91t130 -32q150 0 245 127l29 -21q-41 -108 -137.5 -174.5t-212.5 -66.5q-185 0 -309 124q-125 125 -125 316q0 214 141 364q69 75 161.5 116.5t190.5 41.5
q118 0 199.5 -48.5t81.5 -117.5q0 -44 -23.5 -69t-64.5 -25q-34 0 -58 19t-49 73zM543 1401q51 0 86 -35t35 -86t-35 -85t-86 -34t-85 34t-34 85t34 86t85 35z" />
    <glyph glyph-name="Ccaron" unicode="&#x10c;" horiz-adv-x="1294" 
d="M414 285q72 -88 172.5 -134.5t216.5 -46.5q143 0 246 61.5t182 196.5l29 -18l-74 -184q-155 -180 -455 -180q-136 0 -258 47t-213 135q-92 87 -140 208t-48 261q0 144 50 272t146 227q96 102 223.5 157.5t264.5 55.5q119 0 215 -22.5t194 -75.5l56 -340l-43 -16
q-30 87 -57 137t-64 92q-115 133 -305 133q-103 0 -195.5 -45t-159.5 -129q-123 -154 -123 -381q0 -246 140 -411zM1047 1839l57 -8l-270 -354q-36 -47 -70 -47t-70 47l-270 354l57 8l283 -246z" />
    <glyph glyph-name="ccaron" unicode="&#x10d;" horiz-adv-x="909" 
d="M655 774q-28 55 -51 73.5t-57 18.5q-57 0 -117 -33t-102 -90q-74 -104 -74 -245q0 -148 92 -260q47 -59 110 -91t130 -32q150 0 245 127l29 -21q-41 -108 -137.5 -174.5t-212.5 -66.5q-185 0 -309 124q-125 125 -125 316q0 214 141 364q69 75 161.5 116.5t190.5 41.5
q118 0 199.5 -48.5t81.5 -117.5q0 -44 -23.5 -69t-64.5 -25q-34 0 -58 19t-49 73zM543 1055q-48 0 -70 49l-205 438l54 8l221 -315l221 315l53 -8l-205 -438q-22 -49 -69 -49z" />
    <glyph glyph-name="Dcaron" unicode="&#x10e;" horiz-adv-x="1503" 
d="M150 1251l-105 9v63q23 -2 117 -2q25 0 59.5 0.5t96.5 1.5t128 2q125 2 199 2q360 0 572 -170q215 -170 215 -457q0 -154 -57.5 -285.5t-166.5 -228.5q-102 -91 -239 -138.5t-293 -47.5h-615v63l89 7q66 3 81 30q17 31 17 144v835q0 101 -6 119q-6 28 -23 38.5t-69 14.5z
M639 1239q-113 0 -201 -12v-1020q0 -60 68.5 -95.5t185.5 -35.5q234 0 377 162t143 421q0 281 -148 430.5t-425 149.5zM1020 1839l57 -8l-270 -354q-36 -47 -70 -47q-33 0 -69 47l-271 354l58 8l282 -246z" />
    <glyph glyph-name="dcaron" unicode="&#x10f;" horiz-adv-x="1380" 
d="M1004 117l112 -8v-48q-39 -7 -219 -57l-104 -31h-21l6 146q-76 -62 -158 -100.5t-141 -38.5q-169 0 -289 120q-118 121 -118 301q0 226 137 375q72 79 167 122.5t195 43.5t207 -47v405q0 47 -11.5 66.5t-39.5 32.5l-84 35v24q191 56 301 109h21q-9 -138 -9 -582v-815
q0 -30 8.5 -39t39.5 -14zM248 477q0 -154 100 -260t248 -106q109 0 182 49v526q0 24 -22.5 59t-57.5 64q-60 57 -135 57q-144 0 -229.5 -104t-85.5 -285zM1192 1061l-41 10l59 424q9 61 72 61q59 0 98 -51z" />
    <glyph glyph-name="Dcroat" unicode="&#x110;" horiz-adv-x="1529" 
d="M672 1327q359 0 571 -170q215 -170 215 -457q0 -154 -57 -285.5t-166 -228.5q-102 -90 -239.5 -138t-293.5 -48h-614v63l88 7q67 3 82 30q16 29 16 144v403h-49q-83 0 -153 -4l28 80h174v356q0 101 -6 119q-6 28 -23 38.5t-69 14.5l-104 9v63q23 -2 116 -2q25 0 59.5 0.5
t97 1.5t128.5 2q125 2 199 2zM739 647h-274v-440q0 -60 68.5 -95.5t185.5 -35.5q234 0 377 162t143 421q0 281 -148 430.5t-425 149.5q-112 0 -201 -12v-504h149q84 0 154 4z" />
    <glyph glyph-name="dslash" unicode="&#x111;" horiz-adv-x="1128" 
d="M1004 117l112 -8v-48q-39 -7 -219 -57l-104 -31h-21l6 146q-76 -62 -158 -100.5t-141 -38.5q-169 0 -289 120q-118 121 -118 301q0 226 137 375q72 79 167 122.5t195 43.5t207 -47v233h-164q-83 0 -153 -4l28 80h289v96q0 47 -11.5 66.5t-39.5 32.5l-84 35v24
q191 56 301 109h21q-7 -189 -9 -363h7q83 0 153 4l-29 -80h-131v-958q0 -30 8.5 -39t39.5 -14zM248 477q0 -154 100 -260t248 -106q109 0 182 49v526q0 24 -22.5 59t-57.5 64q-60 57 -135 57q-144 0 -229.5 -104t-85.5 -285z" />
    <glyph glyph-name="Emacron" unicode="&#x112;" horiz-adv-x="1261" 
d="M1147 410l53 -11q-17 -81 -37 -198q-24 -159 -28 -201q-203 2 -416 2q-72 2 -195 2q-115 0 -463 -4v63l89 7q66 3 81 30q17 31 17 144v835q0 101 -6 119q-6 28 -23 38.5t-69 14.5l-105 9v63h623q276 0 389 18l20 -254q6 -56 15 -106l-45 -10q-28 94 -57 144.5t-68 80.5
q-75 53 -256 53q-125 0 -224 -12q-8 -175 -8 -463v-59l271 4q46 2 64 30t24 113l4 56h61q0 -9 -1 -38.5t-1 -58.5q-1 -37 -2.5 -79t-1.5 -60t1.5 -60t2.5 -79q0 -29 1 -59.5t1 -39.5h-61l-4 56q-7 86 -25.5 114.5t-62.5 30.5l-271 4v-420q0 -80 71 -118.5t220 -38.5
q186 0 274 73q89 77 148 265zM328 1536l47 121h475q115 0 158 16l-47 -121h-476q-114 0 -157 -16z" />
    <glyph glyph-name="emacron" unicode="&#x113;" horiz-adv-x="942" 
d="M852 258l29 -18q-48 -118 -148 -189t-221 -71q-194 0 -317 126q-123 129 -123 334q0 203 131 346q68 74 155 115t177 41q145 0 237 -86q94 -82 94 -213q0 -31 -21 -50.5t-57 -19.5h-538q-1 -16 -2 -34t-1.5 -29t-0.5 -21q0 -157 96 -264q98 -104 240 -104q83 0 147 32
t123 105zM678 698q0 76 -46 122t-124 46q-88 0 -154 -61.5t-92 -169.5l371 8q45 0 45 55zM236 1167l47 119h372q112 0 158 17l-47 -119h-373q-111 0 -157 -17z" />
    <glyph glyph-name="Ebreve" unicode="&#x114;" horiz-adv-x="1261" 
d="M1147 410l53 -11q-17 -81 -37 -198q-24 -159 -28 -201q-203 2 -416 2q-72 2 -195 2q-115 0 -463 -4v63l89 7q66 3 81 30q17 31 17 144v835q0 101 -6 119q-6 28 -23 38.5t-69 14.5l-105 9v63h623q276 0 389 18l20 -254q6 -56 15 -106l-45 -10q-28 94 -57 144.5t-68 80.5
q-75 53 -256 53q-125 0 -224 -12q-8 -175 -8 -463v-59l271 4q46 2 64 30t24 113l4 56h61q0 -9 -1 -38.5t-1 -58.5q-1 -37 -2.5 -79t-1.5 -60t1.5 -60t2.5 -79q0 -29 1 -59.5t1 -39.5h-61l-4 56q-7 86 -25.5 114.5t-62.5 30.5l-271 4v-420q0 -80 71 -118.5t220 -38.5
q186 0 274 73q89 77 148 265zM647 1458q-131 0 -223 105q-92 106 -107 274l60 10q19 -125 87 -189.5t183 -64.5t183.5 64.5t87.5 189.5l59 -10q-15 -168 -107 -274q-92 -105 -223 -105z" />
    <glyph glyph-name="ebreve" unicode="&#x115;" horiz-adv-x="942" 
d="M852 258l29 -18q-48 -118 -148 -189t-221 -71q-194 0 -317 126q-123 129 -123 334q0 203 131 346q68 74 155 115t177 41q145 0 237 -86q94 -82 94 -213q0 -31 -21 -50.5t-57 -19.5h-538q-1 -16 -2 -34t-1.5 -29t-0.5 -21q0 -157 96 -264q98 -104 240 -104q83 0 147 32
t123 105zM678 698q0 76 -46 122t-124 46q-88 0 -154 -61.5t-92 -169.5l371 8q45 0 45 55zM516 1069q-124 0 -196 131t-72 352l59 11q7 -164 64 -261.5t145 -97.5t145 97.5t64 261.5l59 -11q0 -221 -72 -352t-196 -131z" />
    <glyph glyph-name="Edotaccent" unicode="&#x116;" horiz-adv-x="1261" 
d="M1147 410l53 -11q-17 -81 -37 -198q-24 -159 -28 -201q-203 2 -416 2q-72 2 -195 2q-115 0 -463 -4v63l89 7q66 3 81 30q17 31 17 144v835q0 101 -6 119q-6 28 -23 38.5t-69 14.5l-105 9v63h623q276 0 389 18l20 -254q6 -56 15 -106l-45 -10q-28 94 -57 144.5t-68 80.5
q-75 53 -256 53q-125 0 -224 -12q-8 -175 -8 -463v-59l271 4q46 2 64 30t24 113l4 56h61q0 -9 -1 -38.5t-1 -58.5q-1 -37 -2.5 -79t-1.5 -60t1.5 -60t2.5 -79q0 -29 1 -59.5t1 -39.5h-61l-4 56q-7 86 -25.5 114.5t-62.5 30.5l-271 4v-420q0 -80 71 -118.5t220 -38.5
q186 0 274 73q89 77 148 265zM668 1729q51 0 85.5 -35t34.5 -86t-34.5 -85t-85.5 -34t-85 34t-34 85t34 86t85 35z" />
    <glyph glyph-name="edotaccent" unicode="&#x117;" horiz-adv-x="942" 
d="M852 258l29 -18q-48 -118 -148 -189t-221 -71q-194 0 -317 126q-123 129 -123 334q0 203 131 346q68 74 155 115t177 41q145 0 237 -86q94 -82 94 -213q0 -31 -21 -50.5t-57 -19.5h-538q-1 -16 -2 -34t-1.5 -29t-0.5 -21q0 -157 96 -264q98 -104 240 -104q83 0 147 32
t123 105zM678 698q0 76 -46 122t-124 46q-88 0 -154 -61.5t-92 -169.5l371 8q45 0 45 55zM516 1401q51 0 86 -35t35 -86t-35 -85t-86 -34t-85 34t-34 85t34 86t85 35z" />
    <glyph glyph-name="Eogonek" unicode="&#x118;" horiz-adv-x="1261" 
d="M1014 -356l22 -47q-56 -43 -116 -72t-95 -29q-70 0 -112.5 42.5t-42.5 113.5q0 73 69 167.5t187 182.5q-51 2 -160 2h-242q-115 0 -463 -4v63l89 7q66 3 81 30q17 31 17 144v835q0 101 -6 119q-6 28 -23 38.5t-69 14.5l-105 9v63h623q276 0 389 18l20 -254q6 -56 15 -106
l-45 -10q-28 94 -57 144.5t-68 80.5q-75 53 -256 53q-125 0 -224 -12q-8 -175 -8 -463v-59l271 4q46 2 64 30t24 113l4 56h61q0 -9 -1 -38.5t-1 -58.5q-1 -37 -2.5 -79t-1.5 -60t1.5 -60t2.5 -79q0 -29 1 -59.5t1 -39.5h-61l-4 56q-7 86 -25.5 114.5t-62.5 30.5l-271 4v-420
q0 -80 71 -118.5t220 -38.5q186 0 274 73q89 77 148 265l53 -11q-17 -81 -37 -198q-24 -159 -28 -201q-107 0 -140 2q-79 -66 -131.5 -149.5t-52.5 -143.5q0 -106 86 -106q50 0 117 41z" />
    <glyph glyph-name="eogonek" unicode="&#x119;" horiz-adv-x="942" 
d="M678 -356l22 -47q-56 -43 -116 -72t-95 -29q-70 0 -112.5 42.5t-42.5 113.5q0 69 62 157.5t171 174.5l-55 -4q-194 0 -317 126q-123 129 -123 334q0 203 131 346q68 74 155 115t177 41q145 0 237 -86q94 -82 94 -213q0 -31 -21 -50.5t-57 -19.5h-538q-1 -16 -2 -34
t-1.5 -29t-0.5 -21q0 -157 96 -264q98 -104 240 -104q83 0 147 32t123 105l29 -18q-52 -126 -209 -234q-83 -58 -140 -141t-57 -156q0 -106 86 -106q50 0 117 41zM678 698q0 76 -46 122t-124 46q-88 0 -154 -61.5t-92 -169.5l371 8q45 0 45 55z" />
    <glyph glyph-name="Ecaron" unicode="&#x11a;" horiz-adv-x="1261" 
d="M1147 410l53 -11q-17 -81 -37 -198q-24 -159 -28 -201q-203 2 -416 2q-72 2 -195 2q-115 0 -463 -4v63l89 7q66 3 81 30q17 31 17 144v835q0 101 -6 119q-6 28 -23 38.5t-69 14.5l-105 9v63h623q276 0 389 18l20 -254q6 -56 15 -106l-45 -10q-28 94 -57 144.5t-68 80.5
q-75 53 -256 53q-125 0 -224 -12q-8 -175 -8 -463v-59l271 4q46 2 64 30t24 113l4 56h61q0 -9 -1 -38.5t-1 -58.5q-1 -37 -2.5 -79t-1.5 -60t1.5 -60t2.5 -79q0 -29 1 -59.5t1 -39.5h-61l-4 56q-7 86 -25.5 114.5t-62.5 30.5l-271 4v-420q0 -80 71 -118.5t220 -38.5
q186 0 274 73q89 77 148 265zM950 1839l58 -8l-271 -354q-36 -47 -69 -47q-34 0 -70 47l-270 354l57 8l283 -246z" />
    <glyph glyph-name="ecaron" unicode="&#x11b;" horiz-adv-x="942" 
d="M852 258l29 -18q-48 -118 -148 -189t-221 -71q-194 0 -317 126q-123 129 -123 334q0 203 131 346q68 74 155 115t177 41q145 0 237 -86q94 -82 94 -213q0 -31 -21 -50.5t-57 -19.5h-538q-1 -16 -2 -34t-1.5 -29t-0.5 -21q0 -157 96 -264q98 -104 240 -104q83 0 147 32
t123 105zM678 698q0 76 -46 122t-124 46q-88 0 -154 -61.5t-92 -169.5l371 8q45 0 45 55zM520 1055q-47 0 -69 49l-205 438l53 8l221 -315l221 315l54 -8l-205 -438q-22 -49 -70 -49z" />
    <glyph glyph-name="Gcircumflex" unicode="&#x11c;" horiz-adv-x="1474" 
d="M1241 350v-198l117 43l8 -52q-129 -76 -283 -119.5t-299 -43.5q-147 0 -276 45t-225 131q-211 186 -211 483q0 149 55.5 279t159.5 227q103 94 238.5 146t277.5 52q218 -3 405 -100l56 -336l-43 -16q-30 87 -57 137t-64 92q-120 135 -320 135q-106 0 -202.5 -44.5
t-165.5 -125.5q-136 -155 -136 -389q0 -275 160 -446q164 -170 414 -170q117 0 201 20v250q0 117 -17 144q-15 24 -82 30l-110 6v64q250 -4 282 -4q31 0 281 4v-64l-66 -6q-69 -6 -84 -30q-14 -22 -14 -144zM1124 1438l-57 -8l-283 245l-282 -245l-58 8l271 354q36 47 69 47
q34 0 70 -47z" />
    <glyph glyph-name="gcircumflex" unicode="&#x11d;" horiz-adv-x="1019" 
d="M999 -94q0 -91 -51.5 -171.5t-148.5 -140.5q-162 -98 -369 -98q-183 0 -288 64t-105 174q0 75 58 137t163 100q-69 19 -109 60.5t-40 95.5q0 65 52.5 126.5t133.5 94.5q-91 38 -143 111t-52 164q0 140 103 229q104 90 262 90q107 0 211 -55q43 7 186 35q94 18 109 18
q35 0 35 -66q0 -62 -23 -88q-91 29 -231 41q82 -88 82 -188q0 -142 -107 -233q-108 -91 -262 -91q-55 0 -133 19q-41 -20 -65.5 -51t-24.5 -62q0 -84 116 -84h435q86 0 146 -65t60 -166zM289 655q0 -126 50.5 -201t137.5 -75q80 0 122 58.5t42 168.5q0 124 -49.5 198.5
t-134.5 74.5q-79 0 -123.5 -59.5t-44.5 -164.5zM848 -176q0 143 -203 143h-352q-90 -50 -90 -160q0 -104 80 -162.5t221 -58.5q140 0 241 70q103 71 103 168zM508 1556q48 0 70 -49l204 -438l-53 -8l-221 315l-221 -315l-54 8l205 438q22 49 70 49z" />
    <glyph glyph-name="Gbreve" unicode="&#x11e;" horiz-adv-x="1474" 
d="M1241 350v-198l117 43l8 -52q-129 -76 -283 -119.5t-299 -43.5q-147 0 -276 45t-225 131q-211 186 -211 483q0 149 55.5 279t159.5 227q103 94 238.5 146t277.5 52q218 -3 405 -100l56 -336l-43 -16q-30 87 -57 137t-64 92q-120 135 -320 135q-106 0 -202.5 -44.5
t-165.5 -125.5q-136 -155 -136 -389q0 -275 160 -446q164 -170 414 -170q117 0 201 20v250q0 117 -17 144q-15 24 -82 30l-110 6v64q250 -4 282 -4q31 0 281 4v-64l-66 -6q-69 -6 -84 -30q-14 -22 -14 -144zM784 1458q-132 0 -223 105q-91 104 -106 274l59 10
q19 -125 87 -189.5t183 -64.5t183.5 64.5t87.5 189.5l59 -10q-15 -170 -106 -274q-92 -105 -224 -105z" />
    <glyph glyph-name="gbreve" unicode="&#x11f;" horiz-adv-x="1019" 
d="M999 -94q0 -91 -51.5 -171.5t-148.5 -140.5q-162 -98 -369 -98q-183 0 -288 64t-105 174q0 75 58 137t163 100q-69 19 -109 60.5t-40 95.5q0 65 52.5 126.5t133.5 94.5q-91 38 -143 111t-52 164q0 140 103 229q104 90 262 90q107 0 211 -55q43 7 186 35q94 18 109 18
q35 0 35 -66q0 -62 -23 -88q-91 29 -231 41q82 -88 82 -188q0 -142 -107 -233q-108 -91 -262 -91q-55 0 -133 19q-41 -20 -65.5 -51t-24.5 -62q0 -84 116 -84h435q86 0 146 -65t60 -166zM289 655q0 -126 50.5 -201t137.5 -75q80 0 122 58.5t42 168.5q0 124 -49.5 198.5
t-134.5 74.5q-79 0 -123.5 -59.5t-44.5 -164.5zM848 -176q0 143 -203 143h-352q-90 -50 -90 -160q0 -104 80 -162.5t221 -58.5q140 0 241 70q103 71 103 168zM508 1069q-124 0 -196 131t-72 352l59 11q7 -164 64 -261.5t145 -97.5t145 97.5t64 261.5l59 -11q0 -221 -72 -352
t-196 -131z" />
    <glyph glyph-name="Gdotaccent" unicode="&#x120;" horiz-adv-x="1474" 
d="M1241 350v-198l117 43l8 -52q-129 -76 -283 -119.5t-299 -43.5q-147 0 -276 45t-225 131q-211 186 -211 483q0 149 55.5 279t159.5 227q103 94 238.5 146t277.5 52q218 -3 405 -100l56 -336l-43 -16q-30 87 -57 137t-64 92q-120 135 -320 135q-106 0 -202.5 -44.5
t-165.5 -125.5q-136 -155 -136 -389q0 -275 160 -446q164 -170 414 -170q117 0 201 20v250q0 117 -17 144q-15 24 -82 30l-110 6v64q250 -4 282 -4q31 0 281 4v-64l-66 -6q-69 -6 -84 -30q-14 -22 -14 -144zM784 1729q51 0 86 -35t35 -86t-35 -85t-86 -34t-84.5 34t-33.5 85
t33.5 86t84.5 35z" />
    <glyph glyph-name="gdotaccent" unicode="&#x121;" horiz-adv-x="1019" 
d="M999 -94q0 -91 -51.5 -171.5t-148.5 -140.5q-162 -98 -369 -98q-183 0 -288 64t-105 174q0 75 58 137t163 100q-69 19 -109 60.5t-40 95.5q0 65 52.5 126.5t133.5 94.5q-91 38 -143 111t-52 164q0 140 103 229q104 90 262 90q107 0 211 -55q43 7 186 35q94 18 109 18
q35 0 35 -66q0 -62 -23 -88q-91 29 -231 41q82 -88 82 -188q0 -142 -107 -233q-108 -91 -262 -91q-55 0 -133 19q-41 -20 -65.5 -51t-24.5 -62q0 -84 116 -84h435q86 0 146 -65t60 -166zM289 655q0 -126 50.5 -201t137.5 -75q80 0 122 58.5t42 168.5q0 124 -49.5 198.5
t-134.5 74.5q-79 0 -123.5 -59.5t-44.5 -164.5zM848 -176q0 143 -203 143h-352q-90 -50 -90 -160q0 -104 80 -162.5t221 -58.5q140 0 241 70q103 71 103 168zM508 1401q51 0 86 -35t35 -86t-35 -85t-86 -34t-85 34t-34 85t34 86t85 35z" />
    <glyph glyph-name="Gcommaaccent" unicode="&#x122;" horiz-adv-x="1474" 
d="M1241 350v-198l117 43l8 -52q-129 -76 -283 -119.5t-299 -43.5q-147 0 -276 45t-225 131q-211 186 -211 483q0 149 55.5 279t159.5 227q103 94 238.5 146t277.5 52q218 -3 405 -100l56 -336l-43 -16q-30 87 -57 137t-64 92q-120 135 -320 135q-106 0 -202.5 -44.5
t-165.5 -125.5q-136 -155 -136 -389q0 -275 160 -446q164 -170 414 -170q117 0 201 20v250q0 117 -17 144q-15 24 -82 30l-110 6v64q250 -4 282 -4q31 0 281 4v-64l-66 -6q-69 -6 -84 -30q-14 -22 -14 -144zM702 -295q-16 22 -16 62q0 43 33 71.5t82 28.5q60 0 98.5 -43.5
t38.5 -112.5q0 -86 -65 -158t-171 -104l-28 53q65 23 101 54.5t36 64.5t-23.5 52t-85.5 32z" />
    <glyph glyph-name="gcommaaccent" unicode="&#x123;" horiz-adv-x="1019" 
d="M999 -94q0 -91 -51.5 -171.5t-148.5 -140.5q-162 -98 -369 -98q-183 0 -288 64t-105 174q0 75 58 137t163 100q-69 19 -109 60.5t-40 95.5q0 65 52.5 126.5t133.5 94.5q-91 38 -143 111t-52 164q0 140 103 229q104 90 262 90q107 0 211 -55q43 7 186 35q94 18 109 18
q35 0 35 -66q0 -62 -23 -88q-91 29 -231 41q82 -88 82 -188q0 -142 -107 -233q-108 -91 -262 -91q-55 0 -133 19q-41 -20 -65.5 -51t-24.5 -62q0 -84 116 -84h435q86 0 146 -65t60 -166zM289 655q0 -126 50.5 -201t137.5 -75q80 0 122 58.5t42 168.5q0 124 -49.5 198.5
t-134.5 74.5q-79 0 -123.5 -59.5t-44.5 -164.5zM848 -176q0 143 -203 143h-352q-90 -50 -90 -160q0 -104 80 -162.5t221 -58.5q140 0 241 70q103 71 103 168zM612 1262q17 -24 17 -62q0 -43 -33 -71.5t-82 -28.5q-60 0 -98.5 43t-38.5 112q0 86 64.5 158.5t170.5 104.5
l29 -54q-65 -23 -101 -54t-36 -64t23 -52t85 -32z" />
    <glyph glyph-name="Hcircumflex" unicode="&#x124;" horiz-adv-x="1609" 
d="M1460 70l88 -7v-63q-250 4 -280 4q-33 0 -283 -4v63l88 7q67 3 82 30q16 29 16 144v399q-39 2 -116 2q-39 2 -183 2h-135q-145 0 -184 -2q-76 0 -115 -2v-399q0 -117 15 -144t84 -30l88 -7v-63q-250 4 -281 4q-33 0 -283 -4v63l89 7q66 3 81 30q17 31 17 144v835
q0 111 -17 142q-16 29 -81 32l-89 7v63q250 -4 281 -4q33 0 283 4v-63l-88 -7q-68 -3 -84 -32q-15 -27 -15 -142v-358l115 -4h184h135h183l116 4v358q0 113 -16 142t-82 32l-88 7v63q250 -4 281 -4q32 0 282 4v-63l-88 -7q-68 -3 -84 -32q-14 -25 -14 -142v-835
q0 -119 14 -144q15 -27 84 -30zM1145 1438l-58 -8l-282 245l-283 -245l-57 8l270 354q36 47 70 47q33 0 69 -47z" />
    <glyph glyph-name="hcircumflex" unicode="&#x125;" horiz-adv-x="1110" 
d="M1032 66l49 -3v-63q-164 4 -221 4q-47 0 -223 -4v63l49 3q59 4 71.5 15.5t12.5 55.5v453q0 109 -53.5 165t-157.5 56q-103 0 -201 -59v-615q0 -44 12.5 -55.5t71.5 -15.5l50 -3v-63q-164 4 -222 4q-47 0 -223 -4v63l49 3q59 4 71.5 15.5t12.5 55.5v1163q0 47 -11.5 67.5
t-39.5 31.5l-84 35v24q191 56 301 109h21q-9 -138 -9 -582v-199q80 69 175 112.5t172 43.5q119 0 181 -73t62 -212v-520q0 -44 12.5 -55.5t71.5 -15.5zM909 1622l-57 -8l-283 246l-282 -246l-58 8l271 354q36 47 69 47q34 0 70 -47z" />
    <glyph glyph-name="Hbar" unicode="&#x126;" horiz-adv-x="1630" 
d="M1460 70l88 -7v-63q-250 4 -280 4q-33 0 -283 -4v63l88 7q67 3 82 30q16 29 16 144v338q-39 2 -116 2q-39 2 -183 2h-135q-145 0 -184 -2q-76 0 -115 -2v-338q0 -117 15 -144t84 -30l88 -7v-63q-250 4 -281 4q-33 0 -283 -4v63l89 7q66 3 81 30q17 31 17 144v659h-23
q-83 0 -153 -4l28 80h148v100q0 111 -17 142q-16 29 -81 32l-89 7v63q250 -4 281 -4q33 0 283 4v-63l-88 -7q-68 -3 -84 -32q-15 -27 -15 -142v-100h733v100q0 113 -16 142t-82 32l-88 7v63q250 -4 281 -4q32 0 282 4v-63l-88 -7q-68 -3 -84 -32q-14 -25 -14 -142v-100h43
q84 0 154 4l-29 -80h-168v-659q0 -119 14 -144q15 -27 84 -30zM553 655h184h135h183l116 4v244h-733v-244z" />
    <glyph glyph-name="hbar" unicode="&#x127;" horiz-adv-x="1110" 
d="M1032 66l49 -3v-63q-164 4 -221 4q-47 0 -223 -4v63l49 3q59 4 71.5 15.5t12.5 55.5v453q0 109 -53.5 165t-157.5 56q-103 0 -201 -59v-615q0 -44 12.5 -55.5t71.5 -15.5l50 -3v-63q-164 4 -222 4q-47 0 -223 -4v63l49 3q59 4 71.5 15.5t12.5 55.5v991q-69 0 -135 -4
l29 80h106v96q0 47 -11.5 67.5t-39.5 31.5l-84 35v24q191 56 301 109h21q-7 -189 -9 -363h189q83 0 153 4l-28 -80h-314v-342q80 69 175 112.5t172 43.5q119 0 181 -73t62 -212v-520q0 -44 12.5 -55.5t71.5 -15.5z" />
    <glyph glyph-name="Itilde" unicode="&#x128;" horiz-adv-x="686" 
d="M248 244v835q0 111 -17 142q-16 29 -81 32l-89 7v63q250 -4 281 -4q33 0 283 4v-63l-88 -7q-68 -3 -84 -32q-15 -27 -15 -142v-835q0 -117 15 -144t84 -30l88 -7v-63q-250 4 -281 4q-33 0 -283 -4v63l89 7q66 3 81 30q17 31 17 144zM477 1651q123 0 219 110l31 -16
q-39 -74 -92 -137q-58 -73 -98 -101q-82 17 -185 31q-122 16 -157 16q-48 0 -78 -15.5t-56 -55.5l-34 -51l-43 20l133 246q234 -47 360 -47z" />
    <glyph glyph-name="itilde" unicode="&#x129;" horiz-adv-x="540" 
d="M449 66l49 -3v-63q-164 4 -222 4q-47 0 -223 -4v63l49 3q59 4 71.5 15.5t12.5 55.5v525q0 43 -10.5 61.5t-40.5 36.5l-65 41v26q131 40 284 125h21q-10 -156 -10 -561v-254q0 -44 12.5 -55.5t71.5 -15.5zM408 1300q99 0 198 111l31 -16q-41 -76 -92 -138
q-55 -69 -99 -100q-52 13 -155 29q-98 16 -125 16q-48 0 -77.5 -15.5t-55.5 -56.5l-35 -51l-43 21l133 246q215 -46 320 -46z" />
    <glyph glyph-name="Imacron" unicode="&#x12a;" horiz-adv-x="686" 
d="M248 244v835q0 111 -17 142q-16 29 -81 32l-89 7v63q250 -4 281 -4q33 0 283 4v-63l-88 -7q-68 -3 -84 -32q-15 -27 -15 -142v-835q0 -117 15 -144t84 -30l88 -7v-63q-250 4 -281 4q-33 0 -283 -4v63l89 7q66 3 81 30q17 31 17 144zM2 1536l47 121h475q115 0 158 16
l-47 -121h-475q-115 0 -158 -16z" />
    <glyph glyph-name="imacron" unicode="&#x12b;" horiz-adv-x="540" 
d="M6 1167l47 119h332q112 0 158 17l-47 -119h-332q-112 0 -158 -17zM449 66l49 -3v-63q-164 4 -222 4q-47 0 -223 -4v63l49 3q59 4 71.5 15.5t12.5 55.5v525q0 43 -10.5 61.5t-40.5 36.5l-65 41v26q131 40 284 125h21q-10 -156 -10 -561v-254q0 -44 12.5 -55.5t71.5 -15.5z
" />
    <glyph glyph-name="Ibreve" unicode="&#x12c;" horiz-adv-x="686" 
d="M248 244v835q0 111 -17 142q-16 29 -81 32l-89 7v63q250 -4 281 -4q33 0 283 4v-63l-88 -7q-68 -3 -84 -32q-15 -27 -15 -142v-835q0 -117 15 -144t84 -30l88 -7v-63q-250 4 -281 4q-33 0 -283 -4v63l89 7q66 3 81 30q17 31 17 144zM342 1458q-132 0 -223 105
q-92 106 -107 274l60 10q19 -125 87 -189.5t183 -64.5t183 64.5t87 189.5l60 -10q-15 -168 -107 -274q-91 -105 -223 -105z" />
    <glyph glyph-name="ibreve" unicode="&#x12d;" horiz-adv-x="540" 
d="M449 66l49 -3v-63q-164 4 -222 4q-47 0 -223 -4v63l49 3q59 4 71.5 15.5t12.5 55.5v525q0 43 -10.5 61.5t-40.5 36.5l-65 41v26q131 40 284 125h21q-10 -156 -10 -561v-254q0 -44 12.5 -55.5t71.5 -15.5zM274 1069q-124 0 -196 131t-72 352l60 11q8 -164 64 -261.5
t144 -97.5t145 97.5t64 261.5l60 -11q0 -221 -72.5 -352t-196.5 -131z" />
    <glyph glyph-name="Iogonek" unicode="&#x12e;" horiz-adv-x="686" 
d="M489 -356l23 -47q-56 -43 -116 -72t-95 -29q-70 0 -113 42.5t-43 113.5q0 73 71.5 168t189.5 184h-62q-33 0 -283 -4v63l89 7q66 3 81 30q17 31 17 144v835q0 111 -17 142q-16 29 -81 32l-89 7v63q250 -4 281 -4q33 0 283 4v-63l-88 -7q-68 -3 -84 -32q-15 -27 -15 -142
v-835q0 -117 15 -144t84 -30l88 -7v-63q-33 2 -152 2q-80 -68 -133 -151t-53 -142q0 -106 86 -106q49 0 116 41z" />
    <glyph glyph-name="iogonek" unicode="&#x12f;" horiz-adv-x="540" 
d="M399 1280q0 -51 -34.5 -85t-85.5 -34t-85 34t-34 85t34 86t85 35t85.5 -35t34.5 -86zM438 -356l23 -47q-56 -43 -116 -72t-95 -29q-70 0 -113 42.5t-43 113.5q0 73 70.5 169.5t187.5 182.5h-76q-47 0 -223 -4v63l49 3q59 4 71.5 15.5t12.5 55.5v525q0 43 -10.5 61.5
t-40.5 36.5l-65 41v26q131 40 284 125h21q-10 -156 -10 -561v-254q0 -44 12.5 -55.5t71.5 -15.5l49 -3v-63h-35q-23 2 -43 2q-79 -66 -131.5 -149.5t-52.5 -143.5q0 -106 86 -106q49 0 116 41z" />
    <glyph glyph-name="Idot" unicode="&#x130;" horiz-adv-x="686" 
d="M248 244v835q0 111 -17 142q-16 29 -81 32l-89 7v63q250 -4 281 -4q33 0 283 4v-63l-88 -7q-68 -3 -84 -32q-15 -27 -15 -142v-835q0 -117 15 -144t84 -30l88 -7v-63q-250 4 -281 4q-33 0 -283 -4v63l89 7q66 3 81 30q17 31 17 144zM342 1729q51 0 86 -35t35 -86t-35 -85
t-86 -34t-85 34t-34 85t34 86t85 35z" />
    <glyph glyph-name="dotlessi" unicode="&#x131;" horiz-adv-x="540" 
d="M449 66l49 -3v-63q-164 4 -222 4q-47 0 -223 -4v63l49 3q59 4 71.5 15.5t12.5 55.5v525q0 43 -10.5 61.5t-40.5 36.5l-65 41v26q131 40 284 125h21q-10 -156 -10 -561v-254q0 -44 12.5 -55.5t71.5 -15.5z" />
    <glyph glyph-name="Jcircumflex" unicode="&#x134;" horiz-adv-x="651" 
d="M420 1079l2 -985q0 -153 -99.5 -275.5t-291.5 -207.5l-21 39q118 75 168 205q51 122 51 362v862q0 113 -16 142t-82 32l-88 7v63q250 -4 281 -4q32 0 282 4v-63l-88 -7q-68 -3 -84 -32q-14 -25 -14 -142zM666 1438l-58 -8l-282 245l-283 -245l-57 8l270 354q36 47 70 47
q33 0 69 -47z" />
    <glyph glyph-name="jcircumflex" unicode="&#x135;" horiz-adv-x="512" 
d="M354 391v-452q0 -147 -92 -261.5t-264 -177.5l-18 33q118 81 157 180q39 91 39 328v621q0 43 -10.5 61.5t-40.5 36.5l-66 41v26q133 41 285 125h21q-11 -172 -11 -561zM260 1556q48 0 70 -49l205 -438l-54 -8l-221 315l-221 -315l-53 8l204 438q22 49 70 49z" />
    <glyph glyph-name="Kcommaaccent" unicode="&#x136;" horiz-adv-x="1411" 
d="M1329 70l103 -7v-63l-124 2t-97.5 1.5t-65.5 0.5q-64 0 -101 -2q-106 0 -210 -2v63l110 5q31 3 31 22q0 14 -12 29l-404 461q-43 49 -66.5 66.5t-54.5 23.5v-426q0 -117 15 -144t84 -30l88 -7v-63q-250 4 -281 4q-33 0 -283 -4v63l89 7q66 3 81 30q17 31 17 144v835
q0 111 -17 142q-16 29 -81 32l-89 7v63q250 -4 281 -4q33 0 283 4v-63l-88 -7q-68 -3 -84 -32q-15 -27 -15 -142v-364q35 1 54 8.5t36 24.5l418 391q58 58 58 84q0 27 -50 30l-94 7v63q29 -1 65.5 -1.5t58.5 -1t36 -1.5h90q30 0 107 1.5t141 2.5v-63l-58 -3q-52 -3 -96 -24
q-42 -22 -135 -103l-424 -380l557 -607q36 -41 63.5 -56t63.5 -17zM592 -295q-17 24 -17 62q0 43 33 71.5t82 28.5q60 0 98.5 -43.5t38.5 -112.5q0 -86 -64.5 -158t-170.5 -104l-29 53q65 23 101 54.5t36 64.5t-23 52t-85 32z" />
    <glyph glyph-name="kcommaaccent" unicode="&#x137;" horiz-adv-x="1122" 
d="M1059 68l55 -5v-63q-250 4 -260 4q-69 0 -221 -4v63l80 5q32 3 32 22q0 15 -14 29l-225 276q-56 70 -148 105v-363q0 -44 12.5 -55.5t71.5 -15.5l50 -3v-63q-164 4 -222 4q-47 0 -223 -4v63l49 3q59 4 71.5 15.5t12.5 55.5v1163q0 47 -11.5 67.5t-39.5 31.5l-84 35v24
q191 56 301 109h21q-9 -138 -9 -582v-455q97 0 160 54l240 213q20 17 20 32q0 16 -22 19l-113 12v62q56 -1 123.5 -2.5t93.5 -1.5q7 0 203 4v-62l-64 -4q-27 -2 -46.5 -10.5t-51.5 -34.5l-328 -264l359 -404q33 -39 59.5 -55t67.5 -20zM477 -295q-16 22 -16 62
q0 43 32.5 71.5t81.5 28.5q60 0 99 -43.5t39 -112.5q0 -86 -65 -158t-171 -104l-28 53q65 23 101 54.5t36 64.5t-23.5 52t-85.5 32z" />
    <glyph glyph-name="kgreenlandic" unicode="&#x138;" horiz-adv-x="1122" 
d="M1059 68l55 -5v-63q-168 4 -260 4q-107 0 -221 -4v63l80 5q27 2 31.5 15t-13.5 36l-225 276q-63 76 -141 101v-105v-254q0 -44 12.5 -55.5t71.5 -15.5l49 -3v-63q-126 4 -222 4q-97 0 -223 -4v63l49 3q59 4 71.5 15.5t12.5 55.5v525q0 43 -10.5 61.5t-40.5 36.5l-65 41
v26q131 40 284 125h21q-7 -97 -10 -422q93 0 153 54l246 217q11 12 14 22.5t-3 17t-19 7.5l-113 12v62q227 -3 420 0v-62l-64 -4q-27 -2 -46.5 -10.5t-51.5 -34.5l-328 -264l359 -404q33 -39 59.5 -55t67.5 -20z" />
    <glyph glyph-name="Lacute" unicode="&#x139;" horiz-adv-x="1200" 
d="M520 4q-115 0 -459 -4v63l89 7q66 3 81 30q17 31 17 144v835q0 111 -17 142q-16 29 -81 32l-89 7v63q250 -4 281 -4q33 0 283 4v-63l-88 -7q-68 -3 -84 -32q-15 -27 -15 -142v-878q0 -57 74.5 -93t192.5 -36q153 0 243 78q88 79 164 278l57 -10q-25 -100 -51 -230
q-30 -152 -35 -188q-158 2 -354 2q-76 2 -209 2zM672 1831q25 0 54 -20.5t54 -55.5l-395 -325l-43 22l236 322q26 34 45 45.5t49 11.5z" />
    <glyph glyph-name="lacute" unicode="&#x13a;" horiz-adv-x="534" 
d="M442 66l50 -3v-63q-164 4 -222 4q-47 0 -223 -4v63l49 3q59 4 71.5 15.5t12.5 55.5v1163q0 47 -11.5 67.5t-39.5 31.5l-84 35v24q191 56 301 109h21q-9 -138 -9 -582v-848q0 -44 12.5 -55.5t71.5 -15.5zM438 1995q25 0 54.5 -20.5t54.5 -55.5l-395 -326l-43 23l235 321
q26 35 45 46.5t49 11.5z" />
    <glyph glyph-name="Lcommaaccent" unicode="&#x13b;" horiz-adv-x="1200" 
d="M520 4q-115 0 -459 -4v63l89 7q66 3 81 30q17 31 17 144v835q0 111 -17 142q-16 29 -81 32l-89 7v63q250 -4 281 -4q33 0 283 4v-63l-88 -7q-68 -3 -84 -32q-15 -27 -15 -142v-878q0 -57 74.5 -93t192.5 -36q153 0 243 78q88 79 164 278l57 -10q-25 -100 -51 -230
q-30 -152 -35 -188q-158 2 -354 2q-76 2 -209 2zM543 -295q-17 24 -17 62q0 43 33 71.5t82 28.5q60 0 98.5 -43.5t38.5 -112.5q0 -86 -64.5 -158t-170.5 -104l-29 53q65 23 101 54.5t36 64.5t-23 52t-85 32z" />
    <glyph glyph-name="lcommaaccent" unicode="&#x13c;" horiz-adv-x="534" 
d="M442 66l50 -3v-63q-164 4 -222 4q-47 0 -223 -4v63l49 3q59 4 71.5 15.5t12.5 55.5v1163q0 47 -11.5 67.5t-39.5 31.5l-84 35v24q191 56 301 109h21q-9 -138 -9 -582v-848q0 -44 12.5 -55.5t71.5 -15.5zM166 -295q-16 22 -16 62q0 43 32.5 71.5t81.5 28.5
q60 0 98.5 -43.5t38.5 -112.5q0 -86 -64.5 -158t-170.5 -104l-29 53q65 23 101 54.5t36 64.5t-23 52t-85 32z" />
    <glyph glyph-name="Lcaron" unicode="&#x13d;" horiz-adv-x="1200" 
d="M520 4q-115 0 -459 -4v63l89 7q66 3 81 30q17 31 17 144v835q0 111 -17 142q-16 29 -81 32l-89 7v63q250 -4 281 -4q33 0 283 4v-63l-88 -7q-68 -3 -84 -32q-15 -27 -15 -142v-878q0 -57 74.5 -93t192.5 -36q153 0 243 78q88 79 164 278l57 -10q-25 -100 -51 -230
q-30 -152 -35 -188q-158 2 -354 2q-76 2 -209 2zM813 836l-41 10l59 424q9 61 72 61q59 0 98 -51z" />
    <glyph glyph-name="lcaron" unicode="&#x13e;" horiz-adv-x="784" 
d="M442 66l50 -3v-63q-164 4 -222 4q-47 0 -223 -4v63l49 3q59 4 71.5 15.5t12.5 55.5v1163q0 47 -11.5 67.5t-39.5 31.5l-84 35v24q191 56 301 109h21q-9 -138 -9 -582v-848q0 -44 12.5 -55.5t71.5 -15.5zM596 1061l-41 10l59 424q9 61 72 61q59 0 98 -51z" />
    <glyph glyph-name="Ldot" unicode="&#x13f;" horiz-adv-x="1200" 
d="M520 4q-115 0 -459 -4v63l89 7q66 3 81 30q17 31 17 144v835q0 111 -17 142q-16 29 -81 32l-89 7v63q250 -4 281 -4q33 0 283 4v-63l-88 -7q-68 -3 -84 -32q-15 -27 -15 -142v-878q0 -57 74.5 -93t192.5 -36q153 0 243 78q88 79 164 278l57 -10q-25 -100 -51 -230
q-30 -152 -35 -188q-158 2 -354 2q-76 2 -209 2zM1016 889q51 0 86 -35t35 -86t-35 -85t-86 -34t-85 34t-34 85t34 86t85 35z" />
    <glyph glyph-name="ldot" unicode="&#x140;" horiz-adv-x="821" 
d="M442 66l50 -3v-63q-164 4 -222 4q-47 0 -223 -4v63l49 3q59 4 71.5 15.5t12.5 55.5v1163q0 47 -11.5 67.5t-39.5 31.5l-84 35v24q191 56 301 109h21q-9 -138 -9 -582v-848q0 -44 12.5 -55.5t71.5 -15.5zM670 811q51 0 86 -35t35 -86t-35 -85t-86 -34t-85 34t-34 85t34 86
t85 35z" />
    <glyph glyph-name="Lslash" unicode="&#x141;" horiz-adv-x="1210" 
d="M1122 428l58 -10q-30 -120 -52 -230q-28 -138 -34 -188q-158 2 -355 2q-76 2 -209 2q-114 0 -458 -4v63l88 7q67 3 82 30q16 29 16 144v256l-186 -115l12 94l174 107v493q0 113 -16 142t-82 32l-88 7v63q250 -4 280 -4q33 0 283 4v-63l-88 -7q-68 -3 -84 -32
q-14 -25 -14 -142v-391l323 199l-12 -94l-311 -191v-401q0 -57 74 -93t192 -36q153 0 243 78q88 79 164 278z" />
    <glyph glyph-name="lslash" unicode="&#x142;" horiz-adv-x="729" 
d="M537 66l49 -3v-63q-164 4 -221 4q-48 0 -224 -4v63l49 3q59 4 71.5 15.5t12.5 55.5v443l-208 -154l12 109l196 145v620q0 47 -11.5 67.5t-39.5 31.5l-84 35v24q191 56 301 109h21q-8 -123 -8 -582v-186l211 157l-13 -108l-198 -148v-563q0 -44 12.5 -55.5t71.5 -15.5z
" />
    <glyph glyph-name="Nacute" unicode="&#x143;" horiz-adv-x="1507" 
d="M1288 887v-910h-18l-928 1065l2 -608q0 -168 4 -254q3 -63 17 -84q19 -22 79 -24l123 -9v-63q-67 1 -144.5 2.5t-107.5 1.5t-108.5 -1.5t-145.5 -2.5v63l86 7q41 5 57 10t23 16q14 21 17 84q4 86 4 256v711q-62 63 -105 91.5t-102 41.5v43q164 -4 168 -4q16 0 160 4
q249 -304 426 -516q214 -255 397 -465l-2 545q-3 236 -6 280q-3 43 -13 60q-19 22 -79 24l-123 9v63q67 -1 145.5 -2.5t108.5 -1.5t107.5 1.5t144.5 2.5v-63l-86 -7q-41 -5 -57 -10t-23 -16q-14 -21 -17 -84q-4 -86 -4 -256zM952 1831q25 0 54.5 -20.5t54.5 -55.5l-395 -325
l-43 22l235 322q26 34 45 45.5t49 11.5z" />
    <glyph glyph-name="nacute" unicode="&#x144;" horiz-adv-x="1116" 
d="M1038 66l49 -3v-63q-164 4 -221 4q-47 0 -223 -4v63l49 3q59 4 71.5 15.5t12.5 55.5v453q0 109 -53.5 165t-157.5 56t-200 -57v-617q0 -44 12.5 -55.5t71.5 -15.5l49 -3v-63q-164 4 -222 4q-47 0 -223 -4v63l49 3q59 4 71.5 15.5t12.5 55.5v525q0 43 -10.5 61.5
t-40.5 36.5l-65 41v26q131 40 284 125h21l-10 -161q78 66 174.5 108.5t171.5 42.5q119 0 181 -73t62 -212v-520q0 -44 12.5 -55.5t71.5 -15.5zM672 1556q29 0 57.5 -15.5t46.5 -39.5l-276 -440l-49 12l143 422q21 61 78 61z" />
    <glyph glyph-name="Ncommaaccent" unicode="&#x145;" horiz-adv-x="1507" 
d="M1288 887v-910h-18l-928 1065l2 -608q0 -168 4 -254q3 -63 17 -84q19 -22 79 -24l123 -9v-63q-67 1 -144.5 2.5t-107.5 1.5t-108.5 -1.5t-145.5 -2.5v63l86 7q41 5 57 10t23 16q14 21 17 84q4 86 4 256v711q-62 63 -105 91.5t-102 41.5v43q164 -4 168 -4q16 0 160 4
q249 -304 426 -516q214 -255 397 -465l-2 545q-3 236 -6 280q-3 43 -13 60q-19 22 -79 24l-123 9v63q67 -1 145.5 -2.5t108.5 -1.5t107.5 1.5t144.5 2.5v-63l-86 -7q-41 -5 -57 -10t-23 -16q-14 -21 -17 -84q-4 -86 -4 -256zM680 -295q-16 22 -16 62q0 43 32.5 71.5
t81.5 28.5q60 0 98.5 -43.5t38.5 -112.5q0 -86 -64.5 -158t-170.5 -104l-29 53q65 23 101 54.5t36 64.5t-23 52t-85 32z" />
    <glyph glyph-name="ncommaaccent" unicode="&#x146;" horiz-adv-x="1116" 
d="M1038 66l49 -3v-63q-164 4 -221 4q-47 0 -223 -4v63l49 3q59 4 71.5 15.5t12.5 55.5v453q0 109 -53.5 165t-157.5 56t-200 -57v-617q0 -44 12.5 -55.5t71.5 -15.5l49 -3v-63q-164 4 -222 4q-47 0 -223 -4v63l49 3q59 4 71.5 15.5t12.5 55.5v525q0 43 -10.5 61.5
t-40.5 36.5l-65 41v26q131 40 284 125h21l-10 -161q78 66 174.5 108.5t171.5 42.5q119 0 181 -73t62 -212v-520q0 -44 12.5 -55.5t71.5 -15.5zM473 -295q-16 22 -16 62q0 43 32.5 71.5t81.5 28.5q60 0 99 -43.5t39 -112.5q0 -86 -65 -158t-171 -104l-29 53q65 23 101.5 54.5
t36.5 64.5t-23.5 52t-85.5 32z" />
    <glyph glyph-name="Ncaron" unicode="&#x147;" horiz-adv-x="1507" 
d="M1288 887v-910h-18l-928 1065l2 -608q0 -168 4 -254q3 -63 17 -84q19 -22 79 -24l123 -9v-63q-67 1 -144.5 2.5t-107.5 1.5t-108.5 -1.5t-145.5 -2.5v63l86 7q41 5 57 10t23 16q14 21 17 84q4 86 4 256v711q-62 63 -105 91.5t-102 41.5v43q164 -4 168 -4q16 0 160 4
q249 -304 426 -516q214 -255 397 -465l-2 545q-3 236 -6 280q-3 43 -13 60q-19 22 -79 24l-123 9v63q67 -1 145.5 -2.5t108.5 -1.5t107.5 1.5t144.5 2.5v-63l-86 -7q-41 -5 -57 -10t-23 -16q-14 -21 -17 -84q-4 -86 -4 -256zM1065 1839l57 -8l-270 -354q-36 -47 -70 -47
q-33 0 -69 47l-271 354l58 8l282 -246z" />
    <glyph glyph-name="ncaron" unicode="&#x148;" horiz-adv-x="1116" 
d="M1038 66l49 -3v-63q-164 4 -221 4q-47 0 -223 -4v63l49 3q59 4 71.5 15.5t12.5 55.5v453q0 109 -53.5 165t-157.5 56t-200 -57v-617q0 -44 12.5 -55.5t71.5 -15.5l49 -3v-63q-164 4 -222 4q-47 0 -223 -4v63l49 3q59 4 71.5 15.5t12.5 55.5v525q0 43 -10.5 61.5
t-40.5 36.5l-65 41v26q131 40 284 125h21l-10 -161q78 66 174.5 108.5t171.5 42.5q119 0 181 -73t62 -212v-520q0 -44 12.5 -55.5t71.5 -15.5zM557 1055q-48 0 -70 49l-204 438l53 8l221 -315l221 315l53 -8l-204 -438q-22 -49 -70 -49z" />
    <glyph glyph-name="Eng" unicode="&#x14a;" horiz-adv-x="1507" 
d="M932 -500l-19 33q96 66 143 115t74 108q59 121 62 310l-850 976l2 -608q0 -168 4 -254q3 -63 17 -84q19 -22 79 -24l123 -9v-63q-67 1 -144.5 2.5t-107.5 1.5t-108.5 -1.5t-145.5 -2.5v63l86 7q41 5 57 10t23 16q14 21 17 84q4 86 4 256v711q-62 63 -105 91.5t-102 41.5
v43q164 -4 168 -4q16 0 160 4q249 -304 426 -516q214 -255 397 -465l-2 545q-3 236 -6 280q-3 43 -13 60q-19 22 -79 24l-123 9v63q67 -1 145.5 -2.5t108.5 -1.5t107.5 1.5t144.5 2.5v-63l-86 -7q-41 -5 -57 -10t-23 -16q-14 -21 -17 -84q-4 -86 -4 -256v-950
q0 -138 -94.5 -257.5t-261.5 -179.5z" />
    <glyph glyph-name="eng" unicode="&#x14b;" horiz-adv-x="1110" 
d="M598 -500l-18 33q118 81 157 180q39 91 39 328v549q0 221 -203 221q-112 0 -208 -57v-617q0 -44 12.5 -55.5t71.5 -15.5l49 -3v-63q-164 4 -222 4q-47 0 -223 -4v63l49 3q59 4 71.5 15.5t12.5 55.5v525q0 43 -10.5 61.5t-40.5 36.5l-65 41v26q131 40 284 125h21l-10 -161
q82 69 175.5 110t172.5 41q116 0 178.5 -74.5t62.5 -210.5v-718q0 -147 -92 -261.5t-264 -177.5z" />
    <glyph glyph-name="Omacron" unicode="&#x14c;" horiz-adv-x="1519" 
d="M274 1143q98 96 224.5 148t261.5 52t261 -51t224 -145q98 -97 150.5 -221t52.5 -260q0 -137 -52.5 -262.5t-150.5 -223.5q-98 -97 -224 -148.5t-261 -51.5t-261.5 51t-224.5 145q-98 97 -150 220.5t-52 260.5t52 262.5t150 223.5zM287 668q0 -255 133 -426
q134 -168 340 -168t338 164q135 164 135 417q0 255 -135 424q-132 170 -338 170q-205 0 -340 -164q-133 -165 -133 -417zM420 1536l47 121h475q115 0 158 16l-47 -121h-475q-115 0 -158 -16z" />
    <glyph glyph-name="omacron" unicode="&#x14d;" horiz-adv-x="1081" 
d="M877 123q-137 -143 -336 -143q-94 0 -181 36t-153 103q-135 135 -135 338q0 206 133 342q137 143 336 143q94 0 180.5 -36t152.5 -103q136 -136 136 -338q0 -206 -133 -342zM815 453q0 182 -76 295q-77 114 -198 114q-123 0 -199 -108t-76 -285q0 -184 76 -297t199 -113
t198.5 108.5t75.5 285.5zM252 1167l47 119h373q111 0 157 17l-47 -119h-372q-112 0 -158 -17z" />
    <glyph glyph-name="Obreve" unicode="&#x14e;" horiz-adv-x="1519" 
d="M274 1143q98 96 224.5 148t261.5 52t261 -51t224 -145q98 -97 150.5 -221t52.5 -260q0 -137 -52.5 -262.5t-150.5 -223.5q-98 -97 -224 -148.5t-261 -51.5t-261.5 51t-224.5 145q-98 97 -150 220.5t-52 260.5t52 262.5t150 223.5zM287 668q0 -255 133 -426
q134 -168 340 -168t338 164q135 164 135 417q0 255 -135 424q-132 170 -338 170q-205 0 -340 -164q-133 -165 -133 -417zM760 1458q-132 0 -223 105q-92 106 -107 274l59 10q19 -125 87.5 -189.5t183.5 -64.5t183 64.5t87 189.5l60 -10q-15 -168 -107 -274
q-92 -105 -223 -105z" />
    <glyph glyph-name="obreve" unicode="&#x14f;" horiz-adv-x="1081" 
d="M877 123q-137 -143 -336 -143q-94 0 -181 36t-153 103q-135 135 -135 338q0 206 133 342q137 143 336 143q94 0 180.5 -36t152.5 -103q136 -136 136 -338q0 -206 -133 -342zM815 453q0 182 -76 295q-77 114 -198 114q-123 0 -199 -108t-76 -285q0 -184 76 -297t199 -113
t198.5 108.5t75.5 285.5zM541 1069q-124 0 -196.5 131t-72.5 352l60 11q7 -164 64 -261.5t145 -97.5t145 97.5t64 261.5l59 -11q0 -221 -72 -352t-196 -131z" />
    <glyph glyph-name="Ohungarumlaut" unicode="&#x150;" horiz-adv-x="1519" 
d="M274 1143q98 96 224.5 148t261.5 52t261 -51t224 -145q98 -97 150.5 -221t52.5 -260q0 -137 -52.5 -262.5t-150.5 -223.5q-98 -97 -224 -148.5t-261 -51.5t-261.5 51t-224.5 145q-98 97 -150 220.5t-52 260.5t52 262.5t150 223.5zM287 668q0 -255 133 -426
q134 -168 340 -168t338 164q135 164 135 417q0 255 -135 424q-132 170 -338 170q-205 0 -340 -164q-133 -165 -133 -417zM934 1767l-359 -337l-43 22l193 317q20 34 42 48t54 14q29 0 64.5 -19.5t48.5 -44.5zM1282 1767l-358 -337l-43 22l192 317q20 34 42 48t54 14
q29 0 64.5 -19.5t48.5 -44.5z" />
    <glyph glyph-name="ohungarumlaut" unicode="&#x151;" horiz-adv-x="1081" 
d="M877 123q-137 -143 -336 -143q-94 0 -181 36t-153 103q-135 135 -135 338q0 206 133 342q137 143 336 143q94 0 180.5 -36t152.5 -103q136 -136 136 -338q0 -206 -133 -342zM815 453q0 182 -76 295q-77 114 -198 114q-123 0 -199 -108t-76 -285q0 -184 76 -297t199 -113
t198.5 108.5t75.5 285.5zM389 1061l-49 12l143 422q21 61 78 61q29 0 58 -15.5t47 -39.5zM676 1061l-49 12l143 422q21 61 78 61q29 0 57.5 -15.5t46.5 -39.5z" />
    <glyph glyph-name="OE" unicode="&#x152;" horiz-adv-x="2050" 
d="M1935 410l54 -11q-17 -81 -37 -198q-27 -181 -29 -201q-63 2 -201 2q-68 2 -282 2q-113 0 -172 -2h-236q-121 -2 -201 -2q-355 0 -571 174q-215 176 -215 465q0 154 57 284t166 222q212 178 533 178h655q276 0 389 18l21 -254q8 -73 14 -106l-45 -10q-28 94 -57 144.5
t-68 80.5q-75 53 -256 53q-124 0 -223 -12q-8 -175 -8 -463v-59l270 4q46 2 64 30t24 113l4 56h62q-1 -38 -2 -76.5t-2 -61.5t-1 -32v-66v-64q0 -9 1 -32t2 -62.5t2 -79.5h-62l-4 56q-7 86 -25.5 114.5t-62.5 30.5l-270 4v-405q0 -57 22.5 -92t73.5 -54q67 -26 194 -26
q187 0 275 73q88 76 147 265zM1036 96v1020q0 60 -67.5 95.5t-184.5 35.5q-232 0 -376 -164q-144 -163 -144 -419q0 -281 148.5 -430.5t425.5 -149.5q110 0 198 12z" />
    <glyph glyph-name="oe" unicode="&#x153;" horiz-adv-x="1691" 
d="M1602 258l28 -18q-48 -118 -147.5 -189t-220.5 -71q-234 0 -357 215q-142 -215 -364 -215q-94 0 -181 36t-153 103q-135 135 -135 338q0 206 133 342q137 143 336 143q238 0 381 -235q143 235 362 235q146 0 238 -86q94 -82 94 -213q0 -31 -21 -50.5t-57 -19.5h-539
q-1 -16 -2 -34t-1.5 -29t-0.5 -21q0 -156 97 -264q98 -104 239 -104q83 0 147.5 32t123.5 105zM266 469q0 -184 76 -297t199 -113t198.5 108.5t75.5 285.5q0 182 -76 295q-77 114 -198 114q-123 0 -199 -108t-76 -285zM1427 698q0 76 -46.5 122t-123.5 46
q-88 0 -153.5 -61.5t-91.5 -169.5l370 8q45 0 45 55z" />
    <glyph glyph-name="Racute" unicode="&#x154;" horiz-adv-x="1396" 
d="M1407 47v-47q-112 -14 -197 -14q-197 0 -329 209q-90 149 -213 438l-230 4v-393q0 -117 15 -144t84 -30l88 -7v-63q-250 4 -281 4q-33 0 -283 -4v63l89 7q66 3 81 30q17 31 17 144v835q0 101 -6 119q-6 28 -23 38.5t-69 14.5l-105 9v63q25 -2 117 -2q22 0 49.5 0.5
t77.5 1.5t102 2q71 0 135 1t76 1q541 0 541 -338q0 -112 -83 -194t-243 -129q149 -258 295 -449q72 -93 135 -129t160 -41zM446 1247l-6 -198q-2 -61 -2 -236v-117l254 4q95 3 166 80q74 80 74 197q0 133 -88 204.5t-252 71.5q-83 0 -146 -6zM799 1831q25 0 54 -20.5
t54 -55.5l-395 -325l-43 22l236 322q26 34 45 45.5t49 11.5z" />
    <glyph glyph-name="racute" unicode="&#x155;" horiz-adv-x="811" 
d="M453 70l100 -7v-63q-58 1 -117.5 2t-93 1.5t-61.5 0.5q-48 0 -228 -4v63l49 3q59 4 71.5 15.5t12.5 55.5v525q0 43 -10.5 61.5t-40.5 36.5l-65 41v26q131 40 284 125h21q-10 -222 -10 -245q188 235 303 235q51 0 82.5 -31.5t31.5 -81.5q0 -49 -28 -77.5t-72 -28.5
q-29 0 -68 27q-38 22 -55 22q-31 0 -96 -41q-61 -38 -98 -82v-499q0 -44 16.5 -60t71.5 -20zM588 1556q29 0 57.5 -15.5t46.5 -39.5l-276 -440l-49 12l143 422q21 61 78 61z" />
    <glyph glyph-name="Rcommaaccent" unicode="&#x156;" horiz-adv-x="1396" 
d="M1407 47v-47q-112 -14 -197 -14q-197 0 -329 209q-90 149 -213 438l-230 4v-393q0 -117 15 -144t84 -30l88 -7v-63q-250 4 -281 4q-33 0 -283 -4v63l89 7q66 3 81 30q17 31 17 144v835q0 101 -6 119q-6 28 -23 38.5t-69 14.5l-105 9v63q25 -2 117 -2q22 0 49.5 0.5
t77.5 1.5t102 2q71 0 135 1t76 1q541 0 541 -338q0 -112 -83 -194t-243 -129q149 -258 295 -449q72 -93 135 -129t160 -41zM446 1247l-6 -198q-2 -61 -2 -236v-117l254 4q95 3 166 80q74 80 74 197q0 133 -88 204.5t-252 71.5q-83 0 -146 -6zM629 -295q-17 24 -17 62
q0 43 33 71.5t82 28.5q60 0 98.5 -43.5t38.5 -112.5q0 -86 -64.5 -158t-170.5 -104l-29 53q65 23 101 54.5t36 64.5t-23 52t-85 32z" />
    <glyph glyph-name="rcommaaccent" unicode="&#x157;" horiz-adv-x="811" 
d="M453 70l100 -7v-63q-58 1 -117.5 2t-93 1.5t-61.5 0.5q-48 0 -228 -4v63l49 3q59 4 71.5 15.5t12.5 55.5v525q0 43 -10.5 61.5t-40.5 36.5l-65 41v26q131 40 284 125h21q-10 -222 -10 -245q188 235 303 235q51 0 82.5 -31.5t31.5 -81.5q0 -49 -28 -77.5t-72 -28.5
q-29 0 -68 27q-38 22 -55 22q-31 0 -96 -41q-61 -38 -98 -82v-499q0 -44 16.5 -60t71.5 -20zM188 -295q-16 22 -16 62q0 43 33 71.5t82 28.5q60 0 98.5 -43.5t38.5 -112.5q0 -86 -65 -158t-171 -104l-28 53q65 23 101 54.5t36 64.5t-23.5 52t-85.5 32z" />
    <glyph glyph-name="Rcaron" unicode="&#x158;" horiz-adv-x="1396" 
d="M1407 47v-47q-112 -14 -197 -14q-197 0 -329 209q-90 149 -213 438l-230 4v-393q0 -117 15 -144t84 -30l88 -7v-63q-250 4 -281 4q-33 0 -283 -4v63l89 7q66 3 81 30q17 31 17 144v835q0 101 -6 119q-6 28 -23 38.5t-69 14.5l-105 9v63q25 -2 117 -2q22 0 49.5 0.5
t77.5 1.5t102 2q71 0 135 1t76 1q541 0 541 -338q0 -112 -83 -194t-243 -129q149 -258 295 -449q72 -93 135 -129t160 -41zM446 1247l-6 -198q-2 -61 -2 -236v-117l254 4q95 3 166 80q74 80 74 197q0 133 -88 204.5t-252 71.5q-83 0 -146 -6zM911 1839l58 -8l-271 -354
q-36 -47 -69 -47q-34 0 -70 47l-270 354l57 8l283 -246z" />
    <glyph glyph-name="rcaron" unicode="&#x159;" horiz-adv-x="811" 
d="M453 70l100 -7v-63q-58 1 -117.5 2t-93 1.5t-61.5 0.5q-48 0 -228 -4v63l49 3q59 4 71.5 15.5t12.5 55.5v525q0 43 -10.5 61.5t-40.5 36.5l-65 41v26q131 40 284 125h21q-10 -222 -10 -245q188 235 303 235q51 0 82.5 -31.5t31.5 -81.5q0 -49 -28 -77.5t-72 -28.5
q-29 0 -68 27q-38 22 -55 22q-31 0 -96 -41q-61 -38 -98 -82v-499q0 -44 16.5 -60t71.5 -20zM451 1055q-48 0 -70 49l-205 438l53 8l222 -315l221 315l53 -8l-205 -438q-22 -49 -69 -49z" />
    <glyph glyph-name="Sacute" unicode="&#x15a;" horiz-adv-x="1011" 
d="M924 381q0 -176 -131 -289q-127 -112 -332 -112q-108 0 -208.5 37t-168.5 100l-33 313l47 8q51 -183 147.5 -276.5t231.5 -93.5q115 0 187.5 67t72.5 172q0 113 -94 189q-60 47 -194 106q-160 71 -224 129q-102 84 -102 230q0 167 119 274q120 108 295 108q182 0 313 -98
l39 -276l-43 -13q-41 143 -125.5 222t-196.5 79q-103 0 -168 -62.5t-65 -160.5q0 -100 98 -176q67 -46 186 -100q100 -48 154 -80q40 -22 84 -60q111 -99 111 -237zM721 1831q25 0 54 -20.5t54 -55.5l-395 -325l-43 22l236 322q26 34 45 45.5t49 11.5z" />
    <glyph glyph-name="sacute" unicode="&#x15b;" horiz-adv-x="798" 
d="M723 285q0 -129 -105 -217q-104 -88 -245 -88q-82 0 -162 27.5t-123 70.5l-20 235h47q31 -124 99 -189t165 -65q80 0 134 45t54 113q0 53 -39 92q-33 36 -163 90q-123 53 -172 93q-82 64 -82 172q0 117 90 198q89 80 215 80q150 0 252 -88l18 -211h-43q-53 219 -231 219
q-70 0 -111 -37t-41 -102q0 -49 37 -86q37 -34 162 -86q135 -52 180 -92q84 -69 84 -174zM543 1556q29 0 57.5 -15.5t46.5 -39.5l-276 -440l-49 12l143 422q21 61 78 61z" />
    <glyph glyph-name="Scircumflex" unicode="&#x15c;" horiz-adv-x="1011" 
d="M924 381q0 -176 -131 -289q-127 -112 -332 -112q-108 0 -208.5 37t-168.5 100l-33 313l47 8q51 -183 147.5 -276.5t231.5 -93.5q115 0 187.5 67t72.5 172q0 113 -94 189q-60 47 -194 106q-160 71 -224 129q-102 84 -102 230q0 167 119 274q120 108 295 108q182 0 313 -98
l39 -276l-43 -13q-41 143 -125.5 222t-196.5 79q-103 0 -168 -62.5t-65 -160.5q0 -100 98 -176q67 -46 186 -100q100 -48 154 -80q40 -22 84 -60q111 -99 111 -237zM854 1438l-57 -8l-283 245l-283 -245l-57 8l270 354q36 47 70 47t70 -47z" />
    <glyph glyph-name="scircumflex" unicode="&#x15d;" horiz-adv-x="798" 
d="M723 285q0 -129 -105 -217q-104 -88 -245 -88q-82 0 -162 27.5t-123 70.5l-20 235h47q31 -124 99 -189t165 -65q80 0 134 45t54 113q0 53 -39 92q-33 36 -163 90q-123 53 -172 93q-82 64 -82 172q0 117 90 198q89 80 215 80q150 0 252 -88l18 -211h-43q-53 219 -231 219
q-70 0 -111 -37t-41 -102q0 -49 37 -86q37 -34 162 -86q135 -52 180 -92q84 -69 84 -174zM416 1556q47 0 69 -49l205 -438l-53 -8l-221 315l-221 -315l-54 8l205 438q22 49 70 49z" />
    <glyph glyph-name="Scedilla" unicode="&#x15e;" horiz-adv-x="1011" 
d="M686 -266q0 -87 -106 -162q-107 -76 -220 -76q-47 0 -75.5 22t-28.5 58q0 31 18.5 48.5t49.5 17.5q34 0 75 -39q31 -29 52 -29q43 0 81.5 33.5t38.5 70.5q0 93 -206 152l63 150q-104 6 -194 41.5t-150 95.5l-33 313l47 8q51 -183 147.5 -276.5t231.5 -93.5
q115 0 187.5 67t72.5 172q0 113 -94 189q-60 47 -194 106q-160 71 -224 129q-102 84 -102 230q0 167 119 274q120 108 295 108q182 0 313 -98l39 -276l-43 -13q-41 143 -125.5 222t-196.5 79q-103 0 -168 -62.5t-65 -160.5q0 -100 98 -176q67 -46 186 -100q100 -48 154 -80
q40 -22 84 -60q111 -99 111 -237q0 -170 -123 -281q-120 -111 -314 -120l-18 -52q126 -48 171.5 -90t45.5 -104z" />
    <glyph glyph-name="scedilla" unicode="&#x15f;" horiz-adv-x="798" 
d="M582 -266q0 -86 -107 -162t-219 -76q-47 0 -75.5 22t-28.5 58q0 31 18 48.5t49 17.5q35 0 76 -39q31 -29 51 -29q43 0 82 33.5t39 70.5q0 45 -52.5 84t-154.5 68l64 152q-72 8 -135.5 33.5t-100.5 62.5l-20 235h47q31 -124 99 -189t165 -65q80 0 134 45t54 113
q0 53 -39 92q-33 36 -163 90q-123 53 -172 93q-82 64 -82 172q0 117 90 198q89 80 215 80q150 0 252 -88l18 -211h-43q-53 219 -231 219q-70 0 -111 -37t-41 -102q0 -49 37 -86q37 -34 162 -86q135 -52 180 -92q84 -69 84 -174q0 -126 -100 -213q-103 -89 -240 -92l-18 -52
q126 -48 171.5 -90t45.5 -104z" />
    <glyph glyph-name="Scaron" unicode="&#x160;" horiz-adv-x="1011" 
d="M924 381q0 -176 -131 -289q-127 -112 -332 -112q-108 0 -208.5 37t-168.5 100l-33 313l47 8q51 -183 147.5 -276.5t231.5 -93.5q115 0 187.5 67t72.5 172q0 113 -94 189q-60 47 -194 106q-160 71 -224 129q-102 84 -102 230q0 167 119 274q120 108 295 108q182 0 313 -98
l39 -276l-43 -13q-41 143 -125.5 222t-196.5 79q-103 0 -168 -62.5t-65 -160.5q0 -100 98 -176q67 -46 186 -100q100 -48 154 -80q40 -22 84 -60q111 -99 111 -237zM793 1839l57 -8l-270 -354q-36 -47 -70 -47t-70 47l-270 354l57 8l283 -246z" />
    <glyph glyph-name="scaron" unicode="&#x161;" horiz-adv-x="798" 
d="M723 285q0 -129 -105 -217q-104 -88 -245 -88q-82 0 -162 27.5t-123 70.5l-20 235h47q31 -124 99 -189t165 -65q80 0 134 45t54 113q0 53 -39 92q-33 36 -163 90q-123 53 -172 93q-82 64 -82 172q0 117 90 198q89 80 215 80q150 0 252 -88l18 -211h-43q-53 219 -231 219
q-70 0 -111 -37t-41 -102q0 -49 37 -86q37 -34 162 -86q135 -52 180 -92q84 -69 84 -174zM416 1055q-48 0 -70 49l-205 438l54 8l221 -315l221 315l53 -8l-205 -438q-22 -49 -69 -49z" />
    <glyph glyph-name="Tcommaaccent" unicode="&#x162;" horiz-adv-x="1402" 
d="M920 -266q0 -86 -107 -162t-219 -76q-47 0 -76 22.5t-29 57.5q0 31 18.5 48.5t49.5 17.5q35 0 76 -39q31 -29 51 -29q43 0 82 33.5t39 70.5q0 45 -52.5 84t-154.5 68l72 174q-71 0 -271 -4v63l109 7q68 3 82 28q16 29 16 146v647q0 184 -4 360h-190q-81 0 -132 -22.5
t-87 -75.5q-43 -60 -95 -233l-47 10q24 208 35 413q109 -20 389 -20h453q283 0 389 20q11 -205 35 -413l-47 -10q-52 173 -95 233q-36 53 -87 75.5t-132 22.5h-190q-4 -176 -4 -360v-647q0 -121 14 -146t84 -28l109 -7v-63q-196 4 -273 4l-29 -76q126 -48 172 -90.5
t46 -103.5z" />
    <glyph glyph-name="tcommaaccent" unicode="&#x163;" horiz-adv-x="714" 
d="M594 -266q0 -86 -107 -162t-219 -76q-47 0 -75.5 22t-28.5 58q0 31 18 48.5t49 17.5q35 0 76 -39q31 -29 51 -29q43 0 82 33.5t39 70.5q0 45 -52.5 84t-154.5 68l66 156q-79 13 -126.5 62.5t-47.5 117.5l10 592l-125 88v14q170 120 270 250h29l-6 -111q-2 -43 -2 -94
l334 10q-11 -64 -41 -102l-293 4v-592q0 -119 168 -119q103 0 180 62l17 -16q-39 -76 -125 -124t-185 -48l-18 -52q126 -48 171.5 -90t45.5 -104z" />
    <glyph glyph-name="Tcaron" unicode="&#x164;" horiz-adv-x="1402" 
d="M895 70l109 -7v-63q-212 4 -302 4q-91 0 -303 -4v63l109 7q68 3 82 28q16 29 16 146v647q0 184 -4 360h-190q-81 0 -132 -22.5t-87 -75.5q-43 -60 -95 -233l-47 10q24 208 35 413q109 -20 389 -20h453q283 0 389 20q11 -205 35 -413l-47 -10q-52 173 -95 233
q-36 53 -87 75.5t-132 22.5h-190q-4 -176 -4 -360v-647q0 -121 14 -146t84 -28zM985 1839l57 -8l-270 -354q-36 -47 -70 -47q-33 0 -69 47l-271 354l58 8l282 -246z" />
    <glyph glyph-name="tcaron" unicode="&#x165;" horiz-adv-x="714" 
d="M395 -20q-100 0 -165.5 52.5t-65.5 133.5l10 592l-125 88v14q170 120 270 250h29l-6 -111q-2 -43 -2 -94l334 10q-11 -64 -41 -102l-293 4v-592q0 -119 168 -119q103 0 180 62l17 -16q-39 -76 -125 -124t-185 -48zM524 1028l-41 10l60 424q9 62 71 62q60 0 99 -51z" />
    <glyph glyph-name="Tbar" unicode="&#x166;" horiz-adv-x="1402" 
d="M895 70l109 -7v-63q-212 4 -302 4q-91 0 -303 -4v63l109 7q68 3 82 28q16 29 16 146v393h-119q-83 0 -153 -4l28 80h244v178q0 184 -4 360h-190q-81 0 -132 -22.5t-87 -75.5q-43 -60 -95 -233l-47 10q24 208 35 413q109 -20 389 -20h453q283 0 389 20q11 -205 35 -413
l-47 -10q-52 173 -95 233q-36 53 -87 75.5t-132 22.5h-190q-4 -176 -4 -360v-178h121q83 0 153 4l-29 -80h-245v-393q0 -121 14 -146t84 -28z" />
    <glyph glyph-name="tbar" unicode="&#x167;" horiz-adv-x="800" 
d="M723 168l16 -16q-39 -76 -124.5 -124t-184.5 -48q-100 0 -165.5 52.5t-65.5 133.5l6 328q-47 0 -125 -5l29 80h96l4 189l-125 88v14q170 120 270 250h29l-6 -111q-2 -43 -2 -94l334 10q-11 -64 -41 -102l-293 4v-248h166q83 0 153 4l-28 -79h-291v-269q0 -119 168 -119
q103 0 180 62z" />
    <glyph glyph-name="Utilde" unicode="&#x168;" horiz-adv-x="1511" 
d="M766 -20q-245 0 -395 135q-150 138 -150 377v587q0 113 -16 142t-82 32l-88 7v63q250 -4 280 -4q33 0 283 4v-63l-88 -7q-68 -3 -84 -32q-14 -25 -14 -142v-553q0 -204 102 -316t287 -112q191 0 291 108.5t100 317.5v363q0 186 -4 264q-3 63 -14 76q-19 22 -80 24l-123 9
v63q67 -1 145.5 -2.5t108.5 -1.5t107.5 1.5t144.5 2.5v-63l-86 -7q-41 -5 -57 -10t-23 -16q-14 -21 -17 -84q-4 -86 -4 -256v-389q0 -242 -143 -379q-145 -139 -381 -139zM934 1651q123 0 219 110l31 -16q-39 -74 -92 -137q-56 -72 -99 -101q-84 18 -184 31q-122 16 -158 16
q-48 0 -77.5 -15.5t-55.5 -55.5l-35 -51l-43 20l133 246q234 -47 361 -47z" />
    <glyph glyph-name="utilde" unicode="&#x169;" horiz-adv-x="1099" 
d="M954 117l113 -8v-48l-88 -20q-61 -15 -234 -64h-20l4 164q-173 -161 -317 -161q-115 0 -179.5 68.5t-64.5 191.5v516q0 41 -14.5 58.5t-51.5 23.5l-75 10v55q105 5 159 10l148 15h20q-8 -131 -8 -379v-238q0 -106 44 -155.5t140 -49.5t199 70v592q0 40 -13.5 53.5
t-51.5 18.5l-99 10v53q229 10 330 25h20q-8 -131 -8 -379v-379q0 -31 8 -39.5t39 -13.5zM674 1300q99 0 198 111l31 -16q-41 -76 -92 -138q-56 -71 -98 -100q-50 12 -156 29q-98 16 -125 16q-48 0 -77.5 -15.5t-55.5 -56.5l-35 -51l-43 21l133 246q215 -46 320 -46z" />
    <glyph glyph-name="Umacron" unicode="&#x16a;" horiz-adv-x="1511" 
d="M766 -20q-245 0 -395 135q-150 138 -150 377v587q0 113 -16 142t-82 32l-88 7v63q250 -4 280 -4q33 0 283 4v-63l-88 -7q-68 -3 -84 -32q-14 -25 -14 -142v-553q0 -204 102 -316t287 -112q191 0 291 108.5t100 317.5v363q0 186 -4 264q-3 63 -14 76q-19 22 -80 24l-123 9
v63q67 -1 145.5 -2.5t108.5 -1.5t107.5 1.5t144.5 2.5v-63l-86 -7q-41 -5 -57 -10t-23 -16q-14 -21 -17 -84q-4 -86 -4 -256v-389q0 -242 -143 -379q-145 -139 -381 -139zM449 1536l47 121h475q114 0 157 16l-47 -121h-475q-114 0 -157 -16z" />
    <glyph glyph-name="umacron" unicode="&#x16b;" horiz-adv-x="1099" 
d="M954 117l113 -8v-48l-88 -20q-61 -15 -234 -64h-20l4 164q-173 -161 -317 -161q-115 0 -179.5 68.5t-64.5 191.5v516q0 41 -14.5 58.5t-51.5 23.5l-75 10v55q105 5 159 10l148 15h20q-8 -131 -8 -379v-238q0 -106 44 -155.5t140 -49.5t199 70v592q0 40 -13.5 53.5
t-51.5 18.5l-99 10v53q229 10 330 25h20q-8 -131 -8 -379v-379q0 -31 8 -39.5t39 -13.5zM252 1167l47 119h373q111 0 157 17l-47 -119h-372q-112 0 -158 -17z" />
    <glyph glyph-name="Ubreve" unicode="&#x16c;" horiz-adv-x="1511" 
d="M766 -20q-245 0 -395 135q-150 138 -150 377v587q0 113 -16 142t-82 32l-88 7v63q250 -4 280 -4q33 0 283 4v-63l-88 -7q-68 -3 -84 -32q-14 -25 -14 -142v-553q0 -204 102 -316t287 -112q191 0 291 108.5t100 317.5v363q0 186 -4 264q-3 63 -14 76q-19 22 -80 24l-123 9
v63q67 -1 145.5 -2.5t108.5 -1.5t107.5 1.5t144.5 2.5v-63l-86 -7q-41 -5 -57 -10t-23 -16q-14 -21 -17 -84q-4 -86 -4 -256v-389q0 -242 -143 -379q-145 -139 -381 -139zM799 1458q-133 0 -224 105q-91 104 -106 274l59 10q19 -125 87.5 -189.5t183.5 -64.5t183 64.5
t87 189.5l59 -10q-15 -170 -106 -274q-91 -105 -223 -105z" />
    <glyph glyph-name="ubreve" unicode="&#x16d;" horiz-adv-x="1099" 
d="M954 117l113 -8v-48l-88 -20q-61 -15 -234 -64h-20l4 164q-173 -161 -317 -161q-115 0 -179.5 68.5t-64.5 191.5v516q0 41 -14.5 58.5t-51.5 23.5l-75 10v55q105 5 159 10l148 15h20q-8 -131 -8 -379v-238q0 -106 44 -155.5t140 -49.5t199 70v592q0 40 -13.5 53.5
t-51.5 18.5l-99 10v53q229 10 330 25h20q-8 -131 -8 -379v-379q0 -31 8 -39.5t39 -13.5zM541 1069q-124 0 -196.5 131t-72.5 352l60 11q7 -164 64 -261.5t145 -97.5t145 97.5t64 261.5l59 -11q0 -221 -72 -352t-196 -131z" />
    <glyph glyph-name="Uring" unicode="&#x16e;" horiz-adv-x="1511" 
d="M766 -20q-245 0 -395 135q-150 138 -150 377v587q0 113 -16 142t-82 32l-88 7v63q250 -4 280 -4q33 0 283 4v-63l-88 -7q-68 -3 -84 -32q-14 -25 -14 -142v-553q0 -204 102 -316t287 -112q191 0 291 108.5t100 317.5v363q0 186 -4 264q-3 63 -14 76q-19 22 -80 24l-123 9
v63q67 -1 145.5 -2.5t108.5 -1.5t107.5 1.5t144.5 2.5v-63l-86 -7q-41 -5 -57 -10t-23 -16q-14 -21 -17 -84q-4 -86 -4 -256v-389q0 -242 -143 -379q-145 -139 -381 -139zM778 1438q-92 0 -160 65q-65 68 -65 158q0 93 65 158q67 67 160 67q94 0 158 -67q68 -65 68 -158
q0 -90 -68 -158q-65 -65 -158 -65zM778 1522q63 0 102.5 38t39.5 101q0 66 -38 103.5t-104 37.5q-64 0 -102.5 -38t-38.5 -103q0 -63 39 -101t102 -38z" />
    <glyph glyph-name="uring" unicode="&#x16f;" horiz-adv-x="1099" 
d="M954 117l113 -8v-48l-88 -20q-61 -15 -234 -64h-20l4 164q-173 -161 -317 -161q-115 0 -179.5 68.5t-64.5 191.5v516q0 41 -14.5 58.5t-51.5 23.5l-75 10v55q105 5 159 10l148 15h20q-8 -131 -8 -379v-238q0 -106 44 -155.5t140 -49.5t199 70v592q0 40 -13.5 53.5
t-51.5 18.5l-99 10v53q229 10 330 25h20q-8 -131 -8 -379v-379q0 -31 8 -39.5t39 -13.5zM541 1069q-85 0 -145 59t-60 144t60 145t145 60t144.5 -60t59.5 -145t-59.5 -144t-144.5 -59zM541 1399q-54 0 -90.5 -36.5t-36.5 -90.5t36.5 -89.5t90.5 -35.5t90.5 35.5t36.5 89.5
t-36.5 90.5t-90.5 36.5z" />
    <glyph glyph-name="Uhungarumlaut" unicode="&#x170;" horiz-adv-x="1511" 
d="M766 -20q-245 0 -395 135q-150 138 -150 377v587q0 113 -16 142t-82 32l-88 7v63q250 -4 280 -4q33 0 283 4v-63l-88 -7q-68 -3 -84 -32q-14 -25 -14 -142v-553q0 -204 102 -316t287 -112q191 0 291 108.5t100 317.5v363q0 186 -4 264q-3 63 -14 76q-19 22 -80 24l-123 9
v63q67 -1 145.5 -2.5t108.5 -1.5t107.5 1.5t144.5 2.5v-63l-86 -7q-41 -5 -57 -10t-23 -16q-14 -21 -17 -84q-4 -86 -4 -256v-389q0 -242 -143 -379q-145 -139 -381 -139zM952 1767l-358 -337l-43 22l192 317q20 34 42.5 48t54.5 14q29 0 64 -19.5t48 -44.5zM1300 1767
l-358 -337l-43 22l193 317q20 34 42 48t54 14q29 0 64 -19.5t48 -44.5z" />
    <glyph glyph-name="uhungarumlaut" unicode="&#x171;" horiz-adv-x="1099" 
d="M954 117l113 -8v-48l-88 -20q-61 -15 -234 -64h-20l4 164q-173 -161 -317 -161q-115 0 -179.5 68.5t-64.5 191.5v516q0 41 -14.5 58.5t-51.5 23.5l-75 10v55q105 5 159 10l148 15h20q-8 -131 -8 -379v-238q0 -106 44 -155.5t140 -49.5t199 70v592q0 40 -13.5 53.5
t-51.5 18.5l-99 10v53q229 10 330 25h20q-8 -131 -8 -379v-379q0 -31 8 -39.5t39 -13.5zM389 1061l-49 12l143 422q21 61 78 61q29 0 58 -15.5t47 -39.5zM676 1061l-49 12l143 422q21 61 78 61q29 0 57.5 -15.5t46.5 -39.5z" />
    <glyph glyph-name="Uogonek" unicode="&#x172;" horiz-adv-x="1511" 
d="M991 -356l23 -47q-56 -43 -116 -72t-95 -29q-70 0 -113 42.5t-43 113.5q0 69 65.5 160t176.5 178q-54 -10 -123 -10q-245 0 -395 135q-150 138 -150 377v587q0 113 -16 142t-82 32l-88 7v63q250 -4 280 -4q33 0 283 4v-63l-88 -7q-68 -3 -84 -32q-14 -25 -14 -142v-553
q0 -204 102 -316t287 -112q191 0 291 108.5t100 317.5v363q0 186 -4 264q-3 63 -14 76q-19 22 -80 24l-123 9v63q67 -1 145.5 -2.5t108.5 -1.5t107.5 1.5t144.5 2.5v-63l-86 -7q-41 -5 -57 -10t-23 -16q-14 -21 -17 -84q-4 -86 -4 -256v-389q0 -167 -74 -290t-210 -183
q-91 -66 -154 -156q-64 -91 -64 -160q0 -106 86 -106q50 0 117 41z" />
    <glyph glyph-name="uogonek" unicode="&#x173;" horiz-adv-x="1099" 
d="M653 -504q-70 0 -112.5 42.5t-42.5 113.5q0 67 61 155t166 173l4 161q-173 -161 -317 -161q-115 0 -179.5 68.5t-64.5 191.5v516q0 41 -14.5 58.5t-51.5 23.5l-75 10v55q105 5 159 10l148 15h20q-8 -131 -8 -379v-238q0 -106 44 -155.5t140 -49.5t199 70v592
q0 40 -13.5 53.5t-51.5 18.5l-99 10v53q229 10 330 25h20q-8 -131 -8 -379v-379q0 -31 8 -39.5t39 -13.5l113 -8v-48q-102 -17 -163 -39t-111 -59q-67 -51 -110.5 -122.5t-43.5 -131.5q0 -106 86 -106q50 0 117 41l22 -47q-56 -43 -116 -72t-95 -29z" />
    <glyph glyph-name="Wcircumflex" unicode="&#x174;" horiz-adv-x="1959" 
d="M1759 1116l-420 -1136h-28l-310 884l-335 -884h-29l-434 1140q-1 1 -17 41q-16 39 -24 53q-25 43 -84 43l-58 3v63q58 -1 117 -2t93 -1.5t61 -0.5t60 0.5t91 1.5t115 2v-63l-100 -7q-44 -5 -63 -17t-19 -38q0 -30 18 -72l309 -833l252 702l-43 125q-9 20 -19 43t-14.5 34
t-7.5 15q-24 37 -84 45l-49 3v63q53 -1 112.5 -2t94.5 -1.5t64 -0.5t63.5 0.5t93.5 1.5t113 2v-63l-121 -7q-42 -2 -61 -15t-19 -42q0 -14 17 -70l276 -815l291 811q16 53 16 74q0 29 -18.5 42t-59.5 15l-114 7v63q218 -4 227 -4q19 0 227 4v-63l-45 -3q-49 -3 -75 -26
q-23 -21 -60 -115zM1339 1438l-57 -8l-283 245l-282 -245l-58 8l271 354q36 47 69 47q34 0 70 -47z" />
    <glyph glyph-name="wcircumflex" unicode="&#x175;" horiz-adv-x="1443" 
d="M1339 811l-350 -831h-33l-225 614l-242 -614h-32l-346 831q-10 23 -21.5 31.5t-36.5 13.5l-45 4v62q148 -4 193 -4q22 0 51 0.5t80.5 1.5t105.5 2v-66l-86 -10q-53 -3 -53 -29q0 -8 8 -29l215 -536l172 442l-43 117q-11 25 -22 34.5t-35 10.5l-43 4v62q126 -4 194 -4
q61 0 205 4v-66l-78 -8q-51 -3 -51 -35q0 -3 2.5 -12t3.5 -13l191 -534l211 532q8 27 8 31q0 26 -53 29l-107 10v66q64 -1 120.5 -2.5t74.5 -1.5q16 0 164 4v-62l-45 -4q-22 -5 -32 -12.5t-20 -32.5zM743 1556q48 0 70 -49l205 -438l-53 -8l-222 315l-221 -315l-53 8
l205 438q22 49 69 49z" />
    <glyph glyph-name="Ycircumflex" unicode="&#x176;" horiz-adv-x="1394" 
d="M600 244v350l-371 530q-54 75 -90.5 101.5t-85.5 31.5l-33 3v63q58 -1 117 -2t93 -1.5t63 -0.5h102q16 1 42 1.5t68.5 1t76.5 1.5v-63l-109 -7q-72 -3 -72 -43q0 -27 37 -80l310 -450l317 446q39 51 39 84q0 40 -72 43l-106 7v63q44 -1 92.5 -2t76.5 -1.5t50 -0.5
q24 0 53 0.5t79 1.5t97 2v-63l-31 -3q-62 -3 -102 -43l-20 -22q-3 -3 -9 -11t-19.5 -26.5t-25.5 -34.5l-376 -526v-350q0 -121 14 -146t84 -28l108 -7v-63q-212 4 -301 4q-91 0 -303 -4v63l109 7q68 3 82 28q16 29 16 146zM1053 1438l-58 -8l-282 245l-283 -245l-57 8
l270 354q36 47 70 47q33 0 69 -47z" />
    <glyph glyph-name="ycircumflex" unicode="&#x177;" horiz-adv-x="1003" 
d="M889 811l-373 -856l-160 -422q-12 -37 -71 -37q-37 0 -68 15t-43 38q197 299 268 478l-329 784q-8 20 -20.5 30.5t-37.5 14.5l-47 4v62q102 -4 207 -4q56 0 256 4v-66l-109 -10q-31 -5 -42 -10t-11 -17t8 -31l220 -589l237 589q8 21 8 29q0 26 -53 29l-104 10v66
q153 -4 157 -4h62q49 0 151 4v-62l-47 -4q-25 -5 -37 -13.5t-22 -31.5zM539 1556q47 0 69 -49l205 -438l-53 -8l-221 315l-222 -315l-53 8l205 438q22 49 70 49z" />
    <glyph glyph-name="Ydieresis" unicode="&#x178;" horiz-adv-x="1394" 
d="M600 244v350l-371 530q-54 75 -90.5 101.5t-85.5 31.5l-33 3v63q58 -1 117 -2t93 -1.5t63 -0.5h102q16 1 42 1.5t68.5 1t76.5 1.5v-63l-109 -7q-72 -3 -72 -43q0 -27 37 -80l310 -450l317 446q39 51 39 84q0 40 -72 43l-106 7v63q44 -1 92.5 -2t76.5 -1.5t50 -0.5
q24 0 53 0.5t79 1.5t97 2v-63l-31 -3q-62 -3 -102 -43l-20 -22q-3 -3 -9 -11t-19.5 -26.5t-25.5 -34.5l-376 -526v-350q0 -121 14 -146t84 -28l108 -7v-63q-212 4 -301 4q-91 0 -303 -4v63l109 7q68 3 82 28q16 29 16 146zM512 1503q-49 0 -82 32.5t-33 80.5t33 80.5
t82 32.5t83 -33t34 -80t-34 -80t-83 -33zM911 1503q-49 0 -81.5 32.5t-32.5 80.5t32.5 80.5t81.5 32.5t83 -33t34 -80t-34 -80t-83 -33z" />
    <glyph glyph-name="Zacute" unicode="&#x179;" horiz-adv-x="1261" 
d="M733 84q107 0 169.5 18.5t107.5 61.5q73 68 147 254l53 -10q-68 -287 -80 -408h-1069v25l834 1216h-424q-135 0 -201 -63q-68 -65 -125 -242l-47 8q25 186 39 395q154 -16 389 -16h617v-25l-815 -1208l194 -4q80 -2 211 -2zM795 1831q25 0 54 -20.5t54 -55.5l-395 -325
l-43 22l235 322q26 34 45.5 45.5t49.5 11.5z" />
    <glyph glyph-name="zacute" unicode="&#x17a;" horiz-adv-x="958" 
d="M858 922v-31l-553 -815l244 2q111 3 143 16q36 15 64 56q28 39 92 215l49 -9l-47 -356h-776v31l561 815h-246q-79 0 -115.5 -11t-56.5 -40q-22 -37 -49 -185h-57v318q222 -6 235 -6h512zM623 1556q29 0 57.5 -15.5t46.5 -39.5l-276 -440l-50 12l144 422q21 61 78 61z" />
    <glyph glyph-name="Zdotaccent" unicode="&#x17b;" horiz-adv-x="1261" 
d="M733 84q107 0 169.5 18.5t107.5 61.5q73 68 147 254l53 -10q-68 -287 -80 -408h-1069v25l834 1216h-424q-135 0 -201 -63q-68 -65 -125 -242l-47 8q25 186 39 395q154 -16 389 -16h617v-25l-815 -1208l194 -4q80 -2 211 -2zM645 1729q51 0 86 -35t35 -86t-35 -85t-86 -34
t-85 34t-34 85t34 86t85 35z" />
    <glyph glyph-name="zdotaccent" unicode="&#x17c;" horiz-adv-x="958" 
d="M858 922v-31l-553 -815l244 2q111 3 143 16q36 15 64 56q28 39 92 215l49 -9l-47 -356h-776v31l561 815h-246q-79 0 -115.5 -11t-56.5 -40q-22 -37 -49 -185h-57v318q222 -6 235 -6h512zM485 1401q51 0 86 -35t35 -86t-35 -85t-86 -34t-84.5 34t-33.5 85t33.5 86t84.5 35
z" />
    <glyph glyph-name="Zcaron" unicode="&#x17d;" horiz-adv-x="1261" 
d="M733 84q107 0 169.5 18.5t107.5 61.5q73 68 147 254l53 -10q-68 -287 -80 -408h-1069v25l834 1216h-424q-135 0 -201 -63q-68 -65 -125 -242l-47 8q25 186 39 395q154 -16 389 -16h617v-25l-815 -1208l194 -4q80 -2 211 -2zM928 1839l57 -8l-270 -354q-36 -47 -70 -47
t-70 47l-270 354l57 8l283 -246z" />
    <glyph glyph-name="zcaron" unicode="&#x17e;" horiz-adv-x="958" 
d="M858 922v-31l-553 -815l244 2q111 3 143 16q36 15 64 56q28 39 92 215l49 -9l-47 -356h-776v31l561 815h-246q-79 0 -115.5 -11t-56.5 -40q-22 -37 -49 -185h-57v318q222 -6 235 -6h512zM485 1055q-47 0 -69 49l-205 438l53 8l221 -315l222 315l53 -8l-205 -438
q-22 -49 -70 -49z" />
    <glyph glyph-name="florin" unicode="&#x192;" horiz-adv-x="1138" 
d="M856 553h-303l-147 -629q-39 -177 -175 -303q-131 -125 -288 -125q-68 0 -115 31t-47 74q0 36 26 59t64 23q35 0 80 -29q61 -35 102 -35q133 0 207 375l111 559h-224l21 82h219l59 301q34 168 183 287q150 120 321 120q68 0 115 -30.5t47 -73.5q0 -36 -26 -59t-64 -23
q-35 0 -82 31q-64 35 -106 35q-128 0 -213 -377l-50 -211h308z" />
    <glyph glyph-name="AEacute" unicode="&#x1fc;" horiz-adv-x="1978" 
d="M1864 410l53 -11q-17 -81 -37 -198q-27 -181 -29 -201q-203 2 -415 2q-72 2 -195 2q-115 0 -463 -4v63l88 7q67 6 82 30q17 27 17 144v248h-445l-168 -281q-37 -61 -37 -90q0 -50 103 -53l69 -2v-66q-94 2 -182 2q-27 2 -74 2q-24 0 -50.5 -0.5t-71.5 -1.5t-89 -2v66
l43 2q64 3 91 24q29 20 90 119l630 1040l-198 11v63h708q277 0 390 18l20 -253q9 -76 14 -107l-45 -10q-28 94 -57 144.5t-68 80.5q-75 53 -256 53q-124 0 -223 -12q-8 -175 -8 -463v-61l270 4q46 2 64 30t24 113l4 56h62q0 -9 -1 -38.5t-1 -58.5q-1 -37 -2.5 -79t-1.5 -60
t1.5 -60t2.5 -79q0 -29 1 -59.5t1 -39.5h-62l-4 56q-7 86 -25.5 114.5t-62.5 30.5l-270 4v-405q0 -57 22.5 -92t73.5 -54q67 -26 195 -26q186 0 274 73q89 77 148 265zM965 563v676l-404 -676h404zM1436 1831q25 0 54 -20.5t54 -55.5l-395 -325l-43 22l235 322
q26 34 45.5 45.5t49.5 11.5z" />
    <glyph glyph-name="aeacute" unicode="&#x1fd;" horiz-adv-x="1413" 
d="M983 -20q-115 0 -213 48.5t-158 135.5q-69 -84 -154 -131t-167 -47q-93 0 -156 63q-65 65 -65 154q0 106 83 172.5t271 109.5l137 33l2 150q0 72 -53 115.5t-141 43.5q-49 0 -76 -25.5t-27 -70.5q0 -32 6 -80q-70 -24 -141 -24q-33 0 -33 26q0 41 43 94t115 103
q61 43 125 67.5t111 24.5q80 0 135 -38t75 -109q129 147 314 147q141 0 229 -73t88 -191q0 -26 -18.5 -43t-59.5 -27l-538 -123q3 -166 96 -266q94 -98 240 -98q83 0 147 32t123 105l29 -18q-48 -118 -148 -189t-221 -71zM1167 707q0 73 -48 116t-124 43q-109 0 -185 -85.5
t-89 -225.5l401 96q26 6 35.5 18t9.5 38zM240 266q0 -71 41.5 -115.5t105.5 -44.5q109 0 172 80l2 265l-127 -29q-103 -23 -148.5 -59.5t-45.5 -96.5zM930 1556q29 0 57.5 -15.5t46.5 -39.5l-276 -440l-49 12l143 422q21 61 78 61z" />
    <glyph glyph-name="Oslashacute" unicode="&#x1fe;" horiz-adv-x="1519" 
d="M1245 180q-98 -97 -224 -148.5t-261 -51.5q-177 0 -338 88l-127 -187l-82 29l139 203q-133 94 -206.5 236.5t-73.5 307.5q0 137 52 262.5t150 223.5q98 96 224.5 148t261.5 52q199 0 366 -104l97 141l82 -28l-111 -160q122 -99 188 -235t66 -291q0 -137 -52.5 -262.5
t-150.5 -223.5zM760 1249q-205 0 -340 -164q-133 -165 -133 -417q0 -129 38 -243t107 -196l619 901q-125 119 -291 119zM760 74q206 0 338 164q135 164 135 417q0 246 -125 412l-614 -897q116 -96 266 -96zM909 1831q25 0 54.5 -20.5t54.5 -55.5l-395 -325l-43 22l235 322
q26 34 45 45.5t49 11.5z" />
    <glyph glyph-name="oslashacute" unicode="&#x1ff;" horiz-adv-x="1081" 
d="M877 123q-137 -143 -336 -143q-131 0 -240 65l-111 -156l-73 29l121 170q-80 69 -123 164t-43 205q0 206 133 342q137 143 336 143q137 0 252 -74l100 142l74 -29l-113 -158q75 -68 115.5 -160.5t40.5 -197.5q0 -206 -133 -342zM541 862q-123 0 -199 -108t-76 -285
q0 -147 56 -262l401 563q-76 92 -182 92zM541 59q123 0 198.5 108.5t75.5 285.5q0 149 -49 247l-397 -561q74 -80 172 -80zM678 1556q29 0 57.5 -15.5t46.5 -39.5l-276 -440l-49 12l143 422q21 61 78 61z" />
    <glyph glyph-name="Scommaaccent" unicode="&#x218;" horiz-adv-x="1011" 
d="M924 381q0 -176 -131 -289q-127 -112 -332 -112q-108 0 -208.5 37t-168.5 100l-33 313l47 8q51 -183 147.5 -276.5t231.5 -93.5q115 0 187.5 67t72.5 172q0 113 -94 189q-60 47 -194 106q-160 71 -224 129q-102 84 -102 230q0 167 119 274q120 108 295 108q182 0 313 -98
l39 -276l-43 -13q-41 143 -125.5 222t-196.5 79q-103 0 -168 -62.5t-65 -160.5q0 -100 98 -176q67 -46 186 -100q100 -48 154 -80q40 -22 84 -60q111 -99 111 -237zM428 -295q-16 22 -16 62q0 43 32.5 71.5t81.5 28.5q60 0 99 -43.5t39 -112.5q0 -86 -65 -158t-171 -104
l-29 53q65 23 101.5 54.5t36.5 64.5t-23.5 52t-85.5 32z" />
    <glyph glyph-name="scommaaccent" unicode="&#x219;" horiz-adv-x="798" 
d="M723 285q0 -129 -105 -217q-104 -88 -245 -88q-82 0 -162 27.5t-123 70.5l-20 235h47q31 -124 99 -189t165 -65q80 0 134 45t54 113q0 53 -39 92q-33 36 -163 90q-123 53 -172 93q-82 64 -82 172q0 117 90 198q89 80 215 80q150 0 252 -88l18 -211h-43q-53 219 -231 219
q-70 0 -111 -37t-41 -102q0 -49 37 -86q37 -34 162 -86q135 -52 180 -92q84 -69 84 -174zM303 -295q-16 22 -16 62q0 43 32.5 71.5t81.5 28.5q60 0 99 -43.5t39 -112.5q0 -86 -65 -158t-171 -104l-29 53q65 23 101.5 54.5t36.5 64.5t-23.5 52t-85.5 32z" />
    <glyph glyph-name="uni021A" unicode="&#x21a;" horiz-adv-x="1402" 
d="M895 70l109 -7v-63q-212 4 -302 4q-91 0 -303 -4v63l109 7q68 3 82 28q16 29 16 146v647q0 184 -4 360h-190q-81 0 -132 -22.5t-87 -75.5q-43 -60 -95 -233l-47 10q24 208 35 413q109 -20 389 -20h453q283 0 389 20q11 -205 35 -413l-47 -10q-52 173 -95 233
q-36 53 -87 75.5t-132 22.5h-190q-4 -176 -4 -360v-647q0 -121 14 -146t84 -28zM600 -295q-16 22 -16 62q0 43 32.5 71.5t81.5 28.5q60 0 99 -43.5t39 -112.5q0 -86 -65 -158t-171 -104l-29 53q65 23 101.5 54.5t36.5 64.5t-23.5 52t-85.5 32z" />
    <glyph glyph-name="uni021B" unicode="&#x21b;" horiz-adv-x="714" 
d="M395 -20q-100 0 -165.5 52.5t-65.5 133.5l10 592l-125 88v14q170 120 270 250h29l-6 -111q-2 -43 -2 -94l334 10q-11 -64 -41 -102l-293 4v-592q0 -119 168 -119q103 0 180 62l17 -16q-39 -76 -125 -124t-185 -48zM274 -295q-16 22 -16 62q0 43 33 71.5t82 28.5
q60 0 98.5 -43.5t38.5 -112.5q0 -86 -65 -158t-171 -104l-28 53q65 23 101 54.5t36 64.5t-23.5 52t-85.5 32z" />
    <glyph glyph-name="uni0237" unicode="&#x237;" horiz-adv-x="512" 
d="M354 391v-452q0 -147 -92 -261.5t-264 -177.5l-18 33q118 81 157 180q39 91 39 328v621q0 43 -10.5 61.5t-40.5 36.5l-66 41v26q133 41 285 125h21q-11 -172 -11 -561z" />
    <glyph glyph-name="circumflex" unicode="&#x2c6;" horiz-adv-x="1024" 
d="M512 1556q48 0 70 -49l204 -438l-53 -8l-221 315l-221 -315l-53 8l204 438q22 49 70 49z" />
    <glyph glyph-name="caron" unicode="&#x2c7;" horiz-adv-x="1024" 
d="M512 1055q-48 0 -70 49l-204 438l53 8l221 -315l221 315l53 -8l-204 -438q-22 -49 -70 -49z" />
    <glyph glyph-name="breve" unicode="&#x2d8;" horiz-adv-x="1024" 
d="M512 1069q-124 0 -196 131t-72 352l59 11q7 -164 64 -261.5t145 -97.5t145 97.5t64 261.5l59 -11q0 -221 -72 -352t-196 -131z" />
    <glyph glyph-name="dotaccent" unicode="&#x2d9;" horiz-adv-x="1024" 
d="M512 1401q51 0 86 -35t35 -86t-35 -85t-86 -34t-85 34t-34 85t34 86t85 35z" />
    <glyph glyph-name="ring" unicode="&#x2da;" horiz-adv-x="1024" 
d="M512 1069q-85 0 -145 59t-60 144t60 145t145 60t145 -60t60 -145t-60 -144t-145 -59zM512 1399q-54 0 -90.5 -36.5t-36.5 -90.5t36.5 -89.5t90.5 -35.5t90.5 35.5t36.5 89.5t-36.5 90.5t-90.5 36.5z" />
    <glyph glyph-name="ogonek" unicode="&#x2db;" horiz-adv-x="1024" 
d="M303 -348q0 88 103 209q103 118 243 200l19 -30q-94 -69 -158 -158q-66 -97 -66 -164q0 -106 86 -106q50 0 117 41l23 -47q-56 -43 -116 -72t-95 -29q-70 0 -113 42.5t-43 113.5z" />
    <glyph glyph-name="tilde" unicode="&#x2dc;" horiz-adv-x="1024" 
d="M637 1300q100 0 199 111l30 -16q-41 -76 -92 -138q-56 -71 -98 -100q-50 12 -156 29q-98 16 -125 16q-48 0 -77.5 -15.5t-55.5 -56.5l-35 -51l-43 21l133 246q215 -46 320 -46z" />
    <glyph glyph-name="hungarumlaut" unicode="&#x2dd;" horiz-adv-x="1024" 
d="M262 1061l-49 12l143 422q21 61 78 61q29 0 58 -15.5t47 -39.5zM549 1061l-49 12l143 422q21 61 78 61q29 0 57.5 -15.5t46.5 -39.5z" />
    <glyph glyph-name="gravecmb" unicode="&#x300;" horiz-adv-x="0" 
d="M-57 1556q56 0 77 -61l144 -422l-49 -12l-277 440q18 24 47 39.5t58 15.5z" />
    <glyph glyph-name="acutecmb" unicode="&#x301;" horiz-adv-x="0" 
d="M59 1556q29 0 58 -15.5t47 -39.5l-277 -440l-49 12l144 422q21 61 77 61z" />
    <glyph glyph-name="circumflexcmb" unicode="&#x302;" horiz-adv-x="0" 
d="M0 1556q48 0 70 -49l204 -438l-53 -8l-221 315l-221 -315l-53 8l204 438q22 49 70 49z" />
    <glyph glyph-name="tildecmb" unicode="&#x303;" horiz-adv-x="0" 
d="M113 1300q99 0 198 111l31 -16q-41 -76 -92 -138q-56 -71 -98 -100q-47 11 -154 29q-101 16 -127 16q-48 0 -77.5 -15.5t-55.5 -56.5l-35 -51l-43 21l133 246q215 -46 320 -46z" />
    <glyph glyph-name="macroncmb" unicode="&#x304;" horiz-adv-x="0" 
d="M-289 1167l47 119h373q112 0 158 17l-47 -119h-373q-112 0 -158 -17z" />
    <glyph glyph-name="brevecmb" unicode="&#x306;" horiz-adv-x="0" 
d="M0 1069q-124 0 -196 131t-72 352l59 11q7 -164 64 -261.5t145 -97.5t145 97.5t64 261.5l59 -11q0 -221 -72 -352t-196 -131z" />
    <glyph glyph-name="dotaccentcmb" unicode="&#x307;" horiz-adv-x="0" 
d="M0 1401q51 0 86 -35t35 -86t-35 -85t-86 -34t-85 34t-34 85t34 86t85 35z" />
    <glyph glyph-name="dieresiscmb" unicode="&#x308;" horiz-adv-x="0" 
d="M168 1135q-49 0 -82 32.5t-33 79.5q0 48 33 80.5t82 32.5t83 -33t34 -80t-34 -79.5t-83 -32.5zM-170 1135q-49 0 -82 32.5t-33 79.5q0 48 33 80.5t82 32.5t83 -33t34 -80t-34 -79.5t-83 -32.5z" />
    <glyph glyph-name="ringcmb" unicode="&#x30a;" horiz-adv-x="0" 
d="M0 1069q-85 0 -145 59t-60 144t60 145t145 60t145 -60t60 -145t-60 -144t-145 -59zM0 1399q-54 0 -90.5 -36.5t-36.5 -90.5t36.5 -89.5t90.5 -35.5t90.5 35.5t36.5 89.5t-36.5 90.5t-90.5 36.5z" />
    <glyph glyph-name="hungarumlautcmb" unicode="&#x30b;" horiz-adv-x="0" 
d="M-256 1061l-49 12l143 422q21 61 78 61q29 0 57.5 -15.5t46.5 -39.5zM31 1061l-49 12l143 422q21 61 78 61q29 0 57.5 -15.5t46.5 -39.5z" />
    <glyph glyph-name="caroncmb" unicode="&#x30c;" horiz-adv-x="0" 
d="M0 1055q-48 0 -70 49l-204 438l53 8l221 -315l221 315l53 -8l-204 -438q-22 -49 -70 -49z" />
    <glyph glyph-name="commaaboverightcmb" unicode="&#x315;" horiz-adv-x="0" 
d="M-74 1061l-41 10l60 424q9 61 71 61q60 0 99 -51z" />
    <glyph glyph-name="cedillacmb" unicode="&#x327;" horiz-adv-x="0" 
d="M215 -266q0 -87 -106 -162q-107 -76 -220 -76q-47 0 -75.5 22t-28.5 58q0 31 18.5 48.5t49.5 17.5q34 0 75 -39q31 -29 52 -29q43 0 81.5 33.5t38.5 70.5q0 93 -206 152l77 186h60l-33 -88q126 -48 171.5 -90t45.5 -104z" />
    <glyph glyph-name="ogonekcmb" unicode="&#x328;" horiz-adv-x="0" 
d="M-182 -348q0 89 102 209q102 117 244 200l18 -30q-92 -67 -157 -158q-66 -97 -66 -164q0 -106 86 -106q50 0 117 41l22 -47q-56 -43 -116 -72t-95 -29q-70 0 -112.5 42.5t-42.5 113.5z" />
    <glyph glyph-name="Wgrave" unicode="&#x1e80;" horiz-adv-x="1959" 
d="M1759 1116l-420 -1136h-28l-310 884l-335 -884h-29l-434 1140q-1 1 -17 41q-16 39 -24 53q-25 43 -84 43l-58 3v63q58 -1 117 -2t93 -1.5t61 -0.5t60 0.5t91 1.5t115 2v-63l-100 -7q-44 -5 -63 -17t-19 -38q0 -30 18 -72l309 -833l252 702l-43 125q-9 20 -19 43t-14.5 34
t-7.5 15q-24 37 -84 45l-49 3v63q53 -1 112.5 -2t94.5 -1.5t64 -0.5t63.5 0.5t93.5 1.5t113 2v-63l-121 -7q-42 -2 -61 -15t-19 -42q0 -14 17 -70l276 -815l291 811q16 53 16 74q0 29 -18.5 42t-59.5 15l-114 7v63q218 -4 227 -4q19 0 227 4v-63l-45 -3q-49 -3 -75 -26
q-23 -21 -60 -115zM793 1831q30 0 49 -11.5t45 -45.5l235 -322l-43 -22l-395 325q25 35 54.5 55.5t54.5 20.5z" />
    <glyph glyph-name="wgrave" unicode="&#x1e81;" horiz-adv-x="1443" 
d="M1339 811l-350 -831h-33l-225 614l-242 -614h-32l-346 831q-10 23 -21.5 31.5t-36.5 13.5l-45 4v62q148 -4 193 -4q22 0 51 0.5t80.5 1.5t105.5 2v-66l-86 -10q-53 -3 -53 -29q0 -8 8 -29l215 -536l172 442l-43 117q-11 25 -22 34.5t-35 10.5l-43 4v62q126 -4 194 -4
q61 0 205 4v-66l-78 -8q-51 -3 -51 -35q0 -3 2.5 -12t3.5 -13l191 -534l211 532q8 27 8 31q0 26 -53 29l-107 10v66q64 -1 120.5 -2.5t74.5 -1.5q16 0 164 4v-62l-45 -4q-22 -5 -32 -12.5t-20 -32.5zM631 1556q57 0 78 -61l143 -422l-49 -12l-277 440q18 24 47 39.5t58 15.5
z" />
    <glyph glyph-name="Wacute" unicode="&#x1e82;" horiz-adv-x="1959" 
d="M1759 1116l-420 -1136h-28l-310 884l-335 -884h-29l-434 1140q-1 1 -17 41q-16 39 -24 53q-25 43 -84 43l-58 3v63q58 -1 117 -2t93 -1.5t61 -0.5t60 0.5t91 1.5t115 2v-63l-100 -7q-44 -5 -63 -17t-19 -38q0 -30 18 -72l309 -833l252 702l-43 125q-9 20 -19 43t-14.5 34
t-7.5 15q-24 37 -84 45l-49 3v63q53 -1 112.5 -2t94.5 -1.5t64 -0.5t63.5 0.5t93.5 1.5t113 2v-63l-121 -7q-42 -2 -61 -15t-19 -42q0 -14 17 -70l276 -815l291 811q16 53 16 74q0 29 -18.5 42t-59.5 15l-114 7v63q218 -4 227 -4q19 0 227 4v-63l-45 -3q-49 -3 -75 -26
q-23 -21 -60 -115zM1210 1831q25 0 54.5 -20.5t54.5 -55.5l-395 -325l-43 22l235 322q26 34 45 45.5t49 11.5z" />
    <glyph glyph-name="wacute" unicode="&#x1e83;" horiz-adv-x="1443" 
d="M1339 811l-350 -831h-33l-225 614l-242 -614h-32l-346 831q-10 23 -21.5 31.5t-36.5 13.5l-45 4v62q148 -4 193 -4q22 0 51 0.5t80.5 1.5t105.5 2v-66l-86 -10q-53 -3 -53 -29q0 -8 8 -29l215 -536l172 442l-43 117q-11 25 -22 34.5t-35 10.5l-43 4v62q126 -4 194 -4
q61 0 205 4v-66l-78 -8q-51 -3 -51 -35q0 -3 2.5 -12t3.5 -13l191 -534l211 532q8 27 8 31q0 26 -53 29l-107 10v66q64 -1 120.5 -2.5t74.5 -1.5q16 0 164 4v-62l-45 -4q-22 -5 -32 -12.5t-20 -32.5zM881 1556q29 0 57.5 -15.5t46.5 -39.5l-276 -440l-50 12l144 422
q21 61 78 61z" />
    <glyph glyph-name="Wdieresis" unicode="&#x1e84;" horiz-adv-x="1959" 
d="M1759 1116l-420 -1136h-28l-310 884l-335 -884h-29l-434 1140q-1 1 -17 41q-16 39 -24 53q-25 43 -84 43l-58 3v63q58 -1 117 -2t93 -1.5t61 -0.5t60 0.5t91 1.5t115 2v-63l-100 -7q-44 -5 -63 -17t-19 -38q0 -30 18 -72l309 -833l252 702l-43 125q-9 20 -19 43t-14.5 34
t-7.5 15q-24 37 -84 45l-49 3v63q53 -1 112.5 -2t94.5 -1.5t64 -0.5t63.5 0.5t93.5 1.5t113 2v-63l-121 -7q-42 -2 -61 -15t-19 -42q0 -14 17 -70l276 -815l291 811q16 53 16 74q0 29 -18.5 42t-59.5 15l-114 7v63q218 -4 227 -4q19 0 227 4v-63l-45 -3q-49 -3 -75 -26
q-23 -21 -60 -115zM799 1503q-49 0 -82 32.5t-33 80.5t33 80.5t82 32.5t82.5 -33t33.5 -80t-33.5 -80t-82.5 -33zM1198 1503q-49 0 -82 32.5t-33 80.5t33 80.5t82 32.5t83 -33t34 -80t-34 -80t-83 -33z" />
    <glyph glyph-name="wdieresis" unicode="&#x1e85;" horiz-adv-x="1443" 
d="M1339 811l-350 -831h-33l-225 614l-242 -614h-32l-346 831q-10 23 -21.5 31.5t-36.5 13.5l-45 4v62q148 -4 193 -4q22 0 51 0.5t80.5 1.5t105.5 2v-66l-86 -10q-53 -3 -53 -29q0 -8 8 -29l215 -536l172 442l-43 117q-11 25 -22 34.5t-35 10.5l-43 4v62q126 -4 194 -4
q61 0 205 4v-66l-78 -8q-51 -3 -51 -35q0 -3 2.5 -12t3.5 -13l191 -534l211 532q8 27 8 31q0 26 -53 29l-107 10v66q64 -1 120.5 -2.5t74.5 -1.5q16 0 164 4v-62l-45 -4q-22 -5 -32 -12.5t-20 -32.5zM911 1135q-49 0 -81.5 32t-32.5 80t32.5 80.5t81.5 32.5t83 -33t34 -80
t-34 -79.5t-83 -32.5zM573 1135q-49 0 -81.5 32t-32.5 80t32.5 80.5t81.5 32.5t83 -33t34 -80t-34 -79.5t-83 -32.5z" />
    <glyph glyph-name="Ygrave" unicode="&#x1ef2;" horiz-adv-x="1394" 
d="M600 244v350l-371 530q-54 75 -90.5 101.5t-85.5 31.5l-33 3v63q58 -1 117 -2t93 -1.5t63 -0.5h102q16 1 42 1.5t68.5 1t76.5 1.5v-63l-109 -7q-72 -3 -72 -43q0 -27 37 -80l310 -450l317 446q39 51 39 84q0 40 -72 43l-106 7v63q44 -1 92.5 -2t76.5 -1.5t50 -0.5
q24 0 53 0.5t79 1.5t97 2v-63l-31 -3q-62 -3 -102 -43l-20 -22q-3 -3 -9 -11t-19.5 -26.5t-25.5 -34.5l-376 -526v-350q0 -121 14 -146t84 -28l108 -7v-63q-212 4 -301 4q-91 0 -303 -4v63l109 7q68 3 82 28q16 29 16 146zM526 1831q30 0 49.5 -11.5t45.5 -45.5l235 -322
l-43 -22l-395 325q25 35 54 55.5t54 20.5z" />
    <glyph glyph-name="ygrave" unicode="&#x1ef3;" horiz-adv-x="1003" 
d="M889 811l-373 -856l-160 -422q-12 -37 -71 -37q-37 0 -68 15t-43 38q197 299 268 478l-329 784q-8 20 -20.5 30.5t-37.5 14.5l-47 4v62q102 -4 207 -4q56 0 256 4v-66l-109 -10q-31 -5 -42 -10t-11 -17t8 -31l220 -589l237 589q8 21 8 29q0 26 -53 29l-104 10v66
q153 -4 157 -4h62q49 0 151 4v-62l-47 -4q-25 -5 -37 -13.5t-22 -31.5zM383 1556q57 0 78 -61l143 -422l-49 -12l-276 440q18 24 46.5 39.5t57.5 15.5z" />
    <glyph glyph-name="endash" unicode="&#x2013;" horiz-adv-x="1251" 
d="M102 442l48 117h841q115 0 158 16l-47 -116h-842q-112 0 -158 -17z" />
    <glyph glyph-name="emdash" unicode="&#x2014;" horiz-adv-x="2048" 
d="M102 442l48 117h1638q115 0 158 16l-48 -116h-1638q-112 0 -158 -17z" />
    <glyph glyph-name="quoteleft" unicode="&#x2018;" horiz-adv-x="532" 
d="M360 1118q17 -27 17 -65q0 -47 -31 -77t-82 -30q-63 0 -101 44.5t-38 119.5q0 136 87 237t232 130l19 -54q-93 -26 -155 -88.5t-62 -126.5q0 -29 19.5 -45.5t94.5 -44.5z" />
    <glyph glyph-name="quoteright" unicode="&#x2019;" horiz-adv-x="532" 
d="M172 1305q-16 26 -16 65q0 48 30.5 77.5t81.5 29.5q63 0 101.5 -44.5t38.5 -119.5q0 -136 -87.5 -237t-232.5 -130l-18 53q93 26 155 88.5t62 126.5q0 29 -20 46t-95 45z" />
    <glyph glyph-name="quotesinglbase" unicode="&#x201a;" horiz-adv-x="532" 
d="M172 96q-16 26 -16 66q0 47 30.5 76.5t81.5 29.5q63 0 101.5 -44.5t38.5 -119.5q0 -136 -87.5 -236.5t-232.5 -129.5l-18 53q93 26 155 88.5t62 126.5q0 28 -20 45t-95 45z" />
    <glyph glyph-name="quotedblleft" unicode="&#x201c;" horiz-adv-x="897" 
d="M725 1118q16 -26 16 -65q0 -48 -30.5 -77.5t-81.5 -29.5q-63 0 -101.5 44.5t-38.5 119.5q0 136 87.5 237t232.5 130l18 -54q-93 -26 -155 -88.5t-62 -126.5q0 -28 20 -45t95 -45zM360 1118q17 -27 17 -65q0 -47 -31 -77t-82 -30q-63 0 -101 44.5t-38 119.5q0 136 87 237
t232 130l19 -54q-93 -26 -155 -88.5t-62 -126.5q0 -29 19.5 -45.5t94.5 -44.5z" />
    <glyph glyph-name="quotedblright" unicode="&#x201d;" horiz-adv-x="897" 
d="M537 1305q-17 27 -17 65q0 47 31 77t82 30q63 0 101 -44.5t38 -119.5q0 -136 -87 -237t-232 -130l-19 53q93 26 155 88.5t62 126.5q0 29 -19.5 46.5t-94.5 44.5zM172 1305q-16 26 -16 65q0 48 30.5 77.5t81.5 29.5q63 0 101.5 -44.5t38.5 -119.5q0 -136 -87.5 -237
t-232.5 -130l-18 53q93 26 155 88.5t62 126.5q0 29 -20 46t-95 45z" />
    <glyph glyph-name="quotedblbase" unicode="&#x201e;" horiz-adv-x="897" 
d="M537 96q-17 27 -17 66q0 47 31 76.5t82 29.5q63 0 101 -44.5t38 -119.5q0 -136 -87 -236.5t-232 -129.5l-19 53q93 26 155 88.5t62 126.5q0 29 -19.5 45.5t-94.5 44.5zM172 96q-16 26 -16 66q0 47 30.5 76.5t81.5 29.5q63 0 101.5 -44.5t38.5 -119.5q0 -136 -87.5 -236.5
t-232.5 -129.5l-18 53q93 26 155 88.5t62 126.5q0 28 -20 45t-95 45z" />
    <glyph glyph-name="dagger" unicode="&#x2020;" horiz-adv-x="987" 
d="M537 1311h266v-86h-266v-563h-86v563h-267v86h267v256h86v-256z" />
    <glyph glyph-name="daggerdbl" unicode="&#x2021;" horiz-adv-x="987" 
d="M537 1004h266v-86h-266v-256h-86v256h-267v86h267v221h-267v86h267v256h86v-256h266v-86h-266v-221z" />
    <glyph glyph-name="bullet" unicode="&#x2022;" horiz-adv-x="806" 
d="M403 287q-116 0 -200 84t-84 200q0 117 84 201t200 84q117 0 201 -84t84 -201q0 -116 -84 -200t-201 -84z" />
    <glyph glyph-name="ellipsis" unicode="&#x2026;" horiz-adv-x="1314" 
d="M938 109q0 56 37 93.5t92 37.5t92 -37.5t37 -93.5q0 -54 -37 -90.5t-92 -36.5t-92 36.5t-37 90.5zM528 109q0 56 37 93.5t92 37.5t92 -37.5t37 -93.5q0 -54 -37 -90.5t-92 -36.5t-92 36.5t-37 90.5zM119 109q0 56 37 93.5t92 37.5t92 -37.5t37 -93.5q0 -54 -37 -90.5
t-92 -36.5t-92 36.5t-37 90.5z" />
    <glyph glyph-name="guilsinglleft" unicode="&#x2039;" horiz-adv-x="634" 
d="M532 117l-28 -31l-402 371v4l402 370l28 -30l-215 -314q-10 -17 -10 -26q0 -16 12 -31z" />
    <glyph glyph-name="guilsinglright" unicode="&#x203a;" horiz-adv-x="634" 
d="M102 801l29 30l401 -370v-4l-401 -371l-29 31l213 313q13 16 13 31q0 7 -11 26z" />
    <glyph glyph-name="fraction" unicode="&#x2044;" horiz-adv-x="346" 
d="M487 1030l-768 -1102h-131q106 106 271 338l768 1102h131q-106 -106 -271 -338z" />
    <glyph glyph-name="uni2070" unicode="&#x2070;" horiz-adv-x="831" 
d="M416 1448q138 0 233 -121q96 -122 96 -289q0 -166 -96 -288q-94 -119 -233 -119q-140 0 -234 119q-96 122 -96 288q0 167 96 289q95 121 234 121zM416 688q79 0 124.5 94.5t45.5 255.5t-45.5 256t-124.5 95q-78 0 -123 -95t-45 -256q0 -160 45 -255t123 -95z" />
    <glyph glyph-name="uni2074" unicode="&#x2074;" horiz-adv-x="825" 
d="M432 805v80h-377v28l455 527h61v-477h31q102 0 172 20l-33 -98h-170v-80q0 -75 9 -90q8 -14 51 -17l49 -4v-51h-358v51l51 4q41 4 50 21t9 86zM432 1266l-258 -303h258v303z" />
    <glyph glyph-name="uni2075" unicode="&#x2075;" horiz-adv-x="675" 
d="M184 752q31 -30 56 -41t55 -11q72 0 118 45t46 113q0 80 -75.5 134.5t-246.5 97.5l115 344h342q-5 -36 -25.5 -78t-44.5 -60l-264 -4l-29 -84q180 -37 264.5 -102t84.5 -168q0 -125 -103 -217q-104 -90 -237 -90q-79 0 -134 31t-55 75q0 25 16.5 40.5t41.5 15.5
q34 0 75 -41z" />
    <glyph glyph-name="uni2076" unicode="&#x2076;" horiz-adv-x="761" 
d="M391 631q-129 0 -217 94t-88 236q0 192 156 333t381 162l8 -37q-190 -56 -290.5 -178t-100.5 -299q0 -113 44.5 -185.5t116.5 -72.5q62 0 101 51t39 135q0 94 -67 146.5t-173 42.5v14q35 23 79 40t69 17q102 0 167.5 -60.5t65.5 -154.5q0 -119 -86 -202q-82 -82 -205 -82
z" />
    <glyph glyph-name="uni2077" unicode="&#x2077;" horiz-adv-x="739" 
d="M688 1434v-4l-401 -787h-146v4q98 98 254 381l146 260h-320q-58 0 -90.5 -7.5t-58.5 -27.5h-9l68 181h557z" />
    <glyph glyph-name="uni2078" unicode="&#x2078;" horiz-adv-x="751" 
d="M481 1077q98 -55 139.5 -106t41.5 -113q0 -86 -87 -158q-84 -69 -200 -69q-123 0 -205 61t-82 150q0 58 42.5 104.5t133.5 87.5q-141 85 -141 195q0 88 74 153q75 66 182 66q105 0 179.5 -58.5t74.5 -140.5q0 -109 -152 -172zM379 1395q-55 0 -91 -35t-36 -86
q0 -57 76 -109l28 -18l95 -53q69 51 69 153q0 67 -39 107.5t-102 40.5zM354 981l-61 35q-84 -66 -84 -172q0 -69 48.5 -116.5t117.5 -47.5q63 0 102 39t39 102t-88 117z" />
    <glyph glyph-name="uni2079" unicode="&#x2079;" horiz-adv-x="761" 
d="M371 1448q129 0 217 -94t88 -238q0 -193 -156 -334t-379 -159l-8 34q189 55 289 179t100 301q0 111 -45.5 183.5t-116.5 72.5q-62 0 -100.5 -50.5t-38.5 -134.5q0 -96 67 -148t173 -40v-16q-37 -23 -81 -40.5t-67 -17.5q-103 0 -168 60t-65 157q0 118 86 201
q87 84 205 84z" />
    <glyph glyph-name="uni2080" unicode="&#x2080;" horiz-adv-x="831" 
d="M416 600q138 0 233 -121q96 -122 96 -289q0 -164 -96 -286q-95 -121 -233 -121q-139 0 -234 121q-96 122 -96 286q0 167 96 289q95 121 234 121zM416 -160q79 0 124.5 94.5t45.5 255.5t-45.5 256t-124.5 95q-78 0 -123 -95t-45 -256q0 -160 45 -255t123 -95z" />
    <glyph glyph-name="uni2081" unicode="&#x2081;" horiz-adv-x="626" 
d="M260 -70v461q0 35 -27 35q-20 0 -71 -20l-70 -27l-18 51q105 46 178 88q93 52 131 82h31q-1 -5 -1.5 -15t-1 -27t-1.5 -30v-194v-404q0 -48 10.5 -60.5t48.5 -14.5l92 -2v-58h-457v58l97 2q38 2 48.5 14.5t10.5 60.5z" />
    <glyph glyph-name="uni2082" unicode="&#x2082;" horiz-adv-x="712" 
d="M596 406q0 -83 -70 -181q-78 -104 -288 -297h254q57 0 86.5 10.5t64.5 45.5h14l-67 -189h-535v19q154 156 232 241q81 91 115 158t34 131q0 63 -37.5 98t-105.5 35q-107 0 -193 -108l-28 22q58 95 143.5 152t175.5 57q92 0 148.5 -53t56.5 -141z" />
    <glyph glyph-name="uni2083" unicode="&#x2083;" horiz-adv-x="694" 
d="M434 270q85 -19 131.5 -69.5t46.5 -122.5q0 -120 -106 -207q-107 -88 -254 -88q-79 0 -134 31t-55 75q0 23 17.5 39.5t42.5 16.5q33 0 74 -39q34 -31 59.5 -42t58.5 -11q72 0 117 42t45 111q0 84 -72.5 128t-209.5 44v6q19 27 51 54.5t61 40.5q40 3 74 0q45 45 45 106
q0 44 -34.5 72t-88.5 28q-88 0 -176 -88l-27 21q51 82 130.5 132t160.5 50q80 0 130 -41.5t50 -107.5q0 -97 -137 -181z" />
    <glyph glyph-name="uni2084" unicode="&#x2084;" horiz-adv-x="825" 
d="M432 -43v80h-377v29l455 526h61v-477h31q102 0 172 20l-33 -98h-170v-80q0 -75 9 -90q8 -14 51 -17l49 -4v-51h-358v51l51 4q41 4 50 21t9 86zM432 418l-258 -303h258v303z" />
    <glyph glyph-name="uni2085" unicode="&#x2085;" horiz-adv-x="675" 
d="M184 -96q53 -51 111 -51q72 0 118 44.5t46 112.5q0 80 -75.5 134.5t-246.5 97.5l115 344h342q-5 -36 -25.5 -77.5t-44.5 -59.5l-264 -5l-29 -84q180 -37 264.5 -102t84.5 -168q0 -126 -103 -215q-103 -92 -237 -92q-79 0 -134 31t-55 75q0 25 16.5 40.5t41.5 15.5
q34 0 75 -41z" />
    <glyph glyph-name="uni2086" unicode="&#x2086;" horiz-adv-x="761" 
d="M391 -217q-129 0 -217 94t-88 236q0 192 156 333t381 162l8 -37q-190 -56 -290.5 -178t-100.5 -299q0 -113 44.5 -185.5t116.5 -72.5q62 0 101 51.5t39 135.5q0 94 -67 146.5t-173 41.5v14q35 23 79 40.5t69 17.5q102 0 167.5 -60.5t65.5 -154.5q0 -118 -86 -201
q-84 -84 -205 -84z" />
    <glyph glyph-name="uni2087" unicode="&#x2087;" horiz-adv-x="739" 
d="M688 586v-4l-401 -787h-146v4q98 98 254 381l146 260h-320q-59 0 -91 -7t-58 -27h-9l68 180h557z" />
    <glyph glyph-name="uni2088" unicode="&#x2088;" horiz-adv-x="751" 
d="M481 229q98 -55 139.5 -106t41.5 -113q0 -85 -87 -157q-85 -70 -200 -70q-123 0 -205 61t-82 150q0 58 42.5 104.5t133.5 87.5q-141 85 -141 195q0 89 74 154t182 65q105 0 179.5 -58.5t74.5 -140.5q0 -109 -152 -172zM379 547q-55 0 -91 -35t-36 -86q0 -57 76 -109
l28 -18l95 -53q69 51 69 153q0 67 -39 107.5t-102 40.5zM354 133l-61 35q-84 -66 -84 -172q0 -69 48.5 -116.5t117.5 -47.5q63 0 102 39t39 102t-88 117z" />
    <glyph glyph-name="uni2089" unicode="&#x2089;" horiz-adv-x="761" 
d="M371 600q129 0 217 -94t88 -238q0 -193 -156 -334t-379 -159l-8 35q189 55 289 178.5t100 300.5q0 111 -45.5 183.5t-116.5 72.5q-62 0 -100.5 -50.5t-38.5 -134.5q0 -96 67 -148t173 -40v-16q-37 -23 -81 -40.5t-67 -17.5q-103 0 -168 60t-65 157q0 118 86 201
q87 84 205 84z" />
    <glyph glyph-name="Euro" unicode="&#x20ac;" horiz-adv-x="1323" 
d="M1176 371l43 -23l-72 -192q-135 -176 -371 -176q-202 0 -350 145q-145 145 -180 385h-146v82h138v43q0 39 8 127h-146v82h162q55 222 211 360q157 139 354 139q164 0 303 -92l50 -290l-45 -15q-55 154 -136 225.5t-198 71.5q-129 0 -230 -110q-102 -108 -129 -289h461
l-29 -82h-440q-2 -10 -2 -51q0 -14 6 -119h400l-29 -82h-358q37 -186 138 -293.5t240 -107.5q219 0 347 262z" />
    <glyph glyph-name="trademark" unicode="&#x2122;" horiz-adv-x="1935" 
d="M647 1270h-82v-465q0 -50 9 -67t36 -19l72 -2v-43h-350v43l67 2q30 2 38.5 16.5t8.5 69.5v465h-84q-65 0 -98 -56q-5 -7 -9.5 -15.5t-8 -17.5t-13 -33t-18.5 -46l-31 4l6 59q8 98 11 166q55 -8 188 -8h234q136 0 188 8q3 -95 16 -225l-34 -4q-35 109 -66 137
q-28 31 -80 31zM1524 793l-41 426l-203 -547h-16l-199 547l-45 -431q-6 -42 2.5 -54.5t38.5 -14.5l61 -2v-43h-252v43h39q25 1 37 17.5t17 53.5l45 437q2 26 -7.5 38t-35.5 13l-41 4v43h227l156 -436l155 436h234v-43l-45 -2q-26 -1 -36.5 -15.5t-8.5 -45.5l39 -418
q5 -48 14 -64.5t35 -17.5h37v-43h-291v43h39q32 1 41 16t4 60z" />
    <glyph glyph-name="uni2153" unicode="&#x2153;" horiz-adv-x="1601" 
d="M1065 1030l-768 -1102h-131q102 102 270 338l768 1102h131q-102 -102 -270 -338zM260 778v461q0 35 -27 35q-17 0 -71 -21l-70 -26l-18 51q105 46 178 88q93 52 131 82h31q-1 -5 -1.5 -15t-1 -27t-1.5 -30v-194v-404q0 -48 10.5 -61t48.5 -15l92 -2v-57h-457v57l97 2
q38 2 48.5 15t10.5 61zM1341 475q85 -19 132 -69.5t47 -122.5q0 -119 -107 -207t-254 -88q-79 0 -133.5 31t-54.5 75q0 23 17 39.5t42 16.5q33 0 74 -39q34 -31 60 -42.5t59 -11.5q72 0 116.5 42.5t44.5 111.5q0 84 -72.5 128t-209.5 44v6q19 27 51 54t61 40q40 3 74 0
q45 45 45 107q0 44 -34.5 72t-88.5 28q-88 0 -176 -88l-26 21q51 82 130 132t160 50q80 0 130.5 -42t50.5 -108q0 -95 -138 -180z" />
    <glyph glyph-name="uni2154" unicode="&#x2154;" horiz-adv-x="1722" 
d="M1186 1030l-768 -1102h-131q102 102 270 338l768 1102h131q-102 -102 -270 -338zM1462 475q85 -19 131.5 -69.5t46.5 -122.5q0 -120 -106 -207q-107 -88 -254 -88q-79 0 -133.5 31t-54.5 75q0 23 17 39.5t42 16.5q33 0 74 -39q34 -32 59.5 -43t58.5 -11q72 0 117 42.5
t45 111.5q0 84 -72.5 128t-209.5 44v6q19 27 51 54t61 40q40 3 74 0q45 45 45 107q0 44 -34.5 72t-88.5 28q-88 0 -176 -88l-27 21q51 82 130.5 132t160.5 50q79 0 129.5 -42t50.5 -108q0 -96 -137 -180zM596 1253q0 -82 -70 -180q-78 -104 -288 -297h254q57 0 87 10.5
t64 44.5h14l-67 -188h-535v19q154 156 232 241q81 91 115 158t34 131q0 63 -37.5 98t-105.5 35q-107 0 -193 -108l-28 22q58 95 143.5 152t175.5 57q92 0 148.5 -53.5t56.5 -141.5z" />
    <glyph glyph-name="uni215B" unicode="&#x215b;" horiz-adv-x="1658" 
d="M1389 434q97 -55 138.5 -106t41.5 -113q0 -87 -86 -158q-84 -69 -201 -69q-123 0 -205 61t-82 150q0 58 42.5 104.5t133.5 87.5q-141 85 -141 195q0 88 74 153q75 66 182 66q105 0 179.5 -58.5t74.5 -140.5q0 -110 -151 -172zM1286 752q-55 0 -91 -35t-36 -86
q0 -57 76 -109l29 -18l94 -53q69 51 69 153q0 67 -39 107.5t-102 40.5zM1262 338l-62 35q-84 -66 -84 -172q0 -69 48.5 -116.5t117.5 -47.5q63 0 102 39t39 102t-88 117zM1065 1030l-768 -1102h-131q102 102 270 338l768 1102h131q-102 -102 -270 -338zM260 778v461
q0 35 -27 35q-17 0 -71 -21l-70 -26l-18 51q105 46 178 88q93 52 131 82h31q-1 -5 -1.5 -15t-1 -27t-1.5 -30v-194v-404q0 -48 10.5 -61t48.5 -15l92 -2v-57h-457v57l97 2q38 2 48.5 15t10.5 61z" />
    <glyph glyph-name="uni215C" unicode="&#x215c;" horiz-adv-x="1697" 
d="M1427 434q98 -55 139.5 -106t41.5 -113q0 -87 -86 -158q-84 -69 -201 -69q-123 0 -205 61t-82 150q0 58 42.5 104.5t133.5 87.5q-141 85 -141 195q0 88 74 153q75 66 182 66q105 0 179.5 -58.5t74.5 -140.5q0 -109 -152 -172zM1325 752q-55 0 -91 -35t-36 -86
q0 -57 76 -109l29 -18l94 -53q69 51 69 153q0 67 -39 107.5t-102 40.5zM1300 338l-61 35q-84 -66 -84 -172q0 -69 48.5 -116.5t117.5 -47.5q63 0 102 39t39 102t-88 117zM1104 1030l-768 -1102h-131q102 102 270 338l768 1102h131q-102 -102 -270 -338zM434 1118
q85 -19 131.5 -69.5t46.5 -122.5q0 -120 -106 -207q-107 -88 -254 -88q-79 0 -134 31t-55 75q0 23 17.5 39.5t42.5 16.5q33 0 74 -39q34 -32 59.5 -43t58.5 -11q72 0 117 42.5t45 111.5q0 84 -72.5 128t-209.5 44v6q19 27 51 54t61 40q40 3 74 0q45 45 45 107q0 44 -34.5 72
t-88.5 28q-88 0 -176 -88l-27 21q51 82 130.5 132t160.5 50q79 0 129.5 -42t50.5 -108q0 -96 -137 -180z" />
    <glyph glyph-name="uni215D" unicode="&#x215d;" horiz-adv-x="1669" 
d="M1075 1030l-768 -1102h-131q102 102 270 338l768 1102h132q-106 -106 -271 -338zM1399 434q97 -55 138.5 -106t41.5 -113q0 -87 -86 -158q-84 -69 -201 -69q-123 0 -205 61q-81 60 -81 150q0 58 42.5 104.5t133.5 87.5q-142 85 -142 195q0 88 74 153q75 66 182 66
q105 0 179.5 -58.5t74.5 -140.5q0 -110 -151 -172zM1296 752q-55 0 -91 -35t-36 -86q0 -57 76 -109l29 -18l94 -53q70 52 70 153q0 67 -39.5 107.5t-102.5 40.5zM1272 338l-62 35q-84 -66 -84 -172q0 -69 48.5 -116.5t117.5 -47.5q63 0 102.5 39t39.5 102t-88 117zM184 752
q31 -30 56 -41t55 -11q72 0 118 45t46 113q0 80 -75.5 134.5t-246.5 97.5l115 344h342q-5 -36 -25.5 -78t-44.5 -60l-264 -4l-29 -84q180 -37 264.5 -102t84.5 -168q0 -125 -103 -217q-104 -90 -237 -90q-79 0 -134 31t-55 75q0 25 16.5 40.5t41.5 15.5q34 0 75 -41z" />
    <glyph glyph-name="uni215E" unicode="&#x215e;" horiz-adv-x="1597" 
d="M1327 434q97 -55 138.5 -106t41.5 -113q0 -87 -86 -158q-84 -69 -200 -69q-123 0 -205 61t-82 150q0 58 42.5 104.5t133.5 87.5q-141 85 -141 195q0 89 73 153q75 66 183 66q105 0 179.5 -58.5t74.5 -140.5q0 -109 -152 -172zM1225 752q-55 0 -91 -35t-36 -86
q0 -57 76 -109l28 -18l94 -53q70 52 70 153q0 67 -39 107.5t-102 40.5zM1200 338l-61 35q-84 -66 -84 -172q0 -69 48.5 -116.5t117.5 -47.5q63 0 102 39t39 102t-88 117zM1004 1030l-768 -1102h-132q106 106 271 338l768 1102h131q-102 -102 -270 -338zM688 1434v-4
l-401 -787h-146v4q98 98 254 381l146 260h-320q-58 0 -90.5 -7.5t-58.5 -27.5h-9l68 181h557z" />
    <glyph glyph-name="minus" unicode="&#x2212;" 
d="M1169 711l-20 -109h-1090l21 109h1089z" />
    <glyph glyph-name="commaaccent" unicode="&#xf6c3;" horiz-adv-x="1024" 
d="M416 -295q-17 24 -17 62q0 43 33 71.5t82 28.5q60 0 98.5 -43.5t38.5 -112.5q0 -86 -64.5 -158t-170.5 -104l-29 53q65 23 101 54.5t36 64.5t-23 52t-85 32z" />
    <glyph glyph-name="Q.1" horiz-adv-x="1519" 
d="M2683 -266l14 -47q-110 -119 -276 -191q-171 -74 -338 -74q-199 0 -385 52q-197 55 -451 172q-269 122 -778 399q-182 83 -291 248q-106 160 -106 364q0 137 52 262.5t150 223.5q98 96 224.5 148t261.5 52t261 -51t224 -145q98 -97 150.5 -221t52.5 -260
q0 -244 -154 -433q-150 -184 -389 -237q393 -178 608 -264q196 -76 351 -113q146 -35 290 -35q328 0 529 150zM287 668q0 -255 133 -426q134 -168 340 -168t338 164q135 164 135 417q0 255 -135 424q-132 170 -338 170q-205 0 -340 -164q-133 -165 -133 -417z" />
    <glyph glyph-name="idotaccent" horiz-adv-x="540" 
d="M449 66l49 -3v-63q-164 4 -222 4q-47 0 -223 -4v63l49 3q59 4 71.5 15.5t12.5 55.5v525q0 43 -10.5 61.5t-40.5 36.5l-65 41v26q131 40 284 125h21q-10 -156 -10 -561v-254q0 -44 12.5 -55.5t71.5 -15.5zM274 1401q51 0 86 -35t35 -86t-35 -85t-86 -34t-84.5 34t-33.5 85
t33.5 86t84.5 35z" />
    <glyph glyph-name="a.ord" horiz-adv-x="727" 
d="M236 627q-68 0 -115 44t-47 107q0 57 40.5 101.5t112.5 64.5l201 62l2 108q0 56 -37.5 88.5t-103.5 32.5q-32 0 -52 -21t-20 -53q0 -17 6 -59q-51 -19 -104 -19q-25 0 -25 21q0 64 105 141q110 78 188 78q92 0 141.5 -49.5t49.5 -143.5l-7 -327q0 -35 20 -56.5t52 -21.5
q31 0 55 12l7 -8q-14 -43 -53.5 -73.5t-82.5 -30.5q-86 0 -139 94q-43 -41 -96.5 -66.5t-97.5 -25.5zM426 748l2 210l-125 -40q-82 -26 -82 -97q0 -44 29 -73t72 -29q48 0 104 29z" />
    <glyph glyph-name="b.ord" horiz-adv-x="868" 
d="M279 1331v-121q56 50 120 81.5t111 31.5q125 0 205 -86t80 -219q0 -163 -107 -279q-54 -55 -125 -85.5t-145 -30.5q-81 0 -159 22.5t-134 61.5q2 57 2 231v612q0 34 -7.5 47.5t-29.5 24.5l-55 27v18q142 40 231 82h19q-6 -109 -6 -418zM408 1219q-77 0 -129 -37v-367
q0 -57 41.5 -95t103.5 -38q103 0 161 73t58 206q0 111 -66.5 184.5t-168.5 73.5z" />
    <glyph glyph-name="c.ord" horiz-adv-x="718" 
d="M395 623q-131 0 -227 90q-92 92 -92 231q0 157 108 268q111 111 262 111q86 0 145.5 -35t59.5 -86q0 -32 -18 -52t-49 -20q-26 0 -42.5 13t-39.5 53q-23 38 -39 51t-41 13q-81 0 -139 -73.5t-58 -182.5q0 -115 70 -191q72 -78 168 -78q101 0 176 90l23 -14
q-32 -86 -105.5 -137t-161.5 -51z" />
    <glyph glyph-name="d.ord" horiz-adv-x="886" 
d="M602 618h-16l4 107q-56 -45 -117.5 -73.5t-103.5 -28.5q-126 0 -211 88q-84 90 -84 217q0 163 106 278q54 55 124.5 86t144.5 31q66 0 141 -33v260q0 31 -8 46t-29 26l-55 27v18q163 48 231 82h19q-7 -64 -7 -418v-567q0 -21 5.5 -28t27.5 -11l72 -6v-35q-45 -9 -144 -37
t-100 -29zM225 991q0 -114 70 -190t174 -76q61 0 121 31v377q0 37 -47 84q-45 45 -101 45q-100 0 -158.5 -72t-58.5 -199z" />
    <glyph glyph-name="e.ord" horiz-adv-x="743" 
d="M653 834l21 -13q-31 -88 -106.5 -143t-166.5 -55q-146 0 -236.5 91.5t-90.5 239.5q0 152 102 260q106 109 240 109q108 0 177 -62.5t69 -156.5q0 -25 -16 -39t-42 -14h-381q-2 -10 -2 -54q0 -112 69.5 -186t172.5 -74q109 0 190 97zM516 1143q0 56 -31 89.5t-84 33.5
q-61 0 -106 -45t-64 -125l254 8q31 0 31 39z" />
    <glyph glyph-name="f.ord" horiz-adv-x="528" 
d="M483 1223l-176 4v-484q0 -31 11 -41t53 -14l69 -4v-47h-374v47q66 4 78 12t12 41v455l-97 51v12l97 72q3 178 106 293q54 61 128.5 95t152.5 34q74 0 118 -25.5t44 -68.5q0 -27 -19.5 -45.5t-48.5 -18.5q-19 0 -35 8.5t-47 34.5q-50 43 -86 43q-162 0 -162 -331v-50
l209 7q-3 -37 -33 -80z" />
    <glyph glyph-name="g.ord" horiz-adv-x="800" 
d="M764 575q0 -126 -127 -215q-125 -88 -301 -88q-135 0 -214 45.5t-79 124.5q0 55 44 98t124 68q-109 27 -109 119q0 49 38.5 95.5t95.5 70.5q-66 26 -104 79.5t-38 119.5q0 102 76.5 166.5t194.5 64.5q85 0 159 -41l117 21q91 16 96 16q27 0 27 -49q0 -41 -19 -68
q-95 28 -159 31q53 -59 53 -129q0 -102 -78 -169t-196 -67q-55 0 -101 15q-26 -13 -40.5 -35.5t-14.5 -46.5q0 -53 80 -53h260q100 0 157.5 -46t57.5 -127zM250 1112q0 -87 34 -140.5t91 -53.5q108 0 108 161q0 87 -33.5 141t-89.5 54q-53 0 -81.5 -43t-28.5 -119zM633 506
q0 98 -146 98h-254q-59 -38 -59 -108q0 -72 58.5 -114t158.5 -42t171 48.5t71 117.5z" />
    <glyph glyph-name="h.ord" horiz-adv-x="874" 
d="M391 684v-47h-332v47q66 4 78.5 12t12.5 41v813q0 34 -7.5 47.5t-29.5 24.5l-56 27v18q145 41 232 82h18q-6 -55 -6 -418v-123q61 54 127.5 84.5t122.5 30.5q87 0 135.5 -56.5t48.5 -156.5v-373q0 -33 12 -41t78 -12v-47h-331v47q66 4 78 12t12 41v314q0 82 -38 124
t-112 42q-68 0 -133 -35v-445q0 -33 12 -41t78 -12z" />
    <glyph glyph-name="i.ord" horiz-adv-x="456" 
d="M236 1466q-38 0 -66.5 28.5t-28.5 66.5q0 41 27 68.5t68 27.5t68.5 -27.5t27.5 -68.5q0 -39 -27.5 -67t-68.5 -28zM397 684v-47h-331v47q66 4 78 12t12 41v375q0 28 -7.5 43t-27.5 29l-47 33v18q135 47 223 96h16q-6 -117 -6 -407v-187q0 -33 12 -41t78 -12z" />
    <glyph glyph-name="j.ord" horiz-adv-x="432" 
d="M229 1466q-41 0 -68.5 28t-27.5 67q0 41 27.5 68.5t68.5 27.5t69 -27.5t28 -68.5q0 -39 -28 -67t-69 -28zM299 924v-332q0 -105 -74 -190.5t-207 -127.5l-12 25q86 59 113 127q28 73 28 238v448q0 30 -7 44t-27 28l-45 33v18q123 42 221 96h18q-8 -96 -8 -407z" />
    <glyph glyph-name="k.ord" horiz-adv-x="882" 
d="M391 684v-47h-332v47q66 4 78.5 12t12.5 41v813q0 34 -7.5 47.5t-29.5 24.5l-56 27v18q145 41 232 82h18q-6 -55 -6 -418v-309q72 0 111 39l180 158q14 11 14 22q0 4 -6 7t-28 7t-66 9v45h307v-45q-47 -5 -71 -12t-46 -25l-225 -185l250 -297q26 -35 51.5 -47t75.5 -14
v-47h-361v47q49 2 63.5 5t14.5 13t-10 23l-154 199q-35 49 -100 73v-260q0 -33 12 -41t78 -12z" />
    <glyph glyph-name="l.ord" horiz-adv-x="448" 
d="M391 684v-47h-332v47q66 4 78.5 12t12.5 41v813q0 34 -7.5 47.5t-29.5 24.5l-56 27v18q145 41 232 82h18q-6 -55 -6 -418v-594q0 -33 12 -41t78 -12z" />
    <glyph glyph-name="m.ord" horiz-adv-x="1292" 
d="M397 684v-47h-331v47q66 4 78 12t12 41v375q0 28 -7.5 43t-27.5 29l-47 33v18q135 47 223 96h16l-6 -123q131 115 244 115q131 0 170 -127q63 60 131 93.5t125 33.5q85 0 132.5 -56t47.5 -155v-375q0 -33 12 -41t78 -12v-47h-332v47q66 4 78.5 12t12.5 41v320
q0 160 -142 160q-74 0 -139 -43q6 -18 6 -62v-375q0 -33 12 -41t78 -12v-47h-332v47q67 6 80 13.5t13 39.5v320q0 160 -144 160q-72 0 -131 -35v-445q0 -33 12 -41t78 -12z" />
    <glyph glyph-name="n.ord" horiz-adv-x="878" 
d="M397 684v-47h-331v47q66 4 78 12t12 41v375q0 28 -7.5 43t-27.5 29l-47 33v18q135 47 223 96h16l-6 -121q140 113 250 113q87 0 134.5 -56.5t47.5 -156.5v-373q0 -32 12 -39.5t78 -13.5v-47h-329v47q66 6 78 13.5t12 39.5v314q0 166 -152 166q-69 0 -131 -35v-445
q0 -33 12 -41t78 -12z" />
    <glyph glyph-name="o.ord" horiz-adv-x="849" 
d="M74 969q0 150 102 252t248 102q149 0 250 -98q102 -99 102 -250q0 -150 -102 -252q-100 -100 -250 -100q-149 0 -250 98q-100 97 -100 248zM240 979q0 -131 51 -214t133 -83q84 0 134 77.5t50 207.5q0 134 -50 215.5t-134 81.5q-82 0 -133 -79t-51 -206z" />
    <glyph glyph-name="p.ord" horiz-adv-x="880" 
d="M354 340l99 -4v-49h-404v47q64 4 78 12.5t14 40.5v725q0 28 -8 43t-29 29l-45 33v18q126 43 222 96h18l-8 -117q56 44 123 76.5t108 32.5q125 0 205 -86t80 -219q0 -166 -100 -275q-54 -57 -124 -88.5t-143 -31.5q-82 0 -149 28v-262q0 -29 12 -38t51 -11zM438 680
q103 0 160 74t57 207q0 110 -66.5 184t-166.5 74q-81 0 -131 -35v-393q3 -31 53 -72q48 -39 94 -39z" />
    <glyph glyph-name="q.ord" horiz-adv-x="872" 
d="M831 334v-47h-403v49l100 4q37 2 49.5 11t12.5 38v336q-55 -45 -115.5 -73.5t-103.5 -28.5q-126 0 -211 88q-86 89 -86 217q0 163 106 278q54 55 125.5 86t145.5 31q89 0 202 -55l66 63h29q-7 -55 -7 -237v-707q0 -33 12.5 -41t77.5 -12zM225 991q0 -110 72 -188t176 -78
q60 0 117 31v377q0 37 -47 84q-45 45 -101 45q-100 0 -158.5 -72t-58.5 -199z" />
    <glyph glyph-name="r.ord" horiz-adv-x="657" 
d="M371 688l69 -4v-47h-374v47q66 4 78 12t12 41v375q0 28 -7.5 43t-27.5 29l-47 33v18q135 47 223 96h16l-6 -178q133 170 217 170q38 0 63 -25t25 -63q0 -36 -22 -60t-55 -24q-22 0 -56 20q-27 19 -43 19q-23 0 -61 -23t-68 -53v-371q0 -31 11 -41t53 -14z" />
    <glyph glyph-name="s.ord" horiz-adv-x="638" 
d="M555 836q0 -91 -73.5 -152t-180.5 -61q-62 0 -121.5 19.5t-91.5 51.5l-14 178h37q25 -92 74.5 -141t117.5 -49q54 0 86.5 26.5t32.5 69.5q0 37 -26.5 64.5t-108.5 68.5q-109 52 -147 97.5t-38 111.5q0 86 68.5 144.5t167.5 58.5q112 0 184 -63l15 -160h-35
q-47 164 -166 164q-48 0 -77.5 -24.5t-29.5 -65.5q0 -37 28 -65t110 -65q111 -52 149.5 -97t38.5 -111z" />
    <glyph glyph-name="t.ord" horiz-adv-x="581" 
d="M315 623q-78 0 -127 38.5t-49 100.5l8 414l-88 69v12q124 83 209 185h27q-4 -86 -4 -148l237 6q-2 -19 -11 -42t-21 -35l-205 2v-414q0 -86 119 -86q68 0 127 41l14 -12q-33 -58 -98 -94.5t-138 -36.5z" />
    <glyph glyph-name="u.ord" horiz-adv-x="864" 
d="M567 621h-16l4 118q-124 -116 -231 -116q-85 0 -133 51t-48 143v369q0 31 -10.5 42.5t-36.5 16.5l-51 8v41q50 2 231 19h23l-6 -158v-117v-161q0 -80 31 -117t100 -37t131 43v426q0 29 -10 38.5t-37 14.5l-62 6v41q188 13 242 21h25q-6 -55 -6 -275v-274q0 -21 5 -28
t27 -11l74 -6v-35q-95 -19 -246 -63z" />
    </font>
</defs>
</svg>
