<?xml version="1.0" standalone="no"?>
<!DOCTYPE svg PUBLIC "-//W3C//DTD SVG 1.1//EN" "http://www.w3.org/Graphics/SVG/1.1/DTD/svg11.dtd" >
<svg xmlns="http://www.w3.org/2000/svg" xmlns:xlink="http://www.w3.org/1999/xlink" version="1.1">
<metadata>
Created by FontForge 20170731 at Fri Jan  1 02:30:17 1904
 By Aleksey,,,
\251 Copyright by The Ensched\216 Font Foundry, 1992.  All Rights reserved.  Lexicon is a registered TradeMark of TEFF.  Lexicon\250 is protected by copyright law.  Unauthorized copying or modification of any of its data is illegal.
</metadata>
<defs>
<font id="LexiconNo2-RomanA" horiz-adv-x="278" >
  <font-face 
    font-family="LexiconNo2"
    font-weight="400"
    font-stretch="normal"
    units-per-em="1000"
    panose-1="2 0 5 3 7 0 0 2 0 4"
    ascent="800"
    descent="-200"
    x-height="491"
    cap-height="678"
    bbox="-307 -334 1113 926"
    underline-thickness="0"
    underline-position="0"
    unicode-range="U+0020-FB02"
  />
<missing-glyph horiz-adv-x="333" 
 />
    <glyph glyph-name="fi" unicode="fi" horiz-adv-x="618" 
d="M344 0v34l52 8q12 2 16.5 7.5t4.5 17.5v367h-214v-369q0 -11 4 -15.5t15 -6.5l64 -9v-34h-254v34l54 8q21 3 21 25v367h-78v29l78 24q1 56 8.5 96t26.5 79q16 33 41.5 60.5t57.5 47t69 30t76 10.5q55 0 91 -20.5t36 -51.5q0 -20 -14 -36.5t-46 -34.5q-22 35 -55.5 57
t-67.5 22q-26 0 -50 -12.5t-39 -33.5q-23 -30 -30 -69q-2 -12 -3.5 -22.5t-2.5 -22.5t-1.5 -27t-0.5 -36v-38h153q32 0 53.5 2t38.5 5q43 9 66 26v-453q0 -12 3.5 -16t15.5 -6l53 -9v-34h-242z" />
    <glyph glyph-name="fl" unicode="fl" horiz-adv-x="618" 
d="M416 722q-27 14 -45.5 20t-35.5 6q-42 0 -73 -28q-29 -26 -41 -60q-5 -14 -8.5 -29t-5.5 -33.5t-3 -41.5t-1 -54v-16h213v236zM343 0v34l52 8q21 3 21 23v371h-213v-371q0 -11 3.5 -15.5t15.5 -6.5l61 -9v-34h-252v34l55 8q21 3 21 23v371h-72v28l74 23q1 34 3.5 59.5
t6.5 46t10 37.5t15 35q32 64 90.5 101t127.5 37q17 0 35.5 -2t44.5 -7l70 20v-749q0 -11 3.5 -15.5t15.5 -6.5l59 -9v-34h-247z" />
    <glyph glyph-name=".notdef" horiz-adv-x="333" 
 />
    <glyph glyph-name=".null" horiz-adv-x="0" 
 />
    <glyph glyph-name="nonmarkingreturn" horiz-adv-x="198" 
 />
    <glyph glyph-name="space" unicode=" " horiz-adv-x="198" 
 />
    <glyph glyph-name="exclam" unicode="!" 
d="M219 72q0 -33 -23.5 -56t-56.5 -23t-56 23t-23 56t23 56.5t56 23.5t56.5 -23.5t23.5 -56.5zM207 589q0 -39 -4.5 -83t-13.5 -104l-8 -44l-8 -44q-3 -15 -5.5 -28t-5 -26.5t-6 -29.5t-8.5 -38h-32l-6 38q-4 25 -7 47t-5.5 43.5t-4 44.5t-3.5 50q-2 26 -3.5 47t-2 40.5
t-1 38.5t-0.5 41v38v30t0.5 24.5t1.5 24.5t2 30l13 -5q38 -15 57 -27.5t30 -26.5q20 -25 20 -81z" />
    <glyph glyph-name="dollar" unicode="$" horiz-adv-x="520" 
d="M373 163q0 38 -23 63q-12 13 -26.5 23t-44.5 24v-222q45 8 69.5 37t24.5 75zM238 612q-42 -8 -67 -36t-25 -70q0 -34 23 -59q5 -5 10 -9t12.5 -8.5t18.5 -10t28 -12.5v205zM461 201q0 -37 -13 -72t-37 -63t-54 -45t-78 -29v-100h-41v95h-16q-83 0 -128.5 31t-45.5 88
q0 42 24 81q27 -60 69.5 -94.5t96.5 -41.5v240l-42 17q-38 16 -59 29t-37 32q-36 40 -36 103q0 36 12.5 67.5t35 56.5t54.5 42t72 25v76h41v-70h24t18 -1t15.5 -2t17.5 -2q48 -8 74.5 -30.5t26.5 -55.5q0 -20 -6.5 -35.5t-23.5 -37.5q-14 24 -29.5 42t-34.5 33
q-20 17 -38 24t-44 9v-222l42 -16q140 -54 140 -174z" />
    <glyph glyph-name="percent" unicode="%" horiz-adv-x="720" 
d="M602 143q0 54 -23 87.5t-61 33.5q-39 0 -62 -30.5t-23 -81.5q0 -54 24 -87.5t63 -33.5q37 0 59.5 31t22.5 81zM301 509q0 54 -23.5 87.5t-61.5 33.5q-39 0 -62 -30.5t-23 -81.5q0 -54 24.5 -87t62.5 -33q37 0 60 30.5t23 80.5zM676 163q0 -37 -13 -69.5t-36 -56.5
t-53.5 -37.5t-66.5 -13.5q-33 0 -61 11t-47.5 31t-30.5 48t-11 62q0 36 13.5 67.5t36.5 54.5t54.5 36.5t67.5 13.5q31 0 58 -11t47 -31t31 -47t11 -58zM78 -10l-37 33l612 645l35 -34zM375 529q0 -37 -13 -69t-36 -56t-54 -37.5t-66 -13.5q-67 0 -108.5 41.5t-41.5 109.5
q0 36 13.5 67.5t36.5 54.5t54 36.5t67 13.5q31 0 58.5 -11t47 -31t31 -47t11.5 -58z" />
    <glyph glyph-name="ampersand" unicode="&#x26;" horiz-adv-x="713" 
d="M451 121q-7 10 -12 18t-10.5 15.5t-12.5 15.5t-17 20q-18 22 -35 40.5t-32 33.5q-11 10 -20 19t-20.5 19t-27.5 22.5t-39 31.5q-37 -29 -58.5 -69t-21.5 -80q0 -31 12 -57.5t33 -45.5t49.5 -30t62.5 -11q86 0 149 58zM383 537q0 36 -25 60.5t-61 24.5q-35 0 -58.5 -23
t-23.5 -58q0 -26 16.5 -55t51.5 -58l18 -15q18 11 27 18t18 18q17 19 27 42.5t10 45.5zM680 4q-32 -7 -51.5 -8.5t-31.5 -1.5q-33 0 -55 13q-13 7 -25 21q-7 7 -12 13t-10.5 13t-11.5 16.5t-15 23.5q-99 -111 -223 -111q-43 0 -80 14.5t-64 39.5t-42 59.5t-15 74.5
q0 37 15.5 74t41.5 63q20 20 44 32.5t69 26.5q-79 64 -79 141q0 34 15 64.5t40.5 53.5t59.5 36t73 13q31 0 57.5 -9t46 -25.5t30 -39t10.5 -49.5q0 -26 -11.5 -50.5t-31.5 -42.5t-45.5 -31t-64.5 -26q15 -12 26 -20.5t21 -17t20.5 -17.5t23.5 -21q16 -15 28.5 -27.5
t21.5 -23.5q6 -8 12 -14.5t12 -15t13.5 -19.5t18.5 -27q8 17 12 27t8 26q6 23 9.5 46t3.5 40q0 15 -5 19t-26 8l-36 7v36h222v-36l-54 -8q-8 -1 -15.5 -3.5t-11.5 -4.5q-5 -3 -8 -8t-7 -19l-7 -23q-2 -7 -5 -16.5t-8 -21.5q-6 -15 -11.5 -26t-10.5 -20.5t-11 -19.5t-13 -23
l-5 -9l21 -31q24 -36 40 -53t33 -26q14 -8 33 -13t36 -5h4v-34z" />
    <glyph glyph-name="parenleft" unicode="(" 
d="M232 -310q-10 9 -17.5 15.5t-13.5 12.5t-12.5 13t-13.5 16q-52 61 -81 128q-32 75 -49 173t-17 208q0 119 21 219t66 185q24 48 53.5 88t57.5 64l28 -28q-12 -15 -18.5 -25t-18.5 -29q-14 -24 -26.5 -47.5t-22.5 -46.5q-31 -74 -46.5 -167t-15.5 -200q0 -100 13 -194
t38 -167q20 -60 46.5 -109t55.5 -78z" />
    <glyph glyph-name="parenright" unicode=")" 
d="M250 247q0 -119 -21.5 -218.5t-65.5 -184.5q-24 -48 -53.5 -88.5t-57.5 -63.5l-29 28q6 7 10.5 12.5t8.5 11.5t8.5 12.5t10.5 16.5q14 24 26.5 48t22.5 47q31 74 46.5 166.5t15.5 199.5q0 100 -13.5 194t-37.5 167q-20 60 -46.5 109t-55.5 78l27 31q10 -8 17.5 -14.5
t13.5 -13t12 -13.5t14 -16q52 -61 81 -128q32 -75 49 -172.5t17 -208.5z" />
    <glyph glyph-name="asterisk" unicode="*" horiz-adv-x="389" 
d="M225 631l103 -93l-58 -50l-79 125l-68 -124l-62 46l96 96l-135 33l29 69l122 -68l-22 142h80l-21 -142l123 68l31 -69z" />
    <glyph glyph-name="plus" unicode="+" horiz-adv-x="556" 
d="M310 244v-244h-62v244h-232v61h232v232h62v-232h230v-61h-230z" />
    <glyph glyph-name="comma" unicode="," 
d="M230 57q0 -73 -51 -128.5t-139 -80.5l-7 -1l-9 38q57 11 90.5 40.5t33.5 65.5q0 14 -7 20.5t-24 9.5l-3 1q-53 9 -53 59q0 31 22.5 52t56.5 21q39 0 64.5 -27.5t25.5 -69.5z" />
    <glyph glyph-name="hyphen" unicode="-" horiz-adv-x="333" 
d="M20 243v88h293v-88h-293z" />
    <glyph glyph-name="hyphen" unicode="&#xad;" horiz-adv-x="333" 
d="M20 243v88h293v-88h-293z" />
    <glyph glyph-name="period" unicode="." 
d="M219 72q0 -33 -23.5 -56t-56.5 -23t-56 23t-23 56t23 56.5t56 23.5t56.5 -23.5t23.5 -56.5z" />
    <glyph glyph-name="slash" unicode="/" horiz-adv-x="322" 
d="M62 -172l-51 14l239 889l51 -13z" />
    <glyph glyph-name="zero" unicode="0" horiz-adv-x="561" 
d="M426 241q0 47 -11 85t-31 65t-47.5 42t-60.5 15q-32 0 -58.5 -13.5t-45 -38t-29 -59t-10.5 -75.5q0 -46 11.5 -85.5t32 -68.5t48.5 -45.5t60 -16.5q31 0 56.5 14t44.5 38.5t29.5 58.5t10.5 74v10zM526 266q0 -60 -19.5 -111t-55 -88.5t-83.5 -58.5t-105 -21q-50 0 -92 18
t-72 50t-47 76t-17 97q0 59 20 110t55 88t83 58t104 21q49 0 91 -18t73 -50t48 -75.5t17 -95.5z" />
    <glyph glyph-name="one" unicode="1" horiz-adv-x="368" 
d="M48 0v34l63 13q13 1 15 3q8 2 12 5q14 8 14 30v288q0 23 -4 31t-17 8q-8 0 -19 -2.5t-23 -7.5l-49 -20v38l205 114v-449q0 -18 4.5 -25.5t18.5 -9.5l16 -3l61 -13v-34h-297z" />
    <glyph glyph-name="two" unicode="2" horiz-adv-x="510" 
d="M451 0h-419l39 40q31 31 60.5 63t55.5 62t48.5 57t38.5 49q35 47 35 86q0 30 -23 50.5t-57 20.5q-42 0 -86.5 -30t-81.5 -83v33q0 18 6 34.5t16 32.5q27 44 79.5 70t113.5 26q30 0 55.5 -8.5t44 -24t29 -37t10.5 -46.5q0 -73 -90 -158l-107 -103l-48 -47h253q9 0 11 1
q2 0 8 2q5 2 8.5 7.5t10.5 20.5h29z" />
    <glyph glyph-name="three" unicode="3" horiz-adv-x="484" 
d="M433 69q0 -46 -23.5 -88.5t-62.5 -74.5t-90 -51.5t-106 -19.5q-61 0 -95.5 22t-34.5 63q0 12 2.5 22.5t8.5 25.5q70 -70 157 -70q30 0 56 10t45 27t30 41t11 51q0 58 -49 92t-140 41l1 11q14 8 24.5 14.5t19.5 12t18 12t20 14.5q48 35 69 64.5t21 60.5q0 34 -23 56.5
t-58 22.5q-23 0 -49 -9t-51 -26t-43.5 -36t-41.5 -51q0 21 1 36t3.5 26t6 19t9.5 17q15 22 36.5 40.5t47 32t53.5 21t56 7.5q31 0 58 -9t46 -24.5t30 -37.5t11 -48q0 -23 -10 -47.5t-28 -44.5q-16 -18 -39 -34q-9 -6 -17 -11t-16.5 -10t-20 -11t-28.5 -15q87 -2 136 -40
t49 -104z" />
    <glyph glyph-name="four" unicode="4" horiz-adv-x="541" 
d="M307 390l-200 -256h200v256zM509 57h-118v-230h-84v230h-297v23l349 444h32v-390h94q14 0 18.5 3.5t12.5 21.5h28z" />
    <glyph glyph-name="five" unicode="5" horiz-adv-x="510" 
d="M427 404h-271l-20 -105q64 -5 104.5 -14.5t77.5 -27.5q56 -27 88.5 -77t32.5 -108q0 -48 -20.5 -91t-55 -75.5t-81 -51t-98.5 -18.5q-63 0 -99.5 24t-36.5 66q0 22 10 43q29 -29 73.5 -46t89.5 -17q61 0 98.5 33t37.5 87q0 37 -21 69t-59 56.5t-91 39.5t-117 19l59 281
h266q14 0 21.5 3.5t13.5 15.5l4 8h27z" />
    <glyph glyph-name="six" unicode="6" horiz-adv-x="556" 
d="M400 180q0 43 -18 79q-42 83 -146 83q-13 0 -23 -0.5t-20.5 -2t-22 -4.5t-26.5 -7q-3 -17 -4 -26.5t-1 -26.5q0 -50 11 -91.5t30.5 -72.5t46.5 -48t59 -17q25 0 46 10t36 28t23.5 42.5t8.5 53.5zM518 599v-6t-1 -9q-19 6 -37.5 8.5t-39.5 2.5q-42 0 -84 -13t-77 -38
q-47 -32 -78 -79.5t-54 -118.5q46 33 84 47.5t77 14.5q41 0 76.5 -15t61.5 -41t40.5 -61.5t14.5 -77.5q0 -47 -19 -88t-51 -71.5t-75 -48.5t-92 -18q-50 0 -90.5 18.5t-69.5 51.5t-45 79.5t-16 102.5q0 87 30.5 163.5t83.5 133t124.5 89.5t152.5 33q45 0 64.5 -14t19.5 -45z
" />
    <glyph glyph-name="seven" unicode="7" horiz-adv-x="530" 
d="M146 -114q-14 -22 -20.5 -30t-16.5 -15q-11 -8 -25 -11.5t-35 -3.5q-8 0 -13.5 0.5l-16.5 1.5l402 572h-299q-20 0 -29.5 -7.5t-18.5 -30.5h-31l30 129h468z" />
    <glyph glyph-name="eight" unicode="8" horiz-adv-x="533" 
d="M392 157q0 41 -28 71.5t-98 60.5l-47 20q-40 -32 -57 -63t-17 -69q0 -28 10 -52.5t27.5 -42.5t41.5 -28t52 -10q25 0 46 8.5t36.5 23.5t24.5 36t9 45zM384 502q0 45 -32.5 74t-81.5 29q-24 0 -45 -8t-36 -21.5t-24 -31.5t-9 -39q0 -35 24 -61q16 -16 39 -31t46 -24
l43 -17q76 57 76 130zM483 187q0 -41 -18 -77.5t-48.5 -63.5t-71 -43t-86.5 -16q-45 0 -83.5 13t-66 35.5t-43.5 54t-16 68.5q0 55 39 98t108 63q-24 13 -35 19t-24 15q-34 23 -51.5 55.5t-17.5 71.5t16.5 71.5t45.5 56t69 37t87 13.5q40 0 74 -10.5t59 -29.5t38.5 -45
t13.5 -57q0 -51 -38.5 -90.5t-107.5 -61.5q31 -13 46.5 -21t32.5 -20q78 -55 78 -136z" />
    <glyph glyph-name="nine" unicode="9" horiz-adv-x="556" 
d="M418 219q0 49 -11 91t-30.5 73t-46.5 48t-59 17q-24 0 -45 -10t-36.5 -28t-24 -42.5t-8.5 -53.5q0 -20 4.5 -40.5t13.5 -37.5q43 -84 146 -84q13 0 23 0.5t20.5 2t22 4t26.5 7.5q3 17 4 26.5t1 26.5zM514 255q0 -87 -30.5 -163.5t-83.5 -133t-124.5 -89.5t-152.5 -33
q-45 0 -64.5 14t-19.5 45v7t1 8q38 -11 78 -11q42 0 83.5 13.5t76.5 37.5q47 33 78 80t54 118q-46 -33 -84 -47.5t-77 -14.5q-41 0 -76.5 15t-61.5 41t-40.5 61.5t-14.5 77.5q0 46 18.5 87.5t51 72t75.5 48.5t92 18t90 -18t70 -51t45 -79.5t16 -103.5z" />
    <glyph glyph-name="colon" unicode=":" 
d="M219 72q0 -33 -23.5 -56t-56.5 -23t-56 23t-23 56t23 56.5t56 23.5t56.5 -23.5t23.5 -56.5zM219 415q0 -33 -23.5 -56.5t-56.5 -23.5t-56 23.5t-23 56.5t23 56t56 23t56.5 -23t23.5 -56z" />
    <glyph glyph-name="semicolon" unicode=";" 
d="M230 57q0 -73 -51 -128.5t-139 -80.5l-7 -1l-9 38q57 11 90.5 40.5t33.5 65.5q0 14 -7 20.5t-24 9.5l-3 1q-53 9 -53 59q0 31 22.5 52t56.5 21q39 0 64.5 -27.5t25.5 -69.5zM219 415q0 -33 -23 -56.5t-56 -23.5t-56.5 23.5t-23.5 56.5t23.5 56t56.5 23t56 -23t23 -56z
" />
    <glyph glyph-name="semicolon" unicode="&#x37e;" 
d="M230 57q0 -73 -51 -128.5t-139 -80.5l-7 -1l-9 38q57 11 90.5 40.5t33.5 65.5q0 14 -7 20.5t-24 9.5l-3 1q-53 9 -53 59q0 31 22.5 52t56.5 21q39 0 64.5 -27.5t25.5 -69.5zM219 415q0 -33 -23 -56.5t-56 -23.5t-56.5 23.5t-23.5 56.5t23.5 56t56.5 23t56 -23t23 -56z
" />
    <glyph glyph-name="equal" unicode="=" horiz-adv-x="556" 
d="M12 169v60h531v-60h-531zM12 324v61h531v-61h-531z" />
    <glyph glyph-name="question" unicode="?" horiz-adv-x="389" 
d="M217 72q0 -33 -23.5 -56t-56.5 -23t-56 23t-23 56t23 56.5t56 23.5t56.5 -23.5t23.5 -56.5zM351 505q0 -69 -10 -110.5t-34 -67.5q-15 -18 -36 -27q-13 -6 -25 -8.5t-40 -4.5l-26 -2l-21 -1q-21 -2 -30 -20q-5 -9 -7.5 -20t-4.5 -35h-32v165h73q23 0 38.5 0.5t27 3
t20.5 6t18 9.5q47 31 47 94q0 32 -13.5 46.5t-46.5 21.5l-64 13q-21 5 -35 8.5t-27 10.5q-50 26 -50 111v15t2 17h21q6 -26 18 -40q7 -7 19.5 -11.5t36.5 -9.5l69 -15q7 -2 15 -3.5t17 -4.5q23 -7 37 -14t23 -19q11 -14 15.5 -38.5t4.5 -69.5z" />
    <glyph glyph-name="A" unicode="A" horiz-adv-x="674" 
d="M317 594l-87 -256h173zM395 0v36l79 9q11 2 15.5 4.5t4.5 10.5q0 9 -4 17l-72 214h-204l-70 -206q-2 -8 -3.5 -12.5t-1.5 -9.5q0 -16 25 -19l75 -8v-36h-228v36l20 2q13 2 20 7.5t12 19.5l233 613l65 49l250 -666q5 -13 10.5 -17t18.5 -6l22 -2v-36h-267z" />
    <glyph glyph-name="B" unicode="B" horiz-adv-x="636" 
d="M472 171q0 76 -53.5 116.5t-153.5 40.5h-30v-239q0 -22 13 -30q11 -7 35 -11t50 -4q66 0 102.5 33.5t36.5 93.5zM444 502q0 32 -13 59t-36 44q-20 15 -49.5 21.5t-73.5 6.5h-18t-19 -1v-263q12 -1 19 -1.5t21 -0.5q42 0 66.5 5t46.5 19q26 16 41 45.5t15 65.5zM583 203
q0 -45 -22 -87.5t-60 -71.5q-35 -26 -76 -37.5t-100 -11.5h-22.5t-22.5 1l-55 2l-35 1l-35 1h-132v36l76 9q20 2 26 8t6 23v526q0 17 -6 23t-26 8l-77 9v36l141 3q45 1 75.5 1h47.5q58 0 92 -2.5t63 -9.5q48 -12 77 -46.5t29 -80.5q0 -30 -13.5 -60t-37.5 -55
q-23 -23 -47.5 -37t-65.5 -25v-5q28 -2 43 -4t34 -7q59 -15 91 -54t32 -93z" />
    <glyph glyph-name="C" unicode="C" horiz-adv-x="655" 
d="M575 22q-8 -3 -13.5 -5t-9.5 -4q-77 -28 -171 -28q-152 0 -238 77q-48 45 -74.5 112t-26.5 145q0 82 28 151t78 118.5t119.5 77t153.5 27.5q17 0 33 -1t32 -3q7 0 43 -6l17 -3l9 -1q6 -1 10.5 -1.5t8.5 -0.5q17 0 27 14v-201h-33q-3 26 -6.5 40t-11.5 31q-36 79 -145 79
q-55 0 -100.5 -20.5t-77.5 -58.5t-50 -91t-18 -117q0 -68 17 -125t48 -98.5t73.5 -65t92.5 -23.5q66 0 119 42q12 10 23 21t20 25q11 14 18 27.5t19 41.5h35z" />
    <glyph glyph-name="D" unicode="D" horiz-adv-x="763" 
d="M603 334q0 84 -27.5 147t-80.5 100q-38 26 -89 38t-124 12h-23t-25 -2v-535q0 -15 1.5 -20.5t7.5 -9.5q11 -8 43 -13.5t68 -5.5q118 0 183.5 76t65.5 213zM721 358q0 -76 -27 -143t-78 -121q-26 -27 -52.5 -45.5t-57 -30t-66.5 -17t-79 -5.5q-12 0 -25 0.5t-27 0.5l-48 1
l-34 1q-20 1 -35 1h-41h-129v36l75 9q19 2 25 8.5t6 22.5v525q0 15 -6 22t-25 9l-75 10v36h32l94 2q60 2 100.5 2h61.5q51 0 90.5 -2.5t71.5 -8.5t58.5 -15.5t50.5 -22.5q32 -18 58 -46.5t44 -64t28 -77.5t10 -87z" />
    <glyph glyph-name="E" unicode="E" horiz-adv-x="636" 
d="M535 0h-512v36l76 9q19 2 25.5 8.5t6.5 22.5v526q0 16 -6.5 22.5t-25.5 8.5l-76 9v36h382q13 0 33.5 0.5t37.5 2.5q23 2 36 5.5t30 11.5v-190h-35q-1 32 -4.5 50.5t-14.5 33.5q-11 17 -32 24t-61 7h-160v-243h169q16 0 22 18l16 58h30v-223h-31l-17 76q-4 20 -21 20h-168
v-240q0 -17 13.5 -23.5t45.5 -6.5h100q71 0 110 36q15 14 25.5 32.5t24.5 56.5h39z" />
    <glyph glyph-name="F" unicode="F" horiz-adv-x="597" 
d="M497 507q-1 34 -6.5 56.5t-18 35.5t-33.5 18t-53 5h-151v-242h168q17 0 22 17l17 58h29v-223h-30l-17 76q-2 11 -6.5 15t-15.5 4h-167v-251q0 -16 6.5 -22.5t25.5 -8.5l96 -9v-36h-341v36l77 9q19 2 25 8.5t6 22.5v526q0 16 -6 22.5t-25 8.5l-75 9v36h371q20 0 36.5 0.5
t35.5 2.5q23 2 35.5 5.5t29.5 11.5v-191h-35z" />
    <glyph glyph-name="G" unicode="G" horiz-adv-x="747" 
d="M669 266q-18 -2 -24.5 -9.5t-6.5 -25.5v-208q-11 -3 -19.5 -5.5t-13.5 -4.5q-49 -14 -102 -21t-104 -7q-83 0 -149 23t-112.5 66t-71.5 104t-25 138q0 85 27 154t76.5 118.5t119 76.5t154.5 27q29 0 59 -3.5t81 -9.5l17 -2q13 -2 18 -2.5t11 -0.5q19 0 32 16v-205h-17
h-16q-3 22 -5.5 33.5t-8.5 25.5q-20 45 -67 70t-114 25q-57 0 -103.5 -21t-79 -59t-50.5 -92t-18 -121q0 -68 18.5 -124t52 -95.5t80.5 -61.5t104 -22q56 0 124 20v168q0 16 -6.5 22.5t-25.5 8.5l-90 9v36h290v-36z" />
    <glyph glyph-name="H" unicode="H" horiz-adv-x="828" 
d="M487 0v36l77 9q19 2 25 8.5t6 22.5v246h-362v-246q0 -17 6 -23t26 -8l77 -9v-36h-322v36l77 9q20 2 26 8t6 23v526q0 16 -6 22.5t-26 8.5l-77 9v36h322v-36l-77 -9q-20 -2 -26 -8t-6 -23v-225h362v225q0 16 -6 22.5t-25 8.5l-77 9v36h322v-36l-77 -9q-20 -2 -26 -8
t-6 -23v-526q0 -16 6 -22.5t26 -8.5l77 -9v-36h-322z" />
    <glyph glyph-name="I" unicode="I" horiz-adv-x="366" 
d="M22 0v36l77 9q19 2 25 8t6 23v526q0 17 -6 23t-25 8l-77 9v36h322v-36l-77 -9q-19 -2 -25 -8.5t-6 -22.5v-526q0 -16 6 -22.5t25 -8.5l77 -9v-36h-322z" />
    <glyph glyph-name="J" unicode="J" horiz-adv-x="366" 
d="M270 633q-19 -2 -25 -8.5t-6 -22.5l3 -389q0 -44 -3 -84q-2 -35 -6.5 -64.5t-11 -54.5t-16 -46.5t-21.5 -42.5q-30 -52 -69 -80t-81 -28q-34 0 -54.5 18.5t-20.5 48.5q0 15 5 29.5t18 35.5q20 -20 44.5 -31t48.5 -11q25 0 40 16q11 12 15.5 34.5t4.5 72.5v576
q0 17 -6.5 23t-25.5 8l-79 9v36h317v-36z" />
    <glyph glyph-name="K" unicode="K" horiz-adv-x="693" 
d="M409 0v36l55 6q19 3 19 10q0 5 -5 11l-154 212q-26 36 -44.5 50.5t-38.5 14.5q-5 0 -9 -1v-263q0 -17 6 -22.5t26 -8.5l63 -9v-36h-304v36l77 9q19 2 25 8t6 23v526q0 17 -6 23t-25 8l-77 9v36h318v-36l-77 -9q-20 -2 -26 -8t-6 -23v-248h3q7 0 11 1q3 2 5 2.5t4 1.5
q6 4 20 17.5t28 27.5l189 204q9 9 9 17q0 10 -14 11l-49 6v36h232v-36l-54 -10q-9 -2 -16 -6t-18 -15l-229 -224l259 -327q5 -7 11.5 -11.5t12.5 -5.5l40 -7v-36h-267z" />
    <glyph glyph-name="L" unicode="L" horiz-adv-x="559" 
d="M496 0h-473v36l74 9q20 2 26 8t6 23v526q0 17 -6 23t-26 8l-76 9v36h335v-36l-90 -9q-20 -2 -26 -8t-6 -23v-508q0 -20 14 -27t58 -7h46q39 0 64 9t45 29q6 6 11 13t10 15q9 14 14 26.5t15 39.5h38z" />
    <glyph glyph-name="M" unicode="M" horiz-adv-x="944" 
d="M611 0v36l80 9q19 2 25 8t6 21v2l-19 497l-252 -575h-10l-251 572l-20 -483v-6q0 -17 6.5 -24.5t25.5 -9.5l85 -11v-36h-267v36l55 11q14 3 19 11t7 31l44 524q1 8 -3.5 12.5t-12.5 5.5l-95 11v36h211l224 -507l227 507h211v-36l-86 -9q-32 -3 -32 -26v-5l39 -526
q2 -17 7 -22.5t24 -8.5l58 -9v-36h-306z" />
    <glyph glyph-name="N" unicode="N" horiz-adv-x="797" 
d="M709 632q-20 -3 -26.5 -15.5t-6.5 -49.5v-602h-26l-474 566l15 -420q1 -21 2.5 -33t5.5 -19t12 -9.5t21 -3.5l103 -10v-36h-310v36l65 10q21 3 27.5 16t6.5 49v478l-23 23q-17 17 -36 23.5t-45 6.5v36h168l438 -523l-17 412q-1 22 -2 31.5t-4 15.5q-6 15 -35 18l-96 11
v35h304v-35z" />
    <glyph glyph-name="O" unicode="O" horiz-adv-x="744" 
d="M585 322q0 68 -16 126t-44 100t-66.5 66t-83.5 24q-47 0 -86.5 -22t-68 -61t-45 -92.5t-16.5 -116.5q0 -66 16.5 -122t45.5 -97t69.5 -64t87.5 -23q45 0 83 21t65.5 58.5t43 89t15.5 113.5zM702 365q0 -83 -26 -152.5t-72 -120.5t-109.5 -79.5t-138.5 -28.5
q-71 0 -129 23.5t-99 67t-63.5 104.5t-22.5 136q0 82 26.5 151t74 119.5t112 79t141.5 28.5q68 0 124 -24t96.5 -67.5t63 -103.5t22.5 -133z" />
    <glyph glyph-name="P" unicode="P" horiz-adv-x="583" 
d="M436 478q0 76 -46.5 116t-135.5 40h-8t-11 -1v-309q14 -1 22 -1.5t16 -0.5q79 0 121 40t42 116zM544 507q0 -29 -8.5 -56.5t-23.5 -52t-36 -45t-47 -34.5q-29 -16 -63.5 -22.5t-82.5 -6.5h-24t-24 2v-216q0 -17 6 -23t25 -8l95 -9v-36h-338v36l76 9q19 2 25 8t6 23v526
q0 17 -6 23t-25 8l-77 9v37l39 1l117 2q26 1 48.5 1h42.5q27 0 45 -0.5t32 -1.5t27.5 -3.5t30.5 -5.5q66 -13 103 -56.5t37 -108.5z" />
    <glyph glyph-name="Q" unicode="Q" horiz-adv-x="744" 
d="M585 321q0 69 -16 127t-44 100t-67.5 65.5t-85.5 23.5q-47 0 -86 -21.5t-67.5 -60t-44.5 -91.5t-16 -116q0 -67 16.5 -124t46 -98t70 -64.5t88.5 -23.5q45 0 82.5 21t65 59t43 89.5t15.5 113.5zM976 -76q-11 -14 -19 -23.5t-14.5 -17t-12.5 -14t-14 -14.5
q-57 -57 -119 -57q-22 0 -43 6q-10 3 -19 5.5t-19.5 7t-24 11t-33.5 15.5l-199 96q-7 3 -16.5 7t-20.5 9q-13 5 -22 9t-17.5 7t-17.5 6.5t-21 7.5q-21 0 -36.5 1t-28 3t-24.5 5.5t-25 8.5q-48 19 -89 59q-99 95 -99 253q0 82 26.5 151.5t74 119.5t112.5 78.5t143 28.5
q67 0 123 -24t96 -67.5t62 -104.5t22 -134q0 -81 -28.5 -152.5t-83.5 -128.5q-21 -22 -43.5 -38.5t-45.5 -27.5q-16 -8 -31 -12.5t-44 -9.5q23 -2 34 -3t23 -3q16 -3 29 -5.5t28.5 -7t38 -12t57.5 -20.5l42 -15q97 -34 155 -34q17 0 32 2.5t29.5 7.5t30 14t34.5 22z" />
    <glyph glyph-name="R" unicode="R" horiz-adv-x="674" 
d="M440 491q0 141 -176 141h-30v-269q21 -2 32.5 -2h22.5q151 0 151 130zM682 -4q-23 -4 -35 -5t-27 -1q-45 0 -79 13q-16 7 -29.5 16.5t-27.5 27t-30 43.5t-38 66l-93 169h-89v-249q0 -16 6 -22.5t25 -8.5l76 -9v-36h-317v36l75 9q19 2 25 8t6 23v526q0 16 -6 22.5t-25 8.5
l-77 9v35q46 1 82.5 2t68 2t60 1h57.5q33 0 57 -1t42.5 -3t34 -6t31.5 -10q43 -15 67 -49.5t24 -81.5q0 -60 -37.5 -105t-105.5 -67l153 -217q20 -29 41.5 -54.5t37.5 -40.5q19 -18 47 -21v-30z" />
    <glyph glyph-name="S" unicode="S" horiz-adv-x="520" 
d="M467 207q0 -47 -18.5 -88t-50 -71t-74.5 -47.5t-92 -17.5q-82 0 -173 41l-23 172h33q13 -41 26.5 -64t36.5 -43q23 -21 52 -32.5t58 -11.5q27 0 51 9t41 25.5t27 38t10 47.5q0 14 -3.5 28t-8.5 25q-13 28 -37.5 46.5t-71.5 35.5l-39 14q-75 26 -109 70t-34 109
q0 44 18 81t50 63.5t76 41t97 14.5q23 0 44 -1.5t53 -9.5l8 -2q4 -1 7 -1.5t6 -0.5q9 0 14.5 3t10.5 10v-195h-33q-2 28 -5 41.5t-9 27.5q-16 33 -48 51.5t-74 18.5q-56 0 -90.5 -29.5t-34.5 -77.5q0 -20 6 -36t20.5 -29.5t37.5 -26t56 -24.5l46 -17q31 -11 52 -23.5
t38 -29.5q26 -26 39.5 -61t13.5 -74z" />
    <glyph glyph-name="T" unicode="T" horiz-adv-x="655" 
d="M593 491q-1 38 -5.5 58.5t-15.5 37.5q-12 19 -33 27t-59 8h-100v-546q0 -16 7 -22.5t24 -8.5l98 -9v-36h-357v36l91 9q19 2 25.5 8.5t6.5 22.5v546h-105q-64 0 -87 -32q-12 -15 -16 -35.5t-5 -63.5h-35v209q29 -23 90 -23h426q35 0 53.5 5t31.5 17v-208h-35z" />
    <glyph glyph-name="U" unicode="U" horiz-adv-x="770" 
d="M686 633q-20 -3 -26 -8.5t-6 -21.5v-1l5 -325v-8q0 -45 -5.5 -79t-18.5 -62q-31 -69 -100.5 -107t-163.5 -38q-124 0 -196 62q-32 27 -46 62.5t-14 89.5v5l6 400v1q0 16 -6 21.5t-26 8.5l-65 9v36h310v-36l-76 -9q-19 -2 -25 -8.5t-6 -22.5v-354q0 -35 1.5 -54.5
t6.5 -41.5q12 -54 54 -84.5t104 -30.5q88 0 134 57.5t46 168.5v339q0 16 -6.5 22.5t-25.5 8.5l-80 9v36h289v-36z" />
    <glyph glyph-name="V" unicode="V" horiz-adv-x="627" 
d="M591 641q-23 -1 -33 -29l-231 -649h-26l-231 655q-4 11 -10.5 15.5t-19.5 6.5l-29 3v35h267v-35l-72 -9q-20 -3 -20 -16q0 -5 4 -17l147 -464l140 456q3 11 4 14.5t1 7.5q0 17 -20 19l-82 9v35h235v-35z" />
    <glyph glyph-name="W" unicode="W" horiz-adv-x="963" 
d="M927 641q-25 -3 -33 -29l-221 -649h-28l-159 518l-170 -518h-27l-218 655q-4 11 -10.5 15.5t-19.5 6.5l-29 3v35h277v-35l-82 -9q-20 -3 -20 -16q0 -3 0.5 -6.5t2.5 -10.5l135 -462l137 420l-15 46q-4 13 -12.5 19t-25.5 9l-52 10v35h256v-35l-55 -9l-7 -1
q-12 -3 -12 -15q0 -5 3 -17l141 -458l131 450q3 9 4 14t1 8q0 16 -24 19l-90 9v35h246v-35z" />
    <glyph glyph-name="X" unicode="X" horiz-adv-x="713" 
d="M418 0v36l72 9q16 1 16 12q0 5 -6 14l-158 222l-156 -217q-8 -11 -8 -20q0 -10 17 -11l83 -9v-36h-265v36l27 2q26 1 47 27l224 270l-218 285q-13 17 -42 20l-20 2v36h296v-36l-93 -9q-13 -1 -13 -11q0 -5 3 -9l146 -207l157 209q4 5 4 11q0 8 -11 10l-76 6v36h246v-36
l-36 -2q-14 -1 -21.5 -5.5t-18.5 -18.5l-214 -250l230 -301q16 -20 42 -25l27 -4v-36h-281z" />
    <glyph glyph-name="Y" unicode="Y" horiz-adv-x="636" 
d="M611 641q-18 -2 -27.5 -9.5t-20.5 -24.5l-191 -296v-235q0 -16 6.5 -22.5t24.5 -8.5l88 -9v-36h-345v36l89 9q19 2 25.5 8.5t6.5 22.5v236l-200 309q-10 16 -37 19l-17 2v36h277v-36l-84 -9q-14 -1 -14 -11q0 -5 3 -9l148 -254l146 253q4 8 4 11q0 8 -11 10l-100 9v36
h240v-36z" />
    <glyph glyph-name="Z" unicode="Z" horiz-adv-x="648" 
d="M574 0h-564l439 621h-224q-39 0 -62.5 -7.5t-38.5 -24.5q-14 -16 -19.5 -36.5t-7.5 -59.5h-35v211q17 -15 40 -21t63 -6h437l-429 -614h233q48 0 77.5 8t49.5 28q7 5 11.5 11t8.5 12q4 7 7.5 13t6.5 13.5t7 18t9 26.5h39z" />
    <glyph glyph-name="bracketleft" unicode="[" 
d="M89 -309v1120h173v-44h-106v-1031h106v-45h-173z" />
    <glyph glyph-name="backslash" unicode="\" horiz-adv-x="368" 
d="M37 0v34l61 13q14 3 22 5t11.5 6t4.5 10t1 17v321q0 11 -1 17t-4.5 10t-11.5 6t-22 5l-61 13v34h293v-34l-61 -13q-14 -3 -22 -5t-11.5 -6t-4.5 -10t-1 -17v-321q0 -11 1 -17t4.5 -10t11.5 -6t22 -5l61 -13v-34h-293z" />
    <glyph glyph-name="bracketright" unicode="]" 
d="M16 -309v45h106v1031h-106v44h173v-1120h-173z" />
    <glyph glyph-name="underscore" unicode="_" horiz-adv-x="1112" 
d="M-1 256v58h1114v-58h-1114z" />
    <glyph glyph-name="grave" unicode="`" horiz-adv-x="0" 
d="M22 550l-146 228l85 31l100 -245z" />
    <glyph glyph-name="a" unicode="a" horiz-adv-x="480" 
d="M290 223q-81 -17 -125.5 -43t-44.5 -58q0 -26 20 -44t50 -18q23 0 51.5 10.5t48.5 27.5v125zM481 80q-7 -45 -34.5 -69.5t-69.5 -24.5q-37 0 -57 23t-27 74q-29 -45 -68.5 -69.5t-84.5 -24.5q-48 0 -76 26.5t-28 71.5q0 30 18 57t51 49.5t79.5 39t104.5 25.5v82
q0 57 -22 82t-71 25q-42 0 -53 -20q-3 -5 -4 -12.5t-2 -24.5q-16 -14 -34 -21.5t-35 -7.5q-9 0 -15.5 4.5t-6.5 11.5q0 10 14 27q19 24 44.5 44.5t53 35t56 23t54.5 8.5q53 0 83.5 -37t30.5 -101q0 -8 -1 -12l-4 -196v-10q0 -57 9.5 -78t37.5 -21q14 0 27 4.5t30 15.5z" />
    <glyph glyph-name="b" unicode="b" horiz-adv-x="568" 
d="M434 248q0 89 -42.5 140t-116.5 51q-47 0 -86 -21v-351q25 -11 45.5 -15t45.5 -4q71 0 112.5 54t41.5 146zM531 282q0 -65 -22 -119.5t-61 -93.5t-93.5 -61t-118.5 -22q-14 0 -27.5 1t-26.5 3q-20 3 -37.5 6.5t-51.5 14.5v717q0 22 -18 22l-67 2v32l193 30
q-7 -14 -9.5 -26t-2.5 -31v-322q31 36 70 54.5t84 18.5q42 0 76.5 -16.5t59.5 -46t38.5 -71t13.5 -92.5z" />
    <glyph glyph-name="c" unicode="c" horiz-adv-x="430" 
d="M424 446q0 -44 -70 -73q-5 11 -8 16.5t-8 13.5q-14 23 -35 35t-45 12q-27 0 -50.5 -14.5t-40.5 -39.5t-27 -59t-10 -74q0 -90 44 -143.5t119 -53.5q36 0 70 15.5t57 41.5q-3 -29 -8.5 -46t-16.5 -31q-22 -29 -63 -46.5t-88 -17.5q-48 0 -86 17t-65 48t-41.5 75.5
t-14.5 100.5q0 63 20 116t56 91t86 59.5t110 21.5q54 0 84.5 -17t30.5 -48z" />
    <glyph glyph-name="d" unicode="d" horiz-adv-x="593" 
d="M386 422q-43 29 -92 29q-36 0 -65.5 -14t-50.5 -39.5t-32.5 -60.5t-11.5 -78q0 -88 41.5 -138.5t111.5 -50.5q60 0 99 30v322zM386 -18v96q-66 -86 -159 -86q-42 0 -77 16.5t-59.5 46.5t-38.5 72t-14 93q0 60 19.5 112t54 90t81 59.5t101.5 21.5q54 0 92 -17v242
q0 13 -4 17.5t-15 4.5l-88 2v32l214 30q-7 -14 -9.5 -26t-2.5 -31v-695q0 -12 3 -16t12 -4l77 -3v-33z" />
    <glyph glyph-name="e" unicode="e" horiz-adv-x="467" 
d="M351 350q0 49 -25.5 78t-68.5 29q-44 0 -75.5 -29.5t-45.5 -83.5h214zM447 122q0 -30 -14 -55.5t-39.5 -43.5t-60 -28.5t-75.5 -10.5q-50 0 -90.5 16.5t-69.5 46.5t-44.5 72.5t-15.5 94.5q0 63 19 117.5t51.5 95t77 64t95.5 23.5q43 0 76.5 -16.5t53.5 -46.5
q17 -26 24 -58.5t7 -85.5h-313q-2 -11 -2 -18v-19q0 -94 48 -148t132 -54q41 0 73 14t67 46v-6z" />
    <glyph glyph-name="f" unicode="f" horiz-adv-x="350" 
d="M465 755q0 -15 -10 -30q-7 -11 -15.5 -19t-28.5 -24q-46 60 -104 60q-39 0 -66 -33q-10 -13 -17 -28.5t-11 -35.5t-6 -46t-2 -61v-52h139v-54h-139v-367q0 -11 3.5 -15.5t14.5 -6.5l82 -9v-34h-271v34l53 8q21 3 21 23v367h-75v27l77 28q1 37 3.5 65t7.5 50.5t13 42
t20 39.5q33 57 90 89t126 32q42 0 68.5 -14t26.5 -36z" />
    <glyph glyph-name="g" unicode="g" horiz-adv-x="558" 
d="M454 -113q0 34 -23 50q-13 8 -27 12q-12 3 -27 4t-51 1h-50h-15t-36 1q-12 0 -20 0.5t-13.5 1t-10 1t-11.5 2.5q-47 -44 -47 -103q0 -51 39 -78.5t110 -27.5q38 0 71 10.5t58 29t39 43.5t14 53zM379 323q0 67 -30.5 108t-81.5 41t-81.5 -37t-30.5 -99q0 -63 31 -102
t81 -39q51 0 81.5 35t30.5 93zM429 447q23 -23 32.5 -47.5t9.5 -56.5q0 -41 -17 -76.5t-46.5 -62t-69.5 -41.5t-86 -15q-14 0 -24.5 1t-33.5 5q-23 -23 -32 -38.5t-9 -31.5q0 -14 9 -23q10 -9 30.5 -12.5t71.5 -3.5h62q27 0 44.5 -0.5t30 -1t22.5 -2t21 -4.5q41 -9 65.5 -40
t24.5 -72q0 -48 -23.5 -90t-64.5 -73t-96.5 -49t-119.5 -18q-45 0 -82 9.5t-63.5 26.5t-41.5 41t-15 53q0 27 13.5 52.5t39.5 44.5q9 7 16 11.5t14.5 9t17 9.5t23.5 12q-80 23 -80 77q0 62 103 119q-116 41 -116 156q0 42 17 79.5t47 65.5t69.5 44t84.5 16q34 0 59 -7.5
t51 -24.5h166v-69z" />
    <glyph glyph-name="h" unicode="h" horiz-adv-x="609" 
d="M350 0v34l47 8q21 4 21 23v211q0 39 -1 57t-5 35q-8 33 -36 51t-73 18q-28 0 -51 -5.5t-47 -19.5v-347q0 -12 3.5 -16t14.5 -6l57 -9v-34h-240v34l47 8q21 4 21 23v663q0 13 -3.5 17.5t-14.5 4.5l-79 2v32l205 30q-6 -14 -8.5 -26t-2.5 -31v-326q36 38 81 58.5t91 20.5
q70 0 107 -49q17 -23 24 -58.5t7 -102.5v-17l-2 -218v-1q0 -11 3.5 -15t14.5 -6l58 -9v-34h-239z" />
    <glyph glyph-name="i" unicode="i" horiz-adv-x="313" 
d="M42 0v34l47 8q21 4 21 23v339q0 12 -4 16.5t-17 6.5l-35 5v22l154 76v-465q0 -12 3.5 -16t15.5 -6l56 -9v-34h-241zM222 702q0 -26 -18.5 -44.5t-44.5 -18.5t-44 18.5t-18 44.5t18 44t44 18t44.5 -18t18.5 -44z" />
    <glyph glyph-name="j" unicode="j" horiz-adv-x="313" 
d="M216 85q0 -46 -2.5 -83.5t-9 -70t-16.5 -60.5t-24 -55q-28 -54 -71 -87.5t-85 -33.5q-25 0 -40.5 14.5t-15.5 38.5q0 17 6 30.5t19 28.5q12 -12 30 -19t36 -7q75 0 75 99v524q0 12 -4.5 16.5t-16.5 6.5l-36 5v22l153 76zM225 702q0 -26 -18.5 -44.5t-44.5 -18.5
t-44.5 18.5t-18.5 44.5t18.5 44t44.5 18t44.5 -18t18.5 -44z" />
    <glyph glyph-name="k" unicode="k" horiz-adv-x="573" 
d="M353 0v34l32 5q11 2 11 7q0 4 -4 9l-109 165q-24 37 -68 37h-4.5t-7.5 -1v-191q0 -12 3.5 -16t14.5 -6l57 -9v-34h-247v34l56 8q21 3 21 23v661q0 14 -3.5 19t-14.5 5l-80 2v32l204 30q-6 -14 -8.5 -26t-2.5 -31v-489q20 2 34.5 10t37.5 34l108 119q12 12 12 17
q0 4 -10 6l-67 3v34h230v-34l-50 -7q-11 -1 -16 -4q-4 -2 -7.5 -6t-18.5 -18l-128 -127l172 -230q12 -17 26.5 -23t44.5 -8v-34h-218z" />
    <glyph glyph-name="l" unicode="l" horiz-adv-x="313" 
d="M42 0v34l45 8q21 4 21 23v663q0 13 -3.5 17.5t-14.5 4.5l-80 2v32l208 30q-7 -14 -9.5 -26t-2.5 -31v-692q0 -12 3.5 -16t15.5 -6l56 -9v-34h-239z" />
    <glyph glyph-name="m" unicode="m" horiz-adv-x="905" 
d="M644 0v34l48 8q12 2 16.5 7t4.5 16v212v34.5t-0.5 23t-2 16.5t-3.5 15q-8 32 -35.5 50t-67.5 18q-53 0 -106 -26q5 -22 7 -43t2 -59v-241q0 -12 3.5 -16t15.5 -6l56 -9v-34h-237v34l46 8q21 4 21 23v216q0 22 -0.5 35.5t-1 23.5t-2 17t-4.5 16q-8 30 -35.5 46.5
t-67.5 16.5q-24 0 -47.5 -5.5t-49.5 -18.5v-347q0 -11 3.5 -15.5t14.5 -6.5l57 -9v-34h-238v34l47 8q21 4 21 23v339q0 12 -4.5 16.5t-16.5 6.5l-37 5v22l153 76v-100q45 42 84 60.5t83 18.5q86 0 121 -81q19 16 29 24.5t23 16.5q62 40 126 40q66 0 106 -46q20 -23 27 -51
t7 -77v-27l-3 -243v-1q0 -11 4 -15t15 -6l57 -9v-34h-239z" />
    <glyph glyph-name="n" unicode="n" horiz-adv-x="609" 
d="M350 0v34l47 8q21 4 21 23v211q0 32 -1 50t-4 34q-6 38 -34.5 57.5t-76.5 19.5q-26 0 -48.5 -5t-49.5 -19v-348q0 -12 3.5 -16t15.5 -6l57 -9v-34h-240v34l47 8q21 4 21 23v339q0 12 -4 16.5t-17 6.5l-35 5v22l152 76v-98q42 39 85.5 58.5t91.5 19.5q67 0 103 -47
q9 -12 15.5 -24.5t10 -29.5t5 -40t1.5 -54q0 -8 -0.5 -16t-0.5 -16l-2 -218v-1q0 -11 3.5 -15t14.5 -6l58 -9v-34h-239z" />
    <glyph glyph-name="o" unicode="o" horiz-adv-x="541" 
d="M404 238q0 48 -11 88t-30 69t-44.5 45t-54.5 16q-28 0 -51 -13.5t-39.5 -38t-26 -58.5t-9.5 -75q0 -49 11 -90.5t30 -72t45 -47.5t56 -17q57 0 90.5 50.5t33.5 134.5v9zM504 272q0 -62 -18.5 -114t-51.5 -90t-78.5 -59.5t-98.5 -21.5q-49 0 -89.5 17.5t-69.5 50t-45 77
t-16 98.5q0 61 19 113t53.5 89.5t81.5 58.5t103 21q47 0 86 -17.5t66.5 -49t42.5 -75.5t15 -98z" />
    <glyph glyph-name="p" unicode="p" horiz-adv-x="593" 
d="M458 243q0 88 -39.5 139.5t-105.5 51.5q-27 0 -52.5 -6t-55.5 -20v-338q46 -25 94 -25q36 0 65 14.5t50 40.5t32.5 62.5t11.5 80.5zM554 284q0 -64 -20 -117.5t-55.5 -92t-85 -60t-108.5 -21.5q-25 0 -43 3.5t-37 11.5v-249q0 -12 3.5 -16t14.5 -6l66 -10v-34h-250v34
l50 9q21 4 21 23v645q0 12 -4.5 16.5t-16.5 6.5l-35 5v22l151 76v-104q35 40 78 61t89 21q41 0 74.5 -16t57.5 -45t37 -70.5t13 -92.5z" />
    <glyph glyph-name="q" unicode="q" horiz-adv-x="571" 
d="M383 413q-40 34 -97 34q-34 0 -62.5 -13.5t-48.5 -37.5t-31.5 -58t-11.5 -75q0 -45 12 -81.5t33.5 -62t52.5 -39.5t69 -14q25 0 44 5t40 16v326zM302 -307v34l60 9q21 3 21 23v308q-29 -35 -67 -53t-81 -18q-44 0 -80 16.5t-62 45.5t-40.5 70t-14.5 90q0 61 20 114
t55.5 91.5t84 60.5t105.5 22q12 0 22.5 -0.5t21.5 -2.5t24.5 -5l31.5 -7l74 45v-777q0 -12 4 -16t15 -6l60 -10v-34h-254z" />
    <glyph glyph-name="r" unicode="r" horiz-adv-x="406" 
d="M401 464q0 -45 -64 -79q-4 16 -19 26t-37 10q-40 0 -75 -30v-326q0 -12 3.5 -16t14.5 -6l82 -9v-34h-264v34l46 8q21 4 21 23v339q0 12 -4.5 16.5t-16.5 6.5l-36 5v22l154 76v-122q12 20 19 30t18 21q49 51 101 51q26 0 41.5 -12.5t15.5 -33.5z" />
    <glyph glyph-name="s" unicode="s" horiz-adv-x="407" 
d="M364 157q0 -38 -14 -69.5t-39.5 -54.5t-60 -36t-76.5 -13q-35 0 -68.5 8.5t-60.5 22.5l-24 123h33q15 -44 52 -70.5t84 -26.5q38 0 61.5 23t23.5 58q0 27 -16 46.5t-53 33.5l-39 14q-33 12 -55 25t-35.5 29t-19.5 35.5t-6 44.5q0 36 13.5 66.5t38 52t58 34t73.5 12.5
q33 0 61 -6.5t56 -20.5v-113h-28q-13 41 -41.5 62.5t-69.5 21.5q-35 0 -58.5 -21.5t-23.5 -53.5q0 -27 18 -43.5t60 -30.5l34 -11q62 -20 92 -54t30 -88z" />
    <glyph glyph-name="t" unicode="t" horiz-adv-x="369" 
d="M197 428v-262q0 -22 1 -36t4 -25q5 -18 23 -28t44 -10q52 0 89 31q-2 -21 -6.5 -34.5t-12.5 -24.5q-17 -24 -53 -38t-78 -14q-57 0 -84 31q-7 8 -11 17t-6.5 21t-3.5 28.5t-1 40.5v47l6 256h-69v17l147 150h11v-105h167v-62h-167z" />
    <glyph glyph-name="u" unicode="u" horiz-adv-x="609" 
d="M408 -18v93q-38 -45 -82 -67.5t-89 -22.5q-33 0 -62.5 12.5t-47.5 34.5q-9 11 -15.5 23.5t-10 28.5t-5 37t-1.5 51v32l4 213v1q0 11 -3.5 15t-14.5 6l-48 8v32l171 24q-7 -14 -9 -26.5t-2 -30.5v-208v-39.5t1 -28t1.5 -20.5t2.5 -17q6 -32 30.5 -50t62.5 -18q30 0 59.5 8
t57.5 22v322q0 12 -3.5 16t-14.5 6l-69 8v32l195 24q-6 -14 -8.5 -26.5t-2.5 -30.5v-384q0 -12 3 -15.5t12 -4.5l71 -3v-33z" />
    <glyph glyph-name="v" unicode="v" horiz-adv-x="501" 
d="M465 455q-6 -1 -8.5 -4.5t-7.5 -15.5l-186 -456h-27l-176 456q-5 11 -8 15t-11 5l-16 2v34h216v-34l-68 -8q-9 -2 -9 -8q0 -4 1 -6l107 -318l105 318q2 6 2 7q0 7 -10 8l-52 7v34h172v-34z" />
    <glyph glyph-name="w" unicode="w" horiz-adv-x="780" 
d="M743 455q-6 -1 -8.5 -4.5t-7.5 -15.5l-183 -456h-27l-121 334l-135 -334h-27l-172 456q-5 11 -8.5 15t-10.5 5l-20 2v34h220v-34l-69 -8q-9 -2 -9 -8q0 -3 1 -6l104 -317l102 255l-21 62q-4 12 -8 15.5t-15 4.5l-19 2v34h212v-34l-69 -8q-9 -2 -9 -8q0 -3 1 -6l109 -318
l104 318q1 3 1 7q0 6 -9 8l-59 7v34h179v-34z" />
    <glyph glyph-name="x" unicode="x" horiz-adv-x="572" 
d="M325 0v34l46 5q11 2 11 8q0 2 -4 9l-110 146l-110 -146q-3 -5 -3 -8q0 -5 11 -7l66 -7v-34h-215v34l26 2q8 1 13.5 4t16.5 16l167 183l-161 196q-9 11 -12 14t-7 5q-6 2 -10 2l-28 1v34h219v-34l-42 -5q-10 -2 -10 -8q0 -1 4 -9l102 -136l99 136q2 3 2 7q0 7 -10 8l-57 7
v34h212v-34l-35 -2q-7 -1 -10.5 -3.5t-16.5 -16.5l-156 -172l169 -207q15 -19 34 -20l28 -2v-34h-229z" />
    <glyph glyph-name="y" unicode="y" horiz-adv-x="500" 
d="M485 457q-16 0 -21.5 -3.5t-10.5 -16.5l-166 -423q-11 -29 -23 -57.5t-25 -57.5q-29 -65 -52 -103t-49 -62q-19 -18 -43.5 -28.5t-48.5 -10.5q-31 0 -49 15t-18 41q0 31 26 63q29 -35 66 -35q28 0 51 20q12 9 23 27q14 23 28.5 53t30.5 68l27 65l-168 420q-9 22 -25 24
l-15 1v34h217v-34l-56 -6q-16 -1 -16 -15q0 -6 2 -10l110 -309l99 308q3 7 3 13q0 11 -15 12l-53 7v34h179v-34h-8z" />
    <glyph glyph-name="z" unicode="z" horiz-adv-x="515" 
d="M450 0h-432q10 13 17 21.5t14 18t16 22t24 32.5l244 338h-160q-40 0 -58 -17.5t-22 -61.5h-29v156q7 -5 11.5 -7.5t14.5 -4.5q15 -3 38 -5t52 -2h293l-311 -431h155q38 0 58 4.5t37 16.5q14 10 22.5 23t20.5 44h33z" />
    <glyph glyph-name="nonbreakingspace" unicode="&#xa0;" horiz-adv-x="198" 
 />
    <glyph glyph-name="exclamdown" unicode="&#xa1;" 
d="M195 -64q0 -17 -0.5 -30t-1 -24.5t-1 -24t-1.5 -29.5l-13 5q-38 15 -57 27t-30 26q-20 26 -20 81q0 39 4 83t14 104q4 23 7.5 44.5t7.5 43.5q3 16 5.5 28.5t5.5 26t6.5 29.5t8.5 38h32l6 -38q4 -25 6.5 -46.5t5 -43.5t4.5 -45t4 -50q2 -26 3.5 -47t2 -40l1 -38t0.5 -41
v-39zM218 484q0 -33 -23 -56.5t-56 -23.5t-56.5 23.5t-23.5 56.5t23.5 56.5t56.5 23.5t56 -23.5t23 -56.5z" />
    <glyph glyph-name="cent" unicode="&#xa2;" horiz-adv-x="463" 
d="M259 455q-15 -3 -23 -5.5t-17 -7.5q-39 -22 -63.5 -73t-24.5 -112q0 -38 9.5 -70.5t26 -57t40 -40.5t52.5 -20v386zM460 431q0 -42 -47 -74q-32 90 -115 99v-391q101 2 158 72q-1 -27 -5.5 -43t-17.5 -33q-21 -26 -56 -45t-79 -27v-102h-39v99q-104 3 -162.5 65.5
t-58.5 170.5q0 55 16 103t45.5 85.5t70 62.5t89.5 33v87h39v-82q7 1 11.5 1h8.5q66 0 104 -21.5t38 -59.5z" />
    <glyph glyph-name="sterling" unicode="&#xa3;" horiz-adv-x="616" 
d="M577 98q0 -27 -25 -63q-12 -18 -24 -30.5t-26 -19.5t-31 -10t-40 -3t-55.5 3.5t-69.5 11.5l-72 14q-13 3 -30.5 5t-35.5 3.5t-35 2.5t-30 1q-11 0 -19.5 -0.5l-17 -1t-18 -2t-22.5 -3.5v37q32 3 48 7.5t30 15.5q13 10 18 27t5 52v169h-84v33l85 22v16q0 27 1 48t4 38.5
t8 32.5t13 31q31 68 90.5 104.5t138.5 36.5q62 0 98 -22t36 -59q0 -20 -10 -38t-33 -38q-26 46 -63.5 72t-78.5 26q-47 0 -77 -36q-15 -18 -21 -42.5t-6 -67.5v-102h200v-55h-200v-62q0 -26 -0.5 -44t-1.5 -32t-3 -25t-5 -23q-5 -20 -16 -34t-31 -29l2 -5q24 8 44 12t43 4
q25 0 63.5 -4t82.5 -12l44 -8q11 -2 20 -2.5t16 -0.5q35 0 35 34q0 10 -3.5 24t-14.5 43q34 -4 54 -18t20 -34z" />
    <glyph glyph-name="section" unicode="&#xa7;" horiz-adv-x="513" 
d="M388 57q0 15 -2.5 30.5t-9 34.5t-17 42.5t-25.5 55.5l-62 128q-4 8 -12.5 26t-20.5 44q-18 41 -24.5 63.5t-6.5 44.5q0 26 8.5 51t27.5 55l-8 14q-27 -15 -40.5 -25t-26.5 -26q-19 -23 -29 -52t-10 -60q0 -35 15 -81t48 -112l56 -113q20 -40 32.5 -66.5t19 -46t9 -33.5
t2.5 -29q0 -27 -8 -51t-25 -50l9 -13q100 64 100 169zM461 632q0 -14 -6 -27.5t-20 -33.5q-26 33 -57 53t-55 20q-23 0 -37.5 -19t-14.5 -48q0 -18 5 -36q6 -20 20.5 -54.5t34.5 -76.5l70 -145q16 -33 27 -59.5t18 -48.5t10 -41t3 -38q0 -52 -23 -98t-62.5 -80t-92.5 -53.5
t-113 -19.5q-65 0 -100.5 21.5t-35.5 60.5q0 17 5.5 30t22.5 33q12 -20 28 -37t33 -30t35 -20t33 -7q29 0 47.5 19.5t18.5 49.5q0 6 -0.5 12t-1.5 11q-6 23 -19 54t-37 79l-57 112q-23 45 -38.5 79.5t-24.5 62.5t-13 51.5t-4 46.5q0 54 20.5 99t57 77.5t87 50.5t111.5 18
q60 0 92.5 -18t32.5 -50z" />
    <glyph glyph-name="dieresis" unicode="&#xa8;" horiz-adv-x="0" 
d="M-40 624q0 -24 -17 -41t-42 -17q-24 0 -41 16.5t-17 40.5t17.5 41.5t41.5 17.5t41 -17t17 -41zM179 625q0 -24 -18 -42t-41 -18q-25 0 -41.5 17t-16.5 42q0 24 17 41t41 17q25 0 42 -17t17 -40z" />
    <glyph glyph-name="guillemotleft" unicode="&#xab;" horiz-adv-x="556" 
d="M275 62l-248 202l251 202l30 -26l-169 -173l173 -180zM487 66l-246 199l249 199l31 -26l-170 -172l171 -174z" />
    <glyph glyph-name="macron" unicode="&#xaf;" horiz-adv-x="0" 
d="M-152 584v52h316v-52h-316z" />
    <glyph glyph-name="macron" unicode="&#x2c9;" horiz-adv-x="0" 
d="M-152 584v52h316v-52h-316z" />
    <glyph glyph-name="acute" unicode="&#xb4;" horiz-adv-x="0" 
d="M18 548l-36 16l107 247l86 -35z" />
    <glyph glyph-name="middot" unicode="&#xb7;" horiz-adv-x="556" 
d="M318 268l226 -227l-42 -42l-226 228l-228 -227l-40 41l228 226l-227 229l41 42l228 -229l229 226l40 -40z" />
    <glyph glyph-name="middot" unicode="&#x2219;" horiz-adv-x="556" 
d="M318 268l226 -227l-42 -42l-226 228l-228 -227l-40 41l228 226l-227 229l41 42l228 -229l229 226l40 -40z" />
    <glyph glyph-name="cedilla" unicode="&#xb8;" horiz-adv-x="0" 
d="M143 -161q0 -30 -13 -57t-35.5 -47.5t-53 -32t-64.5 -11.5q-54 0 -89.5 25.5t-35.5 64.5q0 27 20 50q10 -19 25 -35t33 -27.5t38 -18t40 -6.5q32 0 53 17t21 43q0 15 -9 24t-32 19l-33 14q-26 11 -37.5 20.5t-11.5 23.5q0 17 12 38q5 9 9.5 16t10 15t13.5 18t20 24h24
l-11 -17q-12 -19 -16 -29.5t-4 -18.5q0 -18 34 -32l31 -13q34 -14 47.5 -29t13.5 -38z" />
    <glyph glyph-name="guillemotright" unicode="&#xbb;" horiz-adv-x="556" 
d="M66 66l-32 26l171 172l-171 174l34 26l247 -199zM278 64l-30 26l168 173l-172 180l36 25l248 -202z" />
    <glyph glyph-name="questiondown" unicode="&#xbf;" horiz-adv-x="389" 
d="M316 -142v-14.5t-2 -16.5h-21q-6 25 -18 39q-7 7 -19.5 12t-36.5 10l-69 14q-7 2 -15 4t-17 4q-24 7 -37 14.5t-23 19.5q-11 14 -15.5 38t-4.5 69q0 70 10 111.5t34 67.5q8 8 16.5 15t19.5 12q13 5 25 7.5t40 4.5l26 2l21 2q20 0 30 19q5 9 7.5 20t4.5 35h32v-164h-73
q-23 0 -38.5 -0.5t-27 -3t-20.5 -6t-18 -9.5q-47 -30 -47 -94q0 -32 13.5 -47.5t46.5 -21.5l64 -12q21 -4 34.5 -8t27.5 -11q50 -26 50 -112zM331 484q0 -33 -23 -56.5t-56 -23.5t-56.5 23.5t-23.5 56.5t23.5 56.5t56.5 23.5t56 -23.5t23 -56.5z" />
    <glyph glyph-name="Agrave" unicode="&#xc0;" horiz-adv-x="674" 
d="M317 594l-87 -256h173zM395 0v36l79 9q11 2 15.5 4.5t4.5 10.5q0 9 -4 17l-72 214h-204l-70 -206q-2 -8 -3.5 -12.5t-1.5 -9.5q0 -16 25 -19l75 -8v-36h-228v36l20 2q13 2 20 7.5t12 19.5l233 613l65 49l250 -666q5 -13 10.5 -17t18.5 -6l22 -2v-36h-267zM351 732
l-129 160l91 34l79 -179z" />
    <glyph glyph-name="Aacute" unicode="&#xc1;" horiz-adv-x="674" 
d="M317 594l-87 -256h173zM395 0v36l79 9q11 2 15.5 4.5t4.5 10.5q0 9 -4 17l-72 214h-204l-70 -206q-2 -8 -3.5 -12.5t-1.5 -9.5q0 -16 25 -19l75 -8v-36h-228v36l20 2q13 2 20 7.5t12 19.5l233 613l65 49l250 -666q5 -13 10.5 -17t18.5 -6l22 -2v-36h-267zM369 731l-41 16
l80 179l89 -33z" />
    <glyph glyph-name="Acircumflex" unicode="&#xc2;" horiz-adv-x="674" 
d="M317 594l-87 -256h173zM395 0v36l79 9q11 2 15.5 4.5t4.5 10.5q0 9 -4 17l-72 214h-204l-70 -206q-2 -8 -3.5 -12.5t-1.5 -9.5q0 -16 25 -19l75 -8v-36h-228v36l20 2q13 2 20 7.5t12 19.5l233 613l65 49l250 -666q5 -13 10.5 -17t18.5 -6l22 -2v-36h-267zM461 733
l-110 112l-113 -115l-39 15l118 168h78l106 -166z" />
    <glyph glyph-name="Atilde" unicode="&#xc3;" horiz-adv-x="674" 
d="M317 594l-87 -256h173zM395 0v36l79 9q11 2 15.5 4.5t4.5 10.5q0 9 -4 17l-72 214h-204l-70 -206q-2 -8 -3.5 -12.5t-1.5 -9.5q0 -16 25 -19l75 -8v-36h-228v36l20 2q13 2 20 7.5t12 19.5l233 613l65 49l250 -666q5 -13 10.5 -17t18.5 -6l22 -2v-36h-267zM583 872
q-6 -11 -10 -18.5t-7 -12.5q-17 -32 -29 -48t-26 -30q-11 -11 -20.5 -14t-26.5 -3q-8 0 -15.5 0.5t-18 3t-25 6.5t-35.5 11l-49 16q-30 10 -54 14.5t-39 4.5q-25 0 -41 -16l-10 -10t-8.5 -9.5t-10 -14t-14.5 -21.5l-30 17l14 25q11 20 20 34t17.5 23.5t17 16.5t18.5 13
q22 13 48 13q17 0 38 -4t46 -12l49 -17q32 -11 56 -16.5t35 -5.5q9 0 19.5 4.5t18.5 11.5q5 4 9 8t8.5 10t10.5 14.5t15 22.5z" />
    <glyph glyph-name="Adieresis" unicode="&#xc4;" horiz-adv-x="674" 
d="M317 594l-87 -256h173zM395 0v36l79 9q11 2 15.5 4.5t4.5 10.5q0 9 -4 17l-72 214h-204l-70 -206q-2 -8 -3.5 -12.5t-1.5 -9.5q0 -16 25 -19l75 -8v-36h-228v36l20 2q13 2 20 7.5t12 19.5l233 613l65 49l250 -666q5 -13 10.5 -17t18.5 -6l22 -2v-36h-267zM295 809
q0 -26 -17.5 -44.5t-43.5 -18.5q-25 0 -42.5 18t-17.5 44t17.5 44t43.5 18q25 0 42.5 -18t17.5 -43zM523 812q0 -26 -18.5 -45t-42.5 -19q-26 0 -43.5 18.5t-17.5 44.5t17.5 44t43.5 18t43.5 -17.5t17.5 -43.5z" />
    <glyph glyph-name="Aring" unicode="&#xc5;" horiz-adv-x="674" 
d="M317 594l-87 -256h173zM397 794q0 24 -17 41.5t-41 17.5q-23 0 -40 -17.5t-17 -42.5q0 -26 17 -43.5t41 -17.5q23 0 40 18t17 44zM395 0v36l79 9q11 2 15.5 4.5t4.5 10.5t-3 17l-73 214h-204l-70 -206q-2 -8 -3.5 -12.5t-1.5 -9.5q0 -16 25 -19l75 -8v-36h-228v36l20 2
q13 2 20.5 7.5t12.5 19.5l238 627q-32 14 -49 40t-17 59q0 23 8 43t22 35t33 23.5t41 8.5q21 0 40.5 -8.5t33.5 -23.5t22.5 -35t8.5 -42q0 -34 -18.5 -60.5t-51.5 -41.5l236 -629q5 -13 10.5 -17t18.5 -6l22 -2v-36h-267z" />
    <glyph glyph-name="AE" unicode="&#xc6;" horiz-adv-x="886" 
d="M392 627h-26l-104 -247h130v247zM788 0h-486v36l68 11q14 2 18 7.5t4 23.5v252h-151l-109 -255q-5 -12 -5 -18q0 -7 5 -9.5t21 -4.5l78 -7v-36h-234v36l12 1q17 2 28 11.5t21 29.5l249 538q2 2 2 4v4q0 7 -13 10l-23 2l-63 6v36h448q13 0 33.5 0.5t37.5 2.5q23 2 36 5.5
t30 11.5v-190h-35q-1 32 -4.5 50.5t-14.5 33.5q-11 17 -32 24t-61 7h-160v-243h169q16 0 22 18l16 58h30v-223h-31l-17 76q-4 20 -21 20h-168v-240q0 -17 13 -23.5t45 -6.5h101q71 0 110 36q15 14 25.5 32.5t24.5 56.5h39z" />
    <glyph glyph-name="Ccedilla" unicode="&#xc7;" horiz-adv-x="655" 
d="M575 22q-16 -6 -27.5 -10.5t-22 -7.5t-21.5 -5.5t-24 -5.5q-26 -5 -45.5 -6.5t-53.5 -1.5q-8 -14 -10.5 -22t-2.5 -16q0 -11 8 -19.5t28 -16.5l32 -14q35 -16 49 -31.5t14 -40.5q0 -33 -13.5 -61.5t-37 -50.5t-55 -34.5t-67.5 -12.5q-56 0 -93 27t-37 69q0 16 5 28t16 27
q23 -43 61.5 -69t79.5 -26q34 0 56 18.5t22 47.5q0 16 -10 26.5t-34 20.5l-34 14q-27 11 -39 22.5t-12 25.5q0 16 9.5 34.5t35.5 53.5q-20 1 -34.5 3t-26.5 4t-22.5 5t-23.5 7q-96 32 -149.5 115t-53.5 200q0 82 28 151t78 118.5t119.5 77t153.5 27.5q17 0 33 -1t32 -3
q7 0 43 -6l17 -3l9 -1q6 -1 10.5 -1.5t8.5 -0.5q17 0 27 14v-201h-33q-3 26 -6.5 40t-11.5 31q-36 79 -145 79q-55 0 -100.5 -20.5t-77.5 -58.5t-50 -91t-18 -117q0 -68 17 -125t48 -98.5t73.5 -65t92.5 -23.5q66 0 119 42q12 10 23 21t20 25q11 14 18 27.5t19 41.5h35z" />
    <glyph glyph-name="Egrave" unicode="&#xc8;" horiz-adv-x="636" 
d="M535 0h-512v36l76 9q19 2 25.5 8.5t6.5 22.5v526q0 16 -6.5 22.5t-25.5 8.5l-76 9v36h382q13 0 33.5 0.5t37.5 2.5q23 2 36 5.5t30 11.5v-190h-35q-1 32 -4.5 50.5t-14.5 33.5q-11 17 -32 24t-61 7h-160v-243h169q16 0 22 18l16 58h30v-223h-31l-17 76q-4 20 -21 20h-168
v-240q0 -17 13.5 -23.5t45.5 -6.5h100q71 0 110 36q15 14 25.5 32.5t24.5 56.5h39zM332 732l-129 160l91 34l79 -179z" />
    <glyph glyph-name="Eacute" unicode="&#xc9;" horiz-adv-x="636" 
d="M535 0h-512v36l76 9q19 2 25.5 8.5t6.5 22.5v526q0 16 -6.5 22.5t-25.5 8.5l-76 9v36h382q13 0 33.5 0.5t37.5 2.5q23 2 36 5.5t30 11.5v-190h-35q-1 32 -4.5 50.5t-14.5 33.5q-11 17 -32 24t-61 7h-160v-243h169q16 0 22 18l16 58h30v-223h-31l-17 76q-4 20 -21 20h-168
v-240q0 -17 13.5 -23.5t45.5 -6.5h100q71 0 110 36q15 14 25.5 32.5t24.5 56.5h39zM349 731l-40 16l80 179l89 -33z" />
    <glyph glyph-name="Ecircumflex" unicode="&#xca;" horiz-adv-x="636" 
d="M535 0h-512v36l76 9q19 2 25.5 8.5t6.5 22.5v526q0 16 -6.5 22.5t-25.5 8.5l-76 9v36h382q13 0 33.5 0.5t37.5 2.5q23 2 36 5.5t30 11.5v-190h-35q-1 32 -4.5 50.5t-14.5 33.5q-11 17 -32 24t-61 7h-160v-243h169q16 0 22 18l16 58h30v-223h-31l-17 76q-4 20 -21 20h-168
v-240q0 -17 13.5 -23.5t45.5 -6.5h100q71 0 110 36q15 14 25.5 32.5t24.5 56.5h39zM441 733l-109 112l-113 -115l-39 15l117 168h79l106 -166z" />
    <glyph glyph-name="Edieresis" unicode="&#xcb;" horiz-adv-x="636" 
d="M535 0h-512v36l76 9q19 2 25.5 8.5t6.5 22.5v526q0 16 -6.5 22.5t-25.5 8.5l-76 9v36h382q13 0 33.5 0.5t37.5 2.5q23 2 36 5.5t30 11.5v-190h-35q-1 32 -4.5 50.5t-14.5 33.5q-11 17 -32 24t-61 7h-160v-243h169q16 0 22 18l16 58h30v-223h-31l-17 76q-4 20 -21 20h-168
v-240q0 -17 13.5 -23.5t45.5 -6.5h100q71 0 110 36q15 14 25.5 32.5t24.5 56.5h39zM276 809q0 -26 -17.5 -44.5t-43.5 -18.5t-43.5 18t-17.5 44t18 44t44 18q25 0 42.5 -18t17.5 -43zM503 812q0 -26 -18 -45t-43 -19q-26 0 -43 18.5t-17 44.5t17.5 44t43.5 18
q25 0 42.5 -17.5t17.5 -43.5z" />
    <glyph glyph-name="Igrave" unicode="&#xcc;" horiz-adv-x="366" 
d="M22 0v36l77 9q19 2 25 8t6 23v526q0 17 -6 23t-25 8l-77 9v36h322v-36l-77 -9q-19 -2 -25 -8.5t-6 -22.5v-526q0 -16 6 -22.5t25 -8.5l77 -9v-36h-322zM197 732l-129 160l91 34l79 -179z" />
    <glyph glyph-name="Iacute" unicode="&#xcd;" horiz-adv-x="366" 
d="M22 0v36l77 9q19 2 25 8t6 23v526q0 17 -6 23t-25 8l-77 9v36h322v-36l-77 -9q-19 -2 -25 -8.5t-6 -22.5v-526q0 -16 6 -22.5t25 -8.5l77 -9v-36h-322zM215 731l-41 16l80 179l89 -33z" />
    <glyph glyph-name="Icircumflex" unicode="&#xce;" horiz-adv-x="366" 
d="M22 0v36l77 9q19 2 25 8t6 23v526q0 17 -6 23t-25 8l-77 9v36h322v-36l-77 -9q-19 -2 -25 -8.5t-6 -22.5v-526q0 -16 6 -22.5t25 -8.5l77 -9v-36h-322zM307 733l-110 112l-113 -115l-39 15l118 168h78l106 -166z" />
    <glyph glyph-name="Idieresis" unicode="&#xcf;" horiz-adv-x="366" 
d="M22 0v36l77 9q19 2 25 8t6 23v526q0 17 -6 23t-25 8l-77 9v36h322v-36l-77 -9q-19 -2 -25 -8.5t-6 -22.5v-526q0 -16 6 -22.5t25 -8.5l77 -9v-36h-322zM141 809q0 -26 -17.5 -44.5t-43.5 -18.5t-43 18t-17 44t17.5 44t43.5 18q25 0 42.5 -18t17.5 -43zM369 812
q0 -26 -18.5 -45t-42.5 -19q-26 0 -43.5 18.5t-17.5 44.5t17.5 44t43.5 18t43.5 -17.5t17.5 -43.5z" />
    <glyph glyph-name="Ntilde" unicode="&#xd1;" horiz-adv-x="797" 
d="M709 632q-20 -3 -26.5 -15.5t-6.5 -49.5v-602h-26l-474 566l15 -420q1 -21 2.5 -33t5.5 -19t12 -9.5t21 -3.5l103 -10v-36h-310v36l65 10q21 3 27.5 16t6.5 49v478l-23 23q-17 17 -36 23.5t-45 6.5v36h168l438 -523l-17 412q-1 22 -2 31.5t-4 15.5q-6 15 -35 18l-96 11
v35h304v-35zM644 872q-5 -11 -9.5 -18.5l-7.5 -12.5q-17 -32 -28.5 -48t-25.5 -30q-11 -11 -21 -14t-26 -3q-8 0 -16 0.5t-18.5 3t-24.5 6.5t-35 11l-49 16q-30 10 -54.5 14.5t-39.5 4.5q-24 0 -41 -16q-6 -6 -9.5 -10t-8 -9.5t-10.5 -14t-15 -21.5l-30 17l15 25
q23 39 38 57t35 30q20 13 47 13q17 0 38 -4t46 -12l49 -17q32 -11 56 -16.5t36 -5.5q9 0 19.5 4.5t18.5 11.5q5 4 9 8t8.5 10t10 14.5t14.5 22.5z" />
    <glyph glyph-name="Ograve" unicode="&#xd2;" horiz-adv-x="744" 
d="M585 322q0 68 -16 126t-44 100t-66.5 66t-83.5 24q-47 0 -86.5 -22t-68 -61t-45 -92.5t-16.5 -116.5q0 -66 16.5 -122t45.5 -97t69.5 -64t87.5 -23q45 0 83 21t65.5 58.5t43 89t15.5 113.5zM702 365q0 -83 -26 -152.5t-72 -120.5t-109.5 -79.5t-138.5 -28.5
q-71 0 -129 23.5t-99 67t-63.5 104.5t-22.5 136q0 82 26.5 151t74 119.5t112 79t141.5 28.5q68 0 124 -24t96.5 -67.5t63 -103.5t22.5 -133zM386 732l-129 160l91 34l79 -179z" />
    <glyph glyph-name="Oacute" unicode="&#xd3;" horiz-adv-x="744" 
d="M585 322q0 68 -16 126t-44 100t-66.5 66t-83.5 24q-47 0 -86.5 -22t-68 -61t-45 -92.5t-16.5 -116.5q0 -66 16.5 -122t45.5 -97t69.5 -64t87.5 -23q45 0 83 21t65.5 58.5t43 89t15.5 113.5zM702 365q0 -83 -26 -152.5t-72 -120.5t-109.5 -79.5t-138.5 -28.5
q-71 0 -129 23.5t-99 67t-63.5 104.5t-22.5 136q0 82 26.5 151t74 119.5t112 79t141.5 28.5q68 0 124 -24t96.5 -67.5t63 -103.5t22.5 -133zM404 731l-41 16l80 179l89 -33z" />
    <glyph glyph-name="Ocircumflex" unicode="&#xd4;" horiz-adv-x="744" 
d="M585 322q0 68 -16 126t-44 100t-66.5 66t-83.5 24q-47 0 -86.5 -22t-68 -61t-45 -92.5t-16.5 -116.5q0 -66 16.5 -122t45.5 -97t69.5 -64t87.5 -23q45 0 83 21t65.5 58.5t43 89t15.5 113.5zM702 365q0 -83 -26 -152.5t-72 -120.5t-109.5 -79.5t-138.5 -28.5
q-71 0 -129 23.5t-99 67t-63.5 104.5t-22.5 136q0 82 26.5 151t74 119.5t112 79t141.5 28.5q68 0 124 -24t96.5 -67.5t63 -103.5t22.5 -133zM496 733l-110 112l-113 -115l-39 15l118 168h78l106 -166z" />
    <glyph glyph-name="Otilde" unicode="&#xd5;" horiz-adv-x="744" 
d="M585 322q0 68 -16 126t-44 100t-66.5 66t-83.5 24q-47 0 -86.5 -22t-68 -61t-45 -92.5t-16.5 -116.5q0 -66 16.5 -122t45.5 -97t69.5 -64t87.5 -23q45 0 83 21t65.5 58.5t43 89t15.5 113.5zM702 365q0 -83 -26 -152.5t-72 -120.5t-109.5 -79.5t-138.5 -28.5
q-71 0 -129 23.5t-99 67t-63.5 104.5t-22.5 136q0 82 26.5 151t74 119.5t112 79t141.5 28.5q68 0 124 -24t96.5 -67.5t63 -103.5t22.5 -133zM618 872q-6 -11 -10.5 -18.5t-6.5 -12.5q-17 -32 -29 -48t-26 -30q-11 -11 -20.5 -14t-26.5 -3q-8 0 -16 0.5t-18.5 3t-24.5 6.5
t-35 11l-49 16q-30 10 -54 14.5t-39 4.5q-25 0 -41 -16l-10 -10t-8.5 -9.5t-10 -14t-14.5 -21.5l-31 17l15 25q23 39 38 57t35 30q22 13 48 13q17 0 38 -4t46 -12l49 -17q32 -11 56 -16.5t35 -5.5q9 0 19.5 4.5t18.5 11.5q5 4 9 8t8.5 10t10 14.5t14.5 22.5z" />
    <glyph glyph-name="Odieresis" unicode="&#xd6;" horiz-adv-x="744" 
d="M585 322q0 68 -16 126t-44 100t-66.5 66t-83.5 24q-47 0 -86.5 -22t-68 -61t-45 -92.5t-16.5 -116.5q0 -66 16.5 -122t45.5 -97t69.5 -64t87.5 -23q45 0 83 21t65.5 58.5t43 89t15.5 113.5zM702 365q0 -83 -26 -152.5t-72 -120.5t-109.5 -79.5t-138.5 -28.5
q-71 0 -129 23.5t-99 67t-63.5 104.5t-22.5 136q0 82 26.5 151t74 119.5t112 79t141.5 28.5q68 0 124 -24t96.5 -67.5t63 -103.5t22.5 -133zM330 809q0 -26 -17.5 -44.5t-43.5 -18.5t-43 18t-17 44t17.5 44t43.5 18q25 0 42.5 -18t17.5 -43zM558 812q0 -26 -18.5 -45
t-42.5 -19q-26 0 -43.5 18.5t-17.5 44.5t17.5 44t43.5 18t43.5 -17.5t17.5 -43.5z" />
    <glyph glyph-name="Oslash" unicode="&#xd8;" horiz-adv-x="744" 
d="M485 599q-26 21 -51 30.5t-54 9.5q-50 0 -91.5 -22t-71.5 -61.5t-47 -94t-17 -119.5q0 -54 9 -99.5t29 -81.5q8 -14 14.5 -23.5t19.5 -24.5zM593 321q0 24 -3 49t-8.5 50t-12.5 47.5t-16 40.5q-8 16 -14.5 26.5t-20.5 27.5l-258 -485q29 -22 57.5 -33t58.5 -11
q46 0 85.5 22t68.5 61t46 91.5t17 113.5zM701 359q0 -80 -26.5 -149t-73 -119.5t-110 -79.5t-136.5 -29q-38 0 -68.5 6.5t-63.5 20.5l-61 -115l-41 24l60 114q-15 10 -26 18t-20 16.5t-16.5 17.5t-15.5 21q-29 41 -45 97t-16 116q0 79 26.5 147.5t73 118t110.5 78t138 28.5
q38 0 67 -6t63 -20l56 105l40 -23l-55 -104q15 -11 25.5 -19t18.5 -16t15.5 -17t16.5 -21q32 -43 48 -96.5t16 -113.5z" />
    <glyph glyph-name="Ugrave" unicode="&#xd9;" horiz-adv-x="770" 
d="M686 633q-20 -3 -26 -8.5t-6 -21.5v-1l5 -325v-8q0 -45 -5.5 -79t-18.5 -62q-31 -69 -100.5 -107t-163.5 -38q-124 0 -196 62q-32 27 -46 62.5t-14 89.5v5l6 400v1q0 16 -6 21.5t-26 8.5l-65 9v36h310v-36l-76 -9q-19 -2 -25 -8.5t-6 -22.5v-354q0 -35 1.5 -54.5
t6.5 -41.5q12 -54 54 -84.5t104 -30.5q88 0 134 57.5t46 168.5v339q0 16 -6.5 22.5t-25.5 8.5l-80 9v36h289v-36zM399 732l-129 160l91 34l79 -179z" />
    <glyph glyph-name="Uacute" unicode="&#xda;" horiz-adv-x="770" 
d="M686 633q-20 -3 -26 -8.5t-6 -21.5v-1l5 -325v-8q0 -45 -5.5 -79t-18.5 -62q-31 -69 -100.5 -107t-163.5 -38q-124 0 -196 62q-32 27 -46 62.5t-14 89.5v5l6 400v1q0 16 -6 21.5t-26 8.5l-65 9v36h310v-36l-76 -9q-19 -2 -25 -8.5t-6 -22.5v-354q0 -35 1.5 -54.5
t6.5 -41.5q12 -54 54 -84.5t104 -30.5q88 0 134 57.5t46 168.5v339q0 16 -6.5 22.5t-25.5 8.5l-80 9v36h289v-36zM417 731l-41 16l80 179l89 -33z" />
    <glyph glyph-name="Ucircumflex" unicode="&#xdb;" horiz-adv-x="770" 
d="M686 633q-20 -3 -26 -8.5t-6 -21.5v-1l5 -325v-8q0 -45 -5.5 -79t-18.5 -62q-31 -69 -100.5 -107t-163.5 -38q-124 0 -196 62q-32 27 -46 62.5t-14 89.5v5l6 400v1q0 16 -6 21.5t-26 8.5l-65 9v36h310v-36l-76 -9q-19 -2 -25 -8.5t-6 -22.5v-354q0 -35 1.5 -54.5
t6.5 -41.5q12 -54 54 -84.5t104 -30.5q88 0 134 57.5t46 168.5v339q0 16 -6.5 22.5t-25.5 8.5l-80 9v36h289v-36zM509 733l-110 112l-113 -115l-39 15l118 168h78l106 -166z" />
    <glyph glyph-name="Udieresis" unicode="&#xdc;" horiz-adv-x="770" 
d="M686 633q-20 -3 -26 -8.5t-6 -21.5v-1l5 -325v-8q0 -45 -5.5 -79t-18.5 -62q-31 -69 -100.5 -107t-163.5 -38q-124 0 -196 62q-32 27 -46 62.5t-14 89.5v5l6 400v1q0 16 -6 21.5t-26 8.5l-65 9v36h310v-36l-76 -9q-19 -2 -25 -8.5t-6 -22.5v-354q0 -35 1.5 -54.5
t6.5 -41.5q12 -54 54 -84.5t104 -30.5q88 0 134 57.5t46 168.5v339q0 16 -6.5 22.5t-25.5 8.5l-80 9v36h289v-36zM343 809q0 -26 -17.5 -44.5t-42.5 -18.5q-26 0 -43.5 18t-17.5 44t18 44t43 18t42.5 -18t17.5 -43zM571 812q0 -26 -18 -45t-43 -19q-26 0 -43.5 18.5
t-17.5 44.5t17.5 44t43.5 18t43.5 -17.5t17.5 -43.5z" />
    <glyph glyph-name="germandbls" unicode="&#xdf;" horiz-adv-x="629" 
d="M598 151q0 -35 -14 -65t-38 -52t-57 -34.5t-71 -12.5q-60 0 -96.5 26t-36.5 68q0 16 4 30t13 31q26 -40 66.5 -64.5t82.5 -24.5q31 0 50 17.5t19 45.5q0 23 -16.5 41.5t-54.5 37.5l-60 30q-93 46 -93 126q0 24 8.5 44.5t25.5 39.5q12 12 24 21t27 15t34 9t45 3h10
q23 0 32 16t9 53q0 43 -12 78.5t-33 61.5t-50 40.5t-64 14.5q-64 0 -104 -45q-14 -15 -22.5 -32t-13.5 -41t-7 -59.5t-2 -87.5v-417q0 -11 3.5 -15.5t14.5 -6.5l42 -9v-34h-231v34l53 8q21 3 21 25v367h-77v29l77 25q1 33 4 58.5t8 47t13 40.5t19 38q18 31 43.5 56t56.5 43
t65.5 27.5t70.5 9.5q44 0 80.5 -15.5t62.5 -44t40 -69t14 -89.5q0 -42 -8.5 -75.5t-24.5 -52.5q-11 -14 -30 -18q-9 -2 -18 -2.5t-33 -2.5l-13 -1q-37 -3 -57 -18t-20 -43q0 -19 12 -31t46 -29l76 -37q85 -41 85 -129z" />
    <glyph glyph-name="agrave" unicode="&#xe0;" horiz-adv-x="480" 
d="M290 223q-82 -17 -126 -43t-44 -58q0 -26 20 -44t50 -18q23 0 51.5 10.5t48.5 27.5v125zM481 80q-3 -17 -7 -28.5t-10 -21.5q-14 -20 -37.5 -32t-49.5 -12q-38 0 -61 29q-10 13 -14.5 26.5t-8.5 41.5q-29 -45 -68.5 -69.5t-84.5 -24.5q-48 0 -76.5 26.5t-28.5 71.5
q0 30 18 57t51.5 49.5t80.5 39t104 25.5v82q0 57 -22 82t-71 25q-42 0 -53 -20q-3 -5 -4 -12.5t-2 -24.5q-16 -14 -34 -21.5t-35 -7.5q-9 0 -15.5 4.5t-6.5 11.5q0 10 14 27q19 24 44.5 44.5t53.5 35t56 23t54 8.5q54 0 84 -36.5t30 -102.5q0 -7 -1 -11l-4 -196v-10
q0 -57 9.5 -78t37.5 -21q14 0 27 4.5t30 15.5zM239 550l-146 228l85 31l100 -245z" />
    <glyph glyph-name="aacute" unicode="&#xe1;" horiz-adv-x="480" 
d="M290 223q-81 -17 -125.5 -43t-44.5 -58q0 -26 20 -44t50 -18q23 0 51.5 10.5t48.5 27.5v125zM481 80q-7 -45 -34.5 -69.5t-69.5 -24.5q-37 0 -57 23t-27 74q-29 -45 -68.5 -69.5t-84.5 -24.5q-48 0 -76 26.5t-28 71.5q0 30 18 57t51 49.5t79.5 39t104.5 25.5v82
q0 57 -22 82t-71 25q-42 0 -53 -20q-3 -5 -4 -12.5t-2 -24.5q-16 -14 -34 -21.5t-35 -7.5q-9 0 -15.5 4.5t-6.5 11.5q0 10 14 27q19 24 44.5 44.5t53 35t56 23t54.5 8.5q53 0 83.5 -37t30.5 -101q0 -8 -1 -12l-4 -196v-10q0 -57 9.5 -78t37.5 -21q14 0 27 4.5t30 15.5z
M236 548l-37 16l107 247l86 -35z" />
    <glyph glyph-name="acircumflex" unicode="&#xe2;" horiz-adv-x="480" 
d="M290 223q-82 -17 -126 -43t-44 -58q0 -26 20 -44t50 -18q23 0 51.5 10.5t48.5 27.5v125zM481 80q-3 -17 -7 -28.5t-10 -21.5q-14 -20 -37.5 -32t-49.5 -12q-38 0 -61 29q-10 13 -14.5 26.5t-8.5 41.5q-29 -45 -68.5 -69.5t-84.5 -24.5q-48 0 -76.5 26.5t-28.5 71.5
q0 30 18 57t51.5 49.5t80.5 39t104 25.5v82q0 57 -22 82t-71 25q-42 0 -53 -20q-3 -5 -4 -12.5t-2 -24.5q-16 -14 -34 -21.5t-35 -7.5q-9 0 -15.5 4.5t-6.5 11.5q0 10 14 27q19 24 44.5 44.5t53.5 35t56 23t54 8.5q54 0 84 -36.5t30 -102.5q0 -7 -1 -11l-4 -196v-10
q0 -57 9.5 -78t37.5 -21q14 0 27 4.5t30 15.5zM343 550l-102 164l-111 -164l-36 15l123 235h56l109 -237z" />
    <glyph glyph-name="atilde" unicode="&#xe3;" horiz-adv-x="480" 
d="M290 223q-82 -17 -126 -43t-44 -58q0 -26 20 -44t50 -18q23 0 51.5 10.5t48.5 27.5v125zM481 80q-3 -17 -7 -28.5t-10 -21.5q-14 -20 -37.5 -32t-49.5 -12q-38 0 -61 29q-10 13 -14.5 26.5t-8.5 41.5q-29 -45 -68.5 -69.5t-84.5 -24.5q-48 0 -76.5 26.5t-28.5 71.5
q0 30 18 57t51.5 49.5t80.5 39t104 25.5v82q0 57 -22 82t-71 25q-42 0 -53 -20q-3 -5 -4 -12.5t-2 -24.5q-16 -14 -34 -21.5t-35 -7.5q-9 0 -15.5 4.5t-6.5 11.5q0 10 14 27q19 24 44.5 44.5t53.5 35t56 23t54 8.5q54 0 84 -36.5t30 -102.5q0 -7 -1 -11l-4 -196v-10
q0 -57 9.5 -78t37.5 -21q14 0 27 4.5t30 15.5zM454 683q-5 -9 -8.5 -15.5t-5.5 -10.5q-17 -30 -29.5 -48t-25.5 -29q-20 -17 -44 -17q-14 0 -35 5t-57 16l-47 14q-28 8 -52 13t-38 5q-21 0 -38.5 -14t-42.5 -51l-29 15q5 8 8.5 14.5t6.5 11.5q10 17 19.5 30t18.5 24
q33 38 77 38q17 0 37.5 -4t43.5 -12l47 -15q25 -8 51.5 -14t37.5 -6q8 0 18.5 4t17.5 10q11 8 17.5 17.5t23.5 33.5z" />
    <glyph glyph-name="adieresis" unicode="&#xe4;" horiz-adv-x="480" 
d="M290 223q-82 -17 -126 -43t-44 -58q0 -26 20 -44t50 -18q23 0 51.5 10.5t48.5 27.5v125zM481 80q-3 -17 -7 -28.5t-10 -21.5q-14 -20 -37.5 -32t-48.5 -12q-39 0 -62 29q-10 13 -14.5 26.5t-8.5 41.5q-29 -45 -68.5 -69.5t-84.5 -24.5q-48 0 -76 26.5t-28 71.5
q0 30 18 57t51 49.5t80 39t104 25.5v82q0 57 -22 82t-71 25q-41 0 -53 -20q-3 -5 -4 -12.5t-1 -24.5q-17 -14 -35 -21.5t-35 -7.5q-9 0 -15.5 4.5t-6.5 11.5q0 10 14 27q19 24 44.5 44.5t53.5 35t56 23t54 8.5q54 0 84 -36.5t30 -102.5v-11l-5 -196v-10q0 -57 9.5 -78
t37.5 -21q14 0 27 4.5t30 15.5zM177 623q0 -24 -17 -41t-42 -17q-24 0 -41 16.5t-17 41.5q0 23 17.5 40.5t41.5 17.5t41 -17t17 -41zM396 627q0 -24 -17.5 -42t-41.5 -18q-25 0 -41.5 17t-16.5 42q0 24 17 41t42 17q24 0 41 -17t17 -40z" />
    <glyph glyph-name="aring" unicode="&#xe5;" horiz-adv-x="480" 
d="M290 223q-81 -17 -125.5 -43t-44.5 -58q0 -26 20 -44t50 -18q23 0 51.5 10.5t48.5 27.5v125zM300 654q0 23 -16.5 38.5t-39.5 15.5t-38.5 -15.5t-15.5 -38.5t16 -39.5t39 -16.5t39 16.5t16 39.5zM481 80q-7 -45 -34.5 -69.5t-69.5 -24.5q-37 0 -57 23t-27 74
q-29 -45 -68.5 -69.5t-84.5 -24.5q-48 0 -76 26.5t-28 71.5q0 30 18 57t51 49.5t79.5 39t104.5 25.5v82q0 57 -22 82t-71 25q-42 0 -53 -20q-3 -5 -4 -12.5t-2 -24.5q-16 -14 -34 -21.5t-35 -7.5q-9 0 -15.5 4.5t-6.5 11.5q0 10 14 27q19 24 44.5 44.5t53 35t56 23t54.5 8.5
q53 0 83.5 -37t30.5 -101q0 -8 -1 -12l-4 -196v-10q0 -57 9.5 -78t37.5 -21q14 0 27 4.5t30 15.5zM346 654q0 -21 -8 -39.5t-21.5 -32.5t-32 -22t-38.5 -8q-21 0 -39.5 8t-32 22t-21.5 32.5t-8 39.5q0 42 29 71t71 29q20 0 38.5 -8t32.5 -22t22 -32t8 -38z" />
    <glyph glyph-name="ae" unicode="&#xe6;" horiz-adv-x="670" 
d="M301 119q-5 17 -6.5 26.5t-3.5 20.5q-3 16 -4 27.5t-2 34.5q-50 -17 -76.5 -27t-47.5 -22q-42 -23 -42 -59q0 -23 18 -39.5t44 -16.5q12 0 27.5 4t31.5 11.5t32 17.5t29 22zM561 365q-12 91 -75 91q-24 0 -45.5 -12t-38 -33t-27 -50t-13.5 -64zM661 126
q-2 -25 -6.5 -40.5t-14.5 -30.5q-21 -32 -61 -51t-88 -19q-70 0 -121 39q-19 14 -32 30.5t-28 43.5q-70 -110 -173 -110q-47 0 -76.5 26.5t-29.5 67.5q0 33 23 64q10 15 25.5 27.5t38.5 25.5t54.5 26t75.5 30l37 14l3 56v19q0 107 -87 107q-26 0 -43.5 -9.5t-17.5 -23.5v-2
v-7v-1q0 -14 -14 -22q-15 -10 -33.5 -16t-30.5 -6q-20 0 -20 15q0 13 15 30q19 23 44.5 42t53.5 33t57.5 21.5t56.5 7.5q70 0 91 -73q26 35 64 53t84 18q67 0 106 -42q20 -20 28.5 -44t13.5 -66l-293 -102q4 -90 46.5 -140.5t114.5 -50.5q77 0 137 60z" />
    <glyph glyph-name="ccedilla" unicode="&#xe7;" horiz-adv-x="430" 
d="M424 446q0 -44 -70 -73q-5 11 -8 16.5t-8 13.5q-14 23 -35 35t-45 12q-27 0 -50.5 -14.5t-40.5 -39.5t-27 -59t-10 -74q0 -90 44 -143.5t119 -53.5q36 0 70 15.5t57 41.5q-3 -29 -8.5 -46t-16.5 -31q-20 -26 -53.5 -42.5t-75.5 -20.5q-12 -21 -12 -32q0 -17 35 -32
l31 -13q34 -14 47.5 -29t13.5 -38q0 -30 -13 -57t-35.5 -47.5t-53 -32t-64.5 -11.5q-54 0 -90 25.5t-36 64.5q0 27 20 50q20 -38 59 -62.5t78 -24.5q32 0 53 17t21 43q0 15 -9 24.5t-32 18.5l-34 14q-26 11 -37 20.5t-11 23.5t8 31t30 46q-23 2 -35.5 4t-27.5 7
q-65 23 -100 82.5t-35 147.5q0 63 20 116t56 91t86 59.5t110 21.5q54 0 84.5 -17t30.5 -48z" />
    <glyph glyph-name="egrave" unicode="&#xe8;" horiz-adv-x="467" 
d="M351 350q0 49 -25.5 78t-68.5 29q-44 0 -75.5 -29.5t-45.5 -83.5h214zM447 122q0 -30 -14 -55.5t-39.5 -43.5t-60 -28.5t-75.5 -10.5q-50 0 -90.5 16.5t-69.5 46.5t-44.5 72.5t-15.5 94.5q0 63 19 117.5t51.5 95t77 64t95.5 23.5q43 0 76.5 -16.5t53.5 -46.5
q17 -26 24 -58.5t7 -85.5h-313q-2 -11 -2 -18v-19q0 -94 48 -148t132 -54q41 0 73 14t67 46v-6zM278 550l-146 228l85 31l100 -245z" />
    <glyph glyph-name="eacute" unicode="&#xe9;" horiz-adv-x="467" 
d="M351 350q0 49 -25.5 78t-68.5 29q-44 0 -75.5 -29.5t-45.5 -83.5h214zM447 122q0 -30 -14 -55.5t-39.5 -43.5t-60 -28.5t-75.5 -10.5q-50 0 -90.5 16.5t-69.5 46.5t-44.5 72.5t-15.5 94.5q0 63 19 117.5t51.5 95t77 64t95.5 23.5q43 0 76.5 -16.5t53.5 -46.5
q17 -26 24 -58.5t7 -85.5h-313q-2 -11 -2 -18v-19q0 -94 48 -148t132 -54q41 0 73 14t67 46v-6zM274 548l-36 16l107 247l86 -35z" />
    <glyph glyph-name="ecircumflex" unicode="&#xea;" horiz-adv-x="467" 
d="M351 350q0 49 -25.5 78t-68.5 29q-44 0 -75.5 -29.5t-45.5 -83.5h214zM447 122q0 -30 -14 -55.5t-39.5 -43.5t-60 -28.5t-75.5 -10.5q-50 0 -90.5 16.5t-69.5 46.5t-44.5 72.5t-15.5 94.5q0 63 19 117.5t51.5 95t77 64t95.5 23.5q43 0 76.5 -16.5t53.5 -46.5
q17 -26 24 -58.5t7 -85.5h-313q-2 -11 -2 -18v-19q0 -94 48 -148t132 -54q41 0 73 14t67 46v-6zM382 550l-102 164l-111 -164l-36 15l123 235h55l110 -237z" />
    <glyph glyph-name="edieresis" unicode="&#xeb;" horiz-adv-x="467" 
d="M351 350q0 49 -25.5 78t-68.5 29q-44 0 -75.5 -29.5t-45.5 -83.5h214zM447 122q0 -30 -14 -55.5t-39.5 -43.5t-60 -28.5t-75.5 -10.5q-50 0 -90.5 16.5t-69.5 46.5t-44.5 72.5t-15.5 94.5q0 63 19 117.5t51.5 95t77 64t95.5 23.5q43 0 76.5 -16.5t53.5 -46.5
q17 -26 24 -58.5t7 -85.5h-313q-2 -11 -2 -18v-19q0 -94 48 -148t132 -54q41 0 73 14t67 46v-6zM216 623q0 -24 -17 -41t-42 -17q-24 0 -41 16.5t-17 40.5t17.5 41.5t41.5 17.5t41 -17t17 -41zM435 627q0 -24 -17.5 -42t-41.5 -18q-25 0 -41.5 17t-16.5 42q0 24 17 41t42 17
q24 0 41 -17t17 -40z" />
    <glyph glyph-name="igrave" unicode="&#xec;" horiz-adv-x="313" 
d="M42 0v34l47 8q21 4 21 23v339q0 12 -4 16.5t-17 6.5l-35 5v22l154 76v-465q0 -12 3.5 -16t15.5 -6l56 -9v-34h-241zM178 550l-146 228l85 31l100 -245z" />
    <glyph glyph-name="iacute" unicode="&#xed;" horiz-adv-x="313" 
d="M42 0v34l47 8q21 4 21 23v339q0 12 -4 16.5t-17 6.5l-35 5v22l154 76v-465q0 -12 3.5 -16t15.5 -6l56 -9v-34h-241zM174 548l-36 16l107 247l86 -35z" />
    <glyph glyph-name="icircumflex" unicode="&#xee;" horiz-adv-x="313" 
d="M42 0v34l47 8q21 4 21 23v339q0 12 -4 16.5t-17 6.5l-35 5v22l154 76v-465q0 -12 3.5 -16t15.5 -6l56 -9v-34h-241zM282 550l-102 164l-111 -164l-36 15l123 235h56l109 -237z" />
    <glyph glyph-name="idieresis" unicode="&#xef;" horiz-adv-x="313" 
d="M42 0v34l47 8q21 4 21 23v339q0 12 -4 16.5t-17 6.5l-35 5v22l154 76v-465q0 -12 3.5 -16t15.5 -6l56 -9v-34h-241zM116 623q0 -24 -17 -41t-42 -17q-24 0 -41 16.5t-17 40.5t17.5 41.5t41.5 17.5t41 -17t17 -41zM335 627q0 -24 -17.5 -42t-41.5 -18q-25 0 -41.5 17
t-16.5 42q0 24 17 41t42 17q24 0 41 -17t17 -40z" />
    <glyph glyph-name="ntilde" unicode="&#xf1;" horiz-adv-x="609" 
d="M350 0v34l47 8q21 4 21 23v211q0 32 -1 50t-4 34q-6 38 -34.5 57.5t-76.5 19.5q-26 0 -48.5 -5t-49.5 -19v-348q0 -12 3.5 -16t15.5 -6l57 -9v-34h-240v34l47 8q21 4 21 23v339q0 12 -4 16.5t-17 6.5l-35 5v22l152 76v-98q42 39 85.5 58.5t91.5 19.5q67 0 103 -47
q9 -12 15.5 -24.5t10 -29.5t5 -40t1.5 -54q0 -8 -0.5 -16t-0.5 -16l-2 -218v-1q0 -11 3.5 -15t14.5 -6l58 -9v-34h-239zM541 683q-5 -9 -8.5 -15.5t-5.5 -10.5q-16 -29 -29 -47t-26 -30q-20 -17 -44 -17q-14 0 -34.5 5t-57.5 16l-47 14q-29 8 -52 13t-38 5q-21 0 -38.5 -14
t-42.5 -51l-29 15q5 8 8.5 14.5t6.5 11.5q10 17 19.5 30t18.5 24q33 38 78 38q16 0 36.5 -4t43.5 -12l47 -15q25 -8 51.5 -14t37.5 -6q8 0 18.5 4t17.5 10q11 8 18 17.5t23 33.5z" />
    <glyph glyph-name="ograve" unicode="&#xf2;" horiz-adv-x="541" 
d="M404 238q0 48 -11 88t-30 69t-44.5 45t-54.5 16q-28 0 -51 -13.5t-39.5 -38t-26 -58.5t-9.5 -75q0 -49 11 -90.5t30 -72t45 -47.5t56 -17q57 0 90.5 50.5t33.5 134.5v9zM504 272q0 -62 -18.5 -114t-51.5 -90t-78.5 -59.5t-98.5 -21.5q-49 0 -89.5 17.5t-69.5 50t-45 77
t-16 98.5q0 61 19 113t53.5 89.5t81.5 58.5t103 21q47 0 86 -17.5t66.5 -49t42.5 -75.5t15 -98zM292 550l-145 228l84 31l100 -245z" />
    <glyph glyph-name="oacute" unicode="&#xf3;" horiz-adv-x="541" 
d="M404 238q0 48 -11 88t-30 69t-44.5 45t-54.5 16q-28 0 -51 -13.5t-39.5 -38t-26 -58.5t-9.5 -75q0 -49 11 -90.5t30 -72t45 -47.5t56 -17q57 0 90.5 50.5t33.5 134.5v9zM504 272q0 -62 -18.5 -114t-51.5 -90t-78.5 -59.5t-98.5 -21.5q-49 0 -89.5 17.5t-69.5 50t-45 77
t-16 98.5q0 61 19 113t53.5 89.5t81.5 58.5t103 21q47 0 86 -17.5t66.5 -49t42.5 -75.5t15 -98zM289 548l-37 16l108 247l85 -35z" />
    <glyph glyph-name="ocircumflex" unicode="&#xf4;" horiz-adv-x="541" 
d="M404 238q0 48 -11 88t-30 69t-44.5 45t-54.5 16q-28 0 -51 -13.5t-39.5 -38t-26 -58.5t-9.5 -75q0 -49 11 -90.5t30 -72t45 -47.5t56 -17q57 0 90.5 50.5t33.5 134.5v9zM504 272q0 -62 -18.5 -114t-51.5 -90t-78.5 -59.5t-98.5 -21.5q-49 0 -89.5 17.5t-69.5 50t-45 77
t-16 98.5q0 61 19 113t53.5 89.5t81.5 58.5t103 21q47 0 86 -17.5t66.5 -49t42.5 -75.5t15 -98zM397 550l-102 164l-111 -164l-37 15l124 235h55l109 -237z" />
    <glyph glyph-name="otilde" unicode="&#xf5;" horiz-adv-x="541" 
d="M404 238q0 48 -11 88t-30 69t-44.5 45t-54.5 16q-28 0 -51 -13.5t-39.5 -38t-26 -58.5t-9.5 -75q0 -49 11 -90.5t30 -72t45 -47.5t56 -17q57 0 90.5 50.5t33.5 134.5v9zM504 272q0 -62 -18.5 -114t-51.5 -90t-78.5 -59.5t-98.5 -21.5q-49 0 -89.5 17.5t-69.5 50t-45 77
t-16 98.5q0 61 19 113t53.5 89.5t81.5 58.5t103 21q47 0 86 -17.5t66.5 -49t42.5 -75.5t15 -98zM507 683q-5 -9 -8.5 -15.5t-5.5 -10.5q-16 -29 -28.5 -47t-26.5 -30q-20 -17 -43 -17q-14 0 -35 5t-57 16l-47 14q-59 18 -91 18q-21 0 -38 -13.5t-42 -51.5l-30 15
q5 8 8.5 14.5t7.5 11.5q10 16 19 29.5t18 24.5q33 38 78 38q16 0 36.5 -4t43.5 -12l47 -15q25 -8 51.5 -14t37.5 -6q8 0 18.5 4t17.5 10q11 8 18 17.5t23 33.5z" />
    <glyph glyph-name="odieresis" unicode="&#xf6;" horiz-adv-x="541" 
d="M404 238q0 48 -11 88t-30 69t-44.5 45t-54.5 16q-28 0 -51 -13.5t-39.5 -38t-26 -58.5t-9.5 -75q0 -49 11 -90.5t30 -72t45 -47.5t56 -17q57 0 90.5 50.5t33.5 134.5v9zM504 272q0 -62 -18.5 -114t-51.5 -90t-78.5 -59.5t-98.5 -21.5q-49 0 -89.5 17.5t-69.5 50t-45 77
t-16 98.5q0 61 19 113t53.5 89.5t81.5 58.5t103 21q47 0 86 -17.5t66.5 -49t42.5 -75.5t15 -98zM230 623q0 -24 -17 -41t-41 -17q-25 0 -42 16.5t-17 40.5t17.5 41.5t41.5 17.5t41 -17t17 -41zM449 627q0 -24 -17.5 -42t-41.5 -18t-41 17t-17 42q0 24 17 41t42 17
q24 0 41 -17t17 -40z" />
    <glyph glyph-name="oslash" unicode="&#xf8;" horiz-adv-x="541" 
d="M338 429q-19 15 -35.5 22t-36.5 7q-29 0 -53.5 -14.5t-42 -40t-27.5 -60.5t-10 -77q0 -92 44 -164zM411 237q0 46 -11 84t-35 77l-160 -325q34 -30 72 -30q28 0 52.5 14.5t42.5 40.5t28.5 61.5t10.5 77.5zM505 277q0 -62 -19.5 -114.5t-53.5 -91t-80.5 -60.5t-100.5 -22
q-12 0 -21 0.5t-18 2.5t-18.5 5.5t-21.5 8.5l-54 -108l-33 16l53 108q-102 67 -102 207q0 59 20 110.5t54.5 90t81 61t99.5 22.5q22 0 38 -3t43 -12l50 103l34 -16l-51 -104q49 -31 74.5 -82.5t25.5 -121.5z" />
    <glyph glyph-name="ugrave" unicode="&#xf9;" horiz-adv-x="609" 
d="M408 -18v93q-38 -45 -82 -67.5t-89 -22.5q-33 0 -62.5 12.5t-47.5 34.5q-9 11 -15.5 23.5t-10 28.5t-5 37t-1.5 51v32l4 213v1q0 11 -3.5 15t-14.5 6l-48 8v32l171 24q-7 -14 -9 -26.5t-2 -30.5v-208v-39.5t1 -28t1.5 -20.5t2.5 -17q6 -32 30.5 -50t62.5 -18q30 0 59.5 8
t57.5 22v322q0 12 -3.5 16t-14.5 6l-69 8v32l195 24q-6 -14 -8.5 -26.5t-2.5 -30.5v-384q0 -12 3 -15.5t12 -4.5l71 -3v-33zM326 550l-146 228l85 31l100 -245z" />
    <glyph glyph-name="uacute" unicode="&#xfa;" horiz-adv-x="609" 
d="M408 -18v93q-38 -45 -82 -67.5t-89 -22.5q-33 0 -62.5 12.5t-47.5 34.5q-9 11 -15.5 23.5t-10 28.5t-5 37t-1.5 51v32l4 213v1q0 11 -3.5 15t-14.5 6l-48 8v32l171 24q-7 -14 -9 -26.5t-2 -30.5v-208v-39.5t1 -28t1.5 -20.5t2.5 -17q6 -32 30.5 -50t62.5 -18q30 0 59.5 8
t57.5 22v322q0 12 -3.5 16t-14.5 6l-69 8v32l195 24q-6 -14 -8.5 -26.5t-2.5 -30.5v-384q0 -12 3 -15.5t12 -4.5l71 -3v-33zM323 548l-37 16l108 247l85 -35z" />
    <glyph glyph-name="ucircumflex" unicode="&#xfb;" horiz-adv-x="609" 
d="M408 -18v93q-38 -45 -82 -67.5t-89 -22.5q-33 0 -62.5 12.5t-47.5 34.5q-9 11 -15.5 23.5t-10 28.5t-5 37t-1.5 51v32l4 213v1q0 11 -3.5 15t-14.5 6l-48 8v32l171 24q-7 -14 -9 -26.5t-2 -30.5v-208v-39.5t1 -28t1.5 -20.5t2.5 -17q6 -32 30.5 -50t62.5 -18q30 0 59.5 8
t57.5 22v322q0 12 -3.5 16t-14.5 6l-69 8v32l195 24q-6 -14 -8.5 -26.5t-2.5 -30.5v-384q0 -12 3 -15.5t12 -4.5l71 -3v-33zM431 550l-102 164l-111 -164l-37 15l123 235h56l109 -237z" />
    <glyph glyph-name="udieresis" unicode="&#xfc;" horiz-adv-x="609" 
d="M408 -18v93q-38 -45 -82 -67.5t-89 -22.5q-33 0 -62.5 12.5t-47.5 34.5q-9 11 -15.5 23.5t-10 28.5t-5 37t-1.5 51v32l4 213v1q0 11 -3.5 15t-14.5 6l-48 8v32l171 24q-7 -14 -9 -26.5t-2 -30.5v-208v-39.5t1 -28t1.5 -20.5t2.5 -17q6 -32 30.5 -50t62.5 -18q30 0 59.5 8
t57.5 22v322q0 12 -3.5 16t-14.5 6l-69 8v32l195 24q-6 -14 -8.5 -26.5t-2.5 -30.5v-384q0 -12 3 -15.5t12 -4.5l71 -3v-33zM264 623q0 -24 -17 -41t-42 -17q-24 0 -41 16.5t-17 40.5t17.5 41.5t41.5 17.5t41 -17t17 -41zM483 627q0 -24 -17.5 -42t-41.5 -18q-25 0 -41.5 17
t-16.5 42q0 24 17 41t42 17q24 0 41 -17t17 -40z" />
    <glyph glyph-name="ydieresis" unicode="&#xff;" horiz-adv-x="500" 
d="M485 457q-16 0 -21.5 -3.5t-10.5 -16.5l-166 -423q-11 -29 -23 -57.5t-25 -57.5q-29 -65 -52 -103t-49 -62q-19 -18 -43.5 -28.5t-48.5 -10.5q-31 0 -49 15t-18 41q0 31 26 63q29 -35 66 -35q28 0 51 20q12 9 23 27q14 23 28.5 53t30.5 68l27 65l-168 420q-9 22 -25 24
l-15 1v34h217v-34l-56 -6q-16 -1 -16 -15q0 -6 2 -10l110 -309l99 308q3 7 3 13q0 11 -15 12l-53 7v34h179v-34h-8zM210 623q0 -24 -17 -41t-42 -17q-24 0 -41 16.5t-17 40.5t17.5 41.5t41.5 17.5t41 -17t17 -41zM429 627q0 -24 -18 -42t-41 -18q-25 0 -41.5 17t-16.5 42
q0 24 17 41t41 17q25 0 42 -17t17 -40z" />
    <glyph glyph-name="dotlessi" unicode="&#x131;" horiz-adv-x="313" 
d="M42 0v34l47 8q21 4 21 23v339q0 12 -4 16.5t-17 6.5l-35 5v22l154 76v-465q0 -12 3.5 -16t15.5 -6l56 -9v-34h-241z" />
    <glyph glyph-name="OE" unicode="&#x152;" horiz-adv-x="997" 
d="M497 566q0 32 -4 41q-5 13 -35.5 20.5t-75.5 7.5q-51 0 -92.5 -20t-71 -56.5t-45.5 -88t-16 -115.5q0 -86 26 -154.5t77 -113.5q27 -24 59 -34t83 -10q30 0 48 3t29 9t14.5 21t3.5 54v436zM896 0h-313q-16 0 -35 -0.5t-38 -1.5t-36 -2t-27 -2l-45 -4q-13 -2 -25 -2h-23
q-70 0 -127.5 23.5t-98 66.5t-63 103t-22.5 133q0 82 28 153.5t82 125.5q50 51 109.5 73t143.5 22q11 0 22 -0.5t22 -1.5l50 -4q15 -2 54 -3q12 -1 21 -1h14h177q14 0 34 0.5t38 2.5q23 2 35.5 5.5t29.5 11.5v-190h-35q-1 32 -4.5 50.5t-13.5 33.5q-12 17 -33 24t-60 7h-161
v-243h169q16 0 22 18l17 58h29v-223h-31l-17 76q-4 20 -21 20h-168v-240q0 -17 13.5 -23.5t45.5 -6.5h100q71 0 110 36q15 14 25.5 32.5t25.5 56.5h38z" />
    <glyph glyph-name="oe" unicode="&#x153;" horiz-adv-x="803" 
d="M402 249q0 46 -9.5 84.5t-27 66t-42 42.5t-54.5 15q-29 0 -52.5 -15t-40.5 -42t-26.5 -65t-9.5 -84t9 -83.5t26 -64t40 -41t52 -14.5q30 0 55 14.5t42.5 40.5t27.5 63.5t10 82.5zM685 344q0 116 -77 116q-37 0 -66 -31t-45 -85h188zM791 126q-2 -21 -5.5 -35t-11.5 -28
q-10 -17 -27.5 -31t-39 -24.5t-47 -16t-51.5 -5.5q-68 0 -115 31.5t-67 91.5q-30 -60 -75.5 -91.5t-104.5 -31.5q-47 0 -85.5 18t-66.5 50.5t-43.5 77t-15.5 98.5q0 59 20 110.5t54.5 90t81.5 61t100 22.5q115 0 161 -111q70 109 175 109q65 0 107 -45q24 -27 34.5 -63.5
t11.5 -96.5h-290q-2 -14 -2 -22v-18q0 -46 11 -83.5t30.5 -63.5t47.5 -40.5t63 -14.5q40 0 78.5 16t71.5 45z" />
    <glyph glyph-name="Ydieresis" unicode="&#x178;" horiz-adv-x="636" 
d="M611 641q-18 -2 -27.5 -9.5t-20.5 -24.5l-191 -296v-235q0 -16 6.5 -22.5t24.5 -8.5l88 -9v-36h-345v36l89 9q19 2 25.5 8.5t6.5 22.5v236l-200 309q-10 16 -37 19l-17 2v36h277v-36l-84 -9q-14 -1 -14 -11q0 -5 3 -9l148 -254l146 253q4 8 4 11q0 8 -11 10l-100 9v36
h240v-36zM276 809q0 -26 -17.5 -44.5t-43.5 -18.5t-43.5 18t-17.5 44t18 44t44 18q25 0 42.5 -18t17.5 -43zM503 812q0 -26 -18 -45t-43 -19q-26 0 -43 18.5t-17 44.5t17.5 44t43.5 18q25 0 42.5 -17.5t17.5 -43.5z" />
    <glyph glyph-name="florin" unicode="&#x192;" horiz-adv-x="401" 
d="M438 629q0 -38 -42 -73q-25 42 -52.5 64.5t-52.5 22.5q-24 0 -40 -19q-12 -14 -18 -33l-3.5 -14t-2 -14t-1 -19t-0.5 -29v-130h151v-54h-151v-138v-47t-1 -30q-2 -63 -12 -108t-30 -82q-24 -45 -66.5 -70.5t-91.5 -25.5q-45 0 -73 20.5t-28 53.5q0 16 5.5 30.5t18.5 34.5
q30 -35 60.5 -55t55.5 -20q26 0 44 18q10 11 14 26q5 12 6 25.5t1 44.5v323h-87v33l87 19q0 38 1 66t4 49.5t7.5 40t12.5 38.5q22 57 68.5 88.5t109.5 31.5q48 0 77 -18.5t29 -49.5z" />
    <glyph glyph-name="circumflex" unicode="&#x2c6;" horiz-adv-x="0" 
d="M126 550l-102 164l-111 -164l-36 15l123 235h55l110 -237z" />
    <glyph glyph-name="caron" unicode="&#x2c7;" horiz-adv-x="0" 
d="M51 560h-54l-107 234l42 16l96 -162l109 161l38 -15z" />
    <glyph glyph-name="breve" unicode="&#x2d8;" horiz-adv-x="0" 
d="M160 714q-23 -152 -164 -152q-70 0 -110.5 39.5t-45.5 112.5h38q11 -46 42.5 -70t79.5 -24q51 0 80.5 22.5t43.5 71.5h36z" />
    <glyph glyph-name="tilde" unicode="&#x2dc;" horiz-adv-x="0" 
d="M237 683q-5 -9 -8.5 -15.5t-5.5 -10.5q-17 -29 -29.5 -47t-26.5 -30q-19 -17 -43 -17q-14 0 -35 5t-57 16l-47 14q-29 8 -52.5 13t-37.5 5q-22 0 -39 -13.5t-42 -51.5l-29 15q4 8 8 14.5t7 11.5q21 35 37 54q16 18 36.5 28t41.5 10q16 0 36.5 -4t44.5 -12l47 -15
q24 -8 51 -14t38 -6q8 0 18 4t18 10q10 8 17 17.5t23 33.5z" />
    <glyph glyph-name="endash" unicode="&#x2013;" horiz-adv-x="556" 
d="M13 243v62h529v-62h-529z" />
    <glyph glyph-name="emdash" unicode="&#x2014;" horiz-adv-x="556" 
d="M-1 256v58h558v-58h-558z" />
    <glyph glyph-name="quoteleft" unicode="&#x2018;" 
d="M254 780q-57 -11 -90.5 -40t-33.5 -66q0 -24 31 -30h3q53 -11 53 -59q0 -32 -22.5 -52.5t-57.5 -20.5q-39 0 -64 27t-25 69q0 73 51 126.5t139 82.5l6 2z" />
    <glyph glyph-name="quoteright" unicode="&#x2019;" 
d="M232 713q0 -73 -51 -128.5t-139 -80.5l-7 -1l-9 38q56 11 90 40.5t34 65.5q0 14 -7 20.5t-24 9.5l-3 1q-54 9 -54 59q0 31 23 52t57 21q39 0 64.5 -27.5t25.5 -69.5z" />
    <glyph glyph-name="quotedblleft" unicode="&#x201c;" horiz-adv-x="500" 
d="M254 780q-57 -11 -90.5 -40t-33.5 -66q0 -24 31 -30h3q53 -11 53 -59q0 -32 -22.5 -52.5t-57.5 -20.5q-39 0 -64 27t-25 69q0 73 51 126.5t139 82.5l6 2zM476 780q-57 -11 -90.5 -40t-33.5 -66q0 -24 31 -30h3q53 -11 53 -59q0 -32 -22.5 -52.5t-56.5 -20.5q-40 0 -65 27
t-25 69q0 73 50.5 128t139.5 81l7 2z" />
    <glyph glyph-name="quotedblright" unicode="&#x201d;" horiz-adv-x="500" 
d="M232 713q0 -73 -51 -128.5t-139 -80.5l-7 -1l-9 38q56 11 90 40.5t34 65.5q0 14 -7 20.5t-24 9.5l-3 1q-54 9 -54 59q0 31 23 52t57 21q39 0 64.5 -27.5t25.5 -69.5zM454 713q0 -73 -50.5 -128.5t-139.5 -80.5l-7 -1l-9 38q57 11 90.5 40.5t33.5 65.5q0 14 -7 20.5
t-24 9.5l-3 1q-53 9 -53 59q0 31 22.5 52t56.5 21q40 0 65 -27.5t25 -69.5z" />
    <glyph glyph-name="quotedblbase" unicode="&#x201e;" horiz-adv-x="500" 
d="M230 57q0 -73 -51 -128.5t-139 -80.5l-7 -1l-9 38q57 11 90.5 40.5t33.5 65.5q0 14 -7 20.5t-24 9.5l-3 1q-53 9 -53 59q0 31 22.5 52t56.5 21q39 0 64.5 -27.5t25.5 -69.5zM452 57q0 -73 -50.5 -128.5t-139.5 -80.5l-6 -1l-10 38q57 11 90.5 40.5t33.5 65.5
q0 14 -7 20.5t-24 9.5l-3 1q-53 9 -53 59q0 31 22.5 52t56.5 21q40 0 65 -27.5t25 -69.5z" />
    <glyph glyph-name="dagger" unicode="&#x2020;" horiz-adv-x="515" 
d="M283 411l17 -582h-83l17 584l-212 -22v87l212 -20l-17 221h82l-14 -222l208 21v-85z" />
    <glyph glyph-name="daggerdbl" unicode="&#x2021;" horiz-adv-x="515" 
d="M284 53l16 -224h-81l15 225l-212 -21v85l210 -19v314l-210 -20v85l213 -22l-19 222h83l-16 -222l210 21v-85l-206 20v-314l206 21v-84z" />
    <glyph glyph-name="bullet" unicode="&#x2022;" 
d="M214 276q0 -33 -23 -56.5t-56 -23.5t-56.5 23.5t-23.5 56.5t23.5 56t56.5 23t56 -23t23 -56z" />
    <glyph glyph-name="perthousand" unicode="&#x2030;" horiz-adv-x="1066" 
d="M602 143q0 54 -23 87.5t-61 33.5q-39 0 -62 -30.5t-23 -81.5q0 -54 24 -87.5t63 -33.5q37 0 59.5 31t22.5 81zM301 509q0 54 -23.5 87.5t-61.5 33.5q-39 0 -62 -30.5t-23 -81.5q0 -54 24.5 -87t62.5 -33q37 0 60 30.5t23 80.5zM958 143q0 54 -23 87.5t-61 33.5
q-39 0 -62.5 -30.5t-23.5 -81.5q0 -54 24.5 -87.5t63.5 -33.5q37 0 59.5 31t22.5 81zM676 163q0 -37 -13 -69.5t-36 -56.5t-53.5 -37.5t-66.5 -13.5q-33 0 -61 11t-47.5 31t-30.5 48t-11 62q0 36 13.5 67.5t36.5 54.5t54.5 36.5t67.5 13.5q31 0 58 -11t47 -31t31 -47t11 -58
zM78 -10l-37 33l612 645l35 -34zM375 529q0 -37 -13 -69t-36 -56t-54 -37.5t-66 -13.5q-67 0 -108.5 41.5t-41.5 109.5q0 36 13.5 67.5t36.5 54.5t54 36.5t67 13.5q31 0 58.5 -11t47 -31t31 -47t11.5 -58zM1032 163q0 -37 -13 -69.5t-36 -56.5t-53.5 -37.5t-66.5 -13.5
q-33 0 -61 11t-47.5 31t-30.5 48t-11 62q0 36 13.5 67.5t36.5 54.5t54 36.5t67 13.5q32 0 59 -11t47 -31t31 -47t11 -58z" />
    <glyph glyph-name="guilsinglleft" unicode="&#x2039;" horiz-adv-x="333" 
d="M275 62l-248 202l251 202l30 -26l-160 -173l164 -180z" />
    <glyph glyph-name="guilsinglright" unicode="&#x203a;" horiz-adv-x="333" 
d="M66 66l-32 26l162 172l-162 174l34 26l247 -199z" />
    <glyph glyph-name="fraction" unicode="&#x2044;" horiz-adv-x="63" 
d="M-268 -114l-39 29l637 831l39 -30z" />
    <glyph glyph-name="fraction" unicode="&#x2215;" horiz-adv-x="63" 
d="M-268 -114l-39 29l637 831l39 -30z" />
    <glyph glyph-name="controlBS" horiz-adv-x="0" 
 />
  </font>
</defs>
</svg>
