<?xml version="1.0" standalone="no"?>
<!DOCTYPE svg PUBLIC "-//W3C//DTD SVG 1.1//EN" "http://www.w3.org/Graphics/SVG/1.1/DTD/svg11.dtd" >
<svg xmlns="http://www.w3.org/2000/svg" xmlns:xlink="http://www.w3.org/1999/xlink" version="1.1">
<metadata>
Created by FontForge 20170731 at Mon Jan  4 12:02:38 2021
 By Aleksey,,,
Copyright by The EnschedUFont Foundry, 1992.  All Rights reserved.  Lexicon is a registered TradeMark of TEFF.  Lexiconis protected by copyright law.  Unauthorized copying or modification of any of its data is illegal.
</metadata>
<defs>
<font id="LexiconNo1-RomanA" horiz-adv-x="569" >
  <font-face 
    font-family="LexiconNo1"
    font-weight="400"
    font-stretch="normal"
    units-per-em="2048"
    panose-1="2 0 5 3 7 0 0 2 0 4"
    ascent="1638"
    descent="-410"
    x-height="1006"
    cap-height="1337"
    bbox="-629 -475 2279 1825"
    underline-thickness="0"
    underline-position="0"
    unicode-range="U+0009-FB02"
  />
<missing-glyph horiz-adv-x="681" 
 />
    <glyph glyph-name="fi" unicode="fi" horiz-adv-x="1265" 
d="M1212 0h-510v70l113 14q25 3 34 16t9 47v742h-440v-758q0 -23 5.5 -31.5t22.5 -9.5l17 -2l117 -18v-70h-514v70l112 16q26 3 33.5 15.5t7.5 48.5v739h-158v57l162 49q31 229 184 370.5t371 141.5q117 0 193 -36t76 -93q0 -68 -121 -153q-52 75 -117 115t-133 40
q-115 0 -186.5 -95t-71.5 -249v-41h237q171 0 260 17q90 19 142 47v-926q0 -26 7.5 -34t35.5 -13l112 -16v-70z" />
    <glyph glyph-name="fl" unicode="fl" horiz-adv-x="1265" 
d="M1214 0h-503v70l100 16q23 3 33 14t10 33v756h-436v-756q0 -24 7 -33t30 -12l127 -18v-70h-512v70l108 16q43 6 43 47v756h-158v57l160 49q26 220 167 355t343 135q54 0 152 -19l166 33v-1366q0 -24 6.5 -33t29.5 -12l127 -18v-70zM854 993v322q-56 40 -93 55.5t-77 15.5
q-120 0 -191.5 -105.5t-74.5 -287.5h436z" />
    <glyph glyph-name=".notdef" horiz-adv-x="681" 
 />
    <glyph glyph-name=".null" horiz-adv-x="0" 
 />
    <glyph glyph-name="nonmarkingreturn" horiz-adv-x="682" 
 />
    <glyph glyph-name="controlHT" unicode="&#x9;" horiz-adv-x="405" 
 />
    <glyph glyph-name="controlHT" unicode=" " horiz-adv-x="405" 
 />
    <glyph glyph-name="controlHT" unicode="&#xd;" horiz-adv-x="405" 
 />
    <glyph glyph-name="exclam" unicode="!" 
d="M424 1206q0 -140 -37 -383q-5 -29 -16.5 -89.5t-16.5 -90.5q-30 -157 -51 -250h-65l-13 78q-26 155 -41 379q-14 197 -14 342v78q0 98 8 223l27 -10q75 -29 114 -54.5t64 -56.5q41 -50 41 -166zM449 147q0 -67 -48 -114t-116 -47t-115 47t-47 114q0 68 47.5 116t114.5 48
t115.5 -48.5t48.5 -115.5z" />
    <glyph glyph-name="dollar" unicode="$" horiz-adv-x="1064" 
d="M944 412q0 -160 -102 -277q-49 -57 -111.5 -91.5t-159.5 -59.5v-205h-84v194h-32q-169 0 -263 64.5t-94 179.5q0 87 49 166q56 -122 143 -194t197 -85v492l-86 35q-77 32 -119.5 59t-76.5 66q-74 83 -74 211q0 148 96.5 254t259.5 137v155h84v-143q88 0 154 -10
q97 -15 152 -62t55 -114q0 -39 -14 -72t-48 -78q-55 93 -131 154q-69 59 -168 67v-454l86 -33q287 -112 287 -356zM487 834v419q-86 -15 -137 -73.5t-51 -143.5q0 -71 47 -121q22 -21 46.5 -35.5t94.5 -45.5zM764 334q0 79 -47 129q-45 48 -146 96v-455q91 15 142 75.5
t51 154.5z" />
    <glyph glyph-name="percent" unicode="%" horiz-adv-x="1474" 
d="M768 1083q0 -152 -100.5 -256t-245.5 -104q-137 0 -222 85.5t-85 223.5q0 148 102 250t248 102q129 0 216 -86t87 -215zM1409 1298l-1249 -1318l-76 67l1253 1321zM1384 334q0 -153 -100 -258t-246 -105q-136 0 -221.5 87t-85.5 225q0 148 102 250t250 102q129 0 215 -86
t86 -215zM616 1042q0 110 -48 179t-126 69q-79 0 -126.5 -62.5t-47.5 -166.5q0 -109 50 -177.5t128 -68.5q75 0 122.5 63t47.5 164zM1233 293q0 109 -48 178.5t-124 69.5q-79 0 -126.5 -63t-47.5 -167q0 -109 49.5 -178.5t128.5 -69.5q75 0 121.5 64t46.5 166z" />
    <glyph glyph-name="ampersand" unicode="&#x26;" horiz-adv-x="1460" 
d="M1432 16l-39 -8q-96 -20 -170 -20q-68 0 -113 26q-25 14 -51 43q-29 30 -47 54.5t-54 81.5q-203 -228 -456 -228q-177 0 -294.5 110t-117.5 275q0 75 31.5 151t85.5 130q41 41 89.5 66.5t141.5 54.5q-162 131 -162 288q0 141 114 241.5t272 100.5q129 0 211.5 -71
t82.5 -181q0 -52 -23.5 -102.5t-64.5 -87.5q-76 -68 -225 -117q104 -80 186 -155q70 -67 103 -105q55 -64 115 -155q28 58 40 108q27 103 27 176q0 31 -10 39.5t-53 16.5l-74 14v74h455v-74l-111 -17q-34 -3 -55 -16q-19 -11 -31 -55l-14 -47q-15 -45 -27 -78
q-26 -63 -94 -182l-10 -19l43 -63q48 -72 81 -107.5t68 -54.5q63 -37 141 -37h9v-70zM784 1100q0 73 -51 123.5t-125 50.5q-72 0 -120 -47t-48 -119q0 -114 140 -231l36 -31q64 41 93 74q35 38 55 86.5t20 93.5zM924 248q-47 72 -107 141q-73 89 -137 152q-62 62 -219 188
q-76 -60 -120 -142t-44 -163q0 -127 91.5 -211t229.5 -84q178 0 306 119z" />
    <glyph glyph-name="parenleft" unicode="(" 
d="M518 1423q-145 -133 -221 -351.5t-76 -498.5q0 -320 113 -579q77 -180 182 -283l-41 -61q-75 48 -125 98q-137 134 -213 346t-76 461q0 306 109.5 553t304.5 379z" />
    <glyph glyph-name="parenright" unicode=")" 
d="M508 582q0 -306 -109.5 -553t-304.5 -379l-43 63q144 135 219.5 353t75.5 497q0 327 -110 582q-76 176 -183 280l41 62q75 -48 125 -98q137 -134 213 -346t76 -461z" />
    <glyph glyph-name="asterisk" unicode="*" horiz-adv-x="796" 
d="M745 1196l-284 -68l211 -190l-119 -102l-162 256l-139 -254l-127 94l197 196l-277 68l59 141l250 -139l-45 291h164l-43 -291l252 139z" />
    <glyph glyph-name="plus" unicode="+" horiz-adv-x="1138" 
d="M1106 500h-471v-500h-127v500h-475v125h475v475h127v-475h471v-125z" />
    <glyph glyph-name="comma" unicode="," 
d="M471 117q0 -149 -104 -263t-285 -165l-14 -2l-19 77q115 23 184.5 83.5t69.5 134.5q0 27 -14.5 41t-48.5 20l-7 2q-108 18 -108 121q0 63 46.5 106t115.5 43q80 0 132 -56t52 -142z" />
    <glyph glyph-name="hyphen" unicode="-" horiz-adv-x="681" 
d="M641 498h-600v180h600v-180z" />
    <glyph glyph-name="period" unicode="." 
d="M449 147q0 -67 -48 -114t-116 -47t-115 47t-47 114q0 68 47.5 116t114.5 48t115.5 -48.5t48.5 -115.5z" />
    <glyph glyph-name="slash" unicode="/" horiz-adv-x="659" 
d="M616 1470l-489 -1822l-104 28l489 1821z" />
    <glyph glyph-name="zero" unicode="0" horiz-adv-x="1148" 
d="M1077 545q0 -246 -152.5 -409t-385.5 -163q-205 0 -336 138.5t-131 355.5q0 160 70 290t193 203.5t273 73.5q203 0 336 -138.5t133 -350.5zM872 473v21q0 190 -86 307t-221 117q-130 0 -211.5 -106t-81.5 -275q0 -187 90 -315t222 -128q126 0 207 107t81 272z" />
    <glyph glyph-name="one" unicode="1" horiz-adv-x="753" 
d="M707 0h-609v70l129 26q28 3 31 6q16 4 25 11q28 17 28 61v590q0 48 -8.5 64t-34.5 16q-28 0 -86 -21l-100 -41v78l420 234v-920q0 -37 9.5 -52.5t37.5 -19.5l33 -6l125 -26v-70z" />
    <glyph glyph-name="two" unicode="2" horiz-adv-x="1044" 
d="M1004 242l-80 -242h-858l79 82q273 279 416 473q72 97 72 176q0 61 -47.5 103.5t-116.5 42.5q-85 0 -177 -62.5t-167 -169.5v68q0 65 45 137q56 89 163.5 143t231.5 54t204.5 -67.5t80.5 -170.5q0 -149 -184 -324l-220 -211l-98 -96h518q19 0 23 2q4 0 16 4q17 7 39 58
h60z" />
    <glyph glyph-name="three" unicode="3" horiz-adv-x="991" 
d="M887 141q0 -92 -48 -180.5t-127 -154t-185.5 -105t-217.5 -39.5q-125 0 -195.5 45.5t-70.5 128.5q0 39 23 98q143 -143 321 -143q123 0 207 76t84 188q0 118 -100.5 188.5t-286.5 84.5l2 22q93 54 168 109q96 70 140 131.5t44 124.5q0 69 -47 115.5t-119 46.5
q-96 0 -205 -72q-50 -33 -89 -73t-85 -105q2 89 9.5 127t31.5 73q62 91 172 149t224 58q129 0 213 -68.5t84 -174.5q0 -101 -78 -189q-35 -41 -80 -70q-58 -40 -168 -96q177 -5 278 -83.5t101 -211.5z" />
    <glyph glyph-name="four" unicode="4" horiz-adv-x="1107" 
d="M1114 326l-72 -209h-241v-471h-172v471h-609v47l715 909h66v-799h192q30 0 39.5 8t24.5 44h57zM629 274v525l-410 -525h410z" />
    <glyph glyph-name="five" unicode="5" horiz-adv-x="1044" 
d="M942 1061l-68 -234h-555l-40 -215q130 -10 213.5 -29.5t158.5 -56.5q114 -55 181 -157.5t67 -221.5q0 -130 -70.5 -241.5t-191 -176.5t-260.5 -65q-129 0 -204 49t-75 135q0 42 21 89q59 -59 150.5 -94.5t183.5 -35.5q125 0 201.5 68t76.5 178q0 152 -164.5 257
t-425.5 120l121 576h545q31 0 46 7t26 31l8 17h55z" />
    <glyph glyph-name="six" unicode="6" horiz-adv-x="1138" 
d="M1061 1227q0 -15 -2 -31q-73 23 -158 23q-182 0 -330 -105q-95 -66 -159.5 -163t-110.5 -242q176 127 330 127q169 0 282 -115t113 -285q0 -125 -65.5 -231.5t-177 -169t-242.5 -62.5q-202 0 -327.5 143t-125.5 373q0 234 107 431.5t291.5 312.5t402.5 115q90 0 131 -29
t41 -92zM819 369q0 88 -37 161q-84 170 -299 170q-56 0 -92 -5t-96 -23q-10 -56 -10 -109q0 -203 85.5 -336t215.5 -133q101 0 167 78t66 197z" />
    <glyph glyph-name="seven" unicode="7" horiz-adv-x="1085" 
d="M1108 1006l-809 -1239q-31 -46 -44 -62.5t-32 -30.5q-40 -30 -123 -30q-3 0 -61 4l823 1171h-612q-41 0 -60 -15.5t-38 -62.5h-64l62 265h958z" />
    <glyph glyph-name="eight" unicode="8" horiz-adv-x="1091" 
d="M989 383q0 -167 -136 -288.5t-323 -121.5q-185 0 -306.5 99.5t-121.5 251.5q0 113 80 200.5t221 128.5q-76 40 -120 70q-69 46 -105.5 113t-36.5 147q0 158 126.5 261.5t320.5 103.5q166 0 272.5 -82t106.5 -209q0 -103 -79 -185.5t-220 -126.5q111 -46 161 -83
q160 -114 160 -279zM786 1028q0 91 -66.5 151t-166.5 60q-98 0 -166 -59.5t-68 -145.5q0 -72 50 -125q71 -71 174 -112l88 -35q155 116 155 266zM803 322q0 84 -58.5 146.5t-199.5 123.5l-96 41q-81 -65 -116.5 -129.5t-35.5 -141.5q0 -116 76.5 -194t191.5 -78
q102 0 170 66t68 166z" />
    <glyph glyph-name="nine" unicode="9" horiz-adv-x="1138" 
d="M1053 522q0 -175 -63 -334t-170.5 -273.5t-255.5 -182.5t-312 -68q-90 0 -131 29t-41 92q0 17 2 31q80 -23 160 -23q177 0 327 105q96 68 160.5 164.5t110.5 240.5q-176 -127 -330 -127q-169 0 -282 114.5t-113 284.5q0 125 65.5 231.5t177 169t242.5 62.5
q203 0 328 -142.5t125 -373.5zM856 449q0 203 -85.5 336t-215.5 133q-100 0 -166.5 -78.5t-66.5 -196.5q0 -92 36 -160q87 -172 299 -172q54 0 91 5.5t98 23.5q10 56 10 109z" />
    <glyph glyph-name="colon" unicode=":" 
d="M449 850q0 -68 -48.5 -116t-115.5 -48t-114.5 48t-47.5 116t47.5 115t114.5 47q68 0 116 -47.5t48 -114.5zM449 147q0 -67 -48 -114t-116 -47t-115 47t-47 114q0 68 47.5 116t114.5 48t115.5 -48.5t48.5 -115.5z" />
    <glyph glyph-name="semicolon" unicode=";" 
d="M449 850q0 -68 -47.5 -116t-114.5 -48t-115.5 48t-48.5 116q0 67 48 114.5t116 47.5q67 0 114.5 -47t47.5 -115zM471 117q0 -149 -104 -263t-285 -165l-14 -2l-19 77q115 23 184.5 83.5t69.5 134.5q0 27 -14.5 41t-48.5 20l-7 2q-108 18 -108 121q0 63 46.5 106t115.5 43
q80 0 132 -56t52 -142z" />
    <glyph glyph-name="equal" unicode="=" horiz-adv-x="1138" 
d="M1112 664h-1087v124h1087v-124zM1112 346h-1087v123h1087v-123z" />
    <glyph glyph-name="question" unicode="?" horiz-adv-x="796" 
d="M719 1034q0 -142 -20.5 -226t-69.5 -138q-30 -38 -74 -56q-41 -19 -133 -26l-53 -4l-43 -2q-44 -3 -62 -41q-19 -34 -24 -113h-66v338h150q95 0 135 7t78 32q96 65 96 192q0 64 -27.5 95t-95.5 45l-131 26q-87 18 -127 39q-102 54 -102 228q0 36 4 65h43q12 -55 36 -82
q24 -24 115 -43l141 -31q52 -12 66 -16q91 -26 123 -68q23 -27 32 -77t9 -144zM444 147q0 -67 -47.5 -114t-115.5 -47t-115 47t-47 114q0 68 47.5 116t114.5 48t115 -48t48 -116z" />
    <glyph glyph-name="A" unicode="A" horiz-adv-x="1380" 
d="M1356 0h-547v74l162 16q23 3 32 9.5t9 21.5q0 1 -6 31l-150 421h-418l-143 -405q-10 -33 -10 -43q0 -31 51 -37l153 -14v-74h-466v74l40 4q27 3 42.5 14.5t25.5 38.5l475 1206l133 97l512 -1313q9 -23 20.5 -31.5t39.5 -11.5l45 -4v-74zM823 668l-174 501l-178 -501h352z
" />
    <glyph glyph-name="B" unicode="B" horiz-adv-x="1302" 
d="M1194 401q0 -89 -45 -172.5t-123 -142.5q-72 -53 -154.5 -74.5t-209.5 -21.5q-60 0 -89 2l-112 6h-72l-72 2h-270v74l158 18q38 5 50.5 16.5t12.5 43.5v1034q0 32 -12 43t-51 16l-160 19v73l272 4q55 1 149 3t124 2q202 0 313 -25q99 -23 158 -91.5t59 -160.5
q0 -119 -93.5 -216t-242.5 -132v-8q83 -6 158 -23q115 -26 183.5 -104.5t68.5 -184.5zM909 989q0 258 -350 258q-8 0 -78 -4v-514q37 -2 86 -2q85 0 134.5 9.5t93.5 35.5q54 32 84 89t30 128zM967 338q0 82 -39 149.5t-107 102.5q-104 55 -284 55h-56v-467q0 -46 27 -59
q56 -29 174 -29q134 0 209.5 65.5t75.5 182.5z" />
    <glyph glyph-name="C" unicode="C" horiz-adv-x="1341" 
d="M1280 393l-102 -350q-190 -74 -398 -74q-307 0 -487 154q-99 88 -153 220t-54 288q0 160 57.5 297t159 233t246.5 150.5t315 54.5q66 0 131 -6q2 -1 12.5 -1.5t31.5 -3.5t44 -7l35 -7l19 -2q32 -4 37 -4q36 0 57 27v-397h-68q-15 91 -37 141q-34 74 -110.5 114t-186.5 40
q-227 0 -365 -155t-138 -409q0 -176 61 -316t169 -218t243 -78q274 0 407 309h74z" />
    <glyph glyph-name="D" unicode="D" horiz-adv-x="1562" 
d="M1477 707q0 -149 -55.5 -283t-161.5 -240q-104 -104 -223.5 -148t-299.5 -44q-16 0 -50.5 1t-53.5 1l-98 2l-70 2q-61 2 -156 2h-264v74l154 18q38 4 50.5 16.5t12.5 43.5v1032q0 31 -12.5 43t-50.5 16l-154 21v73h72l186 4q197 5 328 5q213 0 336 -21t223 -76
q131 -71 209 -218t78 -324zM1235 657q0 164 -57 289t-164 199q-141 96 -441 96q-53 0 -94 -2v-1053q0 -29 3.5 -40.5t15.5 -18.5q24 -15 89.5 -26t137.5 -11q241 0 375.5 150t134.5 417z" />
    <glyph glyph-name="E" unicode="E" horiz-adv-x="1302" 
d="M1214 365l-120 -365h-1047v74l158 18q37 5 50 17t13 43v1034q0 31 -13 42.5t-50 16.5l-158 19v73h782q5 0 22 1t30 1q16 1 49.5 2t46.5 2q85 6 133 33v-377h-72q0 131 -48.5 179.5t-180.5 48.5h-328v-475h346q19 0 29 7t16 25l35 115h60v-440h-64l-35 149q-5 22 -14 30.5
t-29 8.5h-344v-471q0 -31 27.5 -44t93.5 -13h205q148 0 225 71q37 33 51 64q25 31 54 111h77z" />
    <glyph glyph-name="F" unicode="F" horiz-adv-x="1222" 
d="M1090 999h-72q-2 132 -48.5 179t-178.5 47h-310v-475h344q20 0 29.5 7t15.5 27l35 115h60v-442h-62l-35 149q-6 24 -15 31.5t-30 7.5h-342v-493q0 -31 14 -44t52 -16l196 -18v-74h-698v74l158 18q38 4 50.5 16.5t12.5 43.5v1034q0 31 -12.5 43t-50.5 16l-154 19v73h760
q79 0 147 6q80 5 134 33v-377z" />
    <glyph glyph-name="G" unicode="G" horiz-adv-x="1529" 
d="M1442 535l-72 -11q-37 -4 -50 -19t-13 -50v-410q-27 -8 -62 -18q-209 -56 -430 -56q-338 0 -534.5 176t-196.5 478q0 165 55.5 302.5t155.5 233.5t244.5 149.5t316.5 53.5q64 0 287 -25l35 -4l24 -4q5 0 15.5 -1t15.5 -1q46 0 70 31v-404h-68q-7 60 -29 115
q-40 89 -136.5 137.5t-233.5 48.5q-233 0 -373.5 -157t-140.5 -418q0 -266 144.5 -430t379.5 -164q118 0 252 39v328q0 32 -13.5 44t-52.5 17l-184 19v71h594v-71z" />
    <glyph glyph-name="H" unicode="H" horiz-adv-x="1695" 
d="M1657 0h-660v74l158 18q38 4 51 16.5t13 43.5v481h-742v-481q0 -32 13 -43.5t53 -16.5l157 -18v-74h-659v74l160 18q38 5 50.5 16.5t12.5 43.5v1034q0 32 -12 43t-51 16l-160 19v73h659v-73l-157 -19q-40 -5 -53 -16t-13 -43v-443h742v443q0 31 -13 43t-51 16l-158 19v73
h660v-73l-158 -19q-40 -5 -52.5 -16t-12.5 -43v-1034q0 -31 13 -43.5t52 -16.5l158 -18v-74z" />
    <glyph glyph-name="I" unicode="I" horiz-adv-x="749" 
d="M705 0h-660v74l158 18q38 5 50.5 16.5t12.5 43.5v1034q0 32 -12 43t-51 16l-158 19v73h660v-73l-158 -19q-38 -4 -51 -16t-13 -43v-1034q0 -31 13 -43.5t51 -16.5l158 -18v-74z" />
    <glyph glyph-name="J" unicode="J" horiz-adv-x="749" 
d="M698 1264l-145 -19q-38 -4 -51 -16t-13 -43l7 -764q0 -72 -7 -168q-9 -137 -35 -231.5t-77 -178.5q-61 -101 -141.5 -156t-165.5 -55q-68 0 -111 35t-43 92q0 66 47 134q36 -36 89 -59t102 -23q54 0 82 32q23 23 31.5 67t8.5 142v1133q0 32 -13 43t-52 16l-162 19v73h649
v-73z" />
    <glyph glyph-name="K" unicode="K" horiz-adv-x="1419" 
d="M1384 0h-546v74l112 12q39 5 39 18q0 8 -8 21l-315 418q-54 70 -92.5 98.5t-79.5 28.5q-9 0 -19 -2v-516q0 -31 13 -42.5t53 -17.5l129 -18v-74h-623v74l158 18q38 4 50.5 16.5t12.5 43.5v1034q0 31 -12.5 43t-50.5 16l-158 19v73h651v-73l-157 -19q-40 -5 -53 -16
t-13 -43v-486q21 0 29 2t18 7q33 22 99 88l387 401q18 18 18 33q0 17 -29 20l-100 13v73h475v-73l-110 -19q-18 -3 -32 -11.5t-38 -31.5l-469 -438l530 -643q27 -30 50 -33l81 -14v-74z" />
    <glyph glyph-name="L" unicode="L" horiz-adv-x="1144" 
d="M1124 381l-108 -381h-969v74l154 18q38 5 50.5 16.5t12.5 43.5v1034q0 32 -12 43t-51 16l-158 19v73h686v-73l-184 -19q-40 -5 -53 -16t-13 -43v-1000q0 -36 19 -45q33 -20 129 -20h94q78 0 130.5 17.5t92.5 56.5q22 22 45 55q38 63 58 131h77z" />
    <glyph glyph-name="M" unicode="M" horiz-adv-x="1933" 
d="M1878 0h-627v74l164 18q38 5 51 15t13 38v7l-39 976l-516 -1132h-21l-514 1126l-41 -948v-14q0 -33 14 -47.5t52 -18.5l174 -20v-74h-547v74l113 22q29 6 39.5 21.5t13.5 58.5l90 1030q-3 32 -33 35l-194 23v73h432l459 -999l464 999h433v-73l-177 -19q-35 -3 -50 -14.5
t-15 -34.5v-10l80 -1034q3 -33 14 -43.5t49 -16.5l119 -18v-74z" />
    <glyph glyph-name="N" unicode="N" horiz-adv-x="1632" 
d="M1589 1266l-137 -21q-41 -6 -54.5 -30.5t-13.5 -96.5v-1188h-53l-971 1117l31 -826q3 -82 16.5 -102t67.5 -25l211 -20v-74h-635v74l133 20q43 6 56.5 31t13.5 96v938l-47 45q-34 31 -70 45q-38 15 -96 15v73h344l897 -1030l-35 809q-3 76 -12 92q-13 31 -72 37l-196 21
v71h622v-71z" />
    <glyph glyph-name="O" unicode="O" horiz-adv-x="1523" 
d="M1438 719q0 -214 -91 -385.5t-253.5 -268t-364.5 -96.5q-290 0 -466.5 179t-176.5 473q0 212 93.5 382.5t259.5 266.5t372 96q278 0 452.5 -180t174.5 -467zM1198 635q0 176 -56 318t-155 222t-221 80q-189 0 -314.5 -163t-125.5 -410q0 -171 58 -308t160.5 -214.5
t229.5 -77.5q186 0 305 155t119 398z" />
    <glyph glyph-name="P" unicode="P" horiz-adv-x="1193" 
d="M1114 999q0 -153 -110 -272q-74 -82 -172.5 -120t-239.5 -38q-5 0 -111 4v-421q0 -32 13 -44.5t51 -15.5l194 -18v-74h-692v74l156 18q38 5 50.5 16.5t12.5 43.5v1034q0 32 -12 43t-51 16l-158 19v75h47q17 0 107 3t166 4q70 2 184 2q160 0 278 -23q134 -25 210.5 -112
t76.5 -214zM893 942q0 152 -102 232q-72 57 -199 69q-58 4 -111 4v-606q35 -4 72 -4q166 0 253 78t87 227z" />
    <glyph glyph-name="Q" unicode="Q" horiz-adv-x="1523" 
d="M2001 -150q-59 -76 -125 -137q-65 -59 -122 -84.5t-122 -25.5q-49 0 -88 10q-57 13 -196 78l-406 188q-41 18 -78 33q-97 38 -159 59q-89 2 -135 8.5t-99 26.5q-103 41 -182 117q-203 188 -203 498q0 160 54.5 298.5t150.5 236.5t231.5 154t292.5 56q275 0 448 -181
t173 -470q0 -158 -59 -300.5t-171 -254.5q-88 -85 -182 -129q-57 -29 -147 -39q65 -5 110 -12q77 -13 130 -27.5t183 -61.5l86 -30q192 -68 316 -68q47 0 108 14q46 12 76.5 27.5t75.5 50.5zM1198 633q0 270 -123 445t-313 175q-125 0 -225.5 -72.5t-156.5 -201.5t-56 -291
q0 -264 128 -438t324 -174q183 0 302.5 157.5t119.5 399.5z" />
    <glyph glyph-name="R" unicode="R" horiz-adv-x="1380" 
d="M1397 -6q-57 -14 -113 -14q-109 0 -174 26q-67 26 -117 84.5t-141 216.5l-190 332h-183v-487q0 -31 13 -43.5t51 -16.5l155 -18v-74h-649v74l154 18q38 4 50.5 16.5t12.5 43.5v1034q0 31 -12.5 43t-50.5 16l-158 19v71l229 6q250 5 299 5h23q133 0 201.5 -8t132.5 -31
q89 -31 138.5 -99.5t49.5 -160.5q0 -117 -81 -210.5t-212 -127.5l314 -426q98 -131 159 -187q34 -32 99 -43v-59zM901 967q0 136 -90.5 207t-265.5 71q-37 0 -66 -2v-526q43 -4 103 -4q71 0 111.5 6.5t78.5 25.5q61 28 95 86.5t34 135.5z" />
    <glyph glyph-name="S" unicode="S" horiz-adv-x="1064" 
d="M956 412q0 -189 -139.5 -318t-343.5 -129q-84 0 -190 27q-65 16 -162 55l-47 342h67q5 -15 11.5 -33.5t7.5 -21.5q39 -96 108 -156q106 -88 228 -88q112 0 188 68.5t76 169.5q0 54 -25 102q-26 54 -76.5 90t-146.5 70l-80 28q-149 54 -221 141t-72 214q0 173 139 284
t357 111q25 0 54.5 -4t71 -10.5t70.5 -10.5l17 -2q16 -4 26 -4q34 0 52 27v-389h-68q-3 55 -8.5 82.5t-20.5 56.5q-32 64 -98 100.5t-151 36.5q-112 0 -184 -59t-72 -150q0 -77 55 -127.5t190 -97.5l95 -33q121 -42 184 -102q108 -105 108 -270z" />
    <glyph glyph-name="T" unicode="T" horiz-adv-x="1341" 
d="M1286 967h-72q-3 149 -51.5 202.5t-179.5 53.5h-205v-1071q0 -31 14.5 -44t49.5 -16l200 -18v-74h-731v74l187 18q38 3 51.5 16t13.5 44v1071h-215q-128 0 -178 -62q-24 -30 -33 -69t-10 -125h-72v413q61 -45 185 -45h872q72 0 109 9t65 34v-411z" />
    <glyph glyph-name="U" unicode="U" horiz-adv-x="1576" 
d="M1536 1264l-131 -19q-40 -6 -53 -16.5t-13 -38.5v-4l11 -639v-17q0 -172 -50 -278q-63 -135 -205.5 -210t-334.5 -75q-254 0 -402 121q-64 52 -93 123.5t-29 177.5v10l12 787v2q0 30 -12.5 41t-51.5 16l-135 19v73h635v-73l-156 -19q-38 -4 -50.5 -16t-12.5 -43v-697
q0 -123 16 -188q25 -106 110.5 -165.5t211.5 -59.5q182 0 276.5 113t94.5 331v666q0 30 -13.5 42t-52.5 17l-164 19v73h592v-73z" />
    <glyph glyph-name="V" unicode="V" horiz-adv-x="1284" 
d="M1260 1266l-50 -4q-27 -3 -41.5 -15.5t-25.5 -40.5l-473 -1278h-54l-473 1289q-7 22 -20.5 31t-40.5 12l-59 6v71h546v-71l-147 -19q-24 -3 -32.5 -9t-8.5 -19q0 -12 8 -33l301 -916l287 899q10 36 10 43q0 32 -41 35l-168 19v71h482v-71z" />
    <glyph glyph-name="W" unicode="W" horiz-adv-x="1972" 
d="M1948 1266l-52 -4q-48 -3 -65 -56l-455 -1278h-55l-326 1020l-348 -1020h-55l-447 1289q-7 21 -20.5 30.5t-40.5 12.5l-59 6v71h567v-71l-168 -19q-24 -3 -32.5 -9t-8.5 -19q0 -9 6 -33l277 -910l280 826l-31 90q-7 25 -24.5 37t-52.5 18l-107 19v71h524v-71l-112 -19
l-15 -2q-24 -3 -24 -26q0 -12 6 -33l289 -903l268 886q10 31 10 43q0 34 -47 37l-186 17v71h504v-71z" />
    <glyph glyph-name="X" unicode="X" horiz-adv-x="1460" 
d="M1432 0h-576v74l148 18q32 3 32 21q0 10 -12 28l-324 437l-319 -428q-16 -21 -16 -37q0 -18 34 -21l170 -18v-74h-542v74l55 4q52 3 96 53l457 528l-445 560q-26 35 -86 41l-41 4v73h607v-73l-191 -19q-26 -3 -26 -20q0 -5 4 -17l301 -405l321 409q8 11 8 21q0 15 -22 18
l-156 13v73h504v-73l-74 -4q-27 -1 -42.5 -10.5t-39.5 -37.5l-436 -491l469 -590q29 -39 86 -49l56 -8v-74z" />
    <glyph glyph-name="Y" unicode="Y" horiz-adv-x="1302" 
d="M1274 1264l-23 -2q-35 -3 -54 -17t-44 -51l-391 -582v-460q0 -31 13.5 -44t49.5 -16l181 -18v-74h-707v74l182 18q38 5 52 17t14 43v464l-408 607q-22 31 -78 37l-34 4v73h567v-73l-172 -19q-29 -3 -29 -20q0 -8 6 -17l303 -499l299 497q9 18 9 21q0 17 -23 20l-205 17
v73h492v-73z" />
    <glyph glyph-name="Z" unicode="Z" horiz-adv-x="1327" 
d="M1274 383l-98 -383h-1158l902 1223h-459q-144 0 -202 -56t-60 -196h-72v418q36 -30 83 -42t128 -12h897l-881 -1208h477q99 0 160 16t103 54q23 23 39 47q37 51 61 139h80z" />
    <glyph glyph-name="bracketleft" unicode="[" 
d="M537 -354h-355v1851h355v-90h-218v-1671h218v-90z" />
    <glyph glyph-name="backslash" unicode="\" horiz-adv-x="753" 
d="M676 0h-600v70l125 26q57 12 68.5 23t11.5 55v657q0 44 -11.5 55t-68.5 23l-125 27v70h600v-70l-125 -27q-57 -12 -68.5 -23t-11.5 -55v-657q0 -44 11.5 -55t68.5 -23l125 -26v-70z" />
    <glyph glyph-name="bracketright" unicode="]" 
d="M387 -354h-354v90h217v1669h-217v92h354v-1851z" />
    <glyph glyph-name="underscore" unicode="_" horiz-adv-x="2277" 
d="M2279 524h-2281v119h2281v-119z" />
    <glyph glyph-name="grave" unicode="`" horiz-adv-x="0" 
d="M109 1159l-80 -29l-256 306l180 63z" />
    <glyph glyph-name="a" unicode="a" horiz-adv-x="983" 
d="M985 164q-13 -91 -70 -142t-143 -51q-75 0 -117 48t-55 151q-60 -93 -141.5 -143t-171.5 -50q-98 0 -155.5 54.5t-57.5 146.5q0 122 141 217.5t377 132.5v168q0 115 -45.5 167t-145.5 52q-87 0 -108 -41q-9 -16 -12 -75q-70 -60 -142 -60q-19 0 -32 9.5t-13 23.5
q0 18 29 55q80 99 200.5 163.5t225.5 64.5q107 0 170 -76.5t63 -206.5q0 -16 -2 -24l-8 -402v-20q0 -118 19.5 -160.5t76.5 -42.5q51 0 117 41zM594 201v256q-166 -34 -257 -87.5t-91 -119.5q0 -54 41 -90.5t102 -36.5q47 0 105.5 22t99.5 56z" />
    <glyph glyph-name="b" unicode="b" horiz-adv-x="1163" 
d="M1087 578q0 -267 -170 -437t-434 -170q-31 0 -110 9q-83 12 -183 43v1304q0 25 -7.5 35.5t-28.5 11.5l-138 15v65l396 49q-25 -51 -25 -117v-495q128 149 315 149q172 0 278.5 -127.5t106.5 -334.5zM889 508q0 181 -87.5 286t-238.5 105q-97 0 -176 -43v-719
q91 -39 186 -39q145 0 230.5 111t85.5 299z" />
    <glyph glyph-name="c" unicode="c" horiz-adv-x="880" 
d="M868 913q0 -90 -143 -149q-11 24 -33 61q-28 46 -71 71.5t-93 25.5q-111 0 -186.5 -110.5t-75.5 -272.5q0 -183 91 -293.5t243 -110.5q73 0 143 31.5t117 85.5q-10 -103 -51 -158q-44 -60 -128.5 -95.5t-180.5 -35.5q-195 0 -309.5 133.5t-114.5 360.5q0 258 156.5 424
t400.5 166q110 0 172.5 -35.5t62.5 -98.5z" />
    <glyph glyph-name="d" unicode="d" horiz-adv-x="1214" 
d="M1174 12l-383 -49v197q-135 -176 -326 -176q-172 0 -279.5 130t-107.5 337q0 163 68.5 296t189.5 209t268 76q102 0 187 -39v334q0 25 -8.5 35t-30.5 12l-181 15v65l439 49q-25 -51 -25 -117v-1259q0 -25 6 -33t25 -8l158 -6v-68zM791 205v659q-88 60 -189 60
q-146 0 -237 -109.5t-91 -284.5q0 -178 85.5 -282.5t228.5 -104.5q123 0 203 62z" />
    <glyph glyph-name="e" unicode="e" horiz-adv-x="956" 
d="M915 250q0 -123 -110 -203t-277 -80q-204 0 -327 128.5t-123 342.5q0 169 65.5 310.5t180 223t251.5 81.5q88 0 157.5 -33.5t109.5 -95.5q35 -54 49 -120t14 -175h-641q-4 -31 -4 -76q0 -191 99.5 -302.5t269.5 -111.5q83 0 149 28.5t137 94.5v-12zM719 717
q0 100 -52.5 159.5t-140.5 59.5q-89 0 -153.5 -60.5t-93.5 -170.5h438z" />
    <glyph glyph-name="f" unicode="f" horiz-adv-x="716" 
d="M838 1386q0 -43 -34.5 -75.5t-111.5 -63.5q-20 54 -58.5 85.5t-84.5 31.5q-48 0 -84 -39q-26 -31 -35.5 -79.5t-9.5 -149.5v-101h285v-108h-285v-754q0 -24 7 -33t30 -12l168 -18v-70h-555v70l108 16q43 6 43 47v754h-153v53l157 57q8 120 21 178.5t47 116.5
q57 95 154.5 149t214.5 54q82 0 129 -29t47 -80z" />
    <glyph glyph-name="g" unicode="g" horiz-adv-x="1142" 
d="M1133 862l-232 58q36 -47 50 -83.5t14 -88.5q0 -163 -128.5 -273t-318.5 -110q-74 0 -147 24q-32 -28 -44 -46.5t-12 -41.5q0 -41 35 -65q21 -17 57.5 -23t112.5 -6h107h18q176 0 264 -14q174 -24 174 -187q0 -158 -165 -259t-424 -101q-196 0 -311 51.5t-115 140.5
q0 133 229 228q-68 12 -107.5 45t-39.5 79q0 113 196 209q-221 81 -221 291q0 154 132 262.5t321 108.5q131 0 231 -57h324v-142zM778 717q0 14 -2 22q-6 100 -67 161t-156 61q-101 0 -166 -68t-65 -174q0 -110 64.5 -182t164.5 -72t163.5 70t63.5 182zM907 -49
q0 22 -6 35.5t-20 24t-45.5 16t-72.5 9.5t-110 7l-204 10q-35 2 -58 2q-46 4 -63 6q-37 -38 -51.5 -68.5t-14.5 -68.5q0 -76 80.5 -122t214.5 -46q148 0 249 56t101 139z" />
    <glyph glyph-name="h" unicode="h" horiz-adv-x="1247" 
d="M1206 0h-489v70l96 16q43 8 43 47v432q0 133 -12 189q-15 67 -73.5 104t-149.5 37q-110 0 -201 -51v-711q0 -25 7 -33.5t30 -11.5l116 -18v-70h-491v70l96 16q43 8 43 47v1194q0 25 -8 35.5t-29 11.5l-161 15v65l419 49q-22 -51 -22 -117v-503q73 76 165.5 118.5
t186.5 42.5q145 0 219 -100q35 -48 49.5 -120.5t14.5 -209.5v-34l-4 -447v-2q0 -23 7 -31.5t29 -11.5l119 -18v-70z" />
    <glyph glyph-name="i" unicode="i" horiz-adv-x="641" 
d="M455 1366q0 -53 -37.5 -90t-91.5 -37q-52 0 -89.5 37.5t-37.5 89.5q0 54 37 91.5t90 37.5q54 0 91.5 -37.5t37.5 -91.5zM580 0h-494v70l96 16q43 8 43 47v694q0 25 -8.5 34.5t-34.5 12.5l-71 11v45l315 155v-952q0 -25 7 -32.5t32 -12.5l115 -18v-70z" />
    <glyph glyph-name="j" unicode="j" horiz-adv-x="641" 
d="M461 1366q0 -53 -37.5 -90t-91.5 -37t-91.5 37t-37.5 90q0 54 37.5 91.5t91.5 37.5t91.5 -37.5t37.5 -91.5zM446 336q0 -256 -77 -420q-58 -126 -145 -198t-179 -72q-62 0 -98.5 33t-36.5 88q0 58 39 120q33 -33 81 -53t93 -20q62 0 90.5 36t28.5 115v862q0 25 -9 34.5
t-34 12.5l-74 11v45l313 155l8 -735v-14z" />
    <glyph glyph-name="k" unicode="k" horiz-adv-x="1173" 
d="M1169 0h-446v70l65 10q23 3 23 14q0 8 -8 19l-223 338q-50 75 -140 75q-12 0 -24 -2v-391q0 -25 7 -33.5t30 -11.5l116 -18v-70h-506v70l115 16q43 6 43 47v1190q0 30 -7 40t-30 11l-164 15v65l418 49q-22 -51 -22 -117v-837q41 3 72 21t75 69l221 244q25 25 25 35
q0 8 -21 12l-137 6v70h471v-70l-102 -14q-20 -2 -33 -9q-4 -2 -53 -49l-262 -260l352 -471q25 -33 54 -45.5t91 -17.5v-70z" />
    <glyph glyph-name="l" unicode="l" horiz-adv-x="641" 
d="M575 0h-489v70l92 16q43 8 43 47v1194q0 25 -8 35.5t-29 11.5l-164 15v65l426 49q-24 -49 -24 -117v-1253q0 -25 7 -32.5t32 -12.5l114 -18v-70z" />
    <glyph glyph-name="m" unicode="m" horiz-adv-x="1853" 
d="M1808 0h-489v70l98 16q25 4 34 14.5t9 32.5v434q0 92 -1.5 121.5t-10.5 61.5q-17 65 -73.5 102t-137.5 37q-108 0 -217 -53q18 -76 18 -209v-494q0 -25 7 -32.5t32 -12.5l115 -18v-70h-485v70l94 16q43 8 43 47v442q0 87 -3 120t-14 69q-17 61 -73 95t-138 34
q-97 0 -198 -49v-711q0 -24 7 -33t30 -12l116 -18v-70h-487v70l96 16q23 5 33 15t10 32v694q0 25 -9 34.5t-34 12.5l-76 11v45l314 155v-204q92 86 172 123.5t170 37.5q91 0 151 -40t97 -125q75 63 106 84q125 81 258 81q135 0 217 -94q40 -47 55 -104.5t15 -157.5v-55
l-6 -498v-2q0 -22 8 -31t31 -12l116 -18v-70z" />
    <glyph glyph-name="n" unicode="n" horiz-adv-x="1247" 
d="M1206 0h-489v70l96 16q43 8 43 47v432q0 118 -10 172q-12 76 -71 117t-157 41q-102 0 -200 -49v-713q0 -25 7 -32.5t32 -12.5l116 -18v-70h-491v70l96 16q43 8 43 47v694q0 25 -8.5 34.5t-34.5 12.5l-72 11v45l312 155v-200q172 159 362 159q137 0 211 -96
q38 -47 52 -110.5t14 -192.5q0 -10 -1 -31.5t-1 -33.5l-4 -447v-2q0 -24 6.5 -32t29.5 -11l119 -18v-70z" />
    <glyph glyph-name="o" unicode="o" horiz-adv-x="1107" 
d="M1032 557q0 -252 -144 -418t-362 -166q-200 0 -325 138.5t-125 359.5q0 252 148.5 415t377.5 163q193 0 311.5 -135.5t118.5 -356.5zM827 469v18q0 193 -82.5 320t-203.5 127q-114 0 -186 -106t-72 -273q0 -200 83 -332.5t207 -132.5q115 0 184.5 104t69.5 275z" />
    <glyph glyph-name="p" unicode="p" horiz-adv-x="1214" 
d="M1135 582q0 -263 -154 -429.5t-397 -166.5q-97 0 -164 30v-237q0 -24 7 -33t30 -12l135 -19v-69h-512v69l102 17q43 6 43 47v1048q0 25 -9 34.5t-34 12.5l-71 11v45l309 155v-213q70 81 159 124.5t183 43.5q169 0 271 -124.5t102 -333.5zM938 498q0 179 -81 285t-216 106
q-104 0 -221 -53v-693q92 -51 192 -51q146 0 236 112t90 294z" />
    <glyph glyph-name="q" unicode="q" horiz-adv-x="1169" 
d="M1139 -354h-521v69l123 17q43 6 43 47v358q-121 -145 -307 -145q-177 0 -288 126t-111 326q0 167 71 302.5t195.5 212.5t276.5 77q84 0 204 -30l152 92v-1319q0 -23 8 -32.5t31 -12.5l123 -19v-69zM784 178v668q-81 69 -198 69q-140 0 -228 -104.5t-88 -271.5
q0 -184 93.5 -294t248.5 -110q93 0 172 43z" />
    <glyph glyph-name="r" unicode="r" horiz-adv-x="831" 
d="M821 950q0 -93 -131 -162q-8 33 -39.5 53.5t-75.5 20.5q-83 0 -153 -61v-668q0 -25 7 -33.5t30 -11.5l168 -18v-70h-541v70l94 16q43 8 43 47v694q0 25 -9 34.5t-34 12.5l-74 11v45l316 155v-249q42 68 76 104q101 104 207 104q54 0 85 -25.5t31 -68.5z" />
    <glyph glyph-name="s" unicode="s" horiz-adv-x="833" 
d="M745 322q0 -155 -109.5 -255t-279.5 -100q-143 0 -264 64l-49 252h68q31 -90 107 -144.5t171 -54.5q76 0 125 47t49 119q0 112 -141 164l-80 28q-132 47 -185 109.5t-53 165.5q0 148 105.5 243t269.5 95q125 0 240 -56v-231h-57q-26 83 -85.5 127.5t-142.5 44.5
q-70 0 -119 -44.5t-49 -109.5q0 -55 36.5 -89t123.5 -62l70 -23q127 -42 188 -111.5t61 -178.5z" />
    <glyph glyph-name="t" unicode="t" horiz-adv-x="755" 
d="M745 877h-342v-537q0 -85 11 -125q10 -37 46.5 -57.5t90.5 -20.5q106 0 182 64q-8 -80 -39 -121q-33 -49 -107 -78t-161 -29q-117 0 -172 64q-27 32 -36 76.5t-9 142.5v96l12 525h-141v34l301 308h22v-215h342v-127z" />
    <glyph glyph-name="u" unicode="u" horiz-adv-x="1247" 
d="M1210 12l-374 -49v191q-159 -185 -351 -185q-67 0 -127.5 26t-97.5 71q-38 46 -51.5 105t-13.5 181v66l8 436v2q0 23 -7.5 31.5t-29.5 11.5l-98 16v66l350 49q-23 -47 -23 -117v-426q0 -153 11 -215q12 -65 63 -102t127 -37q119 0 240 62v659q0 24 -7.5 33t-29.5 12
l-142 16v66l400 49q-23 -53 -23 -117v-786q0 -24 6 -31.5t25 -9.5l145 -6v-68z" />
    <glyph glyph-name="v" unicode="v" horiz-adv-x="1026" 
d="M1001 936l-49 -4q-12 -1 -17.5 -8.5t-14.5 -32.5l-381 -934h-56l-360 934q-9 23 -16.5 31.5t-22.5 9.5l-33 4v70h443v-70l-140 -16q-18 -3 -18 -17q0 -8 2 -12l219 -651l215 651q4 12 4 14q0 14 -20 17l-107 14v70h352v-70z" />
    <glyph glyph-name="w" unicode="w" horiz-adv-x="1597" 
d="M1575 936l-53 -4q-12 -2 -18 -9t-15 -32l-375 -934h-55l-248 684l-276 -684h-56l-352 934q-9 23 -17 31t-22 10l-41 4v70h451v-70l-142 -16q-18 -3 -18 -17q0 -6 2 -12l213 -649l209 522l-43 127q-7 24 -16 31.5t-31 9.5l-39 4v70h434v-70l-141 -16q-19 -3 -19 -17
q0 -6 2 -12l224 -651l213 651q2 6 2 14q0 14 -19 17l-121 14v70h367v-70z" />
    <glyph glyph-name="x" unicode="x" horiz-adv-x="1171" 
d="M1135 0h-469v70l94 10q22 3 22 16q0 6 -8 19l-225 299l-225 -299q-7 -11 -7 -17q0 -11 23 -14l135 -14v-70h-440v70l53 4q16 2 28 9t34 32l342 374l-330 402q-28 32 -39 39q-12 4 -21 4l-57 2v70h449v-70l-86 -10q-21 -4 -21 -17q0 -2 8 -18l209 -279l203 279q4 6 4 14
q0 14 -20 17l-117 14v70h434v-70l-72 -4q-13 -1 -20.5 -7t-34.5 -34l-319 -352l346 -424q30 -38 69 -41l58 -4v-70z" />
    <glyph glyph-name="y" unicode="y" horiz-adv-x="1024" 
d="M1006 936l-48 -4q-12 -1 -17 -7.5t-17 -33.5l-355 -801q-17 -40 -65 -141q-53 -106 -90.5 -158t-94.5 -96q-78 -60 -163 -60q-67 0 -105.5 31.5t-38.5 85.5q0 57 60 135q29 -46 59.5 -65t71.5 -19q63 0 111.5 51.5t111.5 182.5l29 59l-324 795q-9 24 -16.5 31.5
t-22.5 9.5l-49 4v70h440v-70l-123 -16q-18 -3 -18 -17q0 -6 2 -12l215 -610l219 610q0 3 1 7.5t1 6.5q0 14 -18 17l-129 14v70h373v-70z" />
    <glyph glyph-name="z" unicode="z" horiz-adv-x="1054" 
d="M999 301l-77 -301h-885q51 65 145 193l500 692h-328q-82 0 -118.5 -36t-45.5 -126h-59v319q22 -17 53 -24q72 -14 185 -14h600l-637 -883h317q77 0 119 9t76 34q29 20 46 46.5t42 90.5h67z" />
    <glyph glyph-name="exclamdown" unicode="&#xa1;" 
d="M446 991q0 -68 -47 -116t-114 -48t-115.5 48.5t-48.5 115.5t48.5 115.5t115.5 48.5t114 -48t47 -116zM399 -131q0 -37 -8 -221l-26 10q-77 30 -117 54.5t-62 54.5q-41 53 -41 165q0 158 37 383q6 35 17 98.5t14 82.5q16 86 53 249h66l12 -77q23 -157 41 -379
q14 -197 14 -340v-80z" />
    <glyph glyph-name="cent" unicode="&#xa2;" horiz-adv-x="948" 
d="M942 883q0 -86 -96 -152q-66 185 -236 203v-801q206 3 324 148q-2 -56 -11.5 -89.5t-35.5 -66.5q-43 -54 -115 -92.5t-162 -55.5v-208h-80v202q-212 6 -332 135t-120 349q0 225 125.5 386t326.5 195v178h80v-167q18 2 41 2q135 0 213 -44.5t78 -121.5zM530 141v791
q-42 -8 -81 -27q-80 -44 -130.5 -149.5t-50.5 -229.5q0 -154 72.5 -261t189.5 -124z" />
    <glyph glyph-name="sterling" unicode="&#xa3;" horiz-adv-x="1261" 
d="M1182 201q0 -55 -52 -129q-49 -75 -101 -102t-146 -27q-106 0 -256 30l-148 29q-129 25 -268 25q-71 0 -158 -15v76q65 6 99 16t61 31q26 20 36.5 56t10.5 106v346h-172v68l174 45v32q0 111 11.5 177.5t41.5 130.5q63 138 185.5 213t283.5 75q126 0 200.5 -45t74.5 -120
q0 -79 -88 -156q-54 94 -131 147.5t-160 53.5q-97 0 -158 -74q-31 -37 -43 -87t-12 -138v-209h410v-113h-410v-127q0 -171 -21 -254q-19 -72 -96 -129l4 -10q95 33 178 33q128 0 299 -33l91 -17q31 -6 73 -6q34 0 53 19t19 51q0 37 -37 137q69 -8 110.5 -36.5t41.5 -69.5z
" />
    <glyph glyph-name="section" unicode="&#xa7;" horiz-adv-x="1050" 
d="M944 1247q0 -59 -53 -123q-43 58 -111 101t-118 43q-46 0 -76.5 -36.5t-30.5 -94.5q0 -35 10 -68q23 -77 113 -260l143 -287q66 -132 92.5 -216t26.5 -159q0 -136 -80 -251t-217.5 -181.5t-298.5 -66.5q-132 0 -205 44t-73 122q0 63 57 125q43 -72 123 -127.5t141 -55.5
q60 0 97.5 37t37.5 96q0 78 -119 308l-116 223q-94 180 -129 282t-35 193q0 217 157 353t406 136q123 0 190.5 -35.5t67.5 -101.5zM795 106q0 58 -24 127.5t-87 194.5l-127 254q-11 20 -65 139q-38 82 -52 127.5t-14 89.5q0 103 74 209l-17 27q-104 -49 -160.5 -133.5
t-56.5 -188.5q0 -131 129 -383l115 -223q80 -156 104.5 -222.5t24.5 -127.5q0 -52 -14.5 -95t-51.5 -102l17 -24q99 59 152 144.5t53 186.5z" />
    <glyph glyph-name="dieresis" unicode="&#xa8;" horiz-adv-x="0" 
d="M367 1280q0 -49 -36.5 -86t-84.5 -37q-51 0 -85 35t-34 86q0 50 34.5 84.5t84.5 34.5q51 0 86 -34.5t35 -82.5zM-82 1278q0 -50 -35 -84.5t-86 -34.5q-50 0 -84.5 34t-34.5 83q0 50 36 85.5t85 35.5t84 -34.5t35 -84.5z" />
    <glyph glyph-name="guillemotleft" unicode="&#xab;" horiz-adv-x="1138" 
d="M1069 188l-72 -53l-503 408l510 407l63 -53l-348 -352zM639 178l-76 -51l-508 414l514 413l62 -53l-346 -354z" />
    <glyph glyph-name="macron" unicode="&#xaf;" horiz-adv-x="0" 
d="M336 1196h-647v107h647v-107z" />
    <glyph glyph-name="acute" unicode="&#xb4;" horiz-adv-x="0" 
d="M315 1438l-254 -310l-79 31l157 340z" />
    <glyph glyph-name="periodcentered" unicode="&#xb7;" horiz-adv-x="1138" 
d="M1120 1014l-469 -465l463 -465l-86 -86l-463 467l-467 -465l-82 84l467 463l-465 469l84 86l467 -469l469 463z" />
    <glyph glyph-name="cedilla" unicode="&#xb8;" horiz-adv-x="0" 
d="M260 -225q0 -32 -19 -67.5t-51 -63.5q-56 -46 -130.5 -73.5t-145.5 -27.5q-75 0 -121.5 32.5t-46.5 86.5q0 12 12 55q109 -61 238 -61q48 0 79 14t31 37q0 31 -96 57l-37 11q-21 6 -28.5 12t-7.5 16q0 46 110 189h59q-51 -74 -51 -90q0 -23 60 -35l49 -10q46 -9 71 -30.5
t25 -51.5z" />
    <glyph glyph-name="guillemotright" unicode="&#xbb;" horiz-adv-x="1138" 
d="M1081 545l-512 -414l-61 53l344 355l-352 368l73 51zM645 543l-510 -408l-65 53l350 353l-350 356l69 53z" />
    <glyph glyph-name="questiondown" unicode="&#xbf;" horiz-adv-x="796" 
d="M678 991q0 -68 -47.5 -116t-114.5 -48q-68 0 -116 48.5t-48 115.5t48 115.5t116 48.5q67 0 114.5 -48t47.5 -116zM647 -291q0 -34 -4 -63h-43q-11 51 -37 80q-26 26 -114 45l-142 28q-9 2 -31 8t-34 9q-86 23 -123 69q-41 52 -41 219q0 144 20.5 229t69.5 138
q33 38 74 55q45 18 133 25l53 4l43 4q41 0 61 39q18 31 25 113h66v-336h-150q-95 0 -135 -7t-78 -32q-46 -29 -71 -79.5t-25 -113.5q0 -66 27.5 -97.5t95.5 -43.5l131 -25q76 -13 127 -38q102 -54 102 -230z" />
    <glyph glyph-name="Agrave" unicode="&#xc0;" horiz-adv-x="1380" 
d="M803 1470l-84 -30l-264 319l186 66zM1356 0h-547v74l162 16q23 3 32 9.5t9 21.5q0 1 -6 31l-150 421h-418l-143 -405q-10 -33 -10 -43q0 -31 51 -37l153 -14v-74h-466v74l40 4q27 3 42.5 14.5t25.5 38.5l475 1206l133 97l512 -1313q9 -23 20.5 -31.5t39.5 -11.5l45 -4
v-74zM823 668l-174 501l-178 -501h352z" />
    <glyph glyph-name="Aacute" unicode="&#xc1;" horiz-adv-x="1380" 
d="M1020 1759l-264 -319l-84 30l164 355zM1356 0h-547v74l162 16q23 3 32 9.5t9 21.5q0 1 -6 31l-150 421h-418l-143 -405q-10 -33 -10 -43q0 -31 51 -37l153 -14v-74h-466v74l40 4q27 3 42.5 14.5t25.5 38.5l475 1206l133 97l512 -1313q9 -23 20.5 -31.5t39.5 -11.5l45 -4
v-74zM823 668l-174 501l-178 -501h352z" />
    <glyph glyph-name="Acircumflex" unicode="&#xc2;" horiz-adv-x="1380" 
d="M1028 1473l-84 -31l-225 221l-232 -225l-81 28l243 334h160zM1356 0h-547v74l162 16q23 3 32 9.5t9 21.5q0 1 -6 31l-150 421h-418l-143 -405q-10 -33 -10 -43q0 -31 51 -37l153 -14v-74h-466v74l40 4q27 3 42.5 14.5t25.5 38.5l475 1206l133 97l512 -1313
q9 -23 20.5 -31.5t39.5 -11.5l45 -4v-74zM823 668l-174 501l-178 -501h352z" />
    <glyph glyph-name="Atilde" unicode="&#xc3;" horiz-adv-x="1380" 
d="M1192 1720q-6 -12 -16 -29.5t-13 -23.5q-58 -108 -112 -156q-40 -34 -90 -34q-65 0 -189 41l-96 30q-115 37 -184 37q-42 0 -77.5 -29t-88.5 -106l-60 33q27 45 31 53q37 61 78 109q68 77 160 77q69 0 163 -30l97 -31q121 -41 182 -41q41 0 74 29q21 17 35.5 35t48.5 67z
M1356 0h-547v74l162 16q23 3 32 9.5t9 21.5q0 1 -6 31l-150 421h-418l-143 -405q-10 -33 -10 -43q0 -31 51 -37l153 -14v-74h-466v74l40 4q27 3 42.5 14.5t25.5 38.5l475 1206l133 97l512 -1313q9 -23 20.5 -31.5t39.5 -11.5l45 -4v-74zM823 668l-174 501l-178 -501h352z
" />
    <glyph glyph-name="Adieresis" unicode="&#xc4;" horiz-adv-x="1380" 
d="M1071 1599q0 -52 -37.5 -90.5t-87.5 -38.5q-52 0 -88.5 36t-36.5 89t36.5 89t88.5 36t88.5 -35.5t36.5 -85.5zM604 1597q0 -52 -36 -88t-89 -36q-51 0 -87 35.5t-36 86.5t36.5 88t88.5 37q51 0 87 -36t36 -87zM1356 0h-547v74l162 16q23 3 32 9.5t9 21.5q0 1 -6 31
l-150 421h-418l-143 -405q-10 -33 -10 -43q0 -31 51 -37l153 -14v-74h-466v74l40 4q27 3 42.5 14.5t25.5 38.5l475 1206l133 97l512 -1313q9 -23 20.5 -31.5t39.5 -11.5l45 -4v-74zM823 668l-174 501l-178 -501h352z" />
    <glyph glyph-name="Aring" unicode="&#xc5;" horiz-adv-x="1380" 
d="M1356 0h-547v74l162 16q23 3 32 9.5t9 21.5q0 16 -6 31l-148 421h-420l-143 -405q-10 -33 -10 -43q0 -31 51 -37l153 -14v-74h-466v74l40 4q27 3 42.5 14.5t25.5 38.5l485 1233q-133 64 -133 195q0 91 62 154t151 63q88 0 151.5 -64t63.5 -153q0 -64 -38.5 -117.5
t-104.5 -81.5l483 -1239q9 -23 21 -31.5t39 -11.5l45 -4v-74zM813 1565q0 47 -35 80.5t-84 33.5q-48 0 -81 -33.5t-33 -82.5q0 -50 33.5 -84.5t82.5 -34.5q47 0 82 36t35 85zM823 668l-174 501l-176 -501h350z" />
    <glyph glyph-name="AE" unicode="&#xc6;" horiz-adv-x="1814" 
d="M1733 365l-121 -365h-994v74l140 20q29 4 37 16t8 46v495h-309l-224 -501q-10 -23 -10 -37q0 -12 10 -17t41 -8l162 -14v-74h-479v74l24 2q35 3 57.5 21.5t43.5 58.5l510 1058q4 4 4 17t-27 16l-47 4l-129 13v73h918q3 0 20.5 1t30.5 1q17 1 37.5 1.5t34 1t22.5 1.5
q87 6 135 33v-377h-72q0 131 -48.5 179.5t-180.5 48.5h-328v-475h347q37 0 45 32l32 115h62v-440h-64l-35 149q-5 22 -14 30.5t-29 8.5h-344v-471q0 -31 27.5 -44t91.5 -13h207q148 0 225 71q33 29 52 64q26 41 51 111h80zM803 752v481l-53 2l-213 -483h266z" />
    <glyph glyph-name="Ccedilla" unicode="&#xc7;" horiz-adv-x="1341" 
d="M1280 393l-102 -350q-92 -37 -195 -55q-68 -14 -168 -19q-39 -55 -39 -71q0 -21 62 -35l51 -13q98 -22 98 -83q0 -34 -19.5 -71.5t-52.5 -66.5q-59 -48 -136 -76t-150 -28q-78 0 -126 34t-48 89q0 21 10 57q120 -63 248 -63q51 0 83.5 15t32.5 38q0 35 -102 61l-39 11
q-37 8 -37 28q0 42 99 174q-92 5 -138 12t-110 27q-192 57 -304 225t-112 398q0 160 57.5 297t159 233t246.5 150.5t315 54.5q66 0 131 -6q2 -1 12.5 -1.5t31.5 -3.5t44 -7l35 -7l19 -2q32 -4 37 -4q36 0 57 27v-397h-68q-15 91 -37 141q-34 74 -110.5 114t-186.5 40
q-227 0 -365 -155t-138 -409q0 -176 61 -316t169 -218t243 -78q274 0 407 309h74z" />
    <glyph glyph-name="Egrave" unicode="&#xc8;" horiz-adv-x="1302" 
d="M764 1470l-84 -30l-266 319l188 66zM1214 365l-120 -365h-1047v74l158 18q37 5 50 17t13 43v1034q0 31 -13 42.5t-50 16.5l-158 19v73h782q5 0 22 1t30 1q16 1 49.5 2t46.5 2q85 6 133 33v-377h-72q0 131 -48.5 179.5t-180.5 48.5h-328v-475h346q19 0 29 7t16 25l35 115
h60v-440h-64l-35 149q-5 22 -14 30.5t-29 8.5h-344v-471q0 -31 27.5 -44t93.5 -13h205q148 0 225 71q37 33 51 64q25 31 54 111h77z" />
    <glyph glyph-name="Eacute" unicode="&#xc9;" horiz-adv-x="1302" 
d="M979 1759l-264 -319l-84 30l166 355zM1214 365l-120 -365h-1047v74l158 18q37 5 50 17t13 43v1034q0 31 -13 42.5t-50 16.5l-158 19v73h782q5 0 22 1t30 1q16 1 49.5 2t46.5 2q85 6 133 33v-377h-72q0 131 -48.5 179.5t-180.5 48.5h-328v-475h346q19 0 29 7t16 25l35 115
h60v-440h-64l-35 149q-5 22 -14 30.5t-29 8.5h-344v-471q0 -31 27.5 -44t93.5 -13h205q148 0 225 71q37 33 51 64q25 31 54 111h77z" />
    <glyph glyph-name="Ecircumflex" unicode="&#xca;" horiz-adv-x="1302" 
d="M987 1473l-82 -31l-225 221l-231 -225l-82 28l243 334h160zM1214 365l-120 -365h-1047v74l158 18q37 5 50 17t13 43v1034q0 31 -13 42.5t-50 16.5l-158 19v73h782q5 0 22 1t30 1q16 1 49.5 2t46.5 2q85 6 133 33v-377h-72q0 131 -48.5 179.5t-180.5 48.5h-328v-475h346
q19 0 29 7t16 25l35 115h60v-440h-64l-35 149q-5 22 -14 30.5t-29 8.5h-344v-471q0 -31 27.5 -44t93.5 -13h205q148 0 225 71q37 33 51 64q25 31 54 111h77z" />
    <glyph glyph-name="Edieresis" unicode="&#xcb;" horiz-adv-x="1302" 
d="M1032 1599q0 -52 -38 -90.5t-89 -38.5q-52 0 -87.5 36t-35.5 89t36 89t89 36q52 0 88.5 -35.5t36.5 -85.5zM565 1597q0 -52 -36 -88t-89 -36q-52 0 -88.5 35.5t-36.5 86.5t37.5 88t89.5 37q51 0 87 -36t36 -87zM1214 365l-120 -365h-1047v74l158 18q37 5 50 17t13 43
v1034q0 31 -13 42.5t-50 16.5l-158 19v73h782q5 0 22 1t30 1q16 1 49.5 2t46.5 2q85 6 133 33v-377h-72q0 131 -48.5 179.5t-180.5 48.5h-328v-475h346q19 0 29 7t16 25l35 115h60v-440h-64l-35 149q-5 22 -14 30.5t-29 8.5h-344v-471q0 -31 27.5 -44t93.5 -13h205
q148 0 225 71q37 33 51 64q25 31 54 111h77z" />
    <glyph glyph-name="Igrave" unicode="&#xcc;" horiz-adv-x="749" 
d="M487 1470l-84 -30l-266 319l189 66zM705 0h-660v74l158 18q38 5 50.5 16.5t12.5 43.5v1034q0 32 -12 43t-51 16l-158 19v73h660v-73l-158 -19q-38 -4 -51 -16t-13 -43v-1034q0 -31 13 -43.5t51 -16.5l158 -18v-74z" />
    <glyph glyph-name="Iacute" unicode="&#xcd;" horiz-adv-x="749" 
d="M705 1759l-265 -319l-84 30l164 355zM705 0h-660v74l158 18q38 5 50.5 16.5t12.5 43.5v1034q0 32 -12 43t-51 16l-158 19v73h660v-73l-158 -19q-38 -4 -51 -16t-13 -43v-1034q0 -31 13 -43.5t51 -16.5l158 -18v-74z" />
    <glyph glyph-name="Icircumflex" unicode="&#xce;" horiz-adv-x="749" 
d="M713 1473l-84 -31l-226 221l-231 -225l-82 28l244 334h160zM705 0h-660v74l158 18q38 5 50.5 16.5t12.5 43.5v1034q0 32 -12 43t-51 16l-158 19v73h660v-73l-158 -19q-38 -4 -51 -16t-13 -43v-1034q0 -31 13 -43.5t51 -16.5l158 -18v-74z" />
    <glyph glyph-name="Idieresis" unicode="&#xcf;" horiz-adv-x="749" 
d="M756 1599q0 -52 -38 -90.5t-89 -38.5t-87 36.5t-36 88.5q0 53 36 89t89 36q52 0 88.5 -35.5t36.5 -85.5zM289 1597q0 -52 -36 -88t-89 -36q-52 0 -88.5 35.5t-36.5 86.5t37.5 88t89.5 37q51 0 87 -36t36 -87zM705 0h-660v74l158 18q38 5 50.5 16.5t12.5 43.5v1034
q0 32 -12 43t-51 16l-158 19v73h660v-73l-158 -19q-38 -4 -51 -16t-13 -43v-1034q0 -31 13 -43.5t51 -16.5l158 -18v-74z" />
    <glyph glyph-name="Ntilde" unicode="&#xd1;" horiz-adv-x="1632" 
d="M1319 1720q-14 -23 -29 -53q-64 -114 -114 -156q-40 -34 -89 -34q-58 0 -188 41l-96 30q-115 37 -185 37q-44 0 -78.5 -29t-86.5 -106l-60 33q5 11 16 28.5t15 24.5q41 69 76 109q68 77 159 77q67 0 166 -30l97 -31q135 -41 182 -41q38 0 74 29q30 25 82 102zM1589 1266
l-137 -21q-41 -6 -54.5 -30.5t-13.5 -96.5v-1188h-53l-971 1117l31 -826q3 -82 16.5 -102t67.5 -25l211 -20v-74h-635v74l133 20q43 6 56.5 31t13.5 96v938l-47 45q-34 31 -70 45q-38 15 -96 15v73h344l897 -1030l-35 809q-3 76 -12 92q-13 31 -72 37l-196 21v71h622v-71z
" />
    <glyph glyph-name="Ograve" unicode="&#xd2;" horiz-adv-x="1523" 
d="M874 1470l-83 -30l-267 319l189 66zM1438 719q0 -214 -91 -385.5t-253.5 -268t-364.5 -96.5q-290 0 -466.5 179t-176.5 473q0 212 93.5 382.5t259.5 266.5t372 96q278 0 452.5 -180t174.5 -467zM1198 635q0 176 -56 318t-155 222t-221 80q-189 0 -314.5 -163t-125.5 -410
q0 -171 58 -308t160.5 -214.5t229.5 -77.5q186 0 305 155t119 398z" />
    <glyph glyph-name="Oacute" unicode="&#xd3;" horiz-adv-x="1523" 
d="M1092 1759l-265 -319l-84 30l164 355zM1438 719q0 -214 -91 -385.5t-253.5 -268t-364.5 -96.5q-290 0 -466.5 179t-176.5 473q0 212 93.5 382.5t259.5 266.5t372 96q278 0 452.5 -180t174.5 -467zM1198 635q0 176 -56 318t-155 222t-221 80q-189 0 -314.5 -163
t-125.5 -410q0 -171 58 -308t160.5 -214.5t229.5 -77.5q186 0 305 155t119 398z" />
    <glyph glyph-name="Ocircumflex" unicode="&#xd4;" horiz-adv-x="1523" 
d="M1100 1473l-84 -31l-225 221l-232 -225l-82 28l244 334h160zM1438 719q0 -214 -91 -385.5t-253.5 -268t-364.5 -96.5q-290 0 -466.5 179t-176.5 473q0 212 93.5 382.5t259.5 266.5t372 96q278 0 452.5 -180t174.5 -467zM1198 635q0 176 -56 318t-155 222t-221 80
q-189 0 -314.5 -163t-125.5 -410q0 -171 58 -308t160.5 -214.5t229.5 -77.5q186 0 305 155t119 398z" />
    <glyph glyph-name="Otilde" unicode="&#xd5;" horiz-adv-x="1523" 
d="M1264 1720q-6 -12 -16 -29.5t-13 -23.5q-57 -107 -113 -156q-40 -34 -90 -34q-64 0 -188 41l-96 30q-115 37 -185 37q-42 0 -77.5 -29t-88.5 -106l-59 33q27 45 31 53q39 65 77 109q68 77 160 77q70 0 164 -30l96 -31q121 -41 183 -41q40 0 73 29q21 17 35.5 35t48.5 67z
M1438 719q0 -214 -91 -385.5t-253.5 -268t-364.5 -96.5q-290 0 -466.5 179t-176.5 473q0 212 93.5 382.5t259.5 266.5t372 96q278 0 452.5 -180t174.5 -467zM1198 635q0 176 -56 318t-155 222t-221 80q-189 0 -314.5 -163t-125.5 -410q0 -171 58 -308t160.5 -214.5
t229.5 -77.5q186 0 305 155t119 398z" />
    <glyph glyph-name="Odieresis" unicode="&#xd6;" horiz-adv-x="1523" 
d="M1143 1599q0 -52 -38 -90.5t-89 -38.5t-87 36.5t-36 88.5q0 53 36.5 89t88.5 36t88.5 -35.5t36.5 -85.5zM676 1597q0 -52 -36 -88t-89 -36q-52 0 -88.5 35.5t-36.5 86.5t37.5 88t89.5 37q51 0 87 -36t36 -87zM1438 719q0 -214 -91 -385.5t-253.5 -268t-364.5 -96.5
q-290 0 -466.5 179t-176.5 473q0 212 93.5 382.5t259.5 266.5t372 96q278 0 452.5 -180t174.5 -467zM1198 635q0 176 -56 318t-155 222t-221 80q-189 0 -314.5 -163t-125.5 -410q0 -171 58 -308t160.5 -214.5t229.5 -77.5q186 0 305 155t119 398z" />
    <glyph glyph-name="Oslash" unicode="&#xd8;" horiz-adv-x="1523" 
d="M1436 709q0 -155 -55 -293t-149 -237t-225.5 -156.5t-279.5 -57.5q-144 0 -270 53l-125 -227l-86 49l125 223q-63 40 -94 68.5t-66 75.5q-58 78 -91.5 190.5t-33.5 229.5q0 206 93 374t256.5 263.5t363.5 95.5q79 0 137.5 -11t128.5 -40l115 207l84 -46l-115 -204
q59 -39 89.5 -67.5t66.5 -76.5q131 -169 131 -413zM1214 633q0 92 -22 191.5t-59 176.5q-24 49 -72 107l-529 -954q121 -86 238 -86q123 0 225 74t160.5 204t58.5 287zM993 1180q-102 80 -217 80q-203 0 -333 -165t-130 -421q0 -290 148 -451z" />
    <glyph glyph-name="Ugrave" unicode="&#xd9;" horiz-adv-x="1576" 
d="M901 1470l-84 -30l-264 319l186 66zM1536 1264l-131 -19q-40 -6 -53 -16.5t-13 -38.5v-4l11 -639v-17q0 -172 -50 -278q-63 -135 -205.5 -210t-334.5 -75q-254 0 -402 121q-64 52 -93 123.5t-29 177.5v10l12 787v2q0 30 -12.5 41t-51.5 16l-135 19v73h635v-73l-156 -19
q-38 -4 -50.5 -16t-12.5 -43v-697q0 -123 16 -188q25 -106 110.5 -165.5t211.5 -59.5q182 0 276.5 113t94.5 331v666q0 30 -13.5 42t-52.5 17l-164 19v73h592v-73z" />
    <glyph glyph-name="Uacute" unicode="&#xda;" horiz-adv-x="1576" 
d="M1118 1759l-264 -319l-84 30l164 355zM1536 1264l-131 -19q-40 -6 -53 -16.5t-13 -38.5v-4l11 -639v-17q0 -172 -50 -278q-63 -135 -205.5 -210t-334.5 -75q-254 0 -402 121q-64 52 -93 123.5t-29 177.5v10l12 787v2q0 30 -12.5 41t-51.5 16l-135 19v73h635v-73l-156 -19
q-38 -4 -50.5 -16t-12.5 -43v-697q0 -123 16 -188q25 -106 110.5 -165.5t211.5 -59.5q182 0 276.5 113t94.5 331v666q0 30 -13.5 42t-52.5 17l-164 19v73h592v-73z" />
    <glyph glyph-name="Ucircumflex" unicode="&#xdb;" horiz-adv-x="1576" 
d="M1126 1473l-84 -31l-225 221l-231 -225l-82 28l244 334h159zM1536 1264l-131 -19q-40 -6 -53 -16.5t-13 -38.5v-4l11 -639v-17q0 -172 -50 -278q-63 -135 -205.5 -210t-334.5 -75q-254 0 -402 121q-64 52 -93 123.5t-29 177.5v10l12 787v2q0 30 -12.5 41t-51.5 16
l-135 19v73h635v-73l-156 -19q-38 -4 -50.5 -16t-12.5 -43v-697q0 -123 16 -188q25 -106 110.5 -165.5t211.5 -59.5q182 0 276.5 113t94.5 331v666q0 30 -13.5 42t-52.5 17l-164 19v73h592v-73z" />
    <glyph glyph-name="Udieresis" unicode="&#xdc;" horiz-adv-x="1576" 
d="M1169 1599q0 -53 -37 -91t-88 -38q-52 0 -88 36t-36 89q0 52 36.5 88.5t87.5 36.5q52 0 88.5 -35.5t36.5 -85.5zM702 1597q0 -53 -36 -88.5t-88 -35.5q-51 0 -87 35.5t-36 86.5t37 88t88 37t86.5 -36t35.5 -87zM1536 1264l-131 -19q-40 -6 -53 -16.5t-13 -38.5v-4
l11 -639v-17q0 -172 -50 -278q-63 -135 -205.5 -210t-334.5 -75q-254 0 -402 121q-64 52 -93 123.5t-29 177.5v10l12 787v2q0 30 -12.5 41t-51.5 16l-135 19v73h635v-73l-156 -19q-38 -4 -50.5 -16t-12.5 -43v-697q0 -123 16 -188q25 -106 110.5 -165.5t211.5 -59.5
q182 0 276.5 113t94.5 331v666q0 30 -13.5 42t-52.5 17l-164 19v73h592v-73z" />
    <glyph glyph-name="germandbls" unicode="&#xdf;" horiz-adv-x="1288" 
d="M1225 317q0 -146 -107 -246t-264 -100q-124 0 -196 53.5t-72 145.5q0 63 35 119q51 -83 132.5 -134t161.5 -51q64 0 105 38t41 98q0 58 -44 102.5t-138 81.5l-54 20q-115 44 -164 101.5t-49 148.5q0 122 74 196t211 87l21 4q54 4 71 26.5t17 86.5q0 124 -82.5 205
t-210.5 81q-120 0 -199 -63q-48 -41 -68 -92q-22 -52 -27 -100.5t-5 -194.5v-789q0 -35 7.5 -46.5t33.5 -14.5l82 -10v-70h-474v70l105 14q31 5 40 16t9 47v742h-158v65l164 39q8 94 24.5 153t51.5 114q68 106 190.5 168.5t264.5 62.5q190 0 303.5 -107t113.5 -286
q0 -104 -36 -152q-20 -26 -55.5 -38t-102.5 -17l-57 -4q-68 -5 -105 -36t-37 -83q0 -47 31 -78t106 -57l70 -25q124 -44 182 -114.5t58 -176.5z" />
    <glyph glyph-name="agrave" unicode="&#xe0;" horiz-adv-x="983" 
d="M555 1159l-82 -29l-256 306l180 63zM985 164q-13 -91 -70 -142t-143 -51q-75 0 -117 48t-55 151q-60 -93 -141.5 -143t-171.5 -50q-98 0 -155.5 54.5t-57.5 146.5q0 122 141 217.5t377 132.5v168q0 115 -45.5 167t-145.5 52q-87 0 -108 -41q-9 -16 -12 -75
q-70 -60 -142 -60q-19 0 -32 9.5t-13 23.5q0 18 29 55q80 99 200.5 163.5t225.5 64.5q107 0 170 -76.5t63 -206.5q0 -16 -2 -24l-8 -402v-20q0 -118 19.5 -160.5t76.5 -42.5q51 0 117 41zM594 201v256q-166 -34 -257 -87.5t-91 -119.5q0 -54 41 -90.5t102 -36.5
q47 0 105.5 22t99.5 56z" />
    <glyph glyph-name="aacute" unicode="&#xe1;" horiz-adv-x="983" 
d="M762 1438l-254 -310l-82 31l160 340zM985 164q-13 -91 -70 -142t-143 -51q-75 0 -117 48t-55 151q-60 -93 -141.5 -143t-171.5 -50q-98 0 -155.5 54.5t-57.5 146.5q0 122 141 217.5t377 132.5v168q0 115 -45.5 167t-145.5 52q-87 0 -108 -41q-9 -16 -12 -75
q-70 -60 -142 -60q-19 0 -32 9.5t-13 23.5q0 18 29 55q80 99 200.5 163.5t225.5 64.5q107 0 170 -76.5t63 -206.5q0 -16 -2 -24l-8 -402v-20q0 -118 19.5 -160.5t76.5 -42.5q51 0 117 41zM594 201v256q-166 -34 -257 -87.5t-91 -119.5q0 -54 41 -90.5t102 -36.5
q47 0 105.5 22t99.5 56z" />
    <glyph glyph-name="acircumflex" unicode="&#xe2;" horiz-adv-x="983" 
d="M770 1159l-82 -26l-215 210l-223 -217l-78 29l234 322h153zM985 164q-13 -91 -70 -142t-143 -51q-75 0 -117 48t-55 151q-60 -93 -141.5 -143t-171.5 -50q-98 0 -155.5 54.5t-57.5 146.5q0 122 141 217.5t377 132.5v168q0 115 -45.5 167t-145.5 52q-87 0 -108 -41
q-9 -16 -12 -75q-70 -60 -142 -60q-19 0 -32 9.5t-13 23.5q0 18 29 55q80 99 200.5 163.5t225.5 64.5q107 0 170 -76.5t63 -206.5q0 -16 -2 -24l-8 -402v-20q0 -118 19.5 -160.5t76.5 -42.5q51 0 117 41zM594 201v256q-166 -34 -257 -87.5t-91 -119.5q0 -54 41 -90.5
t102 -36.5q47 0 105.5 22t99.5 56z" />
    <glyph glyph-name="atilde" unicode="&#xe3;" horiz-adv-x="983" 
d="M930 1399q-11 -23 -29 -53q-62 -113 -113 -158q-41 -35 -90 -35q-43 0 -188 43l-96 29q-122 37 -185 37q-43 0 -78 -28.5t-88 -105.5l-59 31q15 25 31 53q41 68 78 111q68 78 157 78q62 0 166 -33l96 -31q121 -41 183 -41q40 0 73 29q14 11 26.5 25t20.5 26t37 54z
M985 164q-13 -91 -70 -142t-143 -51q-75 0 -117 48t-55 151q-60 -93 -141.5 -143t-171.5 -50q-98 0 -155.5 54.5t-57.5 146.5q0 122 141 217.5t377 132.5v168q0 115 -45.5 167t-145.5 52q-87 0 -108 -41q-9 -16 -12 -75q-70 -60 -142 -60q-19 0 -32 9.5t-13 23.5q0 18 29 55
q80 99 200.5 163.5t225.5 64.5q107 0 170 -76.5t63 -206.5q0 -16 -2 -24l-8 -402v-20q0 -118 19.5 -160.5t76.5 -42.5q51 0 117 41zM594 201v256q-166 -34 -257 -87.5t-91 -119.5q0 -54 41 -90.5t102 -36.5q47 0 105.5 22t99.5 56z" />
    <glyph glyph-name="adieresis" unicode="&#xe4;" horiz-adv-x="983" 
d="M811 1282q0 -50 -36 -86.5t-85 -36.5q-51 0 -85 35t-34 86q0 50 35 84.5t86 34.5q49 0 84 -34.5t35 -82.5zM362 1280q0 -50 -34.5 -84.5t-85.5 -34.5q-50 0 -84.5 34t-34.5 85q0 48 36 83.5t85 35.5t83.5 -34.5t34.5 -84.5zM985 164q-13 -91 -70 -142t-143 -51
q-75 0 -117 48t-55 151q-60 -93 -141.5 -143t-171.5 -50q-98 0 -155.5 54.5t-57.5 146.5q0 122 141 217.5t377 132.5v168q0 115 -45.5 167t-145.5 52q-87 0 -108 -41q-9 -16 -12 -75q-70 -60 -142 -60q-19 0 -32 9.5t-13 23.5q0 18 29 55q80 99 200.5 163.5t225.5 64.5
q107 0 170 -76.5t63 -206.5q0 -16 -2 -24l-8 -402v-20q0 -118 19.5 -160.5t76.5 -42.5q51 0 117 41zM594 201v256q-166 -34 -257 -87.5t-91 -119.5q0 -54 41 -90.5t102 -36.5q47 0 105.5 22t99.5 56z" />
    <glyph glyph-name="aring" unicode="&#xe5;" horiz-adv-x="983" 
d="M709 1339q0 -85 -61 -147t-144 -62q-86 0 -146.5 61.5t-60.5 147.5q0 85 60 145t145 60q83 0 145 -61.5t62 -143.5zM985 164q-13 -91 -70 -142t-143 -51q-75 0 -117 48t-55 151q-60 -93 -141.5 -143t-171.5 -50q-98 0 -155.5 54.5t-57.5 146.5q0 122 141 217.5t377 132.5
v168q0 115 -45.5 167t-145.5 52q-87 0 -108 -41q-9 -16 -12 -75q-70 -60 -142 -60q-19 0 -32 9.5t-13 23.5q0 18 29 55q80 99 200.5 163.5t225.5 64.5q107 0 170 -76.5t63 -206.5q0 -16 -2 -24l-8 -402v-20q0 -118 19.5 -160.5t76.5 -42.5q51 0 117 41zM614 1339
q0 46 -33.5 78.5t-80.5 32.5q-46 0 -78.5 -32.5t-32.5 -78.5q0 -47 33 -80.5t80 -33.5q46 0 79 34t33 80zM594 201v256q-166 -34 -257 -87.5t-91 -119.5q0 -54 41 -90.5t102 -36.5q47 0 105.5 22t99.5 56z" />
    <glyph glyph-name="ae" unicode="&#xe6;" horiz-adv-x="1372" 
d="M1354 258q-8 -92 -43 -145q-43 -66 -125.5 -105t-179.5 -39q-141 0 -248 80q-38 29 -65 62.5t-58 89.5q-145 -226 -354 -226q-95 0 -156.5 54.5t-61.5 138.5q0 68 48 131q41 59 126 106t271 117l76 29l6 115v39q0 219 -178 219q-53 0 -89 -20t-36 -48v-4v-14v-2
q0 -28 -29 -45q-30 -20 -68 -33t-63 -13q-41 0 -41 31q0 28 31 62q78 93 200.5 153t233.5 60q69 0 116.5 -38.5t69.5 -111.5q52 70 130.5 108t172.5 38q137 0 217 -86q40 -41 58.5 -90.5t27.5 -135.5l-600 -209q8 -183 95 -287t235 -104q158 0 281 123zM1149 748
q-24 186 -154 186q-100 0 -172 -92t-82 -234zM616 244q-15 55 -20 96q-10 51 -12 127q-188 -62 -254 -100q-86 -47 -86 -121q0 -48 36.5 -81.5t90.5 -33.5q50 0 120 32.5t125 80.5z" />
    <glyph glyph-name="ccedilla" unicode="&#xe7;" horiz-adv-x="880" 
d="M868 913q0 -90 -143 -149q-11 24 -33 61q-28 46 -71 71.5t-93 25.5q-111 0 -186.5 -110.5t-75.5 -272.5q0 -183 91 -293.5t243 -110.5q73 0 143 31.5t117 85.5q-10 -103 -51 -158q-34 -46 -95.5 -79.5t-133.5 -45.5q-37 -56 -37 -67q0 -23 59 -35l49 -10q47 -9 72 -30.5
t25 -51.5q0 -32 -19.5 -67.5t-50.5 -63.5q-56 -46 -130.5 -73.5t-146.5 -27.5q-75 0 -121.5 32.5t-46.5 86.5q0 17 13 55q109 -61 235 -61q50 0 81.5 14t31.5 37q0 34 -96 57l-39 11q-35 8 -35 28q0 39 90 160q-94 0 -162 23q-132 46 -204 169t-72 302q0 258 156.5 424
t400.5 166q110 0 172.5 -35.5t62.5 -98.5z" />
    <glyph glyph-name="egrave" unicode="&#xe8;" horiz-adv-x="956" 
d="M631 1159l-82 -29l-254 306l180 63zM915 250q0 -123 -110 -203t-277 -80q-204 0 -327 128.5t-123 342.5q0 169 65.5 310.5t180 223t251.5 81.5q88 0 157.5 -33.5t109.5 -95.5q35 -54 49 -120t14 -175h-641q-4 -31 -4 -76q0 -191 99.5 -302.5t269.5 -111.5q83 0 149 28.5
t137 94.5v-12zM719 717q0 100 -52.5 159.5t-140.5 59.5q-89 0 -153.5 -60.5t-93.5 -170.5h438z" />
    <glyph glyph-name="eacute" unicode="&#xe9;" horiz-adv-x="956" 
d="M842 1438l-254 -310l-82 31l158 340zM915 250q0 -123 -110 -203t-277 -80q-204 0 -327 128.5t-123 342.5q0 169 65.5 310.5t180 223t251.5 81.5q88 0 157.5 -33.5t109.5 -95.5q35 -54 49 -120t14 -175h-641q-4 -31 -4 -76q0 -191 99.5 -302.5t269.5 -111.5q83 0 149 28.5
t137 94.5v-12zM719 717q0 100 -52.5 159.5t-140.5 59.5q-89 0 -153.5 -60.5t-93.5 -170.5h438z" />
    <glyph glyph-name="ecircumflex" unicode="&#xea;" horiz-adv-x="956" 
d="M850 1159l-82 -26l-215 210l-223 -217l-78 29l233 322h154zM915 250q0 -123 -110 -203t-277 -80q-204 0 -327 128.5t-123 342.5q0 169 65.5 310.5t180 223t251.5 81.5q88 0 157.5 -33.5t109.5 -95.5q35 -54 49 -120t14 -175h-641q-4 -31 -4 -76q0 -191 99.5 -302.5
t269.5 -111.5q83 0 149 28.5t137 94.5v-12zM719 717q0 100 -52.5 159.5t-140.5 59.5q-89 0 -153.5 -60.5t-93.5 -170.5h438z" />
    <glyph glyph-name="edieresis" unicode="&#xeb;" horiz-adv-x="956" 
d="M891 1282q0 -50 -36 -86.5t-85 -36.5q-51 0 -85 35t-34 86q0 50 35 84.5t86 34.5q49 0 84 -34.5t35 -82.5zM442 1280q0 -50 -34.5 -84.5t-85.5 -34.5q-50 0 -84.5 34t-34.5 83q0 50 35.5 85.5t85.5 35.5q49 0 83.5 -34.5t34.5 -84.5zM915 250q0 -123 -110 -203t-277 -80
q-204 0 -327 128.5t-123 342.5q0 169 65.5 310.5t180 223t251.5 81.5q88 0 157.5 -33.5t109.5 -95.5q35 -54 49 -120t14 -175h-641q-4 -31 -4 -76q0 -191 99.5 -302.5t269.5 -111.5q83 0 149 28.5t137 94.5v-12zM719 717q0 100 -52.5 159.5t-140.5 59.5q-89 0 -153.5 -60.5
t-93.5 -170.5h438z" />
    <glyph glyph-name="igrave" unicode="&#xec;" horiz-adv-x="641" 
d="M428 1159l-80 -29l-256 306l180 63zM580 0h-494v70l96 16q43 8 43 47v694q0 25 -8.5 34.5t-34.5 12.5l-71 11v45l315 155v-952q0 -25 7 -32.5t32 -12.5l115 -18v-70z" />
    <glyph glyph-name="iacute" unicode="&#xed;" horiz-adv-x="641" 
d="M637 1438l-254 -310l-82 31l158 340zM580 0h-494v70l96 16q43 8 43 47v694q0 25 -8.5 34.5t-34.5 12.5l-71 11v45l315 155v-952q0 -25 7 -32.5t32 -12.5l115 -18v-70z" />
    <glyph glyph-name="icircumflex" unicode="&#xee;" horiz-adv-x="641" 
d="M645 1159l-82 -26l-215 210l-223 -217l-78 29l234 322h153zM580 0h-494v70l96 16q43 8 43 47v694q0 25 -8.5 34.5t-34.5 12.5l-71 11v45l315 155v-952q0 -25 7 -32.5t32 -12.5l115 -18v-70z" />
    <glyph glyph-name="idieresis" unicode="&#xef;" horiz-adv-x="641" 
d="M686 1282q0 -50 -36 -86.5t-85 -36.5q-51 0 -85 35t-34 86q0 50 35 84.5t86 34.5q49 0 84 -34.5t35 -82.5zM238 1280q0 -50 -35 -84.5t-86 -34.5q-50 0 -84.5 34t-34.5 83q0 50 36 85.5t85 35.5t84 -34.5t35 -84.5zM580 0h-494v70l96 16q43 8 43 47v694q0 25 -8.5 34.5
t-34.5 12.5l-71 11v45l315 155v-952q0 -25 7 -32.5t32 -12.5l115 -18v-70z" />
    <glyph glyph-name="ntilde" unicode="&#xf1;" horiz-adv-x="1247" 
d="M1108 1399q-11 -23 -29 -53q-57 -106 -112 -158q-41 -35 -90 -35q-50 0 -189 43l-96 29q-125 37 -184 37q-43 0 -78 -28.5t-88 -105.5l-60 31q15 25 31 53q41 68 78 111q68 78 160 78q59 0 163 -33l97 -31q121 -41 182 -41q41 0 74 29q21 17 36 35.5t48 69.5zM1206 0
h-489v70l96 16q43 8 43 47v432q0 118 -10 172q-12 76 -71 117t-157 41q-102 0 -200 -49v-713q0 -25 7 -32.5t32 -12.5l116 -18v-70h-491v70l96 16q43 8 43 47v694q0 25 -8.5 34.5t-34.5 12.5l-72 11v45l312 155v-200q172 159 362 159q137 0 211 -96q38 -47 52 -110.5
t14 -192.5q0 -10 -1 -31.5t-1 -33.5l-4 -447v-2q0 -24 6.5 -32t29.5 -11l119 -18v-70z" />
    <glyph glyph-name="ograve" unicode="&#xf2;" horiz-adv-x="1107" 
d="M664 1159l-82 -29l-256 306l180 63zM1032 557q0 -252 -144 -418t-362 -166q-200 0 -325 138.5t-125 359.5q0 252 148.5 415t377.5 163q193 0 311.5 -135.5t118.5 -356.5zM827 469v18q0 193 -82.5 320t-203.5 127q-114 0 -186 -106t-72 -273q0 -200 83 -332.5t207 -132.5
q115 0 184.5 104t69.5 275z" />
    <glyph glyph-name="oacute" unicode="&#xf3;" horiz-adv-x="1107" 
d="M870 1438l-254 -310l-79 31l157 340zM1032 557q0 -252 -144 -418t-362 -166q-200 0 -325 138.5t-125 359.5q0 252 148.5 415t377.5 163q193 0 311.5 -135.5t118.5 -356.5zM827 469v18q0 193 -82.5 320t-203.5 127q-114 0 -186 -106t-72 -273q0 -200 83 -332.5t207 -132.5
q115 0 184.5 104t69.5 275z" />
    <glyph glyph-name="ocircumflex" unicode="&#xf4;" horiz-adv-x="1107" 
d="M879 1159l-80 -26l-217 210l-224 -217l-77 29l233 322h154zM1032 557q0 -252 -144 -418t-362 -166q-200 0 -325 138.5t-125 359.5q0 252 148.5 415t377.5 163q193 0 311.5 -135.5t118.5 -356.5zM827 469v18q0 193 -82.5 320t-203.5 127q-114 0 -186 -106t-72 -273
q0 -200 83 -332.5t207 -132.5q115 0 184.5 104t69.5 275z" />
    <glyph glyph-name="otilde" unicode="&#xf5;" horiz-adv-x="1107" 
d="M1038 1399q-15 -32 -28 -53q-59 -110 -113 -158q-41 -35 -88 -35q-43 0 -188 43l-97 29q-118 37 -186 37q-43 0 -78 -28.5t-86 -105.5l-61 31q31 51 32 53q53 84 76 111q68 78 160 78q60 0 164 -33l96 -31q49 -17 104 -29t78 -12q41 0 74 29q21 17 36 35.5t48 69.5z
M1032 557q0 -252 -144 -418t-362 -166q-200 0 -325 138.5t-125 359.5q0 252 148.5 415t377.5 163q193 0 311.5 -135.5t118.5 -356.5zM827 469v18q0 193 -82.5 320t-203.5 127q-114 0 -186 -106t-72 -273q0 -200 83 -332.5t207 -132.5q115 0 184.5 104t69.5 275z" />
    <glyph glyph-name="odieresis" unicode="&#xf6;" horiz-adv-x="1107" 
d="M920 1282q0 -50 -36 -86.5t-85 -36.5q-50 0 -84.5 35t-34.5 86q0 50 35 84.5t86 34.5q49 0 84 -34.5t35 -82.5zM471 1280q0 -50 -34.5 -84.5t-84.5 -34.5q-51 0 -86 34t-35 83q0 50 35.5 85.5t85.5 35.5t84.5 -34.5t34.5 -84.5zM1032 557q0 -252 -144 -418t-362 -166
q-200 0 -325 138.5t-125 359.5q0 252 148.5 415t377.5 163q193 0 311.5 -135.5t118.5 -356.5zM827 469v18q0 193 -82.5 320t-203.5 127q-114 0 -186 -106t-72 -273q0 -200 83 -332.5t207 -132.5q115 0 184.5 104t69.5 275z" />
    <glyph glyph-name="oslash" unicode="&#xf8;" horiz-adv-x="1107" 
d="M1034 567q0 -166 -68 -301t-187.5 -212t-264.5 -77q-50 0 -80.5 6.5t-81.5 28.5l-110 -221l-68 33l109 221q-209 137 -209 424q0 158 69.5 292t190 212t262.5 78q46 0 78 -6t88 -25l102 211l70 -33l-105 -213q100 -63 152.5 -169.5t52.5 -248.5zM842 485q0 179 -94 330
l-328 -665q71 -62 147 -62q117 0 196 113.5t79 283.5zM692 879q-73 59 -147 59q-119 0 -196 -111t-77 -282q0 -188 90 -336z" />
    <glyph glyph-name="ugrave" unicode="&#xf9;" horiz-adv-x="1247" 
d="M733 1159l-82 -29l-256 306l180 63zM1210 12l-374 -49v191q-159 -185 -351 -185q-67 0 -127.5 26t-97.5 71q-38 46 -51.5 105t-13.5 181v66l8 436v2q0 23 -7.5 31.5t-29.5 11.5l-98 16v66l350 49q-23 -47 -23 -117v-426q0 -153 11 -215q12 -65 63 -102t127 -37
q119 0 240 62v659q0 24 -7.5 33t-29.5 12l-142 16v66l400 49q-23 -53 -23 -117v-786q0 -24 6 -31.5t25 -9.5l145 -6v-68z" />
    <glyph glyph-name="uacute" unicode="&#xfa;" horiz-adv-x="1247" 
d="M940 1438l-254 -310l-82 31l160 340zM1210 12l-374 -49v191q-159 -185 -351 -185q-67 0 -127.5 26t-97.5 71q-38 46 -51.5 105t-13.5 181v66l8 436v2q0 23 -7.5 31.5t-29.5 11.5l-98 16v66l350 49q-23 -47 -23 -117v-426q0 -153 11 -215q12 -65 63 -102t127 -37
q119 0 240 62v659q0 24 -7.5 33t-29.5 12l-142 16v66l400 49q-23 -53 -23 -117v-786q0 -24 6 -31.5t25 -9.5l145 -6v-68z" />
    <glyph glyph-name="ucircumflex" unicode="&#xfb;" horiz-adv-x="1247" 
d="M948 1159l-80 -26l-217 210l-223 -217l-78 29l234 322h153zM1210 12l-374 -49v191q-159 -185 -351 -185q-67 0 -127.5 26t-97.5 71q-38 46 -51.5 105t-13.5 181v66l8 436v2q0 23 -7.5 31.5t-29.5 11.5l-98 16v66l350 49q-23 -47 -23 -117v-426q0 -153 11 -215
q12 -65 63 -102t127 -37q119 0 240 62v659q0 24 -7.5 33t-29.5 12l-142 16v66l400 49q-23 -53 -23 -117v-786q0 -24 6 -31.5t25 -9.5l145 -6v-68z" />
    <glyph glyph-name="udieresis" unicode="&#xfc;" horiz-adv-x="1247" 
d="M989 1282q0 -50 -36 -86.5t-85 -36.5q-51 0 -84.5 35t-33.5 86q0 50 34.5 84.5t85.5 34.5q49 0 84 -34.5t35 -82.5zM541 1280q0 -50 -35 -84.5t-86 -34.5q-50 0 -84.5 34t-34.5 83q0 50 35.5 85.5t85.5 35.5t84.5 -34.5t34.5 -84.5zM1210 12l-374 -49v191
q-159 -185 -351 -185q-67 0 -127.5 26t-97.5 71q-38 46 -51.5 105t-13.5 181v66l8 436v2q0 23 -7.5 31.5t-29.5 11.5l-98 16v66l350 49q-23 -47 -23 -117v-426q0 -153 11 -215q12 -65 63 -102t127 -37q119 0 240 62v659q0 24 -7.5 33t-29.5 12l-142 16v66l400 49
q-23 -53 -23 -117v-786q0 -24 6 -31.5t25 -9.5l145 -6v-68z" />
    <glyph glyph-name="ydieresis" unicode="&#xff;" horiz-adv-x="1024" 
d="M879 1282q0 -49 -36.5 -86t-84.5 -37q-51 0 -85 35t-34 86q0 50 34.5 84.5t84.5 34.5q51 0 86 -34.5t35 -82.5zM430 1280q0 -50 -35 -84.5t-86 -34.5q-50 0 -84.5 34t-34.5 83q0 50 36 85.5t85 35.5t84 -34.5t35 -84.5zM1006 936l-48 -4q-12 -1 -17 -7.5t-17 -33.5
l-355 -801q-17 -40 -65 -141q-53 -106 -90.5 -158t-94.5 -96q-78 -60 -163 -60q-67 0 -105.5 31.5t-38.5 85.5q0 57 60 135q29 -46 59.5 -65t71.5 -19q63 0 111.5 51.5t111.5 182.5l29 59l-324 795q-9 24 -16.5 31.5t-22.5 9.5l-49 4v70h440v-70l-123 -16q-18 -3 -18 -17
q0 -6 2 -12l215 -610l219 610q0 3 1 7.5t1 6.5q0 14 -18 17l-129 14v70h373v-70z" />
    <glyph glyph-name="dotlessi" unicode="&#x131;" horiz-adv-x="641" 
d="M580 0h-494v70l96 16q43 8 43 47v694q0 25 -8.5 34.5t-34.5 12.5l-71 11v45l315 155v-952q0 -25 7 -32.5t32 -12.5l115 -18v-70z" />
    <glyph glyph-name="OE" unicode="&#x152;" horiz-adv-x="2041" 
d="M1954 365l-119 -365h-641q-176 0 -281 -10l-92 -10q-39 -5 -96 -5q-287 0 -462 177t-175 466q0 161 58 304t167 247q101 99 224 144t294 45q33 0 91 -4l102 -8q45 -5 111 -7q35 -2 71 -2h363q5 0 21.5 1t29.5 1q16 1 49.5 2t46.5 2q79 5 133 33v-377h-71v7q0 106 -37 159
q-23 34 -67 48t-124 14h-329v-475h346q19 0 29 7t16 25l35 115h59v-440h-61l-37 149q-5 22 -14 30.5t-29 8.5h-344v-471q0 -31 27 -44t93 -13h205q149 0 226 71q28 26 53 64q20 35 51 111h78zM1018 258v858q0 64 -8 80q-10 24 -73 38.5t-155 14.5q-209 0 -334.5 -149.5
t-125.5 -399.5q0 -168 54 -303.5t156 -222.5q55 -47 120.5 -66.5t168.5 -19.5q118 0 160 23q23 12 30 40.5t7 106.5z" />
    <glyph glyph-name="oe" unicode="&#x153;" horiz-adv-x="1644" 
d="M1620 258q-6 -82 -35 -129q-41 -69 -136 -113.5t-202 -44.5q-139 0 -236 65.5t-137 186.5q-126 -252 -368 -252q-190 0 -311 140t-121 360q0 158 70 292t190.5 212t263.5 78q237 0 330 -228q143 224 358 224q132 0 219 -93q50 -56 71.5 -130t22.5 -197h-593
q-5 -49 -5 -82q0 -189 85.5 -301.5t226.5 -112.5q166 0 307 125zM1403 705q0 116 -40.5 176.5t-117.5 60.5q-75 0 -135 -63t-92 -174h385zM823 510q0 190 -75 308t-197 118q-118 0 -191 -117t-73 -305q0 -187 71.5 -301.5t188.5 -114.5q123 0 199.5 113.5t76.5 298.5z" />
    <glyph glyph-name="Ydieresis" unicode="&#x178;" horiz-adv-x="1302" 
d="M1032 1599q0 -52 -38 -90.5t-89 -38.5q-52 0 -87.5 36t-35.5 89t36 89t89 36q52 0 88.5 -35.5t36.5 -85.5zM565 1597q0 -52 -36 -88t-89 -36q-52 0 -88.5 35.5t-36.5 86.5t37.5 88t89.5 37q51 0 87 -36t36 -87zM1274 1264l-23 -2q-35 -3 -54 -17t-44 -51l-391 -582v-460
q0 -31 13.5 -44t49.5 -16l181 -18v-74h-707v74l182 18q38 5 52 17t14 43v464l-408 607q-22 31 -78 37l-34 4v73h567v-73l-172 -19q-29 -3 -29 -20q0 -8 6 -17l303 -499l299 497q9 18 9 21q0 17 -23 20l-205 17v73h492v-73z" />
    <glyph glyph-name="florin" unicode="&#x192;" horiz-adv-x="821" 
d="M897 1239q0 -39 -18.5 -70.5t-67.5 -72.5q-49 79 -106.5 124.5t-108.5 45.5q-47 0 -84 -37q-26 -26 -35 -64q-9 -31 -11.5 -56.5t-2.5 -94.5v-254h309v-111h-309v-272q0 -123 -2 -152q-9 -241 -88 -379q-49 -89 -135.5 -139.5t-186.5 -50.5q-93 0 -150 41t-57 108
q0 56 52 129q130 -149 235 -149q51 0 90 39q20 20 29 47q14 38 14 139v639h-178v70l178 37q0 148 10.5 227t40.5 156q42 113 139 176t224 63q100 0 159.5 -37.5t59.5 -101.5z" />
    <glyph glyph-name="circumflex" unicode="&#x2c6;" horiz-adv-x="0" 
d="M324 1159l-80 -26l-215 210l-224 -217l-77 29l233 322h154z" />
    <glyph glyph-name="caron" unicode="&#x2c7;" horiz-adv-x="0" 
d="M342 1468l-236 -315h-141l-211 315l80 29l213 -211l215 209z" />
    <glyph glyph-name="breve" unicode="&#x2d8;" horiz-adv-x="0" 
d="M328 1462q-47 -311 -336 -311q-143 0 -227 81t-93 230h78q23 -94 87.5 -143t162.5 -49q103 0 164 46t90 146h74z" />
    <glyph glyph-name="tilde" unicode="&#x2dc;" horiz-adv-x="0" 
d="M485 1399q-8 -13 -16.5 -31t-11.5 -22q-63 -111 -115 -158q-38 -35 -88 -35q-43 0 -188 43l-97 29q-125 37 -184 37q-44 0 -79.5 -28.5t-86.5 -105.5l-59 31q2 4 30 53q45 75 76 111q68 78 160 78q57 0 166 -33l96 -31q135 -41 182 -41q38 0 74 29q31 26 82 105z" />
    <glyph glyph-name="endash" unicode="&#x2013;" horiz-adv-x="1138" 
d="M1110 498h-1083v127h1083v-127z" />
    <glyph glyph-name="emdash" unicode="&#x2014;" horiz-adv-x="1138" 
d="M1141 524h-1143v119h1143v-119z" />
    <glyph glyph-name="quoteleft" unicode="&#x2018;" 
d="M520 1436q-116 -25 -185 -84.5t-69 -134.5q0 -51 64 -62h6q108 -21 108 -121q0 -64 -46 -106.5t-117 -42.5q-80 0 -131.5 55t-51.5 141q0 146 103 256.5t286 171.5l13 4z" />
    <glyph glyph-name="quoteright" unicode="&#x2019;" 
d="M475 1298q0 -150 -104 -263.5t-285 -164.5l-14 -4l-19 78q114 25 184 84.5t70 132.5q0 28 -14.5 42t-48.5 20l-6 2q-111 19 -111 121q0 63 47.5 106t116.5 43q80 0 132 -55.5t52 -141.5z" />
    <glyph glyph-name="quotedblleft" unicode="&#x201c;" horiz-adv-x="1024" 
d="M975 1436q-116 -25 -185 -84.5t-69 -134.5q0 -27 15 -41.5t48 -20.5h7q108 -21 108 -121q0 -64 -46.5 -106.5t-115.5 -42.5q-82 0 -133 55t-51 141q0 149 103.5 262t285.5 166l14 4zM520 1436q-116 -25 -185 -84.5t-69 -134.5q0 -51 64 -62h6q108 -21 108 -121
q0 -64 -46 -106.5t-117 -42.5q-80 0 -131.5 55t-51.5 141q0 146 103 256.5t286 171.5l13 4z" />
    <glyph glyph-name="quotedblright" unicode="&#x201d;" horiz-adv-x="1024" 
d="M930 1298q0 -150 -103 -262.5t-286 -165.5l-15 -4l-18 78q115 25 184.5 84t69.5 133q0 27 -15 41.5t-49 20.5l-6 2q-108 18 -108 121q0 63 46 106t115 43q82 0 133.5 -55.5t51.5 -141.5zM475 1298q0 -150 -104 -263.5t-285 -164.5l-14 -4l-19 78q114 25 184 84.5
t70 132.5q0 28 -14.5 42t-48.5 20l-6 2q-111 19 -111 121q0 63 47.5 106t116.5 43q80 0 132 -55.5t52 -141.5z" />
    <glyph glyph-name="quotedblbase" unicode="&#x201e;" horiz-adv-x="1024" 
d="M926 117q0 -149 -103.5 -263t-285.5 -165l-13 -2l-20 77q115 23 184.5 83.5t69.5 134.5q0 27 -15 41t-49 20l-6 2q-108 18 -108 121q0 63 46 106t115 43q81 0 133 -55.5t52 -142.5zM471 117q0 -149 -104 -263t-285 -165l-14 -2l-19 77q115 23 184.5 83.5t69.5 134.5
q0 27 -14.5 41t-48.5 20l-7 2q-108 18 -108 121q0 63 46.5 106t115.5 43q80 0 132 -56t52 -142z" />
    <glyph glyph-name="dagger" unicode="&#x2020;" horiz-adv-x="1054" 
d="M1010 770l-430 37l36 -1155h-172l35 1157l-434 -43v178l434 -39l-35 436h168l-28 -438l426 41v-174z" />
    <glyph glyph-name="daggerdbl" unicode="&#x2021;" horiz-adv-x="1054" 
d="M1010 61l-428 37l32 -444h-165l30 444l-434 -41v174l430 -38v618l-430 -41v174l436 -45l-39 440h170l-32 -440l430 43v-172l-422 37v-617l422 41v-170z" />
    <glyph glyph-name="bullet" unicode="&#x2022;" 
d="M438 565q0 -68 -47.5 -116t-114.5 -48t-115 48t-48 116q0 67 47.5 114.5t115.5 47.5t115 -47.5t47 -114.5z" />
    <glyph glyph-name="perthousand" unicode="&#x2030;" horiz-adv-x="2183" 
d="M2114 334q0 -152 -100.5 -257.5t-246.5 -105.5q-136 0 -221.5 87t-85.5 225q0 148 102 250t248 102q130 0 217 -86t87 -215zM768 1083q0 -152 -100.5 -256t-245.5 -104q-137 0 -222 85.5t-85 223.5q0 148 102 250t248 102q129 0 216 -86t87 -215zM1409 1298l-1249 -1318
l-76 67l1253 1321zM1384 334q0 -153 -100 -258t-246 -105q-136 0 -221.5 87t-85.5 225q0 148 102 250t250 102q129 0 215 -86t86 -215zM1962 293q0 109 -48 178.5t-124 69.5q-80 0 -128 -63t-48 -167q0 -109 50.5 -178.5t129.5 -69.5q75 0 121.5 64t46.5 166zM616 1042
q0 110 -48 179t-126 69q-79 0 -126.5 -62.5t-47.5 -166.5q0 -109 50 -177.5t128 -68.5q75 0 122.5 63t47.5 164zM1233 293q0 109 -48 178.5t-124 69.5q-79 0 -126.5 -63t-47.5 -167q0 -109 49.5 -178.5t128.5 -69.5q75 0 121.5 64t46.5 166z" />
    <glyph glyph-name="guilsinglleft" unicode="&#x2039;" horiz-adv-x="681" 
d="M639 178l-76 -51l-508 414l514 413l62 -53l-328 -354z" />
    <glyph glyph-name="guilsinglright" unicode="&#x203a;" horiz-adv-x="681" 
d="M645 543l-510 -408l-65 53l331 353l-331 356l69 53z" />
    <glyph glyph-name="fraction" unicode="&#x2044;" horiz-adv-x="129" 
d="M756 1466l-1305 -1699l-80 59l1305 1702z" />
    <glyph glyph-name="nbspace" unicode="&#xe000;" horiz-adv-x="405" 
 />
  </font>
</defs>
</svg>
