<?xml version="1.0" standalone="no"?>
<!DOCTYPE svg PUBLIC "-//W3C//DTD SVG 1.1//EN" "http://www.w3.org/Graphics/SVG/1.1/DTD/svg11.dtd" >
<svg xmlns="http://www.w3.org/2000/svg" xmlns:xlink="http://www.w3.org/1999/xlink" version="1.1">
<metadata>
Created by FontForge 20170731 at Mon Jan  4 12:02:42 2021
 By Aleksey,,,
(c)2012 Optimo. wf-rip
</metadata>
<defs>
<font id="Stanley-Regular" horiz-adv-x="450" >
  <font-face 
    font-family="Stanley"
    font-weight="400"
    font-stretch="normal"
    units-per-em="2048"
    panose-1="2 5 5 6 8 4 6 2 0 3"
    ascent="1638"
    descent="-410"
    x-height="1004"
    cap-height="1454"
    bbox="-487 -688 2593 2095"
    underline-thickness="81"
    underline-position="-367"
    unicode-range="U+000D-FB06"
  />
<missing-glyph horiz-adv-x="1318" 
d="M102 492v100l633 633q28 -14 53 -47zM102 291v100l711 711v-31q0 -41 -27.5 -76.5t-84.5 -80.5t-76 -64q-47 -47 -74 -111zM213 0h-100l534 535h101l-191 -191h-47v-47zM657 344l560 559v-100l-459 -459h-101zM815 0h-100l67 68h4v4l431 430v-101zM102 692v101l304 303
l79 -4q0 60 41.5 106.5t112.5 46.5h16zM786 272l431 430v-100l-431 -430v100zM102 90v100l422 422v-77h23zM102 1194l402 401h100l-90 -90q-110 -29 -190 -109.5t-111 -191.5l-111 -110v100zM1100 987l117 117v-100l-443 -443v14q0 21 5.5 38.5t11.5 29.5t22.5 27.5
t27.5 23.5t37 26.5t40 29.5q3 3 21 16t28.5 21.5t29.5 25t32 33t27.5 38t25.5 48t18 55.5zM102 1395l201 200h100l-301 -301v101zM1016 0h-101l302 301v-100zM940 1430l166 165h100l-213 -213q-4 4 -23 22t-30 26zM102 893v100l115 115l94 -6zM1036 1325l181 180v-100
l-144 -143q-6 12 -37 63zM414 0h-101l197 197v-101zM1098 1186l119 119v-101l-107 -106q0 26 -12 88zM809 1499l96 96h101l-127 -127q-38 20 -70 31zM629 1520l76 75h100l-78 -77q-36 4 -57 4q-4 0 -13.5 -1t-13.5 -1h-14zM614 0h-100l68 68h100zM1217 100v-100h-101z
M102 1595h101l-101 -100v100z" />
    <glyph glyph-name="f_f" unicode="ff" horiz-adv-x="1355" 
d="M412 1071v-67h442v237q-77 135 -209 135q-100 0 -166.5 -80t-66.5 -225zM1051 1004h282v-68h-280v-813l61 -66h123v-57h-553v57h117l57 66v813h-446v-813l61 -66h111v-57h-531v57h107l57 66v803l-164 30v48h160v6q0 80 29 155.5t82 135.5t136 96.5t181 36.5q59 0 123 -14
t88.5 -23t79.5 -31q23 23 32 31.5t35 29t46.5 29t54 17t69.5 8.5q49 0 97.5 -13t92.5 -38t71.5 -69.5t27.5 -100.5q0 -43 -12 -64l-168 27q10 27 10 63q0 56 -32.5 96.5t-86.5 40.5q-62 0 -90 -41t-28 -122v-256z" />
    <glyph glyph-name="fi" unicode="fi" horiz-adv-x="1257" 
d="M1034 1214h-170l-16 39q-15 36 -29.5 60.5t-39.5 52.5t-61 42.5t-83 14.5q-225 0 -225 -393v-26h643v-881l61 -66h121v-57h-557v57h123l57 66v758l-59 55h-387v-813l61 -66h111v-57h-531v57h107l57 66v803l-164 30v48h160v8q0 32 3 64.5t14.5 81t30 90.5t54 86t82.5 75.5
t118.5 51.5t158.5 20q172 0 276.5 -58t104.5 -135q0 -47 -21 -74z" />
    <glyph glyph-name="fl" unicode="fl" horiz-adv-x="1257" 
d="M850 1454l203 21v-1352l61 -66h121v-57h-524v57h90l57 66v1165q-91 135 -240 135q-48 0 -85 -16.5t-60 -42.5t-37.5 -62t-20 -71.5t-5.5 -75.5v-151h360v-68h-358v-813l61 -66h143v-57h-563v57h107l57 66v813l-164 31v37h160v16q0 91 25 172t74.5 146.5t132.5 104
t190 38.5q123 3 215 -27z" />
    <glyph glyph-name="f_f_i" unicode="ffi" horiz-adv-x="1898" 
d="M412 1071v-67h442v237q-77 135 -209 135q-100 0 -166.5 -80t-66.5 -225zM969 1350q117 131 346 131q172 0 276.5 -58t104.5 -135q0 -47 -21 -74h-170l-16 39q-15 36 -29.5 60.5t-39.5 52.5t-61 42.5t-83 14.5q-225 0 -225 -393v-26h643v-881l61 -66h121v-57h-557v57h123
l57 66v758l-59 55h-387v-813l61 -66h123v-57h-553v57h117l57 66v813h-446v-813l61 -66h111v-57h-531v57h107l57 66v803l-164 30v48h160v6q0 80 29 155.5t82 135.5t136 96.5t181 36.5q192 0 328 -84z" />
    <glyph glyph-name="f_f_l" unicode="ffl" horiz-adv-x="1898" 
d="M412 1071v-67h442v237q-77 135 -209 135q-100 0 -166.5 -80t-66.5 -225zM965 1352q116 129 311 129q123 3 215 -27l203 21v-1352l61 -66h121v-57h-524v57h90l57 66v1165q-91 135 -239 135q-59 0 -102 -24t-65 -64.5t-32 -85t-10 -94.5v-151h360v-68h-358v-813l61 -66h123
v-57h-553v57h117l57 66v813h-446v-813l61 -66h111v-57h-531v57h107l57 66v803l-164 30v48h160v6q0 80 29 155.5t82 135.5t136 96.5t181 36.5q192 0 324 -82z" />
    <glyph glyph-name="T_h" unicode="Th" horiz-adv-x="2263" 
d="M1458 1473v-633q84 106 167.5 148t152.5 42q140 0 216.5 -86.5t76.5 -232.5v-588l61 -66h102v-57h-526v57h111l55 66v559q0 109 -50 164t-128 55q-66 0 -121.5 -35t-116.5 -98v-645l58 -66h108v-57h-524v57h104l60 66v1184l-60 65h-438v-1227l82 -88h168v-57h-721v57h176
l84 88v1227h-309l-148 -328h-37v429h60l53 -19h1169l56 19h59z" />
    <glyph glyph-name="f_adieresis" unicode="f&#xe4;" horiz-adv-x="1728" 
d="M692 1004v-68h-280v-813l61 -66h111v-57h-531v57h107l57 66v803l-164 30v48h160v8q0 33 2.5 64.5t13 81t28 90.5t52 86t80.5 76t117 51t158 20q172 0 276 -58t104 -135q0 -65 -32 -106h-148l-26 71q-57 170 -213 170q-63 0 -106.5 -29t-66.5 -84.5t-32.5 -122.5
t-9.5 -157v-26h282zM1591 1288q0 -54 -35.5 -89.5t-89.5 -35.5t-89.5 35.5t-35.5 89.5t35.5 89.5t89.5 35.5t89.5 -35.5t35.5 -89.5zM1198 971q-66 0 -111 -55.5t-45 -120.5q0 -37 7 -62l8 -24l-195 -29q-12 21 -12 80q0 66 33.5 120t86.5 85.5t112.5 48t117.5 16.5
q91 0 159.5 -23t106.5 -61.5t56 -82.5t18 -93v-647l59 -66h84v-57l-352 -20l23 174h-4q-154 -181 -314 -181q-107 0 -175 69.5t-68 190.5q0 131 95.5 219t276.5 117l181 29v207q0 166 -148 166zM1346 215v317l-113 -22q-238 -59 -238 -236q0 -81 34 -128.5t99 -47.5
q57 0 109 29t109 88z" />
    <glyph glyph-name="f_b" unicode="fb" horiz-adv-x="1855" 
d="M858 63v1225q-43 63 -102.5 99t-120.5 36q-64 0 -110 -24t-70 -64.5t-34.5 -85t-10.5 -94.5v-151h360v-68h-358v-813l61 -66h143v-57h-563v57h107l57 66v813l-164 31v37h160v16q0 91 25 172t74.5 146.5t132.5 104t190 38.5q123 3 215 -27l203 21v-598h4q78 78 144 115.5
t159 37.5q189 0 299 -139.5t110 -351.5q0 -159 -56.5 -285.5t-171.5 -203.5t-271 -77q-269 0 -412 90zM1053 799v-623q38 -59 101.5 -98t139.5 -39q71 0 125 38t85 101t46 135t15 150q0 114 -33.5 212.5t-104.5 164t-165 65.5q-45 0 -85.5 -17t-64 -35.5t-59.5 -53.5z" />
    <glyph glyph-name="f_edieresis" unicode="f&#xeb;" horiz-adv-x="1695" 
d="M692 1004v-68h-280v-813l61 -66h111v-57h-531v57h107l57 66v803l-164 30v48h160v8q0 33 2.5 64.5t13 81t28 90.5t52 86t80.5 76t117 51t158 20q172 0 276 -58t104 -135q0 -65 -32 -106h-148l-26 71q-57 170 -213 170q-63 0 -106.5 -29t-66.5 -84.5t-32.5 -122.5
t-9.5 -157v-26h282zM1591 1288q0 -54 -35.5 -89.5t-89.5 -35.5t-89.5 35.5t-35.5 89.5t35.5 89.5t89.5 35.5t89.5 -35.5t35.5 -89.5zM1591 639l-24 -23l-625 17q-2 -23 -2 -66q0 -192 89.5 -310t236.5 -118q116 0 186.5 51t138.5 177l49 -23q-20 -58 -42.5 -105.5t-60 -99
t-82 -86.5t-109.5 -57.5t-142 -22.5q-195 0 -318.5 142t-123.5 374q0 146 59 270t164.5 197.5t233.5 73.5q88 0 158.5 -27.5t112.5 -70.5t68 -96t33 -103.5t0 -93.5zM950 696h373l43 37q0 230 -192 230q-92 0 -151.5 -79t-72.5 -188z" />
    <glyph glyph-name="f_f_adieresis" unicode="ff&#xe4;" horiz-adv-x="2369" 
d="M2232 1288q0 -54 -35.5 -89.5t-89.5 -35.5t-89.5 35.5t-35.5 89.5t35.5 89.5t89.5 35.5t89.5 -35.5t35.5 -89.5zM412 1071v-67h442v237q-77 135 -209 135q-100 0 -166.5 -80t-66.5 -225zM1333 1004v-68h-280v-813l61 -66h123v-57h-553v57h117l57 66v813h-446v-813l61 -66
h111v-57h-531v57h107l57 66v803l-164 30v48h160v6q0 80 29 155.5t82 135.5t136 96.5t181 36.5q91 0 180 -24t144 -56q113 127 340 127q172 0 276.5 -58t104.5 -135q0 -64 -33 -106h-148l-26 71q-57 170 -213 170q-63 0 -106.5 -29t-66.5 -84.5t-32.5 -122.5t-9.5 -157v-26
h282zM1839 971q-66 0 -111 -55.5t-45 -120.5q0 -37 7 -62l8 -24l-195 -29q-12 21 -12 80q0 66 33.5 120t86.5 85.5t112.5 48t117.5 16.5q91 0 159.5 -23t106.5 -61.5t56 -82.5t18 -93v-647l60 -66h83v-57l-352 -20l23 174h-4q-154 -181 -314 -181q-107 0 -175 69.5
t-68 190.5q0 131 95.5 219t276.5 117l181 29v207q0 166 -148 166zM1987 215v317l-113 -22q-238 -59 -238 -236q0 -81 34 -128.5t99 -47.5q57 0 109 29t109 88z" />
    <glyph glyph-name="f_f_b" unicode="ffb" horiz-adv-x="2496" 
d="M1051 1155v-151h360v-68h-358v-813l61 -66h123v-57h-553v57h117l57 66v813h-446v-813l61 -66h111v-57h-531v57h107l57 66v813l-164 31v37h160v22q0 179 101.5 293.5t285.5 114.5q98 0 188 -30.5t150 -84.5q115 162 338 162q123 3 215 -27l203 21v-598h4q78 78 144 115.5
t159 37.5q189 0 299 -139.5t110 -351.5q0 -159 -56.5 -285.5t-171.5 -203.5t-271 -77q-269 0 -412 90v1225q-92 135 -223 135q-64 0 -110 -24t-70 -64.5t-34.5 -85t-10.5 -94.5zM1694 799v-623q38 -59 101.5 -98t139.5 -39q71 0 125 38t85 101t46 135t15 150
q0 114 -33.5 212.5t-104.5 164t-165 65.5q-45 0 -85.5 -17t-64 -35.5t-59.5 -53.5zM412 1116v-112h442v65q0 49 -6.5 91.5t-23 83t-42 69t-65.5 46t-92 17.5q-87 0 -150 -66.5t-63 -193.5z" />
    <glyph glyph-name="f_f_edieresis" unicode="ff&#xeb;" horiz-adv-x="2334" 
d="M2232 1288q0 -54 -35.5 -89.5t-89.5 -35.5t-89.5 35.5t-35.5 89.5t35.5 89.5t89.5 35.5t89.5 -35.5t35.5 -89.5zM412 1071v-67h442v237q-77 135 -209 135q-100 0 -166.5 -80t-66.5 -225zM1333 1004v-68h-280v-813l61 -66h123v-57h-553v57h117l57 66v813h-446v-813l61 -66
h111v-57h-531v57h107l57 66v803l-164 30v48h160v6q0 80 29 155.5t82 135.5t136 96.5t181 36.5q91 0 180 -24t144 -56q113 127 340 127q172 0 276.5 -58t104.5 -135q0 -64 -33 -106h-148l-26 71q-57 170 -213 170q-63 0 -106.5 -29t-66.5 -84.5t-32.5 -122.5t-9.5 -157v-26
h282zM2230 639l-24 -23l-625 17q-2 -23 -2 -66q0 -192 89.5 -310t236.5 -118q116 0 186.5 51t138.5 177l49 -23q-20 -58 -42.5 -105.5t-60 -99t-82 -86.5t-109.5 -57.5t-142 -22.5q-195 0 -318.5 142t-123.5 374q0 146 59 270t164.5 197.5t233.5 73.5q88 0 158.5 -27.5
t112.5 -70.5t68 -96t33 -103.5t0 -93.5zM1589 696h373l43 37q0 230 -193 230q-92 0 -151 -79t-72 -188z" />
    <glyph glyph-name="f_f_h" unicode="ffh" horiz-adv-x="2498" 
d="M1051 1155v-151h360v-68h-358v-813l61 -66h123v-57h-553v57h117l57 66v813h-446v-813l61 -66h111v-57h-531v57h107l57 66v813l-164 31v37h160v22q0 179 101.5 293.5t285.5 114.5q218 0 340 -113q113 160 336 160q123 3 215 -27l203 21v-635h4q150 190 315 190
q140 0 216.5 -86.5t76.5 -232.5v-588l61 -66h103v-57h-526v57h110l57 66v559q0 107 -52.5 163t-127.5 56q-66 0 -121 -35t-116 -98v-645l57 -66h109v-57h-508v57h90l57 66v1165q-38 62 -98.5 98.5t-124.5 36.5t-110 -24t-70 -64.5t-34.5 -85t-10.5 -94.5zM412 1116v-112h442
v65q0 49 -6.5 91.5t-23 83t-42 69t-65.5 46t-92 17.5q-87 0 -150 -66.5t-63 -193.5z" />
    <glyph glyph-name="f_f_iacute" unicode="ff&#xed;" horiz-adv-x="1898" 
d="M412 1071v-67h442v237q-77 135 -209 135q-100 0 -166.5 -80t-66.5 -225zM969 1350q125 131 299 131q73 0 129 -15.5t92 -44t56.5 -55t37.5 -61.5l283 170v-166l-422 -99v43q0 72 -39.5 121t-128.5 49q-225 0 -225 -393v-26h643v-881l61 -66h121v-57h-557v57h123l57 66
v758l-59 55h-387v-813l61 -66h123v-57h-553v57h117l57 66v813h-446v-813l61 -66h111v-57h-531v57h107l57 66v803l-164 30v48h160v6q0 80 29 155.5t82 135.5t136 96.5t181 36.5q192 0 328 -84z" />
    <glyph glyph-name="f_f_icircumflex" unicode="ff&#xee;" horiz-adv-x="1898" 
d="M412 1071v-67h442v237q-77 135 -209 135q-100 0 -166.5 -80t-66.5 -225zM944 1376q88 105 238 105q90 0 156.5 -36.5t97.5 -94.5l159 131l328 -269v-57l-328 154l-315 -154v107q0 161 -111 161q-62 0 -90 -41t-28 -122v-256h643v-881l61 -66h121v-57h-557v57h123l57 66
v758l-59 55h-387v-813l61 -66h123v-57h-553v57h117l57 66v813h-446v-813l61 -66h111v-57h-531v57h107l57 66v803l-164 30v48h160v6q0 80 29 155.5t82 135.5t136 96.5t181 36.5q76 0 132 -10t106.5 -27.5t64.5 -20.5z" />
    <glyph glyph-name="f_f_idieresis" unicode="ff&#xef;" horiz-adv-x="1898" 
d="M1053 936v-813l61 -66h123v-57h-553v57h117l57 66v813h-446v-813l61 -66h111v-57h-531v57h107l57 66v803l-164 30v48h160v6q0 80 29 155.5t82 135.5t136 96.5t181 36.5q59 0 123 -14t88.5 -23t79.5 -31q23 23 32 31.5t35 29t46.5 29t54 17t69.5 8.5q148 0 248.5 -61
t100.5 -138q0 -65 -27 -100h-156l-22 78q-8 31 -16 54t-22.5 51t-37 43t-51.5 15q-24 0 -43.5 -7t-33 -23.5t-23.5 -34t-16.5 -48t-10.5 -56.5t-5.5 -68.5t-2 -73.5t-0.5 -82v-26h643v-881l61 -66h121v-57h-557v57h123l57 66v758l-59 55h-387zM1905 1288q0 -54 -35.5 -89.5
t-89.5 -35.5t-89.5 35.5t-35.5 89.5t35.5 89.5t89.5 35.5t89.5 -35.5t35.5 -89.5zM412 1071v-67h442v237q-77 135 -209 135q-100 0 -166.5 -80t-66.5 -225z" />
    <glyph glyph-name="f_f_igrave" unicode="ff&#xec;" horiz-adv-x="1898" 
d="M412 1071v-67h442v237q-77 135 -209 135q-100 0 -166.5 -80t-66.5 -225zM1051 1004h643v-881l61 -66h121v-57h-557v57h123l57 66v758l-59 55h-387v-813l61 -66h123v-57h-553v57h117l57 66v813h-446v-813l61 -66h111v-57h-531v57h107l57 66v803l-164 30v48h160v6
q0 80 29 155.5t82 135.5t136 96.5t181 36.5q60 0 110 -7t75 -14t64 -21t54 -18q87 107 238 107q94 0 196 -45l488 -224v-57l-541 105v30q0 56 -36.5 94.5t-100.5 38.5q-75 0 -106 -40t-31 -123v-256z" />
    <glyph glyph-name="f_f_iogonek" unicode="ff&#x12f;" horiz-adv-x="1898" 
d="M969 1350q117 131 346 131q172 0 276.5 -58t104.5 -135q0 -47 -21 -74h-170l-16 39q-15 36 -29.5 60.5t-39.5 52.5t-61 42.5t-83 14.5q-225 0 -225 -393v-26h643v-881l61 -66h121v-57h-231q-78 -126 -78 -205q0 -51 32 -81.5t76 -30.5q43 0 113 38v-102
q-100 -45 -158 -45q-78 0 -132 43t-54 123q0 24 7 50t13.5 43t26.5 47t26 38.5t34 43.5t30 38h-262v57h123l57 66v758l-59 55h-387v-813l61 -66h123v-57h-553v57h117l57 66v813h-446v-813l61 -66h111v-57h-531v57h107l57 66v803l-164 30v48h160v6q0 80 29 155.5t82 135.5
t136 96.5t181 36.5q192 0 328 -84zM412 1071v-67h442v237q-77 135 -209 135q-100 0 -166.5 -80t-66.5 -225z" />
    <glyph glyph-name="f_f_j" unicode="ffj" horiz-adv-x="1857" 
d="M1440 936h-387v-813l61 -66h123v-57h-553v57h117l57 66v813h-446v-813l61 -66h111v-57h-531v57h107l57 66v803l-164 30v48h160v6q0 80 29 155.5t82 135.5t136 96.5t181 36.5q192 0 328 -84q117 131 346 131q172 0 276.5 -58t104.5 -135q0 -47 -21 -74h-170l-16 39
q-15 36 -29.5 60.5t-39.5 52.5t-61 42.5t-83 14.5q-225 0 -225 -393v-26h643v-1033q0 -109 -37 -197t-117 -144t-192 -56q-103 0 -167.5 35t-84.5 80l153 100q13 -49 60.5 -100t93.5 -51q49 0 72.5 43.5t23.5 148.5v1051zM412 1071v-67h442v237q-77 135 -209 135
q-100 0 -166.5 -80t-66.5 -225z" />
    <glyph glyph-name="f_f_k" unicode="ffk" horiz-adv-x="2390" 
d="M1051 1155v-151h360v-68h-358v-813l61 -66h123v-57h-553v57h117l57 66v813h-446v-813l61 -66h111v-57h-531v57h107l57 66v813l-164 31v37h160v22q0 179 101.5 293.5t285.5 114.5q112 0 190.5 -27t151.5 -84q112 158 334 158q123 3 215 -27l203 21v-943h4l327 349v65h-122
v58h385v-37l-131 -86l-312 -283l424 -475l139 -86v-37h-479v57h103v66l-338 383h-4v-383l61 -66h125v-57h-524v57h90l57 66v1165q-101 135 -223 135q-64 0 -110 -24t-70 -64.5t-34.5 -85t-10.5 -94.5zM412 1116v-112h442v65q0 49 -6.5 91.5t-23 83t-42 69t-65.5 46t-92 17.5
q-87 0 -150 -66.5t-63 -193.5z" />
    <glyph glyph-name="f_f_odieresis" unicode="ff&#xf6;" horiz-adv-x="2445" 
d="M2232 1288q0 -54 -35.5 -89.5t-89.5 -35.5t-89.5 35.5t-35.5 89.5t35.5 89.5t89.5 35.5t89.5 -35.5t35.5 -89.5zM412 1071v-67h442v237q-77 135 -209 135q-100 0 -166.5 -80t-66.5 -225zM1333 1004v-68h-280v-813l61 -66h123v-57h-553v57h117l57 66v813h-446v-813l61 -66
h111v-57h-531v57h107l57 66v803l-164 30v48h160v6q0 80 29 155.5t82 135.5t136 96.5t181 36.5q91 0 180 -24t144 -56q113 127 340 127q172 0 276.5 -58t104.5 -135q0 -64 -33 -106h-148l-26 71q-57 170 -213 170q-63 0 -106.5 -29t-66.5 -84.5t-32.5 -122.5t-9.5 -157v-26
h282zM2361 508q0 -228 -141 -381.5t-354 -153.5q-225 0 -364.5 151t-139.5 386q0 226 140.5 373t357.5 147q222 0 361.5 -144.5t139.5 -377.5zM2148 440q0 63 -11.5 132.5t-36.5 139.5t-61 125.5t-89.5 90.5t-116.5 35q-67 0 -118.5 -34.5t-81.5 -92.5t-45 -126.5
t-15 -142.5q0 -81 20 -169.5t57 -170t100.5 -134t141.5 -52.5q66 0 117 35.5t80.5 94t44 127t14.5 142.5z" />
    <glyph glyph-name="f_f_udieresis" unicode="ff&#xfc;" horiz-adv-x="2455" 
d="M2232 1288q0 -54 -35.5 -89.5t-89.5 -35.5t-89.5 35.5t-35.5 89.5t35.5 89.5t89.5 35.5t89.5 -35.5t35.5 -89.5zM412 1071v-67h442v237q-77 135 -209 135q-100 0 -166.5 -80t-66.5 -225zM965 1354q113 127 340 127q172 0 276.5 -58t104.5 -135q0 -64 -33 -106h-148
l-26 71q-57 170 -213 170q-63 0 -106.5 -29t-66.5 -84.5t-32.5 -122.5t-9.5 -157v-26h602v-695q4 -104 52 -155.5t122 -51.5q46 0 90.5 21.5t71.5 45t69 67.5v645l-59 65h-105v58l359 20v-901l59 -66h119v-57l-373 -20l17 208h-4q-168 -215 -326 -215q-139 0 -213 86.5
t-74 233.5v588l-59 55h-346v-813l61 -66h123v-57h-553v57h117l57 66v813h-446v-813l61 -66h111v-57h-531v57h107l57 66v803l-164 30v48h160v6q0 80 29 155.5t82 135.5t136 96.5t181 36.5q91 0 180 -24t144 -56z" />
    <glyph glyph-name="f_f_y" unicode="ffy" horiz-adv-x="2353" 
d="M1051 1004h706v-58h-102l-58 -65l271 -738h4l227 738l-57 65h-103v58h349v-37l-80 -86l-330 -908q-148 -399 -377 -399q-161 0 -246 111l172 118q38 -108 168 -108q68 0 107 58t39 126q0 110 -62 246l-317 811h-309v-813l61 -66h123v-57h-553v57h117l57 66v813h-446v-813
l61 -66h111v-57h-531v57h107l57 66v803l-164 30v48h160v6q0 80 29 155.5t82 135.5t136 96.5t181 36.5q59 0 123 -14t88.5 -23t79.5 -31q23 23 32 31.5t35 29t46.5 29t54 17t69.5 8.5q49 0 97.5 -13t92.5 -38t71.5 -69.5t27.5 -100.5q0 -43 -12 -64l-168 27q10 27 10 63
q0 56 -32.5 96.5t-86.5 40.5q-62 0 -90 -41t-28 -122v-256zM412 1071v-67h442v237q-77 135 -209 135q-100 0 -166.5 -80t-66.5 -225z" />
    <glyph glyph-name="f_f_yacute" unicode="ff&#xfd;" horiz-adv-x="2353" 
d="M1051 1004h706v-58h-102l-58 -65l271 -738h4l227 738l-57 65h-103v58h349v-37l-80 -86l-330 -908q-148 -399 -377 -399q-161 0 -246 111l172 118q38 -108 168 -108q68 0 107 58t39 126q0 110 -62 246l-317 811h-309v-813l61 -66h123v-57h-553v57h117l57 66v813h-446v-813
l61 -66h111v-57h-531v57h107l57 66v803l-164 30v48h160v6q0 80 29 155.5t82 135.5t136 96.5t181 36.5q59 0 123 -14t88.5 -23t79.5 -31q23 23 32 31.5t35 29t46.5 29t54 17t69.5 8.5q49 0 97.5 -13t92.5 -38t71.5 -69.5t27.5 -100.5q0 -43 -12 -64l-168 27q10 27 10 63
q0 56 -32.5 96.5t-86.5 40.5q-62 0 -90 -41t-28 -122v-256zM412 1071v-67h442v237q-77 135 -209 135q-100 0 -166.5 -80t-66.5 -225zM2120 1309l-541 -154v57l541 269v-172z" />
    <glyph glyph-name="f_f_ycircumflex" unicode="ff&#x177;" horiz-adv-x="2353" 
d="M1051 1004h706v-58h-102l-58 -65l271 -738h4l227 738l-57 65h-103v58h349v-37l-80 -86l-330 -908q-148 -399 -377 -399q-161 0 -246 111l172 118q38 -108 168 -108q68 0 107 58t39 126q0 110 -62 246l-317 811h-309v-813l61 -66h123v-57h-553v57h117l57 66v813h-446v-813
l61 -66h111v-57h-531v57h107l57 66v803l-164 30v48h160v6q0 80 29 155.5t82 135.5t136 96.5t181 36.5q59 0 123 -14t88.5 -23t79.5 -31q23 23 32 31.5t35 29t46.5 29t54 17t69.5 8.5q49 0 97.5 -13t92.5 -38t71.5 -69.5t27.5 -100.5q0 -43 -12 -64l-168 27q10 27 10 63
q0 56 -32.5 96.5t-86.5 40.5q-62 0 -90 -41t-28 -122v-256zM412 1071v-67h442v237q-77 135 -209 135q-100 0 -166.5 -80t-66.5 -225zM2177 1155l-328 154l-327 -154v57l327 269l328 -269v-57z" />
    <glyph glyph-name="f_f_ydieresis" unicode="ff&#xff;" horiz-adv-x="2353" 
d="M1053 936v-813l61 -66h123v-57h-553v57h117l57 66v813h-446v-813l61 -66h111v-57h-531v57h107l57 66v803l-164 30v48h160v6q0 80 29 155.5t82 135.5t136 96.5t181 36.5q91 0 180 -24t144 -56q113 127 340 127q172 0 276.5 -58t104.5 -135q0 -64 -33 -106h-148l-26 71
q-57 170 -213 170q-63 0 -106.5 -29t-66.5 -84.5t-32.5 -122.5t-9.5 -157v-26h706v-58h-102l-58 -65l271 -738h4l227 738l-57 65h-103v58h349v-37l-80 -86l-330 -908q-148 -399 -377 -399q-161 0 -246 111l172 118q38 -108 168 -108q68 0 107 58t39 126q0 110 -62 246
l-317 811h-309zM412 1071v-67h442v237q-77 135 -209 135q-100 0 -166.5 -80t-66.5 -225zM2232 1288q0 -54 -35.5 -89.5t-89.5 -35.5t-89.5 35.5t-35.5 89.5t35.5 89.5t89.5 35.5t89.5 -35.5t35.5 -89.5z" />
    <glyph glyph-name="f_f_ygrave" unicode="ff&#x1ef3;" horiz-adv-x="2353" 
d="M1051 1004h706v-58h-102l-58 -65l271 -738h4l227 738l-57 65h-103v58h349v-37l-80 -86l-330 -908q-148 -399 -377 -399q-161 0 -246 111l172 118q38 -108 168 -108q68 0 107 58t39 126q0 110 -62 246l-317 811h-309v-813l61 -66h123v-57h-553v57h117l57 66v813h-446v-813
l61 -66h111v-57h-531v57h107l57 66v803l-164 30v48h160v6q0 80 29 155.5t82 135.5t136 96.5t181 36.5q59 0 123 -14t88.5 -23t79.5 -31q23 23 32 31.5t35 29t46.5 29t54 17t69.5 8.5q49 0 97.5 -13t92.5 -38t71.5 -69.5t27.5 -100.5q0 -43 -12 -64l-168 27q10 27 10 63
q0 56 -32.5 96.5t-86.5 40.5q-62 0 -90 -41t-28 -122v-256zM412 1071v-67h442v237q-77 135 -209 135q-100 0 -166.5 -80t-66.5 -225zM2120 1155l-541 154v172l541 -269v-57z" />
    <glyph glyph-name="f_h" unicode="fh" horiz-adv-x="1857" 
d="M1219 0h-508v57h90l57 66v1165q-43 63 -101.5 99t-121.5 36q-64 0 -110 -24t-70 -64.5t-34.5 -85t-10.5 -94.5v-151h360v-68h-358v-813l61 -66h143v-57h-563v57h107l57 66v813l-164 31v37h160v16q0 91 25 172t74.5 146.5t132.5 104t190 38.5q123 3 215 -27l203 21v-635h4
q150 190 315 190q140 0 216.5 -86.5t76.5 -232.5v-588l61 -66h103v-57h-526v57h110l57 66v559q0 107 -52.5 163t-127.5 56q-66 0 -121 -35t-116 -98v-645l57 -66h109v-57z" />
    <glyph glyph-name="f_iacute" unicode="f&#xed;" horiz-adv-x="1257" 
d="M1225 1309l-422 -99v43q0 72 -39.5 121t-128.5 49q-225 0 -225 -393v-26h643v-881l61 -66h121v-57h-557v57h123l57 66v758l-59 55h-387v-813l61 -66h111v-57h-531v57h107l57 66v803l-164 30v48h160v8q0 31 3 64.5t13.5 81t27.5 90t49 86.5t74 75.5t105.5 51.5t141.5 20
q73 0 129 -15.5t92 -44t56.5 -55t37.5 -61.5l283 170v-166z" />
    <glyph glyph-name="f_icircumflex" unicode="f&#xee;" horiz-adv-x="1257" 
d="M1282 1155l-328 154l-315 -154v107q0 161 -111 161q-62 0 -90 -41t-28 -122v-256h643v-881l61 -66h121v-57h-557v57h123l57 66v758l-59 55h-387v-813l61 -66h111v-57h-531v57h107l57 66v803l-164 30v48h160v36q0 132 32.5 228t107.5 154.5t188 58.5q90 0 156.5 -36.5
t97.5 -94.5l159 131l328 -269v-57z" />
    <glyph glyph-name="f_idieresis" unicode="f&#xef;" horiz-adv-x="1257" 
d="M877 1282q0 -65 -27 -100h-156l-22 78q-8 31 -16 54t-22.5 51t-37 43t-51.5 15q-24 0 -43.5 -7t-33 -23.5t-23.5 -34t-16.5 -48t-10.5 -56.5t-5.5 -68.5t-2 -73.5t-0.5 -82v-26h643v-881l61 -66h121v-57h-557v57h123l57 66v758l-59 55h-387v-813l61 -66h111v-57h-531v57
h107l57 66v803l-164 30v48h160v57q0 87 17.5 159.5t54.5 132.5t102.5 94t153.5 34q147 0 241.5 -60.5t94.5 -138.5zM1264 1288q0 -54 -35.5 -89.5t-89.5 -35.5t-89.5 35.5t-35.5 89.5t35.5 89.5t89.5 35.5t89.5 -35.5t35.5 -89.5z" />
    <glyph glyph-name="f_igrave" unicode="f&#xec;" horiz-adv-x="1257" 
d="M547 1423q-75 0 -106 -40t-31 -123v-256h643v-881l61 -66h121v-57h-557v57h123l57 66v758l-59 55h-387v-813l61 -66h123v-57h-543v57h107l57 66v803l-164 30v48h160v36q0 132 32.5 228t107.5 154.5t188 58.5q97 0 194 -43l490 -226v-57l-541 105v30q0 56 -36.5 94.5
t-100.5 38.5z" />
    <glyph glyph-name="f_iogonek" unicode="f&#x12f;" horiz-adv-x="1257" 
d="M1034 1214h-170l-16 39q-15 36 -29.5 60.5t-39.5 52.5t-61 42.5t-83 14.5q-225 0 -225 -393v-26h643v-881l61 -66h121v-57h-231q-78 -126 -78 -205q0 -51 32 -81.5t76 -30.5q43 0 113 38v-102q-100 -45 -158 -45q-78 0 -132 43t-54 123q0 24 7 50t13.5 43t26.5 47
t26 38.5t34 43.5t30 38h-262v57h123l57 66v758l-59 55h-387v-813l61 -66h111v-57h-531v57h107l57 66v803l-164 30v48h160v8q0 32 3 64.5t14.5 81t30 90.5t54 86t82.5 75.5t118.5 51.5t158.5 20q172 0 276.5 -58t104.5 -135q0 -47 -21 -74z" />
    <glyph glyph-name="f_j" unicode="fj" horiz-adv-x="1216" 
d="M1053 1004v-1033q0 -109 -37 -197t-117 -144t-192 -56q-103 0 -167.5 35t-84.5 80l153 100q13 -49 60.5 -100t93.5 -51q49 0 72.5 43.5t23.5 148.5v1051l-59 55h-387v-813l61 -66h111v-57h-531v57h107l57 66v803l-164 30v48h160v8q0 32 3 64.5t14.5 81t30 90.5t54 86
t82.5 75.5t118.5 51.5t158.5 20q172 0 276.5 -58t104.5 -135q0 -47 -21 -74h-170l-16 39q-15 36 -29.5 60.5t-39.5 52.5t-61 42.5t-83 14.5q-225 0 -225 -393v-26h643z" />
    <glyph glyph-name="f_k" unicode="fk" horiz-adv-x="1748" 
d="M1110 57h125v-57h-524v57h90l57 66v1169q-42 61 -100 96t-123 35q-64 0 -110 -24t-70 -64.5t-34.5 -85t-10.5 -94.5v-151h360v-68h-358v-813l61 -66h143v-57h-563v57h107l57 66v813l-164 31v37h160v16q0 91 25 172t74.5 146.5t132.5 104t190 38.5q123 3 215 -27l203 21
v-943h4l327 349v65h-122v58h385v-37l-131 -86l-312 -283l424 -475l139 -86v-37h-479v57h103v66l-338 383h-4v-383z" />
    <glyph glyph-name="f_odieresis" unicode="f&#xf6;" horiz-adv-x="1804" 
d="M692 1004v-68h-280v-813l61 -66h111v-57h-531v57h107l57 66v803l-164 30v48h160v8q0 33 2.5 64.5t13 81t28 90.5t52 86t80.5 76t117 51t158 20q172 0 276 -58t104 -135q0 -65 -32 -106h-148l-26 71q-57 170 -213 170q-63 0 -106.5 -29t-66.5 -84.5t-32.5 -122.5
t-9.5 -157v-26h282zM1591 1288q0 -54 -35.5 -89.5t-89.5 -35.5t-89.5 35.5t-35.5 89.5t35.5 89.5t89.5 35.5t89.5 -35.5t35.5 -89.5zM1720 508q0 -228 -141 -381.5t-354 -153.5q-225 0 -364.5 151t-139.5 386q0 226 140.5 373t357.5 147q222 0 361.5 -144.5t139.5 -377.5z
M1507 440q0 63 -11.5 132.5t-36.5 139.5t-61 125.5t-89.5 90.5t-116.5 35q-67 0 -118.5 -34.5t-81.5 -92.5t-45 -126.5t-15 -142.5q0 -81 20 -169.5t57 -170t100.5 -134t141.5 -52.5q66 0 117 35.5t80.5 94t44 127t14.5 142.5z" />
    <glyph glyph-name="f_udieresis" unicode="f&#xfc;" horiz-adv-x="1814" 
d="M1591 1288q0 -54 -35.5 -89.5t-89.5 -35.5t-89.5 35.5t-35.5 89.5t35.5 89.5t89.5 35.5t89.5 -35.5t35.5 -89.5zM625 1423q-63 0 -106.5 -29t-66.5 -84.5t-32.5 -122.5t-9.5 -157v-26h602v-695q4 -104 52 -155.5t122 -51.5q46 0 90.5 21.5t71.5 45t69 67.5v645l-59 65
h-105v58l359 20v-901l59 -66h119v-57l-373 -20l17 208h-4q-168 -215 -326 -215q-139 0 -213 86.5t-74 233.5v588l-59 55h-346v-813l61 -66h111v-57h-531v57h107l57 66v803l-164 30v48h160v8q0 33 2.5 64.5t13 81t28 90.5t52 86t80.5 76t117 51t158 20q172 0 276 -58
t104 -135q0 -65 -32 -106h-148l-26 71q-57 170 -213 170z" />
    <glyph glyph-name="f_y" unicode="fy" horiz-adv-x="1712" 
d="M528 1423q-62 0 -90 -41t-28 -122v-256h706v-58h-102l-58 -65l271 -738h4l227 738l-57 65h-103v58h349v-37l-80 -86l-330 -908q-148 -399 -377 -399q-161 0 -246 111l172 118q38 -108 168 -108q68 0 107 58t39 126q0 110 -62 246l-317 811h-309v-813l61 -66h123v-57h-543
v57h107l57 66v803l-164 30v48h160v36q0 132 32.5 228t107.5 154.5t188 58.5q125 0 200.5 -66.5t75.5 -154.5q0 -43 -12 -64l-168 27q10 27 10 63q0 56 -32.5 96.5t-86.5 40.5z" />
    <glyph glyph-name="f_yacute" unicode="f&#xfd;" horiz-adv-x="1712" 
d="M528 1423q-62 0 -90 -41t-28 -122v-256h706v-58h-102l-58 -65l271 -738h4l227 738l-57 65h-103v58h349v-37l-80 -86l-330 -908q-148 -399 -377 -399q-161 0 -246 111l172 118q38 -108 168 -108q68 0 107 58t39 126q0 110 -62 246l-317 811h-309v-813l61 -66h123v-57h-543
v57h107l57 66v803l-164 30v48h160v36q0 132 32.5 228t107.5 154.5t188 58.5q125 0 200.5 -66.5t75.5 -154.5q0 -43 -12 -64l-168 27q10 27 10 63q0 56 -32.5 96.5t-86.5 40.5zM1475 1309l-541 -154v57l541 269v-172z" />
    <glyph glyph-name="f_ycircumflex" unicode="f&#x177;" horiz-adv-x="1712" 
d="M528 1423q-62 0 -90 -41t-28 -122v-256h706v-58h-102l-58 -65l271 -738h4l227 738l-57 65h-103v58h349v-37l-80 -86l-330 -908q-148 -399 -377 -399q-161 0 -246 111l172 118q38 -108 168 -108q68 0 107 58t39 126q0 110 -62 246l-317 811h-309v-813l61 -66h123v-57h-543
v57h107l57 66v803l-164 30v48h160v36q0 132 32.5 228t107.5 154.5t188 58.5q125 0 200.5 -66.5t75.5 -154.5q0 -43 -12 -64l-168 27q10 27 10 63q0 56 -32.5 96.5t-86.5 40.5zM1536 1155l-328 154l-327 -154v57l327 269l328 -269v-57z" />
    <glyph glyph-name="f_ydieresis" unicode="f&#xff;" horiz-adv-x="1712" 
d="M410 1004h706v-58h-102l-58 -65l271 -738h4l227 738l-57 65h-103v58h349v-37l-80 -86l-330 -908q-148 -399 -377 -399q-161 0 -246 111l172 118q38 -108 168 -108q68 0 107 58t39 126q0 110 -62 246l-317 811h-309v-813l61 -66h123v-57h-543v57h107l57 66v803l-164 30v48
h160v8q0 33 2.5 64.5t13 81t28 90.5t52 86t80.5 76t117 51t158 20q172 0 276 -58t104 -135q0 -65 -32 -106h-148l-26 71q-57 170 -213 170q-63 0 -106.5 -29t-66.5 -84.5t-32.5 -122.5t-9.5 -157v-26zM1591 1288q0 -54 -35.5 -89.5t-89.5 -35.5t-89.5 35.5t-35.5 89.5
t35.5 89.5t89.5 35.5t89.5 -35.5t35.5 -89.5z" />
    <glyph glyph-name="f_ygrave" unicode="f&#x1ef3;" horiz-adv-x="1712" 
d="M528 1423q-62 0 -90 -41t-28 -122v-256h706v-58h-102l-58 -65l271 -738h4l227 738l-57 65h-103v58h349v-37l-80 -86l-330 -908q-148 -399 -377 -399q-161 0 -246 111l172 118q38 -108 168 -108q68 0 107 58t39 126q0 110 -62 246l-317 811h-309v-813l61 -66h123v-57h-543
v57h107l57 66v803l-164 30v48h160v36q0 132 32.5 228t107.5 154.5t188 58.5q125 0 200.5 -66.5t75.5 -154.5q0 -43 -12 -64l-168 27q10 27 10 63q0 56 -32.5 96.5t-86.5 40.5zM1481 1155l-541 154v172l541 -269v-57z" />
    <glyph glyph-name=".notdef" horiz-adv-x="1318" 
d="M102 492v100l633 633q28 -14 53 -47zM102 291v100l711 711v-31q0 -41 -27.5 -76.5t-84.5 -80.5t-76 -64q-47 -47 -74 -111zM213 0h-100l534 535h101l-191 -191h-47v-47zM657 344l560 559v-100l-459 -459h-101zM815 0h-100l67 68h4v4l431 430v-101zM102 692v101l304 303
l79 -4q0 60 41.5 106.5t112.5 46.5h16zM786 272l431 430v-100l-431 -430v100zM102 90v100l422 422v-77h23zM102 1194l402 401h100l-90 -90q-110 -29 -190 -109.5t-111 -191.5l-111 -110v100zM1100 987l117 117v-100l-443 -443v14q0 21 5.5 38.5t11.5 29.5t22.5 27.5
t27.5 23.5t37 26.5t40 29.5q3 3 21 16t28.5 21.5t29.5 25t32 33t27.5 38t25.5 48t18 55.5zM102 1395l201 200h100l-301 -301v101zM1016 0h-101l302 301v-100zM940 1430l166 165h100l-213 -213q-4 4 -23 22t-30 26zM102 893v100l115 115l94 -6zM1036 1325l181 180v-100
l-144 -143q-6 12 -37 63zM414 0h-101l197 197v-101zM1098 1186l119 119v-101l-107 -106q0 26 -12 88zM809 1499l96 96h101l-127 -127q-38 20 -70 31zM629 1520l76 75h100l-78 -77q-36 4 -57 4q-4 0 -13.5 -1t-13.5 -1h-14zM614 0h-100l68 68h100zM1217 100v-100h-101z
M102 1595h101l-101 -100v100z" />
    <glyph glyph-name=".null" horiz-adv-x="0" 
 />
    <glyph glyph-name="nonmarkingreturn" horiz-adv-x="682" 
 />
    <glyph glyph-name="NULL" horiz-adv-x="0" 
 />
    <glyph glyph-name="NULL" horiz-adv-x="0" 
 />
    <glyph glyph-name="CR" unicode="&#xd;" horiz-adv-x="1024" 
 />
    <glyph glyph-name="space" unicode=" " horiz-adv-x="499" 
 />
    <glyph glyph-name="exclam" unicode="!" horiz-adv-x="557" 
d="M377 1006l-70 -600h-55l-70 600v448h195v-448zM418 113q0 -60 -39.5 -100t-99.5 -40t-100 40t-40 100t40 99.5t100 39.5t99.5 -39.5t39.5 -99.5z" />
    <glyph glyph-name="quotedbl" unicode="&#x22;" horiz-adv-x="700" 
d="M567 952h-118v502h118v-502zM252 952h-119v502h119v-502z" />
    <glyph glyph-name="numbersign" unicode="#" horiz-adv-x="1210" 
d="M1057 1454l-123 -450h205l-21 -80h-205l-104 -383h205l-21 -82h-207l-122 -459h-103l123 459h-305l-123 -459h-102l122 459h-202l20 82h205l104 383h-204l20 80h205l123 450h102l-123 -450h305l123 450h103zM506 924l-105 -383h306l104 383h-305z" />
    <glyph glyph-name="dollar" unicode="$" horiz-adv-x="1150" 
d="M641 -102h-109v79q-142 15 -280 80l-62 -75h-61v483h61l9 -19q57 -127 141 -217t192 -127v527q-50 22 -84.5 39t-79.5 43.5t-75.5 51t-62.5 60t-51 73.5t-31.5 88t-12.5 106q0 149 109 258t288 129v79h109v-77q124 -9 240 -66l32 60h60v-431h-62l-18 50q-89 234 -252 290
v-532q44 -20 66.5 -31t63.5 -32.5t63.5 -37t56 -41t52.5 -48t41.5 -54.5t34.5 -65t20 -74.5t8 -87.5q0 -175 -119 -286.5t-287 -119.5v-75zM641 82h21q124 0 180.5 56t56.5 151q0 53 -19.5 97.5t-57.5 79.5t-80 60.5t-101 53.5v-498zM299 1180q0 -51 17 -93t51.5 -75.5
t72 -58t92.5 -52.5v496q-79 -3 -133.5 -35.5t-77 -79t-22.5 -102.5z" />
    <glyph glyph-name="percent" unicode="%" horiz-adv-x="1847" 
d="M733 1047q0 -85 -19 -160.5t-56.5 -137.5t-102.5 -98.5t-149 -36.5q-85 0 -150.5 37t-103.5 99.5t-57 137.5t-19 159q0 85 19 160.5t57 138t103.5 99t150.5 36.5q68 0 123.5 -24t92.5 -65.5t62.5 -97.5t37 -118t11.5 -129zM539 1047q0 72 -6.5 134t-21.5 117t-42.5 87
t-65.5 32t-65.5 -32.5t-42 -88.5t-21 -117.5t-6.5 -131.5q0 -69 6.5 -130t21.5 -116.5t43 -88t67 -32.5q133 0 133 367zM1550 1454l-1151 -1454h-118q222 281 621.5 780.5t537.5 673.5h110zM1774 406q0 -85 -19 -160.5t-57 -137.5t-103 -98.5t-149 -36.5q-85 0 -150.5 37
t-103.5 99.5t-57 137.5t-19 159q0 85 19 160.5t57 138t103.5 99t150.5 36.5q84 0 149 -36.5t103 -99t57 -138t19 -160.5zM1579 406q0 72 -6.5 134t-21 117t-42 87t-65.5 32t-65.5 -32.5t-42 -88.5t-21 -117.5t-6.5 -131.5t6.5 -130.5t21 -116t42.5 -88t67 -32.5
q133 0 133 367z" />
    <glyph glyph-name="ampersand" unicode="&#x26;" horiz-adv-x="1503" 
d="M1071 0l-141 193q-184 -220 -420 -220q-168 0 -273.5 94.5t-105.5 247.5q0 175 148 315q57 55 203 156q5 4 10 7q-88 124 -127 216t-39 179q0 136 97.5 214.5t246.5 78.5q45 0 88.5 -7t88.5 -24.5t78.5 -43.5t54.5 -68.5t21 -96.5q0 -43 -18 -85t-42.5 -75.5t-69.5 -73.5
t-80.5 -67t-92.5 -68l318 -423q72 122 207 432l-82 65h-115v58h399v-37l-116 -70q-144 -335 -246 -510l199 -264l172 -86v-37h-363zM590 145q162 0 287 119l-351 481q-99 -82 -154 -161.5t-55 -171.5q0 -119 80 -193t193 -74zM471 1282q0 -17 3 -35t11.5 -39.5t14.5 -37
t21.5 -41.5t22.5 -38.5t27.5 -42.5t26.5 -38.5t30 -41.5t27 -38l9 -12q74 67 113.5 136t39.5 156q0 89 -52.5 149t-137.5 60q-68 0 -112 -36.5t-44 -100.5z" />
    <glyph glyph-name="quotesingle" unicode="'" horiz-adv-x="387" 
d="M254 952h-121v502h121v-502z" />
    <glyph glyph-name="parenleft" unicode="(" horiz-adv-x="634" 
d="M197 508q0 -133 22 -256.5t70.5 -245.5t134 -234t203.5 -202l-25 -47q-123 66 -225 177.5t-168.5 244t-102.5 278t-36 285.5q0 146 33 292t97 280.5t167 249.5t233 188l27 -45q-143 -104 -242.5 -266.5t-143.5 -338.5t-44 -360z" />
    <glyph glyph-name="parenright" unicode=")" horiz-adv-x="634" 
d="M438 508q0 184 -44 360t-143.5 338.5t-242.5 266.5l27 45q130 -73 233 -188t167 -249.5t97 -280.5t33 -292q0 -189 -61.5 -379t-184.5 -354t-286 -252l-25 47q118 90 203.5 202t134 234t70.5 245.5t22 256.5z" />
    <glyph glyph-name="asterisk" unicode="*" horiz-adv-x="927" 
d="M141 1092l-49 118l109 68l233 -145l2 2l-69 264l98 82l98 -82l-67 -266l2 -3l231 148l107 -66l-48 -120l-274 -19l-2 -4l213 -172l-29 -123l-129 8l-102 256h-4l-99 -256l-126 -10l-31 125l209 174l-2 4z" />
    <glyph glyph-name="plus" unicode="+" horiz-adv-x="1044" 
d="M952 526h-377v-399h-106v399h-377v95h377v383h106v-383h377v-95z" />
    <glyph glyph-name="comma" unicode="," horiz-adv-x="495" 
d="M117 -289l-17 43q68 27 120 87.5t52 131.5q-76 1 -121 41t-45 99q0 60 39 99.5t99 39.5q63 0 103 -45t40 -127q0 -123 -72.5 -222.5t-197.5 -146.5z" />
    <glyph glyph-name="hyphen" unicode="-" horiz-adv-x="700" 
d="M575 545h-450v82h450v-82z" />
    <glyph glyph-name="period" unicode="." horiz-adv-x="491" 
d="M385 113q0 -60 -39.5 -100t-99.5 -40t-100 40t-40 100t40 99.5t100 39.5t99.5 -39.5t39.5 -99.5z" />
    <glyph glyph-name="slash" unicode="/" horiz-adv-x="925" 
d="M55 0l713 1454h106l-712 -1454h-107z" />
    <glyph glyph-name="zero" unicode="0" horiz-adv-x="1294" 
d="M1184 725q0 -114 -22 -223t-67.5 -204.5t-108.5 -168t-150.5 -114.5t-188.5 -42q-125 0 -229 64.5t-169.5 171.5t-101.5 240t-36 276q0 115 22 224t66.5 205.5t107 169.5t150.5 115t190 42q133 0 238 -64t169 -172t97 -240.5t33 -279.5zM952 725q0 127 -15 241.5
t-48 220.5t-95.5 169t-148.5 63q-70 0 -124.5 -44t-87.5 -113.5t-55 -163.5t-30 -185t-8 -188q0 -74 2 -132t9 -133t20 -131.5t36 -114t54.5 -95t79 -61t106.5 -23.5q47 0 86 14t68 37.5t52.5 60t39 75t27 90.5t17.5 98t9.5 105.5t4.5 105t1 104.5z" />
    <glyph glyph-name="one" unicode="1" horiz-adv-x="784" 
d="M96 1239l406 236h4v-1332l82 -86h143v-57h-643v57h145l82 86v1133l-219 -109v72z" />
    <glyph glyph-name="two" unicode="2" horiz-adv-x="1130" 
d="M535 1421q-45 0 -79.5 -16.5t-55 -41.5t-34 -59t-18 -65t-4.5 -63q0 -27 2.5 -53.5t7 -46t8.5 -33.5t8 -25l3 -10l-242 -35q-12 21 -12 80q0 187 122.5 307.5t309.5 120.5q193 0 311.5 -99t118.5 -288q0 -59 -13 -117.5t-32.5 -109t-56.5 -106.5t-69.5 -99.5t-88.5 -99
t-96 -93t-109.5 -95t-112.5 -91t-120 -93.5v-4h565l147 183h37l-71 -369h-867v102q22 20 67 61q97 88 146.5 135t132 131.5t126 148.5t92 147.5t69.5 170t21 177.5q0 185 -51 266.5t-162 81.5z" />
    <glyph glyph-name="three" unicode="3" horiz-adv-x="1110" 
d="M961 1352l-568 -486v-4q103 47 193 47q98 0 178.5 -36.5t131 -97t78 -134.5t27.5 -152q0 -100 -32 -191.5t-91.5 -164.5t-153.5 -116.5t-208 -43.5q-163 0 -276 95.5t-168 271.5l47 20q68 -96 160 -149t227 -53q98 0 172 53t110.5 138.5t36.5 189.5q0 129 -76.5 212
t-207.5 83q-116 0 -238 -70v94l387 406v4h-530l33 213h20l72 -27h676v-102z" />
    <glyph glyph-name="four" unicode="4" horiz-adv-x="1087" 
d="M573 1454h246q-102 -254 -269 -480.5t-415 -465.5v-4h438v254l152 184h37v-438h248v-82h-248v-277l82 -88h143v-57h-649v57h151l84 88v277h-532v35q109 136 192 264t145.5 257t103 230.5t91.5 245.5z" />
    <glyph glyph-name="five" unicode="5" horiz-adv-x="1101" 
d="M514 899q-104 0 -185.5 -60.5t-125.5 -170.5h-62l125 786h578l76 27h20l-41 -213h-543l-120 -422h4q129 129 317 129q92 0 168 -27.5t128 -74t87.5 -109.5t51.5 -132t16 -143q0 -100 -32.5 -191.5t-92 -164.5t-153.5 -116.5t-208 -43.5q-163 0 -276 95.5t-168 271.5
l47 20q68 -96 160 -149t227 -53q98 0 172 53t110.5 138.5t36.5 189.5q0 98 -33 177.5t-106.5 131t-177.5 51.5z" />
    <glyph glyph-name="six" unicode="6" horiz-adv-x="1153" 
d="M100 500q0 110 36 230.5t106 237.5t164 218.5t220 179.5t265 115v-58q-169 -58 -320 -224.5t-211 -373.5h5q39 37 109 59.5t149 22.5q205 0 330.5 -124t125.5 -337q0 -134 -65.5 -243t-174.5 -169.5t-235 -60.5q-147 0 -263.5 73.5t-178.5 193t-62 260.5zM854 395
q0 80 -17 156.5t-49.5 142.5t-89 106t-127.5 40q-117 0 -182 -92t-65 -248q0 -84 18 -164.5t52 -147t90.5 -107t125.5 -40.5q244 0 244 354z" />
    <glyph glyph-name="seven" unicode="7" horiz-adv-x="989" 
d="M137 1481h21l71 -27h738v-102q-125 -153 -220.5 -332.5t-151 -357.5t-85 -342t-35.5 -320h-246q40 299 217.5 665t393.5 599v4h-590l-152 -185h-37z" />
    <glyph glyph-name="eight" unicode="8" horiz-adv-x="1120" 
d="M539 -27q-117 0 -213.5 39t-156.5 117t-60 182q0 127 92.5 242.5t232.5 189.5q-139 106 -206.5 199.5t-67.5 204.5q0 156 115.5 245t289.5 89q184 0 291 -83.5t107 -199.5q0 -106 -71 -194.5t-233 -174.5q80 -56 135 -101t109.5 -102.5t82.5 -119t28 -125.5
q0 -185 -134 -296.5t-341 -111.5zM469 715q-172 -117 -172 -350q0 -81 31.5 -151.5t100.5 -118.5t163 -48q121 0 185.5 65.5t64.5 184.5q0 28 -13 60.5t-29.5 59t-50.5 62t-55.5 56.5t-67.5 58.5t-63.5 51t-64.5 48.5q-20 15 -29 22zM621 856q91 64 126 134.5t35 162.5
q0 60 -27 118.5t-84 100t-130 41.5q-230 0 -230 -209q0 -22 6 -44t14 -41t24 -40.5t28.5 -37t36 -36t38 -32.5t42 -32.5t40.5 -29.5t42.5 -29t38.5 -26z" />
    <glyph glyph-name="nine" unicode="9" horiz-adv-x="1153" 
d="M1053 954q0 -110 -36 -230.5t-106 -237.5t-164 -218.5t-220 -179.5t-265 -115v58q166 55 318 224t213 374h-5q-39 -37 -109 -59.5t-149 -22.5q-205 0 -330.5 124t-125.5 337q0 100 38.5 188.5t103.5 150.5t152 98t181 36q147 0 263.5 -73.5t178.5 -193t62 -260.5z
M299 1059q0 -80 17 -156.5t49.5 -142.5t89 -106t127.5 -40q117 0 182 92t65 248q0 84 -18 164.5t-52 147t-90.5 107t-125.5 40.5q-244 0 -244 -354z" />
    <glyph glyph-name="colon" unicode=":" horiz-adv-x="528" 
d="M403 891q0 -60 -39.5 -100.5t-99.5 -40.5t-99.5 40.5t-39.5 100.5q0 58 40 98.5t99 40.5t99 -40.5t40 -98.5zM403 113q0 -60 -39.5 -100t-99.5 -40t-99.5 40t-39.5 100t39.5 99.5t99.5 39.5t99.5 -39.5t39.5 -99.5z" />
    <glyph glyph-name="semicolon" unicode=";" horiz-adv-x="540" 
d="M408 891q0 -60 -40 -100.5t-100 -40.5t-99.5 40.5t-39.5 100.5q0 58 40 98.5t99 40.5t99.5 -40.5t40.5 -98.5zM141 -289l-16 43q68 27 120 87.5t52 131.5q-76 1 -121 41t-45 99q0 60 38.5 99.5t98.5 39.5q63 0 103.5 -45t40.5 -127q0 -123 -73 -222.5t-198 -146.5z" />
    <glyph glyph-name="less" unicode="&#x3c;" horiz-adv-x="1044" 
d="M926 43l-858 471v100l858 473v-122l-740 -398l740 -401v-123z" />
    <glyph glyph-name="equal" unicode="=" horiz-adv-x="1302" 
d="M1155 750h-1008v94h1008v-94zM1155 301h-1008v94h1008v-94z" />
    <glyph glyph-name="greater" unicode="&#x3e;" horiz-adv-x="1044" 
d="M977 514l-858 -471v123l739 401l-739 398v122l858 -473v-100z" />
    <glyph glyph-name="question" unicode="?" horiz-adv-x="862" 
d="M500 113q0 -60 -40 -100t-100 -40t-99.5 40t-39.5 100t39.5 99.5t99.5 39.5t100 -39.5t40 -99.5zM791 1221q0 -77 -22.5 -139.5t-58.5 -106t-79.5 -83.5t-87 -83t-79.5 -93t-58.5 -124.5t-22.5 -167.5v-18h-49q-29 68 -29 153q0 78 29.5 153t71.5 135.5t84.5 120.5
t72 132t29.5 147q0 83 -43.5 124.5t-120.5 41.5q-73 0 -114.5 -53t-41.5 -115q0 -37 7 -61l8 -25l-195 -29q-12 21 -12 80q0 66 33.5 120t86.5 86t112.5 48.5t117.5 16.5q91 0 163 -23t113.5 -61t63 -83t21.5 -93z" />
    <glyph glyph-name="at" unicode="@" horiz-adv-x="1746" 
d="M862 971q-66 0 -110.5 -55.5t-44.5 -120.5q0 -41 6 -62l8 -24l-195 -29q-12 21 -12 80q0 66 33.5 120t86.5 85.5t112.5 48t117.5 16.5q91 0 159.5 -23t106.5 -61.5t56 -82.5t18 -93v-647l60 -66h155q60 72 94 154q56 127 56 270q0 189 -93 349t-253 253t-349 93t-349 -93
t-252.5 -253t-92.5 -349q0 -139 50.5 -262.5t142.5 -218.5h-80q-174 215 -174 481q0 154 59.5 294t160 241t240 161t293.5 60t294 -60t241 -161t161 -241t60 -294q0 -131 -46 -255.5t-126 -225.5h-452l14 154h-4q-154 -181 -314 -181q-107 0 -175 69.5t-68 190.5
q0 131 95.5 219t276.5 117l181 29v207q0 166 -148 166zM1010 215v317l-113 -22q-238 -59 -238 -236q0 -81 34.5 -128.5t99.5 -47.5q57 0 108.5 29t108.5 88z" />
    <glyph glyph-name="A" unicode="A" horiz-adv-x="1404" 
d="M1040 143l-127 330h-538l-109 -289l72 -127h168v-57h-463v37l115 147l440 1110l-45 123l143 119h21l563 -1393l111 -106v-37h-553v57h141zM643 1180l-237 -625h477z" />
    <glyph glyph-name="B" unicode="B" horiz-adv-x="1378" 
d="M698 82q170 0 248 83t78 251q0 80 -27 140t-76 96t-111.5 53.5t-137.5 17.5h-154v-602q66 -39 180 -39zM518 805h154q144 0 228.5 73.5t84.5 231.5q0 133 -77.5 197.5t-207.5 64.5q-109 0 -182 -33v-534zM61 1397v57h666q71 0 133.5 -7t131 -28.5t116.5 -56.5t79.5 -96
t31.5 -142q0 -79 -27 -139t-75.5 -97t-102 -59t-121.5 -36v-5q47 -3 93.5 -13.5t100.5 -36t93.5 -63t66.5 -100t27 -141.5q0 -144 -78.5 -243.5t-211.5 -145t-312 -45.5h-611v57h166l80 86v1168l-80 86h-166z" />
    <glyph glyph-name="C" unicode="C" horiz-adv-x="1458" 
d="M813 1481q232 0 412 -84l51 76h61v-443h-61l-16 33q-30 60 -57.5 103.5t-70 91.5t-89.5 78t-114.5 49.5t-146.5 19.5q-221 -4 -355 -176.5t-134 -450.5q0 -126 43.5 -240.5t118.5 -199.5t183.5 -135.5t231.5 -50.5q287 0 455 276l57 -20q-24 -54 -57 -108t-87 -116.5
t-116.5 -108.5t-149 -75.5t-179.5 -26.5q-157 0 -289 59.5t-219.5 161.5t-136 239t-48.5 292q0 156 51 294.5t142 240.5t226 161.5t294 59.5z" />
    <glyph glyph-name="D" unicode="D" horiz-adv-x="1525" 
d="M690 0h-629v57h166l80 86v1168l-80 86h-166v57h633q186 0 326.5 -51t228 -146t131 -223.5t43.5 -290.5q0 -206 -103 -378.5t-271 -268.5t-359 -96zM518 1339v-1189q25 -14 60 -23q64 -23 143 -23q251 0 356 140.5t105 427.5q0 118 -18 221t-57 191.5t-96.5 152t-141 99.5
t-185.5 36q-57 0 -119 -16q-33 -11 -47 -17z" />
    <glyph glyph-name="E" unicode="E" horiz-adv-x="1341" 
d="M1004 1372h-486v-559h303l127 246h37v-574h-37l-127 246h-303v-649h502l219 287h37l-72 -369h-1143v57h166l80 86v1168l-80 86h-166v57h1127v-348h-37z" />
    <glyph glyph-name="F" unicode="F" horiz-adv-x="1241" 
d="M1004 1372h-486v-559h303l127 246h37v-574h-37l-127 246h-303v-588l84 -86h213v-57h-754v57h166l80 86v1168l-80 86h-166v57h1127v-348h-37z" />
    <glyph glyph-name="G" unicode="G" horiz-adv-x="1519" 
d="M813 1481q232 0 412 -84l51 76h61v-443h-61l-16 33q-30 60 -57.5 103.5t-70 91.5t-89.5 78t-114.5 49.5t-146.5 19.5q-221 -4 -355 -176.5t-134 -450.5q0 -126 43.5 -240.5t118.5 -199.5t183.5 -135.5t231.5 -50.5q171 0 299 96v309l-82 70h-172v53h474v-698h-62
l-121 165q-182 -182 -413 -174q-157 0 -289 59.5t-219.5 161.5t-136 239t-48.5 292q0 156 51 294.5t142 240.5t226 161.5t294 59.5z" />
    <glyph glyph-name="H" unicode="H" horiz-adv-x="1660" 
d="M1354 1311v-1168l78 -86h167v-57h-708v57h172l80 86v600h-625v-600l78 -86h174v-57h-709v57h166l80 86v1168l-80 86h-166v57h709v-57h-174l-78 -86v-486h625v486l-80 86h-172v57h708v-57h-167z" />
    <glyph glyph-name="I" unicode="I" horiz-adv-x="835" 
d="M528 1311v-1168l78 -86h168v-57h-713v57h166l80 86v1168l-80 86h-166v57h713v-57h-168z" />
    <glyph glyph-name="J" unicode="J" horiz-adv-x="925" 
d="M455 270v1041l-84 86h-215v57h714v-57h-125l-79 -86v-940q0 -178 -95 -288t-268 -110q-60 0 -122 19.5t-110 57.5t-59 85l199 64q38 -152 139 -152q62 0 83.5 52.5t21.5 170.5z" />
    <glyph glyph-name="K" unicode="K" horiz-adv-x="1443" 
d="M1325 143l162 -106v-37h-572v57h119v86l-512 590h-4v-588l80 -88h145v-57h-682v57h162l84 88v1162l-84 90h-162v57h684v-57h-147l-80 -90v-539h4l520 543v86h-153v57h467v-37l-185 -106l-466 -459z" />
    <glyph glyph-name="L" unicode="L" horiz-adv-x="1232" 
d="M954 82l220 287h36l-71 -369h-1078v57h166l80 86v1168l-80 86h-166v57h740v-57h-205l-78 -86v-1168l62 -61h374z" />
    <glyph glyph-name="M" unicode="M" horiz-adv-x="1951" 
d="M1890 0h-667v57h127l84 86v994h-4l-478 -1157h-49l-497 1157h-5v-953l97 -127h168v-57h-605v57h164l82 127v1127l-45 86h-201v57h445l495 -1128h5l452 1128h432v-57h-204l-41 -66v-1188l81 -86h164v-57z" />
    <glyph glyph-name="N" unicode="N" horiz-adv-x="1615" 
d="M1575 1397h-158l-88 -127v-1290h-72l-849 1175h-5v-969l97 -129h145v-57h-582v57h162l84 129v1082l-94 129h-152v57h406l762 -1032h4v848l-96 127h-146v57h582v-57z" />
    <glyph glyph-name="O" unicode="O" horiz-adv-x="1626" 
d="M813 1481q210 0 374 -102t251.5 -272.5t87.5 -377.5q0 -156 -51 -294.5t-142 -240.5t-226 -161.5t-294 -59.5q-210 0 -374 102t-251.5 272.5t-87.5 377.5q0 156 51 294.5t142 240.5t226 161.5t294 59.5zM895 72q169 0 283 139.5t114 368.5q0 126 -22.5 244.5t-68.5 221.5
t-110 180.5t-153.5 122t-192.5 44.5q-82 0 -156.5 -37.5t-131 -104t-90 -165t-33.5 -212.5q0 -161 38.5 -305.5t108.5 -255t177.5 -176t236.5 -65.5z" />
    <glyph glyph-name="P" unicode="P" horiz-adv-x="1280" 
d="M518 1337v-1194l80 -86h225v-57h-762v57h162l84 86v1168l-84 86h-162v57h625q129 0 224.5 -19t168 -61.5t109.5 -116t37 -178.5q0 -122 -70.5 -220t-191.5 -152t-267 -54h-94v72h78q151 0 232 84.5t81 249.5q0 148 -87 230.5t-206 82.5q-106 0 -182 -35z" />
    <glyph glyph-name="Q" unicode="Q" horiz-adv-x="1626" 
d="M813 1481q210 0 374 -102t251.5 -272.5t87.5 -377.5q0 -185 -68 -341.5t-196.5 -262t-298.5 -137.5v-15l553 -333v-39h-363l-369 374q-152 6 -281 67t-217 161.5t-137 235.5t-49 286q0 156 51 294.5t142 240.5t226 161.5t294 59.5zM891 66q181 0 291 140t110 374
q0 116 -19 227.5t-62.5 218t-106.5 186.5t-158.5 128.5t-210.5 48.5q-169 0 -285 -143t-116 -372q0 -116 19 -227.5t62.5 -217.5t106.5 -186t158.5 -128.5t210.5 -48.5z" />
    <glyph glyph-name="R" unicode="R" horiz-adv-x="1435" 
d="M518 1339v-598h172q64 0 123 19t108 55t78 95.5t29 133.5q0 160 -90 244t-227 84q-55 0 -133 -16zM61 1454h713q231 0 358.5 -101.5t127.5 -279.5q0 -142 -113.5 -250.5t-319.5 -136.5v-4l121 -55l334 -504l141 -86v-37h-333l-347 549q-68 110 -153 110h-72v-514l82 -88
h193v-57h-732v57h164l82 88v1166l-82 86h-164v57z" />
    <glyph glyph-name="S" unicode="S" horiz-adv-x="1157" 
d="M553 1397q-122 0 -186 -63.5t-64 -153.5q0 -60 25.5 -109t69 -83.5t99.5 -65t118 -58.5t124 -57.5t118 -69t99.5 -87.5t69 -117.5t25.5 -153.5q0 -121 -60.5 -215t-156.5 -142.5t-209 -48.5q-30 0 -58 1.5t-54.5 5.5t-47 7t-44.5 10t-38 11t-37.5 13t-31.5 12t-31 12.5
t-27 11.5l-61 -75h-62v483h62l8 -19q70 -162 191 -263t272 -101q124 0 180.5 56t56.5 151q0 61 -26 110.5t-70.5 84t-101.5 65t-120.5 58.5t-127 57.5t-120.5 69t-101.5 87t-70.5 116.5t-26 153q0 160 128.5 275.5t328.5 115.5q64 0 121.5 -11.5t89 -23.5t78.5 -33l33 60h59
v-431h-62l-18 50q-56 145 -143 225t-201 80z" />
    <glyph glyph-name="T" unicode="T" horiz-adv-x="1325" 
d="M1262 1481v-437h-37l-148 328h-309v-1227l82 -88h178v-57h-731v57h176l84 88v1227h-309l-148 -328h-37v437h41l72 -27h971l74 27h41z" />
    <glyph glyph-name="U" unicode="U" horiz-adv-x="1558" 
d="M1503 1397h-121l-84 -127v-690q0 -607 -487 -607q-553 0 -553 555v783l-84 86h-121v57h670v-57h-162l-82 -86v-756q0 -125 17 -210.5t57 -146t107.5 -88.5t168.5 -28q375 0 375 475v713l-96 127h-152v57h547v-57z" />
    <glyph glyph-name="V" unicode="V" horiz-adv-x="1374" 
d="M772 330l356 921l-84 146h-147v57h451v-37l-123 -147l-516 -1290h-45l-531 1331l-110 106v37h604v-57h-174l-68 -86l383 -981h4z" />
    <glyph glyph-name="W" unicode="W" horiz-adv-x="1951" 
d="M1911 1417l-96 -151l-445 -1286h-47l-330 966h-4l-338 -966h-45l-502 1331l-77 106v37h557v-57h-144l-90 -86l344 -946h4l246 725l-106 307h-131v57h639v-57h-211l-35 -66l317 -944h4l295 889l-69 121h-179v57h443v-37z" />
    <glyph glyph-name="X" unicode="X" horiz-adv-x="1337" 
d="M428 1311l297 -437l283 412l-82 111h-127v57h477v-37l-154 -131l-350 -481l451 -662l127 -106v-37h-568v57h162v86l-336 498l-329 -477l81 -107h154v-57h-504v37l144 127l405 551l-399 596l-127 106v37h561v-57h-166v-86z" />
    <glyph glyph-name="Y" unicode="Y" horiz-adv-x="1323" 
d="M1161 1311l-377 -617v-551l97 -86h141v-57h-688v57h139l100 86v500l-428 668l-112 106v37h600v-57h-172l-66 -86l346 -559h4l318 559l-80 86h-154v57h461v-37z" />
    <glyph glyph-name="Z" unicode="Z" horiz-adv-x="1214" 
d="M274 1454h842v-57l-764 -1311v-4h508l203 328h37v-410h-1032v57l761 1311v4h-428l-202 -328h-37v437h41z" />
    <glyph glyph-name="bracketleft" unicode="[" horiz-adv-x="602" 
d="M563 -57h-379v1568h379v-57h-270v-1454h270v-57z" />
    <glyph glyph-name="backslash" unicode="\" horiz-adv-x="925" 
d="M158 1454l712 -1454h-106l-713 1454h107z" />
    <glyph glyph-name="bracketright" unicode="]" horiz-adv-x="602" 
d="M418 -57h-379v57h270v1454h-270v57h379v-1568z" />
    <glyph glyph-name="asciicircum" unicode="^" horiz-adv-x="997" 
d="M90 621l346 860h123l348 -860h-121l-288 776l-285 -776h-123z" />
    <glyph glyph-name="underscore" unicode="_" horiz-adv-x="1257" 
d="M1133 -268h-1008v94h1008v-94z" />
    <glyph glyph-name="grave" unicode="`" 
d="M496 1155l-541 154v172l541 -269v-57z" />
    <glyph glyph-name="a" unicode="a" horiz-adv-x="1013" 
d="M483 971q-66 0 -110.5 -55.5t-44.5 -120.5q0 -41 6 -62l8 -24l-195 -29q-12 21 -12 80q0 66 33.5 120t86.5 85.5t112.5 48t117.5 16.5q91 0 159.5 -23t106.5 -61.5t56 -82.5t18 -93v-647l60 -66h84v-57l-353 -20l23 174h-4q-154 -181 -313 -181q-107 0 -175.5 69.5
t-68.5 190.5q0 131 96 219t277 117l180 29v207q0 166 -148 166zM631 215v317l-113 -22q-237 -59 -237 -236q0 -81 34 -128.5t99 -47.5q57 0 108.5 29t108.5 88z" />
    <glyph glyph-name="b" unicode="b" horiz-adv-x="1144" 
d="M147 63v1268l-59 66h-90v57l344 21v-598h4q78 78 144 115.5t159 37.5q126 0 220.5 -66t142 -176.5t47.5 -248.5q0 -118 -33.5 -220.5t-95.5 -179.5t-157.5 -121.5t-213.5 -44.5q-269 0 -412 90zM342 799v-623q38 -59 102 -98t140 -39q71 0 125 38t84.5 101t45.5 135
t15 150q0 114 -33.5 212.5t-104.5 164t-165 65.5q-45 0 -85.5 -17t-64 -35.5t-59.5 -53.5z" />
    <glyph glyph-name="c" unicode="c" horiz-adv-x="1017" 
d="M545 963q-116 0 -198.5 -103.5t-82.5 -284.5q0 -201 92.5 -314.5t251.5 -113.5q194 0 297 213l47 -20q-114 -367 -413 -367q-104 0 -191.5 42.5t-144 114t-88 163t-31.5 190.5q0 110 34 208t97 174t161.5 120.5t219.5 44.5q73 0 146 -23.5t128.5 -77t55.5 -124.5
q0 -44 -6 -60l-207 -26q8 19 8 69q0 79 -44.5 127t-131.5 48z" />
    <glyph glyph-name="d" unicode="d" horiz-adv-x="1200" 
d="M803 205v581q-25 73 -95 126t-147 53q-71 0 -125 -38t-84.5 -101t-45.5 -135t-15 -150q0 -114 33.5 -213t104.5 -164.5t165 -65.5q46 0 87 17.5t62.5 35.5t59.5 54zM997 1475v-1352l60 -66h123v-57l-377 -20l22 174h-4q-81 -93 -154.5 -137t-170.5 -44q-126 0 -220.5 66
t-142 177t-47.5 249q0 118 33.5 220.5t95.5 179.5t157.5 121t213.5 44q101 0 213 -55h4v356l-60 66h-145v57z" />
    <glyph glyph-name="e" unicode="e" horiz-adv-x="1017" 
d="M913 639l-24 -23l-625 17q-2 -23 -2 -66q0 -192 89.5 -310t236.5 -118q116 0 186.5 51t138.5 177l50 -23q-14 -40 -29 -75t-37 -73.5t-47 -70t-59 -60.5t-72.5 -48.5t-88 -31.5t-104.5 -12q-195 0 -318.5 142t-123.5 374q0 146 59 270t164.5 197.5t233.5 73.5
q88 0 158.5 -27.5t112.5 -70.5t68 -96t33 -103.5t0 -93.5zM272 696h373l43 37q0 230 -192 230q-92 0 -151.5 -79t-72.5 -188z" />
    <glyph glyph-name="f" unicode="f" horiz-adv-x="714" 
d="M528 1423q-62 0 -90 -41t-28 -122v-256h282v-68h-280v-813l61 -66h123v-57h-543v57h107l57 66v803l-164 30v48h160v36q0 132 32.5 228t107.5 154.5t188 58.5q125 0 200.5 -66.5t75.5 -154.5q0 -43 -12 -64l-168 27q10 27 10 63q0 56 -32.5 96.5t-86.5 40.5z" />
    <glyph glyph-name="g" unicode="g" horiz-adv-x="1087" 
d="M1067 948l-205 -86q25 -34 39 -92.5t14 -116.5q0 -151 -120 -245.5t-285 -94.5q-16 0 -44.5 1.5t-70 8.5t-59.5 17q-30 -37 -43.5 -55t-26 -44.5t-12.5 -50.5q0 -31 18.5 -47.5t38 -20t47.5 -3.5q17 0 45 4l289 45q44 8 80 12q10 2 29 2q63 0 106.5 -34.5t61.5 -83.5
t18 -107q0 -78 -38 -144t-98.5 -109t-138.5 -73t-156 -43.5t-153 -13.5q-151 0 -232 37t-81 110q0 48 34 87t128 114q-54 14 -97.5 60t-43.5 112q0 83 65 154l109 119q-72 46 -123 121.5t-51 168.5q0 161 120.5 267t290.5 106q184 0 271 -76v50h274v-56zM721 586
q0 41 -7.5 88t-25.5 99t-44.5 94t-67.5 69t-91 27q-170 0 -170 -240q0 -56 14 -114t41 -110.5t74.5 -86t106.5 -33.5q170 0 170 207zM883 -96q0 90 -90 90q-3 0 -19.5 -3t-47 -8.5t-58.5 -9.5l-357 -51q-61 -61 -61 -137q0 -60 75 -91.5t187 -31.5q96 0 179.5 27.5t137.5 84
t54 130.5z" />
    <glyph glyph-name="h" unicode="h" horiz-adv-x="1200" 
d="M395 1475v-635h4q84 106 166 148t150 42q140 0 216.5 -86.5t76.5 -232.5v-588l61 -66h102v-57h-526v57h111l57 66v559q0 107 -52.5 163t-127.5 56q-66 0 -121.5 -35t-116.5 -98v-645l58 -66h108v-57h-524v57h104l60 66v1208l-60 66h-104v57z" />
    <glyph glyph-name="i" unicode="i" horiz-adv-x="622" 
d="M418 1024v-901l61 -66h121v-57h-545v57h111l57 66v758l-59 65h-111v58zM446 1329q0 -54 -35 -89.5t-89 -35.5t-89.5 35.5t-35.5 89.5t35.5 89.5t89.5 35.5t89 -35.5t35 -89.5z" />
    <glyph glyph-name="j" unicode="j" horiz-adv-x="561" 
d="M205 881l-60 65h-135v58l389 20v-1053q0 -109 -37 -197t-117 -144t-192 -56q-103 0 -167.5 35t-84.5 80l154 100q13 -49 60.5 -100t93.5 -51q49 0 72.5 43.5t23.5 148.5v1051zM410 1329q0 -54 -35.5 -89.5t-89.5 -35.5t-89.5 35.5t-35.5 89.5t35.5 89.5t89.5 35.5
t89.5 -35.5t35.5 -89.5z" />
    <glyph glyph-name="k" unicode="k" horiz-adv-x="1091" 
d="M391 506v-383l62 -66h94v-57h-510v57h104l60 66v1208l-60 66h-104v57l358 21v-943h4l328 349v65h-123v58h385v-37l-131 -86l-311 -283l424 -475l139 -86v-37h-479v57h102v66l-338 383h-4z" />
    <glyph glyph-name="l" unicode="l" horiz-adv-x="602" 
d="M397 1475v-1352l62 -66h121v-57h-545v57h110l58 66v1208l-60 66h-108v57z" />
    <glyph glyph-name="m" unicode="m" horiz-adv-x="1787" 
d="M414 1024l-17 -197h4q164 203 320 203q222 0 270 -203q164 203 320 203q139 0 210.5 -86t71.5 -233v-588l62 -66h102v-57h-514v57h98l58 66v559q0 219 -150 219q-116 0 -245 -133v-645l61 -66h94v-57h-506v57h99l57 66v559q0 219 -145 219q-121 0 -250 -133v-645l57 -66
h98v-57h-514v57h105l59 66v758l-59 65h-105v58z" />
    <glyph glyph-name="n" unicode="n" horiz-adv-x="1218" 
d="M414 1024l-17 -199h4q92 114 178.5 159.5t153.5 45.5q140 0 216.5 -86.5t76.5 -232.5v-588l61 -66h103v-57h-526v57h110l57 66v559q0 109 -52 164t-130 55q-65 0 -119.5 -35t-115.5 -98v-645l57 -66h109v-57h-525v57h105l59 66v758l-59 65h-105v58z" />
    <glyph glyph-name="o" unicode="o" horiz-adv-x="1167" 
d="M1083 508q0 -228 -141 -381.5t-354 -153.5q-225 0 -364.5 151t-139.5 386q0 226 140.5 373t357.5 147q222 0 361.5 -144.5t139.5 -377.5zM870 440q0 63 -11.5 132.5t-36.5 139.5t-61 125.5t-89.5 90.5t-116.5 35q-67 0 -118.5 -34.5t-81.5 -92.5t-45 -126.5t-15 -142.5
q0 -81 20 -169.5t57 -170t100.5 -134t141.5 -52.5q66 0 117 35.5t80.5 94t44 127t14.5 142.5z" />
    <glyph glyph-name="p" unicode="p" horiz-adv-x="1193" 
d="M391 29v-305l62 -66h143v-57h-553v57h96l58 66v1157l-60 65h-94v58l348 20l-22 -174h4q81 93 154.5 136.5t170.5 43.5q126 0 220.5 -66t142 -176.5t47.5 -248.5q0 -118 -33.5 -220.5t-95.5 -179.5t-157.5 -121.5t-213.5 -44.5q-103 0 -217 56zM391 799v-582
q52 -86 109.5 -132t132.5 -46q71 0 125 38t84.5 101t45.5 135t15 150q0 114 -33.5 212.5t-104.5 164t-165 65.5q-45 0 -85.5 -17t-64 -35.5t-59.5 -53.5z" />
    <glyph glyph-name="q" unicode="q" horiz-adv-x="1159" 
d="M803 205v581q-31 71 -99 124t-143 53q-71 0 -125 -37.5t-84.5 -100t-45.5 -134.5t-15 -150q0 -114 33.5 -213t104.5 -164.5t165 -65.5q46 0 87 17.5t62.5 35.5t59.5 54zM997 -276l58 -66h112v-57h-573v57h143l66 66v409h-4q-73 -83 -142 -121.5t-161 -38.5
q-126 0 -220.5 66t-142 177t-47.5 249q0 118 33.5 220.5t95.5 179.5t157.5 121t213.5 44q105 0 217 -55l194 49v-1300z" />
    <glyph glyph-name="r" unicode="r" horiz-adv-x="849" 
d="M408 694v-571l57 -66h162v-57h-572v57h105l59 66v758l-59 65h-105v58l326 20v-289h8q23 54 51 102t65 93.5t83 72.5t94 27q53 0 94 -18.5t60 -44.5l-82 -203h-9q-53 61 -139 61q-103 0 -198 -131z" />
    <glyph glyph-name="s" unicode="s" horiz-adv-x="892" 
d="M399 965q-56 0 -97.5 -34t-41.5 -97q0 -45 30 -84t78.5 -68t107 -58t116.5 -62.5t106.5 -72.5t78.5 -95.5t30 -125.5q0 -139 -93 -217t-220 -78q-95 0 -176.5 27.5t-116.5 56.5l-41 -77h-54v389h62l25 -50q61 -125 147.5 -199.5t177.5 -74.5q68 0 109 34t41 95
q0 52 -30.5 95.5t-79 75t-107 62t-117.5 64t-107.5 71.5t-79 93.5t-30.5 122.5q0 128 91.5 200t231.5 72q117 0 234 -45l20 39h56v-358h-62l-14 47q-36 113 -110 182.5t-165 69.5z" />
    <glyph glyph-name="t" unicode="t" horiz-adv-x="669" 
d="M651 936h-274v-576v-22q0 -38 0.5 -57.5t3 -53.5t9.5 -53t18.5 -40t31.5 -30.5t47 -9.5q31 0 61 18.5t73 61.5l32 -29q-52 -82 -110.5 -127t-145.5 -45q-57 0 -98 21t-63 52t-34.5 81.5t-16 94t-3.5 104.5v600l-137 30v48h133l162 270h37v-270h274v-68z" />
    <glyph glyph-name="u" unicode="u" horiz-adv-x="1185" 
d="M983 1024v-901l59 -66h119v-57l-373 -20l17 208h-4q-168 -215 -326 -215q-139 0 -213 86.5t-74 233.5v588l-59 65h-90v58l344 20v-702q0 -110 48.5 -165t125.5 -55q46 0 90.5 21.5t71.5 45t69 67.5v645l-59 65h-104v58z" />
    <glyph glyph-name="v" unicode="v" horiz-adv-x="1060" 
d="M1001 1004v-37l-67 -86l-369 -901h-69l-367 901l-88 86v37h467v-58h-102l-58 -65l250 -652h4l238 652l-58 65h-102v58h321z" />
    <glyph glyph-name="w" unicode="w" horiz-adv-x="1576" 
d="M1520 967l-74 -86l-338 -901h-72l-245 608h-5l-231 -608h-72l-364 901l-76 86v37h428v-58h-76l-57 -65l237 -643h5l174 444l-109 264h-78v58h484v-58h-138l-22 -69l237 -639h5l217 643l-58 65h-102v58h330v-37z" />
    <glyph glyph-name="x" unicode="x" horiz-adv-x="1048" 
d="M383 946v-65l188 -265h4l179 265l-58 65h-92v58h371v-37l-117 -86l-246 -320l318 -438l119 -86v-37h-494v57h137v66l-217 307h-4l-211 -307l53 -66h138v-57h-435v35l138 88l282 360l-286 398l-103 86v37h453v-58h-117z" />
    <glyph glyph-name="y" unicode="y" horiz-adv-x="1099" 
d="M344 -305q68 0 106.5 58t38.5 126q0 112 -61 246l-297 756l-92 86v37h467v-58h-103l-57 -65l270 -738h5l227 738l-57 65h-103v58h348v-37l-80 -86l-329 -908q-148 -399 -377 -399q-161 0 -246 111l172 118q38 -108 168 -108z" />
    <glyph glyph-name="z" unicode="z" horiz-adv-x="948" 
d="M852 0h-791v37l568 905v4h-307l-160 -276h-37v334h737v-37l-571 -906v-4h366l158 279h37v-336z" />
    <glyph glyph-name="braceleft" unicode="{" horiz-adv-x="665" 
d="M147 537v-11q23 -6 49 -21t60 -45.5t56 -87t22 -128.5v-344q0 -42 5 -82.5t18 -84.5t33.5 -77t55 -54.5t78.5 -21.5q50 0 109 21l16 -50q-67 -28 -160 -28q-40 0 -76.5 9t-73.5 33t-64.5 61t-44.5 98.5t-17 140.5v346q0 125 -38.5 186.5t-123.5 65.5v133q85 4 123.5 65
t38.5 185v342q0 80 17 141.5t44.5 98.5t64.5 61t73.5 32.5t76.5 8.5q91 0 160 -29l-16 -47q-74 19 -109 19q-44 0 -78.5 -21.5t-55 -54t-33.5 -76.5t-18 -84.5t-5 -81.5v-342q0 -59 -15.5 -107t-37 -76.5t-50 -49.5t-47.5 -29.5t-37 -13.5z" />
    <glyph glyph-name="bar" unicode="|" horiz-adv-x="485" 
d="M297 0h-109v1454h109v-1454z" />
    <glyph glyph-name="braceright" unicode="}" horiz-adv-x="665" 
d="M518 526v11q-18 5 -37 13.5t-47.5 29.5t-49.5 49.5t-36.5 76.5t-15.5 107v342q0 53 -8.5 103.5t-28.5 101.5t-59.5 82t-94.5 31q-34 0 -108 -19l-17 47q69 29 160 29q40 0 76.5 -8.5t74 -32.5t64.5 -61t44.5 -98.5t17.5 -141.5v-342q0 -125 38 -185.5t123 -64.5v-133
q-85 -4 -123 -65.5t-38 -186.5v-346q0 -79 -17.5 -140.5t-44.5 -98.5t-64.5 -61t-74 -33t-76.5 -9q-93 0 -160 28l17 50q59 -21 108 -21q44 0 78.5 21.5t55.5 54.5t34 77t18 84.5t5 82.5v344q0 59 15.5 107.5t37 78t49 51.5t47.5 31t37 14z" />
    <glyph glyph-name="asciitilde" unicode="~" horiz-adv-x="1310" 
d="M864 590q69 0 126.5 16.5t125.5 57.5l49 -78q-143 -94 -303 -94q-70 0 -207 43t-209 43q-116 0 -251 -72q-39 58 -48 76q161 92 295 92q71 0 210 -42t212 -42z" />
    <glyph glyph-name="uni00A0" unicode="&#xa0;" horiz-adv-x="499" 
 />
    <glyph glyph-name="exclamdown" unicode="&#xa1;" horiz-adv-x="555" 
d="M305 1022l70 -600v-449h-195v449l70 600h55zM416 1315q0 -60 -40 -99.5t-100 -39.5t-99.5 39.5t-39.5 99.5t39.5 99.5t99.5 39.5t100 -39.5t40 -99.5z" />
    <glyph glyph-name="cent" unicode="&#xa2;" horiz-adv-x="1046" 
d="M618 -102h-108v77q-127 11 -223 85.5t-144.5 184.5t-48.5 238q0 130 46.5 243.5t142.5 194t227 101.5v84h108v-76q52 -2 106 -17.5t102.5 -42t79 -70t30.5 -95.5q0 -44 -6 -60l-207 -26q8 19 8 69q0 62 -28.5 105.5t-84.5 60.5v-807q194 0 297 213l48 -20
q-99 -321 -345 -360v-82zM281 575q0 -165 59 -270.5t170 -140.5v794q-102 -21 -165.5 -120t-63.5 -263z" />
    <glyph glyph-name="sterling" unicode="&#xa3;" horiz-adv-x="1247" 
d="M657 1399q-56 0 -93 -25t-54.5 -73.5t-24 -99.5t-6.5 -122v-276h418v-94h-416q0 -140 -4 -212t-21 -137t-44 -105.5t-82 -100.5l12 -13q49 58 115.5 84.5t124.5 26.5q83 0 180 -59q92 -56 151 -56q70 0 119 31t96 84q9 -6 19.5 -14.5t15.5 -12.5q-54 -105 -141.5 -178.5
t-157.5 -73.5q-34 0 -65 8.5t-48.5 17t-48.5 26.5q-90 55 -172 55q-67 0 -141 -22t-123 -58h-155v96q43 22 73.5 59.5t56 106t38 180t12.5 267.5h-174v94h174v241q0 198 111.5 316.5t306.5 118.5q79 0 148 -18t126 -53.5t90 -96.5t33 -140q0 -35 -12 -71l-240 -29q8 19 8 70
q0 148 -50 203t-155 55z" />
    <glyph glyph-name="currency" unicode="&#xa4;" horiz-adv-x="1093" 
d="M166 680q0 132 82 238l-123 124l59 58l123 -123q104 84 240 84q138 0 239 -84l123 123l60 -58l-125 -124q84 -101 84 -238q0 -136 -84 -240l125 -125l-58 -59l-127 125q-106 -82 -237 -82q-134 0 -240 82l-125 -125l-57 59l125 125q-84 104 -84 240zM281 680
q0 -113 77 -193.5t189 -80.5t189 80.5t77 193.5t-77 193.5t-189 80.5t-189 -80.5t-77 -193.5z" />
    <glyph glyph-name="yen" unicode="&#xa5;" horiz-adv-x="1398" 
d="M1194 1311l-311 -508h317v-94h-375l-8 -15v-176h383v-94h-383v-281l96 -86h142v-57h-688v57h139l100 86v281h-352v94h352v125l-43 66h-309v94h250l-326 508l-112 106v37h600v-57h-172l-66 -86l346 -559h4l318 559l-80 86h-154v57h461v-37z" />
    <glyph glyph-name="brokenbar" unicode="&#xa6;" horiz-adv-x="485" 
d="M297 0h-109v594h109v-594zM297 860h-109v594h109v-594z" />
    <glyph glyph-name="section" unicode="&#xa7;" horiz-adv-x="1181" 
d="M156 1090q0 160 128 275.5t328 115.5q64 0 121.5 -11.5t89 -23.5t78.5 -33l33 60h59v-431h-61l-19 50q-56 145 -143 225t-201 80q-122 0 -186 -63.5t-64 -153.5q0 -60 25.5 -106t69 -76.5t99.5 -54.5t118 -45t124 -44.5t118 -56.5t99.5 -76t69 -109.5t25.5 -150.5
q0 -129 -96 -244q76 -92 76 -237q0 -121 -60.5 -215t-156.5 -142.5t-209 -48.5q-30 0 -58 1.5t-54.5 5.5t-47 7t-44.5 10t-38 11t-37.5 13t-31.5 12t-31 12.5t-27 11.5l-62 -76h-61v484h61l9 -19q70 -162 191 -263t272 -101q124 0 180.5 55.5t56.5 150.5q0 61 -26 108
t-70.5 77t-101.5 54.5t-120.5 45.5t-127 43.5t-120.5 55.5t-101.5 76t-70.5 109t-26 150q0 137 105 236q-84 97 -84 246zM920 371q0 77 -40.5 130.5t-110.5 86t-144.5 57t-163 58.5t-146.5 75q-16 -50 -16 -80q0 -64 30 -113t77 -78t112.5 -56t128.5 -46.5t134 -51.5
t120 -68q19 59 19 86z" />
    <glyph glyph-name="dieresis" unicode="&#xa8;" 
d="M137 1329q0 -54 -35.5 -89.5t-89.5 -35.5t-89.5 35.5t-35.5 89.5t35.5 89.5t89.5 35.5t89.5 -35.5t35.5 -89.5zM563 1329q0 -54 -35.5 -89.5t-89.5 -35.5t-89.5 35.5t-35.5 89.5t35.5 89.5t89.5 35.5t89.5 -35.5t35.5 -89.5z" />
    <glyph glyph-name="copyright" unicode="&#xa9;" horiz-adv-x="1712" 
d="M102 727q0 153 60 292.5t161 240.5t240.5 161t292.5 60t292.5 -60t240.5 -161t161 -240.5t60 -292.5t-60 -292.5t-161 -240.5t-240.5 -161t-292.5 -60t-292.5 60t-240.5 161t-161 240.5t-60 292.5zM168 727q0 -139 54.5 -267t147 -221t220 -148.5t266.5 -55.5t266.5 55.5
t220 148.5t147 221t54.5 267t-54.5 267t-147 221t-220 148.5t-266.5 55.5t-266.5 -55.5t-220 -148.5t-147 -221t-54.5 -267zM864 1094q-98 0 -163.5 -84.5t-65.5 -231.5q0 -144 82 -224.5t196 -80.5q104 0 167.5 45t103.5 123l47 -20q-124 -326 -373 -326q-80 0 -154.5 30
t-132.5 83.5t-92.5 134.5t-34.5 176q0 197 120.5 319.5t322.5 122.5q106 0 209 -47l37 39h51v-279h-62l-24 52q-41 87 -93 127.5t-141 40.5z" />
    <glyph glyph-name="ordfeminine" unicode="&#xaa;" horiz-adv-x="989" 
d="M473 1421q-69 0 -102 -39t-33 -104q0 -40 6 -61l8 -25l-194 -29q-13 23 -13 80q0 64 30.5 112t80 74.5t105 39t114.5 12.5q73 0 127.5 -13.5t87 -35t52 -54t26 -65t6.5 -72.5v-477l60 -66h84v-57l-353 -20l23 174h-4q-154 -181 -295 -181q-87 0 -144 51t-57 169
q0 50 20.5 92t53 72t79.5 54t95 38.5t104 25.5l140 27v125q0 72 -23 112.5t-84 40.5zM580 856v221l-72 -20q-121 -35 -169 -79.5t-48 -103.5q0 -62 25 -98.5t71 -36.5q45 0 90 29t103 88z" />
    <glyph glyph-name="guillemotleft" unicode="&#xab;" horiz-adv-x="954" 
d="M455 72l-359 399v57l359 394h30l-223 -424l223 -426h-30zM819 76l-356 399v57l356 394h33l-223 -424l223 -426h-33z" />
    <glyph glyph-name="logicalnot" unicode="&#xac;" horiz-adv-x="839" 
d="M610 381v164h-450v82h532v-246h-82z" />
    <glyph glyph-name="uni00AD" unicode="&#xad;" horiz-adv-x="700" 
d="M575 545h-450v82h450v-82z" />
    <glyph glyph-name="registered" unicode="&#xae;" horiz-adv-x="1712" 
d="M102 727q0 153 60 292.5t161 240.5t240.5 161t292.5 60t292.5 -60t240.5 -161t161 -240.5t60 -292.5t-60 -292.5t-161 -240.5t-240.5 -161t-292.5 -60t-292.5 60t-240.5 161t-161 240.5t-60 292.5zM168 727q0 -139 54.5 -267t147 -221t220 -148.5t266.5 -55.5t266.5 55.5
t220 148.5t147 221t54.5 267t-54.5 267t-147 221t-220 148.5t-266.5 55.5t-266.5 -55.5t-220 -148.5t-147 -221t-54.5 -267zM770 754h72q75 0 125.5 38.5t50.5 125.5q0 153 -178 153h-70v-317zM770 684v-246l57 -65h82v-58h-467v58h76l57 65v580l-57 65h-76v58h408
q193 0 284 -49t91 -158q0 -99 -75 -151t-192 -66v-4l101 -37l231 -336v-25h-221l-188 301q-41 68 -101 68h-10z" />
    <glyph glyph-name="macron" unicode="&#xaf;" 
d="M451 1372h-451v82h451v-82z" />
    <glyph glyph-name="degree" unicode="&#xb0;" horiz-adv-x="679" 
d="M86 1200q0 104 75 179t179 75t179 -75t75 -179t-75 -179t-179 -75t-179 75t-75 179zM184 1200q0 -66 45 -113t111 -47t111 47t45 113t-45 113t-111 47t-111 -47t-45 -113z" />
    <glyph glyph-name="plusminus" unicode="&#xb1;" horiz-adv-x="1134" 
d="M997 0h-860v94h860v-94zM997 670h-381v-402h-98v402h-381v94h381v385h98v-385h381v-94z" />
    <glyph glyph-name="twosuperior" unicode="&#xb2;" horiz-adv-x="841" 
d="M420 1427q-43 0 -69.5 -26.5t-26.5 -73.5q0 -48 14 -90l-211 -37q-8 13 -8 55q0 91 87.5 158.5t223.5 67.5q50 0 95.5 -10t88.5 -32.5t69 -66t26 -104.5q0 -114 -126 -235.5t-313 -215.5v-4h348l101 133h24l-57 -291h-563v103q78 66 126.5 109t107.5 103.5t92 107.5
t56 102t23 106q0 63 -27.5 102t-80.5 39z" />
    <glyph glyph-name="threesuperior" unicode="&#xb3;" horiz-adv-x="765" 
d="M653 1370l-331 -229v-4q43 18 120 18q96 0 162 -67.5t66 -188.5q0 -124 -88 -204.5t-203 -80.5q-213 0 -299 217l43 15q91 -84 221 -84q88 0 130 52.5t42 131.5q0 69 -46.5 110.5t-107.5 41.5q-70 0 -145 -43v69l207 168v4h-305l33 185h20l72 -27h409v-84z" />
    <glyph glyph-name="acute" unicode="&#xb4;" 
d="M496 1309l-541 -154v57l541 269v-172z" />
    <glyph glyph-name="mu" unicode="&#xb5;" horiz-adv-x="1282" 
d="M430 -399h-194v1280l-60 65h-90v58l344 20v-702q0 -110 48.5 -165t125.5 -55q46 0 90.5 21.5t72 45.5t69.5 67v645l-60 65h-104v58l358 20v-901l60 -66h118v-57l-372 -20l16 208h-4q-168 -215 -326 -215q-48 0 -92 13v-385z" />
    <glyph glyph-name="paragraph" unicode="&#xb6;" horiz-adv-x="1239" 
d="M475 1454h699v-57h-271v-1397h-108v1397h-191v-1397h-108v649h-21q-165 0 -282 118t-117 284t117 284.5t282 118.5z" />
    <glyph glyph-name="periodcentered" unicode="&#xb7;" horiz-adv-x="544" 
d="M436 717q0 -67 -48 -115.5t-116 -48.5q-67 0 -115 48t-48 116t48 116t115 48q68 0 116 -48.5t48 -115.5z" />
    <glyph glyph-name="cedilla" unicode="&#xb8;" 
d="M475 -254q0 -57 -37.5 -97t-93 -57.5t-121.5 -17.5q-81 0 -192 35q37 76 41 84q80 -33 133 -33q108 0 108 84q0 32 -26.5 52t-67.5 20q-27 0 -84 -11l-14 13l86 207h76l-52 -144q25 6 64 6q78 0 129 -35t51 -106z" />
    <glyph glyph-name="onesuperior" unicode="&#xb9;" horiz-adv-x="829" 
d="M125 1239l399 236h4v-676l82 -86h150v-58h-643v58h151l82 86v477l-225 -109v72z" />
    <glyph glyph-name="ordmasculine" unicode="&#xba;" horiz-adv-x="978" 
d="M899 1053q0 -187 -115.5 -313t-289.5 -126q-185 0 -299.5 124t-114.5 317q0 184 115.5 305t291.5 121q181 0 296.5 -118.5t115.5 -309.5zM719 999q0 50 -9.5 105.5t-30 111t-49 100t-71.5 72t-92 27.5q-70 0 -118.5 -48t-68.5 -116.5t-20 -150.5q0 -64 16 -134t45.5 -135
t80 -107t112.5 -42q70 0 118 49.5t67.5 118.5t19.5 149z" />
    <glyph glyph-name="guillemotright" unicode="&#xbb;" horiz-adv-x="952" 
d="M856 471l-358 -399h-31l223 426l-223 424h31l358 -396v-55zM489 475l-356 -399h-33l226 426l-226 424h33l356 -396v-55z" />
    <glyph glyph-name="onequarter" unicode="&#xbc;" horiz-adv-x="1802" 
d="M109 1239l399 236h4v-676l82 -86h149v-58h-643v58h152l82 86v477l-225 -109v72zM1645 1454l-1151 -1454h-119q222 281 621.5 780.5t537.5 673.5h111zM1376 799h234q-28 -50 -63.5 -102.5t-91.5 -122.5t-82.5 -102.5t-104 -122.5t-88.5 -103v-4h198v63l140 174h36v-237
h172v-66h-172v-176h-176v176h-293v39q117 175 183.5 302t107.5 282z" />
    <glyph glyph-name="onehalf" unicode="&#xbd;" horiz-adv-x="1912" 
d="M1511 772q-43 0 -69.5 -26.5t-26.5 -73.5q0 -45 15 -90l-211 -37q-9 15 -9 55q0 91 87.5 158t224.5 67q50 0 95.5 -10t88.5 -32.5t68.5 -66t25.5 -104.5q0 -114 -125.5 -235t-312.5 -215v-4h348l100 133h25l-57 -291h-564v102q78 66 126.5 109.5t107.5 103.5t92.5 107
t56.5 102.5t23 106.5q0 63 -28 102t-81 39zM106 1239l400 236h4v-676l82 -86h149v-58h-643v58h152l82 86v477l-226 -109v72zM1642 1454l-1150 -1454h-119q222 281 621.5 780.5t537.5 673.5h110z" />
    <glyph glyph-name="threequarters" unicode="&#xbe;" horiz-adv-x="1787" 
d="M647 1370l-332 -229v-4q43 18 121 18q96 0 162 -67.5t66 -188.5q0 -124 -88 -204.5t-203 -80.5q-213 0 -299 217l43 15q91 -84 221 -84q88 0 130 52.5t42 131.5q0 69 -46.5 110.5t-107.5 41.5q-70 0 -145 -43v69l207 168v4h-305l32 185h21l72 -27h409v-84zM1630 1454
l-1151 -1454h-119q219 276 613.5 769.5t546.5 684.5h110zM1362 799h233q-28 -50 -63.5 -102.5t-91.5 -122.5t-82.5 -102.5t-104 -122.5t-88.5 -103v-4h199v63l139 174h37v-237h172v-66h-172v-176h-176v176h-293v39q117 175 183.5 302t107.5 282z" />
    <glyph glyph-name="questiondown" unicode="&#xbf;" horiz-adv-x="862" 
d="M360 1341q0 60 40 100t100 40t99.5 -40t39.5 -100t-39.5 -99.5t-99.5 -39.5t-100 39.5t-40 99.5zM70 233q0 77 22.5 139.5t58.5 106t79.5 83.5t86.5 83t79 93t58.5 124.5t22.5 167.5v19h49q29 -68 29 -154q0 -77 -29.5 -152t-72 -135.5t-84.5 -121t-71.5 -133
t-29.5 -146.5q0 -83 43.5 -124.5t120.5 -41.5q73 0 114.5 53t41.5 115q0 42 -8 61l-7 25l195 29q12 -21 12 -80q0 -66 -33.5 -120t-86.5 -86t-112.5 -48.5t-117.5 -16.5q-91 0 -162.5 23t-113.5 61t-63 83t-21 93z" />
    <glyph glyph-name="Agrave" unicode="&#xc0;" horiz-adv-x="1404" 
d="M1040 143l-127 330h-538l-109 -289l72 -127h168v-57h-463v37l115 147l440 1110l-45 123l143 119h21l563 -1393l111 -106v-37h-553v57h141zM643 1180l-237 -625h477zM991 1565l-540 153v172l540 -268v-57z" />
    <glyph glyph-name="Aacute" unicode="&#xc1;" horiz-adv-x="1404" 
d="M1040 143l-127 330h-538l-109 -289l72 -127h168v-57h-463v37l115 147l440 1110l-45 123l143 119h21l563 -1393l111 -106v-37h-553v57h141zM643 1180l-237 -625h477zM950 1718l-540 -153v57l540 268v-172z" />
    <glyph glyph-name="Acircumflex" unicode="&#xc2;" horiz-adv-x="1404" 
d="M1040 143l-127 330h-538l-109 -289l72 -127h168v-57h-463v37l115 147l440 1110l-45 123l143 119h21l563 -1393l111 -106v-37h-553v57h141zM643 1180l-237 -625h477zM1028 1565l-328 153l-327 -153v57l327 268l328 -268v-57z" />
    <glyph glyph-name="Atilde" unicode="&#xc3;" horiz-adv-x="1404" 
d="M1040 143l-127 330h-538l-109 -289l72 -127h168v-57h-463v37l115 147l440 1110l-45 123l143 119h21l563 -1393l111 -106v-37h-553v57h141zM643 1180l-237 -625h477zM809 1669q-33 0 -65.5 15.5t-54.5 34.5t-53.5 34.5t-62.5 15.5q-63 0 -157 -94l-43 39q55 83 106 129.5
t113 46.5q44 0 87.5 -25t81 -50t66.5 -25q64 0 158 94l43 -39q-56 -84 -106 -130t-113 -46z" />
    <glyph glyph-name="Adieresis" unicode="&#xc4;" horiz-adv-x="1404" 
d="M1040 143l-127 330h-538l-109 -289l72 -127h168v-57h-463v37l115 147l440 1110l-45 123l143 119h21l563 -1393l111 -106v-37h-553v57h141zM643 1180l-237 -625h477zM612 1739q0 -54 -35.5 -89.5t-89.5 -35.5t-89.5 35.5t-35.5 89.5t35.5 89.5t89.5 35.5t89.5 -35.5
t35.5 -89.5zM1038 1739q0 -54 -35.5 -89.5t-89.5 -35.5t-89.5 35.5t-35.5 89.5t35.5 89.5t89.5 35.5t89.5 -35.5t35.5 -89.5z" />
    <glyph glyph-name="Aring" unicode="&#xc5;" horiz-adv-x="1404" 
d="M1040 143l-127 330h-538l-109 -289l72 -127h168v-57h-463v37l115 147l440 1110l-45 123l143 119h21l563 -1393l111 -106v-37h-553v57h141zM643 1180l-237 -625h477zM868 1722q0 -70 -48 -118t-120 -48q-69 0 -117 48.5t-48 117.5q0 72 48 120t117 48q72 0 120 -48
t48 -120zM803 1722q0 43 -30 73t-73 30q-41 0 -69.5 -30t-28.5 -73q0 -41 28.5 -69.5t69.5 -28.5q43 0 73 28.5t30 69.5z" />
    <glyph glyph-name="AE" unicode="&#xc6;" horiz-adv-x="2023" 
d="M1686 1372h-486v-559h303l127 246h37v-574h-37l-127 246h-303v-649h502l219 287h37l-72 -369h-1143v57h166l80 86v330h-567l-207 -289l72 -127h168v-57h-463v37l952 1321l-35 39h-166v57h1127v-348h-37zM479 555h510v707h-4z" />
    <glyph glyph-name="Ccedilla" unicode="&#xc7;" horiz-adv-x="1460" 
d="M1001 -254q0 -57 -37.5 -97t-92.5 -57.5t-121 -17.5q-82 0 -193 35q37 76 41 84q80 -33 133 -33q109 0 109 84q0 32 -26.5 52t-68.5 20q-26 0 -83 -11l-15 13l66 159q-186 19 -326.5 125t-212.5 268t-72 355q0 156 51 294.5t142 240.5t226 161.5t294 59.5q232 0 412 -84
l51 76h61v-443h-61l-16 33q-30 60 -57.5 103.5t-70 91.5t-89.5 78t-114.5 49.5t-146.5 19.5q-221 -4 -355 -176.5t-134 -450.5q0 -126 43.5 -240.5t118.5 -199.5t183.5 -135.5t231.5 -50.5q287 0 455 276l57 -20q-24 -54 -57 -108t-87 -116.5t-116.5 -108.5t-149 -75.5
t-179.5 -26.5h-4l-33 -92q25 6 63 6q78 0 129 -35t51 -106z" />
    <glyph glyph-name="Egrave" unicode="&#xc8;" horiz-adv-x="1341" 
d="M1004 1372h-486v-559h303l127 246h37v-574h-37l-127 246h-303v-649h502l219 287h37l-72 -369h-1143v57h166l80 86v1168l-80 86h-166v57h1127v-348h-37zM979 1565l-541 153v172l541 -268v-57z" />
    <glyph glyph-name="Eacute" unicode="&#xc9;" horiz-adv-x="1341" 
d="M1004 1372h-486v-559h303l127 246h37v-574h-37l-127 246h-303v-649h502l219 287h37l-72 -369h-1143v57h166l80 86v1168l-80 86h-166v57h1127v-348h-37zM979 1718l-541 -153v57l541 268v-172z" />
    <glyph glyph-name="Ecircumflex" unicode="&#xca;" horiz-adv-x="1341" 
d="M1004 1372h-486v-559h303l127 246h37v-574h-37l-127 246h-303v-649h502l219 287h37l-72 -369h-1143v57h166l80 86v1168l-80 86h-166v57h1127v-348h-37zM1036 1565l-327 153l-328 -153v57l328 268l327 -268v-57z" />
    <glyph glyph-name="Edieresis" unicode="&#xcb;" horiz-adv-x="1341" 
d="M1004 1372h-486v-559h303l127 246h37v-574h-37l-127 246h-303v-649h502l219 287h37l-72 -369h-1143v57h166l80 86v1168l-80 86h-166v57h1127v-348h-37zM641 1739q0 -54 -35.5 -89.5t-89.5 -35.5t-89.5 35.5t-35.5 89.5t35.5 89.5t89.5 35.5t89.5 -35.5t35.5 -89.5z
M1067 1739q0 -54 -35.5 -89.5t-89.5 -35.5t-89.5 35.5t-35.5 89.5t35.5 89.5t89.5 35.5t89.5 -35.5t35.5 -89.5z" />
    <glyph glyph-name="Igrave" unicode="&#xcc;" horiz-adv-x="835" 
d="M528 1311v-1168l78 -86h168v-57h-713v57h166l80 86v1168l-80 86h-166v57h713v-57h-168zM688 1565l-541 153v172l541 -268v-57z" />
    <glyph glyph-name="Iacute" unicode="&#xcd;" horiz-adv-x="835" 
d="M528 1311v-1168l78 -86h168v-57h-713v57h166l80 86v1168l-80 86h-166v57h713v-57h-168zM688 1718l-541 -153v57l541 268v-172z" />
    <glyph glyph-name="Icircumflex" unicode="&#xce;" horiz-adv-x="835" 
d="M528 1311v-1168l78 -86h168v-57h-713v57h166l80 86v1168l-80 86h-166v57h713v-57h-168zM745 1565l-327 153l-328 -153v57l328 268l327 -268v-57z" />
    <glyph glyph-name="Idieresis" unicode="&#xcf;" horiz-adv-x="835" 
d="M528 1311v-1168l78 -86h168v-57h-713v57h166l80 86v1168l-80 86h-166v57h713v-57h-168zM330 1739q0 -54 -35.5 -89.5t-89.5 -35.5t-89.5 35.5t-35.5 89.5t35.5 89.5t89.5 35.5t89.5 -35.5t35.5 -89.5zM756 1739q0 -54 -35.5 -89.5t-89.5 -35.5t-89.5 35.5t-35.5 89.5
t35.5 89.5t89.5 35.5t89.5 -35.5t35.5 -89.5z" />
    <glyph glyph-name="Eth" unicode="&#xd0;" horiz-adv-x="1531" 
d="M696 0h-628v57h165l80 86v600h-247v82h247v486l-80 86h-165v57h632q186 0 327 -51t228.5 -146t131 -223.5t43.5 -290.5q0 -155 -61 -294.5t-161.5 -237t-234.5 -154.5t-277 -57zM524 1339v-514h402v-82h-402v-593q25 -14 60 -23q64 -23 143 -23q251 0 356 140.5
t105 427.5q0 118 -18 221t-57 191.5t-96.5 152t-141 99.5t-185.5 36q-57 0 -119 -16q-33 -11 -47 -17z" />
    <glyph glyph-name="Ntilde" unicode="&#xd1;" horiz-adv-x="1615" 
d="M1575 1397h-158l-88 -127v-1290h-72l-849 1175h-5v-969l97 -129h145v-57h-582v57h162l84 129v1082l-94 129h-152v57h406l762 -1032h4v848l-96 127h-146v57h582v-57zM928 1669q-33 0 -65.5 15.5t-54.5 34.5t-53.5 34.5t-62.5 15.5q-63 0 -157 -94l-43 39q55 83 106 129.5
t113 46.5q44 0 87.5 -25t81 -50t66.5 -25q64 0 158 94l43 -39q-56 -84 -106 -130t-113 -46z" />
    <glyph glyph-name="Ograve" unicode="&#xd2;" horiz-adv-x="1626" 
d="M813 1481q210 0 374 -102t251.5 -272.5t87.5 -377.5q0 -156 -51 -294.5t-142 -240.5t-226 -161.5t-294 -59.5q-210 0 -374 102t-251.5 272.5t-87.5 377.5q0 156 51 294.5t142 240.5t226 161.5t294 59.5zM895 72q169 0 283 139.5t114 368.5q0 126 -22.5 244.5t-68.5 221.5
t-110 180.5t-153.5 122t-192.5 44.5q-82 0 -156.5 -37.5t-131 -104t-90 -165t-33.5 -212.5q0 -161 38.5 -305.5t108.5 -255t177.5 -176t236.5 -65.5zM1083 1565l-540 153v172l540 -268v-57z" />
    <glyph glyph-name="Oacute" unicode="&#xd3;" horiz-adv-x="1626" 
d="M813 1481q210 0 374 -102t251.5 -272.5t87.5 -377.5q0 -156 -51 -294.5t-142 -240.5t-226 -161.5t-294 -59.5q-210 0 -374 102t-251.5 272.5t-87.5 377.5q0 156 51 294.5t142 240.5t226 161.5t294 59.5zM895 72q169 0 283 139.5t114 368.5q0 126 -22.5 244.5t-68.5 221.5
t-110 180.5t-153.5 122t-192.5 44.5q-82 0 -156.5 -37.5t-131 -104t-90 -165t-33.5 -212.5q0 -161 38.5 -305.5t108.5 -255t177.5 -176t236.5 -65.5zM1083 1718l-540 -153v57l540 268v-172z" />
    <glyph glyph-name="Ocircumflex" unicode="&#xd4;" horiz-adv-x="1626" 
d="M813 1481q210 0 374 -102t251.5 -272.5t87.5 -377.5q0 -156 -51 -294.5t-142 -240.5t-226 -161.5t-294 -59.5q-210 0 -374 102t-251.5 272.5t-87.5 377.5q0 156 51 294.5t142 240.5t226 161.5t294 59.5zM895 72q169 0 283 139.5t114 368.5q0 126 -22.5 244.5t-68.5 221.5
t-110 180.5t-153.5 122t-192.5 44.5q-82 0 -156.5 -37.5t-131 -104t-90 -165t-33.5 -212.5q0 -161 38.5 -305.5t108.5 -255t177.5 -176t236.5 -65.5zM1141 1565l-328 153l-328 -153v57l328 268l328 -268v-57z" />
    <glyph glyph-name="Otilde" unicode="&#xd5;" horiz-adv-x="1626" 
d="M813 1481q210 0 374 -102t251.5 -272.5t87.5 -377.5q0 -156 -51 -294.5t-142 -240.5t-226 -161.5t-294 -59.5q-210 0 -374 102t-251.5 272.5t-87.5 377.5q0 156 51 294.5t142 240.5t226 161.5t294 59.5zM895 72q169 0 283 139.5t114 368.5q0 126 -22.5 244.5t-68.5 221.5
t-110 180.5t-153.5 122t-192.5 44.5q-82 0 -156.5 -37.5t-131 -104t-90 -165t-33.5 -212.5q0 -161 38.5 -305.5t108.5 -255t177.5 -176t236.5 -65.5zM922 1669q-33 0 -65.5 15.5t-54.5 34.5t-53.5 34.5t-62.5 15.5q-64 0 -158 -94l-43 39q55 82 106.5 129t113.5 47
q44 0 87.5 -25t81 -50t66.5 -25q64 0 158 94l43 -39q-56 -84 -106 -130t-113 -46z" />
    <glyph glyph-name="Odieresis" unicode="&#xd6;" horiz-adv-x="1626" 
d="M813 1481q210 0 374 -102t251.5 -272.5t87.5 -377.5q0 -156 -51 -294.5t-142 -240.5t-226 -161.5t-294 -59.5q-210 0 -374 102t-251.5 272.5t-87.5 377.5q0 156 51 294.5t142 240.5t226 161.5t294 59.5zM895 72q169 0 283 139.5t114 368.5q0 126 -22.5 244.5t-68.5 221.5
t-110 180.5t-153.5 122t-192.5 44.5q-82 0 -156.5 -37.5t-131 -104t-90 -165t-33.5 -212.5q0 -161 38.5 -305.5t108.5 -255t177.5 -176t236.5 -65.5zM725 1739q0 -54 -35.5 -89.5t-89.5 -35.5t-89.5 35.5t-35.5 89.5t35.5 89.5t89.5 35.5t89.5 -35.5t35.5 -89.5zM1151 1739
q0 -54 -35.5 -89.5t-89.5 -35.5t-89.5 35.5t-35.5 89.5t35.5 89.5t89.5 35.5t89.5 -35.5t35.5 -89.5z" />
    <glyph glyph-name="multiply" unicode="&#xd7;" horiz-adv-x="1062" 
d="M182 123l-73 74l348 368l-348 367l75 78l346 -367l349 367l75 -78l-350 -367l350 -368l-73 -74l-351 364z" />
    <glyph glyph-name="Oslash" unicode="&#xd8;" horiz-adv-x="1626" 
d="M260 0l94 137q-123 104 -188.5 256t-65.5 332q0 156 51 294.5t142 240.5t226 161.5t294 59.5q224 0 387 -111l60 84h106l-94 -137q122 -105 188 -257t66 -331q0 -156 -51 -294.5t-142 -240.5t-226 -161.5t-294 -59.5q-221 0 -389 111l-57 -84h-107zM334 874
q0 -338 143 -557l619 900q-142 176 -351 176q-82 0 -156.5 -37.5t-131 -104t-90 -165t-33.5 -212.5zM895 72q169 0 283 139.5t114 368.5q0 325 -141 561l-616 -899q148 -170 360 -170z" />
    <glyph glyph-name="Ugrave" unicode="&#xd9;" horiz-adv-x="1558" 
d="M1503 1397h-121l-84 -127v-690q0 -607 -487 -607q-553 0 -553 555v783l-84 86h-121v57h670v-57h-162l-82 -86v-756q0 -125 17 -210.5t57 -146t107.5 -88.5t168.5 -28q375 0 375 475v713l-96 127h-152v57h547v-57zM1110 1565l-541 153v172l541 -268v-57z" />
    <glyph glyph-name="Uacute" unicode="&#xda;" horiz-adv-x="1558" 
d="M1503 1397h-121l-84 -127v-690q0 -607 -487 -607q-553 0 -553 555v783l-84 86h-121v57h670v-57h-162l-82 -86v-756q0 -125 17 -210.5t57 -146t107.5 -88.5t168.5 -28q375 0 375 475v713l-96 127h-152v57h547v-57zM1110 1718l-541 -153v57l541 268v-172z" />
    <glyph glyph-name="Ucircumflex" unicode="&#xdb;" horiz-adv-x="1558" 
d="M1503 1397h-121l-84 -127v-690q0 -607 -487 -607q-553 0 -553 555v783l-84 86h-121v57h670v-57h-162l-82 -86v-756q0 -125 17 -210.5t57 -146t107.5 -88.5t168.5 -28q375 0 375 475v713l-96 127h-152v57h547v-57zM1167 1565l-327 153l-328 -153v57l328 268l327 -268v-57z
" />
    <glyph glyph-name="Udieresis" unicode="&#xdc;" horiz-adv-x="1558" 
d="M1503 1397h-121l-84 -127v-690q0 -607 -487 -607q-553 0 -553 555v783l-84 86h-121v57h670v-57h-162l-82 -86v-756q0 -125 17 -210.5t57 -146t107.5 -88.5t168.5 -28q375 0 375 475v713l-96 127h-152v57h547v-57zM752 1739q0 -54 -35.5 -89.5t-89.5 -35.5t-89.5 35.5
t-35.5 89.5t35.5 89.5t89.5 35.5t89.5 -35.5t35.5 -89.5zM1178 1739q0 -54 -35.5 -89.5t-89.5 -35.5t-89.5 35.5t-35.5 89.5t35.5 89.5t89.5 35.5t89.5 -35.5t35.5 -89.5z" />
    <glyph glyph-name="Yacute" unicode="&#xdd;" horiz-adv-x="1323" 
d="M1161 1311l-377 -617v-551l97 -86h141v-57h-688v57h139l100 86v500l-428 668l-112 106v37h600v-57h-172l-66 -86l346 -559h4l318 559l-80 86h-154v57h461v-37zM993 1923l-540 -154v58l540 268v-172z" />
    <glyph glyph-name="Thorn" unicode="&#xde;" horiz-adv-x="1288" 
d="M528 1311v-133h158q129 0 224.5 -19t168 -61.5t109.5 -116t37 -178.5q0 -122 -70.5 -220t-191.5 -152t-267 -54h-94v72h78q151 0 232 84t81 249q0 148 -87 231t-206 83q-93 0 -172 -31v-922l78 -86h168v-57h-713v57h166l80 86v1168l-80 86h-166v57h713v-57h-168z" />
    <glyph glyph-name="germandbls" unicode="&#xdf;" horiz-adv-x="1224" 
d="M891 -27q-21 0 -43 3t-36.5 6t-37 11t-31.5 12t-34 15t-31 13l-29 -53h-53v327h61l11 -20q43 -91 115.5 -154t144.5 -63q54 0 85 30.5t31 75.5q0 48 -26 86t-67.5 64.5t-92 51.5t-100.5 55t-91.5 67t-67.5 94.5t-26 130.5q0 86 53.5 154.5t145.5 105.5q33 51 44 89t11 89
q0 110 -62.5 184t-156.5 74q-91 0 -144.5 -65.5t-53.5 -196.5v-1159h-357v57h107l57 66v803l-164 30v48h160v36q0 202 100.5 321.5t286.5 119.5q191 0 310.5 -88.5t119.5 -225.5q0 -121 -63 -188l-15 -16l-18 -17l-39 4q-85 -2 -141 -38.5t-56 -104.5q0 -48 26.5 -86t68 -65
t92.5 -52t102 -54t92.5 -65t68 -91.5t26.5 -125.5q0 -94 -42.5 -163t-105.5 -100.5t-135 -31.5z" />
    <glyph glyph-name="agrave" unicode="&#xe0;" horiz-adv-x="1013" 
d="M483 971q-66 0 -110.5 -55.5t-44.5 -120.5q0 -41 6 -62l8 -24l-195 -29q-12 21 -12 80q0 66 33.5 120t86.5 85.5t112.5 48t117.5 16.5q91 0 159.5 -23t106.5 -61.5t56 -82.5t18 -93v-647l60 -66h84v-57l-353 -20l23 174h-4q-154 -181 -313 -181q-107 0 -175.5 69.5
t-68.5 190.5q0 131 96 219t277 117l180 29v207q0 166 -148 166zM631 215v317l-113 -22q-237 -59 -237 -236q0 -81 34 -128.5t99 -47.5q57 0 108.5 29t108.5 88zM778 1155l-540 154v172l540 -269v-57z" />
    <glyph glyph-name="aacute" unicode="&#xe1;" horiz-adv-x="1013" 
d="M483 971q-66 0 -110.5 -55.5t-44.5 -120.5q0 -41 6 -62l8 -24l-195 -29q-12 21 -12 80q0 66 33.5 120t86.5 85.5t112.5 48t117.5 16.5q91 0 159.5 -23t106.5 -61.5t56 -82.5t18 -93v-647l60 -66h84v-57l-353 -20l23 174h-4q-154 -181 -313 -181q-107 0 -175.5 69.5
t-68.5 190.5q0 131 96 219t277 117l180 29v207q0 166 -148 166zM631 215v317l-113 -22q-237 -59 -237 -236q0 -81 34 -128.5t99 -47.5q57 0 108.5 29t108.5 88zM778 1309l-540 -154v57l540 269v-172z" />
    <glyph glyph-name="acircumflex" unicode="&#xe2;" horiz-adv-x="1013" 
d="M483 971q-66 0 -110.5 -55.5t-44.5 -120.5q0 -41 6 -62l8 -24l-195 -29q-12 21 -12 80q0 66 33.5 120t86.5 85.5t112.5 48t117.5 16.5q91 0 159.5 -23t106.5 -61.5t56 -82.5t18 -93v-647l60 -66h84v-57l-353 -20l23 174h-4q-154 -181 -313 -181q-107 0 -175.5 69.5
t-68.5 190.5q0 131 96 219t277 117l180 29v207q0 166 -148 166zM631 215v317l-113 -22q-237 -59 -237 -236q0 -81 34 -128.5t99 -47.5q57 0 108.5 29t108.5 88zM836 1155l-328 154l-328 -154v57l328 269l328 -269v-57z" />
    <glyph glyph-name="atilde" unicode="&#xe3;" horiz-adv-x="1013" 
d="M483 971q-66 0 -110.5 -55.5t-44.5 -120.5q0 -41 6 -62l8 -24l-195 -29q-12 21 -12 80q0 66 33.5 120t86.5 85.5t112.5 48t117.5 16.5q91 0 159.5 -23t106.5 -61.5t56 -82.5t18 -93v-647l60 -66h84v-57l-353 -20l23 174h-4q-154 -181 -313 -181q-107 0 -175.5 69.5
t-68.5 190.5q0 131 96 219t277 117l180 29v207q0 166 -148 166zM631 215v317l-113 -22q-237 -59 -237 -236q0 -81 34 -128.5t99 -47.5q57 0 108.5 29t108.5 88zM616 1260q-42 0 -81 25t-77 50t-77 25q-64 0 -158 -94l-43 39q55 83 106 129.5t113 46.5q44 0 88 -25.5
t81.5 -50.5t66.5 -25q63 0 158 95l43 -39q-56 -83 -106.5 -129.5t-113.5 -46.5z" />
    <glyph glyph-name="adieresis" unicode="&#xe4;" horiz-adv-x="1013" 
d="M483 971q-66 0 -110.5 -55.5t-44.5 -120.5q0 -41 6 -62l8 -24l-195 -29q-12 21 -12 80q0 66 33.5 120t86.5 85.5t112.5 48t117.5 16.5q91 0 159.5 -23t106.5 -61.5t56 -82.5t18 -93v-647l60 -66h84v-57l-353 -20l23 174h-4q-154 -181 -313 -181q-107 0 -175.5 69.5
t-68.5 190.5q0 131 96 219t277 117l180 29v207q0 166 -148 166zM631 215v317l-113 -22q-237 -59 -237 -236q0 -81 34 -128.5t99 -47.5q57 0 108.5 29t108.5 88zM420 1329q0 -54 -35.5 -89.5t-89.5 -35.5t-89.5 35.5t-35.5 89.5t35.5 89.5t89.5 35.5t89.5 -35.5t35.5 -89.5z
M846 1329q0 -54 -35.5 -89.5t-89.5 -35.5t-89.5 35.5t-35.5 89.5t35.5 89.5t89.5 35.5t89.5 -35.5t35.5 -89.5z" />
    <glyph glyph-name="aring" unicode="&#xe5;" horiz-adv-x="1013" 
d="M483 971q-66 0 -110.5 -55.5t-44.5 -120.5q0 -41 6 -62l8 -24l-195 -29q-12 21 -12 80q0 66 33.5 120t86.5 85.5t112.5 48t117.5 16.5q91 0 159.5 -23t106.5 -61.5t56 -82.5t18 -93v-647l60 -66h84v-57l-353 -20l23 174h-4q-154 -181 -313 -181q-107 0 -175.5 69.5
t-68.5 190.5q0 131 96 219t277 117l180 29v207q0 166 -148 166zM631 215v317l-113 -22q-237 -59 -237 -236q0 -81 34 -128.5t99 -47.5q57 0 108.5 29t108.5 88zM676 1313q0 -69 -48 -117.5t-120 -48.5q-69 0 -117.5 48.5t-48.5 117.5q0 71 48 119.5t118 48.5q72 0 120 -48
t48 -120zM610 1313q0 43 -29.5 72.5t-72.5 29.5q-41 0 -69.5 -29.5t-28.5 -72.5q0 -41 28.5 -70t69.5 -29q43 0 72.5 29t29.5 70z" />
    <glyph glyph-name="ae" unicode="&#xe6;" horiz-adv-x="1581" 
d="M1477 639l-25 -23l-625 17q-2 -6 -2 -27v-59q4 -184 93.5 -296t232.5 -112q116 0 187.5 51t138.5 177l49 -23q-20 -58 -42.5 -105.5t-60 -99t-82 -86.5t-109.5 -57.5t-142 -22.5q-129 0 -229 63t-156 179l-62 -72q-145 -170 -321 -170q-107 0 -175.5 69.5t-68.5 190.5
q0 131 96 219t277 117l180 29v207q0 166 -148 166q-66 0 -110.5 -55.5t-44.5 -120.5q0 -41 6 -62l8 -24l-195 -29q-12 21 -12 80q0 66 33.5 120t86.5 85.5t112.5 48t117.5 16.5q232 0 308 -141q128 141 311 141q88 0 158.5 -27.5t112.5 -70.5t68.5 -96t33.5 -103.5t0 -93.5z
M631 215v317l-113 -22q-237 -59 -237 -236q0 -81 34 -128.5t99 -47.5q57 0 108.5 29t108.5 88zM836 696h372l43 37q0 230 -192 230q-92 0 -151 -79t-72 -188z" />
    <glyph glyph-name="ccedilla" unicode="&#xe7;" horiz-adv-x="1017" 
d="M776 -254q0 -57 -37.5 -97t-93 -57.5t-121.5 -17.5q-81 0 -192 35q37 76 41 84q80 -33 133 -33q108 0 108 84q0 32 -26.5 52t-67.5 20q-27 0 -84 -11l-14 13l65 159q-184 20 -293.5 166t-109.5 340q0 110 34 208t97 174t161.5 120.5t219.5 44.5q73 0 146 -23.5t128.5 -77
t55.5 -124.5q0 -44 -6 -60l-207 -26q8 19 8 69q0 79 -44.5 127t-131.5 48q-116 0 -198.5 -103.5t-82.5 -284.5q0 -201 92.5 -314.5t251.5 -113.5q194 0 297 213l47 -20q-108 -351 -387 -365l-33 -94q25 6 64 6q78 0 129 -35t51 -106z" />
    <glyph glyph-name="egrave" unicode="&#xe8;" horiz-adv-x="1017" 
d="M913 639l-24 -23l-625 17q-2 -23 -2 -66q0 -192 89.5 -310t236.5 -118q116 0 186.5 51t138.5 177l50 -23q-14 -40 -29 -75t-37 -73.5t-47 -70t-59 -60.5t-72.5 -48.5t-88 -31.5t-104.5 -12q-195 0 -318.5 142t-123.5 374q0 146 59 270t164.5 197.5t233.5 73.5
q88 0 158.5 -27.5t112.5 -70.5t68 -96t33 -103.5t0 -93.5zM272 696h373l43 37q0 230 -192 230q-92 0 -151.5 -79t-72.5 -188zM829 1155l-540 154v172l540 -269v-57z" />
    <glyph glyph-name="eacute" unicode="&#xe9;" horiz-adv-x="1017" 
d="M913 639l-24 -23l-625 17q-2 -23 -2 -66q0 -192 89.5 -310t236.5 -118q116 0 186.5 51t138.5 177l50 -23q-14 -40 -29 -75t-37 -73.5t-47 -70t-59 -60.5t-72.5 -48.5t-88 -31.5t-104.5 -12q-195 0 -318.5 142t-123.5 374q0 146 59 270t164.5 197.5t233.5 73.5
q88 0 158.5 -27.5t112.5 -70.5t68 -96t33 -103.5t0 -93.5zM272 696h373l43 37q0 230 -192 230q-92 0 -151.5 -79t-72.5 -188zM829 1309l-540 -154v57l540 269v-172z" />
    <glyph glyph-name="ecircumflex" unicode="&#xea;" horiz-adv-x="1017" 
d="M913 639l-24 -23l-625 17q-2 -23 -2 -66q0 -192 89.5 -310t236.5 -118q116 0 186.5 51t138.5 177l50 -23q-14 -40 -29 -75t-37 -73.5t-47 -70t-59 -60.5t-72.5 -48.5t-88 -31.5t-104.5 -12q-195 0 -318.5 142t-123.5 374q0 146 59 270t164.5 197.5t233.5 73.5
q88 0 158.5 -27.5t112.5 -70.5t68 -96t33 -103.5t0 -93.5zM272 696h373l43 37q0 230 -192 230q-92 0 -151.5 -79t-72.5 -188zM887 1155l-328 154l-328 -154v57l328 269l328 -269v-57z" />
    <glyph glyph-name="edieresis" unicode="&#xeb;" horiz-adv-x="1017" 
d="M913 639l-24 -23l-625 17q-2 -23 -2 -66q0 -192 89.5 -310t236.5 -118q116 0 186.5 51t138.5 177l50 -23q-14 -40 -29 -75t-37 -73.5t-47 -70t-59 -60.5t-72.5 -48.5t-88 -31.5t-104.5 -12q-195 0 -318.5 142t-123.5 374q0 146 59 270t164.5 197.5t233.5 73.5
q88 0 158.5 -27.5t112.5 -70.5t68 -96t33 -103.5t0 -93.5zM272 696h373l43 37q0 230 -192 230q-92 0 -151.5 -79t-72.5 -188zM471 1329q0 -54 -35.5 -89.5t-89.5 -35.5t-89.5 35.5t-35.5 89.5t35.5 89.5t89.5 35.5t89.5 -35.5t35.5 -89.5zM897 1329q0 -54 -35.5 -89.5
t-89.5 -35.5t-89.5 35.5t-35.5 89.5t35.5 89.5t89.5 35.5t89.5 -35.5t35.5 -89.5z" />
    <glyph glyph-name="igrave" unicode="&#xec;" horiz-adv-x="622" 
d="M418 1024v-901l61 -66h121v-57h-545v57h111l57 66v758l-59 65h-111v58zM590 1155l-541 154v172l541 -269v-57z" />
    <glyph glyph-name="iacute" unicode="&#xed;" horiz-adv-x="622" 
d="M418 1024v-901l61 -66h121v-57h-545v57h111l57 66v758l-59 65h-111v58zM590 1309l-541 -154v57l541 269v-172z" />
    <glyph glyph-name="icircumflex" unicode="&#xee;" horiz-adv-x="622" 
d="M418 1024v-901l61 -66h121v-57h-545v57h111l57 66v758l-59 65h-111v58zM647 1155l-328 154l-327 -154v57l327 269l328 -269v-57z" />
    <glyph glyph-name="idieresis" unicode="&#xef;" horiz-adv-x="622" 
d="M418 1024v-901l61 -66h121v-57h-545v57h111l57 66v758l-59 65h-111v58zM231 1329q0 -54 -35.5 -89.5t-89.5 -35.5t-89 35.5t-35 89.5t35 89.5t89 35.5t89.5 -35.5t35.5 -89.5zM657 1329q0 -54 -35.5 -89.5t-89.5 -35.5t-89 35.5t-35 89.5t35 89.5t89 35.5t89.5 -35.5
t35.5 -89.5z" />
    <glyph glyph-name="eth" unicode="&#xf0;" horiz-adv-x="1153" 
d="M668 1106l-219 -53v82l165 41q-155 185 -338 247v58q248 -65 465 -275l240 60v-82l-178 -45q126 -146 195 -315t69 -324q0 -141 -62 -260.5t-178.5 -193t-263.5 -73.5q-126 0 -235 60.5t-174.5 169.5t-65.5 243q0 213 126 337t331 124q79 0 149 -22.5t109 -59.5h4
q-46 149 -139 281zM313 395q0 -354 244 -354q92 0 159 70.5t97.5 172t30.5 216.5q0 156 -65.5 248t-182.5 92q-71 0 -127.5 -40t-89 -106t-49.5 -142.5t-17 -156.5z" />
    <glyph glyph-name="ntilde" unicode="&#xf1;" horiz-adv-x="1218" 
d="M414 1024l-17 -199h4q92 114 178.5 159.5t153.5 45.5q140 0 216.5 -86.5t76.5 -232.5v-588l61 -66h103v-57h-526v57h110l57 66v559q0 109 -52 164t-130 55q-65 0 -119.5 -35t-115.5 -98v-645l57 -66h109v-57h-525v57h105l59 66v758l-59 65h-105v58zM743 1260
q-42 0 -81 25t-77 50t-77 25q-64 0 -158 -94l-43 39q55 83 106 129.5t113 46.5q44 0 88 -25.5t81.5 -50.5t66.5 -25q63 0 158 95l43 -39q-56 -83 -106.5 -129.5t-113.5 -46.5z" />
    <glyph glyph-name="ograve" unicode="&#xf2;" horiz-adv-x="1167" 
d="M1083 508q0 -228 -141 -381.5t-354 -153.5q-225 0 -364.5 151t-139.5 386q0 226 140.5 373t357.5 147q222 0 361.5 -144.5t139.5 -377.5zM870 440q0 63 -11.5 132.5t-36.5 139.5t-61 125.5t-89.5 90.5t-116.5 35q-67 0 -118.5 -34.5t-81.5 -92.5t-45 -126.5t-15 -142.5
q0 -81 20 -169.5t57 -170t100.5 -134t141.5 -52.5q66 0 117 35.5t80.5 94t44 127t14.5 142.5zM854 1155l-541 154v172l541 -269v-57z" />
    <glyph glyph-name="oacute" unicode="&#xf3;" horiz-adv-x="1167" 
d="M1083 508q0 -228 -141 -381.5t-354 -153.5q-225 0 -364.5 151t-139.5 386q0 226 140.5 373t357.5 147q222 0 361.5 -144.5t139.5 -377.5zM870 440q0 63 -11.5 132.5t-36.5 139.5t-61 125.5t-89.5 90.5t-116.5 35q-67 0 -118.5 -34.5t-81.5 -92.5t-45 -126.5t-15 -142.5
q0 -81 20 -169.5t57 -170t100.5 -134t141.5 -52.5q66 0 117 35.5t80.5 94t44 127t14.5 142.5zM854 1309l-541 -154v57l541 269v-172z" />
    <glyph glyph-name="ocircumflex" unicode="&#xf4;" horiz-adv-x="1167" 
d="M1083 508q0 -228 -141 -381.5t-354 -153.5q-225 0 -364.5 151t-139.5 386q0 226 140.5 373t357.5 147q222 0 361.5 -144.5t139.5 -377.5zM870 440q0 63 -11.5 132.5t-36.5 139.5t-61 125.5t-89.5 90.5t-116.5 35q-67 0 -118.5 -34.5t-81.5 -92.5t-45 -126.5t-15 -142.5
q0 -81 20 -169.5t57 -170t100.5 -134t141.5 -52.5q66 0 117 35.5t80.5 94t44 127t14.5 142.5zM911 1155l-327 154l-328 -154v57l328 269l327 -269v-57z" />
    <glyph glyph-name="otilde" unicode="&#xf5;" horiz-adv-x="1167" 
d="M1083 508q0 -228 -141 -381.5t-354 -153.5q-225 0 -364.5 151t-139.5 386q0 226 140.5 373t357.5 147q222 0 361.5 -144.5t139.5 -377.5zM870 440q0 63 -11.5 132.5t-36.5 139.5t-61 125.5t-89.5 90.5t-116.5 35q-67 0 -118.5 -34.5t-81.5 -92.5t-45 -126.5t-15 -142.5
q0 -81 20 -169.5t57 -170t100.5 -134t141.5 -52.5q66 0 117 35.5t80.5 94t44 127t14.5 142.5zM692 1260q-42 0 -81 25t-77 50t-77 25q-64 0 -158 -94l-43 39q55 83 106 129.5t113 46.5q44 0 88 -25.5t81.5 -50.5t66.5 -25q62 0 157 95l43 -39q-56 -84 -106 -130t-113 -46z
" />
    <glyph glyph-name="odieresis" unicode="&#xf6;" horiz-adv-x="1167" 
d="M1083 508q0 -228 -141 -381.5t-354 -153.5q-225 0 -364.5 151t-139.5 386q0 226 140.5 373t357.5 147q222 0 361.5 -144.5t139.5 -377.5zM870 440q0 63 -11.5 132.5t-36.5 139.5t-61 125.5t-89.5 90.5t-116.5 35q-67 0 -118.5 -34.5t-81.5 -92.5t-45 -126.5t-15 -142.5
q0 -81 20 -169.5t57 -170t100.5 -134t141.5 -52.5q66 0 117 35.5t80.5 94t44 127t14.5 142.5zM496 1329q0 -54 -35.5 -89.5t-89.5 -35.5t-89.5 35.5t-35.5 89.5t35.5 89.5t89.5 35.5t89.5 -35.5t35.5 -89.5zM922 1329q0 -54 -35.5 -89.5t-89.5 -35.5t-89.5 35.5t-35.5 89.5
t35.5 89.5t89.5 35.5t89.5 -35.5t35.5 -89.5z" />
    <glyph glyph-name="divide" unicode="&#xf7;" horiz-adv-x="1255" 
d="M1128 526h-1003v95h1003v-95zM764 891q0 -60 -39.5 -100.5t-99.5 -40.5t-100 40.5t-40 100.5q0 58 40.5 98.5t99.5 40.5t99 -40.5t40 -98.5zM766 258q0 -60 -39.5 -100.5t-99.5 -40.5t-100 40.5t-40 100.5q0 58 40.5 98.5t99.5 40.5t99 -40.5t40 -98.5z" />
    <glyph glyph-name="oslash" unicode="&#xf8;" horiz-adv-x="1167" 
d="M168 0l72 106q-74 73 -115 177t-41 227q0 226 140.5 373t357.5 147q145 0 252 -61l43 61h106l-76 -110q176 -143 176 -412q0 -228 -141 -381.5t-354 -153.5q-163 0 -279 78l-35 -51h-106zM870 440q0 171 -69 324l-404 -584q86 -139 217 -139q66 0 117 35.5t80.5 94
t44 127t14.5 142.5zM295 567q0 -157 57 -297l400 578q-83 115 -197 115q-67 0 -118.5 -34.5t-81.5 -92.5t-45 -126.5t-15 -142.5z" />
    <glyph glyph-name="ugrave" unicode="&#xf9;" horiz-adv-x="1185" 
d="M983 1024v-901l59 -66h119v-57l-373 -20l17 208h-4q-168 -215 -326 -215q-139 0 -213 86.5t-74 233.5v588l-59 65h-90v58l344 20v-702q0 -110 48.5 -165t125.5 -55q46 0 90.5 21.5t71.5 45t69 67.5v645l-59 65h-104v58zM877 1155l-541 154v172l541 -269v-57z" />
    <glyph glyph-name="uacute" unicode="&#xfa;" horiz-adv-x="1185" 
d="M983 1024v-901l59 -66h119v-57l-373 -20l17 208h-4q-168 -215 -326 -215q-139 0 -213 86.5t-74 233.5v588l-59 65h-90v58l344 20v-702q0 -110 48.5 -165t125.5 -55q46 0 90.5 21.5t71.5 45t69 67.5v645l-59 65h-104v58zM877 1309l-541 -154v57l541 269v-172z" />
    <glyph glyph-name="ucircumflex" unicode="&#xfb;" horiz-adv-x="1185" 
d="M983 1024v-901l59 -66h119v-57l-373 -20l17 208h-4q-168 -215 -326 -215q-139 0 -213 86.5t-74 233.5v588l-59 65h-90v58l344 20v-702q0 -110 48.5 -165t125.5 -55q46 0 90.5 21.5t71.5 45t69 67.5v645l-59 65h-104v58zM934 1155l-328 154l-327 -154v57l327 269l328 -269
v-57z" />
    <glyph glyph-name="udieresis" unicode="&#xfc;" horiz-adv-x="1185" 
d="M983 1024v-901l59 -66h119v-57l-373 -20l17 208h-4q-168 -215 -326 -215q-139 0 -213 86.5t-74 233.5v588l-59 65h-90v58l344 20v-702q0 -110 48.5 -165t125.5 -55q46 0 90.5 21.5t71.5 45t69 67.5v645l-59 65h-104v58zM518 1329q0 -54 -35.5 -89.5t-89.5 -35.5
t-89.5 35.5t-35.5 89.5t35.5 89.5t89.5 35.5t89.5 -35.5t35.5 -89.5zM944 1329q0 -54 -35.5 -89.5t-89.5 -35.5t-89.5 35.5t-35.5 89.5t35.5 89.5t89.5 35.5t89.5 -35.5t35.5 -89.5z" />
    <glyph glyph-name="yacute" unicode="&#xfd;" horiz-adv-x="1099" 
d="M344 -305q68 0 106.5 58t38.5 126q0 112 -61 246l-297 756l-92 86v37h467v-58h-103l-57 -65l270 -738h5l227 738l-57 65h-103v58h348v-37l-80 -86l-329 -908q-148 -399 -377 -399q-161 0 -246 111l172 118q38 -108 168 -108zM864 1309l-540 -154v57l540 269v-172z" />
    <glyph glyph-name="thorn" unicode="&#xfe;" horiz-adv-x="1150" 
d="M348 1475v-605q75 81 145.5 120.5t161.5 39.5q126 0 220.5 -66t142 -176.5t47.5 -248.5q0 -118 -33.5 -220.5t-95.5 -179.5t-157.5 -121.5t-213.5 -44.5q-103 0 -217 56v-305l62 -66h143v-57h-553v57h96l58 66v1607l-60 66h-108v57zM348 799v-582q52 -86 109.5 -132
t132.5 -46q71 0 125 38t84.5 101t45.5 135t15 150q0 114 -33.5 212.5t-104.5 164t-165 65.5q-45 0 -85.5 -17t-64 -35.5t-59.5 -53.5z" />
    <glyph glyph-name="ydieresis" unicode="&#xff;" horiz-adv-x="1099" 
d="M344 -305q68 0 106.5 58t38.5 126q0 112 -61 246l-297 756l-92 86v37h467v-58h-103l-57 -65l270 -738h5l227 738l-57 65h-103v58h348v-37l-80 -86l-329 -908q-148 -399 -377 -399q-161 0 -246 111l172 118q38 -108 168 -108zM506 1329q0 -54 -35.5 -89.5t-89.5 -35.5
t-89.5 35.5t-35.5 89.5t35.5 89.5t89.5 35.5t89.5 -35.5t35.5 -89.5zM932 1329q0 -54 -35.5 -89.5t-89.5 -35.5t-89.5 35.5t-35.5 89.5t35.5 89.5t89.5 35.5t89.5 -35.5t35.5 -89.5z" />
    <glyph glyph-name="Amacron" unicode="&#x100;" horiz-adv-x="1404" 
d="M1040 143l-127 330h-538l-109 -289l72 -127h168v-57h-463v37l115 147l440 1110l-45 123l143 119h21l563 -1393l111 -106v-37h-553v57h141zM643 1180l-237 -625h477zM946 1782h-450v82h450v-82z" />
    <glyph glyph-name="amacron" unicode="&#x101;" horiz-adv-x="1013" 
d="M483 971q-66 0 -110.5 -55.5t-44.5 -120.5q0 -41 6 -62l8 -24l-195 -29q-12 21 -12 80q0 66 33.5 120t86.5 85.5t112.5 48t117.5 16.5q91 0 159.5 -23t106.5 -61.5t56 -82.5t18 -93v-647l60 -66h84v-57l-353 -20l23 174h-4q-154 -181 -313 -181q-107 0 -175.5 69.5
t-68.5 190.5q0 131 96 219t277 117l180 29v207q0 166 -148 166zM631 215v317l-113 -22q-237 -59 -237 -236q0 -81 34 -128.5t99 -47.5q57 0 108.5 29t108.5 88zM733 1372h-450v82h450v-82z" />
    <glyph glyph-name="Abreve" unicode="&#x102;" horiz-adv-x="1404" 
d="M1040 143l-127 330h-538l-109 -289l72 -127h168v-57h-463v37l115 147l440 1110l-45 123l143 119h21l563 -1393l111 -106v-37h-553v57h141zM643 1180l-237 -625h477zM860 1866h90q0 -94 -67 -160t-164 -66q-93 0 -160 66.5t-67 159.5h92q0 -57 39 -95t96 -38q59 0 97.5 38
t43.5 95z" />
    <glyph glyph-name="abreve" unicode="&#x103;" horiz-adv-x="1013" 
d="M483 971q-66 0 -110.5 -55.5t-44.5 -120.5q0 -41 6 -62l8 -24l-195 -29q-12 21 -12 80q0 66 33.5 120t86.5 85.5t112.5 48t117.5 16.5q91 0 159.5 -23t106.5 -61.5t56 -82.5t18 -93v-647l60 -66h84v-57l-353 -20l23 174h-4q-154 -181 -313 -181q-107 0 -175.5 69.5
t-68.5 190.5q0 131 96 219t277 117l180 29v207q0 166 -148 166zM631 215v317l-113 -22q-237 -59 -237 -236q0 -81 34 -128.5t99 -47.5q57 0 108.5 29t108.5 88zM647 1456h90q0 -94 -67 -159.5t-164 -65.5q-93 0 -160 66t-67 159h92q0 -57 39 -95t96 -38q59 0 97.5 38
t43.5 95z" />
    <glyph glyph-name="Aogonek" unicode="&#x104;" horiz-adv-x="1404" 
d="M1040 143l-127 330h-538l-109 -289l72 -127h168v-57h-463v37l115 147l440 1110l-45 123l143 119h21l563 -1393l111 -106v-37h-144q-78 -126 -78 -205q0 -51 32.5 -81.5t76.5 -30.5q43 0 113 38v-102q-100 -45 -158 -45q-78 0 -132 43t-54 123q0 24 7 50t13.5 43t26.5 47
t26 38.5t34 43.5t30 38h-346v57h141zM643 1180l-237 -625h477z" />
    <glyph glyph-name="aogonek" unicode="&#x105;" horiz-adv-x="1013" 
d="M483 971q-66 0 -110.5 -55.5t-44.5 -120.5q0 -41 6 -62l8 -24l-195 -29q-12 21 -12 80q0 66 33.5 120t86.5 85.5t112.5 48t117.5 16.5q91 0 159.5 -23t106.5 -61.5t56 -82.5t18 -93v-647l60 -66h84v-57q-85 0 -153 -64.5t-68 -140.5q0 -51 32 -81.5t76 -30.5q43 0 113 38
v-102q-100 -45 -158 -45q-78 0 -132 43t-54 123q0 66 51 134.5t125 115.5l-185 -10l23 174h-4q-154 -181 -313 -181q-107 0 -175.5 69.5t-68.5 190.5q0 131 96 219t277 117l180 29v207q0 166 -148 166zM631 215v317l-113 -22q-237 -59 -237 -236q0 -81 34 -128.5t99 -47.5
q57 0 108.5 29t108.5 88z" />
    <glyph glyph-name="Cacute" unicode="&#x106;" horiz-adv-x="1458" 
d="M813 1481q232 0 412 -84l51 76h61v-443h-61l-16 33q-30 60 -57.5 103.5t-70 91.5t-89.5 78t-114.5 49.5t-146.5 19.5q-221 -4 -355 -176.5t-134 -450.5q0 -126 43.5 -240.5t118.5 -199.5t183.5 -135.5t231.5 -50.5q287 0 455 276l57 -20q-24 -54 -57 -108t-87 -116.5
t-116.5 -108.5t-149 -75.5t-179.5 -26.5q-157 0 -289 59.5t-219.5 161.5t-136 239t-48.5 292q0 156 51 294.5t142 240.5t226 161.5t294 59.5zM1087 1718l-540 -153v57l540 268v-172z" />
    <glyph glyph-name="cacute" unicode="&#x107;" horiz-adv-x="1017" 
d="M545 963q-116 0 -198.5 -103.5t-82.5 -284.5q0 -201 92.5 -314.5t251.5 -113.5q194 0 297 213l47 -20q-114 -367 -413 -367q-104 0 -191.5 42.5t-144 114t-88 163t-31.5 190.5q0 110 34 208t97 174t161.5 120.5t219.5 44.5q73 0 146 -23.5t128.5 -77t55.5 -124.5
q0 -44 -6 -60l-207 -26q8 19 8 69q0 79 -44.5 127t-131.5 48zM866 1309l-540 -154v57l540 269v-172z" />
    <glyph glyph-name="Ccircumflex" unicode="&#x108;" horiz-adv-x="1458" 
d="M813 1481q232 0 412 -84l51 76h61v-443h-61l-16 33q-30 60 -57.5 103.5t-70 91.5t-89.5 78t-114.5 49.5t-146.5 19.5q-221 -4 -355 -176.5t-134 -450.5q0 -126 43.5 -240.5t118.5 -199.5t183.5 -135.5t231.5 -50.5q287 0 455 276l57 -20q-24 -54 -57 -108t-87 -116.5
t-116.5 -108.5t-149 -75.5t-179.5 -26.5q-157 0 -289 59.5t-219.5 161.5t-136 239t-48.5 292q0 156 51 294.5t142 240.5t226 161.5t294 59.5zM1165 1565l-327 153l-328 -153v57l328 268l327 -268v-57z" />
    <glyph glyph-name="ccircumflex" unicode="&#x109;" horiz-adv-x="1017" 
d="M545 963q-116 0 -198.5 -103.5t-82.5 -284.5q0 -201 92.5 -314.5t251.5 -113.5q194 0 297 213l47 -20q-114 -367 -413 -367q-104 0 -191.5 42.5t-144 114t-88 163t-31.5 190.5q0 110 34 208t97 174t161.5 120.5t219.5 44.5q73 0 146 -23.5t128.5 -77t55.5 -124.5
q0 -44 -6 -60l-207 -26q8 19 8 69q0 79 -44.5 127t-131.5 48zM924 1155l-328 154l-328 -154v57l328 269l328 -269v-57z" />
    <glyph glyph-name="Cdotaccent" unicode="&#x10a;" horiz-adv-x="1458" 
d="M813 1481q232 0 412 -84l51 76h61v-443h-61l-16 33q-30 60 -57.5 103.5t-70 91.5t-89.5 78t-114.5 49.5t-146.5 19.5q-221 -4 -355 -176.5t-134 -450.5q0 -126 43.5 -240.5t118.5 -199.5t183.5 -135.5t231.5 -50.5q287 0 455 276l57 -20q-24 -54 -57 -108t-87 -116.5
t-116.5 -108.5t-149 -75.5t-179.5 -26.5q-157 0 -289 59.5t-219.5 161.5t-136 239t-48.5 292q0 156 51 294.5t142 240.5t226 161.5t294 59.5zM942 1739q0 -54 -35.5 -89.5t-89.5 -35.5t-89.5 35.5t-35.5 89.5t35.5 89.5t89.5 35.5t89.5 -35.5t35.5 -89.5z" />
    <glyph glyph-name="cdotaccent" unicode="&#x10b;" horiz-adv-x="1017" 
d="M545 963q-116 0 -198.5 -103.5t-82.5 -284.5q0 -201 92.5 -314.5t251.5 -113.5q194 0 297 213l47 -20q-114 -367 -413 -367q-104 0 -191.5 42.5t-144 114t-88 163t-31.5 190.5q0 110 34 208t97 174t161.5 120.5t219.5 44.5q73 0 146 -23.5t128.5 -77t55.5 -124.5
q0 -44 -6 -60l-207 -26q8 19 8 69q0 79 -44.5 127t-131.5 48zM721 1329q0 -54 -35.5 -89.5t-89.5 -35.5t-89.5 35.5t-35.5 89.5t35.5 89.5t89.5 35.5t89.5 -35.5t35.5 -89.5z" />
    <glyph glyph-name="Ccaron" unicode="&#x10c;" horiz-adv-x="1458" 
d="M813 1481q232 0 412 -84l51 76h61v-443h-61l-16 33q-30 60 -57.5 103.5t-70 91.5t-89.5 78t-114.5 49.5t-146.5 19.5q-221 -4 -355 -176.5t-134 -450.5q0 -126 43.5 -240.5t118.5 -199.5t183.5 -135.5t231.5 -50.5q287 0 455 276l57 -20q-24 -54 -57 -108t-87 -116.5
t-116.5 -108.5t-149 -75.5t-179.5 -26.5q-157 0 -289 59.5t-219.5 161.5t-136 239t-48.5 292q0 156 51 294.5t142 240.5t226 161.5t294 59.5zM817 1737l328 153v-57l-328 -268l-328 268v57z" />
    <glyph glyph-name="ccaron" unicode="&#x10d;" horiz-adv-x="1017" 
d="M545 963q-116 0 -198.5 -103.5t-82.5 -284.5q0 -201 92.5 -314.5t251.5 -113.5q194 0 297 213l47 -20q-114 -367 -413 -367q-104 0 -191.5 42.5t-144 114t-88 163t-31.5 190.5q0 110 34 208t97 174t161.5 120.5t219.5 44.5q73 0 146 -23.5t128.5 -77t55.5 -124.5
q0 -44 -6 -60l-207 -26q8 19 8 69q0 79 -44.5 127t-131.5 48zM596 1327l328 154v-58l-328 -268l-328 268v58z" />
    <glyph glyph-name="Dcaron" unicode="&#x10e;" horiz-adv-x="1525" 
d="M690 0h-629v57h166l80 86v1168l-80 86h-166v57h633q186 0 326.5 -51t228 -146t131 -223.5t43.5 -290.5q0 -206 -103 -378.5t-271 -268.5t-359 -96zM518 1339v-1189q25 -14 60 -23q64 -23 143 -23q251 0 356 140.5t105 427.5q0 118 -18 221t-57 191.5t-96.5 152t-141 99.5
t-185.5 36q-57 0 -119 -16q-33 -11 -47 -17zM762 1737l328 153v-57l-328 -268l-328 268v57z" />
    <glyph glyph-name="dcaron" unicode="&#x10f;" horiz-adv-x="1200" 
d="M1368 1454l-209 -450l-53 18l106 459zM803 205v581q-25 73 -95 126t-147 53q-71 0 -125 -38t-84.5 -101t-45.5 -135t-15 -150q0 -114 33.5 -213t104.5 -164.5t165 -65.5q46 0 87 17.5t62.5 35.5t59.5 54zM997 1475v-1352l60 -66h123v-57l-377 -20l22 174h-4
q-81 -93 -154.5 -137t-170.5 -44q-126 0 -220.5 66t-142 177t-47.5 249q0 118 33.5 220.5t95.5 179.5t157.5 121t213.5 44q101 0 213 -55h4v356l-60 66h-145v57z" />
    <glyph glyph-name="Dcroat" unicode="&#x110;" horiz-adv-x="1531" 
d="M696 0h-628v57h165l80 86v600h-247v82h247v486l-80 86h-165v57h632q186 0 327 -51t228.5 -146t131 -223.5t43.5 -290.5q0 -155 -61 -294.5t-161.5 -237t-234.5 -154.5t-277 -57zM524 1339v-514h299v-82h-299v-593q25 -14 60 -23q64 -23 143 -23q251 0 356 140.5
t105 427.5q0 118 -18 221t-57 191.5t-96.5 152t-141 99.5t-185.5 36q-57 0 -119 -16q-33 -11 -47 -17z" />
    <glyph glyph-name="dcroat" unicode="&#x111;" horiz-adv-x="1200" 
d="M997 1475v-240h183v-72h-183v-1040l60 -66h123v-57l-377 -20l22 174h-4q-81 -93 -154.5 -137t-170.5 -44q-126 0 -220.5 66t-142 177t-47.5 249q0 118 33.5 220.5t95.5 179.5t157.5 121t213.5 44q101 0 213 -55h4v188h-238v72h238v96l-60 66h-145v57zM803 205v581
q-25 73 -95 126t-147 53q-71 0 -125 -38t-84.5 -101t-45.5 -135t-15 -150q0 -114 33.5 -213t104.5 -164.5t165 -65.5q46 0 87 17.5t62.5 35.5t59.5 54z" />
    <glyph glyph-name="Emacron" unicode="&#x112;" horiz-adv-x="1341" 
d="M1004 1372h-486v-559h303l127 246h37v-574h-37l-127 246h-303v-649h502l219 287h37l-72 -369h-1143v57h166l80 86v1168l-80 86h-166v57h1127v-348h-37zM954 1782h-450v82h450v-82z" />
    <glyph glyph-name="emacron" unicode="&#x113;" horiz-adv-x="1017" 
d="M913 639l-24 -23l-625 17q-2 -23 -2 -66q0 -192 89.5 -310t236.5 -118q116 0 186.5 51t138.5 177l50 -23q-14 -40 -29 -75t-37 -73.5t-47 -70t-59 -60.5t-72.5 -48.5t-88 -31.5t-104.5 -12q-195 0 -318.5 142t-123.5 374q0 146 59 270t164.5 197.5t233.5 73.5
q88 0 158.5 -27.5t112.5 -70.5t68 -96t33 -103.5t0 -93.5zM272 696h373l43 37q0 230 -192 230q-92 0 -151.5 -79t-72.5 -188zM784 1372h-450v82h450v-82z" />
    <glyph glyph-name="Ebreve" unicode="&#x114;" horiz-adv-x="1341" 
d="M1004 1372h-486v-559h303l127 246h37v-574h-37l-127 246h-303v-649h502l219 287h37l-72 -369h-1143v57h166l80 86v1168l-80 86h-166v57h1127v-348h-37zM868 1866h90q0 -94 -67 -160t-164 -66q-93 0 -160 66.5t-67 159.5h92q0 -57 39 -95t96 -38q59 0 97.5 38t43.5 95z
" />
    <glyph glyph-name="ebreve" unicode="&#x115;" horiz-adv-x="1017" 
d="M913 639l-24 -23l-625 17q-2 -23 -2 -66q0 -192 89.5 -310t236.5 -118q116 0 186.5 51t138.5 177l50 -23q-14 -40 -29 -75t-37 -73.5t-47 -70t-59 -60.5t-72.5 -48.5t-88 -31.5t-104.5 -12q-195 0 -318.5 142t-123.5 374q0 146 59 270t164.5 197.5t233.5 73.5
q88 0 158.5 -27.5t112.5 -70.5t68 -96t33 -103.5t0 -93.5zM272 696h373l43 37q0 230 -192 230q-92 0 -151.5 -79t-72.5 -188zM719 1456h90q0 -94 -67 -159.5t-164 -65.5q-93 0 -160.5 66t-67.5 159h92q0 -57 39.5 -95t96.5 -38q59 0 97.5 38t43.5 95z" />
    <glyph glyph-name="Edotaccent" unicode="&#x116;" horiz-adv-x="1341" 
d="M1004 1372h-486v-559h303l127 246h37v-574h-37l-127 246h-303v-649h502l219 287h37l-72 -369h-1143v57h166l80 86v1168l-80 86h-166v57h1127v-348h-37zM854 1739q0 -54 -35.5 -89.5t-89.5 -35.5t-89.5 35.5t-35.5 89.5t35.5 89.5t89.5 35.5t89.5 -35.5t35.5 -89.5z" />
    <glyph glyph-name="edotaccent" unicode="&#x117;" horiz-adv-x="1017" 
d="M913 639l-24 -23l-625 17q-2 -23 -2 -66q0 -192 89.5 -310t236.5 -118q116 0 186.5 51t138.5 177l50 -23q-14 -40 -29 -75t-37 -73.5t-47 -70t-59 -60.5t-72.5 -48.5t-88 -31.5t-104.5 -12q-195 0 -318.5 142t-123.5 374q0 146 59 270t164.5 197.5t233.5 73.5
q88 0 158.5 -27.5t112.5 -70.5t68 -96t33 -103.5t0 -93.5zM272 696h373l43 37q0 230 -192 230q-92 0 -151.5 -79t-72.5 -188zM684 1329q0 -54 -35.5 -89.5t-89.5 -35.5t-89.5 35.5t-35.5 89.5t35.5 89.5t89.5 35.5t89.5 -35.5t35.5 -89.5z" />
    <glyph glyph-name="Eogonek" unicode="&#x118;" horiz-adv-x="1341" 
d="M1004 1372h-486v-559h303l127 246h37v-574h-37l-127 246h-303v-649h418l303 287h57l-131 -297q-2 -6 -13 -32t-17 -41t-16.5 -42t-17 -46t-13 -42t-10 -41.5t-3.5 -32.5q0 -51 32.5 -81.5t76.5 -30.5q42 0 112 38v-102q-100 -45 -157 -45q-78 0 -132.5 43t-54.5 123
q0 123 117 260h-1008v57h166l80 86v1168l-80 86h-166v57h1127v-348h-37z" />
    <glyph glyph-name="eogonek" unicode="&#x119;" horiz-adv-x="1017" 
d="M709 -10l-9 16q-67 -33 -161 -33q-203 0 -329 142t-126 374q0 146 59 270t164.5 197.5t233.5 73.5q88 0 158.5 -27.5t112.5 -70.5t68 -96t33 -103.5t0 -93.5l-24 -23l-625 17q-20 -220 74.5 -357t263.5 -137q111 0 180.5 52t130.5 176l50 -23l-19 -51q-34 -80 -67 -135
q-5 -9 -49.5 -78t-64 -103t-41.5 -89t-22 -93q0 -51 32.5 -81.5t76.5 -30.5q43 0 113 38v-102q-100 -45 -158 -45q-78 0 -132 43t-54 123q0 62 35.5 121.5t95.5 128.5zM272 696h373l43 37q0 230 -192 230q-92 0 -151.5 -79t-72.5 -188z" />
    <glyph glyph-name="Ecaron" unicode="&#x11a;" horiz-adv-x="1341" 
d="M1004 1372h-486v-559h303l127 246h37v-574h-37l-127 246h-303v-649h502l219 287h37l-72 -369h-1143v57h166l80 86v1168l-80 86h-166v57h1127v-348h-37zM729 1737l328 153v-57l-328 -268l-328 268v57z" />
    <glyph glyph-name="ecaron" unicode="&#x11b;" horiz-adv-x="1017" 
d="M913 639l-24 -23l-625 17q-2 -23 -2 -66q0 -192 89.5 -310t236.5 -118q116 0 186.5 51t138.5 177l50 -23q-14 -40 -29 -75t-37 -73.5t-47 -70t-59 -60.5t-72.5 -48.5t-88 -31.5t-104.5 -12q-195 0 -318.5 142t-123.5 374q0 146 59 270t164.5 197.5t233.5 73.5
q88 0 158.5 -27.5t112.5 -70.5t68 -96t33 -103.5t0 -93.5zM272 696h373l43 37q0 230 -192 230q-92 0 -151.5 -79t-72.5 -188zM559 1327l328 154v-58l-328 -268l-328 268v58z" />
    <glyph glyph-name="Gcircumflex" unicode="&#x11c;" horiz-adv-x="1519" 
d="M813 1481q232 0 412 -84l51 76h61v-443h-61l-16 33q-30 60 -57.5 103.5t-70 91.5t-89.5 78t-114.5 49.5t-146.5 19.5q-221 -4 -355 -176.5t-134 -450.5q0 -126 43.5 -240.5t118.5 -199.5t183.5 -135.5t231.5 -50.5q171 0 299 96v309l-82 70h-172v53h474v-698h-62
l-121 165q-182 -182 -413 -174q-157 0 -289 59.5t-219.5 161.5t-136 239t-48.5 292q0 156 51 294.5t142 240.5t226 161.5t294 59.5zM1139 1565l-328 153l-328 -153v57l328 268l328 -268v-57z" />
    <glyph glyph-name="gcircumflex" unicode="&#x11d;" horiz-adv-x="1087" 
d="M1067 948l-205 -86q25 -34 39 -92.5t14 -116.5q0 -151 -120 -245.5t-285 -94.5q-16 0 -44.5 1.5t-70 8.5t-59.5 17q-30 -37 -43.5 -55t-26 -44.5t-12.5 -50.5q0 -31 18.5 -47.5t38 -20t47.5 -3.5q17 0 45 4l289 45q44 8 80 12q10 2 29 2q63 0 106.5 -34.5t61.5 -83.5
t18 -107q0 -78 -38 -144t-98.5 -109t-138.5 -73t-156 -43.5t-153 -13.5q-151 0 -232 37t-81 110q0 48 34 87t128 114q-54 14 -97.5 60t-43.5 112q0 83 65 154l109 119q-72 46 -123 121.5t-51 168.5q0 161 120.5 267t290.5 106q184 0 271 -76v50h274v-56zM721 586
q0 41 -7.5 88t-25.5 99t-44.5 94t-67.5 69t-91 27q-170 0 -170 -240q0 -56 14 -114t41 -110.5t74.5 -86t106.5 -33.5q170 0 170 207zM883 -96q0 90 -90 90q-3 0 -19.5 -3t-47 -8.5t-58.5 -9.5l-357 -51q-61 -61 -61 -137q0 -60 75 -91.5t187 -31.5q96 0 179.5 27.5t137.5 84
t54 130.5zM881 1155l-328 154l-328 -154v57l328 269l328 -269v-57z" />
    <glyph glyph-name="Gbreve" unicode="&#x11e;" horiz-adv-x="1519" 
d="M813 1481q232 0 412 -84l51 76h61v-443h-61l-16 33q-30 60 -57.5 103.5t-70 91.5t-89.5 78t-114.5 49.5t-146.5 19.5q-221 -4 -355 -176.5t-134 -450.5q0 -126 43.5 -240.5t118.5 -199.5t183.5 -135.5t231.5 -50.5q171 0 299 96v309l-82 70h-172v53h474v-698h-62
l-121 165q-182 -182 -413 -174q-157 0 -289 59.5t-219.5 161.5t-136 239t-48.5 292q0 156 51 294.5t142 240.5t226 161.5t294 59.5zM950 1866h90q0 -94 -67 -160t-164 -66q-93 0 -160 66.5t-67 159.5h92q0 -57 39 -95t96 -38q59 0 97.5 38t43.5 95z" />
    <glyph glyph-name="gbreve" unicode="&#x11f;" horiz-adv-x="1087" 
d="M1067 948l-205 -86q25 -34 39 -92.5t14 -116.5q0 -151 -120 -245.5t-285 -94.5q-16 0 -44.5 1.5t-70 8.5t-59.5 17q-30 -37 -43.5 -55t-26 -44.5t-12.5 -50.5q0 -31 18.5 -47.5t38 -20t47.5 -3.5q17 0 45 4l289 45q44 8 80 12q10 2 29 2q63 0 106.5 -34.5t61.5 -83.5
t18 -107q0 -78 -38 -144t-98.5 -109t-138.5 -73t-156 -43.5t-153 -13.5q-151 0 -232 37t-81 110q0 48 34 87t128 114q-54 14 -97.5 60t-43.5 112q0 83 65 154l109 119q-72 46 -123 121.5t-51 168.5q0 161 120.5 267t290.5 106q184 0 271 -76v50h274v-56zM721 586
q0 41 -7.5 88t-25.5 99t-44.5 94t-67.5 69t-91 27q-170 0 -170 -240q0 -56 14 -114t41 -110.5t74.5 -86t106.5 -33.5q170 0 170 207zM883 -96q0 90 -90 90q-3 0 -19.5 -3t-47 -8.5t-58.5 -9.5l-357 -51q-61 -61 -61 -137q0 -60 75 -91.5t187 -31.5q96 0 179.5 27.5t137.5 84
t54 130.5zM692 1456h90q0 -94 -67 -159.5t-164 -65.5q-93 0 -160 66t-67 159h92q0 -57 39 -95t96 -38q59 0 97.5 38t43.5 95z" />
    <glyph glyph-name="Gdotaccent" unicode="&#x120;" horiz-adv-x="1519" 
d="M813 1481q232 0 412 -84l51 76h61v-443h-61l-16 33q-30 60 -57.5 103.5t-70 91.5t-89.5 78t-114.5 49.5t-146.5 19.5q-221 -4 -355 -176.5t-134 -450.5q0 -126 43.5 -240.5t118.5 -199.5t183.5 -135.5t231.5 -50.5q171 0 299 96v309l-82 70h-172v53h474v-698h-62
l-121 165q-182 -182 -413 -174q-157 0 -289 59.5t-219.5 161.5t-136 239t-48.5 292q0 156 51 294.5t142 240.5t226 161.5t294 59.5zM936 1739q0 -54 -35.5 -89.5t-89.5 -35.5t-89.5 35.5t-35.5 89.5t35.5 89.5t89.5 35.5t89.5 -35.5t35.5 -89.5z" />
    <glyph glyph-name="gdotaccent" unicode="&#x121;" horiz-adv-x="1087" 
d="M1067 948l-205 -86q25 -34 39 -92.5t14 -116.5q0 -151 -120 -245.5t-285 -94.5q-16 0 -44.5 1.5t-70 8.5t-59.5 17q-30 -37 -43.5 -55t-26 -44.5t-12.5 -50.5q0 -31 18.5 -47.5t38 -20t47.5 -3.5q17 0 45 4l289 45q44 8 80 12q10 2 29 2q63 0 106.5 -34.5t61.5 -83.5
t18 -107q0 -78 -38 -144t-98.5 -109t-138.5 -73t-156 -43.5t-153 -13.5q-151 0 -232 37t-81 110q0 48 34 87t128 114q-54 14 -97.5 60t-43.5 112q0 83 65 154l109 119q-72 46 -123 121.5t-51 168.5q0 161 120.5 267t290.5 106q184 0 271 -76v50h274v-56zM721 586
q0 41 -7.5 88t-25.5 99t-44.5 94t-67.5 69t-91 27q-170 0 -170 -240q0 -56 14 -114t41 -110.5t74.5 -86t106.5 -33.5q170 0 170 207zM883 -96q0 90 -90 90q-3 0 -19.5 -3t-47 -8.5t-58.5 -9.5l-357 -51q-61 -61 -61 -137q0 -60 75 -91.5t187 -31.5q96 0 179.5 27.5t137.5 84
t54 130.5zM678 1329q0 -54 -35.5 -89.5t-89.5 -35.5t-89.5 35.5t-35.5 89.5t35.5 89.5t89.5 35.5t89.5 -35.5t35.5 -89.5z" />
    <glyph glyph-name="Gcommaaccent" unicode="&#x122;" horiz-adv-x="1519" 
d="M813 1481q232 0 412 -84l51 76h61v-443h-61l-16 33q-30 60 -57.5 103.5t-70 91.5t-89.5 78t-114.5 49.5t-146.5 19.5q-221 -4 -355 -176.5t-134 -450.5q0 -126 43.5 -240.5t118.5 -199.5t183.5 -135.5t231.5 -50.5q171 0 299 96v309l-82 70h-172v53h474v-698h-62
l-121 165q-182 -182 -413 -174q-157 0 -289 59.5t-219.5 161.5t-136 239t-48.5 292q0 156 51 294.5t142 240.5t226 161.5t294 59.5zM739 -426l-16 43q67 39 90 78q-117 3 -117 106q0 50 28.5 77.5t82.5 27.5q53 0 83 -30t30 -81q0 -68 -54.5 -128t-126.5 -93z" />
    <glyph glyph-name="gcommaaccent" unicode="&#x123;" horiz-adv-x="1087" 
d="M575 1481l17 -43q-67 -39 -90 -78q116 -3 116 -107q0 -50 -28 -77t-82 -27t-83.5 29.5t-29.5 81.5q0 68 54 128t126 93zM1067 948l-205 -86q25 -34 39 -92.5t14 -116.5q0 -151 -120 -245.5t-285 -94.5q-16 0 -44.5 1.5t-70 8.5t-59.5 17q-30 -37 -43.5 -55t-26 -44.5
t-12.5 -50.5q0 -31 18.5 -47.5t38 -20t47.5 -3.5q17 0 45 4l289 45q44 8 80 12q10 2 29 2q63 0 106.5 -34.5t61.5 -83.5t18 -107q0 -78 -38 -144t-98.5 -109t-138.5 -73t-156 -43.5t-153 -13.5q-151 0 -232 37t-81 110q0 48 34 87t128 114q-54 14 -97.5 60t-43.5 112
q0 83 65 154l109 119q-72 46 -123 121.5t-51 168.5q0 161 120.5 267t290.5 106q184 0 271 -76v50h274v-56zM721 586q0 41 -7.5 88t-25.5 99t-44.5 94t-67.5 69t-91 27q-170 0 -170 -240q0 -56 14 -114t41 -110.5t74.5 -86t106.5 -33.5q170 0 170 207zM883 -96q0 90 -90 90
q-3 0 -19.5 -3t-47 -8.5t-58.5 -9.5l-357 -51q-61 -61 -61 -137q0 -60 75 -91.5t187 -31.5q96 0 179.5 27.5t137.5 84t54 130.5z" />
    <glyph glyph-name="Hcircumflex" unicode="&#x124;" horiz-adv-x="1660" 
d="M1354 1311v-1168l78 -86h167v-57h-708v57h172l80 86v600h-625v-600l78 -86h174v-57h-709v57h166l80 86v1168l-80 86h-166v57h709v-57h-174l-78 -86v-486h625v486l-80 86h-172v57h708v-57h-167zM1157 1565l-328 153l-327 -153v57l327 268l328 -268v-57z" />
    <glyph glyph-name="hcircumflex" unicode="&#x125;" horiz-adv-x="1200" 
d="M395 1475v-635h4q84 106 166 148t150 42q140 0 216.5 -86.5t76.5 -232.5v-588l61 -66h102v-57h-526v57h111l57 66v559q0 107 -52.5 163t-127.5 56q-66 0 -121.5 -35t-116.5 -98v-645l58 -66h108v-57h-524v57h104l60 66v1208l-60 66h-104v57zM924 1565l-328 153l-328 -153
v57l328 268l328 -268v-57z" />
    <glyph glyph-name="Hbar" unicode="&#x126;" horiz-adv-x="1722" 
d="M1384 1040v-897l78 -86h168v-57h-708v57h172l80 86v600h-625v-600l78 -86h174v-57h-709v57h166l80 86v897h-244v74h244v197l-80 86h-166v57h709v-57h-174l-78 -86v-197h625v197l-80 86h-172v57h708v-57h-168l-78 -86v-197h246v-74h-246zM549 825h625v215h-625v-215z" />
    <glyph glyph-name="hbar" unicode="&#x127;" horiz-adv-x="1200" 
d="M395 1153v-313h4q84 106 166 148t150 42q140 0 216.5 -86.5t76.5 -232.5v-588l61 -66h102v-57h-526v57h111l57 66v559q0 107 -52.5 163t-127.5 56q-66 0 -121.5 -35t-116.5 -98v-645l58 -66h108v-57h-524v57h104l60 66v1030h-152v61h152v117l-60 66h-104v57l358 21v-261
h172v-61h-172z" />
    <glyph glyph-name="Itilde" unicode="&#x128;" horiz-adv-x="835" 
d="M528 1311v-1168l78 -86h168v-57h-713v57h166l80 86v1168l-80 86h-166v57h713v-57h-168zM526 1669q-42 0 -81 25t-77 50t-77 25q-64 0 -158 -94l-43 39q55 83 106 129.5t113 46.5q35 0 70.5 -15.5t59.5 -34.5t53 -34.5t53 -15.5q63 0 157 94l43 -39q-56 -84 -106 -130
t-113 -46z" />
    <glyph glyph-name="itilde" unicode="&#x129;" horiz-adv-x="622" 
d="M418 1024v-901l61 -66h121v-57h-545v57h111l57 66v758l-59 65h-111v58zM428 1260q-42 0 -81 25t-77 50t-77 25q-64 0 -158 -94l-43 39q55 83 106 129.5t113 46.5q35 0 70.5 -16t59.5 -34.5t52.5 -34.5t52.5 -16q63 0 158 95l43 -39q-56 -84 -106 -130t-113 -46z" />
    <glyph glyph-name="Imacron" unicode="&#x12a;" horiz-adv-x="835" 
d="M528 1311v-1168l78 -86h168v-57h-713v57h166l80 86v1168l-80 86h-166v57h713v-57h-168zM643 1782h-450v82h450v-82z" />
    <glyph glyph-name="imacron" unicode="&#x12b;" horiz-adv-x="622" 
d="M418 1024v-901l61 -66h121v-57h-545v57h111l57 66v758l-59 65h-111v58zM545 1372h-451v82h451v-82z" />
    <glyph glyph-name="Ibreve" unicode="&#x12c;" horiz-adv-x="835" 
d="M528 1311v-1168l78 -86h168v-57h-713v57h166l80 86v1168l-80 86h-166v57h713v-57h-168zM557 1866h90q0 -94 -67 -160t-164 -66q-93 0 -160.5 66.5t-67.5 159.5h93q0 -57 39 -95t96 -38q59 0 97.5 38t43.5 95z" />
    <glyph glyph-name="ibreve" unicode="&#x12d;" horiz-adv-x="622" 
d="M418 1024v-901l61 -66h121v-57h-545v57h111l57 66v758l-59 65h-111v58zM459 1456h90q0 -94 -67.5 -159.5t-164.5 -65.5q-93 0 -160 66t-67 159h92q0 -57 39 -95t96 -38q59 0 98 38t44 95z" />
    <glyph glyph-name="Iogonek" unicode="&#x12e;" horiz-adv-x="835" 
d="M528 1311v-1168l78 -86h168v-57h-307q-78 -126 -78 -205q0 -51 32.5 -81.5t76.5 -30.5q42 0 112 38v-102q-100 -45 -157 -45q-78 0 -132.5 43t-54.5 123q0 24 7 50t13.5 43t26.5 47t26 38.5t34 43.5t30 38h-342v57h166l80 86v1168l-80 86h-166v57h713v-57h-168z" />
    <glyph glyph-name="iogonek" unicode="&#x12f;" horiz-adv-x="622" 
d="M418 1024v-901l61 -66h121v-57h-231q-78 -126 -78 -205q0 -51 32 -81.5t76 -30.5q43 0 113 38v-102q-100 -45 -158 -45q-78 0 -132 43t-54 123q0 24 7 50t13.5 43t26.5 47t26 38.5t34 43.5t30 38h-250v57h111l57 66v758l-59 65h-111v58zM446 1329q0 -54 -35 -89.5
t-89 -35.5t-89.5 35.5t-35.5 89.5t35.5 89.5t89.5 35.5t89 -35.5t35 -89.5z" />
    <glyph glyph-name="Idotaccent" unicode="&#x130;" horiz-adv-x="835" 
d="M528 1311v-1168l78 -86h168v-57h-713v57h166l80 86v1168l-80 86h-166v57h713v-57h-168zM543 1739q0 -54 -35.5 -89.5t-89.5 -35.5t-89.5 35.5t-35.5 89.5t35.5 89.5t89.5 35.5t89.5 -35.5t35.5 -89.5z" />
    <glyph glyph-name="dotlessi" unicode="&#x131;" horiz-adv-x="622" 
d="M418 1024v-901l61 -66h121v-57h-545v57h111l57 66v758l-59 65h-111v58z" />
    <glyph glyph-name="IJ" unicode="&#x132;" horiz-adv-x="1761" 
d="M528 1311v-1168l78 -86h168v-57h-713v57h166l80 86v1168l-80 86h-166v57h713v-57h-168zM1290 270v1041l-84 86h-215v57h715v-57h-125l-80 -86v-940q0 -179 -95 -288.5t-267 -109.5q-60 0 -122 19.5t-110 57.5t-59 85l199 64q38 -152 139 -152q62 0 83 52.5t21 170.5z" />
    <glyph glyph-name="ij" unicode="&#x133;" horiz-adv-x="1183" 
d="M418 1024v-901l61 -66h121v-57h-545v57h111l57 66v758l-59 65h-111v58zM446 1329q0 -54 -35 -89.5t-89 -35.5t-89.5 35.5t-35.5 89.5t35.5 89.5t89.5 35.5t89 -35.5t35 -89.5zM827 881l-59 65h-135v58l389 20v-1053q0 -109 -37 -197t-117 -144t-192 -56q-103 0 -167.5 35
t-84.5 80l154 100q13 -50 60 -100.5t93 -50.5q49 0 72.5 43.5t23.5 148.5v1051zM1032 1329q0 -54 -35.5 -89.5t-89.5 -35.5t-89.5 35.5t-35.5 89.5t35.5 89.5t89.5 35.5t89.5 -35.5t35.5 -89.5z" />
    <glyph glyph-name="Jcircumflex" unicode="&#x134;" horiz-adv-x="925" 
d="M455 270v1041l-84 86h-215v57h714v-57h-125l-79 -86v-940q0 -178 -95 -288t-268 -110q-60 0 -122 19.5t-110 57.5t-59 85l199 64q38 -152 139 -152q62 0 83.5 52.5t21.5 170.5zM881 1565l-328 153l-328 -153v57l328 268l328 -268v-57z" />
    <glyph glyph-name="jcircumflex" unicode="&#x135;" horiz-adv-x="561" 
d="M205 881l-60 65h-135v58l389 20v-1053q0 -109 -37 -197t-117 -144t-192 -56q-103 0 -167.5 35t-84.5 80l154 100q13 -49 60.5 -100t93.5 -51q49 0 72.5 43.5t23.5 148.5v1051zM618 1155l-327 154l-328 -154v57l328 269l327 -269v-57z" />
    <glyph glyph-name="Kcommaaccent" unicode="&#x136;" horiz-adv-x="1443" 
d="M762 -426l-17 43q68 40 91 78q-117 3 -117 106q0 50 28.5 77.5t81.5 27.5t83 -30t30 -81q0 -68 -54 -128t-126 -93zM1325 143l162 -106v-37h-572v57h119v86l-512 590h-4v-588l80 -88h145v-57h-682v57h162l84 88v1162l-84 90h-162v57h684v-57h-147l-80 -90v-539h4l520 543
v86h-153v57h467v-37l-185 -106l-466 -459z" />
    <glyph glyph-name="kcommaaccent" unicode="&#x137;" horiz-adv-x="1091" 
d="M522 -426l-16 43q67 39 90 78q-117 3 -117 106q0 50 28.5 77.5t82.5 27.5q53 0 82.5 -29.5t29.5 -81.5q0 -68 -54 -128t-126 -93zM391 506v-383l62 -66h94v-57h-510v57h104l60 66v1208l-60 66h-104v57l358 21v-943h4l328 349v65h-123v58h385v-37l-131 -86l-311 -283
l424 -475l139 -86v-37h-479v57h102v66l-338 383h-4z" />
    <glyph glyph-name="kgreenlandic" unicode="&#x138;" horiz-adv-x="1110" 
d="M410 506v-383l61 -66h94v-57h-510v57h105l59 66v758l-59 65h-105v58l359 20v-492h4l327 349v65h-122v58h385v-37l-131 -86l-312 -283l424 -475l139 -86v-37h-479v57h103v66l-338 383h-4z" />
    <glyph glyph-name="Lacute" unicode="&#x139;" horiz-adv-x="1232" 
d="M954 82l220 287h36l-71 -369h-1078v57h166l80 86v1168l-80 86h-166v57h740v-57h-205l-78 -86v-1168l62 -61h374zM690 1718l-540 -153v57l540 268v-172z" />
    <glyph glyph-name="lacute" unicode="&#x13a;" horiz-adv-x="602" 
d="M397 1475v-1352l62 -66h121v-57h-545v57h110l58 66v1208l-60 66h-108v57zM569 1718l-540 -153v57l540 268v-172z" />
    <glyph glyph-name="Lcommaaccent" unicode="&#x13b;" horiz-adv-x="1232" 
d="M598 -426l-16 43q67 39 90 78q-117 3 -117 106q0 50 28.5 77.5t82.5 27.5q53 0 82.5 -29.5t29.5 -81.5q0 -68 -54 -128t-126 -93zM954 82l220 287h36l-71 -369h-1078v57h166l80 86v1168l-80 86h-166v57h740v-57h-205l-78 -86v-1168l62 -61h374z" />
    <glyph glyph-name="lcommaaccent" unicode="&#x13c;" horiz-adv-x="602" 
d="M219 -426l-16 43q67 39 90 78q-117 3 -117 106q0 50 28.5 77.5t82.5 27.5q53 0 82.5 -29.5t29.5 -81.5q0 -68 -54 -128t-126 -93zM397 1475v-1352l62 -66h121v-57h-545v57h110l58 66v1208l-60 66h-108v57z" />
    <glyph glyph-name="Lcaron" unicode="&#x13d;" horiz-adv-x="1253" 
d="M1221 1454l-209 -450l-54 18l107 459zM954 82l220 287h36l-71 -369h-1078v57h166l80 86v1168l-80 86h-166v57h740v-57h-205l-78 -86v-1168l62 -61h374z" />
    <glyph glyph-name="lcaron" unicode="&#x13e;" horiz-adv-x="602" 
d="M815 1454l-209 -450l-53 18l106 459zM397 1475v-1352l62 -66h121v-57h-545v57h110l58 66v1208l-60 66h-108v57z" />
    <glyph glyph-name="Ldot" unicode="&#x13f;" horiz-adv-x="1232" 
d="M954 82l220 287h36l-71 -369h-1078v57h166l80 86v1168l-80 86h-166v57h740v-57h-205l-78 -86v-1168l62 -61h374zM1004 780q0 -54 -35.5 -89.5t-89.5 -35.5t-89.5 35.5t-35.5 89.5t35.5 89.5t89.5 35.5t89.5 -35.5t35.5 -89.5z" />
    <glyph glyph-name="ldot" unicode="&#x140;" horiz-adv-x="788" 
d="M397 1475v-1352l62 -66h121v-57h-545v57h110l58 66v1208l-60 66h-108v57zM819 780q0 -54 -35.5 -89.5t-89.5 -35.5t-89.5 35.5t-35.5 89.5t35.5 89.5t89.5 35.5t89.5 -35.5t35.5 -89.5z" />
    <glyph glyph-name="Lslash" unicode="&#x141;" horiz-adv-x="1239" 
d="M961 82l219 287h37l-72 -369h-1077v57h165l80 86v519l-243 -60v82l243 59v568l-80 86h-165v57h739v-57h-205l-78 -86v-514l283 69v-82l-283 -69v-572l62 -61h375z" />
    <glyph glyph-name="lslash" unicode="&#x142;" horiz-adv-x="608" 
d="M397 688v-565l62 -66h121v-57h-545v57h110l58 66v516l-156 -37v82l156 37v610l-60 66h-108v57l362 21v-705l183 45v-82z" />
    <glyph glyph-name="Nacute" unicode="&#x143;" horiz-adv-x="1615" 
d="M1575 1397h-158l-88 -127v-1290h-72l-849 1175h-5v-969l97 -129h145v-57h-582v57h162l84 129v1082l-94 129h-152v57h406l762 -1032h4v848l-96 127h-146v57h582v-57zM1090 1718l-541 -153v57l541 268v-172z" />
    <glyph glyph-name="nacute" unicode="&#x144;" horiz-adv-x="1218" 
d="M414 1024l-17 -199h4q92 114 178.5 159.5t153.5 45.5q140 0 216.5 -86.5t76.5 -232.5v-588l61 -66h103v-57h-526v57h110l57 66v559q0 109 -52 164t-130 55q-65 0 -119.5 -35t-115.5 -98v-645l57 -66h109v-57h-525v57h105l59 66v758l-59 65h-105v58zM885 1309l-541 -154
v57l541 269v-172z" />
    <glyph glyph-name="Ncommaaccent" unicode="&#x145;" horiz-adv-x="1615" 
d="M743 -426l-16 43q67 39 90 78q-117 3 -117 106q0 50 28.5 77.5t82.5 27.5q53 0 83 -30t30 -81q0 -68 -54.5 -128t-126.5 -93zM1575 1397h-158l-88 -127v-1290h-72l-849 1175h-5v-969l97 -129h145v-57h-582v57h162l84 129v1082l-94 129h-152v57h406l762 -1032h4v848
l-96 127h-146v57h582v-57z" />
    <glyph glyph-name="ncommaaccent" unicode="&#x146;" horiz-adv-x="1218" 
d="M559 -426l-16 43q67 39 90 78q-117 3 -117 106q0 50 28.5 77.5t82.5 27.5q53 0 82.5 -29.5t29.5 -81.5q0 -68 -54 -128t-126 -93zM414 1024l-17 -199h4q92 114 178.5 159.5t153.5 45.5q140 0 216.5 -86.5t76.5 -232.5v-588l61 -66h103v-57h-526v57h110l57 66v559
q0 109 -52 164t-130 55q-65 0 -119.5 -35t-115.5 -98v-645l57 -66h109v-57h-525v57h105l59 66v758l-59 65h-105v58z" />
    <glyph glyph-name="Ncaron" unicode="&#x147;" horiz-adv-x="1615" 
d="M1575 1397h-158l-88 -127v-1290h-72l-849 1175h-5v-969l97 -129h145v-57h-582v57h162l84 129v1082l-94 129h-152v57h406l762 -1032h4v848l-96 127h-146v57h582v-57zM819 1737l328 153v-57l-328 -268l-327 268v57z" />
    <glyph glyph-name="ncaron" unicode="&#x148;" horiz-adv-x="1218" 
d="M414 1024l-17 -199h4q92 114 178.5 159.5t153.5 45.5q140 0 216.5 -86.5t76.5 -232.5v-588l61 -66h103v-57h-526v57h110l57 66v559q0 109 -52 164t-130 55q-65 0 -119.5 -35t-115.5 -98v-645l57 -66h109v-57h-525v57h105l59 66v758l-59 65h-105v58zM614 1327l328 154v-58
l-328 -268l-327 268v58z" />
    <glyph glyph-name="napostrophe" unicode="&#x149;" horiz-adv-x="1218" 
d="M240 1149l-17 43q67 39 90 78q-116 3 -116 106q0 50 28.5 77.5t81.5 27.5t83 -29.5t30 -81.5q0 -68 -54 -128t-126 -93zM414 1024l-17 -199h4q92 114 178.5 159.5t153.5 45.5q140 0 216.5 -86.5t76.5 -232.5v-588l61 -66h103v-57h-526v57h110l57 66v559q0 109 -52 164
t-130 55q-65 0 -119.5 -35t-115.5 -98v-645l57 -66h109v-57h-525v57h105l59 66v758l-59 65h-105v58z" />
    <glyph glyph-name="Eng" unicode="&#x14a;" horiz-adv-x="1615" 
d="M1135 -170v320l-727 1005h-5v-969l97 -129h145v-57h-582v57h162l84 129v1082l-94 129h-152v57h406l762 -1032h4v848l-96 127h-146v57h582v-57h-158l-88 -127v-1299q0 -109 -37 -197t-117 -144t-192 -56q-103 0 -167.5 35t-84.5 80l154 100q13 -50 60 -100.5t93 -50.5
q49 0 73 43.5t24 148.5z" />
    <glyph glyph-name="eng" unicode="&#x14b;" horiz-adv-x="1169" 
d="M414 1024l-17 -199h4q92 114 178.5 159.5t153.5 45.5q140 0 216.5 -86.5t76.5 -232.5v-740q0 -109 -37 -197t-117 -144t-192 -56q-103 0 -167.5 35t-84.5 80l154 100q13 -50 60 -100.5t93 -50.5q49 0 72.5 43.5t23.5 148.5v852q0 109 -52 164t-130 55q-65 0 -119.5 -35
t-115.5 -98v-645l57 -66h109v-57h-525v57h105l59 66v758l-59 65h-105v58z" />
    <glyph glyph-name="Omacron" unicode="&#x14c;" horiz-adv-x="1626" 
d="M813 1481q210 0 374 -102t251.5 -272.5t87.5 -377.5q0 -156 -51 -294.5t-142 -240.5t-226 -161.5t-294 -59.5q-210 0 -374 102t-251.5 272.5t-87.5 377.5q0 156 51 294.5t142 240.5t226 161.5t294 59.5zM895 72q169 0 283 139.5t114 368.5q0 126 -22.5 244.5t-68.5 221.5
t-110 180.5t-153.5 122t-192.5 44.5q-82 0 -156.5 -37.5t-131 -104t-90 -165t-33.5 -212.5q0 -161 38.5 -305.5t108.5 -255t177.5 -176t236.5 -65.5zM1038 1782h-450v82h450v-82z" />
    <glyph glyph-name="omacron" unicode="&#x14d;" horiz-adv-x="1167" 
d="M1083 508q0 -228 -141 -381.5t-354 -153.5q-225 0 -364.5 151t-139.5 386q0 226 140.5 373t357.5 147q222 0 361.5 -144.5t139.5 -377.5zM870 440q0 63 -11.5 132.5t-36.5 139.5t-61 125.5t-89.5 90.5t-116.5 35q-67 0 -118.5 -34.5t-81.5 -92.5t-45 -126.5t-15 -142.5
q0 -81 20 -169.5t57 -170t100.5 -134t141.5 -52.5q66 0 117 35.5t80.5 94t44 127t14.5 142.5zM809 1372h-451v82h451v-82z" />
    <glyph glyph-name="Obreve" unicode="&#x14e;" horiz-adv-x="1626" 
d="M813 1481q210 0 374 -102t251.5 -272.5t87.5 -377.5q0 -156 -51 -294.5t-142 -240.5t-226 -161.5t-294 -59.5q-210 0 -374 102t-251.5 272.5t-87.5 377.5q0 156 51 294.5t142 240.5t226 161.5t294 59.5zM895 72q169 0 283 139.5t114 368.5q0 126 -22.5 244.5t-68.5 221.5
t-110 180.5t-153.5 122t-192.5 44.5q-82 0 -156.5 -37.5t-131 -104t-90 -165t-33.5 -212.5q0 -161 38.5 -305.5t108.5 -255t177.5 -176t236.5 -65.5zM952 1866h90q0 -94 -67 -160t-164 -66q-93 0 -160 66.5t-67 159.5h92q0 -57 39 -95t96 -38q59 0 97.5 38t43.5 95z" />
    <glyph glyph-name="obreve" unicode="&#x14f;" horiz-adv-x="1167" 
d="M1083 508q0 -228 -141 -381.5t-354 -153.5q-225 0 -364.5 151t-139.5 386q0 226 140.5 373t357.5 147q222 0 361.5 -144.5t139.5 -377.5zM870 440q0 63 -11.5 132.5t-36.5 139.5t-61 125.5t-89.5 90.5t-116.5 35q-67 0 -118.5 -34.5t-81.5 -92.5t-45 -126.5t-15 -142.5
q0 -81 20 -169.5t57 -170t100.5 -134t141.5 -52.5q66 0 117 35.5t80.5 94t44 127t14.5 142.5zM723 1456h90q0 -94 -67 -159.5t-164 -65.5q-93 0 -160.5 66t-67.5 159h92q0 -57 39.5 -95t96.5 -38q59 0 97.5 38t43.5 95z" />
    <glyph glyph-name="Ohungarumlaut" unicode="&#x150;" horiz-adv-x="1626" 
d="M813 1481q210 0 374 -102t251.5 -272.5t87.5 -377.5q0 -156 -51 -294.5t-142 -240.5t-226 -161.5t-294 -59.5q-210 0 -374 102t-251.5 272.5t-87.5 377.5q0 156 51 294.5t142 240.5t226 161.5t294 59.5zM895 72q169 0 283 139.5t114 368.5q0 126 -22.5 244.5t-68.5 221.5
t-110 180.5t-153.5 122t-192.5 44.5q-82 0 -156.5 -37.5t-131 -104t-90 -165t-33.5 -212.5q0 -161 38.5 -305.5t108.5 -255t177.5 -176t236.5 -65.5zM801 1759l-299 -194l-45 41l274 284zM1169 1759l-299 -194l-45 41l275 284z" />
    <glyph glyph-name="ohungarumlaut" unicode="&#x151;" horiz-adv-x="1167" 
d="M1083 508q0 -228 -141 -381.5t-354 -153.5q-225 0 -364.5 151t-139.5 386q0 226 140.5 373t357.5 147q222 0 361.5 -144.5t139.5 -377.5zM870 440q0 63 -11.5 132.5t-36.5 139.5t-61 125.5t-89.5 90.5t-116.5 35q-67 0 -118.5 -34.5t-81.5 -92.5t-45 -126.5t-15 -142.5
q0 -81 20 -169.5t57 -170t100.5 -134t141.5 -52.5q66 0 117 35.5t80.5 94t44 127t14.5 142.5zM612 1350l-299 -195l-45 41l275 285zM981 1350l-299 -195l-45 41l274 285z" />
    <glyph glyph-name="OE" unicode="&#x152;" horiz-adv-x="2043" 
d="M838 1454h1052v-348h-37l-147 266h-485v-559h303l127 246h37v-574h-37l-127 246h-303v-649h501l220 287h36l-71 -369h-1073q-186 0 -327 51t-228.5 146t-131 223.5t-43.5 290.5q0 155 61 294.5t161.5 237t234.5 154.5t277 57zM1010 115v1190q-35 15 -60 22
q-90 23 -143 23q-128 0 -217.5 -36.5t-143 -111t-77 -177t-23.5 -243.5q0 -118 18 -221t57 -191.5t96.5 -152t141 -99.5t185.5 -36q57 0 119 16q5 2 22 8t25 9z" />
    <glyph glyph-name="oe" unicode="&#x153;" horiz-adv-x="1839" 
d="M1735 639l-25 -23l-625 17q-2 -23 -2 -66q0 -192 89.5 -310t236.5 -118q116 0 187.5 51t138.5 177l49 -23q-20 -58 -42.5 -105.5t-60 -99t-82 -86.5t-109.5 -57.5t-142 -22.5q-118 0 -211.5 52t-153.5 151q-69 -96 -171 -149.5t-224 -53.5q-225 0 -364.5 151t-139.5 386
q0 226 140.5 373t357.5 147q134 0 241 -55t174 -156q63 99 157 155t208 56q88 0 158.5 -27.5t112.5 -70.5t68.5 -96t33.5 -103.5t0 -93.5zM870 440q0 63 -11.5 132.5t-36.5 139.5t-61 125.5t-89.5 90.5t-116.5 35q-67 0 -118.5 -34.5t-81.5 -92.5t-45 -126.5t-15 -142.5
q0 -81 20 -169.5t57 -170t100.5 -134t141.5 -52.5q66 0 117 35.5t80.5 94t44 127t14.5 142.5zM1094 696h372l43 37q0 230 -192 230q-92 0 -151 -79t-72 -188z" />
    <glyph glyph-name="Racute" unicode="&#x154;" horiz-adv-x="1435" 
d="M518 1339v-598h172q64 0 123 19t108 55t78 95.5t29 133.5q0 160 -90 244t-227 84q-55 0 -133 -16zM61 1454h713q231 0 358.5 -101.5t127.5 -279.5q0 -142 -113.5 -250.5t-319.5 -136.5v-4l121 -55l334 -504l141 -86v-37h-333l-347 549q-68 110 -153 110h-72v-514l82 -88
h193v-57h-732v57h164l82 88v1166l-82 86h-164v57zM991 1718l-540 -153v57l540 268v-172z" />
    <glyph glyph-name="racute" unicode="&#x155;" horiz-adv-x="849" 
d="M408 694v-571l57 -66h162v-57h-572v57h105l59 66v758l-59 65h-105v58l326 20v-289h8q23 54 51 102t65 93.5t83 72.5t94 27q53 0 94 -18.5t60 -44.5l-82 -203h-9q-53 61 -139 61q-103 0 -198 -131zM713 1309l-541 -154v57l541 269v-172z" />
    <glyph glyph-name="Rcommaaccent" unicode="&#x156;" horiz-adv-x="1435" 
d="M680 -426l-16 43q67 39 90 78q-117 3 -117 106q0 50 28.5 77.5t82.5 27.5q53 0 82.5 -29.5t29.5 -81.5q0 -68 -54 -128t-126 -93zM518 1339v-598h172q64 0 123 19t108 55t78 95.5t29 133.5q0 160 -90 244t-227 84q-55 0 -133 -16zM61 1454h713q231 0 358.5 -101.5
t127.5 -279.5q0 -142 -113.5 -250.5t-319.5 -136.5v-4l121 -55l334 -504l141 -86v-37h-333l-347 549q-68 110 -153 110h-72v-514l82 -88h193v-57h-732v57h164l82 88v1166l-82 86h-164v57z" />
    <glyph glyph-name="rcommaaccent" unicode="&#x157;" horiz-adv-x="849" 
d="M250 -426l-17 43q68 40 91 78q-117 3 -117 106q0 50 28.5 77.5t81.5 27.5t83 -30t30 -81q0 -68 -54 -128t-126 -93zM408 694v-571l57 -66h162v-57h-572v57h105l59 66v758l-59 65h-105v58l326 20v-289h8q23 54 51 102t65 93.5t83 72.5t94 27q53 0 94 -18.5t60 -44.5
l-82 -203h-9q-53 61 -139 61q-103 0 -198 -131z" />
    <glyph glyph-name="Rcaron" unicode="&#x158;" horiz-adv-x="1435" 
d="M518 1339v-598h172q64 0 123 19t108 55t78 95.5t29 133.5q0 160 -90 244t-227 84q-55 0 -133 -16zM61 1454h713q231 0 358.5 -101.5t127.5 -279.5q0 -142 -113.5 -250.5t-319.5 -136.5v-4l121 -55l334 -504l141 -86v-37h-333l-347 549q-68 110 -153 110h-72v-514l82 -88
h193v-57h-732v57h164l82 88v1166l-82 86h-164v57zM721 1737l328 153v-57l-328 -268l-328 268v57z" />
    <glyph glyph-name="rcaron" unicode="&#x159;" horiz-adv-x="849" 
d="M408 694v-571l57 -66h162v-57h-572v57h105l59 66v758l-59 65h-105v58l326 20v-289h8q23 54 51 102t65 93.5t83 72.5t94 27q53 0 94 -18.5t60 -44.5l-82 -203h-9q-53 61 -139 61q-103 0 -198 -131zM442 1327l328 154v-58l-328 -268l-327 268v58z" />
    <glyph glyph-name="Sacute" unicode="&#x15a;" horiz-adv-x="1157" 
d="M553 1397q-122 0 -186 -63.5t-64 -153.5q0 -60 25.5 -109t69 -83.5t99.5 -65t118 -58.5t124 -57.5t118 -69t99.5 -87.5t69 -117.5t25.5 -153.5q0 -121 -60.5 -215t-156.5 -142.5t-209 -48.5q-30 0 -58 1.5t-54.5 5.5t-47 7t-44.5 10t-38 11t-37.5 13t-31.5 12t-31 12.5
t-27 11.5l-61 -75h-62v483h62l8 -19q70 -162 191 -263t272 -101q124 0 180.5 56t56.5 151q0 61 -26 110.5t-70.5 84t-101.5 65t-120.5 58.5t-127 57.5t-120.5 69t-101.5 87t-70.5 116.5t-26 153q0 160 128.5 275.5t328.5 115.5q64 0 121.5 -11.5t89 -23.5t78.5 -33l33 60h59
v-431h-62l-18 50q-56 145 -143 225t-201 80zM842 1718l-541 -153v57l541 268v-172z" />
    <glyph glyph-name="sacute" unicode="&#x15b;" horiz-adv-x="892" 
d="M399 965q-56 0 -97.5 -34t-41.5 -97q0 -45 30 -84t78.5 -68t107 -58t116.5 -62.5t106.5 -72.5t78.5 -95.5t30 -125.5q0 -139 -93 -217t-220 -78q-95 0 -176.5 27.5t-116.5 56.5l-41 -77h-54v389h62l25 -50q61 -125 147.5 -199.5t177.5 -74.5q68 0 109 34t41 95
q0 52 -30.5 95.5t-79 75t-107 62t-117.5 64t-107.5 71.5t-79 93.5t-30.5 122.5q0 128 91.5 200t231.5 72q117 0 234 -45l20 39h56v-358h-62l-14 47q-36 113 -110 182.5t-165 69.5zM711 1309l-541 -154v57l541 269v-172z" />
    <glyph glyph-name="Scircumflex" unicode="&#x15c;" horiz-adv-x="1157" 
d="M553 1397q-122 0 -186 -63.5t-64 -153.5q0 -60 25.5 -109t69 -83.5t99.5 -65t118 -58.5t124 -57.5t118 -69t99.5 -87.5t69 -117.5t25.5 -153.5q0 -121 -60.5 -215t-156.5 -142.5t-209 -48.5q-30 0 -58 1.5t-54.5 5.5t-47 7t-44.5 10t-38 11t-37.5 13t-31.5 12t-31 12.5
t-27 11.5l-61 -75h-62v483h62l8 -19q70 -162 191 -263t272 -101q124 0 180.5 56t56.5 151q0 61 -26 110.5t-70.5 84t-101.5 65t-120.5 58.5t-127 57.5t-120.5 69t-101.5 87t-70.5 116.5t-26 153q0 160 128.5 275.5t328.5 115.5q64 0 121.5 -11.5t89 -23.5t78.5 -33l33 60h59
v-431h-62l-18 50q-56 145 -143 225t-201 80zM899 1565l-328 153l-327 -153v57l327 268l328 -268v-57z" />
    <glyph glyph-name="scircumflex" unicode="&#x15d;" horiz-adv-x="892" 
d="M399 965q-56 0 -97.5 -34t-41.5 -97q0 -45 30 -84t78.5 -68t107 -58t116.5 -62.5t106.5 -72.5t78.5 -95.5t30 -125.5q0 -139 -93 -217t-220 -78q-95 0 -176.5 27.5t-116.5 56.5l-41 -77h-54v389h62l25 -50q61 -125 147.5 -199.5t177.5 -74.5q68 0 109 34t41 95
q0 52 -30.5 95.5t-79 75t-107 62t-117.5 64t-107.5 71.5t-79 93.5t-30.5 122.5q0 128 91.5 200t231.5 72q117 0 234 -45l20 39h56v-358h-62l-14 47q-36 113 -110 182.5t-165 69.5zM768 1155l-328 154l-327 -154v57l327 269l328 -269v-57z" />
    <glyph glyph-name="Scedilla" unicode="&#x15e;" horiz-adv-x="1157" 
d="M836 -254q0 -57 -37.5 -97t-93 -57.5t-121.5 -17.5q-82 0 -193 35q37 76 41 84q80 -33 133 -33q109 0 109 84q0 32 -26.5 52t-67.5 20q-27 0 -84 -11l-15 13l66 159q-64 5 -124.5 20t-89.5 26.5t-77 33.5l-61 -75h-62v483h62l8 -19q70 -162 191 -263t272 -101
q124 0 180.5 56t56.5 151q0 61 -26 110.5t-70.5 84t-101.5 65t-120.5 58.5t-127 57.5t-120.5 69t-101.5 87t-70.5 116.5t-26 153q0 160 128.5 275.5t328.5 115.5q64 0 121.5 -11.5t89 -23.5t78.5 -33l33 60h59v-431h-62l-18 50q-56 145 -143 225t-201 80q-122 0 -186 -63.5
t-64 -153.5q0 -60 25.5 -109t69 -83.5t99.5 -65t118 -58.5t124 -57.5t118 -69t99.5 -87.5t69 -117.5t25.5 -153.5q0 -121 -60.5 -215t-156.5 -142.5t-209 -48.5l-33 -92q25 6 63 6q78 0 129.5 -35t51.5 -106z" />
    <glyph glyph-name="scedilla" unicode="&#x15f;" horiz-adv-x="892" 
d="M705 -254q0 -57 -37.5 -97t-93 -57.5t-121.5 -17.5q-82 0 -193 35q37 76 41 84q80 -33 133 -33q109 0 109 84q0 32 -26.5 52t-67.5 20q-27 0 -84 -11l-15 13l66 162q-138 19 -215 77l-41 -77h-54v389h62l25 -50q61 -125 147.5 -199.5t177.5 -74.5q68 0 109 34t41 95
q0 52 -30.5 95.5t-79 75t-107 62t-117.5 64t-107.5 71.5t-79 93.5t-30.5 122.5q0 128 91.5 200t231.5 72q117 0 234 -45l20 39h56v-358h-62l-14 47q-36 113 -110 182.5t-165 69.5q-56 0 -97.5 -34t-41.5 -97q0 -45 30 -84t78.5 -68t107 -58t116.5 -62.5t106.5 -72.5
t78.5 -95.5t30 -125.5q0 -139 -93 -217t-220 -78l-33 -92q25 6 63 6q78 0 129.5 -35t51.5 -106z" />
    <glyph glyph-name="Scaron" unicode="&#x160;" horiz-adv-x="1157" 
d="M553 1397q-122 0 -186 -63.5t-64 -153.5q0 -60 25.5 -109t69 -83.5t99.5 -65t118 -58.5t124 -57.5t118 -69t99.5 -87.5t69 -117.5t25.5 -153.5q0 -121 -60.5 -215t-156.5 -142.5t-209 -48.5q-30 0 -58 1.5t-54.5 5.5t-47 7t-44.5 10t-38 11t-37.5 13t-31.5 12t-31 12.5
t-27 11.5l-61 -75h-62v483h62l8 -19q70 -162 191 -263t272 -101q124 0 180.5 56t56.5 151q0 61 -26 110.5t-70.5 84t-101.5 65t-120.5 58.5t-127 57.5t-120.5 69t-101.5 87t-70.5 116.5t-26 153q0 160 128.5 275.5t328.5 115.5q64 0 121.5 -11.5t89 -23.5t78.5 -33l33 60h59
v-431h-62l-18 50q-56 145 -143 225t-201 80zM612 1737l328 153v-57l-328 -268l-327 268v57z" />
    <glyph glyph-name="scaron" unicode="&#x161;" horiz-adv-x="892" 
d="M399 965q-56 0 -97.5 -34t-41.5 -97q0 -45 30 -84t78.5 -68t107 -58t116.5 -62.5t106.5 -72.5t78.5 -95.5t30 -125.5q0 -139 -93 -217t-220 -78q-95 0 -176.5 27.5t-116.5 56.5l-41 -77h-54v389h62l25 -50q61 -125 147.5 -199.5t177.5 -74.5q68 0 109 34t41 95
q0 52 -30.5 95.5t-79 75t-107 62t-117.5 64t-107.5 71.5t-79 93.5t-30.5 122.5q0 128 91.5 200t231.5 72q117 0 234 -45l20 39h56v-358h-62l-14 47q-36 113 -110 182.5t-165 69.5zM440 1327l328 154v-58l-328 -268l-327 268v58z" />
    <glyph glyph-name="uni0162" unicode="&#x162;" horiz-adv-x="1325" 
d="M891 -254q0 -57 -37.5 -97t-93 -57.5t-121.5 -17.5q-82 0 -193 35q37 76 41 84q80 -33 134 -33q108 0 108 84q0 32 -26.5 52t-67.5 20q-27 0 -84 -11l-14 13l75 182h-315v57h176l84 88v1227h-309l-148 -328h-37v437h41l72 -27h971l74 27h41v-437h-37l-148 328h-309v-1227
l82 -88h178v-57h-340l-41 -119q25 6 64 6q78 0 129 -35t51 -106z" />
    <glyph glyph-name="uni0163" unicode="&#x163;" horiz-adv-x="669" 
d="M631 -254q0 -57 -37.5 -97t-93 -57.5t-121.5 -17.5q-82 0 -193 35q37 76 41 84q80 -33 133 -33q109 0 109 84q0 32 -26.5 52t-67.5 20q-27 0 -84 -11l-15 13l66 162q-43 8 -73 32t-47 55t-26 77.5t-11.5 86.5t-2.5 95v600l-137 30v48h133l162 270h37v-270h274v-68h-274
v-576v-22q0 -38 0.5 -57.5t3 -53.5t9.5 -53t18.5 -40t31.5 -30.5t47 -9.5q31 0 61 18.5t73 61.5l32 -29q-50 -78 -103 -121.5t-130 -48.5l-33 -94q25 6 64 6q78 0 129 -35t51 -106z" />
    <glyph glyph-name="Tcaron" unicode="&#x164;" horiz-adv-x="1325" 
d="M1262 1481v-437h-37l-148 328h-309v-1227l82 -88h178v-57h-731v57h176l84 88v1227h-309l-148 -328h-37v437h41l72 -27h971l74 27h41zM662 1737l327 153v-57l-327 -268l-328 268v57z" />
    <glyph glyph-name="tcaron" unicode="&#x165;" horiz-adv-x="669" 
d="M758 1659l-209 -451l-53 19l106 459zM651 936h-274v-576v-22q0 -38 0.5 -57.5t3 -53.5t9.5 -53t18.5 -40t31.5 -30.5t47 -9.5q31 0 61 18.5t73 61.5l32 -29q-52 -82 -110.5 -127t-145.5 -45q-57 0 -98 21t-63 52t-34.5 81.5t-16 94t-3.5 104.5v600l-137 30v48h133
l162 270h37v-270h274v-68z" />
    <glyph glyph-name="Tbar" unicode="&#x166;" horiz-adv-x="1325" 
d="M352 743v82h205v547h-309l-148 -328h-37v437h41l72 -27h971l74 27h41v-437h-37l-148 328h-309v-547h205v-82h-205v-598l82 -88h178v-57h-731v57h176l84 88v598h-205z" />
    <glyph glyph-name="tbar" unicode="&#x167;" horiz-adv-x="673" 
d="M55 600v62h131v264l-137 30v48h133l162 270h37v-270h274v-68h-274v-274h192v-62h-192v-240v-20q0 -38 0.5 -58t3 -54t10 -53.5t19 -40.5t31.5 -30.5t47 -9.5q31 0 60.5 18.5t72.5 61.5l32 -29q-52 -82 -110.5 -127t-145.5 -45q-57 0 -98 21t-63 52t-34.5 81.5t-16 94
t-3.5 104.5v274h-131z" />
    <glyph glyph-name="Utilde" unicode="&#x168;" horiz-adv-x="1558" 
d="M1503 1397h-121l-84 -127v-690q0 -607 -487 -607q-553 0 -553 555v783l-84 86h-121v57h670v-57h-162l-82 -86v-756q0 -125 17 -210.5t57 -146t107.5 -88.5t168.5 -28q375 0 375 475v713l-96 127h-152v57h547v-57zM948 1669q-42 0 -81 25t-77 50t-77 25q-64 0 -158 -94
l-43 39q55 83 106 129.5t113 46.5q35 0 70.5 -15.5t59.5 -34.5t53 -34.5t53 -15.5q63 0 157 94l43 -39q-56 -84 -106 -130t-113 -46z" />
    <glyph glyph-name="utilde" unicode="&#x169;" horiz-adv-x="1185" 
d="M983 1024v-901l59 -66h119v-57l-373 -20l17 208h-4q-168 -215 -326 -215q-139 0 -213 86.5t-74 233.5v588l-59 65h-90v58l344 20v-702q0 -110 48.5 -165t125.5 -55q46 0 90.5 21.5t71.5 45t69 67.5v645l-59 65h-104v58zM715 1260q-33 0 -65.5 15.5t-54.5 34.5t-53.5 34.5
t-62.5 15.5q-63 0 -157 -94l-43 39q55 83 106 129.5t113 46.5q35 0 70.5 -16t59.5 -34.5t52.5 -34.5t52.5 -16q63 0 158 95l43 -39q-56 -84 -106 -130t-113 -46z" />
    <glyph glyph-name="Umacron" unicode="&#x16a;" horiz-adv-x="1558" 
d="M1503 1397h-121l-84 -127v-690q0 -607 -487 -607q-553 0 -553 555v783l-84 86h-121v57h670v-57h-162l-82 -86v-756q0 -125 17 -210.5t57 -146t107.5 -88.5t168.5 -28q375 0 375 475v713l-96 127h-152v57h547v-57zM1065 1782h-451v82h451v-82z" />
    <glyph glyph-name="umacron" unicode="&#x16b;" horiz-adv-x="1185" 
d="M983 1024v-901l59 -66h119v-57l-373 -20l17 208h-4q-168 -215 -326 -215q-139 0 -213 86.5t-74 233.5v588l-59 65h-90v58l344 20v-702q0 -110 48.5 -165t125.5 -55q46 0 90.5 21.5t71.5 45t69 67.5v645l-59 65h-104v58zM831 1372h-450v82h450v-82z" />
    <glyph glyph-name="Ubreve" unicode="&#x16c;" horiz-adv-x="1558" 
d="M1503 1397h-121l-84 -127v-690q0 -607 -487 -607q-553 0 -553 555v783l-84 86h-121v57h670v-57h-162l-82 -86v-756q0 -125 17 -210.5t57 -146t107.5 -88.5t168.5 -28q375 0 375 475v713l-96 127h-152v57h547v-57zM979 1866h90q0 -94 -67 -160t-164 -66q-93 0 -160.5 66.5
t-67.5 159.5h92q0 -57 39.5 -95t96.5 -38q59 0 97.5 38t43.5 95z" />
    <glyph glyph-name="ubreve" unicode="&#x16d;" horiz-adv-x="1185" 
d="M983 1024v-901l59 -66h119v-57l-373 -20l17 208h-4q-168 -215 -326 -215q-139 0 -213 86.5t-74 233.5v588l-59 65h-90v58l344 20v-702q0 -110 48.5 -165t125.5 -55q46 0 90.5 21.5t71.5 45t69 67.5v645l-59 65h-104v58zM745 1456h91q0 -94 -67.5 -159.5t-164.5 -65.5
q-93 0 -160 66t-67 159h92q0 -57 39 -95t96 -38q59 0 97.5 38t43.5 95z" />
    <glyph glyph-name="Uring" unicode="&#x16e;" horiz-adv-x="1558" 
d="M1503 1397h-121l-84 -127v-690q0 -607 -487 -607q-553 0 -553 555v783l-84 86h-121v57h670v-57h-162l-82 -86v-756q0 -125 17 -210.5t57 -146t107.5 -88.5t168.5 -28q375 0 375 475v713l-96 127h-152v57h547v-57zM1006 1722q0 -70 -48 -118t-120 -48q-69 0 -117.5 48.5
t-48.5 117.5q0 72 48 120t118 48q72 0 120 -48t48 -120zM940 1722q0 43 -29.5 73t-72.5 30q-41 0 -70 -30t-29 -73q0 -41 29 -69.5t70 -28.5q43 0 72.5 28.5t29.5 69.5z" />
    <glyph glyph-name="uring" unicode="&#x16f;" horiz-adv-x="1185" 
d="M983 1024v-901l59 -66h119v-57l-373 -20l17 208h-4q-168 -215 -326 -215q-139 0 -213 86.5t-74 233.5v588l-59 65h-90v58l344 20v-702q0 -110 48.5 -165t125.5 -55q46 0 90.5 21.5t71.5 45t69 67.5v645l-59 65h-104v58zM772 1313q0 -69 -48 -117.5t-120 -48.5
q-69 0 -117.5 48.5t-48.5 117.5q0 71 48 119.5t118 48.5q72 0 120 -48t48 -120zM707 1313q0 43 -30 72.5t-73 29.5q-41 0 -69.5 -29.5t-28.5 -72.5q0 -41 28.5 -70t69.5 -29q43 0 73 29t30 70z" />
    <glyph glyph-name="Uhungarumlaut" unicode="&#x170;" horiz-adv-x="1558" 
d="M1503 1397h-121l-84 -127v-690q0 -607 -487 -607q-553 0 -553 555v783l-84 86h-121v57h670v-57h-162l-82 -86v-756q0 -125 17 -210.5t57 -146t107.5 -88.5t168.5 -28q375 0 375 475v713l-96 127h-152v57h547v-57zM827 1759l-299 -194l-45 41l275 284zM1196 1759
l-299 -194l-45 41l274 284z" />
    <glyph glyph-name="uhungarumlaut" unicode="&#x171;" horiz-adv-x="1185" 
d="M983 1024v-901l59 -66h119v-57l-373 -20l17 208h-4q-168 -215 -326 -215q-139 0 -213 86.5t-74 233.5v588l-59 65h-90v58l344 20v-702q0 -110 48.5 -165t125.5 -55q46 0 90.5 21.5t71.5 45t69 67.5v645l-59 65h-104v58zM594 1350l-299 -195l-45 41l274 285zM963 1350
l-299 -195l-46 41l275 285z" />
    <glyph glyph-name="Uogonek" unicode="&#x172;" horiz-adv-x="1558" 
d="M1503 1397h-121l-84 -127v-690q0 -194 -53.5 -319.5t-202.5 -235.5q-95 -70 -132.5 -120.5t-37.5 -109.5q0 -51 32.5 -81.5t76.5 -30.5q43 0 113 38v-102q-100 -45 -158 -45q-78 0 -132 43t-54 123q0 108 147 240q-47 -7 -86 -7q-553 0 -553 555v783l-84 86h-121v57h670
v-57h-162l-82 -86v-756q0 -125 17 -210.5t57 -146t107.5 -88.5t168.5 -28q375 0 375 475v713l-96 127h-152v57h547v-57z" />
    <glyph glyph-name="uogonek" unicode="&#x173;" horiz-adv-x="1185" 
d="M788 -20l17 208h-4q-168 -215 -326 -215q-139 0 -213 86.5t-74 233.5v588l-59 65h-90v58l344 20v-702q0 -110 48.5 -165t125.5 -55q46 0 90.5 21.5t71.5 45t69 67.5v645l-59 65h-104v58l358 20v-901l59 -66h119v-57q-85 0 -153 -64.5t-68 -140.5q0 -51 32.5 -81.5
t76.5 -30.5q42 0 112 38v-102q-100 -45 -157 -45q-78 0 -132.5 43t-54.5 123q0 66 51 134.5t125 115.5z" />
    <glyph glyph-name="Wcircumflex" unicode="&#x174;" horiz-adv-x="1951" 
d="M1911 1417l-96 -151l-445 -1286h-47l-330 966h-4l-338 -966h-45l-502 1331l-77 106v37h557v-57h-144l-90 -86l344 -946h4l246 725l-106 307h-131v57h639v-57h-211l-35 -66l317 -944h4l295 889l-69 121h-179v57h443v-37zM1317 1565l-328 153l-327 -153v57l327 268
l328 -268v-57z" />
    <glyph glyph-name="wcircumflex" unicode="&#x175;" horiz-adv-x="1576" 
d="M1520 967l-74 -86l-338 -901h-72l-245 608h-5l-231 -608h-72l-364 901l-76 86v37h428v-58h-76l-57 -65l237 -643h5l174 444l-109 264h-78v58h484v-58h-138l-22 -69l237 -639h5l217 643l-58 65h-102v58h330v-37zM1118 1155l-327 154l-328 -154v57l328 269l327 -269v-57z
" />
    <glyph glyph-name="Ycircumflex" unicode="&#x176;" horiz-adv-x="1323" 
d="M1161 1311l-377 -617v-551l97 -86h141v-57h-688v57h139l100 86v500l-428 668l-112 106v37h600v-57h-172l-66 -86l346 -559h4l318 559l-80 86h-154v57h461v-37zM1051 1565l-328 153l-328 -153v57l328 268l328 -268v-57z" />
    <glyph glyph-name="ycircumflex" unicode="&#x177;" horiz-adv-x="1099" 
d="M344 -305q68 0 106.5 58t38.5 126q0 112 -61 246l-297 756l-92 86v37h467v-58h-103l-57 -65l270 -738h5l227 738l-57 65h-103v58h348v-37l-80 -86l-329 -908q-148 -399 -377 -399q-161 0 -246 111l172 118q38 -108 168 -108zM922 1155l-328 154l-328 -154v57l328 269
l328 -269v-57z" />
    <glyph glyph-name="Ydieresis" unicode="&#x178;" horiz-adv-x="1323" 
d="M1161 1311l-377 -617v-551l97 -86h141v-57h-688v57h139l100 86v500l-428 668l-112 106v37h600v-57h-172l-66 -86l346 -559h4l318 559l-80 86h-154v57h461v-37zM635 1739q0 -54 -35.5 -89.5t-89.5 -35.5t-89.5 35.5t-35.5 89.5t35.5 89.5t89.5 35.5t89.5 -35.5t35.5 -89.5
zM1061 1739q0 -54 -35.5 -89.5t-89.5 -35.5t-89.5 35.5t-35.5 89.5t35.5 89.5t89.5 35.5t89.5 -35.5t35.5 -89.5z" />
    <glyph glyph-name="Zacute" unicode="&#x179;" horiz-adv-x="1214" 
d="M274 1454h842v-57l-764 -1311v-4h508l203 328h37v-410h-1032v57l761 1311v4h-428l-202 -328h-37v437h41zM934 1718l-541 -153v57l541 268v-172z" />
    <glyph glyph-name="zacute" unicode="&#x17a;" horiz-adv-x="948" 
d="M852 0h-791v37l568 905v4h-307l-160 -276h-37v334h737v-37l-571 -906v-4h366l158 279h37v-336zM799 1309l-541 -154v57l541 269v-172z" />
    <glyph glyph-name="Zdotaccent" unicode="&#x17b;" horiz-adv-x="1214" 
d="M274 1454h842v-57l-764 -1311v-4h508l203 328h37v-410h-1032v57l761 1311v4h-428l-202 -328h-37v437h41zM788 1739q0 -54 -35 -89.5t-89 -35.5t-89.5 35.5t-35.5 89.5t35.5 89.5t89.5 35.5t89 -35.5t35 -89.5z" />
    <glyph glyph-name="zdotaccent" unicode="&#x17c;" horiz-adv-x="948" 
d="M852 0h-791v37l568 905v4h-307l-160 -276h-37v334h737v-37l-571 -906v-4h366l158 279h37v-336zM653 1329q0 -54 -35.5 -89.5t-89.5 -35.5t-89.5 35.5t-35.5 89.5t35.5 89.5t89.5 35.5t89.5 -35.5t35.5 -89.5z" />
    <glyph glyph-name="Zcaron" unicode="&#x17d;" horiz-adv-x="1214" 
d="M274 1454h842v-57l-764 -1311v-4h508l203 328h37v-410h-1032v57l761 1311v4h-428l-202 -328h-37v437h41zM664 1737l327 153v-57l-327 -268l-328 268v57z" />
    <glyph glyph-name="zcaron" unicode="&#x17e;" horiz-adv-x="948" 
d="M852 0h-791v37l568 905v4h-307l-160 -276h-37v334h737v-37l-571 -906v-4h366l158 279h37v-336zM528 1327l328 154v-58l-328 -268l-327 268v58z" />
    <glyph glyph-name="florin" unicode="&#x192;" horiz-adv-x="1169" 
d="M631 936l-225 -797q-36 -125 -81 -225t-102 -177.5t-129 -120t-153 -42.5q-94 0 -139.5 33.5t-45.5 87.5q0 63 37 92h148v-29q0 -110 84 -110q49 0 98 81.5t92 243.5l256 951l-160 32l15 48h168q70 221 183 349t263 128q93 0 138.5 -33t45.5 -88q0 -63 -37 -92h-147v28
q0 111 -70 111q-105 0 -194 -311l-27 -92h230l-21 -68h-227z" />
    <glyph glyph-name="Uhorn" unicode="&#x1af;" horiz-adv-x="1558" 
d="M1194 1536l-16 43q67 39 90 78q-117 3 -117 106q0 50 28.5 77.5t82.5 27.5q53 0 82.5 -29.5t29.5 -81.5q0 -68 -54 -128t-126 -93zM1503 1397h-121l-84 -127v-690q0 -607 -487 -607q-553 0 -553 555v783l-84 86h-121v57h670v-57h-162l-82 -86v-756q0 -125 17 -210.5
t57 -146t107.5 -88.5t168.5 -28q375 0 375 475v713l-96 127h-152v57h547v-57z" />
    <glyph glyph-name="uhorn" unicode="&#x1b0;" horiz-adv-x="1185" 
d="M811 1122l-16 43q67 39 90 78q-117 3 -117 107q0 50 28.5 77t82.5 27q53 0 82.5 -29.5t29.5 -81.5q0 -68 -54 -128t-126 -93zM983 1024v-901l59 -66h119v-57l-373 -20l17 208h-4q-168 -215 -326 -215q-139 0 -213 86.5t-74 233.5v588l-59 65h-90v58l344 20v-702
q0 -110 48.5 -165t125.5 -55q46 0 90.5 21.5t71.5 45t69 67.5v645l-59 65h-104v58z" />
    <glyph glyph-name="Aringacute" unicode="&#x1fa;" horiz-adv-x="1404" 
d="M827 1559q0 -83 -67 -134l520 -1282l111 -106v-37h-553v57h141l61 86l-127 330h-538l-109 -289l72 -127h168v-57h-463v37l115 147l440 1110l-37 109l19 10q-39 21 -62.5 60t-23.5 86q0 71 48 119t117 48q72 0 120 -47.5t48 -119.5zM643 1180l-237 -625h477zM930 1903
l-541 -154v57l541 269v-172zM762 1559q0 43 -30 72.5t-73 29.5q-41 0 -69.5 -29.5t-28.5 -72.5q0 -41 28.5 -70t69.5 -29q43 0 73 29t30 70z" />
    <glyph glyph-name="aringacute" unicode="&#x1fb;" horiz-adv-x="1013" 
d="M664 1141q0 -72 -56 -125q111 -27 164 -95t53 -151v-647l60 -66h84v-57l-353 -20l23 174h-4q-154 -181 -313 -181q-107 0 -175.5 69.5t-68.5 190.5q0 131 96 219t277 117l180 29v207q0 166 -148 166q-66 0 -110.5 -55.5t-44.5 -120.5q0 -41 6 -62l8 -24l-195 -29
q-12 21 -12 80q0 101 72.5 168t175.5 90q-53 50 -53 123q0 71 48 119.5t118 48.5q72 0 120 -48t48 -120zM631 215v317l-113 -22q-237 -59 -237 -236q0 -81 34 -128.5t99 -47.5q57 0 108.5 29t108.5 88zM766 1473l-541 -154v57l541 269v-172zM598 1141q0 43 -29.5 72.5
t-72.5 29.5q-41 0 -70 -29.5t-29 -72.5q0 -41 29 -70t70 -29q43 0 72.5 29t29.5 70z" />
    <glyph glyph-name="AEacute" unicode="&#x1fc;" horiz-adv-x="2023" 
d="M1686 1372h-486v-559h303l127 246h37v-574h-37l-127 246h-303v-649h502l219 287h37l-72 -369h-1143v57h166l80 86v330h-567l-207 -289l72 -127h168v-57h-463v37l952 1321l-35 39h-166v57h1127v-348h-37zM479 555h510v707h-4zM1655 1718l-541 -153v57l541 268v-172z" />
    <glyph glyph-name="aeacute" unicode="&#x1fd;" horiz-adv-x="1581" 
d="M1477 639l-25 -23l-625 17q-2 -6 -2 -27v-59q4 -184 93.5 -296t232.5 -112q116 0 187.5 51t138.5 177l49 -23q-20 -58 -42.5 -105.5t-60 -99t-82 -86.5t-109.5 -57.5t-142 -22.5q-129 0 -229 63t-156 179l-62 -72q-145 -170 -321 -170q-107 0 -175.5 69.5t-68.5 190.5
q0 131 96 219t277 117l180 29v207q0 166 -148 166q-66 0 -110.5 -55.5t-44.5 -120.5q0 -41 6 -62l8 -24l-195 -29q-12 21 -12 80q0 66 33.5 120t86.5 85.5t112.5 48t117.5 16.5q232 0 308 -141q128 141 311 141q88 0 158.5 -27.5t112.5 -70.5t68.5 -96t33.5 -103.5t0 -93.5z
M631 215v317l-113 -22q-237 -59 -237 -236q0 -81 34 -128.5t99 -47.5q57 0 108.5 29t108.5 88zM836 696h372l43 37q0 230 -192 230q-92 0 -151 -79t-72 -188zM1061 1309l-541 -154v57l541 269v-172z" />
    <glyph glyph-name="Oslashacute" unicode="&#x1fe;" horiz-adv-x="1626" 
d="M260 0l94 137q-123 104 -188.5 256t-65.5 332q0 156 51 294.5t142 240.5t226 161.5t294 59.5q224 0 387 -111l60 84h106l-94 -137q122 -105 188 -257t66 -331q0 -156 -51 -294.5t-142 -240.5t-226 -161.5t-294 -59.5q-221 0 -389 111l-57 -84h-107zM334 874
q0 -338 143 -557l619 900q-142 176 -351 176q-82 0 -156.5 -37.5t-131 -104t-90 -165t-33.5 -212.5zM895 72q169 0 283 139.5t114 368.5q0 325 -141 561l-616 -899q148 -170 360 -170zM1090 1718l-541 -153v57l541 268v-172z" />
    <glyph glyph-name="oslashacute" unicode="&#x1ff;" horiz-adv-x="1167" 
d="M168 0l72 106q-74 73 -115 177t-41 227q0 226 140.5 373t357.5 147q145 0 252 -61l43 61h106l-76 -110q176 -143 176 -412q0 -228 -141 -381.5t-354 -153.5q-163 0 -279 78l-35 -51h-106zM870 440q0 171 -69 324l-404 -584q86 -139 217 -139q66 0 117 35.5t80.5 94
t44 127t14.5 142.5zM295 567q0 -157 57 -297l400 578q-83 115 -197 115q-67 0 -118.5 -34.5t-81.5 -92.5t-45 -126.5t-15 -142.5zM856 1309l-541 -154v57l541 269v-172z" />
    <glyph glyph-name="uni0218" unicode="&#x218;" horiz-adv-x="1157" 
d="M549 -426l-17 43q68 40 91 78q-117 3 -117 106q0 50 28.5 77.5t81.5 27.5q54 0 83.5 -30t29.5 -81q0 -68 -54 -128t-126 -93zM553 1397q-122 0 -186 -63.5t-64 -153.5q0 -60 25.5 -109t69 -83.5t99.5 -65t118 -58.5t124 -57.5t118 -69t99.5 -87.5t69 -117.5t25.5 -153.5
q0 -121 -60.5 -215t-156.5 -142.5t-209 -48.5q-30 0 -58 1.5t-54.5 5.5t-47 7t-44.5 10t-38 11t-37.5 13t-31.5 12t-31 12.5t-27 11.5l-61 -75h-62v483h62l8 -19q70 -162 191 -263t272 -101q124 0 180.5 56t56.5 151q0 61 -26 110.5t-70.5 84t-101.5 65t-120.5 58.5
t-127 57.5t-120.5 69t-101.5 87t-70.5 116.5t-26 153q0 160 128.5 275.5t328.5 115.5q64 0 121.5 -11.5t89 -23.5t78.5 -33l33 60h59v-431h-62l-18 50q-56 145 -143 225t-201 80z" />
    <glyph glyph-name="uni0219" unicode="&#x219;" horiz-adv-x="892" 
d="M408 -426l-17 43q67 39 90 78q-116 3 -116 106q0 50 28.5 77.5t81.5 27.5t83 -30t30 -81q0 -68 -54 -128t-126 -93zM399 965q-56 0 -97.5 -34t-41.5 -97q0 -45 30 -84t78.5 -68t107 -58t116.5 -62.5t106.5 -72.5t78.5 -95.5t30 -125.5q0 -139 -93 -217t-220 -78
q-95 0 -176.5 27.5t-116.5 56.5l-41 -77h-54v389h62l25 -50q61 -125 147.5 -199.5t177.5 -74.5q68 0 109 34t41 95q0 52 -30.5 95.5t-79 75t-107 62t-117.5 64t-107.5 71.5t-79 93.5t-30.5 122.5q0 128 91.5 200t231.5 72q117 0 234 -45l20 39h56v-358h-62l-14 47
q-36 113 -110 182.5t-165 69.5z" />
    <glyph glyph-name="uni021A" unicode="&#x21a;" horiz-adv-x="1325" 
d="M600 -426l-16 43q67 39 90 78q-117 3 -117 106q0 50 28.5 77.5t82.5 27.5q53 0 82.5 -29.5t29.5 -81.5q0 -68 -54 -128t-126 -93zM1262 1481v-437h-37l-148 328h-309v-1227l82 -88h178v-57h-731v57h176l84 88v1227h-309l-148 -328h-37v437h41l72 -27h971l74 27h41z" />
    <glyph glyph-name="uni021B" unicode="&#x21b;" horiz-adv-x="669" 
d="M319 -426l-16 43q67 39 90 78q-117 3 -117 106q0 50 28.5 77.5t82.5 27.5q53 0 83 -30t30 -81q0 -68 -54.5 -128t-126.5 -93zM651 936h-274v-576v-22q0 -38 0.5 -57.5t3 -53.5t9.5 -53t18.5 -40t31.5 -30.5t47 -9.5q31 0 61 18.5t73 61.5l32 -29q-52 -82 -110.5 -127
t-145.5 -45q-57 0 -98 21t-63 52t-34.5 81.5t-16 94t-3.5 104.5v600l-137 30v48h133l162 270h37v-270h274v-68z" />
    <glyph glyph-name="apostrophemod" unicode="&#x2bc;" horiz-adv-x="520" 
d="M135 940l-16 43q68 27 120 87.5t52 131.5q-76 1 -121 40.5t-45 98.5q0 60 38.5 100t98.5 40q63 0 103.5 -45t40.5 -127q0 -123 -73 -222.5t-198 -146.5z" />
    <glyph glyph-name="circumflex" unicode="&#x2c6;" 
d="M553 1155l-328 154l-327 -154v57l327 269l328 -269v-57z" />
    <glyph glyph-name="caron" unicode="&#x2c7;" 
d="M225 1327l328 154v-58l-328 -268l-327 268v58z" />
    <glyph glyph-name="breve" unicode="&#x2d8;" 
d="M365 1456h90q0 -94 -67.5 -159.5t-164.5 -65.5q-93 0 -160 66t-67 159h92q0 -57 39 -95t96 -38q59 0 98 38t44 95z" />
    <glyph glyph-name="dotaccent" unicode="&#x2d9;" 
d="M350 1329q0 -54 -35.5 -89.5t-89.5 -35.5t-89.5 35.5t-35.5 89.5t35.5 89.5t89.5 35.5t89.5 -35.5t35.5 -89.5z" />
    <glyph glyph-name="ring" unicode="&#x2da;" 
d="M434 1313q0 -69 -48 -117.5t-120 -48.5q-69 0 -117.5 48.5t-48.5 117.5q0 71 48 119.5t118 48.5q72 0 120 -48t48 -120zM369 1313q0 43 -30 72.5t-73 29.5q-41 0 -69.5 -29.5t-28.5 -72.5q0 -41 28.5 -70t69.5 -29q43 0 73 29t30 70z" />
    <glyph glyph-name="ogonek" unicode="&#x2db;" 
d="M238 31h57q-98 -150 -98 -236q0 -51 32 -81.5t76 -30.5q43 0 113 38v-102q-100 -45 -158 -45q-78 0 -132 43t-54 123q0 26 8.5 54.5t18.5 50t31 52t33.5 46t38.5 47t34 41.5z" />
    <glyph glyph-name="tilde" unicode="&#x2dc;" 
d="M334 1260q-33 0 -65.5 15.5t-54.5 34.5t-53.5 34.5t-62.5 15.5q-63 0 -157 -94l-43 39q55 83 106 129.5t113 46.5q35 0 70.5 -16t59.5 -34.5t52.5 -34.5t52.5 -16q63 0 158 95l43 -39q-56 -84 -106 -130t-113 -46z" />
    <glyph glyph-name="hungarumlaut" unicode="&#x2dd;" 
d="M213 1350l-299 -195l-45 41l274 285zM582 1350l-299 -195l-45 41l274 285z" />
    <glyph glyph-name="uni0394" unicode="&#x394;" horiz-adv-x="1339" 
d="M1321 0h-1294l616 1481h27zM1200 70l-543 1233h-4l-510 -1233h1057z" />
    <glyph glyph-name="uni03A9" unicode="&#x3a9;" horiz-adv-x="1488" 
d="M1389 748q0 -102 -38.5 -207.5t-98 -187t-130 -142.5t-135.5 -86l166 -59h152v-66h-412v166q126 64 194 222.5t68 359.5q0 60 -4.5 118t-16.5 125t-30.5 125t-50.5 112.5t-73 93t-100 62t-130 23.5q-70 0 -129 -23t-101 -62t-75 -93.5t-53.5 -112.5t-34 -124.5
t-18.5 -125.5t-5 -118q0 -201 68 -359.5t194 -222.5v-166h-412v66h154l154 59q-68 25 -137.5 85t-126 141.5t-92.5 186.5t-36 210q0 116 27 224t81.5 200.5t131 161.5t182 108t228.5 39q125 0 230 -38.5t179.5 -106.5t127 -161t77.5 -201t25 -226z" />
    <glyph glyph-name="uni03BC" unicode="&#x3bc;" horiz-adv-x="1196" 
d="M389 -399h-194v1280l-60 65h-90v58l344 20v-702q0 -110 48.5 -165t125.5 -55q46 0 90.5 21.5t72 45.5t69.5 67v645l-60 65h-104v58l358 20v-901l60 -66h118v-57l-372 -20l16 208h-4q-168 -215 -326 -215q-48 0 -92 13v-385z" />
    <glyph glyph-name="pi" unicode="&#x3c0;" horiz-adv-x="1155" 
d="M410 1004h594q38 0 51.5 30t13.5 86v10h57v-30q0 -48 -4 -84t-17.5 -74.5t-36 -64t-62 -43.5t-93.5 -23v-688l62 -66h102v-57h-358v809h-283v-809h-358v57l164 66l131 686h-97q-61 0 -100.5 -32.5t-50.5 -84.5l-6 -30h-58l11 51q11 49 26.5 89t42.5 78.5t62.5 65
t88.5 42.5t118 16z" />
    <glyph glyph-name="uni1E02" unicode="&#x1e02;" horiz-adv-x="1378" 
d="M698 82q170 0 248 83t78 251q0 80 -27 140t-76 96t-111.5 53.5t-137.5 17.5h-154v-602q66 -39 180 -39zM518 805h154q144 0 228.5 73.5t84.5 231.5q0 133 -77.5 197.5t-207.5 64.5q-109 0 -182 -33v-534zM61 1397v57h666q71 0 133.5 -7t131 -28.5t116.5 -56.5t79.5 -96
t31.5 -142q0 -79 -27 -139t-75.5 -97t-102 -59t-121.5 -36v-5q47 -3 93.5 -13.5t100.5 -36t93.5 -63t66.5 -100t27 -141.5q0 -144 -78.5 -243.5t-211.5 -145t-312 -45.5h-611v57h166l80 86v1168l-80 86h-166zM827 1739q0 -54 -35.5 -89.5t-89.5 -35.5t-89 35.5t-35 89.5
t35 89.5t89 35.5t89.5 -35.5t35.5 -89.5z" />
    <glyph glyph-name="uni1E03" unicode="&#x1e03;" horiz-adv-x="1144" 
d="M147 63v1268l-59 66h-90v57l344 21v-598h4q78 78 144 115.5t159 37.5q126 0 220.5 -66t142 -176.5t47.5 -248.5q0 -118 -33.5 -220.5t-95.5 -179.5t-157.5 -121.5t-213.5 -44.5q-269 0 -412 90zM342 799v-623q38 -59 102 -98t140 -39q71 0 125 38t84.5 101t45.5 135
t15 150q0 114 -33.5 212.5t-104.5 164t-165 65.5q-45 0 -85.5 -17t-64 -35.5t-59.5 -53.5zM360 1739q0 -54 -35 -89.5t-89 -35.5t-89.5 35.5t-35.5 89.5t35.5 89.5t89.5 35.5t89 -35.5t35 -89.5z" />
    <glyph glyph-name="uni1E0A" unicode="&#x1e0a;" horiz-adv-x="1525" 
d="M690 0h-629v57h166l80 86v1168l-80 86h-166v57h633q186 0 326.5 -51t228 -146t131 -223.5t43.5 -290.5q0 -206 -103 -378.5t-271 -268.5t-359 -96zM518 1339v-1189q25 -14 60 -23q64 -23 143 -23q251 0 356 140.5t105 427.5q0 118 -18 221t-57 191.5t-96.5 152t-141 99.5
t-185.5 36q-57 0 -119 -16q-33 -11 -47 -17zM887 1739q0 -54 -35.5 -89.5t-89.5 -35.5t-89.5 35.5t-35.5 89.5t35.5 89.5t89.5 35.5t89.5 -35.5t35.5 -89.5z" />
    <glyph glyph-name="uni1E0B" unicode="&#x1e0b;" horiz-adv-x="1200" 
d="M803 205v581q-25 73 -95 126t-147 53q-71 0 -125 -38t-84.5 -101t-45.5 -135t-15 -150q0 -114 33.5 -213t104.5 -164.5t165 -65.5q46 0 87 17.5t62.5 35.5t59.5 54zM997 1475v-1352l60 -66h123v-57l-377 -20l22 174h-4q-81 -93 -154.5 -137t-170.5 -44q-126 0 -220.5 66
t-142 177t-47.5 249q0 118 33.5 220.5t95.5 179.5t157.5 121t213.5 44q101 0 213 -55h4v356l-60 66h-145v57zM1008 1739q0 -54 -35.5 -89.5t-89.5 -35.5t-89.5 35.5t-35.5 89.5t35.5 89.5t89.5 35.5t89.5 -35.5t35.5 -89.5z" />
    <glyph glyph-name="uni1E1E" unicode="&#x1e1e;" horiz-adv-x="1241" 
d="M1004 1372h-486v-559h303l127 246h37v-574h-37l-127 246h-303v-588l84 -86h213v-57h-754v57h166l80 86v1168l-80 86h-166v57h1127v-348h-37zM831 1739q0 -54 -35 -89.5t-89 -35.5t-89.5 35.5t-35.5 89.5t35.5 89.5t89.5 35.5t89 -35.5t35 -89.5z" />
    <glyph glyph-name="uni1E1F" unicode="&#x1e1f;" horiz-adv-x="714" 
d="M528 1423q-62 0 -90 -41t-28 -122v-256h282v-68h-280v-813l61 -66h123v-57h-543v57h107l57 66v803l-164 30v48h160v36q0 132 32.5 228t107.5 154.5t188 58.5q125 0 200.5 -66.5t75.5 -154.5q0 -43 -12 -64l-168 27q10 27 10 63q0 56 -32.5 96.5t-86.5 40.5zM657 1739
q0 -54 -35.5 -89.5t-89.5 -35.5t-89 35.5t-35 89.5t35 89.5t89 35.5t89.5 -35.5t35.5 -89.5z" />
    <glyph glyph-name="uni1E40" unicode="&#x1e40;" horiz-adv-x="1951" 
d="M1890 0h-667v57h127l84 86v994h-4l-478 -1157h-49l-497 1157h-5v-953l97 -127h168v-57h-605v57h164l82 127v1127l-45 86h-201v57h445l495 -1128h5l452 1128h432v-57h-204l-41 -66v-1188l81 -86h164v-57zM1100 1739q0 -54 -35.5 -89.5t-89.5 -35.5t-89.5 35.5t-35.5 89.5
t35.5 89.5t89.5 35.5t89.5 -35.5t35.5 -89.5z" />
    <glyph glyph-name="uni1E41" unicode="&#x1e41;" horiz-adv-x="1787" 
d="M414 1024l-17 -197h4q164 203 320 203q222 0 270 -203q164 203 320 203q139 0 210.5 -86t71.5 -233v-588l62 -66h102v-57h-514v57h98l58 66v559q0 219 -150 219q-116 0 -245 -133v-645l61 -66h94v-57h-506v57h99l57 66v559q0 219 -145 219q-121 0 -250 -133v-645l57 -66
h98v-57h-514v57h105l59 66v758l-59 65h-105v58zM1024 1329q0 -54 -35.5 -89.5t-89.5 -35.5t-89.5 35.5t-35.5 89.5t35.5 89.5t89.5 35.5t89.5 -35.5t35.5 -89.5z" />
    <glyph glyph-name="uni1E56" unicode="&#x1e56;" horiz-adv-x="1280" 
d="M518 1337v-1194l80 -86h225v-57h-762v57h162l84 86v1168l-84 86h-162v57h625q129 0 224.5 -19t168 -61.5t109.5 -116t37 -178.5q0 -122 -70.5 -220t-191.5 -152t-267 -54h-94v72h78q151 0 232 84.5t81 249.5q0 148 -87 230.5t-206 82.5q-106 0 -182 -35zM772 1739
q0 -54 -35.5 -89.5t-89.5 -35.5t-89.5 35.5t-35.5 89.5t35.5 89.5t89.5 35.5t89.5 -35.5t35.5 -89.5z" />
    <glyph glyph-name="uni1E57" unicode="&#x1e57;" horiz-adv-x="1193" 
d="M391 29v-305l62 -66h143v-57h-553v57h96l58 66v1157l-60 65h-94v58l348 20l-22 -174h4q81 93 154.5 136.5t170.5 43.5q126 0 220.5 -66t142 -176.5t47.5 -248.5q0 -118 -33.5 -220.5t-95.5 -179.5t-157.5 -121.5t-213.5 -44.5q-103 0 -217 56zM391 799v-582
q52 -86 109.5 -132t132.5 -46q71 0 125 38t84.5 101t45.5 135t15 150q0 114 -33.5 212.5t-104.5 164t-165 65.5q-45 0 -85.5 -17t-64 -35.5t-59.5 -53.5zM715 1329q0 -54 -35.5 -89.5t-89.5 -35.5t-89.5 35.5t-35.5 89.5t35.5 89.5t89.5 35.5t89.5 -35.5t35.5 -89.5z" />
    <glyph glyph-name="uni1E60" unicode="&#x1e60;" horiz-adv-x="1157" 
d="M553 1397q-122 0 -186 -63.5t-64 -153.5q0 -60 25.5 -109t69 -83.5t99.5 -65t118 -58.5t124 -57.5t118 -69t99.5 -87.5t69 -117.5t25.5 -153.5q0 -121 -60.5 -215t-156.5 -142.5t-209 -48.5q-30 0 -58 1.5t-54.5 5.5t-47 7t-44.5 10t-38 11t-37.5 13t-31.5 12t-31 12.5
t-27 11.5l-61 -75h-62v483h62l8 -19q70 -162 191 -263t272 -101q124 0 180.5 56t56.5 151q0 61 -26 110.5t-70.5 84t-101.5 65t-120.5 58.5t-127 57.5t-120.5 69t-101.5 87t-70.5 116.5t-26 153q0 160 128.5 275.5t328.5 115.5q64 0 121.5 -11.5t89 -23.5t78.5 -33l33 60h59
v-431h-62l-18 50q-56 145 -143 225t-201 80zM737 1739q0 -54 -35.5 -89.5t-89.5 -35.5t-89.5 35.5t-35.5 89.5t35.5 89.5t89.5 35.5t89.5 -35.5t35.5 -89.5z" />
    <glyph glyph-name="uni1E61" unicode="&#x1e61;" horiz-adv-x="892" 
d="M399 965q-56 0 -97.5 -34t-41.5 -97q0 -45 30 -84t78.5 -68t107 -58t116.5 -62.5t106.5 -72.5t78.5 -95.5t30 -125.5q0 -139 -93 -217t-220 -78q-95 0 -176.5 27.5t-116.5 56.5l-41 -77h-54v389h62l25 -50q61 -125 147.5 -199.5t177.5 -74.5q68 0 109 34t41 95
q0 52 -30.5 95.5t-79 75t-107 62t-117.5 64t-107.5 71.5t-79 93.5t-30.5 122.5q0 128 91.5 200t231.5 72q117 0 234 -45l20 39h56v-358h-62l-14 47q-36 113 -110 182.5t-165 69.5zM565 1329q0 -54 -35.5 -89.5t-89.5 -35.5t-89.5 35.5t-35.5 89.5t35.5 89.5t89.5 35.5
t89.5 -35.5t35.5 -89.5z" />
    <glyph glyph-name="uni1E6A" unicode="&#x1e6a;" horiz-adv-x="1325" 
d="M1262 1481v-437h-37l-148 328h-309v-1227l82 -88h178v-57h-731v57h176l84 88v1227h-309l-148 -328h-37v437h41l72 -27h971l74 27h41zM786 1739q0 -54 -35 -89.5t-89 -35.5t-89.5 35.5t-35.5 89.5t35.5 89.5t89.5 35.5t89 -35.5t35 -89.5z" />
    <glyph glyph-name="uni1E6B" unicode="&#x1e6b;" horiz-adv-x="669" 
d="M651 936h-274v-576v-22q0 -38 0.5 -57.5t3 -53.5t9.5 -53t18.5 -40t31.5 -30.5t47 -9.5q31 0 61 18.5t73 61.5l32 -29q-52 -82 -110.5 -127t-145.5 -45q-57 0 -98 21t-63 52t-34.5 81.5t-16 94t-3.5 104.5v600l-137 30v48h133l162 270h37v-270h274v-68zM475 1534
q0 -54 -35.5 -89.5t-89.5 -35.5t-89.5 35.5t-35.5 89.5t35.5 89.5t89.5 35.5t89.5 -35.5t35.5 -89.5z" />
    <glyph glyph-name="Wgrave" unicode="&#x1e80;" horiz-adv-x="1951" 
d="M1911 1417l-96 -151l-445 -1286h-47l-330 966h-4l-338 -966h-45l-502 1331l-77 106v37h557v-57h-144l-90 -86l344 -946h4l246 725l-106 307h-131v57h639v-57h-211l-35 -66l317 -944h4l295 889l-69 121h-179v57h443v-37zM1260 1565l-541 153v172l541 -268v-57z" />
    <glyph glyph-name="wgrave" unicode="&#x1e81;" horiz-adv-x="1576" 
d="M1520 967l-74 -86l-338 -901h-72l-245 608h-5l-231 -608h-72l-364 901l-76 86v37h428v-58h-76l-57 -65l237 -643h5l174 444l-109 264h-78v58h484v-58h-138l-22 -69l237 -639h5l217 643l-58 65h-102v58h330v-37zM1063 1155l-541 154v172l541 -269v-57z" />
    <glyph glyph-name="Wacute" unicode="&#x1e82;" horiz-adv-x="1951" 
d="M1911 1417l-96 -151l-445 -1286h-47l-330 966h-4l-338 -966h-45l-502 1331l-77 106v37h557v-57h-144l-90 -86l344 -946h4l246 725l-106 307h-131v57h639v-57h-211l-35 -66l317 -944h4l295 889l-69 121h-179v57h443v-37zM1260 1718l-541 -153v57l541 268v-172z" />
    <glyph glyph-name="wacute" unicode="&#x1e83;" horiz-adv-x="1576" 
d="M1520 967l-74 -86l-338 -901h-72l-245 608h-5l-231 -608h-72l-364 901l-76 86v37h428v-58h-76l-57 -65l237 -643h5l174 444l-109 264h-78v58h484v-58h-138l-22 -69l237 -639h5l217 643l-58 65h-102v58h330v-37zM1061 1309l-541 -154v57l541 269v-172z" />
    <glyph glyph-name="Wdieresis" unicode="&#x1e84;" horiz-adv-x="1951" 
d="M1911 1417l-96 -151l-445 -1286h-47l-330 966h-4l-338 -966h-45l-502 1331l-77 106v37h557v-57h-144l-90 -86l344 -946h4l246 725l-106 307h-131v57h639v-57h-211l-35 -66l317 -944h4l295 889l-69 121h-179v57h443v-37zM901 1739q0 -54 -35.5 -89.5t-89.5 -35.5
t-89.5 35.5t-35.5 89.5t35.5 89.5t89.5 35.5t89.5 -35.5t35.5 -89.5zM1327 1739q0 -54 -35.5 -89.5t-89.5 -35.5t-89.5 35.5t-35.5 89.5t35.5 89.5t89.5 35.5t89.5 -35.5t35.5 -89.5z" />
    <glyph glyph-name="wdieresis" unicode="&#x1e85;" horiz-adv-x="1576" 
d="M1520 967l-74 -86l-338 -901h-72l-245 608h-5l-231 -608h-72l-364 901l-76 86v37h428v-58h-76l-57 -65l237 -643h5l174 444l-109 264h-78v58h484v-58h-138l-22 -69l237 -639h5l217 643l-58 65h-102v58h330v-37zM702 1329q0 -54 -35 -89.5t-89 -35.5t-89.5 35.5
t-35.5 89.5t35.5 89.5t89.5 35.5t89 -35.5t35 -89.5zM1128 1329q0 -54 -35 -89.5t-89 -35.5t-89.5 35.5t-35.5 89.5t35.5 89.5t89.5 35.5t89 -35.5t35 -89.5z" />
    <glyph glyph-name="Ygrave" unicode="&#x1ef2;" horiz-adv-x="1323" 
d="M1161 1311l-377 -617v-551l97 -86h141v-57h-688v57h139l100 86v500l-428 668l-112 106v37h600v-57h-172l-66 -86l346 -559h4l318 559l-80 86h-154v57h461v-37zM993 1565l-540 153v172l540 -268v-57z" />
    <glyph glyph-name="ygrave" unicode="&#x1ef3;" horiz-adv-x="1099" 
d="M344 -305q68 0 106.5 58t38.5 126q0 112 -61 246l-297 756l-92 86v37h467v-58h-103l-57 -65l270 -738h5l227 738l-57 65h-103v58h348v-37l-80 -86l-329 -908q-148 -399 -377 -399q-161 0 -246 111l172 118q38 -108 168 -108zM864 1155l-540 154v172l540 -269v-57z" />
    <glyph glyph-name="enspace" unicode="&#x2002;" horiz-adv-x="1024" 
 />
    <glyph glyph-name="emspace" unicode="&#x2003;" horiz-adv-x="2048" 
 />
    <glyph glyph-name="threeperemspace" unicode="&#x2004;" horiz-adv-x="681" 
 />
    <glyph glyph-name="fourperemspace" unicode="&#x2005;" horiz-adv-x="512" 
 />
    <glyph glyph-name="thinspace" unicode="&#x2009;" horiz-adv-x="245" 
 />
    <glyph glyph-name="hairspace" unicode="&#x200a;" horiz-adv-x="153" 
 />
    <glyph glyph-name="endash" unicode="&#x2013;" horiz-adv-x="1069" 
d="M944 545h-819v82h819v-82z" />
    <glyph glyph-name="emdash" unicode="&#x2014;" horiz-adv-x="2093" 
d="M1968 545h-1843v82h1843v-82z" />
    <glyph glyph-name="quoteleft" unicode="&#x2018;" horiz-adv-x="475" 
d="M362 1481l17 -43q-68 -27 -120 -87.5t-52 -131.5q76 -1 121 -41t45 -99q0 -60 -38.5 -99.5t-98.5 -39.5q-63 0 -103.5 45t-40.5 127q0 123 72.5 222.5t197.5 146.5z" />
    <glyph glyph-name="quoteright" unicode="&#x2019;" horiz-adv-x="481" 
d="M131 940l-16 43q68 27 120 87.5t52 131.5q-76 1 -121 40.5t-45 98.5q0 60 38.5 100t98.5 40q63 0 103 -45t40 -127q0 -123 -72.5 -222.5t-197.5 -146.5z" />
    <glyph glyph-name="quotesinglbase" unicode="&#x201a;" horiz-adv-x="495" 
d="M117 -289l-17 43q68 27 120 87.5t52 131.5q-76 1 -121 41t-45 99q0 60 39 99.5t99 39.5q63 0 103 -45t40 -127q0 -123 -72.5 -222.5t-197.5 -146.5z" />
    <glyph glyph-name="quotedblleft" unicode="&#x201c;" horiz-adv-x="894" 
d="M782 1481l17 -43q-68 -27 -120 -87.5t-52 -131.5q76 -1 121 -41t45 -99q0 -60 -39 -99.5t-99 -39.5q-63 0 -103 45t-40 127q0 123 72.5 222.5t197.5 146.5zM362 1481l17 -43q-68 -27 -120 -87.5t-52 -131.5q76 -1 121 -41t45 -99q0 -60 -38.5 -99.5t-98.5 -39.5
q-63 0 -103.5 45t-40.5 127q0 123 72.5 222.5t197.5 146.5z" />
    <glyph glyph-name="quotedblright" unicode="&#x201d;" horiz-adv-x="901" 
d="M131 940l-16 43q68 27 120 87.5t52 131.5q-76 1 -121 40.5t-45 98.5q0 60 38.5 100t98.5 40q63 0 103 -45t40 -127q0 -123 -72.5 -222.5t-197.5 -146.5zM551 940l-16 43q68 27 120 87.5t52 131.5q-76 1 -121 40.5t-45 98.5q0 60 38.5 100t98.5 40q63 0 103 -45t40 -127
q0 -123 -72.5 -222.5t-197.5 -146.5z" />
    <glyph glyph-name="quotedblbase" unicode="&#x201e;" horiz-adv-x="915" 
d="M117 -289l-17 43q68 27 120 87.5t52 131.5q-76 1 -121 41t-45 99q0 60 39 99.5t99 39.5q63 0 103 -45t40 -127q0 -123 -72.5 -222.5t-197.5 -146.5zM537 -289l-17 43q68 27 120 87.5t52 131.5q-76 1 -121 41t-45 99q0 60 39 99.5t99 39.5q63 0 103 -45t40 -127
q0 -123 -72.5 -222.5t-197.5 -146.5z" />
    <glyph glyph-name="dagger" unicode="&#x2020;" horiz-adv-x="917" 
d="M432 1042v50h-45l-256 -74l-63 96l63 100l256 -71h45v43l-74 256l97 63l100 -63l-72 -256v-43h47l256 71l64 -100l-62 -96l-258 74h-47v-50l82 -256l-90 -1185h-41l-84 1183z" />
    <glyph glyph-name="daggerdbl" unicode="&#x2021;" horiz-adv-x="952" 
d="M582 786v-467l-82 -256v-49h47l258 74l61 -96l-63 -101l-256 72h-47v-43l71 -256l-100 -63l-96 63l74 256v43h-46l-256 -72l-63 101l63 96l256 -74h46v49l-82 259v462l82 258v50h-46l-256 -74l-63 96l63 100l256 -71h46v43l-74 256l96 63l100 -63l-71 -256v-43h47l256 71
l63 -100l-61 -96l-258 74h-47v-50z" />
    <glyph glyph-name="bullet" unicode="&#x2022;" horiz-adv-x="700" 
d="M514 571q0 -67 -48 -115t-116 -48t-116 48t-48 115q0 66 48.5 114t115.5 48t115.5 -48t48.5 -114z" />
    <glyph glyph-name="ellipsis" unicode="&#x2026;" horiz-adv-x="1476" 
d="M387 113q0 -60 -40.5 -100t-100.5 -40t-100 40t-40 100t40 99.5t100 39.5t100.5 -39.5t40.5 -99.5zM1370 113q0 -60 -39.5 -100t-99.5 -40t-100.5 40t-40.5 100t40.5 99.5t100.5 39.5t99.5 -39.5t39.5 -99.5zM877 113q0 -60 -40 -100t-100 -40t-99.5 40t-39.5 100
t39.5 99.5t99.5 39.5t100 -39.5t40 -99.5z" />
    <glyph glyph-name="perthousand" unicode="&#x2030;" horiz-adv-x="2666" 
d="M733 1047q0 -85 -19 -160.5t-56.5 -137.5t-102.5 -98.5t-149 -36.5q-85 0 -150.5 37t-103.5 99.5t-57 137.5t-19 159q0 85 19 160.5t57 138t103.5 99t150.5 36.5q68 0 123.5 -24t92.5 -65.5t62.5 -97.5t37 -118t11.5 -129zM539 1047q0 72 -6.5 134t-21.5 117t-42.5 87
t-65.5 32t-65.5 -32.5t-42 -88.5t-21 -117.5t-6.5 -131.5q0 -69 6.5 -130t21.5 -116.5t43 -88t67 -32.5q133 0 133 367zM1550 1454l-1151 -1454h-118q222 281 621.5 780.5t537.5 673.5h110zM1774 406q0 -85 -19 -160.5t-57 -137.5t-103 -98.5t-149 -36.5q-85 0 -150.5 37
t-103.5 99.5t-57 137.5t-19 159q0 85 19 160.5t57 138t103.5 99t150.5 36.5q84 0 149 -36.5t103 -99t57 -138t19 -160.5zM1579 406q0 72 -6.5 134t-21 117t-42 87t-65.5 32t-65.5 -32.5t-42 -88.5t-21 -117.5t-6.5 -131.5t6.5 -130.5t21 -116t42.5 -88t67 -32.5
q133 0 133 367zM2593 406q0 -85 -19 -160.5t-57 -137.5t-103 -98.5t-149 -36.5q-85 0 -150.5 37t-103.5 99.5t-57 137.5t-19 159q0 85 19 160.5t57 138t103.5 99t150.5 36.5q84 0 149 -36.5t103 -99t57 -138t19 -160.5zM2398 406q0 72 -6.5 134t-21 117t-42 87t-65.5 32
t-65.5 -32.5t-42 -88.5t-21 -117.5t-6.5 -131.5t6.5 -130.5t21 -116t42.5 -88t67 -32.5q133 0 133 367z" />
    <glyph glyph-name="guilsinglleft" unicode="&#x2039;" horiz-adv-x="585" 
d="M455 72l-359 399v57l359 394h30l-223 -424l223 -426h-30z" />
    <glyph glyph-name="guilsinglright" unicode="&#x203a;" horiz-adv-x="585" 
d="M489 475l-356 -399h-33l226 426l-226 424h33l356 -396v-55z" />
    <glyph glyph-name="exclamdbl" unicode="&#x203c;" horiz-adv-x="1099" 
d="M377 1006l-70 -600h-55l-70 600v448h195v-448zM418 113q0 -60 -39.5 -100t-99.5 -40t-100 40t-40 100t40 99.5t100 39.5t99.5 -39.5t39.5 -99.5zM920 1006l-70 -600h-55l-70 600v448h195v-448zM961 113q0 -60 -40 -100t-100 -40t-99.5 40t-39.5 100t39.5 99.5t99.5 39.5
t100 -39.5t40 -99.5z" />
    <glyph glyph-name="fraction" unicode="&#x2044;" horiz-adv-x="286" 
d="M782 1454l-1151 -1454h-118q222 281 621.5 780.5t537.5 673.5h110z" />
    <glyph glyph-name="Euro" unicode="&#x20ac;" horiz-adv-x="1429" 
d="M225 831h-143v95h158q25 121 78 221.5t129.5 175.5t180.5 116.5t224 41.5q96 0 164.5 -21t144.5 -63l51 76h62v-443h-62l-20 51q-29 73 -62.5 127t-79.5 99.5t-109 69.5t-140 24q-139 0 -233 -130.5t-119 -344.5h456v-95h-465v-47q0 -72 9 -143h395v-94h-379
q39 -178 150.5 -283.5t293.5 -105.5q116 0 202.5 66t170.5 204l57 -20q-17 -40 -35 -75.5t-46.5 -82t-58.5 -84.5t-71 -76t-84.5 -63.5t-98.5 -40.5t-114 -13q-241 0 -396.5 158.5t-198.5 415.5h-154v94h141q-2 27 -2 84q0 36 4 106z" />
    <glyph glyph-name="trademark" unicode="&#x2122;" horiz-adv-x="2351" 
d="M2210 629h-447v57h62l57 66v475h-4l-238 -598h-69l-246 598h-2v-475l57 -66h82v-57h-354v57h72l61 66v569l-39 76h-94v57h352l209 -536h4l211 536h326v-57h-94l-39 -76v-569l61 -66h72v-57zM666 752l61 -66h143v-57h-600v57h144l57 66v632h-111l-147 -327h-37v416h60
l53 -19h561l55 19h60v-416h-37l-148 327h-114v-632z" />
    <glyph glyph-name="Omega" unicode="&#x2126;" horiz-adv-x="1505" 
d="M1397 748q0 -102 -38.5 -207.5t-98 -187t-130 -142.5t-135.5 -86l166 -59h152v-66h-412v166q126 64 194 222.5t68 359.5q0 60 -4.5 118t-16.5 125t-30.5 125t-50.5 112.5t-73 93t-100 62t-130 23.5q-70 0 -129 -23t-101 -62t-75 -93.5t-53.5 -112.5t-34 -124.5
t-18.5 -125.5t-5 -118q0 -201 68 -359.5t194 -222.5v-166h-411v66h153l154 59q-92 34 -180.5 124t-149.5 225t-61 274q0 116 27 224t81 200.5t130.5 161.5t182 108t228.5 39q125 0 230 -38.5t179.5 -106.5t127 -161t77.5 -201t25 -226z" />
    <glyph glyph-name="onethird" unicode="&#x2153;" horiz-adv-x="1957" 
d="M106 1239l400 236h4v-676l82 -86h149v-58h-643v58h152l82 86v477l-226 -109v72zM1642 1454l-1150 -1454h-119q222 281 621.5 780.5t537.5 673.5h110zM1845 729l-332 -229v-4q43 18 121 18q96 0 162 -67.5t66 -188.5q0 -124 -88 -204.5t-203 -80.5q-213 0 -299 217l43 15
q91 -84 221 -84q88 0 130 52.5t42 131.5q0 69 -46.5 110.5t-107.5 41.5q-70 0 -145 -43v69l207 168v4h-305l32 185h21l72 -27h409v-84z" />
    <glyph glyph-name="twothirds" unicode="&#x2154;" horiz-adv-x="1972" 
d="M401 1427q-43 0 -69.5 -26.5t-26.5 -73.5q0 -48 14 -90l-210 -37q-9 15 -9 55q0 91 87.5 158.5t224.5 67.5q50 0 95.5 -10t88.5 -32.5t68.5 -66t25.5 -104.5q0 -78 -63 -163t-159 -156.5t-216 -131.5v-4h348l100 133h25l-57 -291h-564v103q78 66 126.5 109t108 103.5
t92.5 107.5t56 102t23 106q0 63 -28 102t-81 39zM1657 1454l-1151 -1454h-119q222 281 621.5 780.5t537.5 673.5h111zM1860 729l-332 -229v-4q43 18 121 18q96 0 161.5 -67.5t65.5 -188.5q0 -124 -88 -204.5t-203 -80.5q-213 0 -299 217l43 15q91 -84 221 -84q88 0 130 52.5
t42 131.5q0 69 -46 110.5t-107 41.5q-71 0 -146 -43v69l207 168v4h-305l33 185h20l72 -27h410v-84z" />
    <glyph glyph-name="oneeighth" unicode="&#x215b;" horiz-adv-x="1906" 
d="M106 1239l400 236h4v-676l82 -86h149v-58h-643v58h152l82 86v477l-226 -109v72zM1642 1454l-1150 -1454h-119q222 281 621.5 780.5t537.5 673.5h110zM1526 -27q-105 0 -187 53.5t-82 141.5q0 74 41.5 128.5t120.5 98.5q-64 39 -103.5 101.5t-39.5 140.5q0 96 80.5 149.5
t185.5 53.5q107 0 178.5 -49t71.5 -113q0 -115 -143 -197q58 -42 91.5 -77t56 -85t22.5 -112q0 -103 -85.5 -168.5t-207.5 -65.5zM1473 365q-80 -74 -80 -166q0 -67 47.5 -113.5t115.5 -46.5q55 0 88 32.5t33 84.5q0 20 -12.5 42.5t-38.5 46.5t-47 40.5t-57 43t-49 36.5z
M1591 508q3 4 15.5 19.5t19.5 26t16.5 27t14 34t4.5 36.5q0 53 -35.5 89t-101.5 36q-45 0 -76 -24.5t-31 -67.5q0 -15 5.5 -29t17 -28.5t22.5 -25.5t30.5 -25.5t31.5 -23t35 -23.5t32 -21z" />
    <glyph glyph-name="threeeighths" unicode="&#x215c;" horiz-adv-x="1896" 
d="M1630 1454l-1151 -1454h-119q219 276 613.5 769.5t546.5 684.5h110zM1513 -27q-105 0 -186.5 53.5t-81.5 141.5q0 74 41.5 128.5t120.5 98.5q-64 39 -103.5 101.5t-39.5 140.5q0 96 80.5 149.5t185.5 53.5q107 0 178.5 -49t71.5 -113q0 -114 -144 -197q58 -42 91.5 -77
t56 -85t22.5 -112q0 -103 -85.5 -168.5t-207.5 -65.5zM1460 365q-80 -74 -80 -166q0 -67 48 -113.5t116 -46.5q55 0 88 32.5t33 84.5q0 20 -13 42.5t-38.5 46.5t-47 41t-57 42.5t-49.5 36.5zM1579 508q3 4 15.5 19.5t19.5 26t16.5 27t14 34t4.5 36.5q0 53 -36 89t-102 36
q-45 0 -75.5 -24.5t-30.5 -67.5q0 -15 5.5 -29t17 -28.5t22.5 -25.5t30.5 -25.5t31.5 -23t35 -23.5t32 -21zM647 1370l-332 -229v-4q43 18 121 18q96 0 162 -67.5t66 -188.5q0 -124 -88 -204.5t-203 -80.5q-213 0 -299 217l43 15q91 -84 221 -84q88 0 130 52.5t42 131.5
q0 69 -46.5 110.5t-107.5 41.5q-70 0 -145 -43v69l207 168v4h-305l32 185h21l72 -27h409v-84z" />
    <glyph glyph-name="fiveeighths" unicode="&#x215d;" horiz-adv-x="1906" 
d="M1634 1454l-1151 -1454h-118q222 281 621.5 780.5t537.5 673.5h110zM1518 -27q-105 0 -187 53.5t-82 141.5q0 74 41.5 128.5t120.5 98.5q-64 39 -103.5 101.5t-39.5 140.5q0 96 80.5 149.5t185.5 53.5q107 0 178.5 -49t71.5 -113q0 -114 -144 -197q58 -42 91.5 -77
t56 -85t22.5 -112q0 -103 -85 -168.5t-207 -65.5zM1464 365q-80 -74 -80 -166q0 -67 48 -113.5t116 -46.5q55 0 88 32.5t33 84.5q0 20 -13 42.5t-38.5 46.5t-47 41t-57 42.5t-49.5 36.5zM1583 508q3 4 15.5 19.5t19.5 26t16.5 27t14 34t4.5 36.5q0 53 -35.5 89t-101.5 36
q-45 0 -76 -24.5t-31 -67.5q0 -15 5.5 -29t17 -28.5t22.5 -25.5t30.5 -25.5t31.5 -23t35 -23.5t32 -21zM377 1167q130 0 211.5 -71.5t81.5 -196.5q0 -123 -93 -204t-208 -81q-213 0 -299 217l47 21q98 -90 217 -90q89 0 135.5 53t46.5 131q0 68 -51.5 110t-112.5 42
q-85 0 -153 -68h-62l68 424h352l76 27h20l-32 -185h-367l-49 -186h4q31 19 46.5 28t50 19t71.5 10z" />
    <glyph glyph-name="seveneighths" unicode="&#x215e;" horiz-adv-x="1701" 
d="M1419 1454l-1151 -1454h-118q222 281 621.5 780.5t537.5 673.5h110zM1323 -27q-105 0 -186.5 53.5t-81.5 141.5q0 74 41.5 128.5t120.5 98.5q-64 39 -104 101.5t-40 140.5q0 96 80.5 149.5t185.5 53.5q107 0 178.5 -49t71.5 -113q0 -115 -143 -197q58 -42 91.5 -77
t56 -85t22.5 -112q0 -103 -85.5 -168.5t-207.5 -65.5zM1270 365q-80 -74 -80 -166q0 -67 48 -113.5t116 -46.5q55 0 88 32.5t33 84.5q0 20 -13 42.5t-38.5 46.5t-47 41t-57 42.5t-49.5 36.5zM1389 508q3 3 15.5 19.5t19 26t16 26.5t14 34.5t4.5 36.5q0 53 -35.5 89
t-101.5 36q-45 0 -76 -24.5t-31 -67.5q0 -17 9 -34.5t19.5 -30.5t33 -31.5t35 -27t41.5 -28t37 -24.5zM147 1481h21l72 -27h430v-82q-251 -304 -275 -717h-233q63 277 381 637v4h-283l-133 -143h-37z" />
    <glyph glyph-name="arrowleft" unicode="&#x2190;" horiz-adv-x="1454" 
d="M436 436l-74 -74l-362 365l362 363l72 -70l-229 -232h1249v-100h-1272z" />
    <glyph glyph-name="arrowup" unicode="&#x2191;" horiz-adv-x="1454" 
d="M780 0h-108v1260l-238 -240l-72 70l365 364l365 -364l-72 -72l-240 235v-1253z" />
    <glyph glyph-name="arrowright" unicode="&#x2192;" horiz-adv-x="1454" 
d="M0 688v100h1249l-229 230l72 72l362 -363l-362 -362l-72 69l252 254h-1272z" />
    <glyph glyph-name="arrowdown" unicode="&#x2193;" horiz-adv-x="1454" 
d="M362 362l74 74l236 -233v1251h108v-1261l240 241l72 -69l-365 -365z" />
    <glyph glyph-name="uni2196" unicode="&#x2196;" horiz-adv-x="1454" 
d="M104 727h-104v727h725v-100h-535l1233 -1231l-75 -76l-1244 1243v-563z" />
    <glyph glyph-name="uni2197" unicode="&#x2197;" horiz-adv-x="1454" 
d="M115 45l-72 68l1241 1241h-559v100h729v-729h-100v561z" />
    <glyph glyph-name="uni2198" unicode="&#x2198;" horiz-adv-x="1454" 
d="M20 1374l74 76l1260 -1257v532h100v-725h-725l-2 100h567z" />
    <glyph glyph-name="uni2199" unicode="&#x2199;" horiz-adv-x="1454" 
d="M0 727h104v-553l1223 1223l68 -70l-1225 -1227h557l2 -100h-729v727z" />
    <glyph glyph-name="partialdiff" unicode="&#x2202;" horiz-adv-x="1153" 
d="M1067 500q0 -141 -62 -260.5t-178.5 -193t-263.5 -73.5q-126 0 -235 60.5t-174.5 169.5t-65.5 243q0 213 126 337t331 124q79 0 149 -22.5t109 -59.5h4q-60 206 -211.5 373t-319.5 225v58q139 -37 265 -115t220 -179.5t164 -218.5t106 -237.5t36 -230.5zM313 395
q0 -354 244 -354q92 0 159 70.5t97.5 172t30.5 216.5q0 156 -65.5 248t-182.5 92q-71 0 -127.5 -40t-89 -106t-49.5 -142.5t-17 -156.5z" />
    <glyph glyph-name="Delta" unicode="&#x2206;" horiz-adv-x="1394" 
d="M1346 0h-1295l617 1481h26zM1225 70l-543 1233h-4l-510 -1233h1057z" />
    <glyph glyph-name="product" unicode="&#x220f;" horiz-adv-x="1521" 
d="M1231 1311v-1168l78 -86h127v-57h-590v57h84l80 86v1229h-498v-1229l78 -86h86v-57h-590v57h125l80 86v1168l-80 86h-125v57h1350v-57h-127z" />
    <glyph glyph-name="summation" unicode="&#x2211;" horiz-adv-x="1150" 
d="M791 1372h-449l348 -559v-82l-428 -563h545l219 201h37l-72 -369h-917v57l471 625l-451 715v57h881v-348h-37z" />
    <glyph glyph-name="minus" unicode="&#x2212;" horiz-adv-x="1302" 
d="M1155 526h-1008v95h1008v-95z" />
    <glyph glyph-name="uni2219" unicode="&#x2219;" horiz-adv-x="544" 
d="M436 717q0 -67 -48 -115.5t-116 -48.5q-67 0 -115 48t-48 116t48 116t115 48q68 0 116 -48.5t48 -115.5z" />
    <glyph glyph-name="radical" unicode="&#x221a;" horiz-adv-x="1355" 
d="M1354 1452l-553 -1452h-64l-372 879l-62 43l-240 2l3 80h366l340 -809l475 1257h107z" />
    <glyph glyph-name="infinity" unicode="&#x221e;" horiz-adv-x="1404" 
d="M375 819q113 0 248 -119l79 -71l80 71q130 119 248 119q104 0 179 -75t75 -179t-75 -179t-179 -75q-111 0 -225 99l-105 90l-102 -92q-108 -97 -223 -97q-104 0 -179 75t-75 179t75 179t179 75zM866 649l-94 -84l100 -90q77 -69 158 -69q66 0 111 46.5t45 112.5t-45 113
t-111 47q-77 0 -164 -76zM530 475l99 88l-94 86q-87 76 -160 76q-66 0 -111 -47t-45 -113t45 -112.5t111 -46.5q81 0 155 69z" />
    <glyph glyph-name="integral" unicode="&#x222b;" horiz-adv-x="1032" 
d="M721 1423q-62 0 -89.5 -40.5t-27.5 -122.5v-1289q0 -109 -37 -197t-117 -144t-192 -56q-103 0 -167.5 35t-84.5 80l154 100q13 -50 60 -100.5t93 -50.5q49 0 73 43.5t24 148.5v1210q0 98 17.5 176.5t55 139t101 93t149.5 32.5q125 0 201 -66.5t76 -154.5q0 -41 -13 -64
l-168 27q11 29 11 63q0 56 -32.5 96.5t-86.5 40.5z" />
    <glyph glyph-name="approxequal" unicode="&#x2248;" horiz-adv-x="1310" 
d="M864 793q69 0 126.5 16.5t125.5 56.5l49 -78q-143 -94 -303 -94q-70 0 -207 43t-209 43q-118 0 -251 -71q-41 62 -48 75q162 93 295 93q71 0 210 -42t212 -42zM864 369q69 0 126.5 16.5t125.5 56.5l49 -77q-145 -95 -303 -95q-70 0 -207 43t-209 43q-118 0 -251 -71
q-41 62 -48 75q162 93 295 93q71 0 210 -42t212 -42z" />
    <glyph glyph-name="notequal" unicode="&#x2260;" horiz-adv-x="1382" 
d="M1196 301h-573l-117 -238h-121l119 238h-316v94h363l176 355h-539v94h586l113 223h114l-110 -223h305v-94h-352l-174 -355h526v-94z" />
    <glyph glyph-name="lessequal" unicode="&#x2264;" horiz-adv-x="1101" 
d="M975 0h-860v94h860v-94zM975 166l-858 409v101l858 411v-122l-739 -336l739 -340v-123z" />
    <glyph glyph-name="greaterequal" unicode="&#x2265;" horiz-adv-x="1101" 
d="M985 575l-858 -409v123l739 340l-739 336v122l858 -411v-101zM987 0h-860v94h860v-94z" />
    <glyph glyph-name="dotmath" unicode="&#x22c5;" horiz-adv-x="544" 
d="M436 717q0 -67 -48 -115.5t-116 -48.5q-67 0 -115 48t-48 116t48 116t115 48q68 0 116 -48.5t48 -115.5z" />
    <glyph glyph-name="lozenge" unicode="&#x25ca;" horiz-adv-x="1333" 
d="M668 111l469 616l-469 616l-469 -614zM715 0h-94l-553 729l550 723h99l551 -725z" />
    <glyph glyph-name="uniE110" unicode="&#xe110;" horiz-adv-x="1994" 
d="M1831 -94h-1667v1642h1667v-1642zM1724 0v1454h-1454v-1454h1454zM1341 698q0 -67 -11.5 -129t-37 -117.5t-62.5 -96.5t-92.5 -65t-123.5 -24q-69 0 -125 24.5t-93.5 65.5t-63 97t-37 117.5t-11.5 127.5q0 85 19 160.5t57 138.5t103.5 99.5t150.5 36.5q68 0 123.5 -24.5
t92.5 -65.5t62.5 -97.5t37 -118t11.5 -129.5zM1147 698q0 72 -6.5 134t-21 117.5t-42 87.5t-65.5 32t-65.5 -33t-42 -89t-21 -117.5t-6.5 -131.5t6.5 -130t21 -115.5t42.5 -88t67 -32.5q133 0 133 366z" />
    <glyph glyph-name="uniE111" unicode="&#xe111;" horiz-adv-x="1994" 
d="M1831 -94h-1667v1642h1667v-1642zM1724 0v1454h-1454v-1454h1454zM702 891l400 235h4v-675l82 -86h149v-58h-643v58h152l82 86v477l-226 -109v72z" />
    <glyph glyph-name="uniE112" unicode="&#xe112;" horiz-adv-x="1994" 
d="M1831 -94h-1667v1642h1667v-1642zM1724 0v1454h-1454v-1454h1454zM981 1079q-43 0 -69.5 -26.5t-26.5 -73.5q0 -48 14 -90l-211 -37q-8 13 -8 55q0 91 87.5 158.5t223.5 67.5q50 0 95.5 -10t88.5 -32.5t69 -66t26 -104.5q0 -114 -126 -235.5t-313 -215.5v-4h349l100 133
h25l-58 -291h-563v103q78 66 126.5 109t108 103.5t92.5 107.5t56 102t23 106q0 63 -28 102t-81 39z" />
    <glyph glyph-name="uniE113" unicode="&#xe113;" horiz-adv-x="1994" 
d="M1831 -94h-1667v1642h1667v-1642zM1724 0v1454h-1454v-1454h1454zM1268 1022l-332 -229v-5q45 19 121 19q96 0 161.5 -67.5t65.5 -188.5q0 -124 -88 -204.5t-203 -80.5q-213 0 -299 217l43 15q91 -84 221 -84q88 0 130 52.5t42 131.5q0 69 -46 110.5t-107 41.5
q-71 0 -146 -43v69l207 168v4h-305l33 185h20l72 -27h410v-84z" />
    <glyph glyph-name="uniE114" unicode="&#xe114;" horiz-adv-x="1994" 
d="M1831 -94h-1667v1642h1667v-1642zM1724 0v1454h-1454v-1454h1454zM922 1106h233q-28 -50 -63.5 -102.5t-91.5 -122.5t-82.5 -102.5t-104 -122.5t-88.5 -103v-4h199v63l139 174h37v-237h172v-66h-172v-176h-176v176h-293v39q117 175 183.5 302t107.5 282z" />
    <glyph glyph-name="uniE115" unicode="&#xe115;" horiz-adv-x="1994" 
d="M1831 -94h-1667v1642h1667v-1642zM1724 0v1454h-1454v-1454h1454zM981 819q130 0 211.5 -71.5t81.5 -196.5q0 -123 -93 -204t-208 -81q-213 0 -299 217l47 21q98 -90 217 -90q89 0 135.5 53t46.5 131q0 68 -51.5 110t-112.5 42q-85 0 -153 -68h-62l68 424h352l76 27h20
l-32 -185h-367l-49 -186h4q31 19 46.5 28t50 19t71.5 10z" />
    <glyph glyph-name="uniE116" unicode="&#xe116;" horiz-adv-x="1994" 
d="M1831 -94h-1667v1642h1667v-1642zM1724 0v1454h-1454v-1454h1454zM688 578q0 115 64 235.5t176 209.5t239 110v-52q-106 -37 -181.5 -121.5t-106.5 -187.5h2q50 47 129 47q124 0 206 -74t82 -198q0 -119 -90.5 -200t-208.5 -81q-137 0 -224 84.5t-87 227.5zM1116 518
q0 90 -36 158.5t-99 68.5q-47 0 -79 -44.5t-32 -125.5q0 -98 33.5 -165.5t97.5 -67.5q53 0 84 43t31 133z" />
    <glyph glyph-name="uniE117" unicode="&#xe117;" horiz-adv-x="1994" 
d="M1831 -94h-1667v1642h1667v-1642zM1724 0v1454h-1454v-1454h1454zM786 1153h21l72 -27h430v-82q-129 -155 -196.5 -339t-78.5 -377h-233q63 277 381 637v4h-283l-133 -144h-37z" />
    <glyph glyph-name="uniE118" unicode="&#xe118;" horiz-adv-x="1994" 
d="M1831 -94h-1667v1642h1667v-1642zM1724 0v1454h-1454v-1454h1454zM989 266q-105 0 -186.5 53.5t-81.5 141.5q0 74 41.5 128.5t120.5 98.5q-64 39 -104 101.5t-40 140.5q0 96 81 149.5t186 53.5q107 0 178 -49t71 -113q0 -115 -143 -197q58 -42 91.5 -77t56 -85t22.5 -112
q0 -103 -85.5 -168.5t-207.5 -65.5zM936 657q-80 -74 -80 -165q0 -67 48 -113.5t116 -46.5q55 0 88 32.5t33 84.5q0 20 -13 42.5t-38.5 46t-47 40.5t-57 42.5t-49.5 36.5zM1055 801q3 3 15.5 19.5t19 26t16 26.5t14 34.5t4.5 36.5q0 53 -35.5 89t-101.5 36
q-45 0 -75.5 -24.5t-30.5 -67.5q0 -15 5.5 -29t17 -28.5t22.5 -25.5t30.5 -25.5t31.5 -23t35 -23.5t32 -21z" />
    <glyph glyph-name="uniE119" unicode="&#xe119;" horiz-adv-x="1994" 
d="M1831 -94h-1667v1642h1667v-1642zM1724 0v1454h-1454v-1454h1454zM1329 821q0 -115 -64 -235.5t-175.5 -209.5t-237.5 -110v51q106 37 181 121.5t106 188.5h-2q-26 -25 -54 -36t-73 -11q-123 0 -204 74t-81 198q0 120 88 200.5t207 80.5q137 0 223 -84.5t86 -227.5z
M909 881q0 -92 33 -160t96 -68q46 0 75.5 44t29.5 126q0 100 -31 167t-94 67q-109 0 -109 -176z" />
    <glyph glyph-name="uniE11B" unicode="&#xe11b;" horiz-adv-x="1269" 
d="M1712 0v-94h-1548v1642h1548v-94h-1442v-1454h1442zM1239 698q0 -67 -11.5 -129t-37 -117.5t-63 -96.5t-93 -65t-123.5 -24q-69 0 -125 24.5t-93 65.5t-62.5 97t-37 117.5t-11.5 127.5q0 68 11.5 129.5t37 118t62.5 97.5t93 65.5t125 24.5q68 0 123.5 -24.5t93 -65.5
t63 -97.5t37 -118.5t11.5 -129zM1044 698q0 72 -6.5 134t-21 117.5t-42 87.5t-65.5 32t-65.5 -33t-42 -89t-21 -117.5t-6.5 -131.5t6.5 -130t21 -115.5t42.5 -88t67 -32.5q133 0 133 366z" />
    <glyph glyph-name="uniE11C" unicode="&#xe11c;" horiz-adv-x="1269" 
d="M1712 0v-94h-1548v1642h1548v-94h-1442v-1454h1442zM600 891l399 235h5v-675l81 -86h150v-58h-643v58h151l82 86v477l-225 -109v72z" />
    <glyph glyph-name="uniE11D" unicode="&#xe11d;" horiz-adv-x="1269" 
d="M1712 0v-94h-1548v1642h1548v-94h-1442v-1454h1442zM879 1079q-43 0 -70 -26.5t-27 -73.5q0 -45 15 -90l-211 -37q-8 13 -8 55q0 91 87.5 158.5t223.5 67.5q50 0 95.5 -10t88.5 -32.5t68.5 -66t25.5 -104.5q0 -78 -63 -163t-159 -156.5t-216 -131.5v-4h348l101 133h24
l-57 -291h-563v103q78 66 126.5 109t107.5 103.5t92 107.5t56 102t23 106q0 63 -27.5 102t-80.5 39z" />
    <glyph glyph-name="uniE11E" unicode="&#xe11e;" horiz-adv-x="1269" 
d="M1712 0v-94h-1548v1642h1548v-94h-1442v-1454h1442zM1165 1022l-331 -229v-5q45 19 120 19q96 0 162 -67.5t66 -188.5q0 -124 -88 -204.5t-203 -80.5q-213 0 -299 217l43 15q91 -84 221 -84q88 0 130 52.5t42 131.5q0 69 -46.5 110.5t-107.5 41.5q-70 0 -145 -43v69
l207 168v4h-305l33 185h20l72 -27h409v-84z" />
    <glyph glyph-name="uniE11F" unicode="&#xe11f;" horiz-adv-x="1269" 
d="M1712 0v-94h-1548v1642h1548v-94h-1442v-1454h1442zM819 1106h234q-28 -50 -63.5 -102.5t-91.5 -122.5t-82.5 -102.5t-104 -122.5t-88.5 -103v-4h198v63l140 174h36v-237h172v-66h-172v-176h-176v176h-293v39q117 175 183.5 302t107.5 282z" />
    <glyph glyph-name="uniE120" unicode="&#xe120;" horiz-adv-x="1269" 
d="M1712 0v-94h-1548v1642h1548v-94h-1442v-1454h1442zM879 819q130 0 211 -71.5t81 -196.5q0 -123 -93 -204t-208 -81q-213 0 -299 217l47 21q98 -90 218 -90q89 0 135.5 53t46.5 131q0 68 -51.5 110t-112.5 42q-86 0 -154 -68h-61l68 424h352l76 27h20l-33 -185h-366
l-49 -186h4q31 19 46.5 28t50 19t71.5 10z" />
    <glyph glyph-name="uniE121" unicode="&#xe121;" horiz-adv-x="1269" 
d="M1712 0v-94h-1548v1642h1548v-94h-1442v-1454h1442zM586 578q0 115 64 235.5t176 209.5t239 110v-52q-106 -37 -182 -121.5t-107 -187.5h2q50 47 129 47q124 0 206.5 -74t82.5 -198q0 -119 -90.5 -200t-208.5 -81q-137 0 -224 84.5t-87 227.5zM1014 518q0 90 -36 158.5
t-99 68.5q-47 0 -79 -44.5t-32 -125.5q0 -98 33.5 -165.5t97.5 -67.5q53 0 84 43t31 133z" />
    <glyph glyph-name="uniE122" unicode="&#xe122;" horiz-adv-x="1269" 
d="M1712 0v-94h-1548v1642h1548v-94h-1442v-1454h1442zM684 1153h21l71 -27h430v-82q-250 -303 -274 -716h-234q63 277 381 637v4h-282l-133 -144h-37z" />
    <glyph glyph-name="uniE123" unicode="&#xe123;" horiz-adv-x="1269" 
d="M1712 0v-94h-1548v1642h1548v-94h-1442v-1454h1442zM887 266q-105 0 -187 53.5t-82 141.5q0 74 41.5 128.5t120.5 98.5q-64 39 -103.5 101.5t-39.5 140.5q0 96 80.5 149.5t185.5 53.5q107 0 178.5 -49t71.5 -113q0 -115 -143 -197q58 -42 91.5 -77t56 -85t22.5 -112
q0 -103 -85.5 -168.5t-207.5 -65.5zM834 657q-80 -74 -80 -165q0 -67 48 -113.5t116 -46.5q55 0 87.5 32.5t32.5 84.5q0 20 -12.5 42.5t-38.5 46t-47 40.5t-56.5 42.5t-49.5 36.5zM952 801q3 4 15.5 19.5t19.5 26t16.5 27t14 34t4.5 36.5q0 53 -35.5 89t-101.5 36
q-45 0 -76 -24.5t-31 -67.5q0 -15 5.5 -29t17 -28.5t22.5 -25.5t30.5 -25.5t31.5 -23t35 -23.5t32 -21z" />
    <glyph glyph-name="uniE124" unicode="&#xe124;" horiz-adv-x="1269" 
d="M1712 0v-94h-1548v1642h1548v-94h-1442v-1454h1442zM1227 821q0 -115 -64 -235.5t-175.5 -209.5t-237.5 -110v51q106 37 180.5 121.5t105.5 188.5h-2q-26 -25 -54 -36t-73 -11q-123 0 -203.5 73.5t-80.5 198.5q0 120 88 200.5t207 80.5q137 0 223 -84.5t86 -227.5z
M807 881q0 -92 33 -160t96 -68q46 0 75 44t29 126q0 100 -31 167t-94 67q-108 0 -108 -176z" />
    <glyph glyph-name="uniE126" unicode="&#xe126;" horiz-adv-x="1433" 
d="M-279 -94v94h1442v1454h-1442v94h1549v-1642h-1549zM883 698q0 -67 -11.5 -129t-37 -117.5t-63 -96.5t-93 -65t-123.5 -24q-69 0 -125 24.5t-93.5 65.5t-63 97t-37 117.5t-11.5 127.5q0 85 19 160.5t57 138.5t103.5 99.5t150.5 36.5q68 0 123.5 -24.5t93 -65.5t63 -97.5
t37 -118.5t11.5 -129zM688 698q0 72 -6.5 134t-21 117.5t-42 87.5t-65.5 32t-65.5 -33t-42 -89t-21 -117.5t-6.5 -131.5t6.5 -130t21 -115.5t42.5 -88t67 -32.5q133 0 133 366z" />
    <glyph glyph-name="uniE127" unicode="&#xe127;" horiz-adv-x="1433" 
d="M-279 -94v94h1442v1454h-1442v94h1549v-1642h-1549zM244 891l399 235h4v-675l82 -86h150v-58h-643v58h151l82 86v477l-225 -109v72z" />
    <glyph glyph-name="uniE128" unicode="&#xe128;" horiz-adv-x="1433" 
d="M-279 -94v94h1442v1454h-1442v94h1549v-1642h-1549zM522 1079q-43 0 -69.5 -26.5t-26.5 -73.5q0 -48 14 -90l-211 -37q-8 13 -8 55q0 91 87.5 158.5t223.5 67.5q50 0 95.5 -10t88.5 -32.5t69 -66t26 -104.5q0 -78 -63 -163t-159 -156.5t-216 -131.5v-4h348l100 133h25
l-58 -291h-563v103q78 66 126.5 109t108 103.5t92.5 107.5t56 102t23 106q0 63 -28 102t-81 39z" />
    <glyph glyph-name="uniE129" unicode="&#xe129;" horiz-adv-x="1433" 
d="M-279 -94v94h1442v1454h-1442v94h1549v-1642h-1549zM809 1022l-332 -229v-5q45 19 121 19q96 0 161.5 -67.5t65.5 -188.5q0 -124 -87.5 -204.5t-202.5 -80.5q-213 0 -299 217l43 15q91 -84 221 -84q88 0 130 52.5t42 131.5q0 69 -46.5 110.5t-107.5 41.5q-70 0 -145 -43
v69l207 168v4h-306l33 185h21l71 -27h410v-84z" />
    <glyph glyph-name="uniE12A" unicode="&#xe12a;" horiz-adv-x="1433" 
d="M-279 -94v94h1442v1454h-1442v94h1549v-1642h-1549zM463 1106h233q-28 -50 -63.5 -102.5t-91.5 -122.5t-82.5 -102.5t-104 -122.5t-88.5 -103v-4h199v63l139 174h37v-237h172v-66h-172v-176h-176v176h-293v39q117 175 183.5 302t107.5 282z" />
    <glyph glyph-name="uniE12B" unicode="&#xe12b;" horiz-adv-x="1433" 
d="M-279 -94v94h1442v1454h-1442v94h1549v-1642h-1549zM522 819q130 0 211.5 -71.5t81.5 -196.5q0 -123 -93 -204t-208 -81q-213 0 -299 217l47 21q98 -90 217 -90q89 0 136 53t47 131q0 68 -51.5 110t-112.5 42q-86 0 -154 -68h-61l67 424h352l76 27h21l-33 -185h-367
l-49 -186h4q31 19 46.5 28t50 19t71.5 10z" />
    <glyph glyph-name="uniE12C" unicode="&#xe12c;" horiz-adv-x="1433" 
d="M-279 -94v94h1442v1454h-1442v94h1549v-1642h-1549zM229 578q0 115 64.5 235.5t176.5 209.5t239 110v-52q-106 -37 -182 -121.5t-107 -187.5h2q50 47 129 47q124 0 206.5 -74t82.5 -198q0 -119 -90.5 -200t-208.5 -81q-137 0 -224.5 85t-87.5 227zM657 518
q0 90 -36 158.5t-99 68.5q-47 0 -78.5 -44.5t-31.5 -125.5q0 -98 33.5 -165.5t97.5 -67.5q52 0 83 43t31 133z" />
    <glyph glyph-name="uniE12D" unicode="&#xe12d;" horiz-adv-x="1433" 
d="M-279 -94v94h1442v1454h-1442v94h1549v-1642h-1549zM328 1153h20l72 -27h430v-82q-129 -155 -196.5 -339t-78.5 -377h-233q63 277 381 637v4h-283l-133 -144h-37z" />
    <glyph glyph-name="uniE12E" unicode="&#xe12e;" horiz-adv-x="1433" 
d="M-279 -94v94h1442v1454h-1442v94h1549v-1642h-1549zM530 266q-105 0 -186.5 53.5t-81.5 141.5q0 74 41.5 128.5t120.5 98.5q-64 39 -103.5 101.5t-39.5 140.5q0 96 80.5 149.5t185.5 53.5q107 0 178.5 -49t71.5 -113q0 -115 -144 -197q58 -42 91.5 -77t56 -85t22.5 -112
q0 -103 -85.5 -168.5t-207.5 -65.5zM477 657q-80 -74 -80 -165q0 -67 48 -113.5t116 -46.5q55 0 88 32.5t33 84.5q0 20 -13 42.5t-38.5 46t-47 40.5t-57 42.5t-49.5 36.5zM596 801q3 4 15.5 19.5t19.5 26t16.5 27t14 34t4.5 36.5q0 53 -36 89t-102 36q-45 0 -75.5 -24.5
t-30.5 -67.5q0 -15 5.5 -29t17 -28.5t22.5 -25.5t30.5 -25.5t31.5 -23t35 -23.5t32 -21z" />
    <glyph glyph-name="uniE12F" unicode="&#xe12f;" horiz-adv-x="1433" 
d="M-279 -94v94h1442v1454h-1442v94h1549v-1642h-1549zM870 821q0 -115 -64 -235.5t-175.5 -209.5t-237.5 -110v51q106 37 181 121.5t106 188.5h-2q-26 -25 -54 -36t-73 -11q-123 0 -204 74t-81 198q0 120 88 200.5t207 80.5q137 0 223 -84.5t86 -227.5zM451 881
q0 -92 33 -160t96 -68q46 0 75 44t29 126q0 100 -31 167t-94 67q-108 0 -108 -176z" />
    <glyph glyph-name="commaaccent" unicode="&#xf6c3;" 
d="M164 -426l-17 43q68 40 91 78q-117 3 -117 106q0 50 28.5 77.5t81.5 27.5t83 -30t30 -81q0 -68 -54 -128t-126 -93z" />
    <glyph glyph-name="threequartersemdash" unicode="&#xf6de;" horiz-adv-x="1632" 
d="M1507 545h-1382v82h1382v-82z" />
    <glyph glyph-name="uniF8FF" unicode="&#xf8ff;" horiz-adv-x="1413" 
d="M205 0v1454h1003v-1454h-1003zM801 596v14h-15v-43h15v-28h-15v28h-28v29h-15v29h-16v28h16v17h-16v12h16v31h-16v71h16v17h15v28h57v-45h14v-43h45v31h44v12h-44v45h-16v13h88v45h43v-45h17v59h28v14h-45v-14h-43v117h-14v14h-14v58h-44v14h-16v31h-29v14h-14v14h-14v29
h-74v14h-43v-14h-43v14h-29v-14h-45v-29h-14v-14h-29v-14h-14v-31h-14v-29h-29v-28h-16v-29h-13v-117h-16v14h-29v58h-14v16h-14v-16h-29v-58h-17v-14h17v-14h29v-29h57v-16h190v-13h29v-45h29v-131h-29v-57h-14v29h-15v28h15v29h-15v31h15v28h-60v-14h-71v-14h-58v14h-45
v-14h-14v-88h14v-15h29v-14h45v-29h-74v-45h29v17h16v-131h13v-46h16v-57h29v-43h14v-16h43v-13h14v-45h17v-14h57v-14h145v14h29v14h14v45h29v13h29v16h31v-16h14v16h14v29h31v28h12v160h17v43h-17v45h-57v29h57v29h17v88h-17v14h-12v-14h-119v14h-29v14h-14v-14h-29v14
h-28v-28h28v-31h-28v-12h28v-45h15v-15h14v-14h-14zM233 115v-86h160v28h-14v17h14v57h-14v29h14v14h-28v-14h-46v-29h-40v-16h-46zM1006 174v-14h41v-86h-13v-45h144v86h-41v16h-31v29h-14v14h-86zM758 45v-16h188v16h31v57h-31v58h-28v-29h-31v-16h-29v-13h-29v-45h-28
v-12h-43zM438 188v-14h13v-59h-13v-86h146v16h-17v12h-14v45h-29v13h-14v16h-14v29h-29v14h-16v14h-13zM815 422h14v-43h-28v-17h-15v17h-43v-17h-176v17h-14v29h262v14zM250 727v-102h12v-29h17v-57h28v-60h29v88h-17v43h17v15h-17v28h-12v17h-45v57h-12zM1092 682v-12h14
v-17h-14v-28h-29v-72h29v-14h-29v-60h29v43h14v45h14v115h-28zM612 57v-12h15v-16h100v28h-115zM627 553h43v-14h14v-17h43v-28h-43v28h-43v17h-14v14zM262 772v-31h17v-14h40v14h-12v31h-45zM496 801v-17h14v-12h57v12h-14v17h-57zM1063 741v-14h43v14h14v31h-28v-31h-29z
M496 567v29h28v-29h-28zM743 553h15v-31h-31v17h16v14zM438 348v-43h13v43h-13zM451 291v-29h16v29h-16zM262 625v28h17v-28h-17zM612 625h-28v-15h28v15zM627 596h-15v-29h15v29zM932 362v17h14v-17h-14z" />
    <glyph glyph-name="s_t" unicode="&#xfb06;" horiz-adv-x="1550" 
d="M750 944v-278h-62l-14 47q-36 113 -110 182.5t-165 69.5q-56 0 -97.5 -34t-41.5 -97q0 -45 30 -84t78.5 -68t107 -58t116.5 -62.5t106.5 -72.5t78.5 -95.5t30 -125.5q0 -139 -93 -217t-220 -78q-95 0 -176.5 27.5t-116.5 56.5l-41 -77h-54v389h62l25 -50
q61 -125 147.5 -199.5t177.5 -74.5q68 0 109 34t41 95q0 52 -30.5 95.5t-79 75t-107 62t-117.5 64t-107.5 71.5t-79 93.5t-30.5 122.5q0 128 92 200t233 72h66v55q0 186 101.5 291t281.5 105q164 0 265 -105.5t101 -261.5v-110h275v-68h-275v-576v-20q0 -38 0.5 -58t3 -54
t10 -53.5t19 -40.5t31.5 -30.5t47 -9.5q31 0 60.5 18.5t72.5 61.5l33 -29q-52 -82 -110.5 -127t-145.5 -45q-57 0 -98 21t-63 52t-34.5 81.5t-16 94t-3.5 104.5v600l-137 30v48h86l18 16q22 19 35.5 64t13.5 92q0 105 -59 174t-170 69q-110 0 -166.5 -68.5t-56.5 -174.5
q0 -73 32.5 -138.5t90.5 -93.5z" />
    <glyph glyph-name="Euro.sc" horiz-adv-x="1095" 
d="M344 457h266v-95h-241q41 -105 120 -160t189 -55q194 0 297 213l47 -20q-114 -367 -414 -367q-174 0 -290 109.5t-152 279.5h-94v95h82v26q0 51 6 103h-88v94h110q52 158 176 254t308 96q122 0 225 -47l37 39h51v-340h-61l-13 33q-49 132 -121 190t-170 58t-173 -74.5
t-99 -208.5h309v-94h-317v-11q0 -53 10 -118z" />
    <glyph glyph-name="A.sc" horiz-adv-x="1067" 
d="M70 0v37l67 86l295 743l-35 92l129 107h35l381 -942l88 -86v-37h-467v57h103l57 66l-76 194h-346l-70 -194l58 -66h102v-57h-321zM469 774l-141 -387h293l-148 387h-4z" />
    <glyph glyph-name="Aacute.sc" horiz-adv-x="1067" 
d="M70 0v37l67 86l295 743l-35 92l129 107h35l381 -942l88 -86v-37h-467v57h103l57 66l-76 194h-346l-70 -194l58 -66h102v-57h-321zM469 774l-141 -387h293l-148 387h-4zM819 1309l-540 -154v57l540 269v-172z" />
    <glyph glyph-name="Abreve.sc" horiz-adv-x="1067" 
d="M70 0v37l67 86l295 743l-35 92l129 107h35l381 -942l88 -86v-37h-467v57h103l57 66l-76 194h-346l-70 -194l58 -66h102v-57h-321zM469 774l-141 -387h293l-148 387h-4zM655 1456h90q0 -94 -67 -159.5t-164 -65.5q-93 0 -160 66t-67 159h92q0 -57 39 -95t96 -38
q59 0 97.5 38t43.5 95z" />
    <glyph glyph-name="Acircumflex.sc" horiz-adv-x="1067" 
d="M70 0v37l67 86l295 743l-35 92l129 107h35l381 -942l88 -86v-37h-467v57h103l57 66l-76 194h-346l-70 -194l58 -66h102v-57h-321zM469 774l-141 -387h293l-148 387h-4zM864 1155l-327 154l-328 -154v57l328 269l327 -269v-57z" />
    <glyph glyph-name="acute.sc" 
d="M496 1309l-541 -154v57l541 269v-172z" />
    <glyph glyph-name="acute.uc" 
d="M496 1718l-541 -153v57l541 268v-172z" />
    <glyph glyph-name="Adieresis.sc" horiz-adv-x="1067" 
d="M70 0v37l67 86l295 743l-35 92l129 107h35l381 -942l88 -86v-37h-467v57h103l57 66l-76 194h-346l-70 -194l58 -66h102v-57h-321zM469 774l-141 -387h293l-148 387h-4zM463 1329q0 -54 -35.5 -89.5t-89.5 -35.5t-89.5 35.5t-35.5 89.5t35.5 89.5t89.5 35.5t89.5 -35.5
t35.5 -89.5zM889 1329q0 -54 -35.5 -89.5t-89.5 -35.5t-89.5 35.5t-35.5 89.5t35.5 89.5t89.5 35.5t89.5 -35.5t35.5 -89.5z" />
    <glyph glyph-name="AE.sc" horiz-adv-x="1646" 
d="M989 70h338l211 278h37l-64 -348h-890v57h116l58 66v194h-449l-149 -194l57 -66h102v-57h-333v37l712 909h-114v58h888v-328h-36l-140 258h-344v-381h148l116 211h37v-492h-37l-116 211h-148v-413zM795 881h-2l-396 -494h398v494z" />
    <glyph glyph-name="AEacute.sc" horiz-adv-x="1646" 
d="M989 70h338l211 278h37l-64 -348h-890v57h116l58 66v194h-449l-149 -194l57 -66h102v-57h-333v37l712 909h-114v58h888v-328h-36l-140 258h-344v-381h148l116 211h37v-492h-37l-116 211h-148v-413zM795 881h-2l-396 -494h398v494zM1382 1309l-540 -154v57l540 269v-172z
" />
    <glyph glyph-name="Agrave.sc" horiz-adv-x="1067" 
d="M70 0v37l67 86l295 743l-35 92l129 107h35l381 -942l88 -86v-37h-467v57h103l57 66l-76 194h-346l-70 -194l58 -66h102v-57h-321zM469 774l-141 -387h293l-148 387h-4zM819 1155l-540 154v172l540 -269v-57z" />
    </font>
</defs>
</svg>
