<?xml version="1.0" standalone="no"?>
<!DOCTYPE svg PUBLIC "-//W3C//DTD SVG 1.1//EN" "http://www.w3.org/Graphics/SVG/1.1/DTD/svg11.dtd" >
<svg xmlns="http://www.w3.org/2000/svg" xmlns:xlink="http://www.w3.org/1999/xlink" version="1.1">
<metadata>
Created by FontForge 20170731 at Mon Jan  4 12:02:39 2021
 By Aleksey,,,
Copyright (c) 2009 Linotype GmbH, www.linotype.com. All rights reserved. This font software may not be reproduced, modified, disclosed or transferred without the express written approval of Linotype GmbH. Swift is a trademark of Linotype GmbH and may be registered in certain jurisdictions. This typeface is original artwork of Gerard Unger. The design may be protected in certain jurisdictions.
</metadata>
<defs>
<font id="SwiftNeueLTPro-Regular" horiz-adv-x="1093" >
  <font-face 
    font-family="Swift Neue LT Pro"
    font-weight="400"
    font-stretch="normal"
    units-per-em="2048"
    panose-1="2 10 5 3 7 4 6 2 2 4"
    ascent="1556"
    descent="-492"
    x-height="995"
    cap-height="1393"
    bbox="-315 -504 2089 1911"
    underline-thickness="102"
    underline-position="-307"
    unicode-range="U+000D-FB04"
  />
<missing-glyph horiz-adv-x="995" 
d="M801 0h-606v1499h606v-1499zM238 41h520v1417h-520v-1417z" />
    <glyph glyph-name="IJ" unicode="IJ" horiz-adv-x="1282" 
d="M598 0h-549v51l178 74v1143l-178 73v52h549v-52l-174 -73v-1143l174 -74v-51zM1272 1341l-178 -71v-1282q0 -116 -28.5 -196t-94.5 -146q-64 -66 -138 -93.5t-184 -27.5q-90 0 -139 12v205h141l66 -135q180 12 180 278v1385l-174 71v52h549v-52z" />
    <glyph glyph-name="ij" unicode="ij" horiz-adv-x="1239" 
d="M444 1356q0 -113 -125 -113q-124 0 -124 109q0 108 124 108q125 0 125 -104zM590 0h-541v51l178 74v721l-178 53v45l365 80v-899l176 -74v-51zM1090 1358q0 -56 -32 -85.5t-93 -29.5q-60 0 -91.5 28t-31.5 81q0 55 30 81.5t93 26.5q125 0 125 -102zM1059 -16
q0 -118 -30.5 -193t-104.5 -143q-61 -55 -128.5 -79t-156.5 -24q-83 0 -139 9v198h131l65 -131q95 26 134.5 90.5t39.5 190.5v942l-174 49v47l363 80v-1036z" />
    <glyph glyph-name="napostrophe" unicode="&#x22;n" horiz-adv-x="1241" 
d="M1221 0h-527v51l166 74v522q0 137 -84 189q-57 36 -182 36q-111 0 -180 -10v-737l155 -74v-51h-518v51l176 74v717l-186 53v45l375 82v-113q21 9 64.5 27.5t64.5 26.5q89 34 124 42.5t93 8.5q129 0 211 -88q41 -42 57.5 -97.5t16.5 -144.5v-559l174 -74v-51zM242 1374
q0 -132 -86 -203q-52 -40 -125 -63l-25 57q66 29 91 63.5t26 98.5h-21q-114 0 -114 96q0 46 31 73.5t83 27.5q68 0 104 -38.5t36 -111.5z" />
    <glyph glyph-name="f_j" unicode="fj" horiz-adv-x="1218" 
d="M1071 1329q0 -47 -30.5 -76.5t-77.5 -29.5q-77 0 -109 69l-45 94q-37 5 -86 5q-131 0 -219 -74q-49 -40 -69.5 -98.5t-20.5 -161.5v-62h504l133 31v-1036q0 -118 -31 -198.5t-100 -143.5q-60 -54 -129 -76.5t-160 -22.5q-71 0 -139 11v196h131l65 -129q95 26 135.5 90.5
t40.5 190.5v993h-450v-776l155 -74v-51h-520v51l178 74v776h-178v94h178v31q0 246 176 365q127 84 312 84q201 0 291 -48q65 -30 65 -98z" />
    <glyph glyph-name="ij.sc" unicode="&#xe63a;&#xe643;" horiz-adv-x="1384" 
d="M602 0h-512v57l162 62v809l-162 61v58h512v-58l-162 -61v-809l162 -62v-57zM1305 989l-162 -61v-944q0 -118 -30.5 -193t-104.5 -143q-61 -55 -128.5 -79t-156.5 -24q-83 0 -139 9v198h131l65 -131q95 26 134.5 90.5t39.5 190.5v1026l-161 61v58h512v-58z" />
    <glyph glyph-name="f_f" unicode="ff" horiz-adv-x="1337" 
d="M414 901v-776l155 -74v-51h-520v51l178 74v776h-178v94h178v6q0 119 45 212.5t131 150.5q122 84 312 84q206 0 291 -45l20 -14q120 84 313 84q125 0 207 -31v-178h-135l-59 127q-12 2 -29 2q-49 0 -100.5 -16.5t-87.5 -43.5q-86 -65 -86 -227v-111h309v-94h-309v-776
l219 -74v-51h-582v51l176 74v776h-448zM887 1219l-68 139q-33 6 -96 6q-135 0 -219 -74q-49 -40 -69.5 -98.5t-20.5 -161.5v-35h448v80q0 86 25 144z" />
    <glyph glyph-name="fi" unicode="fi" horiz-adv-x="1277" 
d="M1227 0h-518v51l155 74v776h-450v-776l155 -74v-51h-520v51l178 74v776h-178v94h178v31q0 246 176 365q127 84 312 84q201 0 291 -48q65 -30 65 -98q0 -47 -30.5 -76.5t-77.5 -29.5q-77 0 -109 69l-45 94q-37 5 -86 5q-131 0 -219 -74q-49 -40 -69.5 -98.5t-20.5 -161.5
v-62h504l133 31v-901l176 -74v-51z" />
    <glyph glyph-name="fl" unicode="fl" horiz-adv-x="1247" 
d="M1227 0h-518v51l155 74v1145l-55 116q-35 5 -90 5q-66 0 -122.5 -20.5t-92.5 -53.5q-52 -44 -71 -100.5t-19 -165.5v-56h237v-94h-237v-776l155 -74v-51h-520v51l178 74v776h-178v94h178v25q0 250 172 369q125 86 310 86q80 0 128 -5t115 -24l99 27v-1348l176 -74v-51z
" />
    <glyph glyph-name="f_f_i" unicode="ffi" horiz-adv-x="1912" 
d="M1049 125l155 -74v-51h-518v51l176 74v776h-448v-776l155 -74v-51h-520v51l178 74v776h-178v94h178v6q0 119 45 212.5t131 150.5q122 84 312 84q206 0 291 -45q15 -10 24 -19q128 91 320 91q202 0 288 -48q68 -30 68 -98q0 -47 -30.5 -76.5t-78.5 -29.5q-76 0 -108 69
l-45 94q-37 5 -86 5q-131 0 -219 -74q-49 -40 -69.5 -98.5t-20.5 -161.5v-62h503l134 31v-901l176 -74v-51h-519v51l154 74v776h-448v-776zM893 1208l-74 150q-33 6 -96 6q-135 0 -219 -74q-49 -40 -69.5 -98.5t-20.5 -161.5v-35h448v31q0 103 31 182z" />
    <glyph glyph-name="f_f_l" unicode="ffl" horiz-adv-x="1882" 
d="M1006 1403l24 -19l6 5q125 86 307 86q80 0 128.5 -5t115.5 -24l99 27v-1348l176 -74v-51h-519v51l154 74v1145l-53 116q-35 5 -90 5q-66 0 -122.5 -20.5t-92.5 -53.5q-52 -44 -71 -100.5t-19 -165.5v-56h237v-94h-237v-776l155 -74v-51h-518v51l176 74v776h-448v-776
l155 -74v-51h-520v51l178 74v776h-178v94h178v6q0 119 45 212.5t131 150.5q122 84 312 84q206 0 291 -45zM893 1208l-74 150q-33 6 -96 6q-135 0 -219 -74q-49 -40 -69.5 -98.5t-20.5 -161.5v-35h448v25q0 110 31 188z" />
    <glyph glyph-name=".notdef" horiz-adv-x="995" 
d="M801 0h-606v1499h606v-1499zM238 41h520v1417h-520v-1417z" />
    <glyph glyph-name=".null" horiz-adv-x="995" 
 />
    <glyph glyph-name="nonmarkingreturn" horiz-adv-x="682" 
 />
    <glyph glyph-name="CR" unicode="&#xd;" horiz-adv-x="995" 
 />
    <glyph glyph-name="space" unicode=" " horiz-adv-x="546" 
 />
    <glyph glyph-name="exclam" unicode="!" horiz-adv-x="516" 
d="M391 1389l-90 -1049h-82l-94 1049h266zM383 100q0 -110 -121 -110q-129 0 -129 108q0 111 129 111q121 0 121 -109z" />
    <glyph glyph-name="quotedbl" unicode="&#x22;" horiz-adv-x="735" 
d="M608 1329q0 -24 -6 -59l-45 -324h-68l-45 324q-6 35 -6 59q0 38 22 60t62 22q41 0 63.5 -21.5t22.5 -60.5zM301 1329q0 -24 -6 -59l-47 -324h-68l-45 324q-6 35 -6 59q0 38 23 60t63 22t63 -22t23 -60z" />
    <glyph glyph-name="numbersign" unicode="#" horiz-adv-x="1255" 
d="M1194 942l-27 -125h-227l-57 -295h229l-27 -125h-227l-78 -397h-139l78 397h-289l-78 -397h-139l78 397h-230l27 125h227l58 295h-230l27 125h227l78 401h139l-77 -401h288l78 401h139l-77 -401h229zM801 817h-289l-57 -295h288z" />
    <glyph glyph-name="dollar" unicode="$" horiz-adv-x="1052" 
d="M940 330q0 -162 -121 -254q-105 -81 -262 -96v-127h-84v124q-113 0 -223 25q-117 31 -139 35v289h69l105 -240q56 -10 157 -10h31v524l-117 72q-90 55 -130.5 89.5t-67.5 82.5q-39 63 -39 166q0 130 95 228t259 112v108h84v-106q101 -5 176 -19q28 -4 53 -9.5t57.5 -13
t55.5 -12.5v-274h-74l-98 229q-66 9 -125 9h-45v-492l133 -80q100 -60 132.5 -85.5t60.5 -65.5q57 -80 57 -209zM473 821v430q-192 -35 -192 -188q0 -45 15.5 -81.5t48 -67t58 -48.5t70.5 -45zM752 299q0 71 -35 129q-9 12 -22 25t-23.5 21.5t-30 22t-27.5 18.5t-30.5 18.5
t-26.5 15.5v-467q56 9 100 33q95 62 95 184z" />
    <glyph glyph-name="percent" unicode="%" horiz-adv-x="1298" 
d="M668 1106q0 -135 -86.5 -223t-219.5 -88q-136 0 -219.5 81.5t-83.5 215.5q0 139 85 224t223 85q137 0 219 -80t82 -215zM1212 1393l-966 -1393h-125l964 1393h127zM1239 295q0 -137 -86 -225t-219 -88q-137 0 -220 82.5t-83 216.5q0 139 84 224t223 85q136 0 218.5 -80.5
t82.5 -214.5zM541 1100q0 97 -46.5 151t-129.5 54q-85 0 -132 -55.5t-47 -155.5q0 -94 46.5 -148.5t127.5 -54.5q83 0 132 56t49 153zM1112 289q0 97 -46.5 151t-129.5 54q-85 0 -131.5 -55.5t-46.5 -155.5q0 -94 46.5 -148.5t127.5 -54.5q83 0 131.5 56t48.5 153z" />
    <glyph glyph-name="ampersand" unicode="&#x26;" horiz-adv-x="1425" 
d="M1374 733l-164 -63v-70q0 -130 -32 -218.5t-111 -178.5l76 -82l157 -70v-51h-305l-67 82q-93 -51 -173 -71.5t-180 -20.5q-224 0 -359.5 100t-135.5 264q0 106 69 187t220 153q-67 77 -93 109q-71 99 -71 223q0 141 94.5 226t249.5 85q137 0 223 -72.5t86 -187.5
q0 -222 -272 -344l415 -459q74 99 74 287v109l-155 63v55h454v-55zM694 1081q0 77 -42.5 124.5t-112.5 47.5q-77 0 -122.5 -46.5t-45.5 -125.5q0 -121 123 -247l43 -46q52 42 94 95q63 92 63 198zM866 150l-450 491q-72 -57 -106 -121t-34 -145q0 -135 88 -213t242 -78
q169 0 260 66z" />
    <glyph glyph-name="quotesingle" unicode="'" horiz-adv-x="430" 
d="M301 1329q0 -24 -6 -59l-47 -324h-68l-45 324q-6 35 -6 59q0 38 23 60t63 22t63 -22t23 -60z" />
    <glyph glyph-name="parenleft" unicode="(" horiz-adv-x="552" 
d="M457 -420l-58 -37q-317 380 -317 961q0 301 74 524.5t243 437.5l58 -39q-64 -97 -106 -210.5t-61.5 -238t-26.5 -231.5t-7 -243q0 -288 40.5 -510.5t160.5 -413.5z" />
    <glyph glyph-name="parenright" unicode=")" horiz-adv-x="552" 
d="M457 504q0 -301 -74 -525t-244 -436l-57 35q63 98 104.5 211.5t61 238t26.5 233t7 243.5t-7 243t-26.5 231t-61 236.5t-104.5 212.5l57 39q318 -381 318 -962z" />
    <glyph glyph-name="asterisk" unicode="*" horiz-adv-x="661" 
d="M641 1102l-227 24l182 -157l-70 -68l-157 182l14 -233h-98l18 237l-158 -186l-71 68l182 157l-225 -24v104l225 -24l-182 157l71 68l158 -188l-18 241h98l-14 -241l155 188l72 -68l-182 -157l227 24v-104z" />
    <glyph glyph-name="plus" unicode="+" 
d="M1055 598h-426v-448h-164v448h-426v160h426v405h164v-405h426v-160z" />
    <glyph glyph-name="comma" unicode="," horiz-adv-x="555" 
d="M418 72q0 -152 -96 -226q-54 -45 -140 -71l-24 65q72 32 100 70t31 110h-27q-125 0 -125 105q0 51 34 83t91 32q76 0 116 -43t40 -125z" />
    <glyph glyph-name="hyphen" unicode="-" horiz-adv-x="497" 
d="M477 455h-457v166h457v-166z" />
    <glyph glyph-name="period" unicode="." horiz-adv-x="497" 
d="M373 100q0 -66 -28.5 -93t-94.5 -27q-68 0 -97.5 28t-29.5 92q0 63 29.5 91t95.5 28t95.5 -28.5t29.5 -90.5z" />
    <glyph glyph-name="slash" unicode="/" horiz-adv-x="507" 
d="M508 1503l-375 -1988h-133l377 1988h131z" />
    <glyph glyph-name="zero" unicode="0" horiz-adv-x="1091" 
d="M1012 666q0 -325 -127.5 -512t-349.5 -187q-104 0 -185.5 43t-131.5 110.5t-82 160t-44 182t-12 186.5q0 326 129.5 512.5t357.5 186.5q207 0 326 -182.5t119 -499.5zM797 657v62t-2.5 74t-6 86t-12 85.5t-20 86t-30.5 74t-42 63t-56.5 39.5t-72.5 16q-42 0 -77 -16
t-60 -40t-45 -64.5t-32.5 -75.5t-21.5 -88t-13 -88.5t-6.5 -89.5t-2.5 -77.5v-66.5q0 -288 59 -426.5t179 -138.5q262 0 262 585z" />
    <glyph glyph-name="one" unicode="1" horiz-adv-x="847" 
d="M807 0h-633v51l217 74v977l-362 -70v62q166 50 303 120q79 39 194 123h62v-1212l219 -74v-51z" />
    <glyph glyph-name="two" unicode="2" horiz-adv-x="1052" 
d="M954 373l-26 -373h-869v74q37 40 226 229q214 214 311 367q51 82 73.5 150t22.5 141q0 135 -74 208.5t-206 73.5q-60 0 -131 -14l-86 -244h-76v291q72 17 131 29q143 32 244 32q186 0 300.5 -95.5t114.5 -250.5q0 -129 -62.5 -232.5t-262.5 -303.5q-123 -126 -308 -289
h496l102 207h80z" />
    <glyph glyph-name="three" unicode="3" horiz-adv-x="1042" 
d="M963 373q0 -173 -145 -278t-384 -105q-91 0 -186 22q-36 8 -75.5 19t-60.5 19l-22 7v295h74l100 -250q52 -8 125 -8q55 0 104 8.5t96 29t81 51.5t54.5 79t20.5 109q0 125 -79.5 198.5t-214.5 73.5h-70v92h84q93 0 165 70t72 194q0 117 -67 178.5t-197 61.5
q-94 0 -159 -10l-95 -244h-73v289q67 17 139 31q157 32 254 32q195 0 305.5 -82t110.5 -225q0 -123 -88 -211.5t-244 -122.5q48 -3 96.5 -14t100 -35.5t90 -59.5t63.5 -90.5t25 -123.5z" />
    <glyph glyph-name="four" unicode="4" horiz-adv-x="1116" 
d="M1044 403h-196v-280l178 -70v-53h-530v53l178 70v280h-643v68l733 866h84v-798h196v-136zM674 539v534l-453 -534h453z" />
    <glyph glyph-name="five" unicode="5" horiz-adv-x="1058" 
d="M958 461q0 -209 -143 -340t-369 -131q-74 0 -178 22q-24 4 -63.5 15.5t-67.5 20.5l-28 9v295h71l103 -248q82 -10 129 -10q157 0 248.5 87.5t91.5 238.5t-97.5 232t-279.5 81q-130 0 -230 -31v613h773v-176h-660v-305q78 22 121.5 29t97.5 7q224 0 352.5 -109t128.5 -300
z" />
    <glyph glyph-name="six" unicode="6" horiz-adv-x="1101" 
d="M1022 406q0 -197 -124 -318t-325 -121q-232 0 -357.5 152.5t-125.5 433.5q0 358 186 571t498 213q142 0 240 -32l-13 -80q-52 8 -102 8q-333 0 -487 -207q-45 -60 -66.5 -126.5t-28.5 -168.5q161 68 308 68q182 0 289.5 -106.5t107.5 -286.5zM815 383q0 145 -74 223
t-211 78q-33 0 -88 -8t-94 -16l-39 -7q-2 -42 -2 -69q0 -42 0.5 -68t3 -73t7 -78.5t13.5 -75t22 -73t33.5 -61t46.5 -50.5t61.5 -31.5t78.5 -12.5q114 0 178 85t64 237z" />
    <glyph glyph-name="seven" unicode="7" horiz-adv-x="995" 
d="M971 1229q-346 -790 -580 -1249h-198q327 547 628 1169h-577l-94 -238h-80v404h901v-86z" />
    <glyph glyph-name="eight" unicode="8" horiz-adv-x="1071" 
d="M981 358q0 -177 -128 -284t-339 -107q-78 0 -152 22t-135.5 63.5t-99 109.5t-37.5 151q0 114 81.5 204t236.5 145l-37 18q-119 67 -169 139.5t-50 175.5q0 152 109 247t282 95q171 0 274 -80.5t103 -214.5q0 -101 -59.5 -173.5t-190.5 -129.5l71 -39q122 -68 181 -151
t59 -191zM743 1028q0 101 -55.5 163t-146.5 62q-94 0 -153.5 -55t-59.5 -141q0 -136 166 -221l104 -56q145 109 145 248zM803 301q0 71 -37 120.5t-133 106.5l-150 88q-115 -64 -167 -136.5t-52 -168.5q0 -111 77 -175t191 -64q123 0 197 62.5t74 166.5z" />
    <glyph glyph-name="nine" unicode="9" horiz-adv-x="1101" 
d="M1012 733q0 -178 -52 -322t-151 -243q-89 -91 -213 -139.5t-264 -48.5q-124 0 -244 26l8 80q72 -2 117 -2q160 0 285.5 57.5t197.5 163.5q37 54 56.5 113t31.5 153q-132 -63 -307 -63q-183 0 -290 105t-107 284q0 197 125.5 318.5t329.5 121.5q108 0 200.5 -41.5
t153.5 -117.5q123 -150 123 -445zM795 772q0 45 -2 83t-8 88.5t-17 90t-31.5 80t-47.5 68t-67.5 44.5t-91.5 17q-112 0 -177.5 -86.5t-65.5 -234.5q0 -143 73 -222t205 -79q86 0 221 30q9 77 9 121z" />
    <glyph glyph-name="colon" unicode=":" horiz-adv-x="552" 
d="M403 897q0 -66 -27 -92.5t-93 -26.5q-69 0 -98 27t-29 92q0 64 28.5 91.5t96.5 27.5q66 0 94 -28t28 -91zM403 100q0 -66 -27 -93t-93 -27q-69 0 -98 27.5t-29 92.5q0 63 29 91t96 28q65 0 93.5 -28.5t28.5 -90.5z" />
    <glyph glyph-name="semicolon" unicode=";" horiz-adv-x="555" 
d="M395 897q0 -66 -27.5 -92.5t-93.5 -26.5q-69 0 -98 27t-29 92q0 64 28.5 91.5t96.5 27.5q66 0 94.5 -28t28.5 -91zM418 72q0 -117 -57 -188.5t-179 -108.5l-24 65q72 32 100 70t31 110h-27q-125 0 -125 105q0 51 34 83t91 32q76 0 116 -43t40 -125z" />
    <glyph glyph-name="less" unicode="&#x3c;" horiz-adv-x="1312" 
d="M1214 129l-1144 498v59l1144 498v-170l-858 -357l858 -358v-170z" />
    <glyph glyph-name="equal" unicode="=" 
d="M1055 786h-1016v152h1016v-152zM1055 375h-1016v149h1016v-149z" />
    <glyph glyph-name="greater" unicode="&#x3e;" horiz-adv-x="1312" 
d="M1214 627l-1144 -498v170l858 358l-858 357v170l1144 -500v-57z" />
    <glyph glyph-name="question" unicode="?" horiz-adv-x="847" 
d="M829 1022q0 -105 -38.5 -185t-133.5 -167l-135 -123q-54 -47 -67 -70.5t-19 -87.5q0 -12 -4 -70h-92l-10 78q0 11 -1 30.5t-1 25.5q0 41 14 70t64 89l104 125q55 67 78.5 132.5t23.5 152.5q0 126 -69 196t-193 70q-109 0 -153 -12l-99 -250h-75v291l145 35q142 32 242 32
q194 0 306.5 -97.5t112.5 -264.5zM514 102q0 -112 -131 -112q-62 0 -95.5 28t-33.5 82q0 107 131 107q129 0 129 -105z" />
    <glyph glyph-name="at" unicode="@" horiz-adv-x="1583" 
d="M1503 571q0 -131 -40 -241.5t-109 -185t-163 -116.5t-200 -42q-7 0 -14 0.5t-25 3.5t-30.5 9.5t-23.5 19.5t-11 32q0 27 2 35l22 166q-66 -82 -89 -108.5t-56 -55.5q-107 -98 -184 -98q-78 0 -122 73t-44 203q0 124 37 240.5t102 195.5q149 181 387 181q74 0 184 -21
l-96 -778q30 0 60 10q106 29 184 148.5t78 298.5q0 235 -135 371.5t-371 136.5q-158 0 -276.5 -52t-190 -146.5t-106.5 -219t-35 -277.5q0 -184 77 -314.5t210.5 -193.5t312.5 -63q103 0 301 35l12 -66q-109 -37 -127 -41q-144 -41 -250 -41q-149 0 -275 41t-220 119.5
t-146.5 200.5t-52.5 276q0 176 53 331t151 271.5t247.5 184t330.5 67.5q137 0 254 -39t203.5 -112.5t135 -186t48.5 -252.5zM971 776q-55 19 -103 19q-155 0 -225 -168q-27 -62 -43 -159.5t-16 -197.5q0 -80 13 -114.5t44 -34.5q17 0 38.5 13t86.5 63q132 105 149 120z" />
    <glyph glyph-name="A" unicode="A" horiz-adv-x="1333" 
d="M1358 0h-527v51l160 78l-149 430h-441l-157 -430l157 -78v-51h-454v51l157 78l525 1274h116l457 -1274l156 -78v-51zM807 643l-113 342q-26 74 -59 186l-201 -528h373z" />
    <glyph glyph-name="B" unicode="B" horiz-adv-x="1191" 
d="M1102 360q0 -74 -32 -146t-85 -116q-59 -50 -141 -74t-219 -24h-576v51l178 74v1143l-178 73v52h572q108 0 179 -18.5t124 -59.5q55 -42 85.5 -110.5t30.5 -143.5q0 -91 -45 -167t-125 -120q-72 -41 -174 -55q77 -4 126 -16.5t102 -40.5q91 -51 134.5 -124.5t43.5 -177.5
zM823 1038q0 122 -65 196.5t-185 74.5h-149v-559h145q111 0 182.5 87.5t71.5 200.5zM885 369q0 135 -85.5 214t-230.5 79h-145v-578h147q88 0 152 24.5t98 66.5t49 90t15 104z" />
    <glyph glyph-name="C" unicode="C" horiz-adv-x="1304" 
d="M1235 362l-25 -311q-113 -33 -204 -51q-114 -20 -240 -20q-184 0 -304.5 43.5t-213.5 142.5q-168 183 -168 485q0 172 56.5 321t162.5 253q98 97 228.5 142.5t310.5 45.5q191 0 383 -49v-313h-74l-98 260q-72 10 -166 10q-290 0 -437 -160q-159 -167 -159 -477
q0 -262 121 -418q73 -92 177 -132t269 -40q52 0 180 8l129 260h72z" />
    <glyph glyph-name="D" unicode="D" horiz-adv-x="1447" 
d="M1368 729q0 -191 -66 -344.5t-192 -251.5q-89 -69 -202 -101t-267 -32h-592v51l178 74v1143l-178 73v52h623q201 0 319.5 -42.5t212.5 -146.5q164 -185 164 -475zM1161 713q0 245 -117 409q-69 93 -162 134.5t-233 41.5h-225v-1204h199q133 0 217 32t159 112
q84 87 123 201.5t39 273.5z" />
    <glyph glyph-name="E" unicode="E" horiz-adv-x="1165" 
d="M1077 319l-33 -319h-995v51l178 74v1143l-178 73v52h987v-312h-69l-97 228h-446v-561h377l69 188h64v-457h-64l-69 185h-377v-570h457l127 225h69z" />
    <glyph glyph-name="F" unicode="F" horiz-adv-x="1013" 
d="M995 1092h-69l-99 217h-405v-561h332l73 188h62v-457h-62l-73 185h-332v-539l219 -74v-51h-592v51l176 74v1143l-176 73v52h946v-301z" />
    <glyph glyph-name="G" unicode="G" horiz-adv-x="1419" 
d="M1399 518l-178 -69v-394q-131 -34 -205 -49q-133 -26 -262 -26q-152 0 -285 50.5t-215 139.5q-174 192 -174 498q0 357 223 565q98 93 227 136.5t308 43.5q158 0 405 -51v-311h-80l-92 256q-65 16 -168 16q-162 0 -267 -37t-183 -121q-166 -169 -166 -477
q0 -247 104 -391q75 -106 181.5 -154.5t265.5 -48.5q118 0 186 10v345l-174 69v51h549v-51z" />
    <glyph glyph-name="H" unicode="H" horiz-adv-x="1492" 
d="M1442 0h-549v51l178 74v549h-647v-549l174 -74v-51h-549v51l178 74v1145l-178 71v52h549v-52l-174 -71v-488h647v488l-178 71v52h549v-52l-174 -71v-1145l174 -74v-51z" />
    <glyph glyph-name="I" unicode="I" horiz-adv-x="649" 
d="M598 0h-549v51l178 74v1143l-178 73v52h549v-52l-174 -73v-1143l174 -74v-51z" />
    <glyph glyph-name="J" unicode="J" horiz-adv-x="632" 
d="M623 1341l-177 -71v-1282q0 -116 -29 -196t-95 -146q-63 -66 -137 -93.5t-185 -27.5q-86 0 -139 12v205h141l66 -135q180 12 180 278v1385l-174 71v52h549v-52z" />
    <glyph glyph-name="K" unicode="K" horiz-adv-x="1273" 
d="M1284 0h-330l-505 735l479 545l-142 61v52h465v-52l-155 -73l-459 -465l487 -678l160 -74v-51zM598 0h-549v51l178 74v1143l-178 73v52h549v-52l-174 -73v-1143l174 -74v-51z" />
    <glyph glyph-name="L" unicode="L" horiz-adv-x="1005" 
d="M995 352l-32 -352h-914v51l178 74v1143l-178 73v52h549v-52l-174 -73v-1174h369l131 258h71z" />
    <glyph glyph-name="M" unicode="M" horiz-adv-x="1740" 
d="M1692 0h-549v51l174 74v1030l-471 -1175h-43l-465 1175v-1030l178 -74v-51h-467v51l176 74v1143l-176 73v52h410l415 -1047l420 1047h398v-52l-179 -73v-1143l179 -74v-51z" />
    <glyph glyph-name="N" unicode="N" horiz-adv-x="1462" 
d="M1442 1341l-176 -73v-1288h-64l-862 1163v-1018l176 -74v-51h-467v51l178 74v1143l-178 73v52h344l758 -1008v883l-174 73v52h465v-52z" />
    <glyph glyph-name="O" unicode="O" horiz-adv-x="1447" 
d="M1368 717q0 -218 -84 -389t-236 -266t-346 -95q-282 0 -452 187.5t-170 498.5q0 121 27 233t82.5 208t133 167t184.5 111.5t232 40.5q150 0 270.5 -54t198.5 -148.5t119 -220.5t41 -273zM1151 684q0 73 -9 143.5t-28.5 143.5t-54 134.5t-80.5 110t-113.5 76t-148.5 27.5
q-96 0 -171.5 -39t-121 -100t-75.5 -145t-41 -165.5t-11 -169.5q0 -294 115.5 -466.5t314.5 -172.5q195 0 309.5 168.5t114.5 454.5z" />
    <glyph glyph-name="P" unicode="P" horiz-adv-x="1099" 
d="M1071 999q0 -98 -39.5 -178t-111.5 -133q-134 -98 -351 -98h-145v-467l217 -72v-51h-592v51l178 72v1145l-178 73v52h529q136 0 222.5 -24.5t149.5 -80.5q121 -106 121 -289zM864 997q0 150 -74.5 231t-222.5 81h-143v-637h96q165 0 254.5 80.5t89.5 244.5z" />
    <glyph glyph-name="Q" unicode="Q" horiz-adv-x="1497" 
d="M1776 -244q-138 -112 -206 -148t-130 -36q-87 0 -239.5 70.5t-282.5 148.5l-267 166l-33 18q-244 23 -391 211.5t-147 477.5q0 151 44.5 286t127 238.5t209 164t280.5 60.5q287 0 457 -188.5t170 -503.5q0 -261 -126 -455t-363 -264q241 -118 342 -158q115 -43 183 -64.5
t89 -24.5t49 -3q48 0 105 17q11 4 104 41zM1143 680q0 88 -12 172t-42.5 170.5t-78 151t-124.5 105t-175 40.5q-193 0 -303.5 -166t-110.5 -453q0 -291 115 -465t311 -174q94 0 169 39.5t121 102t76 146t42 165t12 166.5z" />
    <glyph glyph-name="R" unicode="R" horiz-adv-x="1257" 
d="M1288 0h-336l-454 662h-74v-539l174 -72v-51h-549v51l178 72v1145l-178 73v52h563q123 0 187.5 -16.5t122.5 -61.5q116 -93 116 -258q0 -140 -89 -237t-242 -122l419 -571l162 -76v-51zM821 1038q0 125 -66 198t-188 73h-143v-564h139q115 0 186.5 82.5t71.5 210.5z" />
    <glyph glyph-name="S" unicode="S" horiz-adv-x="1052" 
d="M942 358q0 -175 -125 -278q-124 -100 -319 -100q-114 0 -252 30q-32 7 -70.5 17.5t-66.5 17.5v307h75l103 -256q74 -12 153 -12q140 0 211 49q84 63 84 174q0 28 -5.5 53t-12.5 43.5t-23 38.5t-26.5 31.5t-35 30.5t-36 27t-41.5 28l-203 135q-83 55 -120 88t-64 78
q-49 74 -49 187q0 164 110.5 265t290.5 101q115 0 228 -24l153 -31v-297h-78l-98 250q-84 8 -125 8q-303 0 -303 -203q0 -34 10.5 -65t24 -52t40.5 -45.5t45 -37.5t54 -37l221 -144q92 -58 126 -87.5t63 -72.5q61 -85 61 -217z" />
    <glyph glyph-name="T" unicode="T" horiz-adv-x="1153" 
d="M1153 1051h-74l-94 247h-305v-1173l217 -74v-51h-631v51l217 74v1173h-311l-96 -247h-76v342h1153v-342z" />
    <glyph glyph-name="U" unicode="U" horiz-adv-x="1382" 
d="M1393 1341l-176 -73v-789q0 -261 -138.5 -380t-400.5 -119q-264 0 -388 108t-124 338v842l-176 73v52h549v-52l-177 -73v-826q0 -186 85 -273t266 -87q190 0 278 84t88 266v836l-174 73v52h488v-52z" />
    <glyph glyph-name="V" unicode="V" horiz-adv-x="1308" 
d="M1358 1341l-156 -73l-514 -1288h-100l-469 1288l-158 73v52h528v-52l-157 -73l289 -850q10 -28 63 -199l377 1049l-158 73v52h455v-52z" />
    <glyph glyph-name="W" unicode="W" horiz-adv-x="2039" 
d="M2089 1341l-164 -73l-473 -1288h-86l-356 1089l-383 -1089h-84l-422 1288l-160 73v52h528v-52l-159 -73l243 -787q47 -166 54 -194l383 1106h94l297 -918q36 -117 51 -199l330 992l-160 73v52h467v-52z" />
    <glyph glyph-name="X" unicode="X" horiz-adv-x="1280" 
d="M1288 0h-549v51l162 74l-305 469l-295 -469l154 -74v-51h-465v51l157 74l388 567l-359 576l-153 73v52h526v-52l-141 -73l268 -422l276 422l-141 73v52h436v-52l-160 -73l-356 -514l404 -629l153 -74v-51z" />
    <glyph glyph-name="Y" unicode="Y" horiz-adv-x="1179" 
d="M1239 1341l-156 -73l-374 -576v-567l223 -74v-51h-643v51l223 74v514l-395 629l-156 73v52h539v-52l-146 -73l295 -480l291 480l-145 73v52h444v-52z" />
    <glyph glyph-name="Z" unicode="Z" horiz-adv-x="1142" 
d="M1081 352l-34 -352h-988v68l760 1230h-536l-95 -247h-75v342h962v-62l-762 -1227h564l133 248h71z" />
    <glyph glyph-name="bracketleft" unicode="[" horiz-adv-x="516" 
d="M457 -455h-310v1915h310v-71h-164v-1772h164v-72z" />
    <glyph glyph-name="backslash" unicode="\" horiz-adv-x="507" 
d="M508 -485h-133l-375 1988h131z" />
    <glyph glyph-name="bracketright" unicode="]" horiz-adv-x="516" 
d="M350 -455h-311v72h166v1772h-166v71h311v-1915z" />
    <glyph glyph-name="asciicircum" unicode="^" horiz-adv-x="1177" 
d="M1001 616h-151l-260 605l-262 -605h-152l383 848h62z" />
    <glyph glyph-name="underscore" unicode="_" horiz-adv-x="995" 
d="M995 -248h-995v98h995v-98z" />
    <glyph glyph-name="grave" unicode="`" horiz-adv-x="550" 
d="M524 1141h-102l-399 299h286z" />
    <glyph glyph-name="a" unicode="a" horiz-adv-x="1011" 
d="M993 53l-151 -49q-40 -14 -97 -14q-92 0 -110 100q-42 -22 -96 -47q-50 -22 -70 -30.5t-54 -15.5t-73 -7q-125 0 -204 71t-79 183q0 186 220 237q119 26 290 41l60 4v236q0 71 -18.5 102.5t-69.5 50.5q-46 17 -119 17q-34 0 -57 -2l-89 -174h-122v188l135 35
q134 35 229 35q137 0 213 -56q47 -30 65.5 -72.5t18.5 -115.5v-561q0 -35 6 -47q11 -19 53 -31l119 -33v-45zM629 131v338q-122 -16 -219 -39q-74 -21 -109 -58.5t-35 -101.5q0 -75 54 -120.5t145 -45.5q81 0 151 23z" />
    <glyph glyph-name="b" unicode="b" horiz-adv-x="1148" 
d="M1079 545q0 -117 -44.5 -222t-120 -180t-180.5 -119t-222 -44q-110 0 -326 51v1253l-186 55v43l375 84v-569q104 53 133 64q122 53 186 53q163 0 274 -135t111 -334zM881 492q0 179 -93 286q-87 101 -243 101q-91 0 -170 -29v-758q44 -8 104 -8q158 0 246 59
q156 107 156 349z" />
    <glyph glyph-name="c" unicode="c" horiz-adv-x="944" 
d="M895 61q-109 -34 -127 -38q-144 -43 -250 -43q-200 0 -324 137t-124 356q0 242 155.5 391.5t405.5 149.5q128 0 256 -45v-213h-125l-92 184q-18 2 -43 2q-152 0 -256.5 -121.5t-104.5 -296.5q0 -191 101 -307q53 -60 120.5 -87.5t165.5 -27.5q56 0 94 4t134 21z" />
    <glyph glyph-name="d" unicode="d" horiz-adv-x="1146" 
d="M1126 53l-352 -82v123l-139 -61q-68 -31 -107.5 -42t-83.5 -11q-158 0 -266 136.5t-108 336.5q0 161 70 289t196.5 200t286.5 72q99 0 151 -25v295l-186 55v43l373 84v-1316l165 -52v-45zM774 143v768q-57 13 -125 13q-178 0 -280.5 -112t-102.5 -302q0 -183 92 -289
t250 -106q71 0 166 28z" />
    <glyph glyph-name="e" unicode="e" horiz-adv-x="1013" 
d="M936 535h-657q2 -115 23 -186.5t73 -129.5q103 -115 293 -115q82 0 239 25l13 -68q-89 -27 -138 -41q-132 -40 -254 -40q-206 0 -332 137.5t-126 359.5q0 126 42.5 235t118.5 179q126 123 316 123q121 0 213.5 -55t134.5 -154q20 -43 28 -99t13 -171zM727 641
q-2 88 -13 135.5t-40 85.5q-28 37 -63 53.5t-89 16.5q-106 0 -166.5 -84.5t-74.5 -249.5z" />
    <glyph glyph-name="f" unicode="f" horiz-adv-x="700" 
d="M909 1264h-135l-59 127q-12 2 -29 2q-49 0 -100.5 -16.5t-87.5 -43.5q-86 -65 -86 -227v-111h311v-94h-311v-776l219 -74v-51h-582v51l176 74v776h-176v94h176v80q0 182 129.5 290t347.5 108q125 0 207 -31v-178z" />
    <glyph glyph-name="g" unicode="g" horiz-adv-x="1067" 
d="M1067 852l-313 66q63 -44 102 -107q35 -65 35 -143q0 -142 -109 -235t-276 -93q-56 0 -105 10q-82 -92 -82 -139q0 -32 35 -53q42 -25 119 -25h281q78 0 122.5 -13.5t75.5 -45.5q54 -57 54 -142q0 -159 -164 -280q-69 -50 -167 -78.5t-192 -28.5q-205 0 -340 78
q-57 35 -90 80.5t-33 89.5q0 71 84 129q41 34 138 78q-86 57 -86 125q0 48 53 104q71 78 141 136q-91 25 -139 65q-55 42 -86 105t-31 131q0 145 112.5 246.5t270.5 101.5q122 0 230 -58l360 74v-178zM705 649q0 135 -76 221q-58 70 -142 70q-85 0 -140.5 -67t-55.5 -171
q0 -179 110 -253q54 -35 107 -35q88 0 142.5 65.5t54.5 169.5zM850 -137q0 25 -13 49t-36 37q-34 20 -135 20h-295q-48 0 -86 13q-39 -28 -70 -77.5t-31 -84.5q0 -82 89 -136.5t223 -54.5q146 0 250 68.5t104 165.5z" />
    <glyph glyph-name="h" unicode="h" horiz-adv-x="1251" 
d="M1231 0h-526v51l165 74v522q0 137 -84 189q-57 36 -182 36q-111 0 -180 -10v-737l156 -74v-51h-519v51l177 74v1159l-189 53v45l375 84v-555l131 52q86 33 122.5 42t94.5 9q129 0 211 -88q41 -42 57.5 -97.5t16.5 -144.5v-559l174 -74v-51z" />
    <glyph glyph-name="i" unicode="i" horiz-adv-x="618" 
d="M444 1356q0 -113 -125 -113q-124 0 -124 109q0 108 124 108q125 0 125 -104zM590 0h-541v51l178 74v721l-178 53v45l365 80v-899l176 -74v-51z" />
    <glyph glyph-name="j" unicode="j" horiz-adv-x="620" 
d="M471 1358q0 -56 -32 -85.5t-93 -29.5q-60 0 -91.5 28t-31.5 81q0 55 30 81.5t93 26.5q125 0 125 -102zM440 -16q0 -118 -30.5 -193t-104.5 -143q-61 -55 -128.5 -79t-156.5 -24q-84 0 -139 9v198h131l66 -131q95 26 134.5 90.5t39.5 190.5v942l-174 49v47l362 80v-1036z
" />
    <glyph glyph-name="k" unicode="k" horiz-adv-x="1179" 
d="M1190 0h-318l-419 541l356 350l-139 55v49h487v-49l-205 -65l-305 -279l387 -489l156 -62v-51zM598 0h-539v51l179 74v1159l-189 53v45l375 84v-1341l174 -74v-51z" />
    <glyph glyph-name="l" unicode="l" horiz-adv-x="618" 
d="M598 0h-539v51l179 74v1159l-189 53v45l375 84v-1341l174 -74v-51z" />
    <glyph glyph-name="m" unicode="m" horiz-adv-x="1851" 
d="M1833 0h-530v51l165 74v520q0 131 -63 180q-69 54 -205 54q-118 0 -207 -25q31 -79 31 -195v-534l166 -74v-51h-508v51l156 74v518q0 130 -58.5 184t-199.5 54q-63 0 -166 -19v-737l166 -74v-51h-531v51l178 74v719l-186 53v45l375 82v-113q90 36 174 68q62 23 93 29
t75 6q72 0 121 -27.5t92 -93.5l172 70q93 35 128 43t93 8q127 0 209 -82q46 -45 64 -101t18 -149v-557l178 -74v-51z" />
    <glyph glyph-name="n" unicode="n" horiz-adv-x="1241" 
d="M1221 0h-527v51l166 74v522q0 137 -84 189q-57 36 -182 36q-111 0 -180 -10v-737l155 -74v-51h-518v51l176 74v717l-186 53v45l375 82v-113q21 9 64.5 27.5t64.5 26.5q89 34 124 42.5t93 8.5q129 0 211 -88q41 -42 57.5 -97.5t16.5 -144.5v-559l174 -74v-51z" />
    <glyph glyph-name="o" unicode="o" horiz-adv-x="1112" 
d="M1042 508q0 -146 -61 -269t-176.5 -197.5t-261.5 -74.5q-210 0 -341.5 140.5t-131.5 365.5q0 156 58 277.5t172.5 192.5t270.5 71q217 0 344 -143t127 -363zM836 465q0 52 -5 100.5t-16.5 102t-33.5 97.5t-52.5 80.5t-77 56.5t-104.5 20q-129 0 -200 -109.5t-71 -310.5
q0 -61 7.5 -118.5t27.5 -117.5t51.5 -104t83.5 -72.5t119 -28.5q62 0 111 25.5t78.5 65.5t48.5 95t26 108t7 110z" />
    <glyph glyph-name="p" unicode="p" horiz-adv-x="1177" 
d="M1108 543q0 -159 -73.5 -288t-205.5 -202t-297 -73q-66 0 -131 12v-330l220 -65v-52h-582v52l176 65v1180l-176 53v47l362 82v-127q89 46 136 66q114 51 184 51q163 0 275 -137.5t112 -333.5zM911 483q0 180 -91 288t-245 108q-95 0 -174 -29v-770q67 -6 119 -6
q142 0 228 57q78 52 120.5 145t42.5 207z" />
    <glyph glyph-name="q" unicode="q" horiz-adv-x="1146" 
d="M1147 -455h-539v52l176 67v430q-42 -21 -137 -61q-62 -29 -104 -41t-92 -12q-163 0 -272 138t-109 345q0 279 206 438q142 113 338 113q110 0 213 -39l144 65v-1376l176 -67v-52zM784 143v758q-53 23 -143 23q-167 0 -271 -112.5t-104 -293.5q0 -189 91.5 -296
t254.5 -107q71 0 172 28z" />
    <glyph glyph-name="r" unicode="r" horiz-adv-x="837" 
d="M827 756h-143l-61 121q-25 2 -54 2q-69 0 -155 -33v-721l217 -74v-51h-582v51l178 74v719l-186 53v45l373 82v-127q129 64 197 90.5t112 26.5q47 0 104 -31v-227z" />
    <glyph glyph-name="s" unicode="s" horiz-adv-x="841" 
d="M741 283q0 -132 -92 -219t-233 -87q-69 0 -185 25q-19 4 -40.5 9.5t-48.5 13.5t-42 12v229h86q12 -22 44.5 -85.5t52.5 -98.5q49 -10 94 -10q37 0 70.5 7t64 23t48.5 46t18 71q0 48 -22 76.5t-85 66.5l-188 109q-93 55 -131 121q-43 61 -43 141q0 129 85 205t230 76
q90 0 178 -21q27 -6 109 -28v-209h-88l-84 170q-41 8 -86 8q-89 0 -139 -35.5t-50 -97.5q0 -43 29 -76t100 -74l164 -92q63 -35 94.5 -63t53.5 -66q36 -62 36 -147z" />
    <glyph glyph-name="t" unicode="t" horiz-adv-x="733" 
d="M725 43l-123 -29q-132 -34 -209 -34q-94 0 -145 51q-64 58 -64 180v690h-153v62q139 64 182 110q17 17 46.5 73t51.5 107h62v-258h329v-94h-329v-633q0 -91 33 -133q36 -41 137 -41q81 0 166 19z" />
    <glyph glyph-name="u" unicode="u" horiz-adv-x="1200" 
d="M1169 53l-352 -84v113l-145 -57q-47 -19 -67.5 -26.5t-54 -14.5t-67.5 -7q-57 0 -118.5 17.5t-94.5 48.5q-86 89 -86 250v553l-174 51v47l363 80v-690q0 -135 61 -182q54 -48 178 -48q102 0 205 23v719l-174 51v47l363 80v-870l163 -54v-47z" />
    <glyph glyph-name="v" unicode="v" horiz-adv-x="1028" 
d="M1059 942l-121 -68l-395 -894h-86l-351 905l-126 57v53h477v-53l-144 -57l168 -467q37 -98 62 -211l252 667l-142 68v53h406v-53z" />
    <glyph glyph-name="w" unicode="w" horiz-adv-x="1587" 
d="M1618 942l-123 -68l-360 -894h-97l-237 698l-260 -698h-90l-340 905l-131 57v53h487v-53l-158 -57l176 -504q32 -97 43 -145l285 759h61l220 -628q19 -53 41 -131l223 638l-156 68v53h416v-53z" />
    <glyph glyph-name="x" unicode="x" horiz-adv-x="1107" 
d="M1098 0h-467v51l100 55l-215 306l-217 -295l94 -66v-51h-383v51l148 66l299 377l-271 397l-145 51v53h467v-53l-105 -51l189 -264l201 252l-99 63v53h363v-53l-129 -63l-279 -330l305 -443l144 -55v-51z" />
    <glyph glyph-name="y" unicode="y" horiz-adv-x="1026" 
d="M1057 942l-117 -70l-436 -1067q-57 -139 -141.5 -199.5t-219.5 -60.5q-81 0 -131 9v198h125l64 -127q64 9 107.5 54.5t84.5 148.5l70 174l-357 885l-126 55v53h475v-53l-144 -55l189 -488q27 -70 63 -190l240 663l-139 70v53h393v-53z" />
    <glyph glyph-name="z" unicode="z" horiz-adv-x="987" 
d="M897 0h-817v70l573 831h-360l-100 -186h-72v280h776v-65l-578 -836h402l110 217h66v-311z" />
    <glyph glyph-name="braceleft" unicode="{" horiz-adv-x="808" 
d="M729 -410q-224 3 -326 123q-46 56 -61.5 123.5t-15.5 218.5v162q0 103 -20.5 158.5t-70.5 88.5t-153 58v8q77 19 122.5 40t74 57.5t38 84.5t9.5 126v159q0 151 15.5 219.5t61.5 124.5q51 60 129 89t197 34v-65q-76 -7 -122 -29t-77 -65q-29 -43 -39 -90.5t-10 -149.5
v-115q0 -129 -9 -193t-34 -110q-61 -101 -219 -121q158 -15 219 -120q25 -43 34 -107.5t9 -194.5v-116q0 -102 10 -149.5t39 -88.5q31 -44 77.5 -66t121.5 -28v-66z" />
    <glyph glyph-name="bar" unicode="|" horiz-adv-x="499" 
d="M301 -485h-102v1988h102v-1988z" />
    <glyph glyph-name="braceright" unicode="}" horiz-adv-x="811" 
d="M729 522q-104 -25 -154.5 -58t-71 -88.5t-20.5 -158.5v-162q0 -153 -15 -220t-62 -122q-103 -120 -322 -123v66q141 12 195 94q29 41 39 89t10 149v116q0 129 9.5 194.5t35.5 107.5q62 105 219 120q-161 20 -219 121q-26 45 -35.5 110t-9.5 193v115q0 102 -10 149.5
t-39 90.5t-74.5 65t-120.5 29v65q117 -5 194 -34t128 -89q47 -55 62 -122.5t15 -221.5v-159q0 -78 9.5 -126t38.5 -84.5t74.5 -57.5t123.5 -40v-8z" />
    <glyph glyph-name="asciitilde" unicode="~" horiz-adv-x="1177" 
d="M1157 682q-12 -51 -24.5 -92.5t-36.5 -91.5t-53 -84t-74 -57t-99 -23q-48 0 -108.5 18.5t-192.5 69.5l-102 39q-119 49 -182 49q-71 0 -122 -51.5t-77 -149.5l-66 17q67 350 289 350q79 0 236 -64l129 -51q152 -59 219 -59q70 0 118 48.5t83 154.5z" />
    <glyph glyph-name="uni00A0" unicode="&#xa0;" horiz-adv-x="546" 
 />
    <glyph glyph-name="exclamdown" unicode="&#xa1;" horiz-adv-x="516" 
d="M383 905q0 -110 -129 -110q-61 0 -90 26t-29 82q0 109 119 109q129 0 129 -107zM391 -385h-266l92 1047h82z" />
    <glyph glyph-name="cent" unicode="&#xa2;" horiz-adv-x="944" 
d="M895 61q-109 -34 -127 -38q-103 -28 -158 -35v-156h-84v148h-8q-200 0 -324 137t-124 356q0 215 124 359.5t332 175.5v147h84v-141h21q128 0 256 -45v-213h-125l-92 184q-18 2 -43 2h-17v-838q14 -2 43 -2q56 0 94 4t134 21zM526 115v813q-115 -39 -187.5 -149
t-72.5 -255q0 -191 101 -307q64 -76 159 -102z" />
    <glyph glyph-name="sterling" unicode="&#xa3;" horiz-adv-x="1099" 
d="M1040 223q-63 -155 -116.5 -220.5t-118.5 -65.5q-44 0 -107 18l-313 82q-40 12 -82 12q-33 0 -63.5 -11.5t-92.5 -45.5q-2 -1 -26 -15l-41 60l61 63q57 55 74.5 102t17.5 138v291h-124v94h124v248q0 205 134 291q109 73 247 73q74 0 172 -18l193 -45v-289h-78l-96 240
q-45 10 -129 10q-125 0 -185.5 -59.5t-60.5 -182.5v-268h301v-94h-301v-135q0 -164 -63 -252q-28 -36 -115 -123q91 63 180 63q44 0 105 -12l215 -49q55 -12 77 -12q75 0 164 135z" />
    <glyph glyph-name="currency" unicode="&#xa4;" horiz-adv-x="1177" 
d="M1049 328l-74 -74l-129 127q-72 -50 -126.5 -68t-129.5 -18q-78 0 -131.5 18t-126.5 70l-129 -129l-74 74l129 129q-52 72 -70 126.5t-18 131.5q0 71 18.5 126.5t69.5 131.5l-129 127l74 71l129 -124q74 50 128 68t130 18q73 0 127.5 -19t128.5 -70l129 127l74 -71
l-129 -127q51 -75 70.5 -131t19.5 -127q0 -76 -19 -130.5t-71 -127.5zM866 715q0 113 -81.5 193.5t-194.5 80.5q-115 0 -196 -80t-81 -194q0 -115 80.5 -196t196.5 -81q113 0 194.5 81t81.5 196z" />
    <glyph glyph-name="yen" unicode="&#xa5;" horiz-adv-x="1103" 
d="M1108 1266l-154 -68l-295 -543v-41h271v-86h-271v-116h271v-86h-271v-209l222 -68v-49h-641v49l221 68v209h-268v86h268v116h-268v86h266l-309 584l-158 68v49h524v-49l-145 -68l227 -453l217 453l-145 68v49h438v-49z" />
    <glyph glyph-name="brokenbar" unicode="&#xa6;" horiz-adv-x="450" 
d="M307 745h-164v498h164v-498zM307 -248h-164v496h164v-496z" />
    <glyph glyph-name="section" unicode="&#xa7;" horiz-adv-x="1077" 
d="M938 520q0 -206 -258 -338q154 -89 154 -266q0 -111 -78 -199q-35 -42 -101 -71t-127 -29q-65 0 -149 16q-28 6 -135 35v260h71l86 -215q40 -6 68 -6q209 0 209 170q0 63 -32.5 103t-123.5 90l-139 75q-78 42 -113 69t-69 67q-62 78 -62 182q0 71 31 137t88 113
q51 41 137 86q-78 44 -114.5 107.5t-36.5 154.5q0 122 92 207q38 35 98.5 57.5t114.5 22.5q61 0 160 -19l125 -33v-260h-74l-88 215q-54 6 -84 6q-86 0 -138.5 -42t-52.5 -113q0 -37 11 -65t36 -51t45.5 -36t59.5 -35l147 -81q78 -43 114 -71t67 -69q61 -79 61 -174z
M772 453q0 67 -33.5 114.5t-115.5 94.5l-170 98q-84 -62 -121 -116.5t-37 -115.5q0 -73 43 -129q25 -26 49 -43t102 -61l134 -76q149 115 149 234z" />
    <glyph glyph-name="dieresis" unicode="&#xa8;" horiz-adv-x="552" 
d="M563 1286q0 -104 -100 -104q-47 0 -71.5 24.5t-24.5 69.5q0 102 94 102q49 0 75.5 -24t26.5 -68zM201 1280q0 -98 -99 -98q-98 0 -98 92q0 104 98 104q47 0 73 -25.5t26 -72.5z" />
    <glyph glyph-name="copyright" unicode="&#xa9;" horiz-adv-x="1630" 
d="M1569 731q0 -126 -37 -244t-105.5 -213.5t-160.5 -167.5t-207.5 -111.5t-241.5 -39.5q-209 0 -383.5 102.5t-274.5 279t-100 386.5q0 158 59.5 300.5t161.5 245.5t244.5 163.5t300.5 60.5q159 0 298 -59.5t236.5 -162t153.5 -243t56 -297.5zM1409 731q0 168 -73.5 310
t-208 226.5t-302.5 84.5q-127 0 -239.5 -50t-191.5 -135t-125 -201t-46 -243q0 -169 76.5 -313t213.5 -230t304 -86q168 0 304.5 87t212 232.5t75.5 317.5zM1118 584l-16 -195q-181 -43 -273 -43q-188 0 -299.5 102.5t-111.5 288.5q0 198 124.5 309t321.5 111q94 0 246 -37
v-192h-70l-59 157q-23 2 -59 2q-150 0 -228 -92.5t-78 -246.5q0 -151 70 -240.5t219 -89.5q41 0 78 6l66 160h69z" />
    <glyph glyph-name="ordfeminine" unicode="&#xaa;" horiz-adv-x="663" 
d="M653 838l-100 -31q-24 -6 -64 -6q-61 0 -75 55q-1 -1 -56 -25q-38 -18 -63.5 -24t-65.5 -6q-82 0 -135 41.5t-53 107.5q0 57 38 94.5t107 51.5q54 12 222 26v133q0 41 -10.5 58t-41.5 28q-27 9 -75 9h-35l-58 -103h-86v119l91 20q94 23 149 23q92 0 141 -35
q30 -19 43 -44.5t13 -67.5v-330q0 -23 5.5 -29t30.5 -12l78 -21v-32zM408 889v190q-58 -5 -134 -22q-90 -20 -90 -88q0 -42 33.5 -68.5t91.5 -26.5q19 0 97 15h2z" />
    <glyph glyph-name="guillemotleft" unicode="&#xab;" horiz-adv-x="772" 
d="M670 113h-101l-231 399l231 399h101l-234 -399zM420 113h-101l-231 399l231 399h101l-232 -399z" />
    <glyph glyph-name="logicalnot" unicode="&#xac;" 
d="M1010 256h-127v291h-801v164h928v-455z" />
    <glyph glyph-name="uni00AD" unicode="&#xad;" horiz-adv-x="497" 
d="M477 455h-457v166h457v-166z" />
    <glyph glyph-name="registered" unicode="&#xae;" horiz-adv-x="874" 
d="M815 1126q0 -161 -108.5 -276t-266.5 -115q-159 0 -270 113.5t-111 273.5q0 161 112 273t273 112q160 0 265.5 -110t105.5 -271zM737 1126q0 130 -83 221t-210 91q-130 0 -217.5 -92.5t-87.5 -223.5q0 -132 86 -225.5t215 -93.5q127 0 212 94.5t85 228.5zM637 934h-119
l-127 186h-12v-145l51 -25v-16h-186v16l51 25v311l-51 23v18h190q135 0 135 -98q0 -81 -88 -103l109 -151l47 -25v-16zM477 1225q0 71 -67 71h-31v-149h33q65 0 65 78z" />
    <glyph glyph-name="macron" unicode="&#xaf;" horiz-adv-x="552" 
d="M547 1223h-539v125h539v-125z" />
    <glyph glyph-name="degree" unicode="&#xb0;" horiz-adv-x="808" 
d="M694 1176q0 -122 -85 -206.5t-206 -84.5q-120 0 -204 85t-84 206q0 120 84 204t204 84q121 0 206 -84t85 -204zM598 1176q0 81 -56.5 136.5t-138.5 55.5q-80 0 -136 -55.5t-56 -136.5q0 -80 56.5 -137.5t135.5 -57.5q81 0 138 57.5t57 137.5z" />
    <glyph glyph-name="plusminus" unicode="&#xb1;" 
d="M1055 764h-426v-451h-164v451h-426v160h426v405h164v-405h426v-160zM1055 0h-1016v152h1016v-152z" />
    <glyph glyph-name="twosuperior" unicode="&#xb2;" horiz-adv-x="729" 
d="M672 791l-19 -246h-608v51l131 125q152 140 207 219q72 100 72 190q0 76 -47 116t-125 40q-43 0 -82 -8l-62 -158h-63v199q10 3 98 22q107 19 184 19q126 0 207.5 -58.5t81.5 -150.5q0 -77 -41 -136.5t-145 -150.5q-94 -87 -236 -196h318l65 123h64z" />
    <glyph glyph-name="threesuperior" unicode="&#xb3;" horiz-adv-x="731" 
d="M662 778q0 -105 -97.5 -170t-255.5 -65q-135 0 -264 47v196h64l69 -163q51 -7 74 -7q44 0 80.5 7t71 24t54 50t19.5 79q0 75 -47 117.5t-133 42.5h-53v65h26q181 0 181 148q0 139 -168 139q-66 0 -99 -4l-69 -154h-62v193l107 20q128 19 186 19q134 0 211.5 -50
t77.5 -136q0 -155 -227 -201q113 -12 183.5 -59t70.5 -138z" />
    <glyph glyph-name="acute" unicode="&#xb4;" horiz-adv-x="552" 
d="M528 1440l-397 -299h-104l217 299h284z" />
    <glyph glyph-name="mu" unicode="&#xb5;" horiz-adv-x="1187" 
d="M1149 47l-113 -39q-58 -20 -92 -20q-103 0 -115 98l-2 41q-113 -90 -170 -115.5t-141 -25.5q-52 0 -104 24.5t-76 63.5v-428l-221 -62l-11 45q29 23 62 62q22 30 22 231v905q0 34 -24 41l-111 29v47l322 80v-512q0 -212 22 -268q24 -53 84 -87t135 -34q27 0 79.5 14.5
t90.5 28.5l39 14v647q0 34 -24 41l-111 29v47l320 80v-817q0 -35 6 -47q16 -28 55 -41l78 -27v-45z" />
    <glyph glyph-name="paragraph" unicode="&#xb6;" horiz-adv-x="1163" 
d="M1094 1296h-125v-1226q0 -229 -162 -375q-50 -46 -136 -68t-177 -22q-78 0 -140 10v197h131l66 -129q280 30 280 385v1228h-157v-919q-84 -19 -176 -19q-199 0 -324 137.5t-125 356.5q0 240 155.5 390.5t405.5 150.5h484v-97z" />
    <glyph glyph-name="periodcentered" unicode="&#xb7;" horiz-adv-x="552" 
d="M395 510q0 -51 -35 -87t-84 -36q-51 0 -85.5 36t-34.5 87q0 50 34.5 84.5t85.5 34.5q50 0 84.5 -34.5t34.5 -84.5z" />
    <glyph glyph-name="cedilla" unicode="&#xb8;" horiz-adv-x="552" 
d="M436 -229q0 -76 -79 -137.5t-224 -98.5l-20 47q178 88 178 197q0 41 -23.5 67.5t-60.5 26.5v127h84v-70q145 -9 145 -159z" />
    <glyph glyph-name="onesuperior" unicode="&#xb9;" horiz-adv-x="729" 
d="M618 549l-468 -2v45l147 49v561l-240 -43v55q218 57 342 148h70v-721l149 -47v-45z" />
    <glyph glyph-name="ordmasculine" unicode="&#xba;" horiz-adv-x="700" 
d="M666 1100q0 -133 -90.5 -226.5t-233.5 -93.5q-137 0 -222 83t-85 216q0 143 86.5 233.5t238.5 90.5q141 0 223.5 -85.5t82.5 -217.5zM514 1079q0 33 -4 64t-15.5 65t-29.5 58.5t-48.5 40.5t-70.5 16q-77 0 -118.5 -59t-41.5 -168q0 -41 7.5 -78.5t25.5 -74.5t53 -59
t84 -22q45 0 77.5 20t49.5 53.5t24 68.5t7 75z" />
    <glyph glyph-name="guillemotright" unicode="&#xbb;" horiz-adv-x="774" 
d="M682 514l-231 -401h-101l232 401l-232 397h101zM432 514l-231 -401h-101l234 401l-234 397h101z" />
    <glyph glyph-name="onequarter" unicode="&#xbc;" horiz-adv-x="1773" 
d="M1714 227h-131v-135l119 -47v-45h-391v45l119 47v135h-416v62l479 526h90v-489h131v-99zM1384 1364l-841 -1397h-148l842 1397h147zM608 549l-469 -2v45l148 49v561l-240 -43v55q223 59 342 148h70v-721l149 -47v-45zM1430 324v319l-281 -319h281z" />
    <glyph glyph-name="onehalf" unicode="&#xbd;" horiz-adv-x="1771" 
d="M1735 244l-21 -244h-606v49l131 125q150 138 207 217q72 103 72 195q0 75 -46.5 113t-125.5 38q-55 0 -82 -6l-62 -156h-63v199q89 20 96 21q115 20 186 20q126 0 206.5 -59t80.5 -152q0 -77 -39.5 -135t-144.5 -154q-82 -73 -236 -192h318l65 121h64zM1376 1364
l-839 -1397h-148l840 1397h147zM600 549l-467 -2v45l148 49v561l-240 -43v55q218 57 342 148h70v-721l147 -47v-45z" />
    <glyph glyph-name="threequarters" unicode="&#xbe;" horiz-adv-x="1773" 
d="M1708 227h-131v-135l119 -47v-45h-391v45l120 47v135h-415v62l477 526h90v-489h131v-99zM1401 1364l-842 -1397h-147l839 1397h150zM647 778q0 -104 -97.5 -169.5t-254.5 -65.5q-137 0 -262 47v196h61l70 -163q51 -7 76 -7q43 0 79.5 7t70.5 24t53.5 50t19.5 79
q0 76 -48 118t-134 42h-52v65h27q180 0 180 148q0 72 -41.5 105.5t-128.5 33.5q-65 0 -96 -4l-68 -154h-65v193l108 20q130 19 187 19q134 0 210 -49.5t76 -136.5q0 -154 -225 -201q112 -12 183 -59t71 -138zM1425 326v317l-282 -317h282z" />
    <glyph glyph-name="questiondown" unicode="&#xbf;" horiz-adv-x="847" 
d="M592 907q0 -54 -32 -80t-99 -26q-127 0 -127 104q0 111 129 111t129 -109zM825 -311l-145 -33q-144 -35 -242 -35q-195 0 -307.5 97.5t-112.5 265.5q0 105 39 186t133 166l136 123q55 51 67.5 72.5t18.5 84.5q0 16 4 70h92q8 -49 10 -78q2 -18 2 -53q0 -42 -14.5 -72.5
t-63.5 -89.5l-104 -125q-56 -68 -79 -132t-23 -152q0 -125 69 -196t193 -71q98 0 153 15l99 248h75v-291z" />
    <glyph glyph-name="Agrave" unicode="&#xc0;" horiz-adv-x="1333" 
d="M1358 0h-527v51l160 78l-149 430h-441l-157 -430l157 -78v-51h-454v51l157 78l525 1274h116l457 -1274l156 -78v-51zM807 643l-113 342q-26 74 -59 186l-201 -528h373zM844 1501h-105l-399 301h287z" />
    <glyph glyph-name="Aacute" unicode="&#xc1;" horiz-adv-x="1333" 
d="M1358 0h-527v51l160 78l-149 430h-441l-157 -430l157 -78v-51h-454v51l157 78l525 1274h116l457 -1274l156 -78v-51zM807 643l-113 342q-26 74 -59 186l-201 -528h373zM1057 1802l-398 -301h-106l217 301h287z" />
    <glyph glyph-name="Acircumflex" unicode="&#xc2;" horiz-adv-x="1333" 
d="M1358 0h-527v51l160 78l-149 430h-441l-157 -430l157 -78v-51h-454v51l157 78l525 1274h116l457 -1274l156 -78v-51zM807 643l-113 342q-26 74 -59 186l-201 -528h373zM1032 1501h-127l-211 135l-205 -135h-127l332 328z" />
    <glyph glyph-name="Atilde" unicode="&#xc3;" horiz-adv-x="1333" 
d="M1358 0h-527v51l160 78l-149 430h-441l-157 -430l157 -78v-51h-454v51l157 78l525 1274h116l457 -1274l156 -78v-51zM807 643l-113 342q-26 74 -59 186l-201 -528h373zM1059 1743q-100 -131 -141 -166q-40 -27 -76 -27q-35 0 -88 27l-146 76q-36 20 -57 20
q-34 0 -143 -106l-43 47q2 3 19.5 26t24 31.5t22.5 29t26.5 31.5t24 24.5t24.5 21.5q32 28 76 28q33 0 86 -28l145 -74q38 -21 57 -21t49.5 22t94.5 83z" />
    <glyph glyph-name="Adieresis" unicode="&#xc4;" horiz-adv-x="1333" 
d="M1358 0h-527v51l160 78l-149 430h-441l-157 -430l157 -78v-51h-454v51l157 78l525 1274h116l457 -1274l156 -78v-51zM807 643l-113 342q-26 74 -59 186l-201 -528h373zM956 1647q0 -103 -98 -103q-47 0 -72.5 24t-25.5 68q0 105 96 105q49 0 74.5 -24.5t25.5 -69.5z
M594 1640q0 -96 -98 -96q-99 0 -99 92q0 51 26 78t73 27t72.5 -26t25.5 -75z" />
    <glyph glyph-name="Aring" unicode="&#xc5;" horiz-adv-x="1333" 
d="M1358 0h-527v51l160 78l-149 430h-441l-157 -430l157 -78v-51h-454v51l157 78l525 1274h116l457 -1274l156 -78v-51zM807 643l-113 342q-26 74 -59 186l-201 -528h373zM915 1663q0 -78 -57.5 -120t-165.5 -42t-165.5 42t-57.5 120q0 160 223 160q109 0 166 -41t57 -119z
M819 1663q0 43 -36 71.5t-93 28.5q-55 0 -90 -29.5t-35 -72.5q0 -44 35.5 -71t93.5 -27t91.5 27t33.5 73z" />
    <glyph glyph-name="AE" unicode="&#xc6;" horiz-adv-x="1722" 
d="M1642 319l-34 -319h-936v51l155 76v496h-327l-242 -496l158 -76v-51h-455v51l154 76l657 1262h830v-310h-72l-98 226h-408v-588h338l70 186h65v-465h-65l-70 185h-338v-529h418l127 225h73zM827 717v579h-4l-272 -579h276z" />
    <glyph glyph-name="Ccedilla" unicode="&#xc7;" horiz-adv-x="1304" 
d="M1235 362l-25 -311q-113 -33 -204 -51q-99 -17 -207 -20v-50q143 -9 143 -159q0 -76 -77.5 -138t-223.5 -98l-20 47q178 90 178 197q0 41 -23.5 67.5t-60.5 26.5v107q-162 6 -271 49.5t-196 136.5q-168 183 -168 485q0 172 56.5 321t162.5 253q98 97 228.5 142.5
t310.5 45.5q191 0 383 -49v-313h-74l-98 260q-72 10 -166 10q-290 0 -437 -160q-159 -167 -159 -477q0 -262 121 -418q73 -92 177 -132t269 -40q52 0 180 8l129 260h72z" />
    <glyph glyph-name="Egrave" unicode="&#xc8;" horiz-adv-x="1165" 
d="M1077 319l-33 -319h-995v51l178 74v1143l-178 73v52h987v-312h-69l-97 228h-446v-561h377l69 188h64v-457h-64l-69 185h-377v-570h457l127 225h69zM756 1501h-103l-401 301h287z" />
    <glyph glyph-name="Eacute" unicode="&#xc9;" horiz-adv-x="1165" 
d="M1077 319l-33 -319h-995v51l178 74v1143l-178 73v52h987v-312h-69l-97 228h-446v-561h377l69 188h64v-457h-64l-69 185h-377v-570h457l127 225h69zM963 1802l-398 -301h-106l217 301h287z" />
    <glyph glyph-name="Ecircumflex" unicode="&#xca;" horiz-adv-x="1165" 
d="M1077 319l-33 -319h-995v51l178 74v1143l-178 73v52h987v-312h-69l-97 228h-446v-561h377l69 188h64v-457h-64l-69 185h-377v-570h457l127 225h69zM928 1501h-127l-211 135l-207 -135h-127l334 328z" />
    <glyph glyph-name="Edieresis" unicode="&#xcb;" horiz-adv-x="1165" 
d="M1077 319l-33 -319h-995v51l178 74v1143l-178 73v52h987v-312h-69l-97 228h-446v-561h377l69 188h64v-457h-64l-69 185h-377v-570h457l127 225h69zM872 1647q0 -103 -98 -103q-47 0 -72.5 24t-25.5 68q0 105 96 105q49 0 74.5 -24.5t25.5 -69.5zM512 1640q0 -96 -100 -96
q-99 0 -99 92q0 51 26 78t73 27q48 0 74 -26t26 -75z" />
    <glyph glyph-name="Igrave" unicode="&#xcc;" horiz-adv-x="649" 
d="M598 0h-549v51l178 74v1143l-178 73v52h549v-52l-174 -73v-1143l174 -74v-51zM485 1501h-102l-401 301h286z" />
    <glyph glyph-name="Iacute" unicode="&#xcd;" horiz-adv-x="649" 
d="M598 0h-549v51l178 74v1143l-178 73v52h549v-52l-174 -73v-1143l174 -74v-51zM659 1802l-399 -301h-104l217 301h286z" />
    <glyph glyph-name="Icircumflex" unicode="&#xce;" horiz-adv-x="649" 
d="M598 0h-549v51l178 74v1143l-178 73v52h549v-52l-174 -73v-1143l174 -74v-51zM662 1501h-130l-210 135l-205 -135h-127l332 328z" />
    <glyph glyph-name="Idieresis" unicode="&#xcf;" horiz-adv-x="649" 
d="M598 0h-549v51l178 74v1143l-178 73v52h549v-52l-174 -73v-1143l174 -74v-51zM600 1647q0 -103 -98 -103q-47 0 -73 24t-26 68q0 105 97 105q49 0 74.5 -24.5t25.5 -69.5zM240 1640q0 -96 -101 -96q-98 0 -98 92q0 51 25.5 78t72.5 27q48 0 74.5 -26t26.5 -75z" />
    <glyph glyph-name="Eth" unicode="&#xd0;" horiz-adv-x="1447" 
d="M1368 729q0 -191 -66 -344.5t-192 -251.5q-89 -69 -202 -101t-267 -32h-592v51l178 74v651h-198v94h198v398l-178 73v52h623q201 0 319.5 -42.5t212.5 -146.5q164 -185 164 -475zM1161 713q0 245 -117 409q-69 93 -162 134.5t-233 41.5h-225v-428h201v-94h-201v-682h199
q133 0 217 32t159 112q84 87 123 201.5t39 273.5z" />
    <glyph glyph-name="Ntilde" unicode="&#xd1;" horiz-adv-x="1462" 
d="M1442 1341l-176 -73v-1288h-64l-862 1163v-1018l176 -74v-51h-467v51l178 74v1143l-178 73v52h344l758 -1008v883l-174 73v52h465v-52zM1114 1743q-86 -119 -141 -166q-41 -27 -76 -27q-33 0 -88 27l-145 76q-36 20 -58 20q-34 0 -143 -106l-43 47q99 132 141 164
q35 28 76 28q33 0 88 -28l145 -74q34 -21 58 -21q17 0 47.5 22t95.5 83z" />
    <glyph glyph-name="Ograve" unicode="&#xd2;" horiz-adv-x="1447" 
d="M1368 717q0 -218 -84 -389t-236 -266t-346 -95q-282 0 -452 187.5t-170 498.5q0 121 27 233t82.5 208t133 167t184.5 111.5t232 40.5q150 0 270.5 -54t198.5 -148.5t119 -220.5t41 -273zM1151 684q0 73 -9 143.5t-28.5 143.5t-54 134.5t-80.5 110t-113.5 76t-148.5 27.5
q-96 0 -171.5 -39t-121 -100t-75.5 -145t-41 -165.5t-11 -169.5q0 -294 115.5 -466.5t314.5 -172.5q195 0 309.5 168.5t114.5 454.5zM879 1501h-103l-399 301h285z" />
    <glyph glyph-name="Oacute" unicode="&#xd3;" horiz-adv-x="1447" 
d="M1368 717q0 -218 -84 -389t-236 -266t-346 -95q-282 0 -452 187.5t-170 498.5q0 121 27 233t82.5 208t133 167t184.5 111.5t232 40.5q150 0 270.5 -54t198.5 -148.5t119 -220.5t41 -273zM1151 684q0 73 -9 143.5t-28.5 143.5t-54 134.5t-80.5 110t-113.5 76t-148.5 27.5
q-96 0 -171.5 -39t-121 -100t-75.5 -145t-41 -165.5t-11 -169.5q0 -294 115.5 -466.5t314.5 -172.5q195 0 309.5 168.5t114.5 454.5zM1065 1802l-399 -301h-105l217 301h287z" />
    <glyph glyph-name="Ocircumflex" unicode="&#xd4;" horiz-adv-x="1447" 
d="M1368 717q0 -218 -84 -389t-236 -266t-346 -95q-282 0 -452 187.5t-170 498.5q0 121 27 233t82.5 208t133 167t184.5 111.5t232 40.5q150 0 270.5 -54t198.5 -148.5t119 -220.5t41 -273zM1151 684q0 73 -9 143.5t-28.5 143.5t-54 134.5t-80.5 110t-113.5 76t-148.5 27.5
q-96 0 -171.5 -39t-121 -100t-75.5 -145t-41 -165.5t-11 -169.5q0 -294 115.5 -466.5t314.5 -172.5q195 0 309.5 168.5t114.5 454.5zM1077 1501h-129l-211 135l-205 -135h-126l331 328z" />
    <glyph glyph-name="Otilde" unicode="&#xd5;" horiz-adv-x="1447" 
d="M1368 717q0 -218 -84 -389t-236 -266t-346 -95q-282 0 -452 187.5t-170 498.5q0 121 27 233t82.5 208t133 167t184.5 111.5t232 40.5q150 0 270.5 -54t198.5 -148.5t119 -220.5t41 -273zM1151 684q0 73 -9 143.5t-28.5 143.5t-54 134.5t-80.5 110t-113.5 76t-148.5 27.5
q-96 0 -171.5 -39t-121 -100t-75.5 -145t-41 -165.5t-11 -169.5q0 -294 115.5 -466.5t314.5 -172.5q195 0 309.5 168.5t114.5 454.5zM1100 1743q-89 -122 -142 -166q-38 -27 -75 -27q-33 0 -86 27l-146 76q-40 20 -59 20q-32 0 -141 -106l-45 47q7 9 31 40t38.5 48.5
t35 40.5t36.5 35q35 28 76 28q35 0 88 -28l145 -74q34 -21 57 -21q19 0 48.5 21.5t95.5 83.5z" />
    <glyph glyph-name="Odieresis" unicode="&#xd6;" horiz-adv-x="1447" 
d="M1368 717q0 -218 -84 -389t-236 -266t-346 -95q-282 0 -452 187.5t-170 498.5q0 121 27 233t82.5 208t133 167t184.5 111.5t232 40.5q150 0 270.5 -54t198.5 -148.5t119 -220.5t41 -273zM1151 684q0 73 -9 143.5t-28.5 143.5t-54 134.5t-80.5 110t-113.5 76t-148.5 27.5
q-96 0 -171.5 -39t-121 -100t-75.5 -145t-41 -165.5t-11 -169.5q0 -294 115.5 -466.5t314.5 -172.5q195 0 309.5 168.5t114.5 454.5zM1001 1647q0 -103 -100 -103q-47 0 -72.5 24t-25.5 68q0 105 96 105q49 0 75.5 -24.5t26.5 -69.5zM639 1640q0 -96 -100 -96q-97 0 -97 92
q0 51 25 78t72 27q48 0 74 -26t26 -75z" />
    <glyph glyph-name="multiply" unicode="&#xd7;" 
d="M1032 244l-110 -113l-375 375l-373 -375l-113 113l375 372l-375 375l113 111l373 -373l375 373l110 -111l-373 -375z" />
    <glyph glyph-name="Oslash" unicode="&#xd8;" horiz-adv-x="1435" 
d="M1362 717q0 -218 -84 -389t-235.5 -266t-344.5 -95q-190 0 -329 84l-99 -149l-77 53l102 149q-113 100 -167 237.5t-54 324.5q0 119 28 229t84.5 204t134.5 163.5t184 109t228 39.5q96 0 166.5 -18t165.5 -66l82 125l76 -49l-82 -129q221 -200 221 -557zM975 1196
q-54 66 -111 93.5t-141 27.5q-98 0 -174.5 -37.5t-124 -98t-78.5 -143.5t-43 -165.5t-12 -172.5q0 -274 102 -448zM1147 684q0 142 -25 243t-84 197l-585 -948q60 -62 120.5 -88.5t141.5 -26.5q203 0 317.5 165t114.5 458z" />
    <glyph glyph-name="Ugrave" unicode="&#xd9;" horiz-adv-x="1382" 
d="M1393 1341l-176 -73v-789q0 -261 -138.5 -380t-400.5 -119q-264 0 -388 108t-124 338v842l-176 73v52h549v-52l-177 -73v-826q0 -186 85 -273t266 -87q190 0 278 84t88 266v836l-174 73v52h488v-52zM870 1501h-104l-399 301h286z" />
    <glyph glyph-name="Uacute" unicode="&#xda;" horiz-adv-x="1382" 
d="M1393 1341l-176 -73v-789q0 -261 -138.5 -380t-400.5 -119q-264 0 -388 108t-124 338v842l-176 73v52h549v-52l-177 -73v-826q0 -186 85 -273t266 -87q190 0 278 84t88 266v836l-174 73v52h488v-52zM1028 1802l-397 -301h-107l217 301h287z" />
    <glyph glyph-name="Ucircumflex" unicode="&#xdb;" horiz-adv-x="1382" 
d="M1393 1341l-176 -73v-789q0 -261 -138.5 -380t-400.5 -119q-264 0 -388 108t-124 338v842l-176 73v52h549v-52l-177 -73v-826q0 -186 85 -273t266 -87q190 0 278 84t88 266v836l-174 73v52h488v-52zM1059 1501h-127l-211 135l-205 -135h-129l334 328z" />
    <glyph glyph-name="Udieresis" unicode="&#xdc;" horiz-adv-x="1382" 
d="M1393 1341l-176 -73v-789q0 -261 -138.5 -380t-400.5 -119q-264 0 -388 108t-124 338v842l-176 73v52h549v-52l-177 -73v-826q0 -186 85 -273t266 -87q190 0 278 84t88 266v836l-174 73v52h488v-52zM977 1647q0 -103 -100 -103q-47 0 -72 24t-25 68q0 105 94 105
q49 0 76 -25t27 -69zM614 1640q0 -96 -98 -96t-98 92q0 51 25.5 78t72.5 27t72.5 -26t25.5 -75z" />
    <glyph glyph-name="Yacute" unicode="&#xdd;" horiz-adv-x="1179" 
d="M1239 1341l-156 -73l-374 -576v-567l223 -74v-51h-643v51l223 74v514l-395 629l-156 73v52h539v-52l-146 -73l295 -480l291 480l-145 73v52h444v-52zM993 1802l-399 -301h-105l218 301h286z" />
    <glyph glyph-name="Thorn" unicode="&#xde;" horiz-adv-x="1105" 
d="M1079 793q0 -188 -135 -299t-364 -111h-146v-258l217 -74v-51h-592v51l179 74v1141l-179 71v52h549v-52l-174 -71v-84h154q104 0 188 -19.5t154.5 -62.5t109.5 -121t39 -186zM872 788q0 151 -73 230.5t-221 79.5h-144v-631h94q166 0 255 79t89 242z" />
    <glyph glyph-name="germandbls" unicode="&#xdf;" horiz-adv-x="1261" 
d="M1202 283q0 -133 -93 -219.5t-237 -86.5q-54 0 -174 21l-149 39v231h92l94 -188q49 -6 94 -6q40 0 74 6.5t65.5 22t49.5 45.5t18 73q0 46 -28 81.5t-93 72.5l-180 96q-92 51 -134 112.5t-42 145.5q0 102 96 201l88 92q51 52 68.5 86t17.5 80q0 82 -56 131t-150 49
q-116 0 -179 -63q-44 -39 -57.5 -91.5t-13.5 -175.5v-1038h-363v51l174 72v883q0 127 37 212t119 150q132 105 317 105q169 0 274 -72t105 -187q0 -107 -118 -202l-121 -94q-72 -55 -72 -123q0 -43 23.5 -69t99.5 -69l162 -92q106 -60 149 -123t43 -159z" />
    <glyph glyph-name="agrave" unicode="&#xe0;" horiz-adv-x="1011" 
d="M993 53l-151 -49q-40 -14 -97 -14q-92 0 -110 100q-42 -22 -96 -47q-50 -22 -70 -30.5t-54 -15.5t-73 -7q-125 0 -204 71t-79 183q0 186 220 237q119 26 290 41l60 4v236q0 71 -18.5 102.5t-69.5 50.5q-46 17 -119 17q-34 0 -57 -2l-89 -174h-122v188l135 35
q134 35 229 35q137 0 213 -56q47 -30 65.5 -72.5t18.5 -115.5v-561q0 -35 6 -47q11 -19 53 -31l119 -33v-45zM629 131v338q-122 -16 -219 -39q-74 -21 -109 -58.5t-35 -101.5q0 -75 54 -120.5t145 -45.5q81 0 151 23zM662 1141h-105l-399 299h286z" />
    <glyph glyph-name="aacute" unicode="&#xe1;" horiz-adv-x="1011" 
d="M993 53l-151 -49q-40 -14 -97 -14q-92 0 -110 100q-42 -22 -96 -47q-50 -22 -70 -30.5t-54 -15.5t-73 -7q-125 0 -204 71t-79 183q0 186 220 237q119 26 290 41l60 4v236q0 71 -18.5 102.5t-69.5 50.5q-46 17 -119 17q-34 0 -57 -2l-89 -174h-122v188l135 35
q134 35 229 35q137 0 213 -56q47 -30 65.5 -72.5t18.5 -115.5v-561q0 -35 6 -47q11 -19 53 -31l119 -33v-45zM629 131v338q-122 -16 -219 -39q-74 -21 -109 -58.5t-35 -101.5q0 -75 54 -120.5t145 -45.5q81 0 151 23zM913 1440l-397 -299h-106l217 299h286z" />
    <glyph glyph-name="acircumflex" unicode="&#xe2;" horiz-adv-x="1011" 
d="M993 53l-151 -49q-40 -14 -97 -14q-92 0 -110 100q-42 -22 -96 -47q-50 -22 -70 -30.5t-54 -15.5t-73 -7q-125 0 -204 71t-79 183q0 186 220 237q119 26 290 41l60 4v236q0 71 -18.5 102.5t-69.5 50.5q-46 17 -119 17q-34 0 -57 -2l-89 -174h-122v188l135 35
q134 35 229 35q137 0 213 -56q47 -30 65.5 -72.5t18.5 -115.5v-561q0 -35 6 -47q11 -19 53 -31l119 -33v-45zM629 131v338q-122 -16 -219 -39q-74 -21 -109 -58.5t-35 -101.5q0 -75 54 -120.5t145 -45.5q81 0 151 23zM825 1141h-127l-211 133l-204 -133h-127l331 325z" />
    <glyph glyph-name="atilde" unicode="&#xe3;" horiz-adv-x="1011" 
d="M993 53l-151 -49q-40 -14 -97 -14q-92 0 -110 100q-42 -22 -96 -47q-50 -22 -70 -30.5t-54 -15.5t-73 -7q-125 0 -204 71t-79 183q0 186 220 237q119 26 290 41l60 4v236q0 71 -18.5 102.5t-69.5 50.5q-46 17 -119 17q-34 0 -57 -2l-89 -174h-122v188l135 35
q134 35 229 35q137 0 213 -56q47 -30 65.5 -72.5t18.5 -115.5v-561q0 -35 6 -47q11 -19 53 -31l119 -33v-45zM629 131v338q-122 -16 -219 -39q-74 -21 -109 -58.5t-35 -101.5q0 -75 54 -120.5t145 -45.5q81 0 151 23zM852 1380q-6 -7 -31 -39.5t-38.5 -49t-34.5 -39.5
t-37 -35q-39 -29 -76 -29q-35 0 -88 29l-146 73q-38 21 -57 21q-32 0 -143 -105l-43 45q102 136 141 166q37 27 76 27q33 0 86 -27l145 -76q40 -20 58 -20q19 0 48.5 22t94.5 84z" />
    <glyph glyph-name="adieresis" unicode="&#xe4;" horiz-adv-x="1011" 
d="M993 53l-151 -49q-40 -14 -97 -14q-92 0 -110 100q-42 -22 -96 -47q-50 -22 -70 -30.5t-54 -15.5t-73 -7q-125 0 -204 71t-79 183q0 186 220 237q119 26 290 41l60 4v236q0 71 -18.5 102.5t-69.5 50.5q-46 17 -119 17q-34 0 -57 -2l-89 -174h-122v188l135 35
q134 35 229 35q137 0 213 -56q47 -30 65.5 -72.5t18.5 -115.5v-561q0 -35 6 -47q11 -19 53 -31l119 -33v-45zM629 131v338q-122 -16 -219 -39q-74 -21 -109 -58.5t-35 -101.5q0 -75 54 -120.5t145 -45.5q81 0 151 23zM768 1286q0 -104 -100 -104q-47 0 -72 24.5t-25 69.5
q0 102 95 102q49 0 75.5 -24t26.5 -68zM406 1280q0 -98 -99 -98q-98 0 -98 92q0 51 25.5 77.5t72.5 26.5t73 -25.5t26 -72.5z" />
    <glyph glyph-name="aring" unicode="&#xe5;" horiz-adv-x="1011" 
d="M993 53l-151 -49q-40 -14 -97 -14q-92 0 -110 100q-42 -22 -96 -47q-50 -22 -70 -30.5t-54 -15.5t-73 -7q-125 0 -204 71t-79 183q0 186 220 237q119 26 290 41l60 4v236q0 71 -18.5 102.5t-69.5 50.5q-46 17 -119 17q-34 0 -57 -2l-89 -174h-122v188l135 35
q134 35 229 35q137 0 213 -56q47 -30 65.5 -72.5t18.5 -115.5v-561q0 -35 6 -47q11 -19 53 -31l119 -33v-45zM629 131v338q-122 -16 -219 -39q-74 -21 -109 -58.5t-35 -101.5q0 -75 54 -120.5t145 -45.5q81 0 151 23zM719 1300q0 -78 -57 -118.5t-166 -40.5t-166.5 40.5
t-57.5 118.5q0 160 224 160q109 0 166 -41t57 -119zM623 1300q0 43 -36.5 72t-92.5 29q-55 0 -90 -29t-35 -74q0 -44 35.5 -71t93.5 -27t91.5 27t33.5 73z" />
    <glyph glyph-name="ae" unicode="&#xe6;" horiz-adv-x="1527" 
d="M1458 528h-655q0 -114 20.5 -182t71.5 -127q103 -115 305 -115q91 0 227 25l15 -66q-233 -83 -389 -83q-224 0 -348 176q-84 -83 -182.5 -129.5t-188.5 -46.5q-117 0 -196 75.5t-79 184.5q0 186 213 239q150 38 346 49v217q0 76 -18.5 109.5t-69.5 52.5q-47 15 -135 15
h-41l-86 -177h-125v191q250 70 373 70q181 0 256 -129q123 129 309 129q115 0 206 -57.5t132 -155.5q21 -51 29 -108t10 -157zM1251 631q-3 83 -14 131t-37 86q-55 74 -147 74q-112 0 -177 -86.5t-73 -245.5zM618 174v297q-120 -14 -219 -39q-74 -20 -108.5 -57.5
t-34.5 -98.5q0 -69 51.5 -115t128.5 -46q83 0 182 59z" />
    <glyph glyph-name="ccedilla" unicode="&#xe7;" horiz-adv-x="944" 
d="M895 61q-109 -34 -127 -38q-114 -31 -184 -39v-54q145 -9 145 -159q0 -76 -79 -137.5t-224 -98.5l-20 47q178 90 178 197q0 41 -23.5 67.5t-60.5 26.5v107q-192 8 -311 144t-119 349q0 242 155.5 391.5t405.5 149.5q128 0 256 -45v-213h-125l-92 184q-18 2 -43 2
q-152 0 -256.5 -121.5t-104.5 -296.5q0 -191 101 -307q53 -60 120.5 -87.5t165.5 -27.5q56 0 94 4t134 21z" />
    <glyph glyph-name="egrave" unicode="&#xe8;" horiz-adv-x="1013" 
d="M936 535h-657q2 -115 23 -186.5t73 -129.5q103 -115 293 -115q82 0 239 25l13 -68q-89 -27 -138 -41q-132 -40 -254 -40q-206 0 -332 137.5t-126 359.5q0 126 42.5 235t118.5 179q126 123 316 123q121 0 213.5 -55t134.5 -154q20 -43 28 -99t13 -171zM727 641
q-2 88 -13 135.5t-40 85.5q-28 37 -63 53.5t-89 16.5q-106 0 -166.5 -84.5t-74.5 -249.5zM692 1141h-102l-402 299h287z" />
    <glyph glyph-name="eacute" unicode="&#xe9;" horiz-adv-x="1013" 
d="M936 535h-657q2 -115 23 -186.5t73 -129.5q103 -115 293 -115q82 0 239 25l13 -68q-89 -27 -138 -41q-132 -40 -254 -40q-206 0 -332 137.5t-126 359.5q0 126 42.5 235t118.5 179q126 123 316 123q121 0 213.5 -55t134.5 -154q20 -43 28 -99t13 -171zM727 641
q-2 88 -13 135.5t-40 85.5q-28 37 -63 53.5t-89 16.5q-106 0 -166.5 -84.5t-74.5 -249.5zM920 1440l-398 -299h-106l217 299h287z" />
    <glyph glyph-name="ecircumflex" unicode="&#xea;" horiz-adv-x="1013" 
d="M936 535h-657q2 -115 23 -186.5t73 -129.5q103 -115 293 -115q82 0 239 25l13 -68q-89 -27 -138 -41q-132 -40 -254 -40q-206 0 -332 137.5t-126 359.5q0 126 42.5 235t118.5 179q126 123 316 123q121 0 213.5 -55t134.5 -154q20 -43 28 -99t13 -171zM727 641
q-2 88 -13 135.5t-40 85.5q-28 37 -63 53.5t-89 16.5q-106 0 -166.5 -84.5t-74.5 -249.5zM874 1141h-126l-211 133l-205 -133h-127l332 325z" />
    <glyph glyph-name="edieresis" unicode="&#xeb;" horiz-adv-x="1013" 
d="M936 535h-657q2 -115 23 -186.5t73 -129.5q103 -115 293 -115q82 0 239 25l13 -68q-89 -27 -138 -41q-132 -40 -254 -40q-206 0 -332 137.5t-126 359.5q0 126 42.5 235t118.5 179q126 123 316 123q121 0 213.5 -55t134.5 -154q20 -43 28 -99t13 -171zM727 641
q-2 88 -13 135.5t-40 85.5q-28 37 -63 53.5t-89 16.5q-106 0 -166.5 -84.5t-74.5 -249.5zM811 1286q0 -104 -98 -104q-47 0 -73 25t-26 69q0 102 97 102q100 0 100 -92zM451 1280q0 -47 -26 -72.5t-75 -25.5q-98 0 -98 92q0 51 25.5 77.5t72.5 26.5q48 0 74.5 -25.5
t26.5 -72.5z" />
    <glyph glyph-name="igrave" unicode="&#xec;" horiz-adv-x="618" 
d="M590 0h-541v51l178 74v717l-178 53v45l365 80v-895l176 -74v-51zM479 1141h-102l-402 299h287z" />
    <glyph glyph-name="iacute" unicode="&#xed;" horiz-adv-x="618" 
d="M590 0h-541v51l178 74v717l-178 53v45l365 80v-895l176 -74v-51zM633 1440l-397 -299h-107l217 299h287z" />
    <glyph glyph-name="icircumflex" unicode="&#xee;" horiz-adv-x="618" 
d="M590 0h-541v51l178 74v717l-178 53v45l365 80v-895l176 -74v-51zM647 1141h-127l-211 133l-205 -133h-129l334 325z" />
    <glyph glyph-name="idieresis" unicode="&#xef;" horiz-adv-x="618" 
d="M590 0h-541v51l178 74v717l-178 53v45l365 80v-895l176 -74v-51zM588 1286q0 -104 -101 -104q-47 0 -72.5 24.5t-25.5 69.5q0 102 96 102q50 0 76.5 -24t26.5 -68zM225 1280q0 -98 -100 -98q-96 0 -96 92q0 104 96 104q47 0 73.5 -25.5t26.5 -72.5z" />
    <glyph glyph-name="eth" unicode="&#xf0;" horiz-adv-x="1091" 
d="M1004 641q0 -174 -37 -310t-99 -210q-65 -75 -157 -114.5t-195 -39.5q-203 0 -324.5 141t-121.5 371q0 252 124 393.5t345 141.5q115 0 252 -58q-6 125 -60.5 234.5t-150.5 183.5l-156 -137l-72 86l127 109q-81 47 -215 47h-41v90q27 4 82 4q176 0 281 -47l147 129
l72 -84l-117 -101q76 -52 133 -123t91.5 -148t55.5 -173t28.5 -186.5t7.5 -198.5zM805 717q0 29 -4 151q-110 33 -256 33q-66 0 -116.5 -25.5t-80.5 -66t-49 -97.5t-26 -111.5t-7 -115.5q0 -54 8.5 -109.5t29.5 -113t51.5 -101.5t78.5 -72t107 -28q45 0 81.5 12t63 38
t46.5 57t33 79.5t21 95t12 113t5.5 124t1.5 137.5z" />
    <glyph glyph-name="ntilde" unicode="&#xf1;" horiz-adv-x="1239" 
d="M1221 0h-527v51l166 74v522q0 137 -84 189q-57 36 -182 36q-111 0 -180 -10v-737l155 -74v-51h-518v51l176 74v717l-186 53v45l375 82v-113q21 9 64.5 27.5t64.5 26.5q89 34 124 42.5t93 8.5q129 0 211 -88q41 -42 57.5 -97.5t16.5 -144.5v-559l174 -74v-51zM979 1380
q-6 -7 -31 -39.5t-38.5 -49t-34.5 -39.5t-37 -35q-39 -29 -76 -29q-33 0 -88 29l-146 73q-38 21 -57 21q-32 0 -143 -105l-43 45q100 132 141 166q40 27 76 27q33 0 88 -27l143 -76q40 -20 60 -20q17 0 47 22t96 84z" />
    <glyph glyph-name="ograve" unicode="&#xf2;" horiz-adv-x="1112" 
d="M1042 508q0 -146 -61 -269t-176.5 -197.5t-261.5 -74.5q-210 0 -341.5 140.5t-131.5 365.5q0 156 58 277.5t172.5 192.5t270.5 71q217 0 344 -143t127 -363zM836 465q0 52 -5 100.5t-16.5 102t-33.5 97.5t-52.5 80.5t-77 56.5t-104.5 20q-129 0 -200 -109.5t-71 -310.5
q0 -61 7.5 -118.5t27.5 -117.5t51.5 -104t83.5 -72.5t119 -28.5q62 0 111 25.5t78.5 65.5t48.5 95t26 108t7 110zM723 1141h-105l-399 299h287z" />
    <glyph glyph-name="oacute" unicode="&#xf3;" horiz-adv-x="1112" 
d="M1042 508q0 -146 -61 -269t-176.5 -197.5t-261.5 -74.5q-210 0 -341.5 140.5t-131.5 365.5q0 156 58 277.5t172.5 192.5t270.5 71q217 0 344 -143t127 -363zM836 465q0 52 -5 100.5t-16.5 102t-33.5 97.5t-52.5 80.5t-77 56.5t-104.5 20q-129 0 -200 -109.5t-71 -310.5
q0 -61 7.5 -118.5t27.5 -117.5t51.5 -104t83.5 -72.5t119 -28.5q62 0 111 25.5t78.5 65.5t48.5 95t26 108t7 110zM938 1440l-399 -299h-105l217 299h287z" />
    <glyph glyph-name="ocircumflex" unicode="&#xf4;" horiz-adv-x="1112" 
d="M1042 508q0 -146 -61 -269t-176.5 -197.5t-261.5 -74.5q-210 0 -341.5 140.5t-131.5 365.5q0 156 58 277.5t172.5 192.5t270.5 71q217 0 344 -143t127 -363zM836 465q0 52 -5 100.5t-16.5 102t-33.5 97.5t-52.5 80.5t-77 56.5t-104.5 20q-129 0 -200 -109.5t-71 -310.5
q0 -61 7.5 -118.5t27.5 -117.5t51.5 -104t83.5 -72.5t119 -28.5q62 0 111 25.5t78.5 65.5t48.5 95t26 108t7 110zM889 1141h-127l-211 133l-205 -133h-127l332 325z" />
    <glyph glyph-name="otilde" unicode="&#xf5;" horiz-adv-x="1112" 
d="M1042 508q0 -146 -61 -269t-176.5 -197.5t-261.5 -74.5q-210 0 -341.5 140.5t-131.5 365.5q0 156 58 277.5t172.5 192.5t270.5 71q217 0 344 -143t127 -363zM836 465q0 52 -5 100.5t-16.5 102t-33.5 97.5t-52.5 80.5t-77 56.5t-104.5 20q-129 0 -200 -109.5t-71 -310.5
q0 -61 7.5 -118.5t27.5 -117.5t51.5 -104t83.5 -72.5t119 -28.5q62 0 111 25.5t78.5 65.5t48.5 95t26 108t7 110zM907 1380q-98 -129 -141 -163q-39 -29 -76 -29q-33 0 -88 29l-145 73q-38 21 -58 21q-32 0 -143 -105l-43 45q100 132 141 166q40 27 76 27q33 0 88 -27
l144 -76q40 -20 59 -20q17 0 47 22t96 84z" />
    <glyph glyph-name="odieresis" unicode="&#xf6;" horiz-adv-x="1112" 
d="M1042 508q0 -146 -61 -269t-176.5 -197.5t-261.5 -74.5q-210 0 -341.5 140.5t-131.5 365.5q0 156 58 277.5t172.5 192.5t270.5 71q217 0 344 -143t127 -363zM836 465q0 52 -5 100.5t-16.5 102t-33.5 97.5t-52.5 80.5t-77 56.5t-104.5 20q-129 0 -200 -109.5t-71 -310.5
q0 -61 7.5 -118.5t27.5 -117.5t51.5 -104t83.5 -72.5t119 -28.5q62 0 111 25.5t78.5 65.5t48.5 95t26 108t7 110zM834 1286q0 -104 -101 -104q-47 0 -71.5 24.5t-24.5 69.5q0 102 94 102q103 0 103 -92zM471 1280q0 -98 -98 -98q-99 0 -99 92q0 51 25.5 77.5t73.5 26.5
q47 0 72.5 -25.5t25.5 -72.5z" />
    <glyph glyph-name="divide" unicode="&#xf7;" horiz-adv-x="1177" 
d="M707 1018q0 -50 -33.5 -83.5t-83.5 -33.5t-84.5 34.5t-34.5 82.5q0 50 34 84.5t85 34.5q49 0 83 -34.5t34 -84.5zM1096 580h-1014v153h1014v-153zM707 295q0 -50 -34 -84.5t-83 -34.5q-51 0 -85 34.5t-34 84.5t34 83.5t85 33.5q50 0 83.5 -34t33.5 -83z" />
    <glyph glyph-name="oslash" unicode="&#xf8;" horiz-adv-x="1103" 
d="M1038 508q0 -231 -143 -386t-356 -155q-91 0 -185 37l-61 -123l-78 41l61 123q-210 145 -210 436q0 236 134.5 385.5t348.5 149.5q59 0 101 -8.5t98 -32.5l67 131l80 -41l-66 -129q107 -82 158 -186t51 -242zM831 463q0 189 -75 328l-342 -676q35 -31 68 -42.5t85 -11.5
q121 0 192.5 109.5t71.5 292.5zM696 870q-37 31 -70 42.5t-85 11.5q-132 0 -200.5 -106.5t-68.5 -315.5q0 -106 17.5 -177.5t60.5 -140.5z" />
    <glyph glyph-name="ugrave" unicode="&#xf9;" horiz-adv-x="1200" 
d="M1169 53l-352 -84v113l-145 -57q-47 -19 -67.5 -26.5t-54 -14.5t-67.5 -7q-57 0 -118.5 17.5t-94.5 48.5q-86 89 -86 250v553l-174 51v47l363 80v-690q0 -135 61 -182q54 -48 178 -48q102 0 205 23v719l-174 51v47l363 80v-870l163 -54v-47zM772 1141h-104l-400 299h287z
" />
    <glyph glyph-name="uacute" unicode="&#xfa;" horiz-adv-x="1200" 
d="M1169 53l-352 -84v113l-145 -57q-47 -19 -67.5 -26.5t-54 -14.5t-67.5 -7q-57 0 -118.5 17.5t-94.5 48.5q-86 89 -86 250v553l-174 51v47l363 80v-690q0 -135 61 -182q54 -48 178 -48q102 0 205 23v719l-174 51v47l363 80v-870l163 -54v-47zM948 1440l-397 -299h-105
l216 299h286z" />
    <glyph glyph-name="ucircumflex" unicode="&#xfb;" horiz-adv-x="1200" 
d="M1169 53l-352 -84v113l-145 -57q-47 -19 -67.5 -26.5t-54 -14.5t-67.5 -7q-57 0 -118.5 17.5t-94.5 48.5q-86 89 -86 250v553l-174 51v47l363 80v-690q0 -135 61 -182q54 -48 178 -48q102 0 205 23v719l-174 51v47l363 80v-870l163 -54v-47zM934 1141h-129l-211 133
l-205 -133h-127l332 325z" />
    <glyph glyph-name="udieresis" unicode="&#xfc;" horiz-adv-x="1200" 
d="M1169 53l-352 -84v113l-145 -57q-47 -19 -67.5 -26.5t-54 -14.5t-67.5 -7q-57 0 -118.5 17.5t-94.5 48.5q-86 89 -86 250v553l-174 51v47l363 80v-690q0 -135 61 -182q54 -48 178 -48q102 0 205 23v719l-174 51v47l363 80v-870l163 -54v-47zM891 1286q0 -104 -98 -104
q-47 0 -73 25t-26 69q0 102 97 102q100 0 100 -92zM528 1280q0 -98 -98 -98t-98 92q0 51 25.5 77.5t72.5 26.5t72.5 -25.5t25.5 -72.5z" />
    <glyph glyph-name="yacute" unicode="&#xfd;" horiz-adv-x="1026" 
d="M1057 942l-117 -70l-436 -1067q-57 -139 -141.5 -199.5t-219.5 -60.5q-81 0 -131 9v198h125l64 -127q64 9 107.5 54.5t84.5 148.5l70 174l-357 885l-126 55v53h475v-53l-144 -55l189 -488q27 -70 63 -190l240 663l-139 70v53h393v-53zM899 1440l-397 -299h-107l217 299
h287z" />
    <glyph glyph-name="thorn" unicode="&#xfe;" horiz-adv-x="1177" 
d="M1108 543q0 -159 -73.5 -288t-205.5 -202t-297 -73q-84 0 -131 10v-328l220 -65v-52h-582v52l176 65v1622l-176 53v47l362 82v-569q89 46 136 66q114 51 184 51q163 0 275 -137.5t112 -333.5zM911 483q0 180 -91 288t-245 108q-95 0 -174 -29v-770q67 -6 119 -6
q142 0 228 57q78 52 120.5 145t42.5 207z" />
    <glyph glyph-name="ydieresis" unicode="&#xff;" horiz-adv-x="1026" 
d="M1057 942l-117 -70l-436 -1067q-57 -139 -141.5 -199.5t-219.5 -60.5q-81 0 -131 9v198h125l64 -127q64 9 107.5 54.5t84.5 148.5l70 174l-357 885l-126 55v53h475v-53l-144 -55l189 -488q27 -70 63 -190l240 663l-139 70v53h393v-53zM838 1286q0 -104 -101 -104
q-47 0 -71.5 24.5t-24.5 69.5q0 102 94 102q50 0 76.5 -24t26.5 -68zM475 1280q0 -98 -98 -98t-98 92q0 51 25.5 77.5t72.5 26.5t72.5 -25.5t25.5 -72.5z" />
    <glyph glyph-name="Amacron" unicode="&#x100;" horiz-adv-x="1333" 
d="M1358 0h-527v51l160 78l-149 430h-441l-157 -430l157 -78v-51h-454v51l157 78l525 1274h116l457 -1274l156 -78v-51zM807 643l-113 342q-26 74 -59 186l-201 -528h373zM954 1567h-538v125h538v-125z" />
    <glyph glyph-name="amacron" unicode="&#x101;" horiz-adv-x="1011" 
d="M993 53l-151 -49q-40 -14 -97 -14q-92 0 -110 100q-42 -22 -96 -47q-50 -22 -70 -30.5t-54 -15.5t-73 -7q-125 0 -204 71t-79 183q0 186 220 237q119 26 290 41l60 4v236q0 71 -18.5 102.5t-69.5 50.5q-46 17 -119 17q-34 0 -57 -2l-89 -174h-122v188l135 35
q134 35 229 35q137 0 213 -56q47 -30 65.5 -72.5t18.5 -115.5v-561q0 -35 6 -47q11 -19 53 -31l119 -33v-45zM629 131v338q-122 -16 -219 -39q-74 -21 -109 -58.5t-35 -101.5q0 -75 54 -120.5t145 -45.5q81 0 151 23zM774 1223h-538v125h538v-125z" />
    <glyph glyph-name="Abreve" unicode="&#x102;" horiz-adv-x="1333" 
d="M1358 0h-527v51l160 78l-149 430h-441l-157 -430l157 -78v-51h-454v51l157 78l525 1274h116l457 -1274l156 -78v-51zM807 643l-113 342q-26 74 -59 186l-201 -528h373zM1024 1763q-48 -66 -111 -121q-64 -55 -113.5 -75.5t-113.5 -20.5q-172 0 -338 217l49 43
q110 -76 166 -100.5t121 -24.5q123 0 289 125z" />
    <glyph glyph-name="abreve" unicode="&#x103;" horiz-adv-x="1011" 
d="M993 53l-151 -49q-40 -14 -97 -14q-92 0 -110 100q-42 -22 -96 -47q-50 -22 -70 -30.5t-54 -15.5t-73 -7q-125 0 -204 71t-79 183q0 186 220 237q119 26 290 41l60 4v236q0 71 -18.5 102.5t-69.5 50.5q-46 17 -119 17q-34 0 -57 -2l-89 -174h-122v188l135 35
q134 35 229 35q137 0 213 -56q47 -30 65.5 -72.5t18.5 -115.5v-561q0 -35 6 -47q11 -19 53 -31l119 -33v-45zM629 131v338q-122 -16 -219 -39q-74 -21 -109 -58.5t-35 -101.5q0 -75 54 -120.5t145 -45.5q81 0 151 23zM823 1376q-56 -74 -110 -119q-64 -55 -114.5 -76.5
t-113.5 -21.5q-172 0 -338 217l50 45q110 -77 165.5 -102t120.5 -25q64 0 132 30t157 97z" />
    <glyph glyph-name="Aogonek" unicode="&#x104;" horiz-adv-x="1333" 
d="M1358 0h-301q-115 -72 -115 -174q0 -117 148 -141l-11 -66q-137 6 -204.5 51.5t-67.5 134.5q0 46 17.5 81.5t48.5 58t66 36t77 19.5v51l-174 508h-441l-157 -430l157 -78v-51h-454v51l157 78l525 1274h116l457 -1274l156 -78v-51zM807 643l-113 342q-26 74 -59 186
l-201 -528h373z" />
    <glyph glyph-name="aogonek" unicode="&#x105;" horiz-adv-x="1011" 
d="M862 -315l-12 -66q-137 6 -203.5 51.5t-66.5 134.5q0 77 47.5 122.5t128.5 58.5v4h-11q-92 0 -110 100q-42 -22 -96 -47q-50 -22 -70 -30.5t-54 -15.5t-73 -7q-125 0 -204 71t-79 183q0 186 220 237q119 26 290 41l60 4v236q0 71 -18.5 102.5t-69.5 50.5q-46 17 -119 17
q-34 0 -57 -2l-89 -174h-122v188l135 35q134 35 229 35q137 0 213 -56q47 -30 65.5 -72.5t18.5 -115.5v-561q0 -35 6 -47q11 -19 53 -31l119 -33v-45l-119 -37q-82 -27 -120.5 -79t-38.5 -111q0 -60 35.5 -94.5t111.5 -46.5zM629 131v338q-122 -16 -219 -39
q-74 -21 -109 -58.5t-35 -101.5q0 -75 54 -120.5t145 -45.5q81 0 151 23z" />
    <glyph glyph-name="Cacute" unicode="&#x106;" horiz-adv-x="1304" 
d="M1235 362l-25 -311q-113 -33 -204 -51q-114 -20 -240 -20q-184 0 -304.5 43.5t-213.5 142.5q-168 183 -168 485q0 172 56.5 321t162.5 253q98 97 228.5 142.5t310.5 45.5q191 0 383 -49v-313h-74l-98 260q-72 10 -166 10q-290 0 -437 -160q-159 -167 -159 -477
q0 -262 121 -418q73 -92 177 -132t269 -40q52 0 180 8l129 260h72zM1079 1802l-397 -301h-104l217 301h284z" />
    <glyph glyph-name="cacute" unicode="&#x107;" horiz-adv-x="944" 
d="M895 61q-109 -34 -127 -38q-144 -43 -250 -43q-200 0 -324 137t-124 356q0 242 155.5 391.5t405.5 149.5q128 0 256 -45v-213h-125l-92 184q-18 2 -43 2q-152 0 -256.5 -121.5t-104.5 -296.5q0 -191 101 -307q53 -60 120.5 -87.5t165.5 -27.5q56 0 94 4t134 21zM883 1440
l-398 -299h-104l215 299h287z" />
    <glyph glyph-name="Ccircumflex" unicode="&#x108;" horiz-adv-x="1304" 
d="M1235 362l-25 -311q-113 -33 -204 -51q-114 -20 -240 -20q-184 0 -304.5 43.5t-213.5 142.5q-168 183 -168 485q0 172 56.5 321t162.5 253q98 97 228.5 142.5t310.5 45.5q191 0 383 -49v-313h-74l-98 260q-72 10 -166 10q-290 0 -437 -160q-159 -167 -159 -477
q0 -262 121 -418q73 -92 177 -132t269 -40q52 0 180 8l129 260h72zM1167 1501h-127l-211 135l-204 -135h-127l331 328z" />
    <glyph glyph-name="ccircumflex" unicode="&#x109;" horiz-adv-x="944" 
d="M895 61q-109 -34 -127 -38q-144 -43 -250 -43q-200 0 -324 137t-124 356q0 242 155.5 391.5t405.5 149.5q128 0 256 -45v-213h-125l-92 184q-18 2 -43 2q-152 0 -256.5 -121.5t-104.5 -296.5q0 -191 101 -307q53 -60 120.5 -87.5t165.5 -27.5q56 0 94 4t134 21zM891 1141
h-127l-211 133l-205 -133h-127l332 325z" />
    <glyph glyph-name="Cdotaccent" unicode="&#x10a;" horiz-adv-x="1304" 
d="M1235 362l-25 -311q-113 -33 -204 -51q-114 -20 -240 -20q-184 0 -304.5 43.5t-213.5 142.5q-168 183 -168 485q0 172 56.5 321t162.5 253q98 97 228.5 142.5t310.5 45.5q191 0 383 -49v-313h-74l-98 260q-72 10 -166 10q-290 0 -437 -160q-159 -167 -159 -477
q0 -262 121 -418q73 -92 177 -132t269 -40q52 0 180 8l129 260h72zM897 1638q0 -96 -98 -96q-51 0 -75 22.5t-24 69.5q0 105 99 105q47 0 72.5 -26t25.5 -75z" />
    <glyph glyph-name="cdotaccent" unicode="&#x10b;" horiz-adv-x="944" 
d="M895 61q-109 -34 -127 -38q-144 -43 -250 -43q-200 0 -324 137t-124 356q0 242 155.5 391.5t405.5 149.5q128 0 256 -45v-213h-125l-92 184q-18 2 -43 2q-152 0 -256.5 -121.5t-104.5 -296.5q0 -191 101 -307q53 -60 120.5 -87.5t165.5 -27.5q56 0 94 4t134 21zM672 1280
q0 -98 -99 -98q-98 0 -98 92q0 51 25.5 77.5t72.5 26.5t73 -25.5t26 -72.5z" />
    <glyph glyph-name="Ccaron" unicode="&#x10c;" horiz-adv-x="1304" 
d="M1235 362l-25 -311q-113 -33 -204 -51q-114 -20 -240 -20q-184 0 -304.5 43.5t-213.5 142.5q-168 183 -168 485q0 172 56.5 321t162.5 253q98 97 228.5 142.5t310.5 45.5q191 0 383 -49v-313h-74l-98 260q-72 10 -166 10q-290 0 -437 -160q-159 -167 -159 -477
q0 -262 121 -418q73 -92 177 -132t269 -40q52 0 180 8l129 260h72zM1120 1827l-332 -328l-337 328h127l210 -133l205 133h127z" />
    <glyph glyph-name="ccaron" unicode="&#x10d;" horiz-adv-x="944" 
d="M895 61q-109 -34 -127 -38q-144 -43 -250 -43q-200 0 -324 137t-124 356q0 242 155.5 391.5t405.5 149.5q128 0 256 -45v-213h-125l-92 184q-18 2 -43 2q-152 0 -256.5 -121.5t-104.5 -296.5q0 -191 101 -307q53 -60 120.5 -87.5t165.5 -27.5q56 0 94 4t134 21zM877 1466
l-332 -325l-338 325h127l211 -133l205 133h127z" />
    <glyph glyph-name="Dcaron" unicode="&#x10e;" horiz-adv-x="1447" 
d="M1368 729q0 -191 -66 -344.5t-192 -251.5q-89 -69 -202 -101t-267 -32h-592v51l178 74v1143l-178 73v52h623q201 0 319.5 -42.5t212.5 -146.5q164 -185 164 -475zM1161 713q0 245 -117 409q-69 93 -162 134.5t-233 41.5h-225v-1204h199q133 0 217 32t159 112
q84 87 123 201.5t39 273.5zM954 1827l-331 -328l-338 328h127l211 -133l204 133h127z" />
    <glyph glyph-name="dcaron" unicode="&#x10f;" horiz-adv-x="1146" 
d="M1126 53l-352 -82v123l-139 -61q-68 -31 -107.5 -42t-83.5 -11q-158 0 -266 136.5t-108 336.5q0 161 70 289t196.5 200t286.5 72q99 0 151 -25v295l-186 55v43l373 84v-1316l165 -52v-45zM774 143v768q-57 13 -125 13q-178 0 -280.5 -112t-102.5 -302q0 -183 92 -289
t250 -106q71 0 166 28zM1309 1374q0 -134 -86 -203q-47 -39 -125 -63l-23 57q65 30 90.5 64t26.5 98h-23q-112 0 -112 96q0 46 30 73.5t82 27.5q140 0 140 -150z" />
    <glyph glyph-name="Dcroat" unicode="&#x110;" horiz-adv-x="1447" 
d="M1368 729q0 -191 -66 -344.5t-192 -251.5q-89 -69 -202 -101t-267 -32h-592v51l178 74v651h-198v94h198v398l-178 73v52h623q201 0 319.5 -42.5t212.5 -146.5q164 -185 164 -475zM1161 713q0 245 -117 409q-69 93 -162 134.5t-233 41.5h-225v-428h201v-94h-201v-682h199
q133 0 217 32t159 112q84 87 123 201.5t39 273.5z" />
    <glyph glyph-name="dcroat" unicode="&#x111;" horiz-adv-x="1146" 
d="M774 1188v96l-186 55v43l373 84v-278h169v-94h-169v-944l165 -52v-45l-352 -82v123l-139 -61q-68 -31 -107.5 -42t-83.5 -11q-158 0 -266 136.5t-108 336.5q0 161 70 289t196.5 200t286.5 72q99 0 151 -25v105h-260v94h260zM774 143v768q-57 13 -125 13
q-178 0 -280.5 -112t-102.5 -302q0 -183 92 -289t250 -106q71 0 166 28z" />
    <glyph glyph-name="Emacron" unicode="&#x112;" horiz-adv-x="1165" 
d="M1077 319l-33 -319h-995v51l178 74v1143l-178 73v52h987v-312h-69l-97 228h-446v-561h377l69 188h64v-457h-64l-69 185h-377v-570h457l127 225h69zM860 1567h-541v125h541v-125z" />
    <glyph glyph-name="emacron" unicode="&#x113;" horiz-adv-x="1013" 
d="M936 535h-657q2 -115 23 -186.5t73 -129.5q103 -115 293 -115q82 0 239 25l13 -68q-89 -27 -138 -41q-132 -40 -254 -40q-206 0 -332 137.5t-126 359.5q0 126 42.5 235t118.5 179q126 123 316 123q121 0 213.5 -55t134.5 -154q20 -43 28 -99t13 -171zM727 641
q-2 88 -13 135.5t-40 85.5q-28 37 -63 53.5t-89 16.5q-106 0 -166.5 -84.5t-74.5 -249.5zM791 1223h-541v125h541v-125z" />
    <glyph glyph-name="Ebreve" unicode="&#x114;" horiz-adv-x="1165" 
d="M1077 319l-33 -319h-995v51l178 74v1143l-178 73v52h987v-312h-69l-97 228h-446v-561h377l69 188h64v-457h-64l-69 185h-377v-570h457l127 225h69zM932 1763q-56 -73 -113 -121q-64 -55 -113.5 -75.5t-113.5 -20.5q-87 0 -169 52.5t-169 164.5l51 43q110 -76 166 -100.5
t121 -24.5q121 0 287 125z" />
    <glyph glyph-name="ebreve" unicode="&#x115;" horiz-adv-x="1013" 
d="M936 535h-657q2 -115 23 -186.5t73 -129.5q103 -115 293 -115q82 0 239 25l13 -68q-89 -27 -138 -41q-132 -40 -254 -40q-206 0 -332 137.5t-126 359.5q0 126 42.5 235t118.5 179q126 123 316 123q121 0 213.5 -55t134.5 -154q20 -43 28 -99t13 -171zM727 641
q-2 88 -13 135.5t-40 85.5q-28 37 -63 53.5t-89 16.5q-106 0 -166.5 -84.5t-74.5 -249.5zM856 1376q-63 -79 -113 -119q-62 -55 -112.5 -76.5t-112.5 -21.5q-88 0 -170 52.5t-170 164.5l51 45q110 -77 166 -102t121 -25q118 0 287 127z" />
    <glyph glyph-name="Edotaccent" unicode="&#x116;" horiz-adv-x="1165" 
d="M1077 319l-33 -319h-995v51l178 74v1143l-178 73v52h987v-312h-69l-97 228h-446v-561h377l69 188h64v-457h-64l-69 185h-377v-570h457l127 225h69zM709 1638q0 -96 -101 -96q-49 0 -72.5 22.5t-23.5 69.5q0 105 96 105q48 0 74.5 -26t26.5 -75z" />
    <glyph glyph-name="edotaccent" unicode="&#x117;" horiz-adv-x="1013" 
d="M936 535h-657q2 -115 23 -186.5t73 -129.5q103 -115 293 -115q82 0 239 25l13 -68q-89 -27 -138 -41q-132 -40 -254 -40q-206 0 -332 137.5t-126 359.5q0 126 42.5 235t118.5 179q126 123 316 123q121 0 213.5 -55t134.5 -154q20 -43 28 -99t13 -171zM727 641
q-2 88 -13 135.5t-40 85.5q-28 37 -63 53.5t-89 16.5q-106 0 -166.5 -84.5t-74.5 -249.5zM631 1280q0 -47 -26 -72.5t-75 -25.5q-96 0 -96 92q0 104 96 104q48 0 74.5 -25.5t26.5 -72.5z" />
    <glyph glyph-name="Eogonek" unicode="&#x118;" horiz-adv-x="1165" 
d="M965 -4v4h-916v51l178 74v1143l-178 73v52h987v-312h-69l-97 228h-446v-561h377l69 188h64v-457h-64l-69 185h-377v-570h457l127 225h69l-33 -319h-43q-114 -72 -114 -174q0 -60 36 -94.5t111 -46.5l-12 -66q-270 12 -270 186q0 160 213 191z" />
    <glyph glyph-name="eogonek" unicode="&#x119;" horiz-adv-x="1013" 
d="M754 -315l-13 -66q-270 12 -270 186q0 73 45 119t123 60v4q-55 -8 -111 -8q-206 0 -332 137.5t-126 359.5q0 126 42.5 235t118.5 179q126 123 316 123q121 0 213.5 -55t134.5 -154q20 -43 28 -99t13 -171h-657q2 -115 23 -186.5t73 -129.5q103 -115 293 -115q82 0 239 25
l13 -68l-70 -20q-113 -28 -170 -70q-35 -26 -54.5 -67t-19.5 -78q0 -117 148 -141zM727 641q-2 88 -13 135.5t-40 85.5q-28 37 -63 53.5t-89 16.5q-106 0 -166.5 -84.5t-74.5 -249.5z" />
    <glyph glyph-name="Ecaron" unicode="&#x11a;" horiz-adv-x="1165" 
d="M1077 319l-33 -319h-995v51l178 74v1143l-178 73v52h987v-312h-69l-97 228h-446v-561h377l69 188h64v-457h-64l-69 185h-377v-570h457l127 225h69zM928 1827l-334 -328l-338 328h127l211 -133l207 133h127z" />
    <glyph glyph-name="ecaron" unicode="&#x11b;" horiz-adv-x="1013" 
d="M936 535h-657q2 -115 23 -186.5t73 -129.5q103 -115 293 -115q82 0 239 25l13 -68q-89 -27 -138 -41q-132 -40 -254 -40q-206 0 -332 137.5t-126 359.5q0 126 42.5 235t118.5 179q126 123 316 123q121 0 213.5 -55t134.5 -154q20 -43 28 -99t13 -171zM727 641
q-2 88 -13 135.5t-40 85.5q-28 37 -63 53.5t-89 16.5q-106 0 -166.5 -84.5t-74.5 -249.5zM852 1466l-332 -325l-340 325h129l211 -133l205 133h127z" />
    <glyph glyph-name="Gcircumflex" unicode="&#x11c;" horiz-adv-x="1419" 
d="M1399 518l-178 -69v-394q-131 -34 -205 -49q-133 -26 -262 -26q-152 0 -285 50.5t-215 139.5q-174 192 -174 498q0 357 223 565q98 93 227 136.5t308 43.5q158 0 405 -51v-311h-80l-92 256q-65 16 -168 16q-162 0 -267 -37t-183 -121q-166 -169 -166 -477
q0 -247 104 -391q75 -106 181.5 -154.5t265.5 -48.5q118 0 186 10v345l-174 69v51h549v-51zM1112 1501h-127l-211 135l-205 -135h-127l332 328z" />
    <glyph glyph-name="gcircumflex" unicode="&#x11d;" horiz-adv-x="1067" 
d="M1067 852l-313 66q63 -44 102 -107q35 -65 35 -143q0 -142 -109 -235t-276 -93q-56 0 -105 10q-82 -92 -82 -139q0 -32 35 -53q42 -25 119 -25h281q78 0 122.5 -13.5t75.5 -45.5q54 -57 54 -142q0 -159 -164 -280q-69 -50 -167 -78.5t-192 -28.5q-205 0 -340 78
q-57 35 -90 80.5t-33 89.5q0 71 84 129q41 34 138 78q-86 57 -86 125q0 48 53 104q71 78 141 136q-91 25 -139 65q-55 42 -86 105t-31 131q0 145 112.5 246.5t270.5 101.5q122 0 230 -58l360 74v-178zM705 649q0 135 -76 221q-58 70 -142 70q-85 0 -140.5 -67t-55.5 -171
q0 -179 110 -253q54 -35 107 -35q88 0 142.5 65.5t54.5 169.5zM850 -137q0 25 -13 49t-36 37q-34 20 -135 20h-295q-48 0 -86 13q-39 -28 -70 -77.5t-31 -84.5q0 -82 89 -136.5t223 -54.5q146 0 250 68.5t104 165.5zM805 1141h-127l-211 133l-205 -133h-127l332 325z" />
    <glyph glyph-name="Gbreve" unicode="&#x11e;" horiz-adv-x="1419" 
d="M1399 518l-178 -69v-394q-131 -34 -205 -49q-133 -26 -262 -26q-152 0 -285 50.5t-215 139.5q-174 192 -174 498q0 357 223 565q98 93 227 136.5t308 43.5q158 0 405 -51v-311h-80l-92 256q-65 16 -168 16q-162 0 -267 -37t-183 -121q-166 -169 -166 -477
q0 -247 104 -391q75 -106 181.5 -154.5t265.5 -48.5q118 0 186 10v345l-174 69v51h549v-51zM1130 1763q-58 -76 -112 -121q-62 -54 -112 -75t-113 -21q-88 0 -170 52.5t-170 164.5l51 43q110 -76 166 -100.5t121 -24.5q119 0 288 125z" />
    <glyph glyph-name="gbreve" unicode="&#x11f;" horiz-adv-x="1067" 
d="M1067 852l-313 66q63 -44 102 -107q35 -65 35 -143q0 -142 -109 -235t-276 -93q-56 0 -105 10q-82 -92 -82 -139q0 -32 35 -53q42 -25 119 -25h281q78 0 122.5 -13.5t75.5 -45.5q54 -57 54 -142q0 -159 -164 -280q-69 -50 -167 -78.5t-192 -28.5q-205 0 -340 78
q-57 35 -90 80.5t-33 89.5q0 71 84 129q41 34 138 78q-86 57 -86 125q0 48 53 104q71 78 141 136q-91 25 -139 65q-55 42 -86 105t-31 131q0 145 112.5 246.5t270.5 101.5q122 0 230 -58l360 74v-178zM705 649q0 135 -76 221q-58 70 -142 70q-85 0 -140.5 -67t-55.5 -171
q0 -179 110 -253q54 -35 107 -35q88 0 142.5 65.5t54.5 169.5zM850 -137q0 25 -13 49t-36 37q-34 20 -135 20h-295q-48 0 -86 13q-39 -28 -70 -77.5t-31 -84.5q0 -82 89 -136.5t223 -54.5q146 0 250 68.5t104 165.5zM842 1376q-63 -79 -111 -119q-64 -55 -114 -76.5
t-113 -21.5q-88 0 -170 52.5t-168 164.5l49 45q110 -77 166 -102t121 -25q64 0 131 30t158 97z" />
    <glyph glyph-name="Gdotaccent" unicode="&#x120;" horiz-adv-x="1419" 
d="M1399 518l-178 -69v-394q-131 -34 -205 -49q-133 -26 -262 -26q-152 0 -285 50.5t-215 139.5q-174 192 -174 498q0 357 223 565q98 93 227 136.5t308 43.5q158 0 405 -51v-311h-80l-92 256q-65 16 -168 16q-162 0 -267 -37t-183 -121q-166 -169 -166 -477
q0 -247 104 -391q75 -106 181.5 -154.5t265.5 -48.5q118 0 186 10v345l-174 69v51h549v-51zM932 1638q0 -96 -101 -96q-98 0 -98 92q0 51 25.5 78t72.5 27q48 0 74.5 -26t26.5 -75z" />
    <glyph glyph-name="gdotaccent" unicode="&#x121;" horiz-adv-x="1067" 
d="M1067 852l-313 66q63 -44 102 -107q35 -65 35 -143q0 -142 -109 -235t-276 -93q-56 0 -105 10q-82 -92 -82 -139q0 -32 35 -53q42 -25 119 -25h281q78 0 122.5 -13.5t75.5 -45.5q54 -57 54 -142q0 -159 -164 -280q-69 -50 -167 -78.5t-192 -28.5q-205 0 -340 78
q-57 35 -90 80.5t-33 89.5q0 71 84 129q41 34 138 78q-86 57 -86 125q0 48 53 104q71 78 141 136q-91 25 -139 65q-55 42 -86 105t-31 131q0 145 112.5 246.5t270.5 101.5q122 0 230 -58l360 74v-178zM705 649q0 135 -76 221q-58 70 -142 70q-85 0 -140.5 -67t-55.5 -171
q0 -179 110 -253q54 -35 107 -35q88 0 142.5 65.5t54.5 169.5zM850 -137q0 25 -13 49t-36 37q-34 20 -135 20h-295q-48 0 -86 13q-39 -28 -70 -77.5t-31 -84.5q0 -82 89 -136.5t223 -54.5q146 0 250 68.5t104 165.5zM573 1280q0 -98 -100 -98q-96 0 -96 92q0 104 96 104
q47 0 73.5 -25.5t26.5 -72.5z" />
    <glyph glyph-name="Gcommaaccent" unicode="&#x122;" horiz-adv-x="1419" 
d="M1399 518l-178 -69v-394q-131 -34 -205 -49q-133 -26 -262 -26q-152 0 -285 50.5t-215 139.5q-174 192 -174 498q0 357 223 565q98 93 227 136.5t308 43.5q158 0 405 -51v-311h-80l-92 256q-65 16 -168 16q-162 0 -267 -37t-183 -121q-166 -169 -166 -477
q0 -247 104 -391q75 -106 181.5 -154.5t265.5 -48.5q118 0 186 10v345l-174 69v51h549v-51zM940 -238q0 -133 -84 -202q-54 -42 -125 -64l-24 58q66 29 90.5 63t25.5 98h-22q-54 0 -83.5 25.5t-29.5 71.5t30.5 73t82.5 27q139 0 139 -150z" />
    <glyph glyph-name="gcommaaccent" unicode="&#x123;" horiz-adv-x="1067" 
d="M1067 852l-313 66q63 -44 102 -107q35 -65 35 -143q0 -142 -109 -235t-276 -93q-56 0 -105 10q-82 -92 -82 -139q0 -32 35 -53q42 -25 119 -25h281q78 0 122.5 -13.5t75.5 -45.5q54 -57 54 -142q0 -159 -164 -280q-69 -50 -167 -78.5t-192 -28.5q-205 0 -340 78
q-57 35 -90 80.5t-33 89.5q0 71 84 129q41 34 138 78q-86 57 -86 125q0 48 53 104q71 78 141 136q-91 25 -139 65q-55 42 -86 105t-31 131q0 145 112.5 246.5t270.5 101.5q122 0 230 -58l360 74v-178zM705 649q0 135 -76 221q-58 70 -142 70q-85 0 -140.5 -67t-55.5 -171
q0 -179 110 -253q54 -35 107 -35q88 0 142.5 65.5t54.5 169.5zM850 -137q0 25 -13 49t-36 37q-34 20 -135 20h-295q-48 0 -86 13q-39 -28 -70 -77.5t-31 -84.5q0 -82 89 -136.5t223 -54.5q146 0 250 68.5t104 165.5zM362 1270q0 136 87 203q49 39 124 63l23 -57
q-65 -30 -90.5 -64t-28.5 -98h25q55 0 83.5 -25t28.5 -71t-30.5 -73.5t-81.5 -27.5q-140 0 -140 150z" />
    <glyph glyph-name="Hcircumflex" unicode="&#x124;" horiz-adv-x="1492" 
d="M1442 0h-549v51l178 74v549h-647v-549l174 -74v-51h-549v51l178 74v1145l-178 71v52h549v-52l-174 -71v-488h647v488l-178 71v52h549v-52l-174 -71v-1145l174 -74v-51zM1085 1501h-127l-210 135l-205 -135h-127l332 328z" />
    <glyph glyph-name="hcircumflex" unicode="&#x125;" horiz-adv-x="1251" 
d="M1231 0h-526v51l165 74v522q0 137 -84 189q-57 36 -182 36q-111 0 -180 -10v-737l156 -74v-51h-519v51l177 74v1159l-189 53v45l375 84v-555l131 52q86 33 122.5 42t94.5 9q129 0 211 -88q41 -42 57.5 -97.5t16.5 -144.5v-559l174 -74v-51zM657 1501h-129l-211 135
l-204 -135h-127l331 328z" />
    <glyph glyph-name="Hbar" unicode="&#x126;" horiz-adv-x="1492" 
d="M1442 0h-549v51l178 74v549h-647v-549l174 -74v-51h-549v51l178 74v1145l-178 71v52h549v-52l-174 -71v-168h647v168l-178 71v52h549v-52l-174 -71v-1145l174 -74v-51zM424 782h647v213h-647v-213z" />
    <glyph glyph-name="hbar" unicode="&#x127;" horiz-adv-x="1251" 
d="M1231 0h-526v51l165 74v522q0 137 -84 189q-57 36 -182 36q-111 0 -180 -10v-737l156 -74v-51h-519v51l177 74v969h-170v94h170v96l-189 53v45l375 84v-278h260v-94h-260v-183l131 52q86 33 122.5 42t94.5 9q129 0 211 -88q41 -42 57.5 -97.5t16.5 -144.5v-559l174 -74
v-51z" />
    <glyph glyph-name="Itilde" unicode="&#x128;" horiz-adv-x="649" 
d="M598 0h-549v51l178 74v1143l-178 73v52h549v-52l-174 -73v-1143l174 -74v-51zM672 1743q-89 -122 -142 -166q-38 -27 -75 -27q-33 0 -86 27l-146 76q-40 20 -57 20q-34 0 -143 -106l-46 47q5 6 31 39.5t39.5 50t34.5 39.5t37 35q35 28 76 28q35 0 88 -28l145 -74
q38 -21 57 -21t48.5 21.5t95.5 83.5z" />
    <glyph glyph-name="itilde" unicode="&#x129;" horiz-adv-x="618" 
d="M590 0h-541v51l178 74v717l-178 53v45l365 80v-895l176 -74v-51zM649 1380q-6 -7 -31 -39.5t-38.5 -49t-34.5 -39.5t-37 -35q-39 -29 -76 -29q-35 0 -88 29l-145 73q-42 21 -58 21q-32 0 -143 -105l-43 45q102 136 141 166q37 27 76 27q33 0 86 -27l145 -76
q40 -20 58 -20q19 0 48.5 22t94.5 84z" />
    <glyph glyph-name="Imacron" unicode="&#x12a;" horiz-adv-x="649" 
d="M598 0h-549v51l178 74v1143l-178 73v52h549v-52l-174 -73v-1143l174 -74v-51zM592 1567h-541v125h541v-125z" />
    <glyph glyph-name="imacron" unicode="&#x12b;" horiz-adv-x="618" 
d="M590 0h-541v51l178 74v717l-178 53v45l365 80v-895l176 -74v-51zM565 1223h-538v125h538v-125z" />
    <glyph glyph-name="Ibreve" unicode="&#x12c;" horiz-adv-x="649" 
d="M598 0h-549v51l178 74v1143l-178 73v52h549v-52l-174 -73v-1143l174 -74v-51zM662 1763q-48 -66 -111 -121q-64 -55 -113.5 -75.5t-113.5 -20.5q-87 0 -169 52.5t-169 164.5l49 43q109 -75 166 -100t121 -25q122 0 288 125z" />
    <glyph glyph-name="ibreve" unicode="&#x12d;" horiz-adv-x="618" 
d="M590 0h-541v51l178 74v717l-178 53v45l365 80v-895l176 -74v-51zM649 1376q-26 -32 -37 -45.5t-31.5 -34.5t-43.5 -39q-62 -55 -113 -76.5t-113 -21.5q-88 0 -170 52.5t-170 164.5l52 45q110 -77 165.5 -102t120.5 -25q118 0 287 127z" />
    <glyph glyph-name="Iogonek" unicode="&#x12e;" horiz-adv-x="649" 
d="M393 -4v4h-344v51l178 74v1143l-178 73v52h549v-52l-174 -73v-1143l174 -74v-51h-170q-115 -72 -115 -174q0 -117 148 -141l-10 -66q-273 12 -273 186q0 161 215 191z" />
    <glyph glyph-name="iogonek" unicode="&#x12f;" horiz-adv-x="618" 
d="M444 1356q0 -113 -125 -113q-124 0 -124 109q0 108 124 108q125 0 125 -104zM590 0h-150q-114 -72 -114 -174q0 -60 36 -94.5t111 -46.5l-12 -66q-271 12 -271 186q0 159 213 191v4h-354v51l178 74v721l-178 53v45l365 80v-899l176 -74v-51z" />
    <glyph glyph-name="Idotaccent" unicode="&#x130;" horiz-adv-x="649" 
d="M598 0h-549v51l178 74v1143l-178 73v52h549v-52l-174 -73v-1143l174 -74v-51zM428 1638q0 -96 -100 -96q-97 0 -97 92q0 51 25 78t72 27q48 0 74 -26t26 -75z" />
    <glyph glyph-name="dotlessi" unicode="&#x131;" horiz-adv-x="618" 
d="M590 0h-541v51l178 74v717l-178 53v45l365 80v-895l176 -74v-51z" />
    <glyph glyph-name="Jcircumflex" unicode="&#x134;" horiz-adv-x="632" 
d="M623 1341l-177 -71v-1282q0 -116 -29 -196t-95 -146q-63 -66 -137 -93.5t-185 -27.5q-86 0 -139 12v205h141l66 -135q180 12 180 278v1385l-174 71v52h549v-52zM676 1501h-127l-211 135l-205 -135h-127l332 328z" />
    <glyph glyph-name="jcircumflex" unicode="&#x135;" horiz-adv-x="620" 
d="M440 -16q0 -118 -30.5 -193t-104.5 -143q-61 -55 -128.5 -79t-156.5 -24q-84 0 -139 9v198h131l66 -131q95 26 134.5 90.5t39.5 190.5v942l-174 49v47l362 80v-1036zM645 1141h-127l-211 133l-205 -133h-129l334 325z" />
    <glyph glyph-name="Kcommaaccent" unicode="&#x136;" horiz-adv-x="1273" 
d="M1284 0h-330l-505 735l479 545l-142 61v52h465v-52l-155 -73l-459 -465l487 -678l160 -74v-51zM598 0h-549v51l178 74v1143l-178 73v52h549v-52l-174 -73v-1143l174 -74v-51zM834 -238q0 -131 -86 -202q-49 -40 -125 -64l-25 58q67 30 92.5 63.5t26.5 97.5h-23
q-55 0 -83.5 25.5t-28.5 71.5t30 73t82 27q140 0 140 -150z" />
    <glyph glyph-name="kcommaaccent" unicode="&#x137;" horiz-adv-x="1179" 
d="M1190 0h-318l-419 541l356 350l-139 55v49h487v-49l-205 -65l-305 -279l387 -489l156 -62v-51zM598 0h-539v51l179 74v1159l-189 53v45l375 84v-1341l174 -74v-51zM819 -238q0 -133 -86 -202q-51 -42 -125 -64l-22 58q65 30 90 63.5t26 97.5h-22q-55 0 -84 25.5t-29 71.5
t30.5 73t82.5 27q139 0 139 -150z" />
    <glyph glyph-name="kgreenlandic" unicode="&#x138;" horiz-adv-x="1179" 
d="M1190 0h-318l-419 541l356 350l-139 55v49h487v-49l-205 -65l-305 -279l387 -489l156 -62v-51zM598 0h-539v51l179 74v717l-189 53v45l375 82v-897l174 -74v-51z" />
    <glyph glyph-name="Lacute" unicode="&#x139;" horiz-adv-x="1005" 
d="M995 352l-32 -352h-914v51l178 74v1143l-178 73v52h549v-52l-174 -73v-1174h369l131 258h71zM659 1802l-399 -301h-104l217 301h286z" />
    <glyph glyph-name="lacute" unicode="&#x13a;" horiz-adv-x="618" 
d="M598 0h-539v51l179 74v1159l-189 53v45l375 84v-1341l174 -74v-51zM651 1802l-399 -301h-105l218 301h286z" />
    <glyph glyph-name="Lcommaaccent" unicode="&#x13b;" horiz-adv-x="1005" 
d="M995 352l-32 -352h-914v51l178 74v1143l-178 73v52h549v-52l-174 -73v-1174h369l131 258h71zM684 -238q0 -133 -86 -202q-49 -40 -125 -64l-22 58q65 30 90 63.5t26 97.5h-22q-55 0 -84 25.5t-29 71.5t30.5 73t82.5 27q139 0 139 -150z" />
    <glyph glyph-name="lcommaaccent" unicode="&#x13c;" horiz-adv-x="618" 
d="M598 0h-539v51l179 74v1159l-189 53v45l375 84v-1341l174 -74v-51zM479 -238q0 -133 -86 -202q-49 -40 -125 -64l-24 58q66 29 91.5 63t26.5 98h-22q-55 0 -84 25.5t-29 71.5t30.5 73t82.5 27q139 0 139 -150z" />
    <glyph glyph-name="Lcaron" unicode="&#x13d;" horiz-adv-x="1005" 
d="M995 352l-32 -352h-914v51l178 74v1143l-178 73v52h549v-52l-174 -73v-1174h369l131 258h71zM963 1253q0 -136 -86 -202q-44 -39 -125 -64l-23 57q65 28 90.5 63t26.5 99h-23q-112 0 -112 94q0 46 30 74.5t82 28.5q140 0 140 -150z" />
    <glyph glyph-name="lcaron" unicode="&#x13e;" horiz-adv-x="618" 
d="M598 0h-539v51l179 74v1159l-189 53v45l375 84v-1341l174 -74v-51zM748 1374q0 -134 -86 -203q-49 -40 -125 -63l-23 57q65 30 90.5 64t26.5 98h-23q-112 0 -112 96q0 46 30 73.5t82 27.5q140 0 140 -150z" />
    <glyph glyph-name="Ldot" unicode="&#x13f;" horiz-adv-x="1005" 
d="M995 352l-32 -352h-914v51l178 74v1143l-178 73v52h549v-52l-174 -73v-1174h369l131 258h71zM903 905q0 -98 -100 -98q-96 0 -96 92q0 51 24.5 79t71.5 28q49 0 74.5 -26.5t25.5 -74.5z" />
    <glyph glyph-name="ldot" unicode="&#x140;" horiz-adv-x="618" 
d="M598 0h-539v51l179 74v1159l-189 53v45l375 84v-1341l174 -74v-51zM737 905q0 -98 -98 -98t-98 92q0 51 25.5 79t72.5 28t72.5 -26.5t25.5 -74.5z" />
    <glyph glyph-name="Lslash" unicode="&#x141;" horiz-adv-x="1005" 
d="M995 352l-32 -352h-914v51l178 74v596l-198 -100v106l198 98v443l-178 73v52h549v-52l-174 -73v-344l373 184v-102l-373 -187v-725h369l131 258h71z" />
    <glyph glyph-name="lslash" unicode="&#x142;" horiz-adv-x="651" 
d="M641 911l-195 -98v-688l175 -74v-51h-539v51l176 74v596l-199 -100v106l199 98v459l-186 53v45l374 84v-548l195 96v-103z" />
    <glyph glyph-name="Nacute" unicode="&#x143;" horiz-adv-x="1462" 
d="M1442 1341l-176 -73v-1288h-64l-862 1163v-1018l176 -74v-51h-467v51l178 74v1143l-178 73v52h344l758 -1008v883l-174 73v52h465v-52zM1104 1802l-397 -301h-107l217 301h287z" />
    <glyph glyph-name="nacute" unicode="&#x144;" horiz-adv-x="1241" 
d="M1221 0h-527v51l166 74v522q0 137 -84 189q-57 36 -182 36q-111 0 -180 -10v-737l155 -74v-51h-518v51l176 74v717l-186 53v45l375 82v-113q21 9 64.5 27.5t64.5 26.5q89 34 124 42.5t93 8.5q129 0 211 -88q41 -42 57.5 -97.5t16.5 -144.5v-559l174 -74v-51zM911 1440
l-397 -299h-106l217 299h286z" />
    <glyph glyph-name="Ncommaaccent" unicode="&#x145;" horiz-adv-x="1462" 
d="M1442 1341l-176 -73v-1288h-64l-862 1163v-1018l176 -74v-51h-467v51l178 74v1143l-178 73v52h344l758 -1008v883l-174 73v52h465v-52zM905 -238q0 -131 -86 -202q-49 -40 -125 -64l-24 58q66 29 91.5 63t26.5 98h-22q-55 0 -84 25.5t-29 71.5t30.5 73t82.5 27
q139 0 139 -150z" />
    <glyph glyph-name="ncommaaccent" unicode="&#x146;" horiz-adv-x="1241" 
d="M1221 0h-527v51l166 74v522q0 137 -84 189q-57 36 -182 36q-111 0 -180 -10v-737l155 -74v-51h-518v51l176 74v717l-186 53v45l375 82v-113q21 9 64.5 27.5t64.5 26.5q89 34 124 42.5t93 8.5q129 0 211 -88q41 -42 57.5 -97.5t16.5 -144.5v-559l174 -74v-51zM766 -238
q0 -131 -86 -202q-49 -40 -125 -64l-25 58q67 30 92.5 63.5t26.5 97.5h-22q-55 0 -84 25.5t-29 71.5t30.5 73t82.5 27q139 0 139 -150z" />
    <glyph glyph-name="Ncaron" unicode="&#x147;" horiz-adv-x="1462" 
d="M1442 1341l-176 -73v-1288h-64l-862 1163v-1018l176 -74v-51h-467v51l178 74v1143l-178 73v52h344l758 -1008v883l-174 73v52h465v-52zM1079 1827l-334 -328l-337 328h127l210 -133l205 133h129z" />
    <glyph glyph-name="ncaron" unicode="&#x148;" horiz-adv-x="1241" 
d="M1221 0h-527v51l166 74v522q0 137 -84 189q-57 36 -182 36q-111 0 -180 -10v-737l155 -74v-51h-518v51l176 74v717l-186 53v45l375 82v-113q21 9 64.5 27.5t64.5 26.5q89 34 124 42.5t93 8.5q129 0 211 -88q41 -42 57.5 -97.5t16.5 -144.5v-559l174 -74v-51zM954 1466
l-331 -325l-338 325h127l211 -133l204 133h127z" />
    <glyph glyph-name="Eng" unicode="&#x14a;" horiz-adv-x="1462" 
d="M1151 -37v84l-811 1096v-1018l176 -74v-51h-467v51l178 74v1143l-178 73v52h344l758 -1008v883l-174 73v52h465v-52l-176 -73v-1288q0 -114 -31.5 -188.5t-104.5 -143.5q-61 -55 -128 -79t-156 -24q-84 0 -139 9v198h131l65 -131q111 26 179.5 120.5t68.5 221.5z" />
    <glyph glyph-name="eng" unicode="&#x14b;" horiz-adv-x="1241" 
d="M1047 -16q0 -117 -31 -192.5t-105 -143.5q-61 -55 -128 -79t-156 -24q-85 0 -140 9v198h131l66 -131q95 26 135.5 90.5t40.5 190.5v745q0 137 -84 189q-57 36 -182 36q-111 0 -180 -10v-737l155 -74v-51h-518v51l176 74v717l-186 53v45l375 82v-113q21 9 64.5 27.5
t64.5 26.5q89 34 124 42.5t93 8.5q129 0 211 -88q41 -42 57.5 -97.5t16.5 -144.5v-700z" />
    <glyph glyph-name="Omacron" unicode="&#x14c;" horiz-adv-x="1447" 
d="M1368 717q0 -218 -84 -389t-236 -266t-346 -95q-282 0 -452 187.5t-170 498.5q0 121 27 233t82.5 208t133 167t184.5 111.5t232 40.5q150 0 270.5 -54t198.5 -148.5t119 -220.5t41 -273zM1151 684q0 73 -9 143.5t-28.5 143.5t-54 134.5t-80.5 110t-113.5 76t-148.5 27.5
q-96 0 -171.5 -39t-121 -100t-75.5 -145t-41 -165.5t-11 -169.5q0 -294 115.5 -466.5t314.5 -172.5q195 0 309.5 168.5t114.5 454.5zM1001 1567h-540v125h540v-125z" />
    <glyph glyph-name="omacron" unicode="&#x14d;" horiz-adv-x="1112" 
d="M1042 508q0 -146 -61 -269t-176.5 -197.5t-261.5 -74.5q-210 0 -341.5 140.5t-131.5 365.5q0 156 58 277.5t172.5 192.5t270.5 71q217 0 344 -143t127 -363zM836 465q0 52 -5 100.5t-16.5 102t-33.5 97.5t-52.5 80.5t-77 56.5t-104.5 20q-129 0 -200 -109.5t-71 -310.5
q0 -61 7.5 -118.5t27.5 -117.5t51.5 -104t83.5 -72.5t119 -28.5q62 0 111 25.5t78.5 65.5t48.5 95t26 108t7 110zM836 1223h-539v125h539v-125z" />
    <glyph glyph-name="Obreve" unicode="&#x14e;" horiz-adv-x="1447" 
d="M1368 717q0 -218 -84 -389t-236 -266t-346 -95q-282 0 -452 187.5t-170 498.5q0 121 27 233t82.5 208t133 167t184.5 111.5t232 40.5q150 0 270.5 -54t198.5 -148.5t119 -220.5t41 -273zM1151 684q0 73 -9 143.5t-28.5 143.5t-54 134.5t-80.5 110t-113.5 76t-148.5 27.5
q-96 0 -171.5 -39t-121 -100t-75.5 -145t-41 -165.5t-11 -169.5q0 -294 115.5 -466.5t314.5 -172.5q195 0 309.5 168.5t114.5 454.5zM1079 1763q-54 -70 -112 -121q-63 -55 -113.5 -75.5t-114.5 -20.5q-87 0 -169 52.5t-169 164.5l52 43q108 -75 164 -100t120 -25
q123 0 289 125z" />
    <glyph glyph-name="obreve" unicode="&#x14f;" horiz-adv-x="1112" 
d="M1042 508q0 -146 -61 -269t-176.5 -197.5t-261.5 -74.5q-210 0 -341.5 140.5t-131.5 365.5q0 156 58 277.5t172.5 192.5t270.5 71q217 0 344 -143t127 -363zM836 465q0 52 -5 100.5t-16.5 102t-33.5 97.5t-52.5 80.5t-77 56.5t-104.5 20q-129 0 -200 -109.5t-71 -310.5
q0 -61 7.5 -118.5t27.5 -117.5t51.5 -104t83.5 -72.5t119 -28.5q62 0 111 25.5t78.5 65.5t48.5 95t26 108t7 110zM889 1376q-54 -72 -111 -119q-64 -55 -114 -76.5t-113 -21.5q-172 0 -338 217l49 45q110 -77 166 -102t121 -25q64 0 132 30t157 97z" />
    <glyph glyph-name="Ohungarumlaut" unicode="&#x150;" horiz-adv-x="1447" 
d="M1368 717q0 -218 -84 -389t-236 -266t-346 -95q-282 0 -452 187.5t-170 498.5q0 121 27 233t82.5 208t133 167t184.5 111.5t232 40.5q150 0 270.5 -54t198.5 -148.5t119 -220.5t41 -273zM1151 684q0 73 -9 143.5t-28.5 143.5t-54 134.5t-80.5 110t-113.5 76t-148.5 27.5
q-96 0 -171.5 -39t-121 -100t-75.5 -145t-41 -165.5t-11 -169.5q0 -294 115.5 -466.5t314.5 -172.5q195 0 309.5 168.5t114.5 454.5zM1096 1776l-236 -279h-80l138 279h178zM801 1776l-238 -279h-76l138 279h176z" />
    <glyph glyph-name="ohungarumlaut" unicode="&#x151;" horiz-adv-x="1112" 
d="M1042 508q0 -146 -61 -269t-176.5 -197.5t-261.5 -74.5q-210 0 -341.5 140.5t-131.5 365.5q0 156 58 277.5t172.5 192.5t270.5 71q217 0 344 -143t127 -363zM836 465q0 52 -5 100.5t-16.5 102t-33.5 97.5t-52.5 80.5t-77 56.5t-104.5 20q-129 0 -200 -109.5t-71 -310.5
q0 -61 7.5 -118.5t27.5 -117.5t51.5 -104t83.5 -72.5t119 -28.5q62 0 111 25.5t78.5 65.5t48.5 95t26 108t7 110zM915 1419l-237 -278h-80l137 278h180zM618 1419l-235 -278h-76l137 278h174z" />
    <glyph glyph-name="OE" unicode="&#x152;" horiz-adv-x="1853" 
d="M1776 311l-31 -311h-868q-81 -20 -179 -20q-282 0 -450 189.5t-168 506.5q0 155 44.5 288.5t127 232.5t209.5 155.5t284 56.5q65 0 191 -20h801v-310h-66l-94 215h-444v-549h372l72 189h65v-457h-65l-72 185h-372v-578h452l121 227h70zM936 133v1106q-49 37 -96 51.5
t-113 14.5q-196 0 -307 -158.5t-111 -435.5q0 -90 11.5 -174t41.5 -170t77 -149.5t123.5 -103.5t174.5 -40q108 0 199 59z" />
    <glyph glyph-name="oe" unicode="&#x153;" horiz-adv-x="1767" 
d="M1688 535h-658q2 -115 23 -186.5t73 -129.5q103 -115 295 -115q81 0 238 25l12 -68q-88 -27 -137 -41q-128 -40 -252 -40q-240 0 -356 192q-63 -96 -161.5 -150.5t-221.5 -54.5q-210 0 -341.5 140.5t-131.5 365.5q0 156 58 277.5t172.5 192.5t270.5 71q114 0 209 -54.5
t158 -142.5q31 45 55 64q136 133 305 133q121 0 214 -55t135 -154q20 -43 28 -99t13 -171zM1479 641q-1 87 -12.5 135t-39.5 86q-30 38 -64 54t-87 16q-107 0 -168.5 -84.5t-75.5 -249.5zM836 465q0 52 -5 100.5t-16.5 102t-33.5 97.5t-52.5 80.5t-77 56.5t-104.5 20
q-129 0 -200 -109.5t-71 -310.5q0 -61 7.5 -118.5t27.5 -117.5t51.5 -104t83.5 -72.5t119 -28.5q62 0 111 25.5t78.5 65.5t48.5 95t26 108t7 110z" />
    <glyph glyph-name="Racute" unicode="&#x154;" horiz-adv-x="1257" 
d="M1288 0h-336l-454 662h-74v-539l174 -72v-51h-549v51l178 72v1145l-178 73v52h563q123 0 187.5 -16.5t122.5 -61.5q116 -93 116 -258q0 -140 -89 -237t-242 -122l419 -571l162 -76v-51zM821 1038q0 125 -66 198t-188 73h-143v-564h139q115 0 186.5 82.5t71.5 210.5z
M918 1802l-398 -301h-106l217 301h287z" />
    <glyph glyph-name="racute" unicode="&#x155;" horiz-adv-x="837" 
d="M827 756h-143l-61 121q-25 2 -54 2q-69 0 -155 -33v-721l217 -74v-51h-582v51l178 74v719l-186 53v45l373 82v-127q129 64 197 90.5t112 26.5q47 0 104 -31v-227zM713 1440l-400 -299h-104l217 299h287z" />
    <glyph glyph-name="Rcommaaccent" unicode="&#x156;" horiz-adv-x="1257" 
d="M1288 0h-336l-454 662h-74v-539l174 -72v-51h-549v51l178 72v1145l-178 73v52h563q123 0 187.5 -16.5t122.5 -61.5q116 -93 116 -258q0 -140 -89 -237t-242 -122l419 -571l162 -76v-51zM821 1038q0 125 -66 198t-188 73h-143v-564h139q115 0 186.5 82.5t71.5 210.5z
M817 -238q0 -133 -86 -202q-51 -42 -125 -64l-22 58q65 30 90 63.5t26 97.5h-22q-55 0 -84 25.5t-29 71.5t30.5 73t82.5 27q139 0 139 -150z" />
    <glyph glyph-name="rcommaaccent" unicode="&#x157;" horiz-adv-x="837" 
d="M827 756h-143l-61 121q-25 2 -54 2q-69 0 -155 -33v-721l217 -74v-51h-582v51l178 74v719l-186 53v45l373 82v-127q129 64 197 90.5t112 26.5q47 0 104 -31v-227zM530 -238q0 -133 -84 -202q-55 -42 -127 -64l-22 58q65 30 90.5 63.5t26.5 97.5h-23q-55 0 -83.5 25.5
t-28.5 71.5t30 73t82 27q139 0 139 -150z" />
    <glyph glyph-name="Rcaron" unicode="&#x158;" horiz-adv-x="1257" 
d="M1288 0h-336l-454 662h-74v-539l174 -72v-51h-549v51l178 72v1145l-178 73v52h563q123 0 187.5 -16.5t122.5 -61.5q116 -93 116 -258q0 -140 -89 -237t-242 -122l419 -571l162 -76v-51zM821 1038q0 125 -66 198t-188 73h-143v-564h139q115 0 186.5 82.5t71.5 210.5z
M901 1827l-332 -328l-338 328h127l211 -133l205 133h127z" />
    <glyph glyph-name="rcaron" unicode="&#x159;" horiz-adv-x="837" 
d="M827 756h-143l-61 121q-25 2 -54 2q-69 0 -155 -33v-721l217 -74v-51h-582v51l178 74v719l-186 53v45l373 82v-127q129 64 197 90.5t112 26.5q47 0 104 -31v-227zM752 1466l-332 -325l-338 325h127l211 -133l205 133h127z" />
    <glyph glyph-name="Sacute" unicode="&#x15a;" horiz-adv-x="1052" 
d="M942 358q0 -175 -125 -278q-124 -100 -319 -100q-114 0 -252 30q-32 7 -70.5 17.5t-66.5 17.5v307h75l103 -256q74 -12 153 -12q140 0 211 49q84 63 84 174q0 28 -5.5 53t-12.5 43.5t-23 38.5t-26.5 31.5t-35 30.5t-36 27t-41.5 28l-203 135q-83 55 -120 88t-64 78
q-49 74 -49 187q0 164 110.5 265t290.5 101q115 0 228 -24l153 -31v-297h-78l-98 250q-84 8 -125 8q-303 0 -303 -203q0 -34 10.5 -65t24 -52t40.5 -45.5t45 -37.5t54 -37l221 -144q92 -58 126 -87.5t63 -72.5q61 -85 61 -217zM870 1802l-399 -301h-104l217 301h286z" />
    <glyph glyph-name="sacute" unicode="&#x15b;" horiz-adv-x="841" 
d="M741 283q0 -132 -92 -219t-233 -87q-69 0 -185 25q-19 4 -40.5 9.5t-48.5 13.5t-42 12v229h86q12 -22 44.5 -85.5t52.5 -98.5q49 -10 94 -10q37 0 70.5 7t64 23t48.5 46t18 71q0 48 -22 76.5t-85 66.5l-188 109q-93 55 -131 121q-43 61 -43 141q0 129 85 205t230 76
q90 0 178 -21q27 -6 109 -28v-209h-88l-84 170q-41 8 -86 8q-89 0 -139 -35.5t-50 -97.5q0 -43 29 -76t100 -74l164 -92q63 -35 94.5 -63t53.5 -66q36 -62 36 -147zM782 1440l-399 -299h-104l217 299h286z" />
    <glyph glyph-name="Scircumflex" unicode="&#x15c;" horiz-adv-x="1052" 
d="M942 358q0 -175 -125 -278q-124 -100 -319 -100q-114 0 -252 30q-32 7 -70.5 17.5t-66.5 17.5v307h75l103 -256q74 -12 153 -12q140 0 211 49q84 63 84 174q0 28 -5.5 53t-12.5 43.5t-23 38.5t-26.5 31.5t-35 30.5t-36 27t-41.5 28l-203 135q-83 55 -120 88t-64 78
q-49 74 -49 187q0 164 110.5 265t290.5 101q115 0 228 -24l153 -31v-297h-78l-98 250q-84 8 -125 8q-303 0 -303 -203q0 -34 10.5 -65t24 -52t40.5 -45.5t45 -37.5t54 -37l221 -144q92 -58 126 -87.5t63 -72.5q61 -85 61 -217zM903 1501h-127l-211 135l-205 -135h-127
l332 328z" />
    <glyph glyph-name="scircumflex" unicode="&#x15d;" horiz-adv-x="841" 
d="M741 283q0 -132 -92 -219t-233 -87q-69 0 -185 25q-19 4 -40.5 9.5t-48.5 13.5t-42 12v229h86q12 -22 44.5 -85.5t52.5 -98.5q49 -10 94 -10q37 0 70.5 7t64 23t48.5 46t18 71q0 48 -22 76.5t-85 66.5l-188 109q-93 55 -131 121q-43 61 -43 141q0 129 85 205t230 76
q90 0 178 -21q27 -6 109 -28v-209h-88l-84 170q-41 8 -86 8q-89 0 -139 -35.5t-50 -97.5q0 -43 29 -76t100 -74l164 -92q63 -35 94.5 -63t53.5 -66q36 -62 36 -147zM764 1141h-127l-211 133l-205 -133h-127l332 325z" />
    <glyph glyph-name="Scedilla" unicode="&#x15e;" horiz-adv-x="1052" 
d="M672 -229q0 -76 -78 -138t-223 -98l-21 47q176 89 176 197q0 41 -22.5 67.5t-59.5 26.5v109q-92 6 -198 28q-32 7 -70.5 17.5t-66.5 17.5v307h75l103 -256q74 -12 153 -12q140 0 211 49q84 63 84 174q0 28 -5.5 53t-12.5 43.5t-23 38.5t-26.5 31.5t-35 30.5t-36 27
t-41.5 28l-203 135q-83 55 -120 88t-64 78q-49 74 -49 187q0 164 110.5 265t290.5 101q115 0 228 -24l153 -31v-297h-78l-98 250q-84 8 -125 8q-303 0 -303 -203q0 -34 10.5 -65t24 -52t40.5 -45.5t45 -37.5t54 -37l221 -144q92 -58 126 -87.5t63 -72.5q61 -85 61 -217
q0 -175 -125 -278q-112 -92 -291 -98v-52q146 -9 146 -159z" />
    <glyph glyph-name="scedilla" unicode="&#x15f;" horiz-adv-x="841" 
d="M596 -229q0 -76 -78 -138t-223 -98l-21 47q179 90 179 197q0 41 -23.5 67.5t-60.5 26.5v107q-58 6 -138 22q-19 4 -40.5 9.5t-48.5 13.5t-42 12v229h86l97 -184q49 -10 94 -10q37 0 70.5 7t64 23t48.5 46t18 71q0 48 -22 76.5t-85 66.5l-188 109q-93 55 -131 121
q-43 61 -43 141q0 129 85 205t230 76q90 0 178 -21q27 -6 109 -28v-209h-88l-84 170q-41 8 -86 8q-89 0 -139 -35.5t-50 -97.5q0 -43 29 -76t100 -74l164 -92q63 -35 94.5 -63t53.5 -66q36 -62 36 -147q0 -124 -80.5 -207.5t-207.5 -95.5v-50q143 -9 143 -159z" />
    <glyph glyph-name="Scaron" unicode="&#x160;" horiz-adv-x="1052" 
d="M942 358q0 -175 -125 -278q-124 -100 -319 -100q-114 0 -252 30q-32 7 -70.5 17.5t-66.5 17.5v307h75l103 -256q74 -12 153 -12q140 0 211 49q84 63 84 174q0 28 -5.5 53t-12.5 43.5t-23 38.5t-26.5 31.5t-35 30.5t-36 27t-41.5 28l-203 135q-83 55 -120 88t-64 78
q-49 74 -49 187q0 164 110.5 265t290.5 101q115 0 228 -24l153 -31v-297h-78l-98 250q-84 8 -125 8q-303 0 -303 -203q0 -34 10.5 -65t24 -52t40.5 -45.5t45 -37.5t54 -37l221 -144q92 -58 126 -87.5t63 -72.5q61 -85 61 -217zM893 1827l-332 -328l-338 328h127l211 -133
l205 133h127z" />
    <glyph glyph-name="scaron" unicode="&#x161;" horiz-adv-x="841" 
d="M741 283q0 -132 -92 -219t-233 -87q-69 0 -185 25q-19 4 -40.5 9.5t-48.5 13.5t-42 12v229h86q12 -22 44.5 -85.5t52.5 -98.5q49 -10 94 -10q37 0 70.5 7t64 23t48.5 46t18 71q0 48 -22 76.5t-85 66.5l-188 109q-93 55 -131 121q-43 61 -43 141q0 129 85 205t230 76
q90 0 178 -21q27 -6 109 -28v-209h-88l-84 170q-41 8 -86 8q-89 0 -139 -35.5t-50 -97.5q0 -43 29 -76t100 -74l164 -92q63 -35 94.5 -63t53.5 -66q36 -62 36 -147zM772 1466l-332 -325l-338 325h127l211 -133l205 133h127z" />
    <glyph glyph-name="Tcommaaccent" unicode="&#x162;" horiz-adv-x="1153" 
d="M1153 1051h-74l-94 247h-305v-1173l217 -74v-51h-631v51l217 74v1173h-311l-96 -247h-76v342h1153v-342zM719 -238q0 -131 -86 -202q-54 -42 -125 -64l-25 58q66 29 91 63t26 98h-20q-55 0 -85 25.5t-30 71.5t31 73t84 27q68 0 103.5 -38.5t35.5 -111.5z" />
    <glyph glyph-name="tcommaaccent" unicode="&#x163;" horiz-adv-x="733" 
d="M725 43l-123 -29q-132 -34 -209 -34q-94 0 -145 51q-64 58 -64 180v690h-153v62q139 64 182 110q17 17 46.5 73t51.5 107h62v-258h329v-94h-329v-633q0 -91 33 -133q36 -41 137 -41q81 0 166 19zM547 -238q0 -133 -86 -202q-49 -40 -125 -64l-23 58q65 30 90.5 63.5
t26.5 97.5h-22q-55 0 -84 25.5t-29 71.5t30.5 73t82.5 27q139 0 139 -150z" />
    <glyph glyph-name="Tcaron" unicode="&#x164;" horiz-adv-x="1153" 
d="M1153 1051h-74l-94 247h-305v-1173l217 -74v-51h-631v51l217 74v1173h-311l-96 -247h-76v342h1153v-342zM920 1827l-332 -328l-340 328h129l211 -133l205 133h127z" />
    <glyph glyph-name="tcaron" unicode="&#x165;" horiz-adv-x="733" 
d="M725 43l-123 -29q-132 -34 -209 -34q-94 0 -145 51q-64 58 -64 180v690h-153v62q139 64 182 110q17 17 46.5 73t51.5 107h62v-258h329v-94h-329v-633q0 -91 33 -133q36 -41 137 -41q81 0 166 19zM766 1374q0 -132 -86 -203q-47 -39 -125 -63l-25 57q67 29 92.5 63.5
t26.5 98.5h-22q-113 0 -113 96q0 46 30.5 73.5t82.5 27.5q139 0 139 -150z" />
    <glyph glyph-name="Tbar" unicode="&#x166;" horiz-adv-x="1153" 
d="M1153 1051h-74l-94 247h-305v-303h213v-94h-213v-776l217 -74v-51h-631v51l217 74v776h-213v94h213v303h-311l-96 -247h-76v342h1153v-342z" />
    <glyph glyph-name="tbar" unicode="&#x167;" horiz-adv-x="995" 
d="M725 43l-123 -29q-132 -34 -209 -34q-94 0 -145 51q-64 58 -64 180v479h-153v94h153v117h-153v62q139 64 182 110q17 17 46.5 73t51.5 107h62v-258h329v-94h-329v-117h329v-94h-329v-422q0 -91 33 -133q36 -41 137 -41q81 0 166 19z" />
    <glyph glyph-name="Utilde" unicode="&#x168;" horiz-adv-x="1382" 
d="M1393 1341l-176 -73v-789q0 -261 -138.5 -380t-400.5 -119q-264 0 -388 108t-124 338v842l-176 73v52h549v-52l-177 -73v-826q0 -186 85 -273t266 -87q190 0 278 84t88 266v836l-174 73v52h488v-52zM1069 1743q-100 -131 -141 -166q-40 -27 -76 -27q-35 0 -88 27l-146 76
q-40 20 -57 20q-34 0 -143 -106l-43 47q2 3 19.5 26t24 31.5t22.5 29t26.5 31.5t24 24.5t24.5 21.5q32 28 76 28q33 0 86 -28l145 -74q38 -21 58 -21q19 0 49 22t94 83z" />
    <glyph glyph-name="utilde" unicode="&#x169;" horiz-adv-x="1200" 
d="M1169 53l-352 -84v113l-145 -57q-47 -19 -67.5 -26.5t-54 -14.5t-67.5 -7q-57 0 -118.5 17.5t-94.5 48.5q-86 89 -86 250v553l-174 51v47l363 80v-690q0 -135 61 -182q54 -48 178 -48q102 0 205 23v719l-174 51v47l363 80v-870l163 -54v-47zM926 1380q-2 -2 -30.5 -38.5
t-40.5 -51t-33.5 -38t-37.5 -35.5q-39 -29 -75 -29q-35 0 -88 29l-146 73q-42 21 -57 21q-33 0 -144 -105l-43 45q101 134 142 166q37 27 76 27q33 0 86 -27l145 -76q40 -20 57 -20q19 0 49.5 22.5t94.5 83.5z" />
    <glyph glyph-name="Umacron" unicode="&#x16a;" horiz-adv-x="1382" 
d="M1393 1341l-176 -73v-789q0 -261 -138.5 -380t-400.5 -119q-264 0 -388 108t-124 338v842l-176 73v52h549v-52l-177 -73v-826q0 -186 85 -273t266 -87q190 0 278 84t88 266v836l-174 73v52h488v-52zM987 1567h-538v125h538v-125z" />
    <glyph glyph-name="umacron" unicode="&#x16b;" horiz-adv-x="1200" 
d="M1169 53l-352 -84v113l-145 -57q-47 -19 -67.5 -26.5t-54 -14.5t-67.5 -7q-57 0 -118.5 17.5t-94.5 48.5q-86 89 -86 250v553l-174 51v47l363 80v-690q0 -135 61 -182q54 -48 178 -48q102 0 205 23v719l-174 51v47l363 80v-870l163 -54v-47zM856 1223h-541v125h541v-125z
" />
    <glyph glyph-name="Ubreve" unicode="&#x16c;" horiz-adv-x="1382" 
d="M1393 1341l-176 -73v-789q0 -261 -138.5 -380t-400.5 -119q-264 0 -388 108t-124 338v842l-176 73v52h549v-52l-177 -73v-826q0 -186 85 -273t266 -87q190 0 278 84t88 266v836l-174 73v52h488v-52zM1059 1763q-56 -73 -113 -121q-62 -54 -112 -75t-113 -21
q-88 0 -170 52.5t-168 164.5l49 43q110 -76 166 -100.5t121 -24.5q120 0 289 125z" />
    <glyph glyph-name="ubreve" unicode="&#x16d;" horiz-adv-x="1200" 
d="M1169 53l-352 -84v113l-145 -57q-47 -19 -67.5 -26.5t-54 -14.5t-67.5 -7q-57 0 -118.5 17.5t-94.5 48.5q-86 89 -86 250v553l-174 51v47l363 80v-690q0 -135 61 -182q54 -48 178 -48q102 0 205 23v719l-174 51v47l363 80v-870l163 -54v-47zM911 1376q-65 -82 -110 -119
q-64 -55 -114.5 -76.5t-113.5 -21.5q-88 0 -169.5 52.5t-167.5 164.5l49 45q110 -77 165.5 -102t120.5 -25q64 0 131 30t158 97z" />
    <glyph glyph-name="Uring" unicode="&#x16e;" horiz-adv-x="1382" 
d="M1393 1341l-176 -73v-789q0 -261 -138.5 -380t-400.5 -119q-264 0 -388 108t-124 338v842l-176 73v52h549v-52l-177 -73v-826q0 -186 85 -273t266 -87q190 0 278 84t88 266v836l-174 73v52h488v-52zM930 1663q0 -78 -57.5 -120t-165.5 -42q-109 0 -166.5 42t-57.5 120
q0 160 224 160q109 0 166 -41t57 -119zM834 1663q0 43 -36 71.5t-93 28.5q-55 0 -90 -29.5t-35 -72.5q0 -44 35.5 -71t93.5 -27t91.5 27t33.5 73z" />
    <glyph glyph-name="uring" unicode="&#x16f;" horiz-adv-x="1200" 
d="M1169 53l-352 -84v113l-145 -57q-47 -19 -67.5 -26.5t-54 -14.5t-67.5 -7q-57 0 -118.5 17.5t-94.5 48.5q-86 89 -86 250v553l-174 51v47l363 80v-690q0 -135 61 -182q54 -48 178 -48q102 0 205 23v719l-174 51v47l363 80v-870l163 -54v-47zM819 1300q0 -78 -57 -118.5
t-166 -40.5q-108 0 -164.5 40.5t-56.5 118.5q0 160 221 160q109 0 166 -41t57 -119zM725 1300q0 43 -37 72t-94 29q-54 0 -89.5 -29.5t-35.5 -73.5t36 -71t93 -27q58 0 92.5 27t34.5 73z" />
    <glyph glyph-name="Uhungarumlaut" unicode="&#x170;" horiz-adv-x="1382" 
d="M1393 1341l-176 -73v-789q0 -261 -138.5 -380t-400.5 -119q-264 0 -388 108t-124 338v842l-176 73v52h549v-52l-177 -73v-826q0 -186 85 -273t266 -87q190 0 278 84t88 266v836l-174 73v52h488v-52zM1090 1776l-236 -279h-80l137 279h179zM795 1776l-238 -279h-76
l137 279h177z" />
    <glyph glyph-name="uhungarumlaut" unicode="&#x171;" horiz-adv-x="1200" 
d="M1169 53l-352 -84v113l-145 -57q-47 -19 -67.5 -26.5t-54 -14.5t-67.5 -7q-57 0 -118.5 17.5t-94.5 48.5q-86 89 -86 250v553l-174 51v47l363 80v-690q0 -135 61 -182q54 -48 178 -48q102 0 205 23v719l-174 51v47l363 80v-870l163 -54v-47zM971 1419l-238 -278h-78
l138 278h178zM674 1419l-236 -278h-76l138 278h174z" />
    <glyph glyph-name="Uogonek" unicode="&#x172;" horiz-adv-x="1382" 
d="M909 -315l-12 -66q-270 12 -270 186q0 70 41.5 117t119.5 60v4q-56 -6 -110 -6q-264 0 -388 108t-124 338v842l-176 73v52h549v-52l-177 -73v-826q0 -186 85 -273t266 -87q190 0 278 84t88 266v836l-174 73v52h488v-52l-176 -73v-789q0 -401 -343 -479
q-112 -72 -112 -174q0 -60 35.5 -94.5t111.5 -46.5z" />
    <glyph glyph-name="uogonek" unicode="&#x173;" horiz-adv-x="1200" 
d="M971 -315l-13 -66q-270 12 -270 186q0 126 129 170v107l-145 -57q-47 -19 -67.5 -26.5t-54 -14.5t-67.5 -7q-57 0 -118.5 17.5t-94.5 48.5q-86 89 -86 250v553l-174 51v47l363 80v-690q0 -135 61 -182q54 -48 178 -48q102 0 205 23v719l-174 51v47l363 80v-870l163 -54
v-47l-202 -47q-66 -16 -105 -69.5t-39 -110.5q0 -117 148 -141z" />
    <glyph glyph-name="Wcircumflex" unicode="&#x174;" horiz-adv-x="2039" 
d="M2089 1341l-164 -73l-473 -1288h-86l-356 1089l-383 -1089h-84l-422 1288l-160 73v52h528v-52l-159 -73l243 -787q47 -166 54 -194l383 1106h94l297 -918q36 -117 51 -199l330 992l-160 73v52h467v-52zM1382 1501h-127l-211 135l-204 -135h-127l331 328z" />
    <glyph glyph-name="wcircumflex" unicode="&#x175;" horiz-adv-x="1587" 
d="M1618 942l-123 -68l-360 -894h-97l-237 698l-260 -698h-90l-340 905l-131 57v53h487v-53l-158 -57l176 -504q32 -97 43 -145l285 759h61l220 -628q19 -53 41 -131l223 638l-156 68v53h416v-53zM1176 1141h-127l-211 133l-205 -133h-127l332 325z" />
    <glyph glyph-name="Ycircumflex" unicode="&#x176;" horiz-adv-x="1179" 
d="M1239 1341l-156 -73l-374 -576v-567l223 -74v-51h-643v51l223 74v514l-395 629l-156 73v52h539v-52l-146 -73l295 -480l291 480l-145 73v52h444v-52zM977 1501h-127l-211 135l-205 -135h-127l332 328z" />
    <glyph glyph-name="ycircumflex" unicode="&#x177;" horiz-adv-x="1026" 
d="M1057 942l-117 -70l-436 -1067q-57 -139 -141.5 -199.5t-219.5 -60.5q-81 0 -131 9v198h125l64 -127q64 9 107.5 54.5t84.5 148.5l70 174l-357 885l-126 55v53h475v-53l-144 -55l189 -488q27 -70 63 -190l240 663l-139 70v53h393v-53zM897 1141h-127l-211 133l-205 -133
h-127l332 325z" />
    <glyph glyph-name="Ydieresis" unicode="&#x178;" horiz-adv-x="1239" 
d="M1239 1341l-156 -73l-374 -576v-567l223 -74v-51h-643v51l223 74v514l-395 629l-156 73v52h539v-52l-146 -73l295 -480l291 480l-145 73v52h444v-52zM915 1647q0 -103 -100 -103q-96 0 -96 92q0 105 94 105q49 0 75.5 -24.5t26.5 -69.5zM553 1640q0 -96 -100 -96
q-97 0 -97 92q0 51 25 78t72 27q100 0 100 -101z" />
    <glyph glyph-name="Zacute" unicode="&#x179;" horiz-adv-x="1142" 
d="M1081 352l-34 -352h-988v68l760 1230h-536l-95 -247h-75v342h962v-62l-762 -1227h564l133 248h71zM948 1802l-397 -301h-105l216 301h286z" />
    <glyph glyph-name="zacute" unicode="&#x17a;" horiz-adv-x="987" 
d="M897 0h-817v70l573 831h-360l-100 -186h-72v280h776v-65l-578 -836h402l110 217h66v-311zM897 1440l-397 -299h-107l217 299h287z" />
    <glyph glyph-name="Zdotaccent" unicode="&#x17b;" horiz-adv-x="1142" 
d="M1081 352l-34 -352h-988v68l760 1230h-536l-95 -247h-75v342h962v-62l-762 -1227h564l133 248h71zM707 1638q0 -96 -101 -96q-49 0 -72.5 22.5t-23.5 69.5q0 105 96 105q48 0 74.5 -26t26.5 -75z" />
    <glyph glyph-name="zdotaccent" unicode="&#x17c;" horiz-adv-x="987" 
d="M897 0h-817v70l573 831h-360l-100 -186h-72v280h776v-65l-578 -836h402l110 217h66v-311zM635 1280q0 -98 -100 -98q-97 0 -97 92q0 104 97 104q47 0 73.5 -25.5t26.5 -72.5z" />
    <glyph glyph-name="Zcaron" unicode="&#x17d;" horiz-adv-x="1142" 
d="M1081 352l-34 -352h-988v68l760 1230h-536l-95 -247h-75v342h962v-62l-762 -1227h564l133 248h71zM932 1827l-334 -328l-338 328h127l211 -133l205 133h129z" />
    <glyph glyph-name="zcaron" unicode="&#x17e;" horiz-adv-x="987" 
d="M897 0h-817v70l573 831h-360l-100 -186h-72v280h776v-65l-578 -836h402l110 217h66v-311zM856 1466l-334 -325l-338 325h129l209 -133l207 133h127z" />
    <glyph glyph-name="florin" unicode="&#x192;" horiz-adv-x="1105" 
d="M1083 1243h-127l-69 139q-106 -12 -164 -65q-45 -37 -67 -85.5t-31 -129.5l-13 -107h260l-6 -94h-268l-111 -881q-19 -143 -52 -224t-97 -144q-123 -117 -301 -117q-68 0 -143 16v201h129l69 -141q86 10 137.5 77.5t65.5 184.5l115 1028h-197l12 94h197l4 27
q20 136 60 211t124 135q133 92 310 92q91 0 163 -20v-197z" />
    <glyph glyph-name="Aringacute" unicode="&#x1fa;" horiz-adv-x="1333" 
d="M915 1487q0 -58 -38 -96t-109 -50l434 -1212l156 -78v-51h-527v51l160 78l-149 430h-441l-157 -430l157 -78v-51h-454v51l157 78l500 1214q-66 13 -100.5 50.5t-34.5 93.5q0 70 57 109.5t166 39.5q107 0 165 -40t58 -109zM807 643l-113 342q-26 74 -59 186l-201 -528h373
zM1040 1911l-321 -234h-107l164 234h264zM819 1487q0 37 -36.5 62.5t-92.5 25.5q-54 0 -89.5 -26t-35.5 -64q0 -40 35.5 -65t93.5 -25t91.5 25t33.5 67z" />
    <glyph glyph-name="aringacute" unicode="&#x1fb;" horiz-adv-x="1011" 
d="M993 53l-151 -49q-40 -14 -97 -14q-92 0 -110 100q-42 -22 -96 -47q-50 -22 -70 -30.5t-54 -15.5t-73 -7q-125 0 -204 71t-79 183q0 186 220 237q119 26 290 41l60 4v236q0 71 -18.5 102.5t-69.5 50.5q-46 17 -119 17q-34 0 -57 -2l-89 -174h-122v188l135 35
q134 35 229 35q137 0 213 -56q47 -30 65.5 -72.5t18.5 -115.5v-561q0 -35 6 -47q11 -19 53 -31l119 -33v-45zM629 131v338q-122 -16 -219 -39q-74 -21 -109 -58.5t-35 -101.5q0 -75 54 -120.5t145 -45.5q81 0 151 23zM719 1278q0 -79 -57 -120.5t-166 -41.5t-166.5 41.5
t-57.5 120.5q0 158 224 158q109 0 166 -40.5t57 -117.5zM623 1278q0 43 -36 70.5t-93 27.5q-55 0 -90 -28.5t-35 -71.5q0 -45 35.5 -72.5t93.5 -27.5t91.5 28t33.5 74zM913 1827l-397 -301h-106l217 301h286z" />
    <glyph glyph-name="AEacute" unicode="&#x1fc;" horiz-adv-x="1722" 
d="M1642 319l-34 -319h-936v51l155 76v496h-327l-242 -496l158 -76v-51h-455v51l154 76l657 1262h830v-310h-72l-98 226h-408v-588h338l70 186h65v-465h-65l-70 185h-338v-529h418l127 225h73zM827 717v579h-4l-272 -579h276zM1481 1802l-400 -301h-104l217 301h287z" />
    <glyph glyph-name="aeacute" unicode="&#x1fd;" horiz-adv-x="1527" 
d="M1458 528h-655q0 -114 20.5 -182t71.5 -127q103 -115 305 -115q91 0 227 25l15 -66q-233 -83 -389 -83q-224 0 -348 176q-84 -83 -182.5 -129.5t-188.5 -46.5q-117 0 -196 75.5t-79 184.5q0 186 213 239q150 38 346 49v217q0 76 -18.5 109.5t-69.5 52.5q-47 15 -135 15
h-41l-86 -177h-125v191q250 70 373 70q181 0 256 -129q123 129 309 129q115 0 206 -57.5t132 -155.5q21 -51 29 -108t10 -157zM1251 631q-3 83 -14 131t-37 86q-55 74 -147 74q-112 0 -177 -86.5t-73 -245.5zM618 174v297q-120 -14 -219 -39q-74 -20 -108.5 -57.5
t-34.5 -98.5q0 -69 51.5 -115t128.5 -46q83 0 182 59zM1114 1440l-397 -299h-107l217 299h287z" />
    <glyph glyph-name="Oslashacute" unicode="&#x1fe;" horiz-adv-x="1435" 
d="M1362 717q0 -218 -84 -389t-235.5 -266t-344.5 -95q-190 0 -329 84l-99 -149l-77 53l102 149q-113 100 -167 237.5t-54 324.5q0 119 28 229t84.5 204t134.5 163.5t184 109t228 39.5q96 0 166.5 -18t165.5 -66l82 125l76 -49l-82 -129q221 -200 221 -557zM975 1196
q-54 66 -111 93.5t-141 27.5q-98 0 -174.5 -37.5t-124 -98t-78.5 -143.5t-43 -165.5t-12 -172.5q0 -274 102 -448zM1147 684q0 142 -25 243t-84 197l-585 -948q60 -62 120.5 -88.5t141.5 -26.5q203 0 317.5 165t114.5 458zM1059 1802l-397 -301h-107l217 301h287z" />
    <glyph glyph-name="oslashacute" unicode="&#x1ff;" horiz-adv-x="1103" 
d="M1038 508q0 -231 -143 -386t-356 -155q-91 0 -185 37l-61 -123l-78 41l61 123q-210 145 -210 436q0 236 134.5 385.5t348.5 149.5q59 0 101 -8.5t98 -32.5l67 131l80 -41l-66 -129q107 -82 158 -186t51 -242zM831 463q0 189 -75 328l-342 -676q35 -31 68 -42.5t85 -11.5
q121 0 192.5 109.5t71.5 292.5zM696 870q-37 31 -70 42.5t-85 11.5q-132 0 -200.5 -106.5t-68.5 -315.5q0 -106 17.5 -177.5t60.5 -140.5zM934 1440l-399 -299h-105l217 299h287z" />
    <glyph glyph-name="Scommaaccent" unicode="&#x218;" horiz-adv-x="1052" 
d="M942 358q0 -175 -125 -278q-124 -100 -319 -100q-114 0 -252 30q-32 7 -70.5 17.5t-66.5 17.5v307h75l103 -256q74 -12 153 -12q140 0 211 49q84 63 84 174q0 28 -5.5 53t-12.5 43.5t-23 38.5t-26.5 31.5t-35 30.5t-36 27t-41.5 28l-203 135q-83 55 -120 88t-64 78
q-49 74 -49 187q0 164 110.5 265t290.5 101q115 0 228 -24l153 -31v-297h-78l-98 250q-84 8 -125 8q-303 0 -303 -203q0 -34 10.5 -65t24 -52t40.5 -45.5t45 -37.5t54 -37l221 -144q92 -58 126 -87.5t63 -72.5q61 -85 61 -217zM643 -238q0 -131 -86 -202q-54 -42 -125 -64
l-24 58q66 29 90.5 63t25.5 98h-20q-55 0 -85 25.5t-30 71.5t31 73t84 27q68 0 103.5 -38.5t35.5 -111.5z" />
    <glyph glyph-name="scommaaccent" unicode="&#x219;" horiz-adv-x="841" 
d="M741 283q0 -132 -92 -219t-233 -87q-69 0 -185 25q-19 4 -40.5 9.5t-48.5 13.5t-42 12v229h86q12 -22 44.5 -85.5t52.5 -98.5q49 -10 94 -10q37 0 70.5 7t64 23t48.5 46t18 71q0 48 -22 76.5t-85 66.5l-188 109q-93 55 -131 121q-43 61 -43 141q0 129 85 205t230 76
q90 0 178 -21q27 -6 109 -28v-209h-88l-84 170q-41 8 -86 8q-89 0 -139 -35.5t-50 -97.5q0 -43 29 -76t100 -74l164 -92q63 -35 94.5 -63t53.5 -66q36 -62 36 -147zM551 -238q0 -131 -86 -202q-49 -40 -125 -64l-25 58q67 30 92.5 63.5t26.5 97.5h-22q-55 0 -84 25.5
t-29 71.5t30.5 73t82.5 27q139 0 139 -150z" />
    <glyph glyph-name="uni021A" unicode="&#x21a;" horiz-adv-x="1153" 
d="M1153 1051h-74l-94 247h-305v-1173l217 -74v-51h-631v51l217 74v1173h-311l-96 -247h-76v342h1153v-342zM719 -238q0 -131 -86 -202q-54 -42 -125 -64l-25 58q66 29 91 63t26 98h-20q-55 0 -85 25.5t-30 71.5t31 73t84 27q68 0 103.5 -38.5t35.5 -111.5z" />
    <glyph glyph-name="uni021B" unicode="&#x21b;" horiz-adv-x="733" 
d="M725 43l-123 -29q-132 -34 -209 -34q-94 0 -145 51q-64 58 -64 180v690h-153v62q139 64 182 110q17 17 46.5 73t51.5 107h62v-258h329v-94h-329v-633q0 -91 33 -133q36 -41 137 -41q81 0 166 19zM547 -238q0 -133 -86 -202q-49 -40 -125 -64l-23 58q65 30 90.5 63.5
t26.5 97.5h-22q-55 0 -84 25.5t-29 71.5t30.5 73t82.5 27q139 0 139 -150z" />
    <glyph glyph-name="dotlessj" unicode="&#x237;" horiz-adv-x="620" 
d="M440 -16q0 -118 -30.5 -193t-104.5 -143q-61 -55 -128.5 -79t-156.5 -24q-84 0 -139 9v198h131l66 -131q95 26 134.5 90.5t39.5 190.5v942l-174 49v47l362 80v-1036z" />
    <glyph glyph-name="circumflex" unicode="&#x2c6;" horiz-adv-x="550" 
d="M610 1141h-127l-211 133l-204 -133h-127l331 325z" />
    <glyph glyph-name="caron" unicode="&#x2c7;" horiz-adv-x="550" 
d="M610 1466l-331 -325l-338 325h127l211 -133l204 133h127z" />
    <glyph glyph-name="uni02C9" unicode="&#x2c9;" horiz-adv-x="552" 
d="M547 1223h-539v125h539v-125z" />
    <glyph glyph-name="breve" unicode="&#x2d8;" horiz-adv-x="552" 
d="M614 1376q-56 -74 -110 -119q-64 -55 -114.5 -76.5t-113.5 -21.5q-171 0 -337 217l49 45q110 -77 165.5 -102t120.5 -25q64 0 132 30t157 97z" />
    <glyph glyph-name="dotaccent" unicode="&#x2d9;" horiz-adv-x="552" 
d="M375 1280q0 -47 -26 -72.5t-75 -25.5q-98 0 -98 92q0 51 25.5 77.5t72.5 26.5q48 0 74.5 -25.5t26.5 -72.5z" />
    <glyph glyph-name="ring" unicode="&#x2da;" horiz-adv-x="552" 
d="M502 1300q0 -78 -57 -118.5t-166 -40.5t-166.5 40.5t-57.5 118.5q0 160 224 160q109 0 166 -41t57 -119zM406 1300q0 43 -36.5 72t-93.5 29q-55 0 -89.5 -29t-34.5 -74q0 -44 35.5 -71t93.5 -27t91.5 27t33.5 73z" />
    <glyph glyph-name="ogonek" unicode="&#x2db;" horiz-adv-x="555" 
d="M420 -315l-12 -66q-271 12 -271 186t248 195q-113 -73 -113 -174q0 -60 36 -94.5t112 -46.5z" />
    <glyph glyph-name="tilde" unicode="&#x2dc;" horiz-adv-x="552" 
d="M623 1380q-96 -127 -142 -163q-39 -29 -75 -29q-34 0 -89 29l-143 73q-42 21 -59 21q-33 0 -144 -105l-43 45q98 130 142 166q41 27 75 27q33 0 88 -27l146 -76q36 -20 57 -20q17 0 47.5 22.5t96.5 83.5z" />
    <glyph glyph-name="hungarumlaut" unicode="&#x2dd;" horiz-adv-x="552" 
d="M584 1419l-238 -278h-80l137 278h181zM287 1419l-238 -278h-76l138 278h176z" />
    <glyph glyph-name="uni0394" unicode="&#x394;" horiz-adv-x="1406" 
d="M1366 0h-1327v59l643 1405h53l631 -1405v-59zM1120 150l-444 1021l-461 -1021h905z" />
    <glyph glyph-name="uni03A9" unicode="&#x3a9;" horiz-adv-x="1564" 
d="M1475 317l-39 -317h-533v158q138 22 222.5 180.5t84.5 404.5q0 99 -11 180t-39.5 157t-74 127.5t-118 82.5t-168.5 31q-441 0 -441 -555q0 -249 91 -418.5t233 -189.5v-158h-555l-37 317h80l115 -174h295q-189 69 -313 226.5t-124 373.5q0 306 176.5 489t479.5 183
q202 0 345 -81.5t213 -226.5t70 -341q0 -118 -37.5 -224.5t-99.5 -183.5t-134.5 -131.5t-149.5 -83.5h274l115 174h80z" />
    <glyph glyph-name="uni03BC" unicode="&#x3bc;" horiz-adv-x="1187" 
d="M1149 47l-113 -39q-58 -20 -92 -20q-103 0 -115 98l-2 41q-113 -90 -170 -115.5t-141 -25.5q-52 0 -104 24.5t-76 63.5v-428l-221 -62l-11 45q29 23 62 62q22 30 22 231v905q0 34 -24 41l-111 29v47l322 80v-512q0 -212 22 -268q24 -53 84 -87t135 -34q27 0 79.5 14.5
t90.5 28.5l39 14v647q0 34 -24 41l-111 29v47l320 80v-817q0 -35 6 -47q16 -28 55 -41l78 -27v-45z" />
    <glyph glyph-name="pi" unicode="&#x3c0;" horiz-adv-x="1183" 
d="M1153 1028l-51 -158h-133v-591q0 -101 12 -127.5t74 -47.5l51 -18v-45l-86 -29q-88 -30 -119 -30q-67 0 -93 36.5t-26 128.5v723h-391v-847l-223 -62l-12 45q32 26 61 62q12 15 17.5 56.5t6.5 75.5t1 99v571h-11q-55 0 -98.5 -26.5t-89.5 -87.5l-43 30q29 55 43 84
q32 55 60.5 82t78.5 41.5t135 14.5q121 0 191 -2q57 -1 108 -2.5t86 -2t65 -1.5t48.5 -1.5t34 -0.5t23.5 -0.5t13.5 -0.5h8.5h6q94 0 137 12.5t78 45.5z" />
    <glyph glyph-name="Wgrave" unicode="&#x1e80;" horiz-adv-x="2039" 
d="M2089 1341l-164 -73l-473 -1288h-86l-356 1089l-383 -1089h-84l-422 1288l-160 73v52h528v-52l-159 -73l243 -787q47 -166 54 -194l383 1106h94l297 -918q36 -117 51 -199l330 992l-160 73v52h467v-52zM1202 1501h-104l-400 301h287z" />
    <glyph glyph-name="wgrave" unicode="&#x1e81;" horiz-adv-x="1587" 
d="M1618 942l-123 -68l-360 -894h-97l-237 698l-260 -698h-90l-340 905l-131 57v53h487v-53l-158 -57l176 -504q32 -97 43 -145l285 759h61l220 -628q19 -53 41 -131l223 638l-156 68v53h416v-53zM1044 1141h-104l-399 299h286z" />
    <glyph glyph-name="Wacute" unicode="&#x1e82;" horiz-adv-x="2039" 
d="M2089 1341l-164 -73l-473 -1288h-86l-356 1089l-383 -1089h-84l-422 1288l-160 73v52h528v-52l-159 -73l243 -787q47 -166 54 -194l383 1106h94l297 -918q36 -117 51 -199l330 992l-160 73v52h467v-52zM1360 1802l-397 -301h-105l217 301h285z" />
    <glyph glyph-name="wacute" unicode="&#x1e83;" horiz-adv-x="1587" 
d="M1618 942l-123 -68l-360 -894h-97l-237 698l-260 -698h-90l-340 905l-131 57v53h487v-53l-158 -57l176 -504q32 -97 43 -145l285 759h61l220 -628q19 -53 41 -131l223 638l-156 68v53h416v-53zM1180 1440l-398 -299h-106l217 299h287z" />
    <glyph glyph-name="Wdieresis" unicode="&#x1e84;" horiz-adv-x="2039" 
d="M2089 1341l-164 -73l-473 -1288h-86l-356 1089l-383 -1089h-84l-422 1288l-160 73v52h528v-52l-159 -73l243 -787q47 -166 54 -194l383 1106h94l297 -918q36 -117 51 -199l330 992l-160 73v52h467v-52zM1327 1647q0 -103 -100 -103q-47 0 -72 24t-25 68q0 105 95 105
q49 0 75.5 -24.5t26.5 -69.5zM965 1640q0 -96 -99 -96q-98 0 -98 92q0 105 98 105q48 0 73.5 -26t25.5 -75z" />
    <glyph glyph-name="wdieresis" unicode="&#x1e85;" horiz-adv-x="1587" 
d="M1618 942l-123 -68l-360 -894h-97l-237 698l-260 -698h-90l-340 905l-131 57v53h487v-53l-158 -57l176 -504q32 -97 43 -145l285 759h61l220 -628q19 -53 41 -131l223 638l-156 68v53h416v-53zM1120 1286q0 -104 -100 -104q-47 0 -71.5 24.5t-24.5 69.5q0 102 94 102
q49 0 75.5 -24t26.5 -68zM758 1280q0 -98 -99 -98q-98 0 -98 92q0 104 98 104q47 0 73 -25.5t26 -72.5z" />
    <glyph glyph-name="Ygrave" unicode="&#x1ef2;" horiz-adv-x="1179" 
d="M1239 1341l-156 -73l-374 -576v-567l223 -74v-51h-643v51l223 74v514l-395 629l-156 73v52h539v-52l-146 -73l295 -480l291 480l-145 73v52h444v-52zM778 1501h-104l-400 301h287z" />
    <glyph glyph-name="ygrave" unicode="&#x1ef3;" horiz-adv-x="1026" 
d="M1057 942l-117 -70l-436 -1067q-57 -139 -141.5 -199.5t-219.5 -60.5q-81 0 -131 9v198h125l64 -127q64 9 107.5 54.5t84.5 148.5l70 174l-357 885l-126 55v53h475v-53l-144 -55l189 -488q27 -70 63 -190l240 663l-139 70v53h393v-53zM764 1141h-102l-402 299h287z" />
    <glyph glyph-name="endash" unicode="&#x2013;" horiz-adv-x="995" 
d="M995 457h-995v164h995v-164z" />
    <glyph glyph-name="emdash" unicode="&#x2014;" horiz-adv-x="1988" 
d="M1591 457h-1194v164h1194v-164z" />
    <glyph glyph-name="quoteleft" unicode="&#x2018;" horiz-adv-x="552" 
d="M416 1061q0 -53 -34.5 -84t-92.5 -31q-74 0 -114 44t-40 124q0 116 57.5 188t178.5 107l24 -66q-73 -33 -101.5 -70t-29.5 -108h27q125 0 125 -104z" />
    <glyph glyph-name="quoteright" unicode="&#x2019;" horiz-adv-x="555" 
d="M418 1241q0 -116 -57.5 -188t-178.5 -107l-24 66q73 33 100.5 70t30.5 110q-12 -2 -27 -2q-125 0 -125 104q0 52 34 83.5t91 31.5q156 0 156 -168z" />
    <glyph glyph-name="quotesinglbase" unicode="&#x201a;" horiz-adv-x="555" 
d="M418 72q0 -117 -57 -188.5t-179 -108.5l-24 65q72 32 100 70t31 110h-27q-125 0 -125 105q0 51 34 83t91 32q76 0 116 -43t40 -125z" />
    <glyph glyph-name="quotedblleft" unicode="&#x201c;" horiz-adv-x="921" 
d="M760 1061q0 -53 -34.5 -84t-92.5 -31q-74 0 -114 44t-40 124q0 116 57.5 188t178.5 107l24 -66q-73 -33 -100.5 -70t-30.5 -108h27q125 0 125 -104zM397 1061q0 -53 -34.5 -84t-92.5 -31q-73 0 -113 44t-40 124q0 117 57.5 188.5t177.5 106.5l27 -66q-75 -33 -103.5 -70
t-29.5 -108h26q125 0 125 -104z" />
    <glyph glyph-name="quotedblright" unicode="&#x201d;" horiz-adv-x="921" 
d="M782 1241q0 -117 -57 -188.5t-178 -106.5l-25 66q73 33 100.5 70t30.5 110q-10 -2 -26 -2q-125 0 -125 104q0 52 34 83.5t91 31.5q155 0 155 -168zM420 1241q0 -116 -57.5 -188t-178.5 -107l-24 66q73 33 100.5 70t30.5 110q-12 -2 -27 -2q-125 0 -125 104q0 52 34 83.5
t91 31.5q156 0 156 -168z" />
    <glyph glyph-name="quotedblbase" unicode="&#x201e;" horiz-adv-x="921" 
d="M782 72q0 -117 -56.5 -188.5t-178.5 -108.5l-25 65q73 32 100.5 70t30.5 110h-26q-125 0 -125 105q0 51 34 83t91 32q76 0 115.5 -43t39.5 -125zM420 72q0 -117 -57 -188.5t-179 -108.5l-24 65q72 32 100 70t31 110h-27q-125 0 -125 105q0 51 34 83t91 32q76 0 116 -43
t40 -125z" />
    <glyph glyph-name="dagger" unicode="&#x2020;" horiz-adv-x="1112" 
d="M983 856l-395 49q84 -148 84 -262q0 -45 -6 -119l-91 -979h-38l-91 979q-6 74 -6 119q0 114 84 262l-395 -49v174l381 -43l-64 422h220l-64 -422l381 43v-174z" />
    <glyph glyph-name="daggerdbl" unicode="&#x2021;" horiz-adv-x="1105" 
d="M973 -76l-379 43l63 -422h-206l63 422l-381 -43v176l387 -53l-69 430l69 428l-387 -49v174l381 -43l-63 422h206l-63 -422l379 43v-168l-381 43l65 -428l-65 -430l381 47v-170z" />
    <glyph glyph-name="bullet" unicode="&#x2022;" horiz-adv-x="995" 
d="M858 713q0 -149 -105.5 -255t-254.5 -106t-255 106t-106 255t106 254.5t255 105.5t254.5 -105.5t105.5 -254.5z" />
    <glyph glyph-name="ellipsis" unicode="&#x2026;" horiz-adv-x="1988" 
d="M1778 94q0 -51 -35 -87t-86 -36q-49 0 -84 36t-35 87q0 50 35 84.5t84 34.5q51 0 86 -34.5t35 -84.5zM1116 94q0 -51 -35 -87t-84 -36q-51 0 -87 36t-36 87q0 49 36 84t87 35q49 0 84 -34.5t35 -84.5zM453 94q0 -51 -36 -87t-87 -36q-49 0 -84 36t-35 87q0 50 34.5 84.5
t84.5 34.5q51 0 87 -35t36 -84z" />
    <glyph glyph-name="perthousand" unicode="&#x2030;" horiz-adv-x="2031" 
d="M1972 297q0 -137 -86 -225t-221 -88q-136 0 -219.5 82.5t-83.5 216.5q0 138 84.5 223.5t222.5 85.5q137 0 220 -81t83 -214zM668 1106q0 -135 -86.5 -223t-219.5 -88q-136 0 -219.5 81.5t-83.5 215.5q0 139 85 224t223 85q137 0 219 -80t82 -215zM1212 1393l-966 -1393
h-125l964 1393h127zM1239 295q0 -137 -86 -225t-219 -88q-137 0 -220 82.5t-83 216.5q0 139 84 224t223 85q136 0 218.5 -80.5t82.5 -214.5zM1845 291q0 97 -47.5 151t-130.5 54t-129.5 -55.5t-46.5 -155.5q0 -94 46.5 -148.5t125.5 -54.5q85 0 133.5 56t48.5 153zM541 1100
q0 97 -46.5 151t-129.5 54q-85 0 -132 -55.5t-47 -155.5q0 -94 46.5 -148.5t127.5 -54.5q83 0 132 56t49 153zM1112 289q0 97 -46.5 151t-129.5 54q-85 0 -131.5 -55.5t-46.5 -155.5q0 -94 46.5 -148.5t127.5 -54.5q83 0 131.5 56t48.5 153z" />
    <glyph glyph-name="guilsinglleft" unicode="&#x2039;" horiz-adv-x="516" 
d="M420 113h-103l-229 397l229 401h103l-236 -401z" />
    <glyph glyph-name="guilsinglright" unicode="&#x203a;" horiz-adv-x="516" 
d="M432 516l-231 -403h-101l234 403l-234 395h101z" />
    <glyph glyph-name="fraction" unicode="&#x2044;" horiz-adv-x="294" 
d="M614 1348l-821 -1381h-108l821 1381h108z" />
    <glyph glyph-name="Euro" unicode="&#x20ac;" 
d="M1028 18q-125 -41 -285 -41q-216 0 -358 107q-177 130 -203 438h-119l17 92h96v33q0 60 6 121h-119l17 92h117q40 186 129 301q79 99 192.5 146t241.5 47q115 0 268 -39v-176h-135l-64 139h-14h-37t-41.5 -3t-50.5 -8.5t-50 -17.5t-55.5 -29t-51.5 -44.5t-52 -63.5
q-64 -95 -84 -252h516l-16 -92h-510v-109v-45h483l-16 -92h-463q11 -168 68 -276q14 -22 23 -35.5t41.5 -47.5t66 -54t91.5 -38t124 -18h22l70 142h135v-177z" />
    <glyph glyph-name="afii61289" unicode="&#x2113;" horiz-adv-x="1079" 
d="M139 358q76 45 176 117v594q0 83 17.5 148t46 105t68.5 66t81 36t88 10q69 0 120.5 -25t81.5 -68.5t44.5 -96t14.5 -114.5q0 -162 -102 -327.5t-277 -315.5v-147q0 -123 41.5 -179.5t132.5 -56.5q20 0 43.5 3t49 9.5t42 11t43 13t31.5 9.5l20 -68q-3 -2 -23 -12
t-30.5 -15.5t-34 -16.5t-40 -17.5t-40.5 -15t-43.5 -13.5t-42.5 -8.5t-43 -3.5q-76 0 -131.5 26.5t-88 76.5t-49 114.5t-20.5 148.5q-30 -23 -125 -82zM498 1077v-448q250 250 250 499q0 209 -123 209q-27 0 -47 -8.5t-39.5 -33.5t-30 -80t-10.5 -138z" />
    <glyph glyph-name="trademark" unicode="&#x2122;" horiz-adv-x="1511" 
d="M1454 770h-295v45l88 37v467l-223 -559h-43l-215 559v-465l90 -39v-45h-256v45l90 37v530l-90 39v45h223l201 -516l203 516h227v-45l-90 -37v-530l90 -39v-45zM578 1276h-37l-68 125h-123v-547l109 -39v-45h-336v45l110 37v549h-129l-67 -125h-37v190h578v-190z" />
    <glyph glyph-name="Omega" unicode="&#x2126;" horiz-adv-x="1564" 
d="M1475 317l-39 -317h-533v158q138 22 222.5 180.5t84.5 404.5q0 99 -11 180t-39.5 157t-74 127.5t-118 82.5t-168.5 31q-441 0 -441 -555q0 -249 91 -418.5t233 -189.5v-158h-555l-37 317h80l115 -174h295q-189 69 -313 226.5t-124 373.5q0 306 176.5 489t479.5 183
q202 0 345 -81.5t213 -226.5t70 -341q0 -118 -37.5 -224.5t-99.5 -183.5t-134.5 -131.5t-149.5 -83.5h274l115 174h80z" />
    <glyph glyph-name="estimated" unicode="&#x212e;" horiz-adv-x="1497" 
d="M1378 637h-985v-436q146 -146 355 -146q154 0 265.5 70t203.5 225l86 -49q-113 -181 -239 -256.5t-316 -75.5q-186 0 -330.5 89t-221.5 240.5t-77 338.5q0 140 45 264t126 215t199.5 144t258.5 53q184 0 328 -87t223 -241t79 -348zM393 727h709v352q-153 144 -357 144
q-211 0 -352 -144v-352z" />
    <glyph glyph-name="onethird" unicode="&#x2153;" horiz-adv-x="1771" 
d="M1376 1364l-839 -1397h-148l840 1397h147zM600 549l-467 -2v45l148 49v561l-240 -43v55q218 57 342 148h70v-721l147 -47v-45zM1729 231q0 -104 -98.5 -169.5t-256.5 -65.5q-129 0 -262 45v199h64l69 -164q43 -6 74 -6q44 0 80.5 7t71 23.5t54 49.5t19.5 79
q0 75 -47.5 116.5t-134.5 41.5h-51v66h26q179 0 179 149q0 71 -41 105t-125 34q-66 0 -99 -6l-69 -151h-62v192l105 21q123 18 188 18q134 0 211.5 -50t77.5 -136q0 -158 -227 -201q113 -12 183.5 -59t70.5 -138z" />
    <glyph glyph-name="twothirds" unicode="&#x2154;" horiz-adv-x="1771" 
d="M1376 1364l-839 -1397h-148l840 1397h147zM1729 231q0 -104 -98.5 -169.5t-256.5 -65.5q-129 0 -262 45v199h64l69 -164q43 -6 74 -6q44 0 80.5 7t71 23.5t54 49.5t19.5 79q0 75 -47.5 116.5t-134.5 41.5h-51v66h26q179 0 179 149q0 71 -41 105t-125 34q-66 0 -99 -6
l-69 -151h-62v192l105 21q123 18 188 18q134 0 211.5 -50t77.5 -136q0 -158 -227 -201q113 -12 183.5 -59t70.5 -138zM653 791l-20 -246h-606v51l131 125q149 140 207 219q71 103 71 190q0 76 -47.5 116t-126.5 40q-43 0 -82 -8l-61 -158h-64v199q7 2 99 22q107 19 184 19
q128 0 208.5 -58.5t80.5 -150.5q0 -77 -40.5 -136t-144.5 -151q-89 -82 -237 -196h317l68 123h63z" />
    <glyph glyph-name="oneeighth" unicode="&#x215b;" horiz-adv-x="1771" 
d="M1376 1364l-839 -1397h-148l840 1397h147zM600 549l-467 -2v45l148 49v561l-240 -43v55q218 57 342 148h70v-721l147 -47v-45zM1726 219q0 -108 -88 -173.5t-235 -65.5q-74 0 -140.5 22.5t-112.5 72.5t-46 118q0 67 53.5 121.5t153.5 88.5l-15 7q-151 65 -151 192
q0 95 77 154t201 59q120 0 193.5 -50t73.5 -132q0 -60 -39.5 -103t-124.5 -79l35 -19q86 -45 125.5 -95.5t39.5 -117.5zM1536 623q0 59 -31.5 94t-83.5 35q-55 0 -90 -31.5t-35 -79.5q0 -78 101 -127l61 -31q78 65 78 140zM1575 186q0 80 -102 131l-93 50
q-66 -37 -95.5 -78.5t-29.5 -95.5q0 -65 45.5 -102.5t116.5 -37.5q70 0 114 36t44 97z" />
    <glyph glyph-name="threeeighths" unicode="&#x215c;" horiz-adv-x="1771" 
d="M1376 1364l-839 -1397h-148l840 1397h147zM1726 219q0 -108 -88 -173.5t-235 -65.5q-74 0 -140.5 22.5t-112.5 72.5t-46 118q0 67 53.5 121.5t153.5 88.5l-15 7q-151 65 -151 192q0 95 77 154t201 59q120 0 193.5 -50t73.5 -132q0 -60 -39.5 -103t-124.5 -79l35 -19
q86 -45 125.5 -95.5t39.5 -117.5zM1536 623q0 59 -31.5 94t-83.5 35q-55 0 -90 -31.5t-35 -79.5q0 -78 101 -127l61 -31q78 65 78 140zM1575 186q0 80 -102 131l-93 50q-66 -37 -95.5 -78.5t-29.5 -95.5q0 -65 45.5 -102.5t116.5 -37.5q70 0 114 36t44 97zM647 778
q0 -104 -97.5 -169.5t-254.5 -65.5q-137 0 -262 47v196h61l70 -163q51 -7 76 -7q43 0 79.5 7t70.5 24t53.5 50t19.5 79q0 76 -48 118t-134 42h-52v65h27q180 0 180 148q0 72 -41.5 105.5t-128.5 33.5q-65 0 -96 -4l-68 -154h-65v193l108 20q130 19 187 19q134 0 210 -49.5
t76 -136.5q0 -154 -225 -201q112 -12 183 -59t71 -138z" />
    <glyph glyph-name="fiveeighths" unicode="&#x215d;" horiz-adv-x="1771" 
d="M1376 1364l-839 -1397h-148l840 1397h147zM1726 219q0 -108 -88 -173.5t-235 -65.5q-74 0 -140.5 22.5t-112.5 72.5t-46 118q0 67 53.5 121.5t153.5 88.5l-15 7q-151 65 -151 192q0 95 77 154t201 59q120 0 193.5 -50t73.5 -132q0 -60 -39.5 -103t-124.5 -79l35 -19
q86 -45 125.5 -95.5t39.5 -117.5zM1536 623q0 59 -31.5 94t-83.5 35q-55 0 -90 -31.5t-35 -79.5q0 -78 101 -127l61 -31q78 65 78 140zM1575 186q0 80 -102 131l-93 50q-66 -37 -95.5 -78.5t-29.5 -95.5q0 -65 45.5 -102.5t116.5 -37.5q70 0 114 36t44 97zM276 543
q-117 0 -239 47v196h65l70 -163q47 -7 80 -7q98 0 153.5 51t55.5 138q0 91 -58.5 137.5t-171.5 46.5q-77 0 -172 -24v387h545v-119h-434v-164q69 14 127 14q156 0 245 -67.5t89 -184.5q0 -128 -98.5 -208t-256.5 -80z" />
    <glyph glyph-name="seveneighths" unicode="&#x215e;" horiz-adv-x="1771" 
d="M1376 1364l-839 -1397h-148l840 1397h147zM1726 219q0 -108 -88 -173.5t-235 -65.5q-74 0 -140.5 22.5t-112.5 72.5t-46 118q0 67 53.5 121.5t153.5 88.5l-15 7q-151 65 -151 192q0 95 77 154t201 59q120 0 193.5 -50t73.5 -132q0 -60 -39.5 -103t-124.5 -79l35 -19
q86 -45 125.5 -95.5t39.5 -117.5zM1536 623q0 59 -31.5 94t-83.5 35q-55 0 -90 -31.5t-35 -79.5q0 -78 101 -127l61 -31q78 65 78 140zM1575 186q0 80 -102 131l-93 50q-66 -37 -95.5 -78.5t-29.5 -95.5q0 -65 45.5 -102.5t116.5 -37.5q70 0 114 36t44 97zM729 1294
q-245 -501 -389 -757h-164q231 350 418 702h-358l-64 -149h-72v262h629v-58z" />
    <glyph glyph-name="partialdiff" unicode="&#x2202;" horiz-adv-x="1091" 
d="M791 956q-3 147 -97 293q-153 230 -430 230h-41v90q27 4 82 4q156 0 261 -39.5t190 -114.5q71 -62 121 -148.5t77 -189.5t38.5 -209t11.5 -231q0 -174 -37 -310t-99 -210q-65 -75 -157 -114.5t-195 -39.5q-203 0 -324.5 141t-121.5 371q0 252 124 393.5t345 141.5
q115 0 252 -58zM805 717q0 29 -4 151q-110 33 -256 33q-66 0 -116.5 -25.5t-80.5 -66t-49 -97.5t-26 -111.5t-7 -115.5q0 -54 8.5 -109.5t29.5 -113t51.5 -101.5t78.5 -72t107 -28q45 0 81.5 12t63 38t46.5 57t33 79.5t21 95t12 113t5.5 124t1.5 137.5z" />
    <glyph glyph-name="Delta" unicode="&#x2206;" horiz-adv-x="1406" 
d="M1366 0h-1327v59l643 1405h53l631 -1405v-59zM1120 150l-444 1021l-461 -1021h905z" />
    <glyph glyph-name="product" unicode="&#x220f;" horiz-adv-x="1636" 
d="M1587 -485h-557v51l178 74v1755h-776v-1755l174 -74v-51h-557v51l178 74v1740l-178 72v51h1538v-51l-174 -72v-1740l174 -74v-51z" />
    <glyph glyph-name="summation" unicode="&#x2211;" horiz-adv-x="1257" 
d="M1188 -485h-1110v120l590 908l-598 887v73h1079v-336h-70l-98 228h-651l522 -774l-608 -934h766l108 227h70v-399z" />
    <glyph glyph-name="minus" unicode="&#x2212;" 
d="M1055 580h-1016v153h1016v-153z" />
    <glyph glyph-name="uni2215" unicode="&#x2215;" horiz-adv-x="294" 
d="M614 1348l-821 -1381h-108l821 1381h108z" />
    <glyph glyph-name="uni2219" unicode="&#x2219;" horiz-adv-x="552" 
d="M395 510q0 -51 -35 -87t-84 -36q-51 0 -85.5 36t-34.5 87q0 50 34.5 84.5t85.5 34.5q50 0 84.5 -34.5t34.5 -84.5z" />
    <glyph glyph-name="radical" unicode="&#x221a;" 
d="M1456 1651h-373l-530 -1657h-186l-258 905l-127 57v54h290l185 -725q5 -18 13.5 -48t13 -49.5t8.5 -46.5q13 62 36 148l469 1474h459v-112z" />
    <glyph glyph-name="infinity" unicode="&#x221e;" horiz-adv-x="1419" 
d="M1313 659q0 -163 -92.5 -252.5t-233.5 -89.5q-87 0 -149 47t-111 132l-35 57q-26 -52 -51 -89.5t-60.5 -74t-82 -55.5t-101.5 -19q-126 0 -208.5 83t-82.5 247q0 167 92 253.5t236 86.5q91 0 152.5 -48t111.5 -136l33 -58q24 54 48.5 93.5t59 76t81 55.5t102.5 19
q126 0 208.5 -83.5t82.5 -244.5zM1208 655q0 95 -53 142t-145 47q-81 0 -133 -43t-99 -127l37 -66q39 -67 85.5 -105t111.5 -38q92 0 144 48.5t52 141.5zM649 625l-43 69q-23 39 -38 60t-38.5 43.5t-52.5 31.5t-69 9q-90 0 -142.5 -48.5t-52.5 -140.5q0 -93 53 -141.5
t144 -48.5q81 0 136.5 42.5t102.5 123.5z" />
    <glyph glyph-name="integral" unicode="&#x222b;" horiz-adv-x="890" 
d="M891 1460q0 -41 -33 -73.5t-74 -32.5q-25 0 -47 12.5t-40 36t-29 42.5t-25 48q-18 0 -45 -20t-39 -35q-43 -55 -43 -152q0 -123 16 -569q3 -80 9.5 -219.5t11 -256.5t4.5 -218q0 -107 -28.5 -195.5t-108.5 -163.5q-26 -25 -90 -50.5t-117 -25.5q-96 0 -154.5 30t-58.5 79
q0 43 32.5 75.5t73.5 32.5q25 0 47 -12.5t40.5 -37t29 -42.5t25.5 -47q18 0 45.5 19t38.5 34q45 57 45 154q0 27 -19 569q-3 74 -9.5 214t-10.5 254.5t-4 215.5q0 70 9.5 127t42.5 124t89 120q26 24 88 48t115 24q96 0 154.5 -30t58.5 -79z" />
    <glyph glyph-name="approxequal" unicode="&#x2248;" 
d="M1020 936q-103 -225 -272 -225q-56 0 -142 30l-157 60q-37 14 -58 17t-65 3q-40 0 -74.5 -27t-77.5 -102l-98 47q63 127 131 181.5t145 54.5t148 -27l157 -57q68 -25 117 -25q75 0 150 123zM1020 602q-103 -223 -272 -223q-65 0 -142 31l-157 57q-41 14 -62.5 18t-60.5 4
t-73.5 -28t-78.5 -103l-98 50q63 126 131 180.5t145 54.5t148 -27l157 -59q63 -25 117 -25q75 0 150 123z" />
    <glyph glyph-name="notequal" unicode="&#x2260;" horiz-adv-x="1177" 
d="M1094 371h-568l-151 -289l-135 68l114 221h-270v153h352l135 260h-487v156h569l148 285l139 -70l-115 -215h269v-156h-351l-137 -260h488v-153z" />
    <glyph glyph-name="lessequal" unicode="&#x2264;" horiz-adv-x="1312" 
d="M1214 264l-1144 498v57l1144 500v-170l-858 -356l858 -359v-170zM1214 0h-1144v143h1144v-143z" />
    <glyph glyph-name="greaterequal" unicode="&#x2265;" horiz-adv-x="1312" 
d="M1243 762l-1143 -498v170l856 359l-856 356v170l1143 -500v-57zM1243 0h-1143v143h1143v-143z" />
    <glyph glyph-name="lozenge" unicode="&#x25ca;" horiz-adv-x="983" 
d="M989 760l-491 -756l-490 727l494 754zM836 750l-342 510l-338 -521l344 -514z" />
    <glyph glyph-name="grave.cap" unicode="&#xe000;" horiz-adv-x="1165" 
d="M756 1501h-103l-401 301h287z" />
    <glyph glyph-name="grave.sc" unicode="&#xe001;" horiz-adv-x="550" 
d="M524 1141h-102l-399 299h286z" />
    <glyph glyph-name="acute.cap" unicode="&#xe002;" horiz-adv-x="1165" 
d="M963 1802l-398 -301h-106l217 301h287z" />
    <glyph glyph-name="acute.sc" unicode="&#xe003;" horiz-adv-x="552" 
d="M528 1440l-397 -299h-104l217 299h284z" />
    <glyph glyph-name="circumflex.cap" unicode="&#xe004;" horiz-adv-x="1165" 
d="M928 1501h-127l-211 135l-207 -135h-127l334 328z" />
    <glyph glyph-name="circumflex.sc" unicode="&#xe005;" horiz-adv-x="550" 
d="M610 1141h-127l-211 133l-204 -133h-127l331 325z" />
    <glyph glyph-name="caron.cap" unicode="&#xe006;" horiz-adv-x="1142" 
d="M932 1827l-334 -328l-338 328h127l211 -133l205 133h129z" />
    <glyph glyph-name="caron.sc" unicode="&#xe007;" horiz-adv-x="550" 
d="M610 1466l-331 -325l-338 325h127l211 -133l204 133h127z" />
    <glyph glyph-name="caron.alt" unicode="&#xe008;" horiz-adv-x="1052" 
d="M668 1253q0 -136 -84 -202q-49 -40 -127 -64l-23 57q66 28 90.5 62.5t26.5 99.5h-23q-112 0 -112 94q0 46 30 74.5t82 28.5q140 0 140 -150z" />
    <glyph glyph-name="tilde.cap" unicode="&#xe009;" horiz-adv-x="1462" 
d="M1114 1743q-86 -119 -141 -166q-41 -27 -76 -27q-33 0 -88 27l-145 76q-36 20 -58 20q-34 0 -143 -106l-43 47q99 132 141 164q35 28 76 28q33 0 88 -28l145 -74q34 -21 58 -21q17 0 47.5 22t95.5 83z" />
    <glyph glyph-name="tilde.sc" unicode="&#xe00a;" horiz-adv-x="552" 
d="M623 1380q-96 -127 -142 -163q-39 -29 -75 -29q-34 0 -89 29l-143 73q-42 21 -59 21q-33 0 -144 -105l-43 45q98 130 142 166q41 27 75 27q33 0 88 -27l146 -76q36 -20 57 -20q17 0 47.5 22.5t96.5 83.5z" />
    <glyph glyph-name="dieresis.cap" unicode="&#xe00b;" horiz-adv-x="1239" 
d="M915 1647q0 -103 -100 -103q-96 0 -96 92q0 105 94 105q49 0 75.5 -24.5t26.5 -69.5zM553 1640q0 -96 -100 -96q-97 0 -97 92q0 51 25 78t72 27q100 0 100 -101z" />
    <glyph glyph-name="dieresis.sc" unicode="&#xe00c;" horiz-adv-x="552" 
d="M563 1286q0 -104 -100 -104q-47 0 -71.5 24.5t-24.5 69.5q0 102 94 102q49 0 75.5 -24t26.5 -68zM201 1280q0 -98 -99 -98q-98 0 -98 92q0 104 98 104q47 0 73 -25.5t26 -72.5z" />
    <glyph glyph-name="macron.cap" unicode="&#xe00d;" horiz-adv-x="1165" 
d="M860 1567h-541v125h541v-125z" />
    <glyph glyph-name="macron.sc" unicode="&#xe00e;" horiz-adv-x="552" 
d="M547 1223h-539v125h539v-125z" />
    <glyph glyph-name="breve.cap" unicode="&#xe00f;" horiz-adv-x="1419" 
d="M1130 1763q-58 -76 -112 -121q-62 -54 -112 -75t-113 -21q-88 0 -170 52.5t-170 164.5l51 43q110 -76 166 -100.5t121 -24.5q119 0 288 125z" />
    <glyph glyph-name="breve.sc" unicode="&#xe010;" horiz-adv-x="552" 
d="M614 1376q-56 -74 -110 -119q-64 -55 -114.5 -76.5t-113.5 -21.5q-171 0 -337 217l49 45q110 -77 165.5 -102t120.5 -25q64 0 132 30t157 97z" />
    <glyph glyph-name="ring.cap" unicode="&#xe011;" horiz-adv-x="1333" 
d="M930 1663q0 -78 -57.5 -120t-165.5 -42q-109 0 -166.5 42t-57.5 120q0 160 224 160q109 0 166 -41t57 -119zM834 1663q0 43 -36 71.5t-93 28.5q-55 0 -90 -29.5t-35 -72.5q0 -44 35.5 -71t93.5 -27t91.5 27t33.5 73z" />
    <glyph glyph-name="ring.sc" unicode="&#xe012;" horiz-adv-x="552" 
d="M502 1300q0 -78 -57 -118.5t-166 -40.5t-166.5 40.5t-57.5 118.5q0 160 224 160q109 0 166 -41t57 -119zM406 1300q0 43 -36.5 72t-93.5 29q-55 0 -89.5 -29t-34.5 -74q0 -44 35.5 -71t93.5 -27t91.5 27t33.5 73z" />
    <glyph glyph-name="hungarumlaut.cap" unicode="&#xe013;" horiz-adv-x="1112" 
d="M942 1776l-235 -279h-80l137 279h178zM647 1776l-237 -279h-76l137 279h176z" />
    <glyph glyph-name="hungarumlaut.sc" unicode="&#xe014;" horiz-adv-x="552" 
d="M584 1419l-238 -278h-80l137 278h181zM287 1419l-238 -278h-76l138 278h176z" />
    <glyph glyph-name="dotaccent.cap" unicode="&#xe015;" horiz-adv-x="649" 
d="M428 1638q0 -96 -100 -96q-97 0 -97 92q0 51 25 78t72 27q48 0 74 -26t26 -75z" />
    <glyph glyph-name="dotaccent.sc" unicode="&#xe016;" horiz-adv-x="552" 
d="M375 1280q0 -47 -26 -72.5t-75 -25.5q-98 0 -98 92q0 51 25.5 77.5t72.5 26.5q48 0 74.5 -25.5t26.5 -72.5z" />
    <glyph glyph-name="commaaccent" unicode="&#xe017;" horiz-adv-x="1052" 
d="M668 -238q0 -133 -84 -202q-55 -42 -127 -64l-23 58q66 29 91 63t26 98h-23q-55 0 -83.5 25.5t-28.5 71.5t30 73t82 27q140 0 140 -150z" />
    <glyph glyph-name="commaaccent.alt" unicode="&#xe01a;" horiz-adv-x="1052" 
d="M414 1270q0 134 86 203q48 39 125 63l24 -57q-66 -29 -92 -63.5t-29 -98.5h25q55 0 84 -25t29 -71t-31 -73.5t-82 -27.5q-139 0 -139 150z" />
    <glyph glyph-name="a.sc" unicode="&#xe5ec;" horiz-adv-x="1167" 
d="M1167 0h-477v57l125 62l-98 278h-344l-107 -278l123 -62v-57h-389v57l143 62l408 938h119l354 -938l143 -62v-57zM692 481q-15 43 -61.5 175t-73.5 204l-151 -379h286z" />
    <glyph glyph-name="b.sc" unicode="&#xe5f5;" horiz-adv-x="1069" 
d="M979 272q0 -62 -22 -110t-58.5 -78t-86.5 -49.5t-101.5 -27t-108.5 -7.5h-512v57l162 60v813l-162 59v58h496q352 0 352 -246q0 -176 -225 -254q61 -16 104.5 -35.5t82.5 -50.5t59 -78.5t20 -110.5zM739 776q0 187 -192 187h-107v-388h105q88 0 141 54.5t53 146.5z
M782 285q0 97 -63.5 152t-173.5 55h-105v-408h121q104 0 162.5 51.5t58.5 149.5z" />
    <glyph glyph-name="c.sc" unicode="&#xe5ff;" horiz-adv-x="1101" 
d="M1012 295l-21 -256q-79 -21 -135 -31q-105 -18 -213 -18q-126 0 -226 30.5t-174 91t-113.5 158t-39.5 226.5q0 277 165.5 425t444.5 148q128 0 301 -37v-258h-71l-80 207q-102 4 -113 4q-440 0 -440 -465q0 -114 29 -197.5t70.5 -128t102 -71t108 -33t104.5 -6.5
q53 0 131 12l98 199h72z" />
    <glyph glyph-name="d.sc" unicode="&#xe609;" horiz-adv-x="1275" 
d="M1186 547q0 -136 -43 -241t-121.5 -171.5t-185 -100.5t-236.5 -34h-510v57l162 62v809l-162 61v58h537q126 0 226.5 -29t175.5 -88t116 -156t41 -227zM979 535q0 192 -92 304.5t-281 112.5h-166v-858h148q195 0 293 119.5t98 321.5z" />
    <glyph glyph-name="e.sc" unicode="&#xe613;" horiz-adv-x="1044" 
d="M944 270l-22 -270h-832v57l162 62v811l-162 59v58h825v-250h-63l-76 166h-336v-388h275l55 136h64v-355h-64l-55 136h-275v-398h342l99 176h63z" />
    <glyph glyph-name="f.sc" unicode="&#xe61c;" horiz-adv-x="964" 
d="M874 805h-65l-68 158h-301v-388h240l57 136h64v-355h-64l-57 136h-240v-373l189 -62v-57h-539v57l162 62v811l-162 59v58h784v-242z" />
    <glyph glyph-name="g.sc" unicode="&#xe626;" horiz-adv-x="1193" 
d="M1153 379l-143 -64v-272q-108 -26 -150 -33q-123 -20 -217 -20q-258 0 -405.5 131.5t-147.5 386.5q0 141 45.5 249.5t129 176t195.5 101.5t249 34q132 0 301 -37v-258h-70l-80 207q-53 4 -119 4q-225 0 -334.5 -117.5t-109.5 -351.5q0 -206 103 -320t290 -114
q71 0 144 12v221l-162 64v57h481v-57z" />
    <glyph glyph-name="h.sc" unicode="&#xe630;" horiz-adv-x="1363" 
d="M1276 0h-494v57l144 62v381h-486v-381l146 -62v-57h-496v57l162 62v809l-162 61v58h496v-58l-146 -61v-334h486v334l-144 61v58h494v-58l-164 -61v-809l164 -62v-57z" />
    <glyph glyph-name="i.sc" unicode="&#xe63a;" horiz-adv-x="692" 
d="M602 0h-512v57l162 62v809l-162 61v58h512v-58l-162 -61v-809l162 -62v-57z" />
    <glyph glyph-name="j.sc" unicode="&#xe643;" horiz-adv-x="692" 
d="M612 989l-161 -61v-944q0 -118 -31 -193t-107 -143q-59 -55 -126 -79t-156 -24q-85 0 -140 9v198h132l65 -131q95 26 134.5 90.5t39.5 190.5v1026l-162 61v58h512v-58z" />
    <glyph glyph-name="k.sc" unicode="&#xe64d;" horiz-adv-x="1185" 
d="M1176 0h-283l-412 557l373 373l-104 59v58h395v-58l-144 -59l-339 -312l376 -499l138 -62v-57zM594 0h-504v57l162 62v809l-162 61v58h504v-58l-154 -61v-809l154 -62v-57z" />
    <glyph glyph-name="l.sc" unicode="&#xe657;" horiz-adv-x="899" 
d="M879 291l-25 -291h-764v57l162 62v809l-162 61v58h528v-58l-178 -61v-834h273l102 197h64z" />
    <glyph glyph-name="m.sc" unicode="&#xe661;" horiz-adv-x="1562" 
d="M1473 0h-484v57l144 62v702l-371 -831h-33l-362 852v-723l145 -62v-57h-422v57l162 62v809l-162 61v58h377l313 -754l326 754h367v-58l-164 -61v-809l164 -62v-57z" />
    <glyph glyph-name="n.sc" unicode="&#xe66b;" horiz-adv-x="1335" 
d="M1255 989l-163 -61v-938h-82l-643 837v-708l161 -62v-57h-438v57l162 62v809l-162 61v58h322l567 -736v617l-164 61v58h440v-58z" />
    <glyph glyph-name="o.sc" unicode="&#xe674;" horiz-adv-x="1224" 
d="M1137 543q0 -249 -151 -406t-390 -157q-229 0 -367.5 141.5t-138.5 374.5q0 162 63.5 291.5t186.5 205.5t285 76q234 0 373 -144.5t139 -381.5zM930 520q0 68 -8.5 130t-31.5 124.5t-58.5 108t-93.5 74t-132 28.5q-149 0 -229 -115t-80 -340q0 -236 82.5 -351.5
t234.5 -115.5q144 0 230 121.5t86 335.5z" />
    <glyph glyph-name="p.sc" unicode="&#xe67d;" horiz-adv-x="987" 
d="M946 752q0 -140 -111.5 -228t-291.5 -88h-103v-315l193 -62v-59h-543v59l162 62v807l-162 59v60h459q83 0 148.5 -12.5t124.5 -43.5t91.5 -91.5t32.5 -147.5zM750 743q0 117 -50 168.5t-159 51.5h-101v-443h66q126 0 185 52.5t59 170.5z" />
    <glyph glyph-name="q.sc" unicode="&#xe687;" horiz-adv-x="1234" 
d="M1444 -174q-116 -90 -171.5 -117.5t-107.5 -27.5q-25 0 -58 8t-59.5 17t-68.5 28t-61 28.5t-63.5 32.5t-51.5 27q-69 35 -281 160q-432 71 -432 520q0 161 67 289.5t191.5 202t284.5 73.5q229 0 366.5 -143t137.5 -381q0 -197 -101.5 -339t-279.5 -196q424 -172 516 -172
q43 0 153 39zM930 520q0 68 -8.5 130t-31.5 124.5t-58.5 108t-93.5 74t-132 28.5q-149 0 -229 -115t-80 -340q0 -236 82.5 -351.5t234.5 -115.5q144 0 230 121.5t86 335.5z" />
    <glyph glyph-name="r.sc" unicode="&#xe691;" horiz-adv-x="1128" 
d="M1128 0h-262l-366 498h-60v-379l154 -62v-57h-504v57l162 62v811l-162 59v58h502q56 0 101.5 -5.5t93 -21.5t80 -42t53 -71.5t20.5 -105.5q0 -223 -248 -277l314 -405l122 -62v-57zM743 778q0 97 -45.5 141t-140.5 44h-117v-381h115q89 0 138.5 49.5t49.5 146.5z" />
    <glyph glyph-name="s.sc" unicode="&#xe69b;" horiz-adv-x="933" 
d="M813 276q0 -135 -101 -215.5t-270 -80.5q-100 0 -323 53v256h74l77 -207q90 -19 136 -19q102 0 156 47.5t54 133.5q0 53 -27 87t-108 85l-162 102q-49 30 -77 51.5t-57.5 53.5t-42.5 71.5t-13 89.5q0 129 92.5 207t247.5 78q102 0 303 -37v-258h-72l-79 203q-55 8 -113 8
q-103 0 -158 -41t-55 -113q0 -20 6 -38t13 -30t23.5 -26.5t25 -20.5t31.5 -20.5t30 -19.5l172 -109q42 -27 59.5 -38.5t50 -36t46.5 -42.5t31 -45.5t23.5 -59t6.5 -69.5z" />
    <glyph glyph-name="t.sc" unicode="&#xe6a5;" horiz-adv-x="993" 
d="M963 774h-64l-72 178h-237v-833l172 -62v-57h-533v57l172 62v833h-227l-78 -178h-65v273h932v-273z" />
    <glyph glyph-name="u.sc" unicode="&#xe6af;" horiz-adv-x="1286" 
d="M1225 989l-162 -61v-572q0 -106 -28.5 -180t-85.5 -116.5t-131.5 -61t-176.5 -18.5q-218 0 -318 80t-100 255v625l-164 49v58h506v-58l-155 -61v-600q0 -265 264 -265q134 0 196 63t62 193v609l-158 61v58h451v-58z" />
    <glyph glyph-name="v.sc" unicode="&#xe6b9;" horiz-adv-x="1134" 
d="M1135 989l-138 -61l-403 -938h-98l-363 938l-133 61v58h461v-58l-125 -61l256 -723l282 723l-122 61v58h383v-58z" />
    <glyph glyph-name="w.sc" unicode="&#xe6c3;" horiz-adv-x="1695" 
d="M1696 989l-129 -61l-361 -938h-98l-264 766l-289 -766h-102l-320 938l-133 61v58h453v-58l-123 -61l221 -672l297 791h82l280 -801l226 682l-133 61v58h393v-58z" />
    <glyph glyph-name="x.sc" unicode="&#xe6cd;" horiz-adv-x="1128" 
d="M1087 0h-456v57l108 62l-211 319l-217 -319l113 -62v-57h-385v57l135 62l299 405l-264 404l-135 61v58h440v-58l-94 -61l180 -273l182 273l-104 61v58h369v-58l-136 -61l-258 -350l299 -459l135 -62v-57z" />
    <glyph glyph-name="y.sc" unicode="&#xe6d6;" horiz-adv-x="1046" 
d="M1047 993l-127 -53l-302 -418v-403l175 -62v-57h-535v57l174 62v362l-299 459l-133 53v54h455v-56l-109 -51l225 -348l217 348l-106 51v56h365v-54z" />
    <glyph glyph-name="z.sc" unicode="&#xe6e0;" horiz-adv-x="993" 
d="M903 295l-26 -295h-787v72l567 880h-381l-79 -178h-66v273h770v-62l-579 -881h409l109 191h63z" />
    <glyph glyph-name="eng.sc" unicode="&#xe6ea;" horiz-adv-x="1335" 
d="M979 -37v68l-612 796v-708l161 -62v-57h-438v57l162 62v809l-162 61v58h322l567 -736v617l-164 61v58h440v-58l-163 -61v-928q0 -136 -30 -209.5t-106 -142.5q-61 -55 -127.5 -79t-156.5 -24q-82 0 -140 9v198h132l67 -131q110 26 179 120.5t69 221.5z" />
    <glyph glyph-name="agrave.sc" unicode="&#xeb35;" horiz-adv-x="1167" 
d="M1167 0h-477v57l125 62l-98 278h-344l-107 -278l123 -62v-57h-389v57l143 62l408 938h119l354 -938l143 -62v-57zM692 481q-15 43 -61.5 175t-73.5 204l-151 -379h286zM801 1180h-105l-399 301h287z" />
    <glyph glyph-name="aacute.sc" unicode="&#xeb3f;" horiz-adv-x="1167" 
d="M1167 0h-477v57l125 62l-98 278h-344l-107 -278l123 -62v-57h-389v57l143 62l408 938h119l354 -938l143 -62v-57zM692 481q-15 43 -61.5 175t-73.5 204l-151 -379h286zM915 1481l-397 -301h-106l217 301h286z" />
    <glyph glyph-name="acircumflex.sc" unicode="&#xeb49;" horiz-adv-x="1167" 
d="M1167 0h-477v57l125 62l-98 278h-344l-107 -278l123 -62v-57h-389v57l143 62l408 938h119l354 -938l143 -62v-57zM692 481q-15 43 -61.5 175t-73.5 204l-151 -379h286zM938 1180h-129l-211 133l-205 -133h-127l332 325z" />
    <glyph glyph-name="atilde.sc" unicode="&#xeb53;" horiz-adv-x="1167" 
d="M1167 0h-477v57l125 62l-98 278h-344l-107 -278l123 -62v-57h-389v57l143 62l408 938h119l354 -938l143 -62v-57zM692 481q-15 43 -61.5 175t-73.5 204l-151 -379h286zM963 1421q-95 -131 -142 -166q-35 -28 -76 -28q-35 0 -86 28l-145 76q-42 21 -59 21q-32 0 -142 -107
l-45 45q3 4 20.5 26.5t24.5 32t23 29.5t26.5 31.5t23.5 25t24 21.5q39 29 75 29q35 0 88 -29l146 -76q36 -20 57 -20q18 0 47.5 21.5t96.5 84.5z" />
    <glyph glyph-name="adieresis.sc" unicode="&#xeb5d;" horiz-adv-x="1167" 
d="M1167 0h-477v57l125 62l-98 278h-344l-107 -278l123 -62v-57h-389v57l143 62l408 938h119l354 -938l143 -62v-57zM692 481q-15 43 -61.5 175t-73.5 204l-151 -379h286zM883 1325q0 -104 -99 -104q-47 0 -72.5 24.5t-25.5 69.5q0 104 96 104q49 0 75 -24.5t26 -69.5z
M522 1319q0 -98 -100 -98q-98 0 -98 92q0 51 25.5 78.5t72.5 27.5t73.5 -26.5t26.5 -73.5z" />
    <glyph glyph-name="amacron.sc" unicode="&#xeb67;" horiz-adv-x="1167" 
d="M1167 0h-477v57l125 62l-98 278h-344l-107 -278l123 -62v-57h-389v57l143 62l408 938h119l354 -938l143 -62v-57zM692 481q-15 43 -61.5 175t-73.5 204l-151 -379h286zM877 1264h-539v122h539v-122z" />
    <glyph glyph-name="abreve.sc" unicode="&#xeb71;" horiz-adv-x="1167" 
d="M1167 0h-477v57l125 62l-98 278h-344l-107 -278l123 -62v-57h-389v57l143 62l408 938h119l354 -938l143 -62v-57zM692 481q-15 43 -61.5 175t-73.5 204l-151 -379h286zM940 1417q-48 -66 -111 -121q-64 -55 -113.5 -75.5t-113.5 -20.5q-87 0 -169 52.5t-169 164.5l49 43
q108 -76 165 -100.5t122 -24.5q123 0 289 125z" />
    <glyph glyph-name="aring.sc" unicode="&#xeb7b;" horiz-adv-x="1167" 
d="M1167 0h-477v57l125 62l-98 278h-344l-107 -278l123 -62v-57h-389v57l143 62l408 938h119l354 -938l143 -62v-57zM692 481q-15 43 -61.5 175t-73.5 204l-151 -379h286zM834 1341q0 -79 -57.5 -120t-166.5 -41t-166 41t-57 120q0 158 223 158q109 0 166.5 -40.5
t57.5 -117.5zM737 1341q0 43 -36 71t-93 28q-55 0 -90 -29t-35 -72q0 -45 35.5 -72.5t93.5 -27.5t91.5 28t33.5 74z" />
    <glyph glyph-name="aringacute.sc" unicode="&#xeb85;" horiz-adv-x="1167" 
d="M834 1149q0 -63 -35.5 -102.5t-104.5 -51.5l330 -876l143 -62v-57h-477v57l125 62l-98 278h-344l-107 -278l123 -62v-57h-389v57l143 62l381 876q-66 12 -101.5 52t-35.5 102q0 158 223 158q109 0 166.5 -40.5t57.5 -117.5zM915 1698l-397 -301h-106l217 301h286z
M692 481q-15 43 -61.5 175t-73.5 204l-151 -379h286zM737 1149q0 43 -36 70.5t-93 27.5q-55 0 -90 -28.5t-35 -71.5q0 -46 35 -73t94 -27q58 0 91.5 27.5t33.5 74.5z" />
    <glyph glyph-name="aogonek.sc" unicode="&#xeb8f;" horiz-adv-x="1167" 
d="M764 -315l-12 -66q-271 12 -271 186q0 88 63 139t146 56v57l125 62l-98 278h-344l-107 -278l123 -62v-57h-389v57l143 62l408 938h119l354 -938l143 -62v-57h-436q-115 -72 -115 -174q0 -60 36 -94.5t112 -46.5zM692 481q-15 43 -61.5 175t-73.5 204l-151 -379h286z" />
    <glyph glyph-name="ae.sc" unicode="&#xeb99;" horiz-adv-x="1447" 
d="M1358 270l-23 -270h-800v57l141 62v356h-252l-174 -356l119 -62v-57h-400v57l140 62l495 928h725v-250h-63l-76 166h-336v-404h274l56 135h63v-354h-63l-56 135h-274v-381h342l98 176h64zM676 559v422h-10l-205 -422h215z" />
    <glyph glyph-name="aeacute.sc" unicode="&#xeba3;" horiz-adv-x="1447" 
d="M1358 270l-23 -270h-800v57l141 62v356h-252l-174 -356l119 -62v-57h-400v57l140 62l495 928h725v-250h-63l-76 166h-336v-404h274l56 135h63v-354h-63l-56 135h-274v-381h342l98 176h64zM676 559v422h-10l-205 -422h215zM1276 1481l-399 -301h-105l217 301h287z" />
    <glyph glyph-name="cacute.sc" unicode="&#xebad;" horiz-adv-x="1101" 
d="M1012 295l-21 -256q-79 -21 -135 -31q-105 -18 -213 -18q-126 0 -226 30.5t-174 91t-113.5 158t-39.5 226.5q0 277 165.5 425t444.5 148q128 0 301 -37v-258h-71l-80 207q-102 4 -113 4q-440 0 -440 -465q0 -114 29 -197.5t70.5 -128t102 -71t108 -33t104.5 -6.5
q53 0 131 12l98 199h72zM1001 1481l-399 -301h-104l217 301h286z" />
    <glyph glyph-name="ccircumflex.sc" unicode="&#xebb7;" horiz-adv-x="1101" 
d="M1012 295l-21 -256q-79 -21 -135 -31q-105 -18 -213 -18q-126 0 -226 30.5t-174 91t-113.5 158t-39.5 226.5q0 277 165.5 425t444.5 148q128 0 301 -37v-258h-71l-80 207q-102 4 -113 4q-440 0 -440 -465q0 -114 29 -197.5t70.5 -128t102 -71t108 -33t104.5 -6.5
q53 0 131 12l98 199h72zM991 1180h-127l-211 133l-204 -133h-130l334 325z" />
    <glyph glyph-name="ccaron.sc" unicode="&#xebc1;" horiz-adv-x="1101" 
d="M1012 295l-21 -256q-79 -21 -135 -31q-105 -18 -213 -18q-126 0 -226 30.5t-174 91t-113.5 158t-39.5 226.5q0 277 165.5 425t444.5 148q128 0 301 -37v-258h-71l-80 207q-102 4 -113 4q-440 0 -440 -465q0 -114 29 -197.5t70.5 -128t102 -71t108 -33t104.5 -6.5
q53 0 131 12l98 199h72zM1030 1505l-332 -325l-338 325h127l211 -133l205 133h127z" />
    <glyph glyph-name="cdotaccent.sc" unicode="&#xebcb;" horiz-adv-x="1101" 
d="M1012 295l-21 -256q-79 -21 -135 -31q-105 -18 -213 -18q-126 0 -226 30.5t-174 91t-113.5 158t-39.5 226.5q0 277 165.5 425t444.5 148q128 0 301 -37v-258h-71l-80 207q-102 4 -113 4q-440 0 -440 -465q0 -114 29 -197.5t70.5 -128t102 -71t108 -33t104.5 -6.5
q53 0 131 12l98 199h72zM782 1319q0 -98 -100 -98q-96 0 -96 92q0 106 96 106q47 0 73.5 -26.5t26.5 -73.5z" />
    <glyph glyph-name="ccedilla.sc" unicode="&#xebd5;" horiz-adv-x="1101" 
d="M1012 295l-21 -256q-79 -21 -135 -31q-85 -15 -172 -18v-60q145 -9 145 -159q0 -76 -78.5 -138t-224.5 -98l-18 47q176 89 176 197q0 42 -23 68t-61 26v117q-239 11 -374.5 137t-135.5 369q0 277 165.5 425t444.5 148q128 0 301 -37v-258h-71l-80 207q-102 4 -113 4
q-440 0 -440 -465q0 -82 15.5 -149t39.5 -111.5t60 -77.5t71.5 -51.5t80 -29.5t78.5 -14t73 -3q49 0 127 12l98 199h72z" />
    <glyph glyph-name="dcaron.sc" unicode="&#xebdf;" horiz-adv-x="1275" 
d="M1186 547q0 -136 -43 -241t-121.5 -171.5t-185 -100.5t-236.5 -34h-510v57l162 62v809l-162 61v58h537q126 0 226.5 -29t175.5 -88t116 -156t41 -227zM979 535q0 192 -92 304.5t-281 112.5h-166v-858h148q195 0 293 119.5t98 321.5zM868 1505l-333 -325l-338 325h127
l211 -133l204 133h129z" />
    <glyph glyph-name="dcroat.sc" unicode="&#xebe9;" horiz-adv-x="1275" 
d="M90 653h162v275l-162 61v58h537q126 0 226.5 -29t175.5 -88t116 -156t41 -227q0 -136 -43 -241t-121.5 -171.5t-185 -100.5t-236.5 -34h-510v57l162 62v438h-162v96zM979 535q0 192 -92 304.5t-281 112.5h-166v-299h162v-96h-162v-463h148q195 0 293 119.5t98 321.5z" />
    <glyph glyph-name="eth.sc" unicode="&#xebf3;" horiz-adv-x="1275" 
d="M90 653h162v275l-162 61v58h537q126 0 226.5 -29t175.5 -88t116 -156t41 -227q0 -136 -43 -241t-121.5 -171.5t-185 -100.5t-236.5 -34h-510v57l162 62v438h-162v96zM979 535q0 192 -92 304.5t-281 112.5h-166v-299h162v-96h-162v-463h148q195 0 293 119.5t98 321.5z" />
    <glyph glyph-name="egrave.sc" unicode="&#xebfd;" horiz-adv-x="1044" 
d="M944 270l-22 -270h-832v57l162 62v811l-162 59v58h825v-250h-63l-76 166h-336v-388h275l55 136h64v-355h-64l-55 136h-275v-398h342l99 176h63zM705 1180h-105l-399 301h286z" />
    <glyph glyph-name="eacute.sc" unicode="&#xec07;" horiz-adv-x="1044" 
d="M944 270l-22 -270h-832v57l162 62v811l-162 59v58h825v-250h-63l-76 166h-336v-388h275l55 136h64v-355h-64l-55 136h-275v-398h342l99 176h63zM885 1481l-398 -301h-104l215 301h287z" />
    <glyph glyph-name="ecircumflex.sc" unicode="&#xec11;" horiz-adv-x="1044" 
d="M944 270l-22 -270h-832v57l162 62v811l-162 59v58h825v-250h-63l-76 166h-336v-388h275l55 136h64v-355h-64l-55 136h-275v-398h342l99 176h63zM870 1180h-127l-211 133l-204 -133h-127l331 325z" />
    <glyph glyph-name="ecaron.sc" unicode="&#xec1b;" horiz-adv-x="1044" 
d="M944 270l-22 -270h-832v57l162 62v811l-162 59v58h825v-250h-63l-76 166h-336v-388h275l55 136h64v-355h-64l-55 136h-275v-398h342l99 176h63zM899 1505l-332 -325l-338 325h127l211 -133l205 133h127z" />
    <glyph glyph-name="edieresis.sc" unicode="&#xec25;" horiz-adv-x="1044" 
d="M944 270l-22 -270h-832v57l162 62v811l-162 59v58h825v-250h-63l-76 166h-336v-388h275l55 136h64v-355h-64l-55 136h-275v-398h342l99 176h63zM834 1325q0 -104 -101 -104q-47 0 -71.5 24.5t-24.5 69.5q0 104 94 104q50 0 76.5 -24.5t26.5 -69.5zM471 1319
q0 -98 -98 -98q-99 0 -99 92q0 51 26 78.5t73 27.5t72.5 -26.5t25.5 -73.5z" />
    <glyph glyph-name="emacron.sc" unicode="&#xec2f;" horiz-adv-x="1044" 
d="M944 270l-22 -270h-832v57l162 62v811l-162 59v58h825v-250h-63l-76 166h-336v-388h275l55 136h64v-355h-64l-55 136h-275v-398h342l99 176h63zM831 1264h-538v122h538v-122z" />
    <glyph glyph-name="ebreve.sc" unicode="&#xec39;" horiz-adv-x="1044" 
d="M944 270l-22 -270h-832v57l162 62v811l-162 59v58h825v-250h-63l-76 166h-336v-388h275l55 136h64v-355h-64l-55 136h-275v-398h342l99 176h63zM903 1417q-49 -68 -110 -121q-63 -55 -113.5 -75.5t-114.5 -20.5q-172 0 -338 217l49 43q108 -76 164.5 -100.5t122.5 -24.5
q64 0 131.5 29.5t157.5 95.5z" />
    <glyph glyph-name="edotaccent.sc" unicode="&#xec43;" horiz-adv-x="1044" 
d="M944 270l-22 -270h-832v57l162 62v811l-162 59v58h825v-250h-63l-76 166h-336v-388h275l55 136h64v-355h-64l-55 136h-275v-398h342l99 176h63zM662 1319q0 -98 -99 -98q-98 0 -98 92q0 51 25.5 78.5t72.5 27.5t73 -26.5t26 -73.5z" />
    <glyph glyph-name="eogonek.sc" unicode="&#xec4d;" horiz-adv-x="1044" 
d="M860 -4v4h-770v57l162 62v811l-162 59v58h825v-250h-63l-76 166h-336v-388h275l55 136h64v-355h-64l-55 136h-275v-398h342l99 176h63l-22 -270h-25q-113 -71 -113 -174q0 -60 36 -94.5t112 -46.5l-12 -66q-137 6 -204 51.5t-67 134.5q0 158 211 191z" />
    <glyph glyph-name="gcircumflex.sc" unicode="&#xec57;" horiz-adv-x="1193" 
d="M1153 379l-143 -64v-272q-108 -26 -150 -33q-123 -20 -217 -20q-258 0 -405.5 131.5t-147.5 386.5q0 141 45.5 249.5t129 176t195.5 101.5t249 34q132 0 301 -37v-258h-70l-80 207q-53 4 -119 4q-225 0 -334.5 -117.5t-109.5 -351.5q0 -206 103 -320t290 -114
q71 0 144 12v221l-162 64v57h481v-57zM1010 1180h-129l-211 133l-205 -133h-127l332 325z" />
    <glyph glyph-name="gbreve.sc" unicode="&#xec61;" horiz-adv-x="1193" 
d="M1153 379l-143 -64v-272q-108 -26 -150 -33q-123 -20 -217 -20q-258 0 -405.5 131.5t-147.5 386.5q0 141 45.5 249.5t129 176t195.5 101.5t249 34q132 0 301 -37v-258h-70l-80 207q-53 4 -119 4q-225 0 -334.5 -117.5t-109.5 -351.5q0 -206 103 -320t290 -114
q71 0 144 12v221l-162 64v57h481v-57zM948 1417q-49 -68 -110 -121q-63 -55 -113.5 -75.5t-114.5 -20.5q-172 0 -338 217l50 43q108 -76 164.5 -100.5t121.5 -24.5q123 0 289 125z" />
    <glyph glyph-name="gdotaccent.sc" unicode="&#xec6b;" horiz-adv-x="1193" 
d="M1153 379l-143 -64v-272q-108 -26 -150 -33q-123 -20 -217 -20q-258 0 -405.5 131.5t-147.5 386.5q0 141 45.5 249.5t129 176t195.5 101.5t249 34q132 0 301 -37v-258h-70l-80 207q-53 4 -119 4q-225 0 -334.5 -117.5t-109.5 -351.5q0 -206 103 -320t290 -114
q71 0 144 12v221l-162 64v57h481v-57zM799 1319q0 -47 -26 -72.5t-75 -25.5q-98 0 -98 92q0 51 25.5 78.5t72.5 27.5t74 -26.5t27 -73.5z" />
    <glyph glyph-name="gcommaaccent.sc" unicode="&#xec75;" horiz-adv-x="1193" 
d="M1153 379l-143 -64v-272q-108 -26 -150 -33q-123 -20 -217 -20q-258 0 -405.5 131.5t-147.5 386.5q0 141 45.5 249.5t129 176t195.5 101.5t249 34q132 0 301 -37v-258h-70l-80 207q-53 4 -119 4q-225 0 -334.5 -117.5t-109.5 -351.5q0 -206 103 -320t290 -114
q71 0 144 12v221l-162 64v57h481v-57zM801 -238q0 -131 -86 -202q-54 -42 -125 -64l-25 58q66 29 91 63t26 98h-20q-55 0 -85 25.5t-30 71.5t31 73t84 27q68 0 103.5 -38.5t35.5 -111.5z" />
    <glyph glyph-name="hcircumflex.sc" unicode="&#xec7f;" horiz-adv-x="1363" 
d="M1276 0h-494v57l144 62v381h-486v-381l146 -62v-57h-496v57l162 62v809l-162 61v58h496v-58l-146 -61v-334h486v334l-144 61v58h494v-58l-164 -61v-809l164 -62v-57zM1014 1180h-127l-211 133l-205 -133h-127l332 325z" />
    <glyph glyph-name="hbar.sc" unicode="&#xec89;" horiz-adv-x="1363" 
d="M1276 0h-494v57l144 62v381h-486v-381l146 -62v-57h-496v57l162 62v809l-162 61v58h496v-58l-146 -61v-103h486v103l-144 61v58h494v-58l-164 -61v-809l164 -62v-57zM440 594h486v137h-486v-137z" />
    <glyph glyph-name="igrave.sc" unicode="&#xec93;" horiz-adv-x="692" 
d="M602 0h-512v57l162 62v809l-162 61v58h512v-58l-162 -61v-809l162 -62v-57zM563 1180h-104l-400 301h287z" />
    <glyph glyph-name="iacute.sc" unicode="&#xec9d;" horiz-adv-x="692" 
d="M602 0h-512v57l162 62v809l-162 61v58h512v-58l-162 -61v-809l162 -62v-57zM633 1481l-397 -301h-107l217 301h287z" />
    <glyph glyph-name="ibreve.sc" unicode="&#xeca7;" horiz-adv-x="692" 
d="M602 0h-512v57l162 62v809l-162 61v58h512v-58l-162 -61v-809l162 -62v-57zM684 1417q-48 -66 -111 -121q-64 -55 -113.5 -75.5t-113.5 -20.5q-172 0 -338 217l49 43q108 -76 164.5 -100.5t122.5 -24.5q123 0 289 125z" />
    <glyph glyph-name="icircumflex.sc" unicode="&#xecb1;" horiz-adv-x="692" 
d="M602 0h-512v57l162 62v809l-162 61v58h512v-58l-162 -61v-809l162 -62v-57zM686 1180h-127l-211 133l-205 -133h-127l332 325z" />
    <glyph glyph-name="itilde.sc" unicode="&#xecbb;" horiz-adv-x="692" 
d="M602 0h-512v57l162 62v809l-162 61v58h512v-58l-162 -61v-809l162 -62v-57zM696 1421q-94 -129 -141 -166q-38 -28 -76 -28q-35 0 -88 28l-145 76q-38 21 -58 21q-30 0 -143 -107l-43 45q94 129 141 166q39 29 76 29q33 0 88 -29l146 -76q36 -20 57 -20q17 0 47 22t96 84
z" />
    <glyph glyph-name="idieresis.sc" unicode="&#xecc5;" horiz-adv-x="692" 
d="M602 0h-512v57l162 62v809l-162 61v58h512v-58l-162 -61v-809l162 -62v-57zM627 1325q0 -104 -101 -104q-47 0 -71.5 24.5t-24.5 69.5q0 104 94 104q50 0 76.5 -24.5t26.5 -69.5zM264 1319q0 -98 -98 -98t-98 92q0 51 25.5 78.5t72.5 27.5t72.5 -26.5t25.5 -73.5z" />
    <glyph glyph-name="idotaccent.sc" unicode="&#xeccf;" horiz-adv-x="692" 
d="M602 0h-512v57l162 62v809l-162 61v58h512v-58l-162 -61v-809l162 -62v-57zM446 1319q0 -98 -100 -98q-98 0 -98 92q0 51 25.5 78.5t72.5 27.5t73.5 -26.5t26.5 -73.5z" />
    <glyph glyph-name="imacron.sc" unicode="&#xecd0;" horiz-adv-x="692" 
d="M602 0h-512v57l162 62v809l-162 61v58h512v-58l-162 -61v-809l162 -62v-57zM621 1264h-539v122h539v-122z" />
    <glyph glyph-name="iogonek.sc" unicode="&#xecda;" horiz-adv-x="692" 
d="M602 0h-156q-114 -72 -114 -174q0 -60 36 -94.5t111 -46.5l-12 -66q-270 12 -270 186q0 161 213 191v4h-320v57l162 62v809l-162 61v58h512v-58l-162 -61v-809l162 -62v-57z" />
    <glyph glyph-name="jcircumflex.sc" unicode="&#xece4;" horiz-adv-x="692" 
d="M612 989l-161 -61v-944q0 -118 -31 -193t-107 -143q-59 -55 -126 -79t-156 -24q-85 0 -140 9v198h132l65 -131q95 26 134.5 90.5t39.5 190.5v1026l-162 61v58h512v-58zM688 1180h-127l-211 133l-205 -133h-127l332 325z" />
    <glyph glyph-name="kcommaaccent.sc" unicode="&#xecee;" horiz-adv-x="1185" 
d="M1176 0h-283l-412 557l373 373l-104 59v58h395v-58l-144 -59l-339 -312l376 -499l138 -62v-57zM594 0h-504v57l162 62v809l-162 61v58h504v-58l-154 -61v-809l154 -62v-57zM768 -238q0 -131 -86 -202q-49 -40 -125 -64l-25 58q67 30 92.5 63.5t26.5 97.5h-22
q-55 0 -84 25.5t-29 71.5t30.5 73t82.5 27q139 0 139 -150z" />
    <glyph glyph-name="lacute.sc" unicode="&#xed02;" horiz-adv-x="899" 
d="M879 291l-25 -291h-764v57l162 62v809l-162 61v58h528v-58l-178 -61v-834h273l102 197h64zM633 1481l-397 -301h-107l217 301h287z" />
    <glyph glyph-name="lcaron.sc" unicode="&#xed0c;" horiz-adv-x="899" 
d="M879 291l-25 -291h-764v57l162 62v809l-162 61v58h528v-58l-178 -61v-834h273l102 197h64zM930 920q0 -135 -86 -203q-54 -44 -125 -64l-25 58q66 28 90.5 62t26.5 97h-20q-55 0 -85 25.5t-30 71.5t31.5 74t83.5 28q67 0 103 -38.5t36 -110.5z" />
    <glyph glyph-name="lcommaaccent.sc" unicode="&#xed16;" horiz-adv-x="899" 
d="M879 291l-25 -291h-764v57l162 62v809l-162 61v58h528v-58l-178 -61v-834h273l102 197h64zM625 -238q0 -131 -86 -202q-49 -40 -125 -64l-25 58q67 30 92.5 63.5t26.5 97.5h-23q-55 0 -83.5 25.5t-28.5 71.5t30 73t82 27q140 0 140 -150z" />
    <glyph glyph-name="lslash.sc" unicode="&#xed20;" horiz-adv-x="870" 
d="M862 301l-31 -301h-804v68l151 55v412l-172 -76v119l172 73v312l-151 55v67h499v-67l-149 -55v-224l330 146v-115l-330 -145v-521h289l114 197h82z" />
    <glyph glyph-name="ldot.sc" unicode="&#xed2a;" horiz-adv-x="899" 
d="M879 291l-25 -291h-764v57l162 62v809l-162 61v58h528v-58l-178 -61v-834h273l102 197h64zM889 705q0 -99 -98 -99q-99 0 -99 92q0 51 26 78t73 27t72.5 -25.5t25.5 -72.5z" />
    <glyph glyph-name="nacute.sc" unicode="&#xed34;" horiz-adv-x="1335" 
d="M1255 989l-163 -61v-938h-82l-643 837v-708l161 -62v-57h-438v57l162 62v809l-162 61v58h322l567 -736v617l-164 61v58h440v-58zM995 1481l-399 -301h-104l217 301h286z" />
    <glyph glyph-name="ncaron.sc" unicode="&#xed3e;" horiz-adv-x="1335" 
d="M1255 989l-163 -61v-938h-82l-643 837v-708l161 -62v-57h-438v57l162 62v809l-162 61v58h322l567 -736v617l-164 61v58h440v-58zM1010 1505l-332 -325l-338 325h127l211 -133l205 133h127z" />
    <glyph glyph-name="ntilde.sc" unicode="&#xed48;" horiz-adv-x="1335" 
d="M1255 989l-163 -61v-938h-82l-643 837v-708l161 -62v-57h-438v57l162 62v809l-162 61v58h322l567 -736v617l-164 61v58h440v-58zM1018 1421q-96 -133 -141 -166q-35 -28 -76 -28q-35 0 -86 28l-146 76q-42 21 -57 21q-30 0 -143 -107l-45 45q4 5 24.5 32t30.5 39.5
t27.5 34t31.5 36t27 24.5q39 29 76 29q35 0 88 -29l145 -76q40 -20 57 -20q18 0 47.5 21.5t96.5 84.5z" />
    <glyph glyph-name="ncommaaccent.sc" unicode="&#xed52;" horiz-adv-x="1335" 
d="M1255 989l-163 -61v-938h-82l-643 837v-708l161 -62v-57h-438v57l162 62v809l-162 61v58h322l567 -736v617l-164 61v58h440v-58zM836 -238q0 -131 -86 -202q-49 -40 -125 -64l-25 58q67 30 92.5 63.5t26.5 97.5h-23q-55 0 -83.5 25.5t-28.5 71.5t30 73t82 27
q140 0 140 -150z" />
    <glyph glyph-name="ograve.sc" unicode="&#xed66;" horiz-adv-x="1224" 
d="M1137 543q0 -249 -151 -406t-390 -157q-229 0 -367.5 141.5t-138.5 374.5q0 162 63.5 291.5t186.5 205.5t285 76q234 0 373 -144.5t139 -381.5zM930 520q0 68 -8.5 130t-31.5 124.5t-58.5 108t-93.5 74t-132 28.5q-149 0 -229 -115t-80 -340q0 -236 82.5 -351.5
t234.5 -115.5q144 0 230 121.5t86 335.5zM762 1180h-103l-401 301h287z" />
    <glyph glyph-name="oacute.sc" unicode="&#xed70;" horiz-adv-x="1224" 
d="M1137 543q0 -249 -151 -406t-390 -157q-229 0 -367.5 141.5t-138.5 374.5q0 162 63.5 291.5t186.5 205.5t285 76q234 0 373 -144.5t139 -381.5zM930 520q0 68 -8.5 130t-31.5 124.5t-58.5 108t-93.5 74t-132 28.5q-149 0 -229 -115t-80 -340q0 -236 82.5 -351.5
t234.5 -115.5q144 0 230 121.5t86 335.5zM938 1481l-399 -301h-105l217 301h287z" />
    <glyph glyph-name="ocircumflex.sc" unicode="&#xed7a;" horiz-adv-x="1224" 
d="M1137 543q0 -249 -151 -406t-390 -157q-229 0 -367.5 141.5t-138.5 374.5q0 162 63.5 291.5t186.5 205.5t285 76q234 0 373 -144.5t139 -381.5zM930 520q0 68 -8.5 130t-31.5 124.5t-58.5 108t-93.5 74t-132 28.5q-149 0 -229 -115t-80 -340q0 -236 82.5 -351.5
t234.5 -115.5q144 0 230 121.5t86 335.5zM946 1180h-127l-211 133l-205 -133h-127l332 325z" />
    <glyph glyph-name="otilde.sc" unicode="&#xed84;" horiz-adv-x="1224" 
d="M1137 543q0 -249 -151 -406t-390 -157q-229 0 -367.5 141.5t-138.5 374.5q0 162 63.5 291.5t186.5 205.5t285 76q234 0 373 -144.5t139 -381.5zM930 520q0 68 -8.5 130t-31.5 124.5t-58.5 108t-93.5 74t-132 28.5q-149 0 -229 -115t-80 -340q0 -236 82.5 -351.5
t234.5 -115.5q144 0 230 121.5t86 335.5zM946 1421q-96 -133 -141 -166q-35 -28 -74 -28q-37 0 -88 28l-145 76q-42 21 -58 21q-30 0 -143 -107l-45 45q4 5 24.5 32t30.5 39.5t27.5 34t31.5 36t27 24.5q39 29 76 29q35 0 88 -29l145 -76q40 -20 58 -20t46.5 21.5t96.5 84.5z
" />
    <glyph glyph-name="odieresis.sc" unicode="&#xed8e;" horiz-adv-x="1224" 
d="M1137 543q0 -249 -151 -406t-390 -157q-229 0 -367.5 141.5t-138.5 374.5q0 162 63.5 291.5t186.5 205.5t285 76q234 0 373 -144.5t139 -381.5zM930 520q0 68 -8.5 130t-31.5 124.5t-58.5 108t-93.5 74t-132 28.5q-149 0 -229 -115t-80 -340q0 -236 82.5 -351.5
t234.5 -115.5q144 0 230 121.5t86 335.5zM891 1325q0 -104 -98 -104q-47 0 -73 25t-26 69q0 104 97 104q49 0 74.5 -24.5t25.5 -69.5zM528 1319q0 -98 -98 -98t-98 92q0 51 25.5 78.5t72.5 27.5t72.5 -26.5t25.5 -73.5z" />
    <glyph glyph-name="omacron.sc" unicode="&#xed98;" horiz-adv-x="1224" 
d="M1137 543q0 -249 -151 -406t-390 -157q-229 0 -367.5 141.5t-138.5 374.5q0 162 63.5 291.5t186.5 205.5t285 76q234 0 373 -144.5t139 -381.5zM930 520q0 68 -8.5 130t-31.5 124.5t-58.5 108t-93.5 74t-132 28.5q-149 0 -229 -115t-80 -340q0 -236 82.5 -351.5
t234.5 -115.5q144 0 230 121.5t86 335.5zM877 1264h-539v122h539v-122z" />
    <glyph glyph-name="obreve.sc" unicode="&#xeda2;" horiz-adv-x="1224" 
d="M1137 543q0 -249 -151 -406t-390 -157q-229 0 -367.5 141.5t-138.5 374.5q0 162 63.5 291.5t186.5 205.5t285 76q234 0 373 -144.5t139 -381.5zM930 520q0 68 -8.5 130t-31.5 124.5t-58.5 108t-93.5 74t-132 28.5q-149 0 -229 -115t-80 -340q0 -236 82.5 -351.5
t234.5 -115.5q144 0 230 121.5t86 335.5zM938 1417q-52 -67 -113 -121q-64 -55 -113.5 -75.5t-113.5 -20.5q-87 0 -169 52.5t-169 164.5l51 43q106 -76 163 -100.5t122 -24.5q123 0 289 125z" />
    <glyph glyph-name="ohungarumlaut.sc" unicode="&#xedac;" horiz-adv-x="1224" 
d="M1137 543q0 -249 -151 -406t-390 -157q-229 0 -367.5 141.5t-138.5 374.5q0 162 63.5 291.5t186.5 205.5t285 76q234 0 373 -144.5t139 -381.5zM930 520q0 68 -8.5 130t-31.5 124.5t-58.5 108t-93.5 74t-132 28.5q-149 0 -229 -115t-80 -340q0 -236 82.5 -351.5
t234.5 -115.5q144 0 230 121.5t86 335.5zM961 1458l-236 -278h-80l137 278h179zM664 1458l-236 -278h-76l137 278h175z" />
    <glyph glyph-name="oslash.sc" unicode="&#xedb6;" horiz-adv-x="1224" 
d="M1137 543q0 -249 -151 -406t-390 -157q-99 0 -176 26l-51 -102l-78 43l47 92q-118 62 -183 181t-65 276q0 162 63.5 291.5t186.5 205.5t285 76q122 0 215 -41l51 102l80 -43l-51 -98q105 -68 161 -182.5t56 -263.5zM930 520q0 200 -82 328l-375 -737q69 -37 141 -37
q145 0 230.5 120.5t85.5 325.5zM784 918q-77 57 -178 57q-146 0 -227.5 -117.5t-81.5 -327.5q0 -238 106 -360z" />
    <glyph glyph-name="oslashacute.sc" unicode="&#xedc0;" horiz-adv-x="1224" 
d="M1137 543q0 -249 -151 -406t-390 -157q-99 0 -176 26l-51 -102l-78 43l47 92q-118 62 -183 181t-65 276q0 162 63.5 291.5t186.5 205.5t285 76q122 0 215 -41l51 102l80 -43l-51 -98q105 -68 161 -182.5t56 -263.5zM930 520q0 200 -82 328l-375 -737q69 -37 141 -37
q145 0 230.5 120.5t85.5 325.5zM784 918q-77 57 -178 57q-146 0 -227.5 -117.5t-81.5 -327.5q0 -238 106 -360zM938 1481l-399 -301h-105l217 301h287z" />
    <glyph glyph-name="oe.sc" unicode="&#xedca;" horiz-adv-x="1544" 
d="M1454 270l-24 -270h-701q-76 -10 -147 -10q-113 0 -201.5 34.5t-142 88t-88 125.5t-47.5 140.5t-13 139.5q0 245 148.5 395t398.5 150q59 0 135 -16h653v-250h-65l-74 166h-338v-388h275l57 136h63v-355h-63l-57 136h-275v-398h342l101 176h63zM762 88v850
q-62 47 -156 47q-63 0 -114 -21t-82.5 -51t-54.5 -76t-34 -83.5t-17 -87.5t-6.5 -73t-0.5 -54q0 -223 75 -349.5t236 -126.5q76 0 154 25z" />
    <glyph glyph-name="racute.sc" unicode="&#xedd4;" horiz-adv-x="1128" 
d="M1128 0h-262l-366 498h-60v-379l154 -62v-57h-504v57l162 62v811l-162 59v58h502q56 0 101.5 -5.5t93 -21.5t80 -42t53 -71.5t20.5 -105.5q0 -223 -248 -277l314 -405l122 -62v-57zM743 778q0 97 -45.5 141t-140.5 44h-117v-381h115q89 0 138.5 49.5t49.5 146.5z
M866 1481l-399 -301h-105l218 301h286z" />
    <glyph glyph-name="rcaron.sc" unicode="&#xedde;" horiz-adv-x="1128" 
d="M1128 0h-262l-366 498h-60v-379l154 -62v-57h-504v57l162 62v811l-162 59v58h502q56 0 101.5 -5.5t93 -21.5t80 -42t53 -71.5t20.5 -105.5q0 -223 -248 -277l314 -405l122 -62v-57zM743 778q0 97 -45.5 141t-140.5 44h-117v-381h115q89 0 138.5 49.5t49.5 146.5z
M862 1505l-334 -325l-338 325h127l211 -133l205 133h129z" />
    <glyph glyph-name="rcommaaccent.sc" unicode="&#xede8;" horiz-adv-x="1128" 
d="M1128 0h-262l-366 498h-60v-379l154 -62v-57h-504v57l162 62v811l-162 59v58h502q56 0 101.5 -5.5t93 -21.5t80 -42t53 -71.5t20.5 -105.5q0 -223 -248 -277l314 -405l122 -62v-57zM743 778q0 97 -45.5 141t-140.5 44h-117v-381h115q89 0 138.5 49.5t49.5 146.5z
M801 -238q0 -131 -86 -202q-54 -42 -125 -64l-25 58q66 29 91 63t26 98h-20q-55 0 -85 25.5t-30 71.5t31 73t84 27q68 0 103.5 -38.5t35.5 -111.5z" />
    <glyph glyph-name="sacute.sc" unicode="&#xedf2;" horiz-adv-x="933" 
d="M813 276q0 -135 -101 -215.5t-270 -80.5q-100 0 -323 53v256h74l77 -207q90 -19 136 -19q102 0 156 47.5t54 133.5q0 53 -27 87t-108 85l-162 102q-49 30 -77 51.5t-57.5 53.5t-42.5 71.5t-13 89.5q0 129 92.5 207t247.5 78q102 0 303 -37v-258h-72l-79 203q-55 8 -113 8
q-103 0 -158 -41t-55 -113q0 -20 6 -38t13 -30t23.5 -26.5t25 -20.5t31.5 -20.5t30 -19.5l172 -109q42 -27 59.5 -38.5t50 -36t46.5 -42.5t31 -45.5t23.5 -59t6.5 -69.5zM780 1481l-397 -301h-107l218 301h286z" />
    <glyph glyph-name="scircumflex.sc" unicode="&#xedfc;" horiz-adv-x="933" 
d="M813 276q0 -135 -101 -215.5t-270 -80.5q-100 0 -323 53v256h74l77 -207q90 -19 136 -19q102 0 156 47.5t54 133.5q0 53 -27 87t-108 85l-162 102q-49 30 -77 51.5t-57.5 53.5t-42.5 71.5t-13 89.5q0 129 92.5 207t247.5 78q102 0 303 -37v-258h-72l-79 203q-55 8 -113 8
q-103 0 -158 -41t-55 -113q0 -20 6 -38t13 -30t23.5 -26.5t25 -20.5t31.5 -20.5t30 -19.5l172 -109q42 -27 59.5 -38.5t50 -36t46.5 -42.5t31 -45.5t23.5 -59t6.5 -69.5zM825 1180h-127l-211 133l-204 -133h-127l331 325z" />
    <glyph glyph-name="scaron.sc" unicode="&#xee06;" horiz-adv-x="841" 
d="M813 276q0 -135 -101 -215.5t-270 -80.5q-100 0 -323 53v256h74l77 -207q90 -19 136 -19q102 0 156 47.5t54 133.5q0 53 -27 87t-108 85l-162 102q-49 30 -77 51.5t-57.5 53.5t-42.5 71.5t-13 89.5q0 129 92.5 207t247.5 78q102 0 303 -37v-258h-72l-79 203q-55 8 -113 8
q-103 0 -158 -41t-55 -113q0 -20 6 -38t13 -30t23.5 -26.5t25 -20.5t31.5 -20.5t30 -19.5l172 -109q42 -27 59.5 -38.5t50 -36t46.5 -42.5t31 -45.5t23.5 -59t6.5 -69.5zM770 1466l-332 -325l-338 325h127l211 -133l205 133h127z" />
    <glyph glyph-name="scedilla.sc" unicode="&#xee10;" horiz-adv-x="933" 
d="M621 -229q0 -76 -79 -138t-225 -98l-18 47q176 89 176 197q0 42 -23 68t-61 26v109q-91 8 -272 51v256h74l77 -207q90 -19 136 -19q102 0 156 47.5t54 133.5q0 53 -27 87t-108 85l-162 102q-49 30 -77 51.5t-57.5 53.5t-42.5 71.5t-13 89.5q0 129 92.5 207t247.5 78
q102 0 303 -37v-258h-72l-79 203q-55 8 -113 8q-103 0 -158 -41t-55 -113q0 -20 6 -38t13 -30t23.5 -26.5t25 -20.5t31.5 -20.5t30 -19.5l172 -109q42 -27 59.5 -38.5t50 -36t46.5 -42.5t31 -45.5t23.5 -59t6.5 -69.5q0 -129 -91 -207.5t-247 -86.5v-52q146 -9 146 -159z
" />
    <glyph glyph-name="scommaaccent.sc" unicode="&#xee1a;" horiz-adv-x="933" 
d="M813 276q0 -135 -101 -215.5t-270 -80.5q-100 0 -323 53v256h74l77 -207q90 -19 136 -19q102 0 156 47.5t54 133.5q0 53 -27 87t-108 85l-162 102q-49 30 -77 51.5t-57.5 53.5t-42.5 71.5t-13 89.5q0 129 92.5 207t247.5 78q102 0 303 -37v-258h-72l-79 203q-55 8 -113 8
q-103 0 -158 -41t-55 -113q0 -20 6 -38t13 -30t23.5 -26.5t25 -20.5t31.5 -20.5t30 -19.5l172 -109q42 -27 59.5 -38.5t50 -36t46.5 -42.5t31 -45.5t23.5 -59t6.5 -69.5zM592 -238q0 -133 -84 -202q-54 -42 -125 -64l-25 58q66 29 91 63t26 98h-22q-54 0 -83.5 25.5
t-29.5 71.5t30.5 73t82.5 27q139 0 139 -150z" />
    <glyph glyph-name="germandbls.sc" unicode="&#xee24;" horiz-adv-x="1865" 
d="M1747 276q0 -135 -101.5 -215.5t-271.5 -80.5q-98 0 -321 53v256h73l78 -207q90 -19 135 -19q102 0 156.5 47.5t54.5 133.5q0 52 -27.5 86t-107.5 86l-162 102q-49 30 -77 51.5t-57.5 53.5t-42.5 71.5t-13 89.5q0 129 92.5 207t247.5 78q102 0 303 -37v-258h-72l-80 203
q-57 8 -114 8q-103 0 -158 -41t-55 -113q0 -20 6.5 -38t12.5 -29.5t23.5 -26.5t25.5 -20.5t32.5 -21t30.5 -19.5l172 -109q105 -67 139 -101q78 -76 78 -190zM813 276q0 -135 -101 -215.5t-270 -80.5q-100 0 -323 53v256h74l77 -207q90 -19 136 -19q102 0 156 47.5t54 133.5
q0 53 -27 87t-108 85l-162 102q-49 30 -77 51.5t-57.5 53.5t-42.5 71.5t-13 89.5q0 129 92.5 207t247.5 78q102 0 303 -37v-258h-72l-79 203q-55 8 -113 8q-103 0 -158 -41t-55 -113q0 -20 6 -38t13 -30t23.5 -26.5t25 -20.5t31.5 -20.5t30 -19.5l172 -109
q42 -27 59.5 -38.5t50 -36t46.5 -42.5t31 -45.5t23.5 -59t6.5 -69.5z" />
    <glyph glyph-name="tcaron.sc" unicode="&#xee2e;" horiz-adv-x="993" 
d="M963 774h-64l-72 178h-237v-833l172 -62v-57h-533v57l172 62v833h-227l-78 -178h-65v273h932v-273zM831 1505l-331 -325l-338 325h127l211 -133l205 133h126z" />
    <glyph glyph-name="tcommaaccent.sc" unicode="&#xee38;" horiz-adv-x="993" 
d="M963 774h-64l-72 178h-237v-833l172 -62v-57h-533v57l172 62v833h-227l-78 -178h-65v273h932v-273zM618 -238q0 -133 -86 -202q-50 -41 -124 -64l-25 58q67 30 92.5 63.5t26.5 97.5h-23q-55 0 -83.5 25.5t-28.5 71.5t30 73t82 27q139 0 139 -150z" />
    <glyph glyph-name="tbar.sc" unicode="&#xee42;" horiz-adv-x="993" 
d="M223 741h178v211h-227l-78 -178h-65v273h932v-273h-64l-72 178h-237v-211h178v-92h-178v-530l172 -62v-57h-533v57l172 62v530h-178v92z" />
    <glyph glyph-name="thorn.sc" unicode="&#xee4c;" horiz-adv-x="968" 
d="M940 618q0 -140 -112.5 -227.5t-292.5 -87.5h-103v-194l174 -62v-47h-516v47l154 62v829l-174 61v48h518v-48l-156 -61v-25h109q66 0 120 -7t107.5 -27t90 -52t59 -85.5t22.5 -123.5zM741 610q0 117 -50 168t-159 51h-100v-444h66q126 0 184.5 53t58.5 172z" />
    <glyph glyph-name="ugrave.sc" unicode="&#xee56;" horiz-adv-x="1286" 
d="M1225 989l-162 -61v-572q0 -106 -28.5 -180t-85.5 -116.5t-131.5 -61t-176.5 -18.5q-218 0 -318 80t-100 255v625l-164 49v58h506v-58l-155 -61v-600q0 -265 264 -265q134 0 196 63t62 193v609l-158 61v58h451v-58zM811 1180h-102l-400 301h285z" />
    <glyph glyph-name="uacute.sc" unicode="&#xee60;" horiz-adv-x="1286" 
d="M1225 989l-162 -61v-572q0 -106 -28.5 -180t-85.5 -116.5t-131.5 -61t-176.5 -18.5q-218 0 -318 80t-100 255v625l-164 49v58h506v-58l-155 -61v-600q0 -265 264 -265q134 0 196 63t62 193v609l-158 61v58h451v-58zM950 1481l-397 -301h-104l215 301h286z" />
    <glyph glyph-name="ucircumflex.sc" unicode="&#xee6a;" horiz-adv-x="1286" 
d="M1225 989l-162 -61v-572q0 -106 -28.5 -180t-85.5 -116.5t-131.5 -61t-176.5 -18.5q-218 0 -318 80t-100 255v625l-164 49v58h506v-58l-155 -61v-600q0 -265 264 -265q134 0 196 63t62 193v609l-158 61v58h451v-58zM985 1180h-127l-211 133l-205 -133h-129l334 325z" />
    <glyph glyph-name="utilde.sc" unicode="&#xee74;" horiz-adv-x="1286" 
d="M1225 989l-162 -61v-572q0 -106 -28.5 -180t-85.5 -116.5t-131.5 -61t-176.5 -18.5q-218 0 -318 80t-100 255v625l-164 49v58h506v-58l-155 -61v-600q0 -265 264 -265q134 0 196 63t62 193v609l-158 61v58h451v-58zM1028 1421q-96 -133 -141 -166q-35 -28 -76 -28
q-35 0 -86 28l-145 76q-42 21 -58 21q-30 0 -143 -107l-45 45q4 5 24.5 32t30.5 39.5t27.5 34t31.5 36t27 24.5q39 29 76 29q35 0 88 -29l145 -76q36 -20 58 -20q18 0 46.5 21.5t96.5 84.5z" />
    <glyph glyph-name="udieresis.sc" unicode="&#xee7e;" horiz-adv-x="1286" 
d="M1225 989l-162 -61v-572q0 -106 -28.5 -180t-85.5 -116.5t-131.5 -61t-176.5 -18.5q-218 0 -318 80t-100 255v625l-164 49v58h506v-58l-155 -61v-600q0 -265 264 -265q134 0 196 63t62 193v609l-158 61v58h451v-58zM942 1325q0 -104 -98 -104q-47 0 -73 25t-26 69
q0 104 97 104q49 0 74.5 -24.5t25.5 -69.5zM582 1319q0 -47 -26 -72.5t-75 -25.5q-98 0 -98 92q0 51 25.5 78.5t72.5 27.5t74 -26.5t27 -73.5z" />
    <glyph glyph-name="umacron.sc" unicode="&#xee88;" horiz-adv-x="1286" 
d="M1225 989l-162 -61v-572q0 -106 -28.5 -180t-85.5 -116.5t-131.5 -61t-176.5 -18.5q-218 0 -318 80t-100 255v625l-164 49v58h506v-58l-155 -61v-600q0 -265 264 -265q134 0 196 63t62 193v609l-158 61v58h451v-58zM940 1264h-539v122h539v-122z" />
    <glyph glyph-name="ubreve.sc" unicode="&#xee92;" horiz-adv-x="1286" 
d="M1225 989l-162 -61v-572q0 -106 -28.5 -180t-85.5 -116.5t-131.5 -61t-176.5 -18.5q-218 0 -318 80t-100 255v625l-164 49v58h506v-58l-155 -61v-600q0 -265 264 -265q134 0 196 63t62 193v609l-158 61v58h451v-58zM1010 1417q-52 -67 -113 -121q-64 -55 -113.5 -75.5
t-113.5 -20.5q-87 0 -169 52.5t-169 164.5l51 43q106 -76 163 -100.5t122 -24.5q122 0 288 125z" />
    <glyph glyph-name="uring.sc" unicode="&#xee9c;" horiz-adv-x="1286" 
d="M1225 989l-162 -61v-572q0 -106 -28.5 -180t-85.5 -116.5t-131.5 -61t-176.5 -18.5q-218 0 -318 80t-100 255v625l-164 49v58h506v-58l-155 -61v-600q0 -265 264 -265q134 0 196 63t62 193v609l-158 61v58h451v-58zM911 1341q0 -79 -57 -120t-166 -41t-166 41t-57 120
q0 158 223 158q109 0 166 -40.5t57 -117.5zM815 1341q0 43 -36 71t-93 28q-55 0 -90 -29t-35 -72q0 -45 35.5 -72.5t93.5 -27.5t91.5 28t33.5 74z" />
    <glyph glyph-name="uhungarumlaut.sc" unicode="&#xeea6;" horiz-adv-x="1286" 
d="M1225 989l-162 -61v-572q0 -106 -28.5 -180t-85.5 -116.5t-131.5 -61t-176.5 -18.5q-218 0 -318 80t-100 255v625l-164 49v58h506v-58l-155 -61v-600q0 -265 264 -265q134 0 196 63t62 193v609l-158 61v58h451v-58zM1092 1458l-236 -278h-80l137 278h179zM797 1458
l-238 -278h-76l138 278h176z" />
    <glyph glyph-name="uogonek.sc" unicode="&#xeeb0;" horiz-adv-x="1286" 
d="M1225 989l-162 -61v-572q0 -156 -62 -241.5t-182 -114.5q-110 -69 -110 -174q0 -60 35.5 -94.5t111.5 -46.5l-12 -66q-137 6 -204 51.5t-67 134.5q0 67 39.5 113.5t114.5 61.5v4q-58 -4 -86 -4q-218 0 -318 80t-100 255v625l-164 49v58h506v-58l-155 -61v-600
q0 -265 264 -265q134 0 196 63t62 193v609l-158 61v58h451v-58z" />
    <glyph glyph-name="wacute.sc" unicode="&#xeeba;" horiz-adv-x="1695" 
d="M1696 989l-129 -61l-361 -938h-98l-264 766l-289 -766h-102l-320 938l-133 61v58h453v-58l-123 -61l221 -672l297 791h82l280 -801l226 682l-133 61v58h393v-58zM1155 1481l-397 -301h-105l217 301h285z" />
    <glyph glyph-name="wcircumflex.sc" unicode="&#xeec4;" horiz-adv-x="1695" 
d="M1696 989l-129 -61l-361 -938h-98l-264 766l-289 -766h-102l-320 938l-133 61v58h453v-58l-123 -61l221 -672l297 791h82l280 -801l226 682l-133 61v58h393v-58zM1217 1180h-130l-210 133l-205 -133h-127l332 325z" />
    <glyph glyph-name="wdieresis.sc" unicode="&#xeece;" horiz-adv-x="1695" 
d="M1696 989l-129 -61l-361 -938h-98l-264 766l-289 -766h-102l-320 938l-133 61v58h453v-58l-123 -61l221 -672l297 791h82l280 -801l226 682l-133 61v58h393v-58zM1159 1325q0 -104 -98 -104q-47 0 -72.5 24.5t-25.5 69.5q0 104 96 104q49 0 74.5 -24.5t25.5 -69.5z
M799 1319q0 -47 -26 -72.5t-75 -25.5q-98 0 -98 92q0 51 25.5 78.5t72.5 27.5t74 -26.5t27 -73.5z" />
    <glyph glyph-name="wgrave.sc" unicode="&#xeed8;" horiz-adv-x="1695" 
d="M1696 989l-129 -61l-361 -938h-98l-264 766l-289 -766h-102l-320 938l-133 61v58h453v-58l-123 -61l221 -672l297 791h82l280 -801l226 682l-133 61v58h393v-58zM1016 1180h-103l-399 301h287z" />
    <glyph glyph-name="yacute.sc" unicode="&#xeee2;" horiz-adv-x="1026" 
d="M1047 993l-127 -53l-302 -418v-403l175 -62v-57h-535v57l174 62v362l-299 459l-133 53v54h455v-56l-109 -51l225 -348l217 348l-106 51v56h365v-54zM899 1481l-397 -301h-107l217 301h287z" />
    <glyph glyph-name="ycircumflex.sc" unicode="&#xeeec;" horiz-adv-x="1046" 
d="M1047 993l-127 -53l-302 -418v-403l175 -62v-57h-535v57l174 62v362l-299 459l-133 53v54h455v-56l-109 -51l225 -348l217 348l-106 51v56h365v-54zM905 1180h-127l-211 133l-205 -133h-126l331 325z" />
    <glyph glyph-name="ydieresis.sc" unicode="&#xeef6;" horiz-adv-x="1046" 
d="M1047 993l-127 -53l-302 -418v-403l175 -62v-57h-535v57l174 62v362l-299 459l-133 53v54h455v-56l-109 -51l225 -348l217 348l-106 51v56h365v-54zM840 1325q0 -104 -101 -104q-47 0 -71.5 24.5t-24.5 69.5q0 104 94 104q49 0 76 -25t27 -69zM477 1319q0 -98 -98 -98
t-98 92q0 106 98 106q47 0 72.5 -26.5t25.5 -73.5z" />
    <glyph glyph-name="ygrave.sc" unicode="&#xef00;" horiz-adv-x="1046" 
d="M1047 993l-127 -53l-302 -418v-403l175 -62v-57h-535v57l174 62v362l-299 459l-133 53v54h455v-56l-109 -51l225 -348l217 348l-106 51v56h365v-54zM692 1180h-102l-402 301h287z" />
    <glyph glyph-name="zacute.sc" unicode="&#xef0a;" horiz-adv-x="993" 
d="M903 295l-26 -295h-787v72l567 880h-381l-79 -178h-66v273h770v-62l-579 -881h409l109 191h63zM831 1481l-397 -301h-106l217 301h286z" />
    <glyph glyph-name="zcaron.sc" unicode="&#xef14;" horiz-adv-x="987" 
d="M903 295l-26 -295h-787v72l567 880h-381l-79 -178h-66v273h770v-62l-579 -881h409l109 191h63zM856 1466l-334 -325l-338 325h129l209 -133l207 133h127z" />
    <glyph glyph-name="zdotaccent.sc" unicode="&#xef1e;" horiz-adv-x="993" 
d="M903 295l-26 -295h-787v72l567 880h-381l-79 -178h-66v273h770v-62l-579 -881h409l109 191h63zM625 1319q0 -98 -101 -98q-96 0 -96 92q0 106 96 106q49 0 75 -26t26 -74z" />
    <glyph glyph-name="exclam.sc" unicode="&#xef32;" horiz-adv-x="516" 
d="M391 1047l-90 -707h-82l-94 707h266zM383 100q0 -110 -121 -110q-129 0 -129 108q0 111 129 111q121 0 121 -109z" />
    <glyph glyph-name="ampersand.sc" unicode="&#xef3a;" horiz-adv-x="1157" 
d="M514 80q114 0 178 39l-346 379q-52 -48 -75 -91.5t-23 -105.5q0 -100 72 -160.5t194 -60.5zM584 868q0 54 -34.5 90.5t-90.5 36.5q-61 0 -98 -36t-37 -91q0 -99 100 -202l33 -35q55 45 75 76q52 71 52 161zM741 862q0 -89 -67 -166t-174 -112l313 -346q47 78 47 213v86
l-125 51v43h383v-43l-131 -51v-56q0 -110 -22 -179.5t-84 -137.5l61 -66l119 -57v-41h-264l-47 55q-69 -37 -135 -50t-156 -13q-179 0 -287.5 80t-108.5 213q0 84 55.5 148.5t176.5 121.5l-74 88q-57 76 -57 178q0 114 80.5 182t224.5 68q130 0 201 -56.5t71 -152.5z" />
    <glyph glyph-name="question.sc" unicode="&#xef82;" horiz-adv-x="847" 
d="M514 102q0 -112 -131 -112q-62 0 -95.5 28t-33.5 82q0 107 131 107q129 0 129 -105zM231 963l-94 -232h-76v289l146 24q164 25 203 25q167 0 274 -69.5t107 -186.5q0 -76 -34 -131.5t-126 -114.5l-135 -88q-38 -25 -46.5 -40.5t-12.5 -55.5v-4t-0.5 -3.5t-0.5 -4.5
l-4 -52h-92q-12 70 -12 97q0 22 2 34.5t14 33.5t37 40l102 82q55 44 77 87t22 102q0 82 -67 130t-165 48q-61 0 -119 -10z" />
    <glyph glyph-name="exclamdown.sc" unicode="&#xefc2;" horiz-adv-x="516" 
d="M123 0l92 707h82l92 -707h-266zM133 946q0 111 119 111q131 0 131 -109q0 -110 -131 -110q-61 0 -90 26t-29 82z" />
    <glyph glyph-name="questiondown.sc" unicode="&#xefc6;" horiz-adv-x="847" 
d="M334 944q0 113 129 113q63 0 96 -28.5t33 -82.5t-32 -80t-99 -26q-127 0 -127 104zM616 84l95 231h75v-288l-145 -25q-164 -25 -203 -25q-167 0 -274 69.5t-107 186.5q0 76 34 131.5t126 114.5l135 88q38 24 46.5 40t12.5 57q1 8 1 12l4 51h92q12 -70 12 -96
q0 -22 -2 -35t-14 -34t-37 -40l-102 -82q-55 -44 -77 -86.5t-22 -101.5q0 -82 67 -130t165 -48q60 0 118 10z" />
    <glyph glyph-name="zero.tab" unicode="&#xf053;" 
d="M1014 666q0 -325 -127.5 -512t-349.5 -187q-104 0 -185.5 43t-131.5 110.5t-82 160t-44 182t-12 186.5q0 326 129.5 512.5t357.5 186.5q207 0 326 -182.5t119 -499.5zM799 657v62t-2.5 74t-6 86t-12 85.5t-20 86t-30.5 74t-42 63t-56.5 39.5t-72.5 16q-42 0 -77 -16
t-60 -40t-45 -64.5t-32.5 -75.5t-21.5 -88t-13 -88.5t-6.5 -89.5t-2.5 -77.5v-66.5q0 -288 59 -426.5t179 -138.5q262 0 262 585z" />
    <glyph glyph-name="zero.onum" unicode="&#xf055;" 
d="M1014 512q0 -246 -131.5 -393.5t-343.5 -147.5q-210 0 -333.5 138.5t-123.5 377.5t127.5 389t345.5 150q209 0 334 -138.5t125 -375.5zM807 477q0 457 -272 457q-115 0 -180.5 -114.5t-65.5 -317.5q0 -201 70.5 -318.5t199.5 -117.5q113 0 180.5 110.5t67.5 300.5z" />
    <glyph glyph-name="zero.onumprop" unicode="&#xf056;" horiz-adv-x="1091" 
d="M1012 512q0 -246 -131.5 -393.5t-343.5 -147.5q-210 0 -333.5 138.5t-123.5 377.5t127.5 389t345.5 150q209 0 334 -138.5t125 -375.5zM805 477q0 457 -273 457q-114 0 -179.5 -114.5t-65.5 -317.5q0 -201 70.5 -318.5t199.5 -117.5q113 0 180.5 110.5t67.5 300.5z" />
    <glyph glyph-name="zero.sc" unicode="&#xf057;" horiz-adv-x="1067" 
d="M991 537q0 -255 -130.5 -406t-338.5 -151q-205 0 -325.5 141.5t-120.5 390.5q0 247 125 402t338 155q205 0 328.5 -142t123.5 -390zM791 502q0 475 -271 475q-114 0 -180 -118.5t-66 -332.5q0 -212 72 -333t197 -121q112 0 180 115.5t68 314.5z" />
    <glyph glyph-name="one.tab" unicode="&#xf05d;" 
d="M913 0h-632v51l217 74v977l-363 -70v62q166 50 303 120q82 40 195 123h61v-1212l219 -74v-51z" />
    <glyph glyph-name="one.onum" unicode="&#xf05f;" 
d="M934 0h-635v51l217 72v663l-362 -71v59q123 38 270 109.5t227 142.5h62v-903l221 -72v-51z" />
    <glyph glyph-name="one.onumprop" unicode="&#xf060;" horiz-adv-x="870" 
d="M819 0h-635v51l217 72v663l-362 -71v59q125 38 272.5 109.5t225.5 142.5h61v-903l221 -72v-51z" />
    <glyph glyph-name="one.sc" unicode="&#xf061;" horiz-adv-x="845" 
d="M797 0h-619v49l211 70v694l-352 -70v60q121 37 264.5 106t220.5 138h60v-928l215 -70v-49z" />
    <glyph glyph-name="two.tab" unicode="&#xf068;" 
d="M967 373l-27 -373h-868v74q49 53 225 229q214 214 311 367q97 155 97 291q0 134 -74 208t-207 74q-60 0 -131 -14l-86 -244h-76v291q72 17 131 29q143 32 244 32q186 0 301 -95.5t115 -250.5q0 -129 -62.5 -232t-263.5 -304q-129 -132 -307 -289h495l103 207h80z" />
    <glyph glyph-name="two.onum" unicode="&#xf06a;" 
d="M961 352l-29 -352h-809v74q224 165 373 311q176 182 176 332q0 98 -62.5 154.5t-167.5 56.5q-43 0 -98 -8l-96 -246h-74v289q76 20 113 30q149 33 235 33q157 0 262 -83.5t105 -209.5q0 -99 -62 -184.5t-231 -214.5q-151 -118 -256 -189h442l107 207h72z" />
    <glyph glyph-name="two.onumprop" unicode="&#xf06b;" horiz-adv-x="1026" 
d="M928 352l-31 -352h-807v74q235 175 371 311q178 181 178 332q0 98 -63 154.5t-168 56.5q-42 0 -97 -8l-96 -246h-74v289q76 20 111 30q148 33 237 33q157 0 262 -83.5t105 -209.5q0 -99 -62 -184.5t-231 -214.5q-164 -126 -256 -189h441l108 207h72z" />
    <glyph glyph-name="two.sc" unicode="&#xf06c;" horiz-adv-x="989" 
d="M825 768q0 -116 -60.5 -208.5t-227.5 -227.5q-170 -141 -242 -191h426l104 199h72l-31 -340h-782v70q138 110 211.5 174.5t146.5 140.5q89 98 130.5 185t41.5 180q0 106 -61 164.5t-160 58.5q-33 0 -92 -6l-96 -240h-72v285q104 25 109 26q136 31 231 31q154 0 253 -83.5
t99 -217.5z" />
    <glyph glyph-name="three.tab" unicode="&#xf073;" 
d="M997 373q0 -173 -144.5 -278t-383.5 -105q-91 0 -186 22q-36 8 -75.5 19t-61.5 19l-21 7v295h74l100 -250q52 -8 125 -8q55 0 104 8.5t96 29t81 51.5t54.5 79t20.5 109q0 124 -80 198t-215 74h-69v92h84q93 0 165 70t72 194q0 117 -67 178.5t-197 61.5q-95 0 -160 -10
l-94 -244h-74v289q68 17 140 31q157 32 254 32q194 0 304.5 -82t110.5 -225q0 -123 -87.5 -211.5t-243.5 -122.5q48 -3 96.5 -14t99.5 -35.5t89.5 -59.5t63.5 -90.5t25 -123.5z" />
    <glyph glyph-name="three.onum" unicode="&#xf075;" 
d="M993 61q0 -173 -144 -276.5t-384 -103.5q-89 0 -186 20q-36 8 -75.5 19.5t-61.5 19.5l-21 8v293h74l100 -250q52 -8 125 -8q69 0 129.5 14.5t113 45t83 86t30.5 130.5q0 126 -80 199.5t-215 73.5h-69v94h84q93 0 165 70t72 192q0 119 -67 180.5t-197 61.5q-96 0 -158 -10
l-96 -246h-74v289q68 18 140 32q166 31 254 31q195 0 305 -81t110 -224q0 -124 -87.5 -212.5t-244.5 -123.5q48 -2 96.5 -13t100 -35.5t90 -60t63.5 -91.5t25 -124z" />
    <glyph glyph-name="three.onumprop" unicode="&#xf076;" horiz-adv-x="1050" 
d="M971 61q0 -173 -144.5 -276.5t-382.5 -103.5q-90 0 -188 20q-36 8 -75 19.5t-60 19.5l-21 8v293h74l98 -250q55 -8 125 -8t130.5 14.5t113 45t83 86t30.5 130.5q0 126 -79.5 199.5t-215.5 73.5h-70v94h84q44 0 86 17t77 48.5t56 82.5t21 114q0 118 -67.5 180t-196.5 62
q-98 0 -160 -10l-96 -246h-74v289q67 18 139 32q168 31 256 31q194 0 305 -81.5t111 -223.5q0 -124 -88.5 -212.5t-245.5 -123.5q48 -2 96.5 -13t100 -35.5t90 -60t63.5 -91.5t25 -124z" />
    <glyph glyph-name="three.sc" unicode="&#xf077;" horiz-adv-x="980" 
d="M131 731v281q63 16 133 30q150 27 234 27q163 0 260.5 -66.5t97.5 -181.5q0 -99 -79.5 -169.5t-221.5 -98.5q57 -3 111 -16.5t107.5 -41t86.5 -79.5t33 -121q0 -141 -129 -228t-330 -87h-16q-158 6 -307 59v285h71l99 -238q30 -6 106 -6q53 0 102.5 11t94.5 34.5t72.5 67
t27.5 102.5q0 95 -69 152t-175 57h-51v88h64q68 0 131 54t63 145q0 89 -58 136.5t-157 47.5q-95 0 -135 -8l-94 -236h-72z" />
    <glyph glyph-name="four.tab" unicode="&#xf07e;" 
d="M1028 403h-197v-280l179 -70v-53h-531v53l178 70v280h-643v68l734 866h83v-798h197v-136zM657 539v534l-452 -534h452z" />
    <glyph glyph-name="four.onum" unicode="&#xf080;" 
d="M1055 0h-197v-311h-176v311h-643v68l735 958h84v-891h197v-135zM682 135v627l-461 -627h461z" />
    <glyph glyph-name="four.onumprop" unicode="&#xf081;" horiz-adv-x="1075" 
d="M1044 0h-196v-311h-176v311h-641v68l733 958h84v-891h196v-135zM672 135v627l-461 -627h461z" />
    <glyph glyph-name="four.sc" unicode="&#xf082;" horiz-adv-x="1005" 
d="M963 225h-195v-106l174 -68v-51h-526v51l176 68v106h-582v56l670 766h88v-699h195v-123zM592 348v443l-383 -443h383z" />
    <glyph glyph-name="five.tab" unicode="&#xf088;" 
d="M979 461q0 -209 -143 -340t-369 -131q-73 0 -178 22q-24 4 -64 15.5t-68 20.5l-28 9v295h72l102 -248q82 -10 129 -10q157 0 248.5 87.5t91.5 238.5t-97.5 232t-279.5 81q-129 0 -229 -31v613h772v-176h-659v-305q78 22 121.5 29t97.5 7q224 0 352.5 -109t128.5 -300z
" />
    <glyph glyph-name="five.onum" unicode="&#xf08a;" 
d="M977 152q0 -209 -143 -340t-369 -131q-83 0 -178 20q-24 4 -64 16t-68 21l-28 10v293h72l102 -248q82 -10 129 -10q157 0 248.5 87.5t91.5 238.5q0 152 -97.5 233.5t-279.5 81.5q-123 0 -229 -33v615h772v-179h-660v-305q79 22 123 29.5t97 7.5q224 0 352.5 -109
t128.5 -298z" />
    <glyph glyph-name="five.onumprop" unicode="&#xf08b;" horiz-adv-x="1058" 
d="M958 152q0 -209 -142 -340t-367 -131q-86 0 -181 20q-24 4 -63.5 16t-67.5 21l-28 10v293h71l103 -248q82 -10 129 -10q157 0 248.5 87.5t91.5 238.5q0 152 -97.5 233.5t-277.5 81.5q-126 0 -232 -33v615h773v-179h-660v-305q79 22 122.5 29.5t96.5 7.5q224 0 352.5 -109
t128.5 -298z" />
    <glyph glyph-name="five.sc" unicode="&#xf08c;" horiz-adv-x="987" 
d="M373 532q-118 0 -230 -28v543h699v-164h-590v-262q72 22 114.5 28t100.5 6q188 0 302 -84t114 -227q0 -158 -127.5 -261t-315.5 -103q-100 0 -315 59v274h72l98 -225q60 -6 108 -6q122 0 200.5 63t78.5 166q0 108 -83.5 164.5t-225.5 56.5z" />
    <glyph glyph-name="six.tab" unicode="&#xf092;" 
d="M1018 406q0 -197 -124 -318t-325 -121q-232 0 -357.5 152.5t-125.5 433.5q0 358 186 571t498 213q142 0 240 -32l-13 -80q-52 8 -102 8q-333 0 -487 -207q-45 -60 -66.5 -126.5t-28.5 -168.5q161 68 308 68q182 0 289.5 -106.5t107.5 -286.5zM811 383q0 145 -74 223
t-211 78q-33 0 -88 -8t-94 -16l-39 -7q-2 -42 -2 -69q0 -42 0.5 -68t3 -73t7 -78.5t13.5 -75t22 -73t33.5 -61t46.5 -50.5t61.5 -31.5t78.5 -12.5q114 0 178 85t64 237z" />
    </font>
</defs>
</svg>
