<?xml version="1.0" standalone="no"?>
<!DOCTYPE svg PUBLIC "-//W3C//DTD SVG 1.1//EN" "http://www.w3.org/Graphics/SVG/1.1/DTD/svg11.dtd" >
<svg xmlns="http://www.w3.org/2000/svg" xmlns:xlink="http://www.w3.org/1999/xlink" version="1.1">
<metadata>
Created by FontForge 20170731 at Mon Jan  4 12:02:38 2021
 By Aleksey,,,
Copyright 2019 - 2020 Production Systems SAS - All rights reserved - End-User License Agreement:  http://www.productiontype.com/license
</metadata>
<defs>
<font id="TesseractDisplay-Regular" horiz-adv-x="321" >
  <font-face 
    font-family="Tesseract Display"
    font-weight="400"
    font-stretch="normal"
    units-per-em="2048"
    panose-1="2 0 0 0 0 0 0 0 0 0"
    ascent="1669"
    descent="-379"
    x-height="1098"
    cap-height="1481"
    bbox="-242 -379 2320 1645"
    underline-thickness="49"
    underline-position="-165"
    unicode-range="U+0020-201D"
  />
<missing-glyph horiz-adv-x="923" 
 />
    <glyph glyph-name=".notdef" horiz-adv-x="923" 
 />
    <glyph glyph-name=".null" horiz-adv-x="0" 
 />
    <glyph glyph-name="nonmarkingreturn" horiz-adv-x="682" 
 />
    <glyph glyph-name="space" unicode=" " horiz-adv-x="520" 
 />
    <glyph glyph-name="exclam" unicode="!" horiz-adv-x="507" 
d="M268 461h-28q-1 162 -24.5 318.5t-52 250t-52 168.5t-23.5 96q0 86 46.5 144.5t119.5 58.5t119.5 -58.5t46.5 -144.5q0 -21 -23 -96t-51.5 -168.5t-52.5 -250t-25 -318.5zM254 319q73 0 120.5 -49t47.5 -123t-47.5 -122t-120.5 -48t-120.5 48t-47.5 122t47.5 123
t120.5 49z" />
    <glyph glyph-name="quotedbl" unicode="&#x22;" horiz-adv-x="743" 
d="M186 938q-1 92 -27 195.5t-51.5 173.5t-25.5 82q0 43 34.5 75.5t86.5 32.5q51 0 85 -32.5t34 -75.5q0 -12 -25.5 -82t-51 -173.5t-26.5 -195.5h-33zM526 938q-1 92 -27 195.5t-51.5 173.5t-25.5 82q0 43 34.5 75.5t86.5 32.5q51 0 85 -32.5t34 -75.5q0 -12 -25.5 -82
t-51 -173.5t-26.5 -195.5h-33z" />
    <glyph glyph-name="ampersand" unicode="&#x26;" horiz-adv-x="1755" 
d="M555 -23q-133 0 -238 45t-167 135t-62 212q0 157 100.5 272.5t274.5 181.5q-117 151 -117 316q0 160 113.5 259t283.5 99q83 0 155 -29t119.5 -89.5t47.5 -141.5q0 -62 -27 -114t-77.5 -91t-108 -67t-131.5 -52l457 -477q108 153 204 406q21 56 29.5 91.5t6 66
t-21.5 48.5t-57 27l-94 27v20q18 0 101.5 -3t130.5 -3q48 0 130.5 3t100.5 3v-20l-96 -27q-68 -19 -102 -60.5t-93 -178.5q-126 -289 -211 -428l17 -19q10 -11 40 -42.5l40 -42t35.5 -35t38 -33.5t35.5 -24.5t40.5 -21.5t40.5 -11t47 -5q94 0 172 41l6 -10
q-65 -110 -140.5 -169t-180.5 -59q-50 0 -94.5 14.5t-89.5 47.5t-81.5 67t-89.5 91q-220 -220 -487 -220zM694 942l6 -6q102 41 161 119.5t59 187.5q0 99 -47 162t-136 63t-137.5 -63t-48.5 -160q0 -148 143 -303zM342 485q0 -163 99.5 -260.5t263.5 -97.5t299 113l-480 510
q-4 5 -12 13.5t-14.5 16t-10.5 13.5q-145 -112 -145 -308z" />
    <glyph glyph-name="quotesingle" unicode="'" horiz-adv-x="403" 
d="M186 938q-1 92 -27 195.5t-51.5 173.5t-25.5 82q0 43 34.5 75.5t86.5 32.5q51 0 85 -32.5t34 -75.5q0 -12 -25.5 -82t-51 -173.5t-26.5 -195.5h-33z" />
    <glyph glyph-name="parenleft" unicode="(" horiz-adv-x="614" 
d="M74 684q0 113 22 209.5t58.5 173.5t102.5 158.5t135 148.5t175 158l19 -23q-80 -67 -133.5 -134t-97.5 -162.5t-64.5 -225.5t-20.5 -303t20.5 -303t64.5 -225.5t97.5 -162.5t133.5 -134l-19 -23q-106 91 -175 158t-135 148.5t-102.5 158.5t-58.5 173.5t-22 209.5z" />
    <glyph glyph-name="parenright" unicode=")" horiz-adv-x="614" 
d="M541 684q0 -113 -22 -209.5t-58.5 -173.5t-103 -159t-135.5 -148.5t-175 -157.5l-18 23q80 67 133.5 134t97 162.5t64 225.5t20.5 303t-20.5 303t-64 225.5t-97 162.5t-133.5 134l18 23q106 -91 175 -157.5t135.5 -148.5t103 -159t58.5 -173.5t22 -209.5z" />
    <glyph glyph-name="plus" unicode="+" horiz-adv-x="1228" 
d="M193 582v49h395v397h53v-397h395v-49h-395v-398h-53v398h-395z" />
    <glyph glyph-name="comma" unicode="," horiz-adv-x="487" 
d="M227 -66q0 39 -24 73t-52.5 54t-52.5 41.5t-24 38.5q0 77 47 130t121 53q73 0 121.5 -48.5t48.5 -142.5q0 -77 -23.5 -143t-72 -123.5t-98.5 -100.5t-126 -98l-16 23q87 67 119 126t32 117z" />
    <glyph glyph-name="hyphen" unicode="-" horiz-adv-x="716" 
d="M608 487h-499v115h499v-115z" />
    <glyph glyph-name="period" unicode="." horiz-adv-x="487" 
d="M244 319q73 0 120.5 -49t47.5 -123t-47.5 -122t-120.5 -48t-120.5 48t-47.5 122t47.5 123t120.5 49z" />
    <glyph glyph-name="slash" unicode="/" horiz-adv-x="665" 
d="M645 1475l-571 -1475h-54l572 1475h53z" />
    <glyph glyph-name="zero" unicode="0" horiz-adv-x="1269" 
d="M633 1497q123 0 226 -50t178.5 -144t118 -239.5t42.5 -326.5q0 -148 -34.5 -275t-92 -214.5t-131 -150t-150.5 -91.5t-153 -29q-253 0 -409 199.5t-156 560.5q0 148 34.5 275t92 214.5t131 150t150.5 91.5t153 29zM356 874q0 -158 21.5 -310t61 -275.5t102 -199
t137.5 -75.5q107 0 171 147t64 439q0 159 -21.5 310.5t-61 275t-101.5 199t-137 75.5q-108 0 -172 -146.5t-64 -439.5z" />
    <glyph glyph-name="one" unicode="1" horiz-adv-x="849" 
d="M309 1176q0 47 -23 63.5t-85 9.5l-207 -28l-4 14l588 256l20 -14v-1338q0 -45 13 -65t48 -29l117 -31v-20q-252 6 -323 6q-70 0 -322 -6v20l117 31q35 9 48 29t13 65v1037z" />
    <glyph glyph-name="two" unicode="2" horiz-adv-x="1091" 
d="M950 0h-905v27q41 44 102 107.5t100.5 104.5t92 99t87.5 100t77 98t69 102.5t54.5 104t43 111.5t25 116.5t9.5 127.5q0 171 -60.5 267.5t-183.5 96.5q-85 0 -174.5 -45.5t-204.5 -134.5v119q225 96 420 96q235 0 368.5 -102t133.5 -291q0 -60 -17 -119.5t-43 -111
t-74 -111t-94 -107t-120 -112.5t-134 -114t-153 -124q-37 -30 -56 -45l394 8q58 1 94.5 4.5t69.5 13.5t51.5 24.5t36.5 43t30 63t27 89.5h28q-23 -111 -37.5 -188.5t-31 -171.5t-25.5 -146z" />
    <glyph glyph-name="three" unicode="3" horiz-adv-x="1091" 
d="M664 1165q0 137 -68.5 217t-192.5 80q-83 0 -156.5 -45.5t-170.5 -148.5v135q86 33 131 48.5t123.5 30.5t161.5 15q125 0 226.5 -33t165.5 -102t64 -164q0 -113 -92 -203.5t-256 -140.5q188 -21 301 -127.5t113 -273.5q0 -92 -37.5 -175.5t-108.5 -151.5t-188 -108.5
t-264 -40.5q-185 0 -359 54v139q176 -158 338 -158q158 0 248 110t90 277q0 158 -76.5 246t-232.5 94q-82 0 -176 -20l-6 20q225 76 323.5 177t98.5 249z" />
    <glyph glyph-name="four" unicode="4" horiz-adv-x="1179" 
d="M922 0h-291v410h-600v41l841 1024h50v-918h249l-28 -147h-221v-410zM168 557h463v571z" />
    <glyph glyph-name="five" unicode="5" horiz-adv-x="1019" 
d="M229 1475h705l-45 -242h-670l-29 -139l285 -101q216 -77 330.5 -198.5t114.5 -300.5q0 -161 -104 -278.5t-295 -178.5t-447 -60v31h53q143 0 257 33.5t183 89.5t105.5 125t36.5 145q0 218 -306 328l-305 109z" />
    <glyph glyph-name="six" unicode="6" horiz-adv-x="1167" 
d="M1122 453q0 -202 -141.5 -339t-362.5 -137q-258 0 -400 164.5t-142 462.5q0 380 254 620.5t698 272.5l2 -24q-313 -60 -474.5 -242.5t-184.5 -505.5q166 149 342 149q110 0 202 -50t149.5 -147.5t57.5 -223.5zM618 23q107 0 162.5 92.5t55.5 275.5q0 190 -69 283.5
t-192 93.5q-77 0 -206 -70q-2 -29 -2 -90q0 -299 66.5 -442t184.5 -143z" />
    <glyph glyph-name="seven" unicode="7" horiz-adv-x="1017" 
d="M371 0h-138l623 1206h-790l63 269h868l15 -21z" />
    <glyph glyph-name="eight" unicode="8" horiz-adv-x="1148" 
d="M1085 401q0 -186 -146.5 -303.5t-387.5 -117.5q-218 0 -353 94.5t-135 232.5q0 119 91.5 214.5t255.5 162.5q-71 39 -122 76t-98.5 87.5t-72.5 115t-25 141.5q0 172 132.5 282.5t344.5 110.5q192 0 323.5 -88.5t131.5 -222.5q0 -111 -90 -195t-240 -137q71 -37 117 -64
t103.5 -71t90.5 -86.5t56.5 -103t23.5 -128.5zM301 1227q0 -28 7 -55t16.5 -49t30.5 -45.5t36 -39.5t47.5 -38.5t50 -34t58 -33.5t58.5 -31.5t63 -32.5q74 48 111.5 126t37.5 171q0 152 -67 225.5t-177 73.5q-119 0 -195.5 -65t-76.5 -172zM274 311q0 -145 75 -222t204 -77
q136 0 222.5 68.5t86.5 181.5q0 30 -6.5 58.5t-17 51.5t-29 47t-35.5 41.5t-45.5 38.5t-49.5 35t-56 34t-57 32t-61.5 32t-60.5 32q-83 -57 -126.5 -148.5t-43.5 -204.5z" />
    <glyph glyph-name="nine" unicode="9" horiz-adv-x="1167" 
d="M1092 870q0 -251 -113.5 -445t-329 -310.5t-510.5 -137.5l-2 25q313 60 475 242.5t185 505.5q-167 -150 -342 -150q-109 0 -202 50.5t-150.5 148t-57.5 223.5q0 202 141.5 338.5t362.5 136.5q258 0 400.5 -164.5t142.5 -462.5zM549 1452q-106 0 -161.5 -93t-55.5 -276
q0 -190 68.5 -283t191.5 -93q80 0 207 69q2 29 2 90q0 299 -67 442.5t-185 143.5z" />
    <glyph glyph-name="question" unicode="?" horiz-adv-x="1079" 
d="M954 1165q0 -109 -55 -189.5t-168 -150.5l-176 -112l-57 -244h-21l-69 416l176 121q103 68 148.5 129.5t45.5 142.5q0 85 -58 140t-155 55q-107 0 -186 -61.5t-154 -217.5h-178q138 173 262.5 238t263.5 65q165 0 273 -93t108 -239zM494 289q68 0 112.5 -43.5
t44.5 -112.5q0 -67 -44.5 -111.5t-112.5 -44.5q-67 0 -110.5 44t-43.5 112q0 69 43 112.5t111 43.5z" />
    <glyph glyph-name="A" unicode="A" horiz-adv-x="1662" 
d="M1081 227l-127 287h-520l-102 -254q-34 -85 -42.5 -126t6 -62t58.5 -31l119 -27v-20q-42 1 -125 3.5t-145 2.5q-44 0 -103.5 -2.5t-89.5 -3.5v20l113 29q43 11 76.5 54.5t81.5 158.5l510 1249h26l567 -1249q52 -114 84 -157.5t72 -55.5l113 -29v-20q-49 1 -161 3.5
t-183 2.5q-79 0 -198.5 -2.5t-178.5 -3.5v20l125 35q33 9 46.5 24.5t9.5 52.5t-32 101zM451 557h485l-256 573z" />
    <glyph glyph-name="B" unicode="B" horiz-adv-x="1503" 
d="M1395 395q0 -186 -149 -296.5t-410 -110.5q-95 0 -237.5 6t-231.5 6q-256 0 -289 -2v20l121 35q44 12 58.5 30.5t14.5 61.5v1182q0 43 -14.5 61.5t-58.5 30.5l-121 35v21h690q254 0 383 -90.5t129 -235.5q0 -131 -100.5 -225t-284.5 -129q251 -21 375.5 -132t124.5 -268z
M573 1432v-637h136q131 0 205.5 82.5t74.5 220.5q0 156 -72.5 245t-205.5 89h-138zM573 752v-461q0 -46 1 -72t5.5 -58.5t14 -49.5t26 -35.5t42 -27t61 -14t84.5 -5.5q130 0 212.5 95t82.5 247q0 172 -85 276.5t-235 104.5h-209z" />
    <glyph glyph-name="C" unicode="C" horiz-adv-x="1570" 
d="M979 14q230 0 336 106t106 355h29q0 -69 -4 -183.5t-4 -199.5q-115 -65 -229 -90t-302 -25q-240 0 -426.5 94.5t-290.5 268.5t-104 399q0 162 65.5 303t179.5 241t275 157t346 57q41 0 77 -1.5t70 -7t58 -8.5t55 -13t45 -14t44.5 -17.5t37.5 -16.5t39.5 -19t36.5 -18
q0 -85 4 -199.5t4 -183.5h-30q0 252 -109.5 358.5t-349.5 106.5q-139 0 -246.5 -45t-173.5 -126t-99.5 -188.5t-33.5 -238.5q0 -185 51.5 -347t135 -271t190 -171.5t217.5 -62.5z" />
    <glyph glyph-name="D" unicode="D" horiz-adv-x="1796" 
d="M852 -23q-119 0 -254 11.5t-174 11.5q-73 0 -346 -6v20l123 35q43 12 57 29.5t14 60.5v1196q0 43 -14 60.5t-57 29.5l-123 35v21q273 -6 346 -6q69 0 234.5 11t254.5 11q228 0 407.5 -88t282.5 -252t103 -377q0 -129 -37.5 -249t-111.5 -220.5t-176 -175t-238 -116.5
t-291 -42zM573 231q0 -57 11.5 -93.5t43.5 -65t91.5 -41.5t152.5 -13q135 0 238.5 51t167.5 143t96.5 213.5t32.5 268.5q0 155 -30.5 282.5t-82.5 214.5t-121.5 147t-146 87t-158.5 27q-122 0 -217 -18q-43 -9 -60.5 -30t-17.5 -65v-1108z" />
    <glyph glyph-name="E" unicode="E" horiz-adv-x="1402" 
d="M78 0v20l121 35q44 12 58.5 30.5t14.5 61.5v1180q0 43 -14.5 61.5t-58.5 30.5l-121 35v21h717q99 0 168.5 1t136.5 2.5t114 2.5q15 -129 52 -365h-29q-10 64 -17 100.5t-21 75.5t-24.5 57t-37 37.5t-49.5 25.5t-71.5 12.5t-93 7t-122.5 0.5h-228v-639h121q82 0 127 1.5
t85 12t56 22t28.5 43t14 63t1.5 93.5h30q0 -46 -4 -123.5t-4 -134.5q0 -56 4 -133t4 -123h-30q0 47 -1 74t-6.5 55.5t-12.5 42.5t-25 28.5t-37 19.5t-56.5 10t-74.5 5.5t-99 0.5h-121v-478q0 -50 2 -78.5t10 -58.5t22.5 -44t41.5 -27t66 -17t96 -4h59q95 0 154 4t106.5 23
t70.5 37t44 70t30 96t25 139h31q-19 -110 -53 -418q-47 1 -114 2.5t-137 2.5t-169 1h-780z" />
    <glyph glyph-name="F" unicode="F" horiz-adv-x="1396" 
d="M879 1432h-306v-639h121q61 0 99.5 1t74.5 6t55.5 10.5t37.5 20t25 28.5t12.5 42t6.5 54.5t1 72.5h30q0 -46 -4 -123.5t-4 -134.5q0 -56 4 -133t4 -123h-30q0 47 -1 73.5t-6.5 55t-12.5 42t-25 28t-37 19.5t-56.5 10t-74.5 5.5t-99 0.5h-121v-609q0 -42 14.5 -60
t57.5 -30l123 -35v-20q-273 6 -344 6q-73 0 -346 -6v20l123 35q43 12 57 29.5t14 60.5v1188q0 43 -14.5 61.5t-58.5 30.5l-121 35v21h794q99 0 169 1t137 2.5t114 2.5q18 -153 51 -365h-28q-10 64 -17 100.5t-21 75.5t-24.5 57t-37 37.5t-49.5 25.5t-71.5 12.5t-93 7
t-122.5 0.5z" />
    <glyph glyph-name="G" unicode="G" horiz-adv-x="1675" 
d="M1479 489v-385q-126 -71 -248.5 -99t-319.5 -28q-375 0 -598 209t-223 553q0 216 112.5 389.5t311.5 271t447 97.5q46 0 88.5 -3.5t72.5 -6.5t67 -12.5t53.5 -13.5t52 -19t43.5 -18t45.5 -21.5t41.5 -20.5q0 -85 3.5 -199.5t3.5 -183.5h-29q0 252 -110 358.5t-351 106.5
q-141 0 -249 -45t-174.5 -126t-100 -188.5t-33.5 -238.5q0 -186 47.5 -347.5t127 -270.5t183 -171.5t215.5 -62.5q117 0 167.5 31.5t50.5 108.5v335q0 42 -14 60.5t-58 30.5l-121 34v21q273 -6 344 -6q73 0 346 6v-21l-123 -34q-43 -12 -57 -30.5t-14 -60.5z" />
    <glyph glyph-name="H" unicode="H" horiz-adv-x="1880" 
d="M573 1335v-559h732v559q0 43 -14 60.5t-58 29.5l-123 35v21q273 -6 346 -6t346 6v-21l-123 -35q-44 -12 -57.5 -29.5t-13.5 -60.5v-1196q0 -43 13.5 -60.5t57.5 -29.5l123 -35v-20q-273 6 -346 6t-346 -6v20l123 35q44 12 58 29.5t14 60.5v592h-732v-592q0 -42 14.5 -60
t57.5 -30l123 -35v-20q-273 6 -344 6q-73 0 -346 -6v20l123 35q43 12 57 29.5t14 60.5v1196q0 43 -14 60.5t-57 29.5l-123 35v21q273 -6 346 -6q71 0 344 6v-21l-123 -35q-43 -12 -57.5 -30t-14.5 -60z" />
    <glyph glyph-name="I" unicode="I" horiz-adv-x="845" 
d="M575 1335v-1196q0 -43 14 -60.5t58 -29.5l121 -35v-20q-273 6 -344 6q-73 0 -346 -6v20l123 35q44 12 57.5 29.5t13.5 60.5v1196q0 43 -13.5 60.5t-57.5 29.5l-123 35v21q273 -6 346 -6q71 0 344 6v-21l-121 -35q-44 -12 -58 -29.5t-14 -60.5z" />
    <glyph glyph-name="J" unicode="J" horiz-adv-x="843" 
d="M270 -104v1439q0 43 -13.5 60.5t-57.5 29.5l-121 35v21q273 -6 344 -6q73 0 346 6v-21l-123 -35q-44 -12 -58 -29.5t-14 -60.5v-1059q0 -123 -39.5 -244.5t-100.5 -210.5t-137.5 -144.5t-148.5 -55.5q-55 0 -79.5 22t-24.5 54q0 28 16 46.5t43 18.5q20 0 34 -10
t20.5 -22.5t17 -22.5t23.5 -10q73 0 73 199z" />
    <glyph glyph-name="K" unicode="K" horiz-adv-x="1695" 
d="M1057 166l-484 610v-637q0 -42 14.5 -60t57.5 -30l123 -35v-20q-273 6 -344 6q-73 0 -346 -6v20l123 35q43 12 57 29.5t14 60.5v1196q0 43 -14 60.5t-57 29.5l-123 35v21q273 -6 346 -6q71 0 344 6v-21l-123 -35q-43 -12 -57.5 -30t-14.5 -60v-555l537 500
q125 117 20 150l-100 30v21q139 -6 258 -6q57 0 133 2.5t131 3.5v-21l-92 -22q-149 -41 -258 -138l-387 -348l604 -757q54 -67 93.5 -98.5t105.5 -55.5l68 -23v-24q-240 6 -334 6q-205 0 -404 -6v20l92 25q45 11 47.5 49.5t-30.5 77.5z" />
    <glyph glyph-name="L" unicode="L" horiz-adv-x="1378" 
d="M272 1335q0 43 -14 60.5t-57 29.5l-123 35v21q273 -6 346 -6q71 0 344 6v-21l-123 -35q-43 -12 -57.5 -30t-14.5 -60v-1065q0 -50 2 -78.5t9.5 -58.5t21.5 -44.5t40 -27t62.5 -16.5t90.5 -4h73q69 0 122.5 12t92 30t68.5 56t49 71.5t36 96.5t26.5 111t23.5 133h29
q-10 -60 -21.5 -158.5t-25 -232.5t-17.5 -166q-47 1 -114 2.5t-136.5 2.5t-168.5 1h-758v20l121 35q44 12 58.5 30.5t14.5 61.5v1188z" />
    <glyph glyph-name="M" unicode="M" horiz-adv-x="2226" 
d="M1653 287l-82 1102q-31 -38 -53.5 -87t-63.5 -161l-450 -1190h-11l-495 1192q-69 162 -97 209l-75 -1065q-6 -90 1 -139.5t28.5 -74.5t64.5 -34l115 -25v-20q-43 1 -126 3.5t-141 2.5q-50 0 -113.5 -2.5t-97.5 -3.5v20l111 25q60 14 81.5 66.5t31.5 181.5l65 887
q9 134 -14 184.5t-111 68.5l-88 19v29h535l454 -1090l414 1090h539v-21l-82 -18q-75 -17 -97 -68t-12 -186l64 -895q8 -128 29 -179t83 -69l109 -25v-20q-60 1 -169.5 3.5t-182.5 2.5q-78 0 -188.5 -2.5t-174.5 -3.5v20l102 25q64 15 85 66.5t12 181.5z" />
    <glyph glyph-name="N" unicode="N" horiz-adv-x="1792" 
d="M362 223q0 -97 16.5 -131t63.5 -43l148 -35v-20q-60 1 -128 3.5t-120 2.5q-53 0 -111.5 -2.5t-119.5 -3.5v20l135 35q44 9 60 43t16 131v1108q-65 73 -119 94t-178 21v29h542l891 -1043v819q0 97 -16.5 131t-63.5 43l-147 35v21q58 -1 127 -3.5t121 -2.5t111 2.5t120 3.5
v-21l-135 -35q-44 -9 -60 -43t-16 -131v-1286h-8l-1129 1319v-1061z" />
    <glyph glyph-name="O" unicode="O" horiz-adv-x="1699" 
d="M848 1497q162 0 303 -56t242 -155t159 -241t58 -306q0 -163 -57 -305t-157 -242t-240.5 -157.5t-301.5 -57.5q-217 0 -391 95.5t-273.5 269.5t-99.5 393q0 163 57 305t157 242t241 157.5t303 57.5zM928 14q172 0 277.5 165t105.5 439q0 163 -44 318t-116.5 270
t-172 184.5t-204.5 69.5q-173 0 -279 -165t-106 -439q0 -218 74 -413t198.5 -312t266.5 -117z" />
    <glyph glyph-name="P" unicode="P" horiz-adv-x="1409" 
d="M676 680h26q152 0 239 92.5t87 249.5q0 192 -86 301t-240 109h-129v-1293q0 -42 14.5 -60t57.5 -30l123 -35v-20q-273 6 -344 6q-73 0 -346 -6v20l123 35q43 12 57 29.5t14 60.5v1188q0 43 -14.5 61.5t-58.5 30.5l-121 35v21h751q231 0 360.5 -113t129.5 -287
q0 -187 -153.5 -312.5t-399.5 -125.5h-90v43z" />
    <glyph glyph-name="Q" unicode="Q" horiz-adv-x="1699" 
d="M848 1497q162 0 303 -56t242 -155t159 -241t58 -306q0 -255 -132.5 -447t-353.5 -269q171 -156 360 -245t343 -89q69 0 137 22v-28q-191 -58 -346 -58q-184 0 -375 84t-452 271q-151 11 -280.5 71t-222.5 158t-145.5 234t-52.5 292q0 163 57 305t157 242t241 157.5
t303 57.5zM928 14q172 0 277.5 165t105.5 439q0 163 -44 318t-116.5 270t-172 184.5t-204.5 69.5q-173 0 -279 -165t-106 -439q0 -218 74 -413t198.5 -312t266.5 -117z" />
    <glyph glyph-name="R" unicode="R" horiz-adv-x="1527" 
d="M1522 -8q-73 -12 -156 -12q-118 0 -191.5 36.5t-125.5 130.5l-318 586h-158v-594q0 -42 14.5 -60t57.5 -30l123 -35v-20q-273 6 -344 6q-73 0 -346 -6v20l123 35q43 12 57 29.5t14 60.5v1188q0 43 -14.5 61.5t-58.5 30.5l-121 35v21h756q226 0 349.5 -99.5t123.5 -255.5
q0 -118 -78 -216t-211 -142l229 -400q108 -185 170.5 -259.5t104.5 -88.5v-22zM719 1432h-146v-656h144q132 0 216.5 87.5t84.5 230.5q0 154 -78 246t-221 92z" />
    <glyph glyph-name="S" unicode="S" horiz-adv-x="1298" 
d="M911 283q0 55 -19 100.5t-46 76.5t-77.5 62.5t-91.5 51.5t-110 50q-20 9 -30 13q-46 20 -79.5 36t-73 39t-67.5 46t-55.5 55t-44 67t-27 81t-10.5 98q0 88 34.5 167t99 139.5t164.5 96t222 35.5q179 0 394 -63l16 -17q-7 -84 -14 -364h-31q-29 223 -112 315t-244 92
q-129 0 -205 -70t-76 -176q0 -50 16.5 -91.5t42 -72t69.5 -60t86.5 -50t105.5 -47.5q45 -19 71.5 -31t67.5 -32t65.5 -35.5t58 -39t53 -45.5t42 -51.5t34 -61t19.5 -70.5t8 -83q0 -215 -157.5 -341t-434.5 -126q-152 0 -397 72l-10 10l-23 373h31q24 -123 53 -199t77.5 -127
t116 -71.5t169.5 -20.5q142 0 230.5 69.5t88.5 199.5z" />
    <glyph glyph-name="T" unicode="T" horiz-adv-x="1509" 
d="M1008 1475q99 0 168.5 1t136 2.5t112.5 2.5q22 -219 54 -426h-31q-10 63 -16 98.5t-16.5 78.5t-17 63.5t-23 47t-28.5 36.5t-39 23.5t-49.5 16.5t-65 7.5t-80 5t-99.5 0.5h-109v-1293q0 -42 14.5 -60t57.5 -30l123 -35v-20q-273 6 -344 6q-73 0 -346 -6v20l122 35
q43 12 57.5 30t14.5 60v1293h-108q-62 0 -99.5 -0.5t-80 -5t-65 -7.5t-49.5 -16.5t-39.5 -23.5t-28.5 -36t-23 -47t-17.5 -64t-16.5 -78.5t-16 -98.5h-30q30 189 53 426q417 -6 418 -6h506z" />
    <glyph glyph-name="U" unicode="U" horiz-adv-x="1685" 
d="M1153 1481q60 -1 129.5 -3.5t122.5 -2.5q54 0 113 2.5t118 3.5v-21l-135 -35q-44 -9 -59 -42.5t-15 -131.5v-766q0 -243 -142.5 -375.5t-410.5 -132.5q-284 0 -444 135.5t-160 397.5v825q0 43 -14 60.5t-57 29.5l-123 35v21q273 -6 346 -6q71 0 344 6v-21l-123 -35
q-43 -12 -57.5 -30t-14.5 -60v-891q0 -191 102.5 -305t274.5 -114q200 0 317 115.5t117 314.5v796q0 97 -16.5 131t-65.5 43l-147 35v21z" />
    <glyph glyph-name="V" unicode="V" horiz-adv-x="1640" 
d="M1358 1219l-500 -1256h-22l-557 1256q-50 112 -82.5 155.5t-73.5 55.5l-113 30v21q48 -1 161 -3.5t185 -2.5q78 0 196.5 2.5t178.5 3.5v-21l-125 -35q-33 -9 -46.5 -24.5t-9.5 -53t32 -102.5l387 -905l338 874q46 121 41.5 165.5t-64.5 56.5l-119 24v21q41 -1 125 -3.5
t146 -2.5q44 0 103.5 2.5t90.5 3.5v-21l-112 -30q-45 -13 -80.5 -56.5t-79.5 -154.5z" />
    <glyph glyph-name="W" unicode="W" horiz-adv-x="2330" 
d="M1010 1223q-53 122 -84 164t-70 53l-84 20v21q42 -1 143 -3.5t166 -2.5h498q44 0 104 2.5t91 3.5v-21l-113 -24q-39 -8 -66.5 -48t-93.5 -169l-98 -193l285 -664l309 852q31 88 38 130.5t-6.5 63t-54.5 28.5l-119 24v21q41 -1 125 -3.5t146 -2.5q44 0 103.5 2.5t90.5 3.5
v-21l-112 -30q-46 -13 -82.5 -57t-77.5 -154l-463 -1256h-22l-344 782l-381 -782h-23l-536 1256q-47 112 -80.5 155t-75.5 56l-113 30v21q48 -1 161 -3.5t185 -2.5q69 0 174 2.5t158 3.5v-21l-98 -28q-31 -8 -41.5 -23.5t-3.5 -54t37 -109.5l391 -915l225 465zM1298 1270
l86 -199l113 234q35 83 23 113t-76 30h-111q-68 0 -74 -38.5t39 -139.5z" />
    <glyph glyph-name="X" unicode="X" horiz-adv-x="1652" 
d="M420 260q-89 -121 -102 -157q-17 -48 32 -61q2 -1 4 -1l119 -27v-20q-42 1 -125 3.5t-145 2.5q-43 0 -103 -2.5t-90 -3.5v20l113 29q46 14 109.5 66.5t132.5 146.5l331 453l-342 510q-123 185 -209 211l-106 30v21q45 -1 164 -3.5t192 -2.5q80 0 200 2.5t177 3.5v-21
l-125 -35q-46 -10 -40.5 -49.5t65.5 -130.5l243 -362l236 331q45 63 68 102t26.5 64t-8.5 36.5t-41 17.5l-117 26v21q41 -1 125 -3.5t146 -2.5q43 0 102.5 2.5t89.5 3.5v-21l-112 -30q-51 -14 -95.5 -56t-126.5 -155l-270 -369l399 -594q73 -108 116 -154.5t83 -58.5
l106 -29v-20q-49 1 -161 3.5t-183 2.5q-80 0 -207.5 -2.5t-181.5 -3.5v20l127 35q48 11 44.5 50.5t-62.5 127.5l-299 447z" />
    <glyph glyph-name="Y" unicode="Y" horiz-adv-x="1576" 
d="M1151 14v-20q-273 6 -344 6q-73 0 -346 -6v20l123 35q44 12 57.5 29.5t13.5 60.5v617l-331 463q-77 108 -121 153.5t-86 57.5l-107 30v21q209 -6 344 -6q137 0 377 6v-21l-127 -37q-89 -24 23 -180l315 -442l260 413q33 54 50.5 90.5t21.5 63.5t-9 42t-42 22l-121 28v21
q44 -1 127 -3.5t143 -2.5q45 0 105.5 2.5t89.5 3.5v-21l-111 -30q-44 -12 -90 -58t-113 -149l-295 -461v-623q0 -43 14 -60.5t58 -29.5z" />
    <glyph glyph-name="Z" unicode="Z" horiz-adv-x="1480" 
d="M918 41q67 0 116 4t90.5 14.5t70 23t52.5 38.5t39 51t29.5 69.5t24 86t22.5 108.5h27q-39 -226 -68 -440q-160 4 -1223 4l11 14l874 1422l-414 -4q-60 0 -107 -4t-85.5 -10.5t-67.5 -20t-51.5 -27.5t-39.5 -39t-28.5 -48.5t-21.5 -62t-16.5 -74t-14.5 -89.5h-28
q21 133 34 252q2 27 11 95t12 112h18q49 -28 114.5 -34.5t285.5 -6.5h764l-7 -11l-874 -1425z" />
    <glyph glyph-name="a" unicode="a" horiz-adv-x="1179" 
d="M88 203q0 49 12 84t46 71t99 68.5t167 65.5l282 92v268q0 118 -40.5 167.5t-121.5 49.5q-79 0 -139 -61.5t-110 -178.5h-195q139 152 254.5 218.5t273.5 66.5q170 0 262.5 -73.5t92.5 -247.5v-523q0 -93 21.5 -138t71 -55.5t130.5 5.5v-12q-47 -38 -114 -65.5t-142 -27.5
q-165 0 -242 146q-138 -146 -362 -146q-118 0 -182 61.5t-64 164.5zM344 244q0 -83 44 -123.5t124 -40.5q104 0 182 65v410l-155 -61q-63 -25 -102.5 -50.5t-59.5 -57.5t-26.5 -63t-6.5 -79z" />
    <glyph glyph-name="b" unicode="b" horiz-adv-x="1417" 
d="M758 -23q-200 0 -314 123q-136 -71 -215 -129h-22v1420q0 41 -20 61t-70 31l-135 26v21l483 98l18 -12v-727q101 118 197 171.5t205 53.5q110 0 199.5 -43.5t144.5 -117t84.5 -165t29.5 -192.5q0 -91 -23 -179t-71 -168t-116 -140.5t-164.5 -96t-210.5 -35.5zM483 348
q0 -159 69.5 -244.5t203.5 -85.5q149 0 230 136t81 356q0 91 -19.5 173t-56.5 148.5t-98.5 106t-138.5 39.5q-159 0 -271 -115v-514z" />
    <glyph glyph-name="c" unicode="c" horiz-adv-x="1161" 
d="M621 1114q138 0 244 -55t222 -193h-196q-80 219 -266 219q-137 0 -216 -103.5t-79 -266.5q0 -139 34 -246t95 -173t141 -99t176 -33q192 0 320 76l4 -15q-184 -248 -479 -248q-239 0 -393 156.5t-154 401.5q0 121 45 230t120 184.5t175 120t207 44.5z" />
    <glyph glyph-name="d" unicode="d" horiz-adv-x="1423" 
d="M1208 221q0 -42 20.5 -62.5t69.5 -31.5l136 -27v-20l-484 -98l-16 12v211q-103 -120 -197.5 -174t-204.5 -54t-199.5 44t-144.5 118t-84.5 166.5t-29.5 194.5q0 91 22.5 178t70.5 166.5t115 139t163.5 95t209.5 35.5q83 0 157 -25t122 -67v369q0 40 -21 60.5t-69 31.5
l-135 26v21l481 98l18 -12v-1395zM348 582q0 -123 32.5 -225.5t106 -171t177.5 -68.5q159 0 270 119v548q0 121 -82 205t-209 84q-139 0 -217 -136.5t-78 -354.5z" />
    <glyph glyph-name="e" unicode="e" horiz-adv-x="1161" 
d="M1100 225q-181 -248 -477 -248q-239 0 -394 156.5t-155 401.5q0 123 44.5 231t120 184t178 120t214.5 44q106 0 193.5 -30t159 -101.5t108.5 -181.5l-754 2q-6 -41 -6 -88q0 -139 33.5 -246t94 -173t140.5 -99t176 -33q195 0 320 76zM631 1085q-105 0 -182.5 -63.5
t-104.5 -185.5l533 6q-18 129 -79.5 186t-166.5 57z" />
    <glyph glyph-name="f" unicode="f" horiz-adv-x="913" 
d="M500 1348v-261l356 11l-10 -54l-346 7v-918q0 -45 14 -63t57 -27l109 -29v-20q-246 6 -318 6t-315 -6v20l109 29q40 9 54.5 27.5t14.5 62.5v793q0 44 -21 63t-69 29l-135 24v27q114 11 223 37v29q12 166 84.5 282.5t185.5 172t259 55.5q90 0 204 -21v-111
q-166 103 -284 103q-172 0 -172 -268z" />
    <glyph glyph-name="g" unicode="g" horiz-adv-x="1202" 
d="M588 1114q100 0 188 -29l385 13l-10 -54l-295 7q156 -92 156 -273q0 -84 -38.5 -152.5t-103 -112.5t-145.5 -67.5t-170 -23.5q-138 0 -240 51q-72 -67 -104 -108q1 -63 49 -91t152 -28h424q162 0 238.5 -64t76.5 -178q0 -182 -184.5 -282.5t-503.5 -100.5
q-200 0 -291.5 52.5t-91.5 138.5q0 59 51 111.5t154 109.5q-211 47 -211 274q18 17 60 55t74 70t60 68q-137 91 -137 258q0 110 66.5 193t169 123t221.5 40zM547 1075q-83 0 -132.5 -69.5t-49.5 -186.5q0 -152 69 -255t162 -103q84 0 133 69t49 189q0 149 -69 252.5
t-162 103.5zM205 -154q0 -48 29 -85t79 -58.5t111.5 -32t132.5 -10.5q171 0 284 61t113 164q0 69 -44.5 102t-143.5 33h-358q-16 0 -74 5q-67 -42 -98 -84.5t-31 -94.5z" />
    <glyph glyph-name="h" unicode="h" horiz-adv-x="1488" 
d="M506 133q0 -44 15 -62.5t57 -27.5l108 -29v-20q-246 6 -317 6q-73 0 -316 -6v20l109 29q40 9 54.5 27.5t14.5 62.5v1258q0 40 -21 60.5t-69 31.5l-135 26v21l483 98l17 -12v-733q104 123 196.5 177t208.5 54q177 0 272 -92.5t95 -284.5v-604q0 -44 14.5 -62.5t57.5 -27.5
l108 -29v-20q-246 6 -317 6q-73 0 -316 -6v20l109 29q40 9 55 27.5t15 62.5v596q0 129 -65.5 188.5t-170.5 59.5q-147 0 -262 -123v-721z" />
    <glyph glyph-name="i" unicode="i" horiz-adv-x="720" 
d="M352 1585q56 0 92.5 -37t36.5 -94q0 -56 -36.5 -92.5t-92.5 -36.5q-57 0 -94 36.5t-37 92.5q0 57 37 94t94 37zM508 133q0 -44 14.5 -62.5t57.5 -27.5l108 -29v-20q-246 6 -317 6q-73 0 -316 -6v20l109 29q40 9 54.5 27.5t14.5 62.5v737q0 42 -21 64t-69 31l-135 24v23
l481 98l19 -12v-965z" />
    <glyph glyph-name="j" unicode="j" horiz-adv-x="710" 
d="M365 1585q57 0 94 -37t37 -94q0 -56 -37 -92.5t-94 -36.5q-55 0 -92 36.5t-37 92.5q0 57 36.5 94t92.5 37zM248 84v786q0 43 -20.5 64.5t-69.5 30.5l-135 24v23l483 98l16 -12v-871q0 -102 -11 -172t-41 -136.5t-86 -115.5t-144 -94.5t-217 -87.5l-11 35q53 19 87 35
t62.5 40t43.5 51.5t25.5 72t14 97.5t3.5 132z" />
    <glyph glyph-name="k" unicode="k" horiz-adv-x="1472" 
d="M506 133q0 -44 15 -62.5t57 -27.5l108 -29v-20q-246 6 -317 6q-73 0 -316 -6v20l109 29q40 9 54.5 27.5t14.5 62.5v1258q0 40 -21 60.5t-69 31.5l-135 26v21l483 98l17 -12v-1483zM1460 -6q-225 6 -313 6q-85 0 -328 -6v20l68 17q26 7 35.5 21.5t3 33t-24.5 39.5
l-395 432l455 410q29 28 28 53t-28 31l-105 26v21q225 -6 272 -6q13 0 197 4v-21l-92 -22q-54 -15 -120 -47t-105 -62l-285 -229l504 -574q39 -45 74 -68t94 -40l65 -19v-20z" />
    <glyph glyph-name="l" unicode="l" horiz-adv-x="716" 
d="M506 133q0 -44 15 -62.5t57 -27.5l108 -29v-20q-246 6 -317 6q-73 0 -316 -6v20l109 29q40 9 54.5 27.5t14.5 62.5v1258q0 40 -21 60.5t-69 31.5l-135 26v21l483 98l17 -12v-1483z" />
    <glyph glyph-name="m" unicode="m" horiz-adv-x="2236" 
d="M508 133q0 -44 14.5 -62.5t57.5 -27.5l108 -29v-20q-246 6 -317 6q-73 0 -316 -6v20l109 29q40 9 54.5 27.5t14.5 62.5v737q0 43 -21.5 65t-68.5 30l-135 24v23l481 98l19 -12v-213q102 121 191.5 175t201.5 54q288 0 350 -235q103 124 197.5 179.5t210.5 55.5
q177 0 273 -93t96 -284v-604q0 -44 14.5 -62.5t54.5 -27.5l109 -29v-20q-243 6 -316 6q-71 0 -317 -6v20l108 29q43 9 57.5 27.5t14.5 62.5v596q0 128 -65.5 188t-169.5 60q-148 0 -263 -121q13 -57 13 -119v-604q0 -44 14.5 -61.5t56.5 -28.5l109 -29v-20q-246 6 -318 6
t-315 -6v20l109 29q41 9 55 27.5t14 62.5v596q0 129 -65 188.5t-170 59.5q-137 0 -250 -121v-723z" />
    <glyph glyph-name="n" unicode="n" horiz-adv-x="1490" 
d="M508 133q0 -44 14.5 -62.5t57.5 -27.5l108 -29v-20q-246 6 -317 6q-73 0 -316 -6v20l109 29q40 9 54.5 27.5t14.5 62.5v737q0 43 -21.5 65t-68.5 30l-135 24v23l481 98l19 -12v-215q104 123 196.5 177t208.5 54q177 0 272 -92.5t95 -284.5v-604q0 -44 14.5 -62.5
t57.5 -27.5l108 -29v-20q-249 6 -317 6q-73 0 -316 -6v20l109 29q40 9 54 27.5t14 62.5v596q0 129 -64.5 188.5t-169.5 59.5q-147 0 -262 -123v-721z" />
    <glyph glyph-name="o" unicode="o" horiz-adv-x="1284" 
d="M641 1114q161 0 291.5 -74.5t204 -204.5t73.5 -290q0 -121 -49 -229t-128.5 -181t-182 -115.5t-209.5 -42.5q-161 0 -291 74.5t-203 205t-73 290.5q0 121 49 228.5t128.5 180.5t181.5 115.5t208 42.5zM698 10q106 0 172 116t66 298q0 175 -50.5 328t-132 241t-169.5 88
q-106 0 -171 -115.5t-65 -297.5q0 -176 50 -329t131 -241t169 -88z" />
    <glyph glyph-name="p" unicode="p" horiz-adv-x="1431" 
d="M678 -342v-20q-249 6 -318 6q-72 0 -315 -6v20l109 27q40 11 54.5 29.5t14.5 62.5v1093q0 42 -21 64t-69 31l-135 24v23l483 98l17 -12v-209q102 119 196.5 172t206.5 53q110 0 198.5 -44t144 -117.5t85 -165.5t29.5 -193q0 -91 -22.5 -179t-70.5 -167.5t-116 -139.5
t-164.5 -95.5t-210.5 -35.5q-170 0 -276 95v-295q0 -44 14 -62t57 -30zM498 307q0 -120 82 -204.5t208 -84.5q139 0 217 137t78 355q0 91 -19 172.5t-56.5 148t-99.5 105.5t-140 39q-158 0 -270 -117v-551z" />
    <glyph glyph-name="q" unicode="q" horiz-adv-x="1406" 
d="M1397 -365q-61 1 -158 5t-170 4q-70 0 -158 -3.5t-153 -5.5v21l108 29q42 9 57 28t15 62v430q-99 -117 -196 -172.5t-207 -55.5t-200 44t-145.5 118t-85.5 166.5t-30 194.5q0 115 37 222.5t107 196t184 142t255 53.5q253 0 400 -188q98 119 135 194h22v-1345
q0 -43 15 -62t55 -28l113 -29v-21zM350 584q0 -123 33 -226t106.5 -172t176.5 -69q155 0 272 114v555q0 121 -82 205t-209 84q-139 0 -218 -136.5t-79 -354.5z" />
    <glyph glyph-name="r" unicode="r" horiz-adv-x="1032" 
d="M508 133q0 -44 14.5 -62.5t57.5 -27.5l108 -29v-20q-246 6 -317 6q-73 0 -316 -6v20l109 29q40 9 54.5 27.5t14.5 62.5v737q0 42 -21 64t-69 31l-135 24v23l481 98l19 -12v-207q84 120 162.5 171.5t173.5 51.5q70 0 110.5 -40t40.5 -89t-36 -89t-68 -40q-9 0 -39 30
t-73 60.5t-85 30.5q-46 0 -88.5 -23.5t-97.5 -89.5v-731z" />
    <glyph glyph-name="s" unicode="s" horiz-adv-x="901" 
d="M88 309h25l26 -125q21 -89 78.5 -126.5t153.5 -37.5q105 0 169 50t64 137q0 40 -13 73.5t-32.5 57t-54 46.5t-64 38.5t-75.5 38.5q-14 7 -21 10q-53 26 -89.5 51t-72.5 62.5t-54.5 89.5t-18.5 117q0 138 99 230.5t279 92.5q125 0 283 -51l12 -10l-10 -269h-24l-29 138
q-20 77 -73 113t-142 36q-91 0 -147 -45.5t-56 -118.5q0 -35 12 -65t29.5 -51t50.5 -43t60 -36.5t73 -35.5q40 -19 62.5 -30t59 -32t57 -38.5t46.5 -44.5t39.5 -55.5t23 -66.5t9.5 -81q0 -163 -122.5 -257t-323.5 -94q-129 0 -281 50l-8 8v274z" />
    <glyph glyph-name="t" unicode="t" horiz-adv-x="960" 
d="M498 311q0 -121 65.5 -177t175.5 -56q113 0 195 31l2 -19q-53 -38 -153.5 -75.5t-184.5 -37.5q-176 0 -274.5 70.5t-98.5 214.5v664q0 43 -21.5 63.5t-68.5 28.5l-135 24v27l168 33q88 15 159 47t160 96l11 -8v-150l420 11l-13 -54l-407 7v-740z" />
    <glyph glyph-name="u" unicode="u" horiz-adv-x="1495" 
d="M487 1110l19 -12v-733q0 -130 63.5 -189t167.5 -59q66 0 124 22.5t118 81.5v649q0 43 -21 64.5t-71 30.5l-133 24v23l481 98l18 -12v-877q0 -42 20 -62.5t70 -31.5l136 -27v-20l-484 -98l-16 12v194q-97 -110 -187.5 -160.5t-197.5 -50.5q-174 0 -268.5 93t-94.5 286v514
q0 43 -20.5 64.5t-69.5 30.5l-135 24v23z" />
    <glyph glyph-name="v" unicode="v" horiz-adv-x="1329" 
d="M1317 1098v-21l-113 -24q-48 -12 -70 -35.5t-51 -89.5l-397 -961h-22l-431 969q-28 64 -46 85t-54 30l-121 26v21q255 -6 322 -6q97 0 358 6v-21l-133 -24q-56 -11 -68 -30.5t11 -76.5l284 -645l256 625q27 71 12.5 92.5t-98.5 36.5l-133 22v21q67 -1 144 -3.5t135 -2.5
q43 0 99.5 2.5t115.5 3.5z" />
    <glyph glyph-name="w" unicode="w" horiz-adv-x="2091" 
d="M1116 1092q95 0 359 6v-21l-127 -24q-28 -6 -43.5 -12t-24 -18t-6.5 -30t14 -47l266 -641l250 621q15 37 19 57t-6.5 35t-32 22t-66.5 15l-133 22v21q67 -1 144 -3.5t135 -2.5q43 0 99.5 2.5t115.5 3.5v-21l-113 -24q-50 -12 -72 -35.5t-49 -89.5l-387 -961h-24l-387 940
l-371 -940h-23l-420 969q-28 64 -46 85t-54 30l-121 26v21q255 -6 322 -6q97 0 358 6v-21l-133 -24q-56 -11 -68 -30.5t11 -76.5l270 -633l223 561q29 80 8.5 126t-85.5 57l-123 20v21q255 -6 321 -6z" />
    <glyph glyph-name="x" unicode="x" horiz-adv-x="1302" 
d="M713 217l-164 258l-164 -248q-32 -45 -48 -72.5t-23.5 -50t1.5 -35.5t29 -21t57 -13l109 -21v-20q-67 1 -143 3.5t-136 2.5q-46 0 -99.5 -2.5t-111.5 -3.5v20l95 23q65 16 119 63t131 162l163 246l-227 358q-79 117 -115 152.5t-92 44.5l-74 14v21q255 -6 322 -6
q62 0 332 6v-21l-88 -24q-55 -16 -53.5 -48t63.5 -128l133 -213l127 200q30 44 46.5 74t23 53.5t-1.5 38t-28 23.5t-56 14l-60 10v21q60 -1 119.5 -3.5t110.5 -2.5q46 0 99.5 2.5t111.5 3.5v-21l-95 -20q-67 -18 -120.5 -65t-128.5 -163l-127 -194l256 -408
q71 -112 109.5 -148t94.5 -48l76 -17v-20q-255 6 -321 6q-88 0 -355 -6v20l99 23q65 12 66.5 47.5t-62.5 132.5z" />
    <glyph glyph-name="y" unicode="y" horiz-adv-x="1331" 
d="M496 -379q-44 0 -71.5 27t-27.5 69q0 43 27.5 71t71.5 28q59 0 82 -47q44 93 86 196l-431 971q-28 64 -46 85t-54 30l-121 26v21q255 -6 322 -6q97 0 358 6v-21l-133 -24q-56 -11 -68 -30.5t11 -76.5l286 -661l254 641q29 71 14.5 92.5t-98.5 36.5l-133 22v21
q67 -1 144 -3.5t135 -2.5q43 0 99.5 2.5t115.5 3.5v-21l-113 -24q-50 -12 -72 -35.5t-49 -89.5l-495 -1237q-29 -70 -94 -70z" />
    <glyph glyph-name="z" unicode="z" horiz-adv-x="1021" 
d="M979 350q-10 -62 -29.5 -171t-29.5 -179h-865l580 1059l-240 -6q-59 -2 -100 -7.5t-71.5 -19.5t-48.5 -31t-30.5 -50t-19 -67t-12.5 -90h-35q19 128 28 222q3 25 8.5 85t10.5 107h33q-1 -19 -1 -30t1 -24t6.5 -19t12 -13.5t21 -10.5t30.5 -6.5t43 -4.5t56 -1.5t72 -0.5
h557l-583 -1057l268 6q59 2 96.5 6.5t70 18.5t51 33t35.5 56.5t28 81t24 113.5h33z" />
    <glyph glyph-name="guillemotleft" unicode="&#xab;" horiz-adv-x="1054" 
d="M582 98l-17 -12l-514 496v20l514 496l17 -13l-297 -493zM983 98l-16 -12l-514 496v20l514 496l16 -13l-297 -493z" />
    <glyph glyph-name="guillemotright" unicode="&#xbb;" horiz-adv-x="1054" 
d="M602 582l-514 -496l-16 12l299 494l-299 493l16 13l514 -496v-20zM1004 582l-515 -496l-16 12l299 494l-299 493l16 13l515 -496v-20z" />
    <glyph glyph-name="quoteleft" unicode="&#x2018;" horiz-adv-x="503" 
d="M236 1298q0 -41 29 -74.5t63 -51.5t63 -39.5t29 -40.5q0 -75 -47.5 -124.5t-122.5 -49.5q-81 0 -126.5 56.5t-45.5 166.5q0 132 92.5 235t255.5 121v-29q-190 -33 -190 -170z" />
    <glyph glyph-name="quoteright" unicode="&#x2019;" horiz-adv-x="503" 
d="M268 1116q0 41 -29 75t-63 52t-63 39.5t-29 40.5q0 74 47 124t121 50q83 0 128.5 -56t45.5 -167q0 -132 -92.5 -235t-255.5 -121v28q190 33 190 170z" />
    <glyph glyph-name="quotedblleft" unicode="&#x201c;" horiz-adv-x="927" 
d="M236 1298q0 -41 29 -74.5t63 -51.5t63 -39.5t29 -40.5q0 -75 -47.5 -124.5t-122.5 -49.5q-81 0 -126.5 56.5t-45.5 166.5q0 132 92.5 235t255.5 121v-29q-190 -33 -190 -170zM659 1298q0 -41 29 -74.5t63.5 -51.5t63.5 -39.5t29 -40.5q0 -75 -47.5 -124.5t-122.5 -49.5
q-81 0 -126.5 56.5t-45.5 166.5q0 132 92.5 235t255.5 121v-29q-191 -33 -191 -170z" />
    <glyph glyph-name="quotedblright" unicode="&#x201d;" horiz-adv-x="927" 
d="M268 1116q0 41 -29 75t-63 52t-63 39.5t-29 40.5q0 74 47 124t121 50q83 0 128.5 -56t45.5 -167q0 -132 -92.5 -235t-255.5 -121v28q190 33 190 170zM692 1116q0 41 -29 75t-63 52t-63 39.5t-29 40.5q0 74 47 124t121 50q83 0 128.5 -56t45.5 -167q0 -132 -92.5 -235
t-255.5 -121v28q190 33 190 170z" />
    <glyph glyph-name="thinspace" horiz-adv-x="260" 
 />
    <glyph glyph-name="idotaccent" horiz-adv-x="720" 
d="M375 1581q46 0 76 -30t30 -76q0 -47 -30 -78t-76 -31t-76.5 31t-30.5 78q0 46 30.5 76t76.5 30zM508 133q0 -44 14.5 -62.5t57.5 -27.5l108 -29v-20q-246 6 -317 6q-73 0 -316 -6v20l109 29q40 9 54.5 27.5t14.5 62.5v737q0 42 -21 64t-69 31l-135 24v23l481 98l19 -12
v-965z" />
    <glyph glyph-name="comma.numr" 
d="M152 698q0 19 -14 35.5t-30.5 26t-30.5 19.5t-14 16q0 46 25 73t72 27q42 0 70 -24t28 -66q0 -78 -46.5 -137.5t-135.5 -114.5l-10 10q86 66 86 135z" />
    <glyph glyph-name="period.numr" 
d="M160 895q43 0 70.5 -24.5t27.5 -63.5t-27.5 -63.5t-70.5 -24.5q-42 0 -68 24.5t-26 63.5t26 63.5t68 24.5z" />
    <glyph glyph-name="parenleft.numr" horiz-adv-x="372" 
d="M53 1069q0 63 16 118t38 94t62 80.5t71.5 66.5t83.5 63l8 -12q-85 -61 -126.5 -153.5t-41.5 -256.5q0 -165 41.5 -258t126.5 -152l-8 -14q-53 39 -84 64t-71.5 67t-62 81t-37.5 94t-16 118z" />
    <glyph glyph-name="parenright.numr" horiz-adv-x="372" 
d="M317 1069q0 -63 -15.5 -118t-37 -94.5t-61 -80.5t-71 -67t-83.5 -64l-10 14q87 59 128.5 151.5t41.5 258.5q0 165 -41.5 257t-128.5 153l10 12q51 -37 83 -63t71 -66.5t61 -80t37.5 -94.5t15.5 -118z" />
    <glyph glyph-name="plus.numr" horiz-adv-x="671" 
d="M350 887h-31v198h-206v25h206v197h31v-197h209v-25h-209v-198z" />
    <glyph glyph-name="zero.numr" horiz-adv-x="714" 
d="M356 1487q139 0 228.5 -102.5t89.5 -282.5q0 -87 -27.5 -160.5t-72.5 -121.5t-101.5 -74.5t-114.5 -26.5q-138 0 -226.5 104.5t-88.5 278.5q0 177 94 281t219 104zM373 735q54 0 87.5 78t33.5 227q0 209 -44.5 318.5t-107.5 109.5q-54 0 -87.5 -78t-33.5 -227
q0 -210 44.5 -319t107.5 -109z" />
    <glyph glyph-name="one.numr" horiz-adv-x="567" 
d="M221 1319q0 25 -13 34t-46 3l-129 -23l-6 15l366 137l8 -6v-680q0 -21 7.5 -30t27.5 -15l56 -17v-12q-94 4 -185 4q-82 0 -176 -4v12l53 17q22 6 29.5 15t7.5 30v520z" />
    <glyph glyph-name="two.numr" horiz-adv-x="643" 
d="M545 729h-506v14l63.5 63.5l64 64t55.5 60t53 65t41.5 64.5t35 74t19 77.5t8.5 88.5q0 168 -119 168q-34 0 -72.5 -16t-62 -31.5t-70.5 -50.5v66q137 51 242 51q113 0 186.5 -52t73.5 -149q0 -43 -17 -85t-44 -77.5t-75.5 -78.5t-95 -78t-120.5 -86l211 4
q87 0 114.5 19.5t51.5 94.5h16q-15 -64 -53 -270z" />
    <glyph glyph-name="three.numr" horiz-adv-x="587" 
d="M344 1364q0 104 -111 104q-87 0 -182 -90v60q122 49 213 49q112 0 170 -40t58 -110q0 -116 -156 -180q91 -2 145 -54t54 -138q0 -115 -91.5 -180.5t-232.5 -65.5q-78 0 -168 22v74q81 -78 152 -78q74 0 115.5 55.5t41.5 143.5q0 164 -127 164q-40 0 -80 -13l-4 21
q81 33 142 105.5t61 150.5z" />
    <glyph glyph-name="four.numr" horiz-adv-x="665" 
d="M514 729h-182v197h-307v26l452 535h37v-477h137l-18 -84h-119v-197zM106 1010h226v268z" />
    <glyph glyph-name="five.numr" horiz-adv-x="620" 
d="M164 1475h381l-25 -142h-368l-13 -57l178 -53q118 -36 176 -93t58 -145q0 -129 -126.5 -197.5t-344.5 -68.5v16h29q135 0 203.5 53.5t68.5 137.5q0 125 -160 176l-131 41z" />
    <glyph glyph-name="six.numr" horiz-adv-x="677" 
d="M631 963q0 -104 -77 -174t-200 -70q-61 0 -112.5 17.5t-93 53.5t-65.5 97t-24 141q0 190 150 315.5t383 143.5l2 -17q-161 -29 -246 -118t-100 -244q77 63 164 63q95 0 157 -57.5t62 -150.5zM358 735q52 0 80.5 54.5t28.5 142.5q0 190 -119 190q-49 0 -102 -39
q-2 -16 -2 -49q0 -299 114 -299z" />
    <glyph glyph-name="seven.numr" horiz-adv-x="600" 
d="M213 727h-82l350 592h-448l39 156h501l9 -15z" />
    <glyph glyph-name="eight.numr" horiz-adv-x="669" 
d="M610 956q0 -104 -85.5 -170.5t-223.5 -66.5q-102 0 -173 45.5t-71 122.5q0 49 39.5 97t124.5 81q-71 40 -111 87.5t-40 119.5q0 40 15 77t45.5 68.5t86 50.5t129.5 19q91 0 160 -41.5t69 -114.5q0 -50 -38.5 -90.5t-112.5 -64.5q87 -42 136.5 -91.5t49.5 -128.5z
M213 1362q0 -30 13 -54.5t42 -45.5t52 -33.5t67 -33.5q13 -6 19 -9q79 53 79 137q0 71 -39 108t-102 37q-61 0 -96 -29t-35 -77zM143 883q0 -65 48.5 -105.5t117.5 -40.5q68 0 111 34t43 93q0 20 -6 38t-20 33.5t-27 27.5t-37 26t-39.5 22t-45.5 22.5t-44 21.5
q-101 -72 -101 -172z" />
    <glyph glyph-name="nine.numr" horiz-adv-x="677" 
d="M618 1176q0 -126 -70 -227.5t-191 -160.5t-273 -69v14q164 31 249.5 120t98.5 245q-80 -66 -168 -66q-95 0 -156 58t-61 151q0 103 76 174.5t199 71.5q60 0 112 -18t94 -54t66 -97.5t24 -141.5zM319 1468q-54 0 -81 -54t-27 -144q0 -191 119 -191q53 0 104 43q2 14 2 47
q0 299 -117 299z" />
    <glyph glyph-name="comma.dnom" 
d="M152 -27q0 19 -14 35.5t-30.5 26t-30.5 19.5t-14 16q0 46 25 73t72 27q42 0 70 -24t28 -66q0 -78 -46.5 -137.5t-135.5 -114.5l-10 10q86 66 86 135z" />
    <glyph glyph-name="period.dnom" 
d="M160 170q43 0 70.5 -24.5t27.5 -63.5t-27.5 -63.5t-70.5 -24.5q-42 0 -68 24.5t-26 63.5t26 63.5t68 24.5z" />
    <glyph glyph-name="parenleft.dnom" horiz-adv-x="372" 
d="M53 344q0 63 16 118t38 94t62 80.5t71.5 66.5t83.5 63l8 -12q-85 -61 -126.5 -153.5t-41.5 -256.5q0 -165 41.5 -258t126.5 -152l-8 -14q-53 39 -84 64t-71.5 67t-62 81t-37.5 94t-16 118z" />
    <glyph glyph-name="parenright.dnom" horiz-adv-x="372" 
d="M317 344q0 -63 -15.5 -118t-37 -94.5t-61 -80.5t-71 -67t-83.5 -64l-10 14q87 59 128.5 151.5t41.5 258.5q0 165 -41.5 257t-128.5 153l10 12q51 -37 83 -63t71 -66.5t61 -80t37.5 -94.5t15.5 -118z" />
    <glyph glyph-name="plus.dnom" horiz-adv-x="671" 
d="M113 360v25h206v197h31v-197h209v-25h-209v-198h-31v198h-206z" />
    <glyph glyph-name="zero.dnom" horiz-adv-x="714" 
d="M356 762q139 0 228.5 -102.5t89.5 -282.5q0 -87 -27.5 -160.5t-72.5 -121.5t-101.5 -74.5t-114.5 -26.5q-138 0 -226.5 104.5t-88.5 278.5q0 177 94 281t219 104zM373 10q54 0 87.5 78t33.5 227q0 209 -44.5 318.5t-107.5 109.5q-54 0 -87.5 -78t-33.5 -227
q0 -210 44.5 -319t107.5 -109z" />
    <glyph glyph-name="one.dnom" horiz-adv-x="567" 
d="M221 594q0 25 -13 34t-46 3l-129 -23l-6 15l366 137l8 -6v-680q0 -21 7.5 -30t27.5 -15l56 -17v-12q-94 4 -185 4q-82 0 -176 -4v12l53 17q22 6 29.5 15t7.5 30v520z" />
    <glyph glyph-name="two.dnom" horiz-adv-x="643" 
d="M545 4h-506v14l63.5 63.5l64 64t55.5 60t53 65t41.5 64.5t35 74t19 77.5t8.5 88.5q0 168 -119 168q-34 0 -72.5 -16t-62 -31.5t-70.5 -50.5v66q137 51 242 51q113 0 186.5 -52t73.5 -149q0 -43 -17 -85t-44 -77.5t-75.5 -78.5t-95 -78t-120.5 -86l211 4q87 0 114.5 19.5
t51.5 94.5h16q-15 -64 -53 -270z" />
    <glyph glyph-name="three.dnom" horiz-adv-x="587" 
d="M344 639q0 104 -111 104q-87 0 -182 -90v60q122 49 213 49q112 0 170 -40t58 -110q0 -116 -156 -180q91 -2 145 -54t54 -138q0 -115 -91.5 -180.5t-232.5 -65.5q-78 0 -168 22v74q81 -78 152 -78q74 0 115.5 55.5t41.5 143.5q0 164 -127 164q-40 0 -80 -13l-4 21
q81 33 142 105.5t61 150.5z" />
    <glyph glyph-name="four.dnom" horiz-adv-x="665" 
d="M514 4h-182v197h-307v26l452 535h37v-477h137l-18 -84h-119v-197zM106 285h226v268z" />
    <glyph glyph-name="five.dnom" horiz-adv-x="620" 
d="M164 750h381l-25 -142h-368l-13 -57l178 -53q118 -36 176 -93t58 -145q0 -129 -126.5 -197.5t-344.5 -68.5v16h29q135 0 203.5 53.5t68.5 137.5q0 125 -160 176l-131 41z" />
    <glyph glyph-name="six.dnom" horiz-adv-x="677" 
d="M631 238q0 -104 -77 -174t-200 -70q-61 0 -112.5 17.5t-93 53.5t-65.5 97t-24 141q0 190 150 315.5t383 143.5l2 -17q-161 -29 -246 -118t-100 -244q77 63 164 63q95 0 157 -57.5t62 -150.5zM358 10q52 0 80.5 54.5t28.5 142.5q0 190 -119 190q-49 0 -102 -39
q-2 -16 -2 -49q0 -299 114 -299z" />
    <glyph glyph-name="seven.dnom" horiz-adv-x="600" 
d="M213 2h-82l350 592h-448l39 156h501l9 -15z" />
    <glyph glyph-name="eight.dnom" horiz-adv-x="669" 
d="M610 231q0 -104 -85.5 -170.5t-223.5 -66.5q-102 0 -173 45.5t-71 122.5q0 49 39.5 97t124.5 81q-71 40 -111 87.5t-40 119.5q0 40 15 77t45.5 68.5t86 50.5t129.5 19q91 0 160 -41.5t69 -114.5q0 -50 -38.5 -90.5t-112.5 -64.5q87 -42 136.5 -91.5t49.5 -128.5zM213 637
q0 -30 13 -54.5t42 -45.5t52 -33.5t67 -33.5q13 -6 19 -9q79 53 79 137q0 71 -39 108t-102 37q-61 0 -96 -29t-35 -77zM143 158q0 -65 48.5 -105.5t117.5 -40.5q68 0 111 34t43 93q0 20 -6 38t-20 33.5t-27 27.5t-37 26t-39.5 22t-45.5 22.5t-44 21.5q-101 -72 -101 -172z
" />
    <glyph glyph-name="nine.dnom" horiz-adv-x="677" 
d="M618 451q0 -126 -70 -227.5t-191 -160.5t-273 -69v14q164 31 249.5 120t98.5 245q-80 -66 -168 -66q-95 0 -156 58t-61 151q0 103 76 174.5t199 71.5q60 0 112 -18t94 -54t66 -97.5t24 -141.5zM319 743q-54 0 -81 -54t-27 -144q0 -191 119 -191q53 0 104 43q2 14 2 47
q0 299 -117 299z" />
    <glyph glyph-name="glyph114" horiz-adv-x="716" 
d="M958 1475l-1134 -1475h-66l1135 1475h65z" />
    </font>
</defs>
</svg>
